M48
;Layer_Color=9474304
;FILE_FORMAT=2:5
INCH,LZ
;TYPE=PLATED
T1F00S00C0.01968
T2F00S00C0.02000
T3F00S00C0.03346
T4F00S00C0.03543
T5F00S00C0.05512
T6F00S00C0.09843
%
T01
X0395581Y0241681
X03998Y02535
X03921Y0256048
X03886Y0272
X03998Y0278478
X04032Y0282681
X04127Y02713
X04195Y02438
X04093Y03083
X04065Y03565
X0382
T02
X03635Y0338
Y0343
Y0348
Y0353
Y0358
Y0363
Y0368001
Y03729
T03
X043Y0287
Y03165
T04
X0340945Y02825
Y0321925
T05
X03435Y0350157
Y0369843
T06
X04265Y02315
X03845Y03215
M30
