%TF.GenerationSoftware,Altium Limited,Altium Designer,22.2.1 (43)*%
G04 Layer_Physical_Order=1*
G04 Layer_Color=255*
%FSLAX45Y45*%
%MOMM*%
%TF.SameCoordinates,E85C5352-B1E5-4D08-830E-0896481A3A09*%
%TF.FilePolarity,Positive*%
%TF.FileFunction,Copper,L1,Top,Signal*%
%TF.Part,Single*%
G01*
G75*
%TA.AperFunction,SMDPad,CuDef*%
%ADD10R,0.80000X1.20000*%
%ADD11R,0.76000X1.20000*%
%ADD12R,0.70000X1.20000*%
%ADD13R,2.00000X0.90000*%
G04:AMPARAMS|DCode=14|XSize=1mm|YSize=1.42mm|CornerRadius=0.125mm|HoleSize=0mm|Usage=FLASHONLY|Rotation=90.000|XOffset=0mm|YOffset=0mm|HoleType=Round|Shape=RoundedRectangle|*
%AMROUNDEDRECTD14*
21,1,1.00000,1.17000,0,0,90.0*
21,1,0.75000,1.42000,0,0,90.0*
1,1,0.25000,0.58500,0.37500*
1,1,0.25000,0.58500,-0.37500*
1,1,0.25000,-0.58500,-0.37500*
1,1,0.25000,-0.58500,0.37500*
%
%ADD14ROUNDEDRECTD14*%
G04:AMPARAMS|DCode=15|XSize=1.16mm|YSize=1.47mm|CornerRadius=0mm|HoleSize=0mm|Usage=FLASHONLY|Rotation=135.000|XOffset=0mm|YOffset=0mm|HoleType=Round|Shape=Rectangle|*
%AMROTATEDRECTD15*
4,1,4,0.92985,0.10960,-0.10960,-0.92985,-0.92985,-0.10960,0.10960,0.92985,0.92985,0.10960,0.0*
%
%ADD15ROTATEDRECTD15*%

%ADD16R,1.16000X1.47000*%
%ADD17R,1.47000X1.16000*%
%ADD18R,0.90000X2.00000*%
%ADD19R,5.08000X5.08000*%
G04:AMPARAMS|DCode=20|XSize=0.93mm|YSize=1.31mm|CornerRadius=0.06975mm|HoleSize=0mm|Usage=FLASHONLY|Rotation=0.000|XOffset=0mm|YOffset=0mm|HoleType=Round|Shape=RoundedRectangle|*
%AMROUNDEDRECTD20*
21,1,0.93000,1.17050,0,0,0.0*
21,1,0.79050,1.31000,0,0,0.0*
1,1,0.13950,0.39525,-0.58525*
1,1,0.13950,-0.39525,-0.58525*
1,1,0.13950,-0.39525,0.58525*
1,1,0.13950,0.39525,0.58525*
%
%ADD20ROUNDEDRECTD20*%
G04:AMPARAMS|DCode=21|XSize=3.24mm|YSize=1.31mm|CornerRadius=0.09825mm|HoleSize=0mm|Usage=FLASHONLY|Rotation=0.000|XOffset=0mm|YOffset=0mm|HoleType=Round|Shape=RoundedRectangle|*
%AMROUNDEDRECTD21*
21,1,3.24000,1.11350,0,0,0.0*
21,1,3.04350,1.31000,0,0,0.0*
1,1,0.19650,1.52175,-0.55675*
1,1,0.19650,-1.52175,-0.55675*
1,1,0.19650,-1.52175,0.55675*
1,1,0.19650,1.52175,0.55675*
%
%ADD21ROUNDEDRECTD21*%
G04:AMPARAMS|DCode=22|XSize=1.4732mm|YSize=0.3556mm|CornerRadius=0mm|HoleSize=0mm|Usage=FLASHONLY|Rotation=225.000|XOffset=0mm|YOffset=0mm|HoleType=Round|Shape=Rectangle|*
%AMROTATEDRECTD22*
4,1,4,0.39513,0.64658,0.64658,0.39513,-0.39513,-0.64658,-0.64658,-0.39513,0.39513,0.64658,0.0*
%
%ADD22ROTATEDRECTD22*%

G04:AMPARAMS|DCode=23|XSize=0.7mm|YSize=1.6mm|CornerRadius=0mm|HoleSize=0mm|Usage=FLASHONLY|Rotation=135.000|XOffset=0mm|YOffset=0mm|HoleType=Round|Shape=Rectangle|*
%AMROTATEDRECTD23*
4,1,4,0.81318,0.31820,-0.31820,-0.81318,-0.81318,-0.31820,0.31820,0.81318,0.81318,0.31820,0.0*
%
%ADD23ROTATEDRECTD23*%

G04:AMPARAMS|DCode=24|XSize=0.5mm|YSize=1.6mm|CornerRadius=0mm|HoleSize=0mm|Usage=FLASHONLY|Rotation=135.000|XOffset=0mm|YOffset=0mm|HoleType=Round|Shape=Rectangle|*
%AMROTATEDRECTD24*
4,1,4,0.74246,0.38891,-0.38891,-0.74246,-0.74246,-0.38891,0.38891,0.74246,0.74246,0.38891,0.0*
%
%ADD24ROTATEDRECTD24*%

G04:AMPARAMS|DCode=25|XSize=1.1mm|YSize=1.4mm|CornerRadius=0mm|HoleSize=0mm|Usage=FLASHONLY|Rotation=135.000|XOffset=0mm|YOffset=0mm|HoleType=Round|Shape=Rectangle|*
%AMROTATEDRECTD25*
4,1,4,0.88388,0.10607,-0.10607,-0.88388,-0.88388,-0.10607,0.10607,0.88388,0.88388,0.10607,0.0*
%
%ADD25ROTATEDRECTD25*%

G04:AMPARAMS|DCode=26|XSize=1.2mm|YSize=2.2mm|CornerRadius=0mm|HoleSize=0mm|Usage=FLASHONLY|Rotation=135.000|XOffset=0mm|YOffset=0mm|HoleType=Round|Shape=Rectangle|*
%AMROTATEDRECTD26*
4,1,4,1.20208,0.35355,-0.35355,-1.20208,-1.20208,-0.35355,0.35355,1.20208,1.20208,0.35355,0.0*
%
%ADD26ROTATEDRECTD26*%

G04:AMPARAMS|DCode=27|XSize=1.6mm|YSize=1.4mm|CornerRadius=0mm|HoleSize=0mm|Usage=FLASHONLY|Rotation=135.000|XOffset=0mm|YOffset=0mm|HoleType=Round|Shape=Rectangle|*
%AMROTATEDRECTD27*
4,1,4,1.06066,-0.07071,0.07071,-1.06066,-1.06066,0.07071,-0.07071,1.06066,1.06066,-0.07071,0.0*
%
%ADD27ROTATEDRECTD27*%

G04:AMPARAMS|DCode=28|XSize=1mm|YSize=1.42mm|CornerRadius=0.125mm|HoleSize=0mm|Usage=FLASHONLY|Rotation=45.000|XOffset=0mm|YOffset=0mm|HoleType=Round|Shape=RoundedRectangle|*
%AMROUNDEDRECTD28*
21,1,1.00000,1.17000,0,0,45.0*
21,1,0.75000,1.42000,0,0,45.0*
1,1,0.25000,0.67883,-0.14849*
1,1,0.25000,0.14849,-0.67883*
1,1,0.25000,-0.67883,0.14849*
1,1,0.25000,-0.14849,0.67883*
%
%ADD28ROUNDEDRECTD28*%
G04:AMPARAMS|DCode=29|XSize=1mm|YSize=1.42mm|CornerRadius=0.125mm|HoleSize=0mm|Usage=FLASHONLY|Rotation=135.000|XOffset=0mm|YOffset=0mm|HoleType=Round|Shape=RoundedRectangle|*
%AMROUNDEDRECTD29*
21,1,1.00000,1.17000,0,0,135.0*
21,1,0.75000,1.42000,0,0,135.0*
1,1,0.25000,0.14849,0.67883*
1,1,0.25000,0.67883,0.14849*
1,1,0.25000,-0.14849,-0.67883*
1,1,0.25000,-0.67883,-0.14849*
%
%ADD29ROUNDEDRECTD29*%
G04:AMPARAMS|DCode=30|XSize=1mm|YSize=1.42mm|CornerRadius=0.125mm|HoleSize=0mm|Usage=FLASHONLY|Rotation=0.000|XOffset=0mm|YOffset=0mm|HoleType=Round|Shape=RoundedRectangle|*
%AMROUNDEDRECTD30*
21,1,1.00000,1.17000,0,0,0.0*
21,1,0.75000,1.42000,0,0,0.0*
1,1,0.25000,0.37500,-0.58500*
1,1,0.25000,-0.37500,-0.58500*
1,1,0.25000,-0.37500,0.58500*
1,1,0.25000,0.37500,0.58500*
%
%ADD30ROUNDEDRECTD30*%
%ADD31R,0.80000X2.00000*%
%TA.AperFunction,Conductor*%
%ADD32C,0.63500*%
%ADD33C,0.40000*%
%ADD34C,0.80000*%
%ADD35C,0.50000*%
%ADD36C,0.30000*%
%ADD37C,0.25400*%
%ADD38C,0.59944*%
%ADD39C,0.50038*%
%ADD40C,0.31000*%
%ADD41C,0.32000*%
%ADD42C,0.27940*%
%TA.AperFunction,ComponentPad*%
%ADD43O,1.10000X2.20000*%
%ADD44C,1.50800*%
%ADD45R,1.50800X1.50800*%
%ADD46P,2.13263X4X365.0*%
%ADD47R,0.90000X2.00000*%
%ADD48P,2.13263X4X280.0*%
%TA.AperFunction,ViaPad*%
%ADD49C,1.52400*%
%TA.AperFunction,ComponentPad*%
G04:AMPARAMS|DCode=50|XSize=1.6mm|YSize=0.6mm|CornerRadius=0mm|HoleSize=0mm|Usage=FLASHONLY|Rotation=135.000|XOffset=0mm|YOffset=0mm|HoleType=Round|Shape=Rectangle|*
%AMROTATEDRECTD50*
4,1,4,0.77782,-0.35356,0.35356,-0.77782,-0.77782,0.35356,-0.35356,0.77782,0.77782,-0.35356,0.0*
%
%ADD50ROTATEDRECTD50*%

%ADD51R,1.50000X1.50000*%
%ADD52R,1.50000X1.50000*%
%ADD53R,1.50000X1.25000*%
%TA.AperFunction,ViaPad*%
%ADD54C,1.27000*%
%ADD55C,1.01600*%
G36*
X12353204Y11232030D02*
X12204723Y11083550D01*
X12056242Y11232030D01*
X12060719Y11244730D01*
X12352918D01*
X12353204Y11232030D01*
D02*
G37*
G36*
X12061305Y11081623D02*
X12056445Y11069889D01*
X11627883D01*
X11622622Y11082589D01*
X11687505Y11147473D01*
X11995455D01*
X12061305Y11081623D01*
D02*
G37*
G36*
X12734080Y11035921D02*
X12729220Y11024187D01*
X12646081D01*
X12626416Y11020276D01*
X12609745Y11009136D01*
X12593123Y10992515D01*
X12508970Y11076667D01*
X12508968Y11076665D01*
X12438821Y11146812D01*
X12438824Y11146814D01*
X12353607Y11232030D01*
X12353893Y11244730D01*
X12525268D01*
X12734080Y11035921D01*
D02*
G37*
G36*
X9331397Y11007797D02*
X9350301Y10995166D01*
X9372600Y10990730D01*
X9539458D01*
X9561755Y10995165D01*
X9561756Y10995166D01*
X9561757Y10995166D01*
X9580660Y11007796D01*
X9590665Y11017801D01*
X9602398Y11012941D01*
Y10825320D01*
X9583900D01*
X9580400Y10825320D01*
X9571200D01*
X9567700Y10825320D01*
X9500500D01*
Y10726420D01*
Y10627520D01*
X9567700D01*
X9571200Y10627520D01*
X9580400D01*
X9583900Y10627520D01*
X9614954D01*
Y10411300D01*
X9581360D01*
X9577860Y10411300D01*
X9568660D01*
X9565160Y10411300D01*
X9497960D01*
Y10312400D01*
Y10213500D01*
X9565160D01*
X9568660Y10213500D01*
X9577860D01*
X9581360Y10213500D01*
X9605531D01*
Y9924679D01*
X9609967Y9902380D01*
X9622598Y9883476D01*
X10185550Y9320524D01*
Y9241824D01*
X10180416Y9237884D01*
X10166166Y9219314D01*
X10157208Y9197687D01*
X10154153Y9174480D01*
X10157208Y9151273D01*
X10166166Y9129646D01*
X10180416Y9111076D01*
X10198986Y9096826D01*
X10220613Y9087868D01*
X10243820Y9084813D01*
X10267027Y9087868D01*
X10288654Y9096826D01*
X10307224Y9111076D01*
X10321474Y9129646D01*
X10330432Y9151273D01*
X10333487Y9174480D01*
X10330432Y9197687D01*
X10321474Y9219314D01*
X10307224Y9237884D01*
X10302090Y9241824D01*
Y9344660D01*
X10297654Y9366959D01*
X10285023Y9385863D01*
X9722070Y9948815D01*
Y10213500D01*
X9744660D01*
Y10251590D01*
X9785344D01*
X9850270Y10186664D01*
Y9999980D01*
X9854706Y9977681D01*
X9867337Y9958777D01*
X10229292Y9596823D01*
X10248196Y9584191D01*
X10270495Y9579756D01*
X11024559D01*
X11092719Y9511595D01*
X11098447Y9505867D01*
X11104175Y9500139D01*
X11151693Y9452621D01*
X11221626Y9522554D01*
X11291559Y9592487D01*
X11244041Y9640005D01*
X11238313Y9645733D01*
X11201266Y9682779D01*
X11224312Y9705826D01*
X11230797Y9699341D01*
X11370889Y9839432D01*
X11302641Y9907680D01*
X11232595Y9837635D01*
X11214635Y9855595D01*
X11286834Y9927795D01*
X11290833Y9937449D01*
X11511428D01*
X11596209Y9852665D01*
X11590501Y9844121D01*
X11587559Y9829333D01*
X11590501Y9814546D01*
X11598877Y9802009D01*
X11681609Y9719277D01*
X11694146Y9710901D01*
X11708933Y9707959D01*
X11723721Y9710901D01*
X11736257Y9719277D01*
X11789290Y9772310D01*
X11797667Y9784847D01*
X11800609Y9799635D01*
X11797667Y9814422D01*
X11789290Y9826959D01*
X11706559Y9909690D01*
X11694022Y9918067D01*
X11679235Y9921009D01*
X11664447Y9918067D01*
X11655905Y9912360D01*
X11558761Y10009507D01*
X11558760Y10009508D01*
X11545067Y10018658D01*
X11528913Y10021871D01*
X11528912Y10021871D01*
X11266856D01*
X11250702Y10018658D01*
X11237008Y10009508D01*
X11237007Y10009507D01*
X11218911Y9991411D01*
X11218226Y9992096D01*
X11218223Y9992093D01*
X11185893Y10024423D01*
X11185896Y10024426D01*
X11164343Y10045978D01*
X11094297Y9975933D01*
X11076337Y9993893D01*
X11146383Y10063939D01*
X11124830Y10085492D01*
X11044507Y10165814D01*
Y10504475D01*
X11128158Y10588125D01*
X11141938Y10583945D01*
X11143394Y10576626D01*
X11147313Y10570760D01*
Y10480040D01*
X11150271Y10465174D01*
X11158691Y10452571D01*
X11425391Y10185871D01*
X11437994Y10177451D01*
X11452860Y10174493D01*
X11500536D01*
X11515402Y10177451D01*
X11528004Y10185871D01*
X11549226Y10207093D01*
X11582822Y10173497D01*
X11604374Y10151944D01*
X11674420Y10221990D01*
X11744466Y10292036D01*
X11736598Y10299904D01*
X11793439Y10356747D01*
X11806139D01*
X11808609Y10354277D01*
X11821146Y10345901D01*
X11835933Y10342959D01*
X11850721Y10345901D01*
X11863257Y10354277D01*
X11916290Y10407310D01*
X11924667Y10419847D01*
X11927609Y10434635D01*
X11924667Y10449422D01*
X11916290Y10461959D01*
X11833559Y10544690D01*
X11821022Y10553067D01*
X11806235Y10556009D01*
X11791447Y10553067D01*
X11778910Y10544690D01*
X11725877Y10491657D01*
X11717501Y10479121D01*
X11714559Y10464333D01*
X11717501Y10449546D01*
X11725877Y10437009D01*
X11740094Y10422792D01*
X11685599Y10368297D01*
X11667922Y10368580D01*
X11645684Y10390818D01*
X11645687Y10390821D01*
X11624134Y10412373D01*
X11554088Y10342328D01*
X11484042Y10272281D01*
X11491227Y10265097D01*
X11491224Y10265094D01*
X11494288Y10262030D01*
X11484445Y10252187D01*
X11468951D01*
X11225007Y10496131D01*
Y10567723D01*
X11634594Y10977311D01*
X12063235D01*
X12227477Y10813069D01*
X12227477Y10813068D01*
X12242495Y10803034D01*
X12260209Y10799511D01*
X12363520D01*
X12363521Y10799510D01*
X12381235Y10803034D01*
X12396253Y10813068D01*
X12427342Y10844157D01*
X12444334Y10843188D01*
X12515475Y10772047D01*
X12515472Y10772045D01*
X12528694Y10758823D01*
X12504973Y10735101D01*
X12285473D01*
X12069087Y10951487D01*
X12055559Y10960527D01*
X12039600Y10963701D01*
X11734800D01*
X11718841Y10960527D01*
X11705313Y10951487D01*
X11499573Y10745747D01*
X11490533Y10732219D01*
X11487359Y10716260D01*
Y10565737D01*
X11475626Y10560877D01*
X11446323Y10590179D01*
X11385257Y10529114D01*
X11415790Y10498581D01*
X11406810Y10489601D01*
X11415790Y10480620D01*
X11345744Y10410574D01*
X11352926Y10403392D01*
X11397828Y10358490D01*
X11458894Y10297424D01*
X11458897Y10297427D01*
X11466081Y10290242D01*
X11536128Y10360288D01*
X11606173Y10430334D01*
X11601187Y10435320D01*
X11639119Y10473251D01*
X11639119Y10473252D01*
X11649154Y10488269D01*
X11652677Y10505984D01*
X11652677Y10505985D01*
Y10519163D01*
X11665377Y10525951D01*
X11668746Y10523701D01*
X11683533Y10520759D01*
X11698321Y10523701D01*
X11710857Y10532077D01*
X11763890Y10585110D01*
X11772267Y10597647D01*
X11775209Y10612435D01*
X11772267Y10627222D01*
X11763890Y10639759D01*
X11681159Y10722490D01*
X11668622Y10730867D01*
X11653835Y10733809D01*
X11639047Y10730867D01*
X11626510Y10722490D01*
X11583461Y10679441D01*
X11570761Y10684702D01*
Y10698987D01*
X11752073Y10880299D01*
X12022327D01*
X12238713Y10663913D01*
X12252241Y10654873D01*
X12268200Y10651699D01*
X12522246D01*
X12538204Y10654873D01*
X12551733Y10663913D01*
X12587668Y10699849D01*
X12600890Y10686627D01*
X12600893Y10686629D01*
X12626986Y10660536D01*
X12701515Y10735065D01*
X12776044Y10809594D01*
X12742315Y10843323D01*
X12742313Y10843320D01*
X12676920Y10908713D01*
X12682181Y10921413D01*
X12846989D01*
X13251331Y10517072D01*
Y10412736D01*
X12963597Y10125003D01*
X12950966Y10106099D01*
X12946530Y10083800D01*
Y9829800D01*
X12950966Y9807501D01*
X12963597Y9788597D01*
X13022729Y9729464D01*
Y9168600D01*
X12980200D01*
Y8967000D01*
X13022729D01*
Y8338858D01*
X12983279D01*
Y8137258D01*
X13022729D01*
Y7492200D01*
X12980200D01*
Y7290600D01*
X13015036D01*
Y6697363D01*
X12732999Y6415327D01*
X12723270Y6423490D01*
X12780814Y6505671D01*
X12615673Y6621303D01*
X12500040Y6456163D01*
X12652984Y6349070D01*
X12654091Y6336418D01*
X11928939Y5611267D01*
X11895118D01*
X11884288Y5618503D01*
X11869500Y5621445D01*
X11752500D01*
X11737712Y5618503D01*
X11725176Y5610127D01*
X11716799Y5597591D01*
X11716620Y5596690D01*
X11590503D01*
X11570838Y5592778D01*
X11554166Y5581639D01*
X11535456Y5562928D01*
X11507806D01*
Y5587525D01*
X11525606Y5591065D01*
X11542277Y5602205D01*
X11620988Y5680915D01*
X11716620D01*
X11716799Y5680015D01*
X11725176Y5667478D01*
X11737712Y5659102D01*
X11752500Y5656160D01*
X11869500D01*
X11884288Y5659102D01*
X11895932Y5666882D01*
X11908875Y5668586D01*
X11924785Y5675176D01*
X11938446Y5685659D01*
X12158069Y5905282D01*
X12177107Y5907788D01*
X12198734Y5916746D01*
X12217304Y5930996D01*
X12231554Y5949566D01*
X12240512Y5971193D01*
X12243567Y5994400D01*
X12240512Y6017607D01*
X12231554Y6039234D01*
X12217304Y6057804D01*
X12198734Y6072054D01*
X12177107Y6081012D01*
X12153900Y6084067D01*
X12151803Y6083791D01*
X12146186Y6095181D01*
X12228336Y6177332D01*
X12239476Y6194003D01*
X12243387Y6213668D01*
Y7124217D01*
X12413432Y7294258D01*
X12475403D01*
X12490190Y7297199D01*
X12502727Y7305576D01*
X12511103Y7318112D01*
X12514045Y7332900D01*
Y7340013D01*
X12743374D01*
X12759107Y7319509D01*
X12780163Y7303352D01*
X12804684Y7293195D01*
X12830998Y7289730D01*
X12857312Y7293195D01*
X12881833Y7303352D01*
X12902888Y7319509D01*
X12919046Y7340565D01*
X12929202Y7365086D01*
X12932668Y7391400D01*
X12929202Y7417714D01*
X12919046Y7442235D01*
X12902888Y7463291D01*
X12881833Y7479448D01*
X12857312Y7489605D01*
X12830998Y7493070D01*
X12804684Y7489605D01*
X12780163Y7479448D01*
X12759107Y7463291D01*
X12743374Y7442787D01*
X12514045D01*
Y7449900D01*
X12511103Y7464688D01*
X12502727Y7477224D01*
X12490190Y7485601D01*
X12475403Y7488542D01*
X12400402D01*
X12385615Y7485601D01*
X12373078Y7477224D01*
X12364702Y7464688D01*
X12361760Y7449900D01*
Y7387931D01*
X12338773Y7364945D01*
X12327040Y7369805D01*
Y7378700D01*
X12174755D01*
Y7332900D01*
X12177697Y7318112D01*
X12186073Y7305576D01*
X12198610Y7297199D01*
X12213397Y7294258D01*
X12251491D01*
X12256351Y7282524D01*
X12155664Y7181839D01*
X12144525Y7165168D01*
X12140613Y7145503D01*
Y6234953D01*
X11974307Y6068647D01*
X11507806D01*
Y6095154D01*
X11861541D01*
X11881206Y6099065D01*
X11897877Y6110205D01*
X12111496Y6323824D01*
X12122636Y6340495D01*
X12126547Y6360160D01*
Y7849976D01*
X12409033Y8132458D01*
X12450003D01*
X12464790Y8135399D01*
X12477327Y8143776D01*
X12485703Y8156312D01*
X12488645Y8171100D01*
Y8186671D01*
X12746457D01*
X12762190Y8166167D01*
X12783247Y8150010D01*
X12807767Y8139853D01*
X12834082Y8136389D01*
X12860396Y8139853D01*
X12884917Y8150010D01*
X12905972Y8166167D01*
X12922130Y8187223D01*
X12932288Y8211744D01*
X12935751Y8238058D01*
X12932288Y8264372D01*
X12922130Y8288893D01*
X12905972Y8309949D01*
X12884917Y8326107D01*
X12860396Y8336263D01*
X12834082Y8339728D01*
X12807767Y8336263D01*
X12783247Y8326107D01*
X12762190Y8309949D01*
X12746457Y8289445D01*
X12488377D01*
X12485703Y8302888D01*
X12477327Y8315424D01*
X12464790Y8323801D01*
X12450003Y8326742D01*
X12375002D01*
X12360215Y8323801D01*
X12347678Y8315424D01*
X12339302Y8302888D01*
X12336360Y8288100D01*
Y8205130D01*
X12314345Y8183115D01*
X12301645Y8188376D01*
Y8216900D01*
X12238203D01*
Y8132458D01*
X12245726D01*
X12250986Y8119758D01*
X12038824Y7907598D01*
X12027684Y7890927D01*
X12023773Y7871262D01*
Y6381445D01*
X11840256Y6197928D01*
X11507806D01*
Y6345552D01*
X11680139D01*
X11699804Y6349464D01*
X11716475Y6360603D01*
X11994656Y6638784D01*
X12005796Y6655455D01*
X12009707Y6675120D01*
Y8563234D01*
X12417131Y8970658D01*
X12458100D01*
X12472888Y8973599D01*
X12485424Y8981976D01*
X12493801Y8994512D01*
X12496742Y9009300D01*
Y9016413D01*
X12743374D01*
X12759107Y8995909D01*
X12780163Y8979752D01*
X12804684Y8969595D01*
X12830998Y8966130D01*
X12857312Y8969595D01*
X12881833Y8979752D01*
X12902888Y8995909D01*
X12919046Y9016965D01*
X12929202Y9041486D01*
X12932668Y9067800D01*
X12929202Y9094114D01*
X12919046Y9118635D01*
X12902888Y9139691D01*
X12881833Y9155848D01*
X12857312Y9166005D01*
X12830998Y9169470D01*
X12804684Y9166005D01*
X12780163Y9155848D01*
X12759107Y9139691D01*
X12743374Y9119187D01*
X12496742D01*
Y9126300D01*
X12493801Y9141088D01*
X12485424Y9153624D01*
X12472888Y9162001D01*
X12458100Y9164942D01*
X12383100D01*
X12368312Y9162001D01*
X12355776Y9153624D01*
X12347399Y9141088D01*
X12344458Y9126300D01*
Y9043329D01*
X12322442Y9021314D01*
X12309742Y9026575D01*
Y9055100D01*
X12246300D01*
Y8970658D01*
X12253825D01*
X12259086Y8957958D01*
X11921984Y8620856D01*
X11910844Y8604184D01*
X11906933Y8584519D01*
Y6946126D01*
X11894233Y6940202D01*
X11889664Y6944034D01*
Y7404100D01*
X11887417Y7421173D01*
X11880827Y7437082D01*
X11870344Y7450744D01*
X11502044Y7819044D01*
X11488382Y7829527D01*
X11472473Y7836117D01*
X11455400Y7838364D01*
X11338032D01*
X11333172Y7850098D01*
X11336796Y7853722D01*
X11347936Y7870393D01*
X11351847Y7890058D01*
Y8022640D01*
X11394280D01*
Y8185940D01*
X11394280Y8189440D01*
Y8198640D01*
X11394280Y8202140D01*
Y8269340D01*
X11295380D01*
X11196480D01*
Y8202140D01*
X11196480Y8198640D01*
Y8189440D01*
X11196480Y8185940D01*
Y8022640D01*
X11249073D01*
Y7911343D01*
X11235530Y7897800D01*
X11117402D01*
X11113087Y7908713D01*
Y8381035D01*
X12322316Y9590264D01*
X12333456Y9606935D01*
X12337367Y9626600D01*
Y10497820D01*
X12333456Y10517485D01*
X12322316Y10534156D01*
X12075469Y10781004D01*
X12058798Y10792143D01*
X12039133Y10796055D01*
X11872059D01*
X11813391Y10854723D01*
X11800854Y10863099D01*
X11786067Y10866041D01*
X11771279Y10863099D01*
X11758743Y10854723D01*
X11705710Y10801690D01*
X11697333Y10789153D01*
X11694391Y10774365D01*
X11697333Y10759578D01*
X11705710Y10747041D01*
X11788441Y10664310D01*
X11800978Y10655933D01*
X11815765Y10652991D01*
X11830553Y10655933D01*
X11843090Y10664310D01*
X11872060Y10693280D01*
X11912764D01*
X11916616Y10680580D01*
X11911143Y10676923D01*
X11858110Y10623890D01*
X11849733Y10611353D01*
X11846791Y10596565D01*
X11849733Y10581778D01*
X11858110Y10569241D01*
X11940841Y10486510D01*
X11953378Y10478133D01*
X11968165Y10475191D01*
X11981834Y10477910D01*
X12064413Y10395331D01*
Y10140116D01*
X12051713Y10137589D01*
X12051214Y10138794D01*
X12036964Y10157364D01*
X12018394Y10171614D01*
X11996767Y10180572D01*
X11973560Y10183627D01*
X11950353Y10180572D01*
X11928726Y10171614D01*
X11910156Y10157364D01*
X11895906Y10138794D01*
X11886948Y10117167D01*
X11883893Y10093960D01*
X11885870Y10078943D01*
X11843821Y10036893D01*
X11838791Y10041923D01*
X11826254Y10050299D01*
X11811467Y10053241D01*
X11796679Y10050299D01*
X11784143Y10041923D01*
X11731110Y9988890D01*
X11722733Y9976353D01*
X11719791Y9961565D01*
X11722733Y9946778D01*
X11731110Y9934241D01*
X11813841Y9851510D01*
X11826378Y9843133D01*
X11841165Y9840191D01*
X11855953Y9843133D01*
X11868490Y9851510D01*
X11921523Y9904543D01*
X11929899Y9917079D01*
X11932841Y9931867D01*
X11929899Y9946654D01*
X11921523Y9959191D01*
X11916493Y9964221D01*
X11958543Y10006270D01*
X11973560Y10004293D01*
X11996767Y10007348D01*
X12018394Y10016306D01*
X12036964Y10030556D01*
X12051214Y10049126D01*
X12051713Y10050331D01*
X12064413Y10047804D01*
Y9673285D01*
X11828065Y9436937D01*
X11823645Y9438405D01*
X11816685Y9443518D01*
X11817715Y9451340D01*
X11742420D01*
Y9376045D01*
X11750242Y9377075D01*
X11755355Y9370115D01*
X11756823Y9365695D01*
X10940568Y8549441D01*
X10929429Y8532770D01*
X10925517Y8513105D01*
Y7260941D01*
X10144505D01*
Y7260941D01*
X10031305D01*
Y7260941D01*
X10010727D01*
Y8481060D01*
X10006816Y8500725D01*
X9995676Y8517396D01*
X9413539Y9099539D01*
X9396867Y9110678D01*
X9377203Y9114590D01*
X8575440D01*
X8575261Y9115491D01*
X8566884Y9128027D01*
X8554348Y9136403D01*
X8539560Y9139345D01*
X8422560D01*
X8407772Y9136403D01*
X8400378Y9131463D01*
X8028943D01*
X8022630Y9139691D01*
X8001573Y9155848D01*
X7977053Y9166005D01*
X7950738Y9169470D01*
X7924424Y9166005D01*
X7899904Y9155848D01*
X7891948Y9149744D01*
X7879118Y9155502D01*
X7878126Y9163942D01*
X8098914Y9384731D01*
X8854540D01*
X8868921Y9370349D01*
X8868922Y9370348D01*
X8883939Y9360314D01*
X8901654Y9356791D01*
X9669443D01*
X9682576Y9339676D01*
X9701146Y9325426D01*
X9722773Y9316468D01*
X9745980Y9313413D01*
X9769187Y9316468D01*
X9790814Y9325426D01*
X9809384Y9339676D01*
X9823634Y9358246D01*
X9832592Y9379873D01*
X9835647Y9403080D01*
X9832592Y9426287D01*
X9823634Y9447914D01*
X9809384Y9466484D01*
X9790814Y9480734D01*
X9769187Y9489692D01*
X9745980Y9492747D01*
X9722773Y9489692D01*
X9701146Y9480734D01*
X9682576Y9466484D01*
X9669443Y9449369D01*
X9545589D01*
X9539326Y9462069D01*
X9549314Y9475086D01*
X9558272Y9496713D01*
X9561327Y9519920D01*
X9558272Y9543127D01*
X9549314Y9564754D01*
X9535064Y9583324D01*
X9516494Y9597574D01*
X9494867Y9606532D01*
X9471660Y9609587D01*
X9462978Y9608444D01*
X9305135Y9766287D01*
X9312329Y9777054D01*
X9326807Y9771057D01*
X9350015Y9768001D01*
X9373222Y9771057D01*
X9394848Y9780014D01*
X9413419Y9794264D01*
X9427668Y9812835D01*
X9436626Y9834461D01*
X9439682Y9857668D01*
X9436626Y9880876D01*
X9427668Y9902502D01*
X9413419Y9921073D01*
X9394848Y9935322D01*
X9373222Y9944280D01*
X9350015Y9947335D01*
X9329534Y9944639D01*
X9217484Y10056689D01*
X9223101Y10068080D01*
X9225280Y10067793D01*
X9248487Y10070848D01*
X9270114Y10079806D01*
X9288684Y10094056D01*
X9302934Y10112626D01*
X9311892Y10134253D01*
X9314947Y10157460D01*
X9311892Y10180667D01*
X9302934Y10202294D01*
X9288684Y10220864D01*
X9270114Y10235114D01*
X9248487Y10244072D01*
X9225280Y10247127D01*
X9213567Y10245585D01*
X8783395Y10675756D01*
X8787947Y10689165D01*
X8798907Y10690608D01*
X8820534Y10699566D01*
X8839104Y10713816D01*
X8853354Y10732386D01*
X8862312Y10754013D01*
X8865367Y10777220D01*
X8864430Y10784335D01*
X8876459Y10790267D01*
X9013689Y10653037D01*
X9011712Y10638020D01*
X9014767Y10614812D01*
X9023725Y10593186D01*
X9037975Y10574616D01*
X9056545Y10560366D01*
X9078171Y10551408D01*
X9101379Y10548353D01*
X9124586Y10551408D01*
X9146212Y10560366D01*
X9164783Y10574616D01*
X9179033Y10593186D01*
X9187991Y10614812D01*
X9191046Y10638020D01*
X9187991Y10661227D01*
X9179033Y10682853D01*
X9164783Y10701424D01*
X9146212Y10715674D01*
X9124586Y10724632D01*
X9101379Y10727687D01*
X9086361Y10725710D01*
X8808152Y11003919D01*
X8804507Y11015109D01*
X8809715Y11020317D01*
X8882854Y11093457D01*
X8733797Y11242514D01*
X8655449Y11164167D01*
X8760118Y11059499D01*
X8755562Y11046094D01*
X8752417Y11045683D01*
X8722755Y11075344D01*
X8718546Y11078156D01*
X8643992Y11152710D01*
X8565645Y11074363D01*
X8714703Y10925305D01*
X8728062Y10938664D01*
X8788747Y10877979D01*
X8782815Y10865950D01*
X8775700Y10866887D01*
X8752493Y10863832D01*
X8749024Y10862395D01*
X8700409Y10911011D01*
X8703246Y10913848D01*
X8554188Y11062906D01*
X8475841Y10984559D01*
X8516541Y10943858D01*
X8511955Y10930484D01*
X8507563Y10929933D01*
X8464389Y10973107D01*
X8386042Y10894760D01*
X8429288Y10851513D01*
X8428251Y10845850D01*
X8416071Y10841816D01*
X8374585Y10883303D01*
X8296237Y10804955D01*
X8338838Y10762355D01*
X8336516Y10752794D01*
X8327381Y10750898D01*
X8284780Y10793498D01*
X8206433Y10715151D01*
X8249384Y10672200D01*
X8248834Y10667777D01*
X8235465Y10663185D01*
X8194966Y10703684D01*
X8164773Y10673490D01*
X8239302Y10598962D01*
X8313831Y10524433D01*
X8344024Y10554626D01*
X8356450Y10555289D01*
X9383136Y9528602D01*
X9381993Y9519920D01*
X9385048Y9496713D01*
X9394006Y9475086D01*
X9403994Y9462069D01*
X9397731Y9449369D01*
X8920827D01*
X8906445Y9463752D01*
X8891428Y9473786D01*
X8873714Y9477310D01*
X8873712Y9477309D01*
X8079740D01*
X8062026Y9473786D01*
X8047008Y9463752D01*
X8047008Y9463751D01*
X7795548Y9212292D01*
X7785514Y9197274D01*
X7781990Y9179560D01*
X7776941Y9168600D01*
X7762090D01*
Y9584684D01*
X8321603Y10144197D01*
X8334234Y10163101D01*
X8338670Y10185400D01*
Y10363916D01*
X8334235Y10386214D01*
X8334234Y10386214D01*
X8334234Y10386215D01*
X8321604Y10405118D01*
X8261356Y10465368D01*
X8265677Y10476279D01*
X8295870Y10506472D01*
X8221341Y10581001D01*
X8146812Y10655530D01*
X8116619Y10625337D01*
X8105710Y10621012D01*
X8087210Y10639512D01*
Y10722604D01*
X8685536Y11320930D01*
X9018264D01*
X9331397Y11007797D01*
D02*
G37*
G36*
X11626718Y11232030D02*
X10956784Y10562096D01*
X10945644Y10545425D01*
X10941733Y10525760D01*
Y10085589D01*
X10893141Y10036997D01*
X10940522Y9989616D01*
X10917812Y9966904D01*
X10911073Y9971407D01*
X10896285Y9974349D01*
X10881498Y9971407D01*
X10868961Y9963030D01*
X10786230Y9880299D01*
X10777853Y9867762D01*
X10774911Y9852975D01*
X10777853Y9838187D01*
X10786230Y9825650D01*
X10839263Y9772617D01*
X10851799Y9764241D01*
X10866587Y9761299D01*
X10881374Y9764241D01*
X10893911Y9772617D01*
X10907116Y9785822D01*
X10919145Y9779890D01*
X10918693Y9776460D01*
X10921748Y9753253D01*
X10930706Y9731626D01*
X10944956Y9713056D01*
X10950248Y9708995D01*
X10945937Y9696295D01*
X10294631D01*
X9966810Y10024116D01*
Y10210800D01*
X9962374Y10233099D01*
X9949743Y10252003D01*
X9850683Y10351063D01*
X9831779Y10363694D01*
X9809480Y10368130D01*
X9744660D01*
Y10411300D01*
X9717728D01*
Y10627520D01*
X9747200D01*
Y10631281D01*
X9758933Y10636141D01*
X9781690Y10613384D01*
Y10464800D01*
X9786126Y10442501D01*
X9798757Y10423597D01*
X9976557Y10245797D01*
X9995461Y10233166D01*
X10017760Y10228730D01*
X10516475D01*
X10522738Y10216030D01*
X10514146Y10204834D01*
X10505188Y10183207D01*
X10502133Y10160000D01*
X10505188Y10136793D01*
X10514146Y10115166D01*
X10528396Y10096596D01*
X10546966Y10082346D01*
X10568593Y10073388D01*
X10591800Y10070333D01*
X10606817Y10072310D01*
X10660297Y10018831D01*
X10653997Y10012531D01*
X10645621Y9999994D01*
X10642679Y9985207D01*
X10645621Y9970419D01*
X10653997Y9957883D01*
X10707030Y9904850D01*
X10719567Y9896473D01*
X10734355Y9893531D01*
X10749142Y9896473D01*
X10761679Y9904850D01*
X10844410Y9987581D01*
X10852787Y10000118D01*
X10855729Y10014905D01*
X10852787Y10029693D01*
X10844410Y10042230D01*
X10791377Y10095263D01*
X10778841Y10103639D01*
X10764053Y10106581D01*
X10749266Y10103639D01*
X10736729Y10095263D01*
X10732969Y10091503D01*
X10679490Y10144983D01*
X10681467Y10160000D01*
X10678412Y10183207D01*
X10669454Y10204834D01*
X10655204Y10223404D01*
X10636634Y10237654D01*
X10615007Y10246612D01*
X10602610Y10248244D01*
X10598059Y10261653D01*
X11581136Y11244730D01*
X11622241D01*
X11626718Y11232030D01*
D02*
G37*
G36*
X12234593Y10476535D02*
Y9647885D01*
X11040025Y8453318D01*
X11028292Y8458178D01*
Y8491819D01*
X12152136Y9615664D01*
X12163276Y9632335D01*
X12167187Y9652000D01*
Y10414000D01*
X12166927Y10415309D01*
X12167187Y10416616D01*
X12163275Y10436281D01*
X12152136Y10452952D01*
X12055341Y10549748D01*
X12056899Y10552079D01*
X12059841Y10566867D01*
X12056899Y10581654D01*
X12048523Y10594191D01*
X11965791Y10676923D01*
X11960318Y10680580D01*
X11964170Y10693280D01*
X12017847D01*
X12234593Y10476535D01*
D02*
G37*
G36*
X8392532Y8161957D02*
X8407320Y8159015D01*
X8469290D01*
X8927513Y7700797D01*
Y6311900D01*
X8931424Y6292235D01*
X8942564Y6275564D01*
X9234923Y5983205D01*
X9251594Y5972065D01*
X9255917Y5971205D01*
X9254667Y5958505D01*
X9181742D01*
X9126987Y6013261D01*
X9113325Y6023744D01*
X9097416Y6030334D01*
X9080343Y6032582D01*
X9053900D01*
Y6099880D01*
X8853100D01*
Y5924732D01*
X8841367Y5919872D01*
X8738187Y6023051D01*
Y7149902D01*
X8734275Y7169568D01*
X8723136Y7186239D01*
X8545182Y7364188D01*
Y7429378D01*
X8542241Y7444165D01*
X8533864Y7456702D01*
X8521328Y7465078D01*
X8506540Y7468020D01*
X8389540D01*
X8374752Y7465078D01*
X8362216Y7456702D01*
X8353839Y7444165D01*
X8353565Y7442787D01*
X8039006D01*
X8027171Y7458211D01*
X8006115Y7474368D01*
X7981594Y7484525D01*
X7955280Y7487990D01*
X7928966Y7484525D01*
X7904445Y7474368D01*
X7887269Y7461189D01*
X7874569Y7466402D01*
Y8147110D01*
X7887269Y8153373D01*
X7899365Y8144092D01*
X7923886Y8133935D01*
X7950200Y8130470D01*
X7976514Y8133935D01*
X8001035Y8144092D01*
X8022091Y8160249D01*
X8027797Y8167684D01*
X8383960D01*
X8392532Y8161957D01*
D02*
G37*
G36*
X11757736Y7376777D02*
Y6938388D01*
X11746046Y6923154D01*
X11737088Y6901527D01*
X11734033Y6878320D01*
X11737088Y6855113D01*
X11746046Y6833486D01*
X11760296Y6814916D01*
X11778866Y6800666D01*
X11800493Y6791708D01*
X11823700Y6788653D01*
X11846907Y6791708D01*
X11868534Y6800666D01*
X11887104Y6814916D01*
X11894233Y6824206D01*
X11906933Y6819895D01*
Y6696405D01*
X11658854Y6448326D01*
X11507806D01*
Y6588577D01*
X11604981D01*
X11622053Y6590824D01*
X11637963Y6597414D01*
X11651624Y6607897D01*
X11685609Y6641882D01*
X11704647Y6644388D01*
X11726273Y6653346D01*
X11744844Y6667596D01*
X11759094Y6686166D01*
X11768051Y6707793D01*
X11771107Y6731000D01*
X11768051Y6754207D01*
X11759094Y6775834D01*
X11744844Y6794404D01*
X11726273Y6808654D01*
X11704647Y6817612D01*
X11681440Y6820667D01*
X11658232Y6817612D01*
X11636606Y6808654D01*
X11618035Y6794404D01*
X11603786Y6775834D01*
X11594828Y6754207D01*
X11592321Y6735169D01*
X11577657Y6720505D01*
X11507806D01*
Y6849793D01*
X11511280D01*
X11530945Y6853704D01*
X11547616Y6864844D01*
X11674616Y6991844D01*
X11685756Y7008515D01*
X11689667Y7028180D01*
Y7279640D01*
X11685756Y7299305D01*
X11674616Y7315976D01*
X11560316Y7430276D01*
X11543645Y7441416D01*
X11523980Y7445327D01*
X11265865D01*
X11113087Y7598105D01*
Y7636087D01*
X11117402Y7647000D01*
X11248202D01*
Y7706436D01*
X11428077D01*
X11757736Y7376777D01*
D02*
G37*
G36*
X12031728Y5965516D02*
X11873801Y5807589D01*
X11869500Y5808445D01*
X11752500D01*
X11737712Y5805503D01*
X11725176Y5797127D01*
X11716799Y5784590D01*
X11716620Y5783690D01*
X11599702D01*
X11580037Y5779778D01*
X11563366Y5768639D01*
X11519539Y5724811D01*
X11507806Y5729672D01*
Y5822141D01*
Y5965873D01*
X11995592D01*
X12015257Y5969784D01*
X12023633Y5975381D01*
X12031728Y5965516D01*
D02*
G37*
G36*
X9053900Y5899080D02*
Y5899080D01*
X9062695Y5890978D01*
X9107775Y5845897D01*
X9121437Y5835414D01*
X9137346Y5828824D01*
X9154419Y5826577D01*
X9274080D01*
Y5657167D01*
X9104071D01*
X8873892Y5887347D01*
X8878752Y5899080D01*
X9053899D01*
X9053900Y5899080D01*
D02*
G37*
G36*
X9052560Y11772900D02*
X9060180D01*
X9298940Y12011660D01*
X11511280D01*
X11785600Y11737340D01*
X11968480Y11920220D01*
Y11922760D01*
X11971020D01*
X12694920Y12646660D01*
X13096240D01*
Y12628880D01*
X14236700Y11488420D01*
Y11160760D01*
X14231619D01*
X13332460Y10261600D01*
Y9906000D01*
X13787120Y9451340D01*
X13782040Y9446260D01*
Y6929120D01*
X12921112Y6068192D01*
X12494042Y5721693D01*
X12060335Y5538459D01*
X12053242Y5548994D01*
X13127644Y6623396D01*
X13138127Y6637058D01*
X13144717Y6652967D01*
X13146964Y6670040D01*
Y7290600D01*
X13181799D01*
Y7492200D01*
X13139270D01*
Y8137258D01*
X13184879D01*
Y8338858D01*
X13139270D01*
Y8967000D01*
X13181799D01*
Y9168600D01*
X13139270D01*
Y9753600D01*
X13134834Y9775899D01*
X13122203Y9794803D01*
X13063071Y9853936D01*
Y10059664D01*
X13350803Y10347397D01*
X13363434Y10366301D01*
X13367870Y10388600D01*
Y10541208D01*
X13363434Y10563507D01*
X13350803Y10582411D01*
X12920837Y11012376D01*
X12917616Y11017198D01*
X12590606Y11344203D01*
X12571702Y11356834D01*
X12549403Y11361270D01*
X12082973D01*
X12078113Y11373003D01*
X12097219Y11392109D01*
X12031670Y11457658D01*
X11973192Y11399180D01*
X11999370Y11373003D01*
X11994509Y11361270D01*
X11557000D01*
X11534701Y11356834D01*
X11515797Y11344203D01*
X10516864Y10345270D01*
X10041896D01*
X9898230Y10488936D01*
Y10555848D01*
X9900673Y10557810D01*
X9917696Y10555194D01*
X9918336Y10554236D01*
X9930872Y10545859D01*
X9945660Y10542918D01*
X9970460D01*
Y10640060D01*
Y10737202D01*
X9945660D01*
X9930872Y10734261D01*
X9918336Y10725884D01*
X9909959Y10713348D01*
X9907018Y10698560D01*
Y10658437D01*
X9894318Y10657186D01*
X9893794Y10659819D01*
X9881163Y10678723D01*
X9784643Y10775243D01*
X9765739Y10787874D01*
X9747200Y10791562D01*
Y10825320D01*
X9734327D01*
Y11105345D01*
X9737726Y11107616D01*
X9744882Y11118325D01*
X9747394Y11130957D01*
Y11248007D01*
X9744882Y11260639D01*
X9737726Y11271348D01*
X9727017Y11278504D01*
X9714385Y11281017D01*
X9635335D01*
X9622703Y11278504D01*
X9611994Y11271348D01*
X9604838Y11260639D01*
X9602326Y11248007D01*
Y11194270D01*
X9529438Y11121385D01*
X9517733Y11127641D01*
X9518393Y11130957D01*
Y11176782D01*
X9373324D01*
Y11148642D01*
X9360624Y11143381D01*
X9083603Y11420403D01*
X9064699Y11433034D01*
X9042400Y11437470D01*
X8661400D01*
X8639101Y11433034D01*
X8620197Y11420403D01*
X7987737Y10787943D01*
X7975106Y10769039D01*
X7970670Y10746740D01*
Y10615376D01*
X7975106Y10593077D01*
X7987737Y10574173D01*
X8035997Y10525913D01*
X8048243Y10517731D01*
X8092956Y10473018D01*
X8101127Y10460789D01*
X8222130Y10339781D01*
Y10209536D01*
X7662617Y9650023D01*
X7649986Y9631119D01*
X7645550Y9608820D01*
Y9168600D01*
X7599942D01*
Y9060288D01*
X7465350Y8925696D01*
X7446933Y8923272D01*
X7425306Y8914314D01*
X7406736Y8900064D01*
X7392486Y8881494D01*
X7383528Y8859867D01*
X7380473Y8836660D01*
X7383528Y8813453D01*
X7392486Y8791826D01*
X7406736Y8773256D01*
X7425306Y8759006D01*
X7446933Y8750048D01*
X7470140Y8746993D01*
X7493347Y8750048D01*
X7514974Y8759006D01*
X7533544Y8773256D01*
X7547794Y8791826D01*
X7556752Y8813453D01*
X7559340Y8833111D01*
X7633817Y8907588D01*
X7645550Y8902728D01*
Y8332940D01*
X7599398D01*
Y8131340D01*
X7645550D01*
Y7487120D01*
X7604478D01*
Y7285520D01*
X7781991D01*
Y6705601D01*
X7781990Y6705600D01*
X7785514Y6687886D01*
X7795548Y6672868D01*
X8026872Y6441545D01*
X8022795Y6428615D01*
X8021637Y6402099D01*
X8027382Y6376187D01*
X8039637Y6352645D01*
X8057568Y6333076D01*
X8079953Y6318816D01*
X8105265Y6310835D01*
X8131781Y6309678D01*
X8157693Y6315422D01*
X8181235Y6327677D01*
X8200804Y6345608D01*
X8215064Y6367993D01*
X8223045Y6393305D01*
X8224202Y6419821D01*
X8218458Y6445733D01*
X8206203Y6469275D01*
X8188272Y6488844D01*
X8165887Y6503104D01*
X8140575Y6511085D01*
X8114059Y6512243D01*
X8091993Y6507350D01*
X7874569Y6724774D01*
Y7306238D01*
X7887269Y7311451D01*
X7904445Y7298272D01*
X7928966Y7288115D01*
X7955280Y7284650D01*
X7981594Y7288115D01*
X8006115Y7298272D01*
X8027171Y7314429D01*
X8043328Y7335485D01*
X8045204Y7340013D01*
X8353755D01*
X8353839Y7339590D01*
X8362216Y7327053D01*
X8374752Y7318677D01*
X8389540Y7315735D01*
X8448289D01*
X8635413Y7128616D01*
Y6001766D01*
X8639324Y5982101D01*
X8650464Y5965430D01*
X8779065Y5836828D01*
X8774983Y5824802D01*
X8767124Y5823767D01*
X8745498Y5814810D01*
X8726927Y5800560D01*
X8712678Y5781989D01*
X8703720Y5760363D01*
X8700664Y5737156D01*
X8703720Y5713948D01*
X8712678Y5692322D01*
X8726927Y5673751D01*
X8745498Y5659502D01*
X8767124Y5650544D01*
X8786162Y5648037D01*
X8969302Y5464897D01*
X8982964Y5454414D01*
X8998873Y5447824D01*
X9015946Y5445577D01*
X9557004D01*
Y5397241D01*
X9682404D01*
X9807804D01*
Y5441141D01*
Y5568141D01*
Y5695141D01*
Y5822141D01*
Y5949141D01*
Y6076141D01*
Y6203141D01*
Y6330141D01*
Y6457141D01*
Y6541256D01*
X9819537Y6546116D01*
X10119436Y6246218D01*
Y6074788D01*
X10107746Y6059554D01*
X10098788Y6037927D01*
X10095733Y6014720D01*
X10098788Y5991513D01*
X10107746Y5969886D01*
X10121996Y5951316D01*
X10140566Y5937066D01*
X10162193Y5928108D01*
X10185400Y5925053D01*
X10208607Y5928108D01*
X10230234Y5937066D01*
X10248804Y5951316D01*
X10263054Y5969886D01*
X10272012Y5991513D01*
X10275067Y6014720D01*
X10272012Y6037927D01*
X10263054Y6059554D01*
X10251364Y6074788D01*
Y6273541D01*
X10249117Y6290614D01*
X10242527Y6306523D01*
X10232044Y6320185D01*
X9851044Y6701185D01*
X9837382Y6711668D01*
X9821473Y6718258D01*
X9807804Y6720057D01*
Y6838141D01*
Y6965141D01*
Y7105941D01*
X9718627D01*
Y7436155D01*
X9783134Y7500662D01*
X9794274Y7517333D01*
X9798185Y7536998D01*
Y7647000D01*
X9812198D01*
Y7897800D01*
X9798185D01*
Y8032800D01*
X9834720D01*
Y8196100D01*
X9834720Y8199600D01*
Y8208800D01*
X9834720Y8212300D01*
Y8279500D01*
X9735820D01*
X9636920D01*
Y8212300D01*
X9636920Y8208800D01*
Y8199600D01*
X9636920Y8196100D01*
Y8178144D01*
X9463402D01*
X9458588Y8181361D01*
X9443800Y8184302D01*
X9326800D01*
X9312012Y8181361D01*
X9299476Y8172984D01*
X9291099Y8160448D01*
X9288158Y8145660D01*
Y8070660D01*
X9291099Y8055872D01*
X9299476Y8043336D01*
X9312012Y8034959D01*
X9326800Y8032018D01*
X9443800D01*
X9458588Y8034959D01*
X9471124Y8043336D01*
X9473048Y8046215D01*
X9636920D01*
Y8032800D01*
X9695411D01*
Y7897800D01*
X9681398D01*
Y7647000D01*
X9695411D01*
Y7558283D01*
X9630904Y7493776D01*
X9619764Y7477105D01*
X9615853Y7457440D01*
Y7105941D01*
X9557004D01*
X9547784Y7114344D01*
Y7125592D01*
X9559474Y7140826D01*
X9568432Y7162453D01*
X9571487Y7185660D01*
X9568432Y7208867D01*
X9559474Y7230494D01*
X9545224Y7249064D01*
X9526654Y7263314D01*
X9505027Y7272272D01*
X9481820Y7275327D01*
X9458613Y7272272D01*
X9436986Y7263314D01*
X9418416Y7249064D01*
X9404166Y7230494D01*
X9395208Y7208867D01*
X9392153Y7185660D01*
X9395208Y7162453D01*
X9404166Y7140826D01*
X9415856Y7125592D01*
Y6998635D01*
X9418103Y6981562D01*
X9424693Y6965653D01*
X9435176Y6951991D01*
X9520270Y6866897D01*
X9533932Y6856414D01*
X9549841Y6849824D01*
X9557004Y6848881D01*
Y6711141D01*
Y6593505D01*
X9522102D01*
X9467798Y6647810D01*
X9466832Y6655147D01*
X9457874Y6676774D01*
X9443624Y6695344D01*
X9425054Y6709594D01*
X9403427Y6718552D01*
X9380220Y6721607D01*
X9357013Y6718552D01*
X9335386Y6709594D01*
X9316816Y6695344D01*
X9302566Y6676774D01*
X9293608Y6655147D01*
X9290553Y6631940D01*
X9293608Y6608733D01*
X9302566Y6587106D01*
X9316816Y6568536D01*
X9335386Y6554286D01*
X9357013Y6545328D01*
X9380220Y6542273D01*
X9385999Y6543034D01*
X9445926Y6483107D01*
X9443840Y6474631D01*
X9440945Y6470407D01*
X9362000D01*
X9351896Y6480805D01*
X9348841Y6504012D01*
X9339883Y6525638D01*
X9325634Y6544209D01*
X9307063Y6558459D01*
X9285437Y6567417D01*
X9262229Y6570472D01*
X9239022Y6567417D01*
X9217396Y6558459D01*
X9198825Y6544209D01*
X9184575Y6525638D01*
X9175618Y6504012D01*
X9172562Y6480805D01*
X9175618Y6457597D01*
X9184575Y6435971D01*
X9198825Y6417401D01*
X9217396Y6403151D01*
X9239022Y6394193D01*
X9246409Y6393221D01*
X9265149Y6374481D01*
X9259217Y6362453D01*
X9253479Y6363208D01*
X9230272Y6360153D01*
X9208646Y6351195D01*
X9190075Y6336945D01*
X9175825Y6318374D01*
X9166867Y6296748D01*
X9163812Y6273541D01*
X9166867Y6250333D01*
X9175825Y6228707D01*
X9190075Y6210137D01*
X9208646Y6195887D01*
X9230272Y6186929D01*
X9253479Y6183874D01*
X9276687Y6186929D01*
X9298313Y6195887D01*
X9313547Y6207577D01*
X9557004D01*
Y6070928D01*
X9292544D01*
X9030287Y6333185D01*
Y7722083D01*
X9026376Y7741748D01*
X9015236Y7758419D01*
X8562962Y8210688D01*
Y8272658D01*
X8560021Y8287445D01*
X8551644Y8299982D01*
X8539108Y8308358D01*
X8524320Y8311300D01*
X8407320D01*
X8392532Y8308358D01*
X8379996Y8299982D01*
X8379749Y8299613D01*
X8025481D01*
X8022091Y8304031D01*
X8001035Y8320188D01*
X7976514Y8330345D01*
X7950200Y8333810D01*
X7923886Y8330345D01*
X7899365Y8320188D01*
X7887269Y8310907D01*
X7874569Y8317170D01*
Y8983183D01*
X7887269Y8989446D01*
X7899904Y8979752D01*
X7924424Y8969595D01*
X7950738Y8966130D01*
X7977053Y8969595D01*
X8001573Y8979752D01*
X8022630Y8995909D01*
X8025412Y8999534D01*
X8394463D01*
X8395236Y8998378D01*
X8407772Y8990002D01*
X8422560Y8987060D01*
X8539560D01*
X8554348Y8990002D01*
X8566884Y8998378D01*
X8575261Y9010915D01*
X8575440Y9011815D01*
X9355917D01*
X9907953Y8459775D01*
Y7260941D01*
X9890505D01*
Y7010141D01*
X10031305D01*
Y7010141D01*
X10144505D01*
Y7010141D01*
X11091205D01*
Y7135541D01*
Y7260941D01*
X11028292D01*
Y7520962D01*
X11040025Y7525822D01*
X11208244Y7357604D01*
X11224915Y7346464D01*
X11244580Y7342553D01*
X11502695D01*
X11586893Y7258355D01*
Y7049465D01*
X11519539Y6982111D01*
X11507806Y6986972D01*
Y7105941D01*
X11257005D01*
Y6965141D01*
Y6847505D01*
X11213742D01*
X11201618Y6859629D01*
X11199112Y6878667D01*
X11190154Y6900294D01*
X11175904Y6918864D01*
X11157334Y6933114D01*
X11135707Y6942072D01*
X11112500Y6945127D01*
X11089293Y6942072D01*
X11067666Y6933114D01*
X11049096Y6918864D01*
X11034846Y6900294D01*
X11025888Y6878667D01*
X11022833Y6855460D01*
X11025888Y6832253D01*
X11034846Y6810626D01*
X11049096Y6792056D01*
X11067666Y6777806D01*
X11089293Y6768848D01*
X11108331Y6766342D01*
X11139775Y6734897D01*
X11153437Y6724414D01*
X11169346Y6717824D01*
X11186419Y6715577D01*
X11257005D01*
Y6593505D01*
X11086742D01*
X10959933Y6720314D01*
X10957812Y6736427D01*
X10948854Y6758054D01*
X10934604Y6776624D01*
X10916034Y6790874D01*
X10894407Y6799832D01*
X10871200Y6802887D01*
X10847993Y6799832D01*
X10826366Y6790874D01*
X10807796Y6776624D01*
X10793546Y6758054D01*
X10784588Y6736427D01*
X10781533Y6713220D01*
X10784588Y6690013D01*
X10793546Y6668386D01*
X10807796Y6649816D01*
X10826366Y6635566D01*
X10847993Y6626608D01*
X10869956Y6623717D01*
X11012775Y6480897D01*
X11026437Y6470414D01*
X11042346Y6463824D01*
X11059419Y6461577D01*
X11257005D01*
Y6339505D01*
X11151007D01*
X11086682Y6403830D01*
X11082541Y6413829D01*
X11070327Y6429747D01*
X11054409Y6441961D01*
X11035872Y6449639D01*
X11015980Y6452258D01*
X10996088Y6449639D01*
X10977551Y6441961D01*
X10961633Y6429747D01*
X10949419Y6413829D01*
X10941741Y6395292D01*
X10939122Y6375400D01*
X10941741Y6355508D01*
X10949419Y6336971D01*
X10961633Y6321053D01*
X10977551Y6308839D01*
X10996088Y6301161D01*
X11003790Y6300147D01*
X11077040Y6226897D01*
X11090702Y6216414D01*
X11106611Y6209824D01*
X11123684Y6207577D01*
X11257005D01*
Y6076141D01*
Y5949141D01*
Y5822141D01*
Y5695141D01*
Y5568141D01*
Y5441141D01*
Y5397241D01*
X11382405D01*
Y5384541D01*
D01*
Y5397241D01*
X11507806D01*
Y5460154D01*
X11556741D01*
X11576406Y5464065D01*
X11593077Y5475205D01*
X11611788Y5493915D01*
X11716620D01*
X11716799Y5493015D01*
X11725176Y5480478D01*
X11737712Y5472102D01*
X11752500Y5469160D01*
X11863674D01*
X11866246Y5456460D01*
X11518623Y5309595D01*
X11507806Y5318812D01*
Y5371841D01*
X11395105D01*
Y5314141D01*
X11496750D01*
X11499322Y5301441D01*
X11311154Y5221943D01*
X9868086Y5176777D01*
X9057640Y5372100D01*
X8524240Y5689600D01*
X8239760Y5831840D01*
X7256577Y6815023D01*
X7262344Y6827217D01*
X7274560Y6826014D01*
X7304044Y6828918D01*
X7332394Y6837518D01*
X7358522Y6851483D01*
X7381423Y6870278D01*
X7400218Y6893179D01*
X7414184Y6919307D01*
X7422783Y6947658D01*
X7425687Y6977141D01*
X7422783Y7006625D01*
X7414184Y7034975D01*
X7400218Y7061103D01*
X7381423Y7084004D01*
X7358522Y7102799D01*
X7332394Y7116765D01*
X7304044Y7125365D01*
X7274560Y7128269D01*
X7245076Y7125365D01*
X7216726Y7116765D01*
X7190598Y7102799D01*
X7167697Y7084004D01*
X7148902Y7061103D01*
X7139940Y7044336D01*
X7127240Y7047518D01*
Y9264124D01*
X7139940Y9267305D01*
X7148902Y9250538D01*
X7167697Y9227637D01*
X7190598Y9208842D01*
X7216726Y9194876D01*
X7245076Y9186277D01*
X7274560Y9183373D01*
X7304044Y9186277D01*
X7332394Y9194876D01*
X7358522Y9208842D01*
X7381423Y9227637D01*
X7400218Y9250538D01*
X7414184Y9276666D01*
X7422783Y9305016D01*
X7425687Y9334500D01*
X7422783Y9363984D01*
X7414184Y9392334D01*
X7400218Y9418462D01*
X7381423Y9441363D01*
X7358522Y9460158D01*
X7332394Y9474124D01*
X7304044Y9482723D01*
X7274560Y9485627D01*
X7245076Y9482723D01*
X7216726Y9474124D01*
X7190598Y9460158D01*
X7167697Y9441363D01*
X7148902Y9418462D01*
X7139940Y9401695D01*
X7127240Y9404876D01*
Y9512300D01*
X7518400Y9903460D01*
Y10264140D01*
X6619240Y11163300D01*
Y11508740D01*
X7757160Y12646660D01*
X8173720D01*
X8176260Y12649200D01*
X9052560Y11772900D01*
D02*
G37*
%LPC*%
G36*
X9067800Y11205575D02*
Y11130280D01*
X9143095D01*
X9141712Y11140787D01*
X9132754Y11162414D01*
X9118504Y11180984D01*
X9099934Y11195234D01*
X9078307Y11204192D01*
X9067800Y11205575D01*
D02*
G37*
G36*
X9042400D02*
X9031893Y11204192D01*
X9010266Y11195234D01*
X8991696Y11180984D01*
X8977446Y11162414D01*
X8968488Y11140787D01*
X8967105Y11130280D01*
X9042400D01*
Y11205575D01*
D02*
G37*
G36*
X9143095Y11104880D02*
X9067800D01*
Y11029585D01*
X9078307Y11030968D01*
X9099934Y11039926D01*
X9118504Y11054176D01*
X9132754Y11072746D01*
X9141712Y11094373D01*
X9143095Y11104880D01*
D02*
G37*
G36*
X9042400D02*
X8967105D01*
X8968488Y11094373D01*
X8977446Y11072746D01*
X8991696Y11054176D01*
X9010266Y11039926D01*
X9031893Y11030968D01*
X9042400Y11029585D01*
Y11104880D01*
D02*
G37*
G36*
X9475100Y10825320D02*
X9404400D01*
Y10739120D01*
X9475100D01*
Y10825320D01*
D02*
G37*
G36*
Y10713720D02*
X9404400D01*
Y10627520D01*
X9475100D01*
Y10713720D01*
D02*
G37*
G36*
X11367297Y10511153D02*
X11306231Y10450088D01*
X11327784Y10428535D01*
X11388849Y10489601D01*
X11367297Y10511153D01*
D02*
G37*
G36*
X13147557Y10508789D02*
X13089079Y10450312D01*
X13136951Y10402441D01*
X13195428Y10460918D01*
X13147557Y10508789D01*
D02*
G37*
G36*
X12794004Y10791633D02*
X12719475Y10717105D01*
X12644947Y10642576D01*
X12679295Y10608227D01*
X12488206Y10417138D01*
X12473188Y10419116D01*
X12449981Y10416060D01*
X12428355Y10407102D01*
X12409784Y10392853D01*
X12395534Y10374282D01*
X12386576Y10352656D01*
X12383521Y10329448D01*
X12386576Y10306241D01*
X12395534Y10284615D01*
X12409784Y10266044D01*
X12428355Y10251795D01*
X12449981Y10242837D01*
X12473188Y10239781D01*
X12496396Y10242837D01*
X12518022Y10251795D01*
X12536592Y10266044D01*
X12550842Y10284615D01*
X12559800Y10306241D01*
X12562855Y10329448D01*
X12560878Y10344466D01*
X12751965Y10535552D01*
X12834235Y10453282D01*
X12834238Y10453284D01*
X12904948Y10382573D01*
X12954446Y10432070D01*
X12994681Y10391834D01*
X13062138Y10459292D01*
X13129597Y10526750D01*
X13081726Y10574621D01*
X13046371Y10539266D01*
X12982732Y10602907D01*
X12982729Y10602905D01*
X12905511Y10680122D01*
X12905513Y10680125D01*
X12820094Y10765543D01*
X12794004Y10791633D01*
D02*
G37*
G36*
X13071120Y10432351D02*
X13012642Y10373874D01*
X13060513Y10326003D01*
X13118991Y10384480D01*
X13071120Y10432351D01*
D02*
G37*
G36*
X9472560Y10411300D02*
X9401860D01*
Y10325100D01*
X9472560D01*
Y10411300D01*
D02*
G37*
G36*
Y10299700D02*
X9401860D01*
Y10213500D01*
X9472560D01*
Y10299700D01*
D02*
G37*
G36*
X11762427Y10274075D02*
X11701361Y10213010D01*
X11722914Y10191457D01*
X11783979Y10252523D01*
X11762427Y10274075D01*
D02*
G37*
G36*
X11287760Y10263235D02*
Y10187940D01*
X11363055D01*
X11361672Y10198447D01*
X11352714Y10220074D01*
X11338464Y10238644D01*
X11319894Y10252894D01*
X11298267Y10261852D01*
X11287760Y10263235D01*
D02*
G37*
G36*
X11262360D02*
X11251853Y10261852D01*
X11230226Y10252894D01*
X11211656Y10238644D01*
X11197406Y10220074D01*
X11188448Y10198447D01*
X11187065Y10187940D01*
X11262360D01*
Y10263235D01*
D02*
G37*
G36*
X11683401Y10195049D02*
X11622335Y10133984D01*
X11643888Y10112431D01*
X11704953Y10173497D01*
X11683401Y10195049D01*
D02*
G37*
G36*
X11363055Y10162540D02*
X11287760D01*
Y10087245D01*
X11298267Y10088628D01*
X11319894Y10097586D01*
X11338464Y10111836D01*
X11352714Y10130406D01*
X11361672Y10152033D01*
X11363055Y10162540D01*
D02*
G37*
G36*
X11262360D02*
X11187065D01*
X11188448Y10152033D01*
X11197406Y10130406D01*
X11211656Y10111836D01*
X11230226Y10097586D01*
X11251853Y10088628D01*
X11262360Y10087245D01*
Y10162540D01*
D02*
G37*
G36*
X11742420Y9552035D02*
Y9476740D01*
X11817715D01*
X11816332Y9487247D01*
X11807374Y9508874D01*
X11793124Y9527444D01*
X11774554Y9541694D01*
X11752927Y9550652D01*
X11742420Y9552035D01*
D02*
G37*
G36*
X11717020D02*
X11706513Y9550652D01*
X11684886Y9541694D01*
X11666316Y9527444D01*
X11652066Y9508874D01*
X11643108Y9487247D01*
X11641725Y9476740D01*
X11717020D01*
Y9552035D01*
D02*
G37*
G36*
X11309519Y9574526D02*
X11248567Y9513573D01*
X11298558Y9463582D01*
X11359511Y9524535D01*
X11309519Y9574526D01*
D02*
G37*
G36*
X11230606Y9495613D02*
X11169654Y9434661D01*
X11219645Y9384669D01*
X11280597Y9445621D01*
X11230606Y9495613D01*
D02*
G37*
G36*
X11717020Y9451340D02*
X11641725D01*
X11643108Y9440833D01*
X11652066Y9419206D01*
X11666316Y9400636D01*
X11684886Y9386386D01*
X11706513Y9377428D01*
X11717020Y9376045D01*
Y9451340D01*
D02*
G37*
G36*
X9641840Y9337787D02*
X8750300D01*
X8735434Y9334829D01*
X8722831Y9326409D01*
X8680770Y9284347D01*
X8661400Y9286898D01*
X8641508Y9284279D01*
X8622971Y9276601D01*
X8607053Y9264387D01*
X8594839Y9248469D01*
X8590902Y9238964D01*
X8578202Y9241491D01*
Y9287703D01*
X8575261Y9302490D01*
X8566884Y9315027D01*
X8554348Y9323403D01*
X8539560Y9326345D01*
X8493760D01*
Y9250202D01*
Y9174060D01*
X8539560D01*
X8554348Y9177002D01*
X8566884Y9185378D01*
X8573647Y9195499D01*
X8584048Y9194801D01*
X8586671Y9193872D01*
X8587161Y9190148D01*
X8594839Y9171611D01*
X8607053Y9155693D01*
X8622971Y9143479D01*
X8641508Y9135801D01*
X8661400Y9133182D01*
X8681292Y9135801D01*
X8699829Y9143479D01*
X8715747Y9155693D01*
X8727961Y9171611D01*
X8735639Y9190148D01*
X8738258Y9210040D01*
X8735707Y9229410D01*
X8766391Y9260093D01*
X9625749D01*
X10020771Y8865071D01*
X10033374Y8856651D01*
X10048240Y8853693D01*
X10368280D01*
X10383146Y8856651D01*
X10395749Y8865071D01*
X10663771Y9133093D01*
X10844406D01*
X10846886Y9127106D01*
X10861136Y9108536D01*
X10879706Y9094286D01*
X10901333Y9085328D01*
X10924540Y9082273D01*
X10947747Y9085328D01*
X10969374Y9094286D01*
X10987944Y9108536D01*
X11002194Y9127106D01*
X11011152Y9148733D01*
X11014207Y9171940D01*
X11011152Y9195147D01*
X11002194Y9216774D01*
X10987944Y9235344D01*
X10969374Y9249594D01*
X10947747Y9258552D01*
X10924540Y9261607D01*
X10901333Y9258552D01*
X10879706Y9249594D01*
X10861136Y9235344D01*
X10846886Y9216774D01*
X10844406Y9210787D01*
X10647680D01*
X10632814Y9207829D01*
X10620211Y9199409D01*
X10352189Y8931387D01*
X10064331D01*
X9669309Y9326409D01*
X9656706Y9334829D01*
X9641840Y9337787D01*
D02*
G37*
G36*
X8257540Y9338197D02*
X8247033Y9336814D01*
X8225406Y9327856D01*
X8206836Y9313607D01*
X8192586Y9295036D01*
X8183628Y9273410D01*
X8182245Y9262902D01*
X8257540D01*
Y9338197D01*
D02*
G37*
G36*
X8282940D02*
Y9250202D01*
Y9162207D01*
X8293447Y9163591D01*
X8315074Y9172549D01*
X8330308Y9184238D01*
X8396942D01*
X8407772Y9177002D01*
X8422560Y9174060D01*
X8468360D01*
Y9250202D01*
Y9326345D01*
X8422560D01*
X8407772Y9323403D01*
X8396942Y9316167D01*
X8330308D01*
X8315074Y9327856D01*
X8293447Y9336814D01*
X8282940Y9338197D01*
D02*
G37*
G36*
X8257540Y9237502D02*
X8182245D01*
X8183628Y9226995D01*
X8192586Y9205369D01*
X8206836Y9186798D01*
X8225406Y9172549D01*
X8247033Y9163591D01*
X8257540Y9162207D01*
Y9237502D01*
D02*
G37*
G36*
X12271100Y9164942D02*
X12246300D01*
Y9080500D01*
X12309742D01*
Y9126300D01*
X12306801Y9141088D01*
X12298424Y9153624D01*
X12285888Y9162001D01*
X12271100Y9164942D01*
D02*
G37*
G36*
X12220900D02*
X12196100D01*
X12181312Y9162001D01*
X12168776Y9153624D01*
X12160399Y9141088D01*
X12157458Y9126300D01*
Y9080500D01*
X12220900D01*
Y9164942D01*
D02*
G37*
G36*
Y9055100D02*
X12157458D01*
Y9009300D01*
X12160399Y8994512D01*
X12168776Y8981976D01*
X12181312Y8973599D01*
X12196100Y8970658D01*
X12220900D01*
Y9055100D01*
D02*
G37*
G36*
X11394280Y8365440D02*
X11308080D01*
Y8294740D01*
X11394280D01*
Y8365440D01*
D02*
G37*
G36*
X11282680D02*
X11196480D01*
Y8294740D01*
X11282680D01*
Y8365440D01*
D02*
G37*
G36*
X12263003Y8326742D02*
X12238203D01*
Y8242300D01*
X12301645D01*
Y8288100D01*
X12298703Y8302888D01*
X12290327Y8315424D01*
X12277791Y8323801D01*
X12263003Y8326742D01*
D02*
G37*
G36*
X12212803D02*
X12188003D01*
X12173215Y8323801D01*
X12160678Y8315424D01*
X12152302Y8302888D01*
X12149360Y8288100D01*
Y8242300D01*
X12212803D01*
Y8326742D01*
D02*
G37*
G36*
Y8216900D02*
X12149360D01*
Y8171100D01*
X12152302Y8156312D01*
X12160678Y8143776D01*
X12173215Y8135399D01*
X12188003Y8132458D01*
X12212803D01*
Y8216900D01*
D02*
G37*
G36*
X10232202Y7897800D02*
X10179502D01*
Y7785100D01*
X10232202D01*
Y7897800D01*
D02*
G37*
G36*
X10828198D02*
X10775498D01*
Y7785100D01*
X10828198D01*
Y7897800D01*
D02*
G37*
G36*
X10154102D02*
X10101402D01*
Y7785100D01*
X10154102D01*
Y7897800D01*
D02*
G37*
G36*
X10416540Y7857855D02*
Y7782560D01*
X10491835D01*
X10490452Y7793067D01*
X10481494Y7814694D01*
X10467244Y7833264D01*
X10448674Y7847514D01*
X10427047Y7856472D01*
X10416540Y7857855D01*
D02*
G37*
G36*
X10391140D02*
X10380633Y7856472D01*
X10359006Y7847514D01*
X10340436Y7833264D01*
X10326186Y7814694D01*
X10317228Y7793067D01*
X10315845Y7782560D01*
X10391140D01*
Y7857855D01*
D02*
G37*
G36*
Y7757160D02*
X10315845D01*
X10317228Y7746653D01*
X10326186Y7725026D01*
X10340436Y7706456D01*
X10359006Y7692206D01*
X10380633Y7683248D01*
X10391140Y7681865D01*
Y7757160D01*
D02*
G37*
G36*
X10828198Y7759700D02*
X10775498D01*
Y7647000D01*
X10828198D01*
Y7759700D01*
D02*
G37*
G36*
X10232202D02*
X10179502D01*
Y7647000D01*
X10232202D01*
Y7759700D01*
D02*
G37*
G36*
X10154102D02*
X10101402D01*
Y7647000D01*
X10154102D01*
Y7759700D01*
D02*
G37*
G36*
X11358880Y9436867D02*
X11335673Y9433812D01*
X11314046Y9424854D01*
X11295476Y9410604D01*
X11281226Y9392034D01*
X11272268Y9370407D01*
X11269213Y9347200D01*
X11272268Y9323993D01*
X11281226Y9302366D01*
X11295476Y9283796D01*
X11307473Y9274590D01*
Y9104334D01*
X10621047Y8417908D01*
X10609904Y8401230D01*
X10605990Y8381558D01*
X10605991Y8381556D01*
Y7607863D01*
X10593291Y7604682D01*
X10590458Y7609982D01*
X10571663Y7632883D01*
X10548762Y7651678D01*
X10522634Y7665644D01*
X10494284Y7674243D01*
X10464800Y7677147D01*
X10439486Y7674654D01*
X10436367Y7687108D01*
X10448674Y7692206D01*
X10467244Y7706456D01*
X10481494Y7725026D01*
X10490452Y7746653D01*
X10491835Y7757160D01*
X10416540D01*
Y7681865D01*
X10416806Y7681900D01*
X10419496Y7669444D01*
X10406966Y7665644D01*
X10380838Y7651678D01*
X10357937Y7632883D01*
X10339142Y7609982D01*
X10325176Y7583854D01*
X10316577Y7555504D01*
X10313673Y7526020D01*
X10316577Y7496536D01*
X10325176Y7468186D01*
X10339142Y7442058D01*
X10357937Y7419157D01*
X10380838Y7400362D01*
X10406966Y7386396D01*
X10435316Y7377797D01*
X10464800Y7374893D01*
X10494284Y7377797D01*
X10522634Y7386396D01*
X10548762Y7400362D01*
X10565785Y7414333D01*
X10576301Y7406533D01*
X10571228Y7394287D01*
X10568173Y7371080D01*
X10571228Y7347873D01*
X10580186Y7326246D01*
X10594436Y7307676D01*
X10613006Y7293426D01*
X10634633Y7284468D01*
X10657840Y7281413D01*
X10681047Y7284468D01*
X10702674Y7293426D01*
X10721244Y7307676D01*
X10735494Y7326246D01*
X10744452Y7347873D01*
X10747507Y7371080D01*
X10744452Y7394287D01*
X10735494Y7415914D01*
X10721244Y7434484D01*
X10708804Y7444030D01*
Y7647000D01*
X10750098D01*
Y7772400D01*
Y7897800D01*
X10708804D01*
Y8360264D01*
X11395230Y9046690D01*
X11406374Y9063367D01*
X11410287Y9083040D01*
X11410287Y9083041D01*
Y9274590D01*
X11422284Y9283796D01*
X11436534Y9302366D01*
X11445492Y9323993D01*
X11448547Y9347200D01*
X11445492Y9370407D01*
X11436534Y9392034D01*
X11422284Y9410604D01*
X11403714Y9424854D01*
X11382087Y9433812D01*
X11358880Y9436867D01*
D02*
G37*
G36*
X12288398Y7488542D02*
X12263598D01*
Y7404100D01*
X12327040D01*
Y7449900D01*
X12324098Y7464688D01*
X12315722Y7477224D01*
X12303185Y7485601D01*
X12288398Y7488542D01*
D02*
G37*
G36*
X12238198D02*
X12213397D01*
X12198610Y7485601D01*
X12186073Y7477224D01*
X12177697Y7464688D01*
X12174755Y7449900D01*
Y7404100D01*
X12238198D01*
Y7488542D01*
D02*
G37*
G36*
X12792681Y6786989D02*
X12766165Y6785831D01*
X12740853Y6777851D01*
X12718468Y6763590D01*
X12709191Y6753466D01*
X12780701Y6703394D01*
X12830772Y6774904D01*
X12818593Y6781245D01*
X12792681Y6786989D01*
D02*
G37*
G36*
X12851579Y6760335D02*
X12801508Y6688826D01*
X12873018Y6638754D01*
X12879358Y6650934D01*
X12885101Y6676846D01*
X12883945Y6703361D01*
X12875964Y6728674D01*
X12861703Y6751059D01*
X12851579Y6760335D01*
D02*
G37*
G36*
X12694622Y6732660D02*
X12688282Y6720480D01*
X12682537Y6694568D01*
X12683695Y6668052D01*
X12691676Y6642739D01*
X12705936Y6620355D01*
X12716060Y6611078D01*
X12766132Y6682588D01*
X12694622Y6732660D01*
D02*
G37*
G36*
X12786939Y6668019D02*
X12736867Y6596509D01*
X12749047Y6590168D01*
X12774959Y6584424D01*
X12801476Y6585582D01*
X12826787Y6593563D01*
X12849171Y6607823D01*
X12858449Y6617947D01*
X12786939Y6668019D01*
D02*
G37*
G36*
X10652760Y9887315D02*
Y9812020D01*
X10728055D01*
X10726672Y9822527D01*
X10717714Y9844154D01*
X10703464Y9862724D01*
X10684894Y9876974D01*
X10663267Y9885932D01*
X10652760Y9887315D01*
D02*
G37*
G36*
X10627360D02*
X10616853Y9885932D01*
X10595226Y9876974D01*
X10576656Y9862724D01*
X10562406Y9844154D01*
X10553448Y9822527D01*
X10552065Y9812020D01*
X10627360D01*
Y9887315D01*
D02*
G37*
G36*
X10728055Y9786620D02*
X10652760D01*
Y9711325D01*
X10663267Y9712708D01*
X10684894Y9721666D01*
X10703464Y9735916D01*
X10717714Y9754486D01*
X10726672Y9776113D01*
X10728055Y9786620D01*
D02*
G37*
G36*
X10627360D02*
X10552065D01*
X10553448Y9776113D01*
X10562406Y9754486D01*
X10576656Y9735916D01*
X10595226Y9721666D01*
X10616853Y9712708D01*
X10627360Y9711325D01*
Y9786620D01*
D02*
G37*
G36*
X8506540Y7655025D02*
X8460740D01*
Y7591582D01*
X8545182D01*
Y7616383D01*
X8542241Y7631170D01*
X8533864Y7643707D01*
X8521328Y7652083D01*
X8506540Y7655025D01*
D02*
G37*
G36*
X8122920Y7666877D02*
X8112413Y7665494D01*
X8090786Y7656536D01*
X8072216Y7642287D01*
X8057966Y7623716D01*
X8049008Y7602090D01*
X8047625Y7591582D01*
X8122920D01*
Y7666877D01*
D02*
G37*
G36*
X8545182Y7566182D02*
X8460740D01*
Y7502740D01*
X8506540D01*
X8521328Y7505682D01*
X8533864Y7514058D01*
X8542241Y7526595D01*
X8545182Y7541382D01*
Y7566182D01*
D02*
G37*
G36*
X8148320Y7666877D02*
Y7578882D01*
Y7490887D01*
X8158827Y7492271D01*
X8180454Y7501229D01*
X8195688Y7512918D01*
X8363922D01*
X8374752Y7505682D01*
X8389540Y7502740D01*
X8435340D01*
Y7578882D01*
Y7655025D01*
X8389540D01*
X8374752Y7652083D01*
X8363922Y7644847D01*
X8195688D01*
X8180454Y7656536D01*
X8158827Y7665494D01*
X8148320Y7666877D01*
D02*
G37*
G36*
X8122920Y7566182D02*
X8047625D01*
X8049008Y7555675D01*
X8057966Y7534049D01*
X8072216Y7515478D01*
X8090786Y7501229D01*
X8112413Y7492271D01*
X8122920Y7490887D01*
Y7566182D01*
D02*
G37*
G36*
X12682209Y12374210D02*
X12595446Y12287448D01*
X12646853Y12236041D01*
X12733615Y12322803D01*
X12682209Y12374210D01*
D02*
G37*
G36*
X12751576Y12304843D02*
X12664813Y12218080D01*
X12716220Y12166674D01*
X12802982Y12253437D01*
X12751576Y12304843D01*
D02*
G37*
G36*
X12577486Y12269487D02*
X12490724Y12182725D01*
X12542131Y12131319D01*
X12628892Y12218080D01*
X12577486Y12269487D01*
D02*
G37*
G36*
X12646853Y12200120D02*
X12560091Y12113358D01*
X12611498Y12061952D01*
X12698259Y12148714D01*
X12646853Y12200120D01*
D02*
G37*
G36*
X13007477Y11985030D02*
X12989099Y11982610D01*
X12971974Y11975517D01*
X12957268Y11964232D01*
X12945982Y11949526D01*
X12938889Y11932401D01*
X12936470Y11914022D01*
X12938889Y11895644D01*
X12945982Y11878519D01*
X12957268Y11863812D01*
X12971974Y11852528D01*
X12989099Y11845435D01*
X13007477Y11843015D01*
X13025854Y11845435D01*
X13042981Y11852528D01*
X13057687Y11863812D01*
X13068971Y11878519D01*
X13076065Y11895644D01*
X13078485Y11914022D01*
X13076065Y11932401D01*
X13068971Y11949526D01*
X13057687Y11964232D01*
X13042981Y11975517D01*
X13025854Y11982610D01*
X13007477Y11985030D01*
D02*
G37*
G36*
X9827035Y11950068D02*
X9522685D01*
X9508941Y11947334D01*
X9497289Y11939548D01*
X9489504Y11927897D01*
X9486770Y11914153D01*
Y11802803D01*
X9489504Y11789058D01*
X9497289Y11777407D01*
X9508941Y11769621D01*
X9522685Y11766888D01*
X9827035D01*
X9840779Y11769621D01*
X9852431Y11777407D01*
X9860216Y11789058D01*
X9862950Y11802803D01*
Y11914153D01*
X9860216Y11927897D01*
X9852431Y11939548D01*
X9840779Y11947334D01*
X9827035Y11950068D01*
D02*
G37*
G36*
X11587480Y11751785D02*
Y11663680D01*
X11675585D01*
X11673765Y11677503D01*
X11663528Y11702218D01*
X11647242Y11723442D01*
X11626018Y11739728D01*
X11601303Y11749965D01*
X11587480Y11751785D01*
D02*
G37*
G36*
X11562080D02*
X11548257Y11749965D01*
X11523542Y11739728D01*
X11502318Y11723442D01*
X11486032Y11702218D01*
X11475795Y11677503D01*
X11473975Y11663680D01*
X11562080D01*
Y11751785D01*
D02*
G37*
G36*
X11351860Y11895674D02*
X11330871Y11892910D01*
X11311313Y11884809D01*
X11294518Y11871922D01*
X11281631Y11855127D01*
X11273530Y11835569D01*
X11270766Y11814580D01*
Y11704580D01*
X11273530Y11683591D01*
X11281631Y11664033D01*
X11294518Y11647238D01*
X11311313Y11634351D01*
X11330871Y11626250D01*
X11351860Y11623486D01*
X11372848Y11626250D01*
X11392407Y11634351D01*
X11409202Y11647238D01*
X11422089Y11664033D01*
X11430190Y11683591D01*
X11432954Y11704580D01*
Y11814580D01*
X11430190Y11835569D01*
X11422089Y11855127D01*
X11409202Y11871922D01*
X11392407Y11884809D01*
X11372848Y11892910D01*
X11351860Y11895674D01*
D02*
G37*
G36*
X10487860D02*
X10466872Y11892910D01*
X10447313Y11884809D01*
X10430518Y11871922D01*
X10417631Y11855127D01*
X10409530Y11835569D01*
X10406767Y11814580D01*
Y11704580D01*
X10409530Y11683591D01*
X10417631Y11664033D01*
X10430518Y11647238D01*
X10447313Y11634351D01*
X10466872Y11626250D01*
X10487860Y11623486D01*
X10508849Y11626250D01*
X10528407Y11634351D01*
X10545202Y11647238D01*
X10558089Y11664033D01*
X10566190Y11683591D01*
X10568954Y11704580D01*
Y11814580D01*
X10566190Y11835569D01*
X10558089Y11855127D01*
X10545202Y11871922D01*
X10528407Y11884809D01*
X10508849Y11892910D01*
X10487860Y11895674D01*
D02*
G37*
G36*
X9070340Y11647535D02*
Y11572240D01*
X9145635D01*
X9144252Y11582747D01*
X9135294Y11604374D01*
X9121044Y11622944D01*
X9102474Y11637194D01*
X9080847Y11646152D01*
X9070340Y11647535D01*
D02*
G37*
G36*
X9044940D02*
X9034433Y11646152D01*
X9012806Y11637194D01*
X8994236Y11622944D01*
X8979986Y11604374D01*
X8971028Y11582747D01*
X8969645Y11572240D01*
X9044940D01*
Y11647535D01*
D02*
G37*
G36*
X11675585Y11638280D02*
X11587480D01*
Y11550175D01*
X11601303Y11551995D01*
X11626018Y11562232D01*
X11647242Y11578518D01*
X11663528Y11599742D01*
X11673765Y11624457D01*
X11675585Y11638280D01*
D02*
G37*
G36*
X11562080D02*
X11473975D01*
X11475795Y11624457D01*
X11486032Y11599742D01*
X11502318Y11578518D01*
X11523542Y11562232D01*
X11548257Y11551995D01*
X11562080Y11550175D01*
Y11638280D01*
D02*
G37*
G36*
X12024599Y11617605D02*
X11966122Y11559128D01*
X12031670Y11493579D01*
X12090148Y11552056D01*
X12024599Y11617605D01*
D02*
G37*
G36*
X9145635Y11546840D02*
X9070340D01*
Y11471545D01*
X9080847Y11472928D01*
X9102474Y11481886D01*
X9121044Y11496136D01*
X9135294Y11514706D01*
X9144252Y11536333D01*
X9145635Y11546840D01*
D02*
G37*
G36*
X9044940D02*
X8969645D01*
X8971028Y11536333D01*
X8979986Y11514706D01*
X8994236Y11496136D01*
X9012806Y11481886D01*
X9034433Y11472928D01*
X9044940Y11471545D01*
Y11546840D01*
D02*
G37*
G36*
X11351860Y11515674D02*
X11330871Y11512910D01*
X11311313Y11504809D01*
X11294518Y11491922D01*
X11281631Y11475127D01*
X11273530Y11455569D01*
X11272960Y11451242D01*
X11260260Y11452074D01*
Y11456980D01*
X11207560D01*
Y11371580D01*
Y11286180D01*
X11260260D01*
Y11307086D01*
X11272960Y11307918D01*
X11273530Y11303591D01*
X11281631Y11284033D01*
X11294518Y11267238D01*
X11311313Y11254351D01*
X11330871Y11246250D01*
X11351860Y11243486D01*
X11372848Y11246250D01*
X11392407Y11254351D01*
X11409202Y11267238D01*
X11422089Y11284033D01*
X11430190Y11303591D01*
X11432954Y11324580D01*
Y11434580D01*
X11430190Y11455569D01*
X11422089Y11475127D01*
X11409202Y11491922D01*
X11392407Y11504809D01*
X11372848Y11512910D01*
X11351860Y11515674D01*
D02*
G37*
G36*
X11948161Y11541167D02*
X11889683Y11482689D01*
X11955232Y11417141D01*
X12013710Y11475619D01*
X11948161Y11541167D01*
D02*
G37*
G36*
X12108108Y11534096D02*
X12049631Y11475619D01*
X12115180Y11410070D01*
X12173657Y11468547D01*
X12108108Y11534096D01*
D02*
G37*
G36*
X10378280Y11446460D02*
X10292080D01*
Y11375760D01*
X10378280D01*
Y11446460D01*
D02*
G37*
G36*
X10266680D02*
X10180480D01*
Y11375760D01*
X10266680D01*
Y11446460D01*
D02*
G37*
G36*
X13573166Y11419346D02*
X13554787Y11416927D01*
X13537662Y11409833D01*
X13522955Y11398549D01*
X13511671Y11383843D01*
X13504578Y11366717D01*
X13502158Y11348339D01*
X13504578Y11329961D01*
X13511671Y11312835D01*
X13522955Y11298129D01*
X13537662Y11286845D01*
X13554787Y11279751D01*
X13573166Y11277332D01*
X13591544Y11279751D01*
X13608669Y11286845D01*
X13623376Y11298129D01*
X13634660Y11312835D01*
X13641754Y11329961D01*
X13644173Y11348339D01*
X13641754Y11366717D01*
X13634660Y11383843D01*
X13623376Y11398549D01*
X13608669Y11409833D01*
X13591544Y11416927D01*
X13573166Y11419346D01*
D02*
G37*
G36*
X10487860Y11515674D02*
X10466872Y11512910D01*
X10447313Y11504809D01*
X10430518Y11491922D01*
X10417631Y11475127D01*
X10409530Y11455569D01*
X10406767Y11434580D01*
Y11324580D01*
X10409530Y11303591D01*
X10417631Y11284033D01*
X10423884Y11275883D01*
X10417622Y11263183D01*
X10385557D01*
X10378280Y11270460D01*
Y11279660D01*
X10378280Y11283160D01*
Y11350360D01*
X10279380D01*
X10180480D01*
Y11283160D01*
X10180480Y11279660D01*
Y11270460D01*
X10170948Y11259313D01*
X9974147D01*
X9973883Y11260639D01*
X9966727Y11271348D01*
X9956018Y11278504D01*
X9943386Y11281017D01*
X9864336D01*
X9851704Y11278504D01*
X9840995Y11271348D01*
X9833840Y11260639D01*
X9831327Y11248007D01*
Y11130957D01*
X9833840Y11118325D01*
X9840995Y11107616D01*
X9851704Y11100461D01*
X9864336Y11097948D01*
X9906868D01*
X10104196Y10900620D01*
Y10724178D01*
X10096959Y10713348D01*
X10094018Y10698560D01*
Y10581560D01*
X10096959Y10566772D01*
X10105336Y10554236D01*
X10117872Y10545859D01*
X10132660Y10542918D01*
X10207660D01*
X10222448Y10545859D01*
X10234984Y10554236D01*
X10243361Y10566772D01*
X10246302Y10581560D01*
Y10698560D01*
X10243361Y10713348D01*
X10236124Y10724178D01*
Y10927944D01*
X10233877Y10945016D01*
X10227287Y10960926D01*
X10216804Y10974587D01*
X10075741Y11115651D01*
X10080601Y11127384D01*
X10180480D01*
Y11103660D01*
X10378280D01*
Y11131255D01*
X10991479D01*
X11008552Y11133502D01*
X11024461Y11140092D01*
X11038123Y11150575D01*
X11118504Y11230956D01*
X11128987Y11244618D01*
X11135577Y11260527D01*
X11137824Y11277600D01*
Y11286180D01*
X11182160D01*
Y11371580D01*
Y11456980D01*
X10657559D01*
Y11371580D01*
X10632159D01*
Y11456980D01*
X10579460D01*
Y11452074D01*
X10566760Y11451242D01*
X10566190Y11455569D01*
X10558089Y11475127D01*
X10545202Y11491922D01*
X10528407Y11504809D01*
X10508849Y11512910D01*
X10487860Y11515674D01*
D02*
G37*
G36*
X9485384Y11281017D02*
X9458559D01*
Y11202182D01*
X9518393D01*
Y11248007D01*
X9515880Y11260639D01*
X9508725Y11271348D01*
X9498016Y11278504D01*
X9485384Y11281017D01*
D02*
G37*
G36*
X9433159D02*
X9406334D01*
X9393702Y11278504D01*
X9382993Y11271348D01*
X9375837Y11260639D01*
X9373324Y11248007D01*
Y11202182D01*
X9433159D01*
Y11281017D01*
D02*
G37*
G36*
X13778224Y11278195D02*
X13691463Y11191433D01*
X13742868Y11140026D01*
X13829630Y11226788D01*
X13778224Y11278195D01*
D02*
G37*
G36*
X13847591Y11208828D02*
X13760829Y11122066D01*
X13812234Y11070659D01*
X13898997Y11157421D01*
X13847591Y11208828D01*
D02*
G37*
G36*
X13673502Y11173472D02*
X13586739Y11086710D01*
X13638145Y11035304D01*
X13724908Y11122066D01*
X13673502Y11173472D01*
D02*
G37*
G36*
X13742868Y11104105D02*
X13656107Y11017343D01*
X13707513Y10965936D01*
X13794275Y11052698D01*
X13742868Y11104105D01*
D02*
G37*
G36*
X10020660Y10737202D02*
X9995860D01*
Y10652760D01*
X10059302D01*
Y10698560D01*
X10056361Y10713348D01*
X10047984Y10725884D01*
X10035448Y10734261D01*
X10020660Y10737202D01*
D02*
G37*
G36*
X10507980Y10938507D02*
X10478496Y10935603D01*
X10450146Y10927004D01*
X10424018Y10913038D01*
X10401117Y10894243D01*
X10382322Y10871342D01*
X10368356Y10845214D01*
X10359757Y10816864D01*
X10356853Y10787380D01*
X10359757Y10757896D01*
X10368356Y10729546D01*
X10382322Y10703418D01*
X10401117Y10680517D01*
X10424018Y10661722D01*
X10450146Y10647756D01*
X10478496Y10639157D01*
X10507980Y10636253D01*
X10537464Y10639157D01*
X10565814Y10647756D01*
X10591942Y10661722D01*
X10614843Y10680517D01*
X10633638Y10703418D01*
X10647604Y10729546D01*
X10656203Y10757896D01*
X10659107Y10787380D01*
X10656203Y10816864D01*
X10647604Y10845214D01*
X10633638Y10871342D01*
X10614843Y10894243D01*
X10591942Y10913038D01*
X10565814Y10927004D01*
X10537464Y10935603D01*
X10507980Y10938507D01*
D02*
G37*
G36*
X10059302Y10627360D02*
X9995860D01*
Y10542918D01*
X10020660D01*
X10035448Y10545859D01*
X10047984Y10554236D01*
X10056361Y10566772D01*
X10059302Y10581560D01*
Y10627360D01*
D02*
G37*
G36*
X13530580Y9488167D02*
X13501096Y9485263D01*
X13472746Y9476664D01*
X13446619Y9462698D01*
X13423717Y9443903D01*
X13404922Y9421002D01*
X13390956Y9394874D01*
X13382356Y9366524D01*
X13379453Y9337040D01*
X13382356Y9307556D01*
X13390956Y9279206D01*
X13404922Y9253078D01*
X13423717Y9230177D01*
X13446619Y9211382D01*
X13472746Y9197416D01*
X13501096Y9188817D01*
X13530580Y9185913D01*
X13560065Y9188817D01*
X13588414Y9197416D01*
X13614542Y9211382D01*
X13637444Y9230177D01*
X13656238Y9253078D01*
X13670204Y9279206D01*
X13678802Y9307556D01*
X13681706Y9337040D01*
X13678802Y9366524D01*
X13670204Y9394874D01*
X13656238Y9421002D01*
X13637444Y9443903D01*
X13614542Y9462698D01*
X13588414Y9476664D01*
X13560065Y9485263D01*
X13530580Y9488167D01*
D02*
G37*
G36*
X8478520Y8736695D02*
Y8661400D01*
X8553815D01*
X8552432Y8671907D01*
X8543474Y8693534D01*
X8529224Y8712104D01*
X8510654Y8726354D01*
X8489027Y8735312D01*
X8478520Y8736695D01*
D02*
G37*
G36*
X8453120D02*
X8442613Y8735312D01*
X8420986Y8726354D01*
X8402416Y8712104D01*
X8388166Y8693534D01*
X8379208Y8671907D01*
X8377825Y8661400D01*
X8453120D01*
Y8736695D01*
D02*
G37*
G36*
X8553815Y8636000D02*
X8377825D01*
X8379208Y8625493D01*
X8388166Y8603866D01*
X8399856Y8588632D01*
Y8496820D01*
X8392532Y8495363D01*
X8379996Y8486987D01*
X8371619Y8474450D01*
X8368678Y8459663D01*
Y8434862D01*
X8465820D01*
Y8422162D01*
D01*
Y8434862D01*
X8562962D01*
Y8459663D01*
X8560021Y8474450D01*
X8551644Y8486987D01*
X8539108Y8495363D01*
X8531784Y8496820D01*
Y8588632D01*
X8543474Y8603866D01*
X8552432Y8625493D01*
X8553815Y8636000D01*
D02*
G37*
G36*
X8562962Y8409462D02*
X8478520D01*
Y8346020D01*
X8524320D01*
X8539108Y8348962D01*
X8551644Y8357338D01*
X8560021Y8369875D01*
X8562962Y8384662D01*
Y8409462D01*
D02*
G37*
G36*
X8453120D02*
X8368678D01*
Y8384662D01*
X8371619Y8369875D01*
X8379996Y8357338D01*
X8392532Y8348962D01*
X8407320Y8346020D01*
X8453120D01*
Y8409462D01*
D02*
G37*
G36*
X9834720Y8375600D02*
X9748520D01*
Y8304900D01*
X9834720D01*
Y8375600D01*
D02*
G37*
G36*
X9723120D02*
X9636920D01*
Y8304900D01*
X9723120D01*
Y8375600D01*
D02*
G37*
G36*
X8981440Y8961044D02*
X8409940D01*
X8392867Y8958797D01*
X8376958Y8952207D01*
X8363296Y8941724D01*
X8123831Y8702258D01*
X8104793Y8699752D01*
X8083166Y8690794D01*
X8064596Y8676544D01*
X8050346Y8657974D01*
X8041388Y8636347D01*
X8038333Y8613140D01*
X8041388Y8589933D01*
X8050346Y8568306D01*
X8064596Y8549736D01*
X8083166Y8535486D01*
X8104793Y8526528D01*
X8128000Y8523473D01*
X8151207Y8526528D01*
X8172834Y8535486D01*
X8191404Y8549736D01*
X8205654Y8568306D01*
X8214612Y8589933D01*
X8217118Y8608971D01*
X8437263Y8829116D01*
X8954117D01*
X9324416Y8458817D01*
Y8370828D01*
X9312012Y8368361D01*
X9299476Y8359984D01*
X9291099Y8347448D01*
X9288158Y8332660D01*
Y8257660D01*
X9291099Y8242872D01*
X9299476Y8230336D01*
X9312012Y8221959D01*
X9326800Y8219018D01*
X9443800D01*
X9458588Y8221959D01*
X9471124Y8230336D01*
X9479501Y8242872D01*
X9482442Y8257660D01*
Y8332660D01*
X9479501Y8347448D01*
X9471124Y8359984D01*
X9458588Y8368361D01*
X9456344Y8368807D01*
Y8486140D01*
X9454097Y8503213D01*
X9447507Y8519122D01*
X9437024Y8532784D01*
X9028084Y8941724D01*
X9014422Y8952207D01*
X8998513Y8958797D01*
X8981440Y8961044D01*
D02*
G37*
G36*
X11174305Y7260941D02*
X11116605D01*
Y7148241D01*
X11174305D01*
Y7260941D01*
D02*
G37*
G36*
X8558600Y7115880D02*
X8470900D01*
Y7028180D01*
X8558600D01*
Y7115880D01*
D02*
G37*
G36*
X8445500D02*
X8357800D01*
Y7028180D01*
X8445500D01*
Y7115880D01*
D02*
G37*
G36*
X11174305Y7122841D02*
X11116605D01*
Y7010141D01*
X11174305D01*
Y7122841D01*
D02*
G37*
G36*
X8558600Y7002780D02*
X8470900D01*
Y6915080D01*
X8558600D01*
Y7002780D01*
D02*
G37*
G36*
X8445500D02*
X8357800D01*
Y6915080D01*
X8445500D01*
Y7002780D01*
D02*
G37*
G36*
X13535660Y7115807D02*
X13506177Y7112903D01*
X13477826Y7104304D01*
X13451698Y7090338D01*
X13428796Y7071543D01*
X13410002Y7048642D01*
X13396036Y7022514D01*
X13387437Y6994164D01*
X13384534Y6964680D01*
X13384657Y6963410D01*
X13384534Y6962140D01*
X13387437Y6932656D01*
X13396036Y6904306D01*
X13410002Y6878178D01*
X13428796Y6855277D01*
X13451698Y6836482D01*
X13477826Y6822516D01*
X13506177Y6813917D01*
X13535660Y6811013D01*
X13565144Y6813917D01*
X13593494Y6822516D01*
X13619621Y6836482D01*
X13642523Y6855277D01*
X13661317Y6878178D01*
X13675284Y6904306D01*
X13683884Y6932656D01*
X13686787Y6962140D01*
X13686662Y6963410D01*
X13686787Y6964680D01*
X13683884Y6994164D01*
X13675284Y7022514D01*
X13661317Y7048642D01*
X13642523Y7071543D01*
X13619621Y7090338D01*
X13593494Y7104304D01*
X13565144Y7112903D01*
X13535660Y7115807D01*
D02*
G37*
G36*
X10913405Y6416040D02*
X10646705D01*
Y6149340D01*
X10913405D01*
Y6416040D01*
D02*
G37*
G36*
X10621305D02*
X10354605D01*
Y6149340D01*
X10621305D01*
Y6416040D01*
D02*
G37*
G36*
X8302007Y6392273D02*
X8172421Y6237839D01*
X8326855Y6108253D01*
X8456441Y6262687D01*
X8302007Y6392273D01*
D02*
G37*
G36*
X10913405Y6123940D02*
X10646705D01*
Y5857240D01*
X10913405D01*
Y6123940D01*
D02*
G37*
G36*
X10621305D02*
X10354605D01*
Y5857240D01*
X10621305D01*
Y6123940D01*
D02*
G37*
G36*
X11369705Y5371841D02*
X11257005D01*
Y5314141D01*
X11369705D01*
Y5371841D01*
D02*
G37*
G36*
X9807804D02*
X9695104D01*
Y5314141D01*
X9807804D01*
Y5371841D01*
D02*
G37*
G36*
X9669704D02*
X9557004D01*
Y5314141D01*
X9669704D01*
Y5371841D01*
D02*
G37*
%LPD*%
D10*
X11194860Y11371580D02*
D03*
X10644860D02*
D03*
D11*
X11071860D02*
D03*
X10767860D02*
D03*
D12*
X10969860D02*
D03*
X10869860D02*
D03*
D13*
X9682404Y6019541D02*
D03*
X11382405Y6781541D02*
D03*
Y7035541D02*
D03*
Y6908541D02*
D03*
Y6654541D02*
D03*
Y6527541D02*
D03*
Y6400541D02*
D03*
Y6146541D02*
D03*
Y6019541D02*
D03*
Y5892541D02*
D03*
Y5765541D02*
D03*
Y5638541D02*
D03*
Y5511541D02*
D03*
Y5384541D02*
D03*
X9682404Y7035541D02*
D03*
Y6908541D02*
D03*
Y6781541D02*
D03*
Y6654541D02*
D03*
Y6527541D02*
D03*
Y6400541D02*
D03*
Y6273541D02*
D03*
Y6146541D02*
D03*
Y5892541D02*
D03*
Y5765541D02*
D03*
Y5638541D02*
D03*
Y5511541D02*
D03*
Y5384541D02*
D03*
X11382405Y6273541D02*
D03*
D14*
X8465820Y8235158D02*
D03*
Y8422162D02*
D03*
X9385300Y8295160D02*
D03*
Y8108160D02*
D03*
X8481060Y9063203D02*
D03*
Y9250202D02*
D03*
X8448040Y7391878D02*
D03*
Y7578882D02*
D03*
X11811000Y5732302D02*
D03*
Y5545303D02*
D03*
D15*
X11230605Y9513575D02*
D03*
X11106155Y9638025D02*
D03*
D16*
X9485260Y10312400D02*
D03*
X9661260D02*
D03*
X9487800Y10726420D02*
D03*
X9663800D02*
D03*
D17*
X10279380Y11363060D02*
D03*
Y11187060D02*
D03*
X9735820Y8116200D02*
D03*
Y8292200D02*
D03*
X11295380Y8106040D02*
D03*
Y8282040D02*
D03*
D18*
X10468905Y7135541D02*
D03*
X10341905D02*
D03*
X10214905D02*
D03*
X9960905D02*
D03*
X10595905D02*
D03*
X10722905D02*
D03*
X10849905D02*
D03*
X10976905D02*
D03*
X11103905D02*
D03*
D19*
X10634005Y6136640D02*
D03*
D20*
X9445859Y11189482D02*
D03*
X9674860D02*
D03*
X9903861D02*
D03*
D21*
X9674860Y11858478D02*
D03*
D22*
X11132012Y9938212D02*
D03*
X11270310Y9799919D02*
D03*
X11223615Y9846615D02*
D03*
X11178713Y9891517D02*
D03*
X11085317Y9984913D02*
D03*
X11040415Y10029815D02*
D03*
X10993719Y10076510D02*
D03*
X11406810Y10489601D02*
D03*
X11453505Y10442905D02*
D03*
X11498407Y10398003D02*
D03*
X11545108Y10351308D02*
D03*
X11591803Y10304607D02*
D03*
X11636705Y10259705D02*
D03*
X11683401Y10213010D02*
D03*
D23*
X12321586Y11114994D02*
D03*
X12399366Y11037209D02*
D03*
X12477151Y10959429D02*
D03*
X12554930Y10881650D02*
D03*
X12632710Y10803865D02*
D03*
X12710495Y10726085D02*
D03*
X12788275Y10648305D02*
D03*
X12866055Y10570520D02*
D03*
D24*
X12943840Y10492740D02*
D03*
D25*
X13071120Y10450312D02*
D03*
D26*
X13742868Y11122066D02*
D03*
X12646853Y12218081D02*
D03*
D27*
X12031670Y11475618D02*
D03*
D28*
X11826316Y9946716D02*
D03*
X11694084Y9814484D02*
D03*
X11953316Y10581716D02*
D03*
X11821084Y10449484D02*
D03*
X11800916Y10759516D02*
D03*
X11668684Y10627284D02*
D03*
D29*
X10749204Y10000056D02*
D03*
X10881436Y9867824D02*
D03*
D30*
X12233600Y9067800D02*
D03*
X12420600D02*
D03*
X12250898Y7391400D02*
D03*
X12437902D02*
D03*
X12225503Y8229600D02*
D03*
X12412502D02*
D03*
X10170160Y10640060D02*
D03*
X9983160D02*
D03*
D31*
X10166802Y7772400D02*
D03*
X9746798D02*
D03*
X10762798D02*
D03*
X11182802D02*
D03*
D32*
X10243820Y9174480D02*
Y9344660D01*
X9663801Y9924679D02*
Y10304780D01*
Y9924679D02*
X10243820Y9344660D01*
X10706100Y11201400D02*
X10767860Y11263160D01*
Y11371580D01*
X11095195Y9627066D02*
X11106155Y9638025D01*
X11047111D02*
X11058071Y9627066D01*
X9908540Y9999980D02*
X10270495Y9638025D01*
X11058071Y9627066D02*
X11095195D01*
X10270495Y9638025D02*
X11047111D01*
X13081000Y7391400D02*
Y9067800D01*
X7703820Y7386320D02*
Y9608820D01*
X8661400Y11379200D02*
X9042400D01*
X9372600Y11049000D02*
X9539458D01*
X8028940Y10746740D02*
X8661400Y11379200D01*
X9042400D02*
X9372600Y11049000D01*
X9539458D02*
X9668363Y11177900D01*
X7703820Y9608820D02*
X8280400Y10185400D01*
X8142331Y10501991D02*
X8280400Y10363916D01*
X8028940Y10615376D02*
X8077200Y10567116D01*
X9663801Y10304780D02*
X9666341D01*
X9809480Y10309860D02*
X9908540Y10210800D01*
Y9999980D02*
Y10210800D01*
X9666341Y10734040D02*
X9743440D01*
X9839960Y10637520D01*
Y10464800D02*
X10017760Y10287000D01*
X12549403Y11303000D02*
X12876413Y10975995D01*
X12878008Y10972800D02*
X13309599Y10541208D01*
Y10388600D02*
Y10541208D01*
X11557000Y11303000D02*
X12549403D01*
X13004800Y9829800D02*
X13081000Y9753600D01*
X13004800Y9829800D02*
Y10083800D01*
X13081000Y9067800D02*
Y9753600D01*
X10541000Y10287000D02*
X11557000Y11303000D01*
X9839960Y10464800D02*
Y10637520D01*
X13004800Y10083800D02*
X13309599Y10388600D01*
X10017760Y10287000D02*
X10541000D01*
X9671421Y10309860D02*
X9809480D01*
X8028940Y10615376D02*
Y10746740D01*
X8280400Y10185400D02*
Y10363916D01*
X7703820Y7386320D02*
X7705278D01*
D33*
X8901654Y9403080D02*
X9745980D01*
X8079740Y9431020D02*
X8873714D01*
X8901654Y9403080D01*
X7828280Y9179560D02*
X8079740Y9431020D01*
X7828280Y6705600D02*
Y9179560D01*
Y6705600D02*
X8122920Y6410960D01*
X12082409Y11023600D02*
X12260209Y10845800D01*
X11606388Y10564988D02*
X11642314Y10600908D01*
X11606388Y10505984D02*
Y10564988D01*
X11513647Y10413243D02*
X11606388Y10505984D01*
X12363521Y10845800D02*
X12477151Y10959429D01*
X12260209Y10845800D02*
X12363521D01*
X11615420Y11023600D02*
X12082409D01*
X11186160Y10594340D02*
X11615420Y11023600D01*
D34*
X10248900Y11197219D02*
X10991479D01*
X11071860Y11277600D02*
Y11371580D01*
X7950200Y8232140D02*
X7951709Y8233649D01*
X8464311D01*
X8465820Y8235158D01*
Y8422162D02*
Y8648700D01*
X9385300Y8295160D02*
X9390380Y8300240D01*
Y8486140D01*
X8981440Y8895080D02*
X9390380Y8486140D01*
X8409940Y8895080D02*
X8981440D01*
X8128000Y8613140D02*
X8409940Y8895080D01*
X7470140Y8837198D02*
X7700742Y9067800D01*
X7470140Y8836660D02*
Y8837198D01*
X9746798Y8112180D02*
X9749580D01*
X9389320D02*
X9746798D01*
X9749580D02*
X9753600Y8116199D01*
X9385300Y8108160D02*
X9389320Y8112180D01*
X11059419Y6527541D02*
X11382405D01*
X10873740Y6713220D02*
X11059419Y6527541D01*
X11186419Y6781541D02*
X11382405D01*
X8953500Y5999480D02*
X8986363Y5966617D01*
X9080343D02*
X9154419Y5892541D01*
X8986363Y5966617D02*
X9080343D01*
X9154419Y5892541D02*
X9682404D01*
X9015946Y5511541D02*
X9682404D01*
X8790331Y5737156D02*
X9015946Y5511541D01*
X8320136Y10671444D02*
Y10679796D01*
X8499744Y10859404D02*
X8506460D01*
X9198244Y10167620D01*
X9481820Y6998635D02*
X9566914Y6913541D01*
X9481820Y6998635D02*
Y7185660D01*
X9566914Y6913541D02*
X9677404D01*
X9682404Y6908541D01*
X9314224Y9866661D02*
X9341022D01*
X8409940Y10769600D02*
X8411286D01*
X9314224Y9866661D01*
X9341022D02*
X9350015Y9857668D01*
X9390380Y6631940D02*
X9494779Y6527541D01*
X9380220Y6631940D02*
X9390380D01*
X9494779Y6527541D02*
X9682404D01*
X9253479Y6273541D02*
X9682404D01*
X9262229Y6470688D02*
Y6480805D01*
Y6470688D02*
X9328475Y6404442D01*
X9050020Y11112500D02*
X9055100Y11117580D01*
X9050020Y11094720D02*
Y11112500D01*
X10657398Y7371522D02*
X10657840Y7371080D01*
X11021825Y6375400D02*
X11123684Y6273541D01*
X11382405D01*
X11015980Y6375400D02*
X11021825D01*
X11109960Y6868160D02*
X11112500Y6865620D01*
Y6855460D02*
Y6865620D01*
X9668363Y11177900D02*
Y11182980D01*
Y10742041D02*
Y11177900D01*
X8135620Y7578882D02*
X8448040D01*
X9660362Y10734040D02*
X9668363Y10742041D01*
X13081000Y6670040D02*
Y7391400D01*
X11811000Y5545303D02*
X11956263D01*
X11891802Y5732302D02*
X12153900Y5994400D01*
X11455400Y7772400D02*
X11823700Y7404100D01*
X9910359Y11163981D02*
X9934123D01*
X10170160Y10927944D01*
Y10640060D02*
Y10927944D01*
X9903861Y11189482D02*
X9907732Y11193348D01*
X10991479Y11197219D02*
X11071860Y11277600D01*
X7950738Y9067800D02*
X7953040Y9065499D01*
X8478759D01*
X11604981Y6654541D02*
X11681440Y6731000D01*
X9328475Y6404442D02*
X9678507D01*
X9682404Y6400541D01*
X9386981Y5742280D02*
X9410238Y5765541D01*
X9682404D01*
Y6654541D02*
X9804400D01*
X10185400Y6014720D02*
Y6273541D01*
X9804400Y6654541D02*
X10185400Y6273541D01*
X9374480Y5742280D02*
X9386981D01*
X11112500Y6855460D02*
X11186419Y6781541D01*
X11382405Y6654541D02*
X11604981D01*
X10871200Y6713220D02*
X10873740D01*
X8478759Y9065499D02*
X8481060Y9063203D01*
X10245029Y11193348D02*
X10248900Y11197219D01*
X9907732Y11193348D02*
X10245029D01*
X9903861Y11170478D02*
X9910359Y11163981D01*
X9903861Y11170478D02*
Y11189482D01*
X11182802Y7772400D02*
X11455400D01*
X11823700Y6878320D02*
Y7404100D01*
X11811000Y5732302D02*
X11891802D01*
X11956263Y5545303D02*
X13081000Y6670040D01*
X9668363Y11182980D02*
X9674860Y11189482D01*
X8270240Y9250202D02*
X8481060D01*
D35*
X8465820Y8235158D02*
X8978900Y7722083D01*
X9271259Y6019541D02*
X9682404D01*
X8978900Y6311900D02*
X9271259Y6019541D01*
X8978900Y6311900D02*
Y7722083D01*
X9666341Y10304780D02*
Y10734040D01*
X9660362D02*
X9666341D01*
X11300460Y7890058D02*
Y8117840D01*
X9746798Y7772400D02*
Y8112180D01*
X10591800Y10160000D02*
X10754284Y9997516D01*
X11361760Y6901180D02*
X11511280D01*
X11638280Y7028180D01*
X8735499Y10989928D02*
X8749471D01*
X9101379Y10638020D01*
X8679348Y11039008D02*
X8686419D01*
X8735499Y10989928D01*
X8589543Y10949203D02*
X8761527Y10777220D01*
X8775700D01*
X8448040Y7391400D02*
X8466298D01*
X7955280D02*
X8448040D01*
X11382405Y6396939D02*
X11680139D01*
X11350041D02*
X11382405D01*
X8077200Y10567116D02*
X8142331Y10501991D01*
X12646081Y10972800D02*
X12876413D01*
X11599702Y5732302D02*
X11811000D01*
X11182802Y7772400D02*
X11300460Y7890058D01*
X9667240Y7050705D02*
X9682404Y7035541D01*
X9667240Y7457440D02*
X9746798Y7536998D01*
X10993120Y10080155D02*
Y10525760D01*
X11666220Y11198860D01*
X12252960Y10962640D02*
X12313763D01*
X12388332Y11037209D01*
X11826316Y9946716D02*
X11973560Y10093960D01*
X12473188Y10329448D02*
X12788275Y10644535D01*
X7955280Y7386320D02*
Y7391400D01*
X8686800Y6001766D02*
Y7149902D01*
X8466298Y7370399D02*
X8686800Y7149902D01*
X9082786Y5605780D02*
X9552940D01*
X8481060Y9063203D02*
X9377202D01*
X9959340Y7137105D02*
Y8481060D01*
Y7137105D02*
X9960905Y7135541D01*
X11958320Y8584519D02*
X12420600Y9046799D01*
X11382405Y6019541D02*
X11384686Y6017260D01*
X11995592D01*
X12192000Y6213668D01*
Y7145503D01*
X12437902Y7391400D02*
X12830998D01*
X12075160Y6360160D02*
Y7871262D01*
X12420961Y8238058D02*
X12834082D01*
X11523980Y7393940D02*
X11638280Y7279640D01*
X11061700Y7576820D02*
X11244580Y7393940D01*
X11061700Y7576820D02*
Y8402320D01*
X10976905Y7135541D02*
Y8513105D01*
X12115800Y9652000D01*
Y10414000D01*
X11953316Y10579100D02*
X12115800Y10416616D01*
X10749204Y10000056D02*
X10754284Y9997516D01*
X11815765Y10744667D02*
X12039133D01*
X12285980Y10497820D01*
Y9626600D02*
Y10497820D01*
X11061700Y8402320D02*
X12285980Y9626600D01*
X11244580Y7393940D02*
X11523980D01*
X11638280Y7028180D02*
Y7279640D01*
X11361760Y6901180D02*
X11371463Y6898279D01*
X12075160Y7871262D02*
X12412502Y8208599D01*
X11861541Y6146541D02*
X12075160Y6360160D01*
X11382405Y6146541D02*
X11861541D01*
X12192000Y7145503D02*
X12437902Y7391400D01*
X11680139Y6396939D02*
X11958320Y6675120D01*
Y8584519D01*
X12420600Y9067800D02*
X12830998D01*
X9377202Y9063203D02*
X9959340Y8481060D01*
X8686800Y6001766D02*
X9082786Y5605780D01*
X9675048Y5631180D02*
X9682404Y5638541D01*
X9578340Y5631180D02*
X9675048D01*
X9552940Y5605780D02*
X9578340Y5631180D01*
X12788275Y10644535D02*
Y10648305D01*
X12388332Y11037209D02*
X12399366D01*
X12016740Y11198860D02*
X12252960Y10962640D01*
X11666220Y11198860D02*
X12016740D01*
X9746798Y7536998D02*
Y7772400D01*
X9667240Y7050705D02*
Y7457440D01*
X11505941Y5638541D02*
X11599702Y5732302D01*
X11382405Y5638541D02*
X11505941D01*
X11382405Y5511541D02*
X11556741D01*
X11590503Y5545303D01*
X11811000D01*
X12554930Y10881650D02*
X12646081Y10972800D01*
D36*
X11230797Y9760406D02*
X11270310Y9799919D01*
X11106155Y9638025D02*
Y9645921D01*
X11220639Y9760406D01*
X11230797D01*
D37*
X9666341Y10304780D02*
X9671421Y10309860D01*
X11500536Y10213340D02*
X11591803Y10304607D01*
X11186160Y10480040D02*
X11452860Y10213340D01*
X11500536D01*
X8661400Y9210040D02*
X8750300Y9298940D01*
X10368280Y8892540D02*
X10647680Y9171940D01*
X10924540D01*
X12876413Y10972800D02*
Y10975995D01*
X11186160Y10480040D02*
Y10594340D01*
X11642314Y10600908D02*
X11643284Y10601884D01*
X8466298Y7370399D02*
Y7391400D01*
X12412502Y8229600D02*
X12420961Y8238058D01*
X11800916Y10759516D02*
X11815765Y10744667D01*
X12115800Y10414000D02*
Y10416616D01*
X11953316Y10579100D02*
Y10581716D01*
X12412502Y8208599D02*
Y8229600D01*
X12420600Y9046799D02*
Y9067800D01*
X11821084Y10444089D02*
Y10449484D01*
X12876413Y10972800D02*
X12878008D01*
X10048240Y8892540D02*
X10368280D01*
X9641840Y9298940D02*
X10048240Y8892540D01*
X8750300Y9298940D02*
X9641840D01*
D38*
X8320136Y10671444D02*
X9471660Y9519920D01*
D39*
X10657398Y7371522D02*
Y8381558D01*
X11358880Y9083040D01*
Y9347200D01*
D40*
X11453505Y10442905D02*
X11456365D01*
X11529060Y10515600D02*
Y10716260D01*
X12039600Y10922000D02*
X12268200Y10693400D01*
X12522246D01*
X12632710Y10803865D01*
X11734800Y10922000D02*
X12039600D01*
X11529060Y10716260D02*
X11734800Y10922000D01*
X11456365Y10442905D02*
X11529060Y10515600D01*
D41*
X10881436Y9867824D02*
Y9870831D01*
X11040415Y10029815D01*
X11178713Y9891517D02*
X11266856Y9979660D01*
X11528913D01*
X11694084Y9814484D01*
X11651945Y10274945D02*
X11821084Y10444089D01*
D42*
X11022147Y9828347D02*
X11132012Y9938212D01*
D43*
X11351860Y11379580D02*
D03*
X10487860D02*
D03*
X11351860Y11759580D02*
D03*
X10487860D02*
D03*
D44*
X7950200Y8232140D02*
D03*
X8122920Y6410960D02*
D03*
X12783820Y6685707D02*
D03*
X12830998Y9067800D02*
D03*
X12834082Y8238058D02*
D03*
X12830998Y7391400D02*
D03*
X7950738Y9067800D02*
D03*
X7955280Y7386320D02*
D03*
D45*
X7700198Y8232140D02*
D03*
X13081000Y9067800D02*
D03*
X13084077Y8238058D02*
D03*
X13081000Y7391400D02*
D03*
X7700742Y9067800D02*
D03*
X7705278Y7386320D02*
D03*
D46*
X8314431Y6250263D02*
D03*
D47*
X10087905Y7135541D02*
D03*
D48*
X12640427Y6480917D02*
D03*
D49*
X11574780Y11650980D02*
D03*
D50*
X8320136Y10679796D02*
D03*
X8409940Y10769600D02*
D03*
X8499744Y10859404D02*
D03*
X8589543Y10949203D02*
D03*
X8679348Y11039008D02*
D03*
X8769152Y11128812D02*
D03*
X8230321Y10589981D02*
D03*
X8142331Y10501991D02*
D03*
D51*
X8458200Y7015480D02*
D03*
D52*
X8953500Y5999480D02*
D03*
D53*
X9374480Y5742280D02*
D03*
D54*
X11729720Y9464040D02*
D03*
X10924540Y9171940D02*
D03*
X8465820Y8648700D02*
D03*
X8128000Y8613140D02*
D03*
X7470140Y8836660D02*
D03*
X8790331Y5737156D02*
D03*
X9101379Y10638020D02*
D03*
X8775700Y10777220D02*
D03*
X11973560Y10093960D02*
D03*
X12473188Y10329448D02*
D03*
X9471660Y9519920D02*
D03*
X9481820Y7185660D02*
D03*
X9350015Y9857668D02*
D03*
X9380220Y6631940D02*
D03*
X9225280Y10157460D02*
D03*
X9253479Y6273541D02*
D03*
X9262229Y6480805D02*
D03*
X9057640Y11559540D02*
D03*
X9055100Y11117580D02*
D03*
X11275060Y10175240D02*
D03*
X10591800Y10160000D02*
D03*
X11008360Y9776460D02*
D03*
X10657840Y7371080D02*
D03*
X10871200Y6713220D02*
D03*
X11681440Y6731000D02*
D03*
X11112500Y6855460D02*
D03*
X10640060Y9799320D02*
D03*
X10403840Y7769860D02*
D03*
X8135620Y7578882D02*
D03*
X8270240Y9250202D02*
D03*
X9745980Y9403080D02*
D03*
X10243820Y9174480D02*
D03*
X12153900Y5994400D02*
D03*
X11823700Y6878320D02*
D03*
X11358880Y9347200D02*
D03*
X10185400Y6014720D02*
D03*
D55*
X8661400Y9210040D02*
D03*
X11015980Y6375400D02*
D03*
%TF.MD5,bf959087afd9c0ed0414d6dc4e1f4f58*%
M02*
