%TF.GenerationSoftware,Altium Limited,Altium Designer,22.2.1 (43)*%
G04 Layer_Color=65535*
%FSLAX45Y45*%
%MOMM*%
%TF.SameCoordinates,E85C5352-B1E5-4D08-830E-0896481A3A09*%
%TF.FilePolarity,Positive*%
%TF.FileFunction,Legend,Top*%
%TF.Part,Single*%
G01*
G75*
%TA.AperFunction,NonConductor*%
%ADD69C,0.20000*%
%ADD70C,0.12700*%
%ADD71C,0.10160*%
%ADD72C,0.25400*%
%ADD73C,0.10000*%
%ADD95C,0.25000*%
%ADD96C,0.15240*%
%ADD97C,0.02540*%
%ADD98C,0.20320*%
%ADD99C,0.12540*%
D69*
X7710200Y8529640D02*
G03*
X7710200Y8529640I-10000J0D01*
G01*
X12406728Y6651558D02*
G03*
X12406728Y6651558I-10000J0D01*
G01*
X13091000Y8770300D02*
G03*
X13091000Y8770300I-10000J0D01*
G01*
X13094080Y7940560D02*
G03*
X13094080Y7940560I-10000J0D01*
G01*
X13091000Y7093900D02*
G03*
X13091000Y7093900I-10000J0D01*
G01*
X7710740Y9365300D02*
G03*
X7710740Y9365300I-10000J0D01*
G01*
X7715280Y7683820D02*
G03*
X7715280Y7683820I-10000J0D01*
G01*
X11607405Y5371540D02*
G03*
X11607405Y5371540I-10000J0D01*
G01*
X9455860Y11086680D02*
G03*
X9455860Y11086680I-10000J0D01*
G01*
X11366860Y11904580D02*
Y12019580D01*
X10472860D02*
X11366860D01*
X10472860Y11904580D02*
Y12019580D01*
X8318200Y6875480D02*
X8598200D01*
Y7155480D01*
X8318200D02*
X8598200D01*
X8318200Y6875480D02*
Y7155480D01*
X8813500Y5859480D02*
X9093500D01*
X8813500D02*
Y6139480D01*
X9093500D01*
Y5859480D02*
Y6139480D01*
X9234480Y5602280D02*
Y5882279D01*
X9514479D01*
Y5602280D02*
Y5882279D01*
X9234480Y5602280D02*
X9514479D01*
D70*
X8195198Y7892141D02*
Y8467141D01*
X7455200Y7892141D02*
X8195198D01*
X7455200D02*
Y8467141D01*
X8195198D01*
X8554822Y8228660D02*
Y8428660D01*
X8376818Y8228660D02*
Y8428660D01*
X9474300Y8101660D02*
Y8301660D01*
X9296300Y8101660D02*
Y8301660D01*
X12307397Y6415019D02*
X12731847Y7021190D01*
X12307397Y6415019D02*
X12778410Y6085210D01*
X13202859Y6691386D01*
X12731847Y7021190D02*
X13202859Y6691386D01*
X12586000Y8832799D02*
X13325998D01*
Y9407799D01*
X12586000D02*
X13325998D01*
X12586000Y8832799D02*
Y9407799D01*
X12589078Y8003062D02*
X13329082D01*
Y8578063D01*
X12589078D02*
X13329082D01*
X12589078Y8003062D02*
Y8578063D01*
X12586000Y7156399D02*
X13325998D01*
Y7731399D01*
X12586000D02*
X13325998D01*
X12586000Y7156399D02*
Y7731399D01*
X7455738Y9302801D02*
X8195742D01*
X7455738Y8727801D02*
Y9302801D01*
Y8727801D02*
X8195742D01*
Y9302801D01*
X7460280Y7621321D02*
X8200278D01*
X7460280Y7046321D02*
Y7621321D01*
Y7046321D02*
X8200278D01*
Y7621321D01*
X11432408Y5265542D02*
Y5295539D01*
X9632406Y5265542D02*
X11432408D01*
X9632406D02*
Y5295539D01*
X11432408Y7155541D02*
Y7185538D01*
X11181405D02*
X11432408D01*
X9632406D02*
X9883404D01*
X9632406Y7155541D02*
Y7185538D01*
X9338859Y11337981D02*
Y11709979D01*
X10010861Y11337981D02*
Y11709979D01*
X9338859Y11337981D02*
X9364858D01*
X9985858D02*
X10010861D01*
X9861860Y11709979D02*
X10010861D01*
X9338859D02*
X9498858D01*
X11752423Y9746955D02*
X11893845Y9888377D01*
X11626555Y9872823D02*
X11767977Y10014245D01*
X10807543Y10067585D02*
X10948965Y9926163D01*
X10681675Y9941717D02*
X10823097Y9800295D01*
X11879423Y10381955D02*
X12020845Y10523377D01*
X11753555Y10507823D02*
X11894977Y10649245D01*
X11727023Y10559755D02*
X11868445Y10701177D01*
X11601155Y10685623D02*
X11742577Y10827045D01*
X8392058Y9056700D02*
Y9256700D01*
X8570062Y9056700D02*
Y9256700D01*
X8359038Y7385380D02*
Y7585380D01*
X8537042Y7385380D02*
Y7585380D01*
X12227098Y9156802D02*
X12427102D01*
X12227098Y8978798D02*
X12427102D01*
X12244400Y7480402D02*
X12444400D01*
X12244400Y7302398D02*
X12444400D01*
X12219000Y8318602D02*
X12419000D01*
X12219000Y8140598D02*
X12419000D01*
X9976658Y10551058D02*
X10176662D01*
X9976658Y10729062D02*
X10176662D01*
X11900002Y5538800D02*
Y5738800D01*
X11721998Y5538800D02*
Y5738800D01*
X9298940Y8440420D02*
Y8465812D01*
X9311636D01*
X9315868Y8461580D01*
Y8453116D01*
X9311636Y8448884D01*
X9298940D01*
X9307404D02*
X9315868Y8440420D01*
X9324332Y8436188D02*
X9341260D01*
X9349724Y8457348D02*
Y8440420D01*
Y8448884D01*
X9353956Y8453116D01*
X9358188Y8457348D01*
X9362420D01*
X9375116Y8440420D02*
X9387812D01*
X9392043Y8444652D01*
X9387812Y8448884D01*
X9379348D01*
X9375116Y8453116D01*
X9379348Y8457348D01*
X9392043D01*
X9404739Y8461580D02*
Y8457348D01*
X9400507D01*
X9408972D01*
X9404739D01*
Y8444652D01*
X9408972Y8440420D01*
D71*
X9444023Y10516613D02*
X9435692Y10524944D01*
X9419031D01*
X9410700Y10516613D01*
Y10483291D01*
X9419031Y10474960D01*
X9435692D01*
X9444023Y10483291D01*
X9460684Y10516613D02*
X9469014Y10524944D01*
X9485675D01*
X9494006Y10516613D01*
Y10508283D01*
X9485675Y10499952D01*
X9477345D01*
X9485675D01*
X9494006Y10491621D01*
Y10483291D01*
X9485675Y10474960D01*
X9469014D01*
X9460684Y10483291D01*
X9446563Y10930633D02*
X9438232Y10938964D01*
X9421571D01*
X9413240Y10930633D01*
Y10897311D01*
X9421571Y10888980D01*
X9438232D01*
X9446563Y10897311D01*
X9496546Y10888980D02*
X9463224D01*
X9496546Y10922303D01*
Y10930633D01*
X9488215Y10938964D01*
X9471554D01*
X9463224Y10930633D01*
X10221263Y11550393D02*
X10212932Y11558724D01*
X10196271D01*
X10187940Y11550393D01*
Y11517071D01*
X10196271Y11508740D01*
X10212932D01*
X10221263Y11517071D01*
X10237924Y11508740D02*
X10254585D01*
X10246254D01*
Y11558724D01*
X10237924Y11550393D01*
X9660845Y8448547D02*
X9652514Y8456877D01*
X9635853D01*
X9627522Y8448547D01*
Y8415224D01*
X9635853Y8406894D01*
X9652514D01*
X9660845Y8415224D01*
X9677506Y8398563D02*
X9710828D01*
X9727490Y8440216D02*
Y8406894D01*
Y8423555D01*
X9735820Y8431885D01*
X9744151Y8440216D01*
X9752481D01*
X9777473Y8406894D02*
X9802465D01*
X9810796Y8415224D01*
X9802465Y8423555D01*
X9785804D01*
X9777473Y8431885D01*
X9785804Y8440216D01*
X9810796D01*
X9835788Y8448547D02*
Y8440216D01*
X9827457D01*
X9844118D01*
X9835788D01*
Y8415224D01*
X9844118Y8406894D01*
X11270086Y8443467D02*
X11261755Y8451797D01*
X11245094D01*
X11236763Y8443467D01*
Y8410144D01*
X11245094Y8401814D01*
X11261755D01*
X11270086Y8410144D01*
X11286747Y8393483D02*
X11320070D01*
X11361723Y8401814D02*
X11345061D01*
X11336731Y8410144D01*
Y8426805D01*
X11345061Y8435136D01*
X11361723D01*
X11370053Y8426805D01*
Y8418475D01*
X11336731D01*
X11386714Y8401814D02*
Y8435136D01*
X11411706D01*
X11420037Y8426805D01*
Y8401814D01*
D72*
X7787758Y6191670D02*
G03*
X13059306Y6202690I2630265J2641284D01*
G01*
X13792215Y6934185D02*
G03*
X13792215Y9448785I-4356488J1257300D01*
G01*
X7061200Y9448800D02*
G03*
X7062430Y6913548I3840667J-1265763D01*
G01*
X6790228Y11624193D02*
X7656718Y12490684D01*
X6790228Y11624193D02*
X8081264Y10333162D01*
X8230337Y10589997D02*
X8320136Y10679796D01*
X8140517Y10500177D02*
X8230321Y10589981D01*
X7973502Y10440924D02*
X8086639Y10554061D01*
X8320136Y10679796D02*
X8409940Y10769600D01*
X8499744Y10859404D01*
X8589543Y10949203D01*
X8679348Y11039008D01*
X8769152Y11128812D01*
X7656718Y12490684D02*
X8947470Y11199932D01*
X7972740Y10440731D02*
X8085877Y10553873D01*
X8769152Y11128812D02*
X8882289Y11241949D01*
X8081264Y10333162D02*
X8948755Y11200653D01*
X13792204Y6934175D02*
X13792215Y6934185D01*
X13790793Y6934175D02*
X13792204D01*
X13059308Y6202690D02*
X13790793Y6934175D01*
X7061200Y9448800D02*
X7518400Y9906000D01*
X13335001D02*
X13792215Y9448785D01*
X13335001Y9906000D02*
Y10261600D01*
X7518400Y9906000D02*
Y10261600D01*
X7065223Y6912823D02*
X7787757Y6191672D01*
X7315180Y10464820D02*
X7518400Y10261600D01*
X6616700Y11163300D02*
X7315180Y10464820D01*
X6616700Y11163300D02*
Y11176000D01*
Y11506200D01*
X7759670Y12649170D01*
X7759700Y12649200D02*
X7772400D01*
X8178800D01*
X13093700Y12636500D02*
X14236700Y11493500D01*
Y11163300D02*
Y11493500D01*
X12700000Y12636500D02*
X13093700D01*
X13335001Y10261600D02*
X14236700Y11163300D01*
X11798300Y11734800D02*
X12700000Y12636500D01*
X11785600Y11734800D02*
X11798300D01*
X11506200Y12014200D02*
X11785600Y11734800D01*
X9296400Y12014200D02*
X11506200D01*
X9055100Y11772900D02*
X9296400Y12014200D01*
X8178800Y12649200D02*
X9055100Y11772900D01*
X11102307Y9971999D02*
X11076915Y9997391D01*
X11026132D01*
X11000740Y9971999D01*
Y9870432D01*
X11026132Y9845040D01*
X11076915D01*
X11102307Y9870432D01*
X11153091Y9971999D02*
X11178483Y9997391D01*
X11229266D01*
X11254658Y9971999D01*
Y9946607D01*
X11229266Y9921215D01*
X11254658Y9895823D01*
Y9870432D01*
X11229266Y9845040D01*
X11178483D01*
X11153091Y9870432D01*
Y9895823D01*
X11178483Y9921215D01*
X11153091Y9946607D01*
Y9971999D01*
X11178483Y9921215D02*
X11229266D01*
X10511389Y5410184D02*
Y5308617D01*
X10562172D01*
X10579100Y5325544D01*
Y5393256D01*
X10562172Y5410184D01*
X10511389D01*
X10612956Y5308617D02*
X10646812D01*
X10629884D01*
Y5410184D01*
X10612956Y5393256D01*
X7742914Y10510574D02*
X7671095Y10438755D01*
X7617231Y10492619D01*
Y10528528D01*
X7671095Y10582392D01*
X7563367Y10546483D02*
X7635186Y10618302D01*
X7599277Y10582392D01*
X7563367D01*
X7527458D01*
X7509503Y10600347D01*
Y10743985D02*
X7419729Y10654211D01*
X7455639Y10690121D01*
X7473594Y10672166D01*
X7437684Y10708075D01*
X7455639Y10690121D01*
X7419729Y10654211D01*
X7383820Y10654211D01*
X7365865Y10887622D02*
X7437684Y10815804D01*
X7294046D01*
X7276092Y10797849D01*
Y10761939D01*
X7312001Y10726030D01*
X7347911D01*
X7276092Y10977396D02*
X7168364Y10869668D01*
X7276092D01*
X7204273Y10941487D01*
X7222228Y11031260D02*
X7186318Y11067169D01*
X7204273Y11049215D01*
X7096545Y10941487D01*
X7114500Y10923532D01*
X7042681Y11031260D02*
X7006771D01*
X6970862Y11067169D01*
Y11103079D01*
X7042681Y11174898D01*
X7078590D01*
X7114500Y11138988D01*
Y11103079D01*
X7042681Y11031260D01*
X7024726Y11228762D02*
X6988817Y11264671D01*
X7006771Y11246716D01*
X6899043Y11138988D01*
X6934953D01*
X6845179Y11228762D02*
X6809270D01*
X6773360Y11264671D01*
Y11300581D01*
X6791315Y11318535D01*
X6863134D01*
X6881089Y11336490D02*
X6899043Y11354444D01*
X13490768Y8420903D02*
X13389201D01*
Y8370119D01*
X13406128Y8353191D01*
X13423056D01*
X13439984Y8370119D01*
Y8420903D01*
Y8370119D01*
X13456912Y8353191D01*
X13473840D01*
X13490768Y8370119D01*
Y8420903D01*
X13372273Y8319335D02*
Y8251624D01*
X13490768Y8150057D02*
X13473840Y8183913D01*
X13439984Y8217768D01*
X13406128D01*
X13389201Y8200840D01*
Y8166985D01*
X13406128Y8150057D01*
X13423056D01*
X13439984Y8166985D01*
Y8217768D01*
X13506007Y7597943D02*
X13404440D01*
Y7547159D01*
X13421368Y7530231D01*
X13438297D01*
X13455225Y7547159D01*
Y7597943D01*
Y7547159D01*
X13472153Y7530231D01*
X13489079D01*
X13506007Y7547159D01*
Y7597943D01*
X13387514Y7496375D02*
Y7428664D01*
X13506007Y7327097D02*
Y7394808D01*
X13455225D01*
X13472153Y7360953D01*
Y7344025D01*
X13455225Y7327097D01*
X13421368D01*
X13404440Y7344025D01*
Y7377880D01*
X13421368Y7394808D01*
X13488228Y9121943D02*
X13386661D01*
Y9071159D01*
X13403587Y9054231D01*
X13420515D01*
X13437444Y9071159D01*
Y9121943D01*
Y9071159D01*
X13454372Y9054231D01*
X13471300D01*
X13488228Y9071159D01*
Y9121943D01*
X13369733Y9020375D02*
Y8952664D01*
X13386661Y8868025D02*
X13488228D01*
X13437444Y8918808D01*
Y8851097D01*
X7255952Y8833317D02*
X7357519D01*
Y8884100D01*
X7340592Y8901028D01*
X7323664D01*
X7306736Y8884100D01*
Y8833317D01*
Y8884100D01*
X7289808Y8901028D01*
X7272880D01*
X7255952Y8884100D01*
Y8833317D01*
X7374447Y8934884D02*
Y9002595D01*
X7272880Y9036451D02*
X7255952Y9053379D01*
Y9087235D01*
X7272880Y9104163D01*
X7289808D01*
X7306736Y9087235D01*
Y9070307D01*
Y9087235D01*
X7323664Y9104163D01*
X7340592D01*
X7357519Y9087235D01*
Y9053379D01*
X7340592Y9036451D01*
X7276272Y7245817D02*
X7377839D01*
Y7296600D01*
X7360912Y7313528D01*
X7343984D01*
X7327056Y7296600D01*
Y7245817D01*
Y7296600D01*
X7310128Y7313528D01*
X7293200D01*
X7276272Y7296600D01*
Y7245817D01*
X7394767Y7347384D02*
Y7415095D01*
X7377839Y7516663D02*
Y7448951D01*
X7310128Y7516663D01*
X7293200D01*
X7276272Y7499735D01*
Y7465879D01*
X7293200Y7448951D01*
X7255952Y8093325D02*
X7357519D01*
Y8144108D01*
X7340591Y8161036D01*
X7323664D01*
X7306736Y8144108D01*
Y8093325D01*
Y8144108D01*
X7289808Y8161036D01*
X7272880D01*
X7255952Y8144108D01*
Y8093325D01*
X7374447Y8194892D02*
Y8262603D01*
X7357519Y8296459D02*
Y8330315D01*
Y8313387D01*
X7255952D01*
X7272880Y8296459D01*
X12897377Y11488985D02*
X12871985Y11514377D01*
X12821201D01*
X12795810Y11488985D01*
Y11463593D01*
X12821201Y11438201D01*
X12871985D01*
X12897377Y11412810D01*
Y11387418D01*
X12871985Y11362026D01*
X12821201D01*
X12795810Y11387418D01*
X12948160Y11514377D02*
Y11362026D01*
X13024336D01*
X13049728Y11387418D01*
Y11488985D01*
X13024336Y11514377D01*
X12948160D01*
D73*
X12788910Y12344725D02*
X12974371Y12530181D01*
X13866013Y11267623D02*
X14051468Y11453078D01*
X12974371Y12530181D02*
X14051468Y11453078D01*
X13140715Y10546924D02*
X13635690Y11041898D01*
X12907372Y10299436D02*
X12985152Y10377216D01*
X11832570Y11374237D02*
X12907372Y10299436D01*
X12072986Y11614653D02*
X12539675Y12081342D01*
X11832570Y11374237D02*
X11917421Y11459088D01*
X12231937Y8361174D02*
Y8411157D01*
X12256928D01*
X12265259Y8402827D01*
Y8386165D01*
X12256928Y8377835D01*
X12231937D01*
X12248598D02*
X12265259Y8361174D01*
X12281920Y8369504D02*
X12290251Y8361174D01*
X12306912D01*
X12315243Y8369504D01*
Y8402827D01*
X12306912Y8411157D01*
X12290251D01*
X12281920Y8402827D01*
Y8394496D01*
X12290251Y8386165D01*
X12315243D01*
X12331904Y8352843D02*
X12365226D01*
X12381888Y8361174D02*
X12398549D01*
X12390218D01*
Y8411157D01*
X12381888Y8402827D01*
X12423541Y8411157D02*
Y8361174D01*
Y8377835D01*
X12456863Y8411157D01*
X12431872Y8386165D01*
X12456863Y8361174D01*
X8349486Y9044237D02*
X8299503D01*
Y9069229D01*
X8307833Y9077559D01*
X8324494D01*
X8332825Y9069229D01*
Y9044237D01*
Y9060898D02*
X8349486Y9077559D01*
X8307833Y9094221D02*
X8299503Y9102551D01*
Y9119212D01*
X8307833Y9127543D01*
X8316164D01*
X8324494Y9119212D01*
X8332825Y9127543D01*
X8341156D01*
X8349486Y9119212D01*
Y9102551D01*
X8341156Y9094221D01*
X8332825D01*
X8324494Y9102551D01*
X8316164Y9094221D01*
X8307833D01*
X8324494Y9102551D02*
Y9119212D01*
X8357817Y9144204D02*
Y9177527D01*
X8349486Y9194188D02*
Y9210849D01*
Y9202519D01*
X8299503D01*
X8307833Y9194188D01*
X8299503Y9235841D02*
X8349486D01*
X8332825D01*
X8299503Y9269164D01*
X8324494Y9244172D01*
X8349486Y9269164D01*
X12257337Y7522974D02*
Y7572957D01*
X12282328D01*
X12290659Y7564627D01*
Y7547965D01*
X12282328Y7539635D01*
X12257337D01*
X12273998D02*
X12290659Y7522974D01*
X12307320Y7572957D02*
X12340643D01*
Y7564627D01*
X12307320Y7531304D01*
Y7522974D01*
X12357304Y7514643D02*
X12390626D01*
X12407288Y7522974D02*
X12423949D01*
X12415618D01*
Y7572957D01*
X12407288Y7564627D01*
X12448941Y7572957D02*
Y7522974D01*
Y7539635D01*
X12482263Y7572957D01*
X12457272Y7547965D01*
X12482263Y7522974D01*
X8316466Y7372917D02*
X8266482D01*
Y7397908D01*
X8274813Y7406239D01*
X8291474D01*
X8299805Y7397908D01*
Y7372917D01*
Y7389578D02*
X8316466Y7406239D01*
X8266482Y7456223D02*
X8274813Y7439561D01*
X8291474Y7422900D01*
X8308135D01*
X8316466Y7431231D01*
Y7447892D01*
X8308135Y7456223D01*
X8299805D01*
X8291474Y7447892D01*
Y7422900D01*
X8324796Y7472884D02*
Y7506206D01*
X8316466Y7522868D02*
Y7539529D01*
Y7531198D01*
X8266482D01*
X8274813Y7522868D01*
X8266482Y7564521D02*
X8316466D01*
X8299805D01*
X8266482Y7597843D01*
X8291474Y7572852D01*
X8316466Y7597843D01*
X12240037Y9199374D02*
Y9249357D01*
X12265029D01*
X12273359Y9241027D01*
Y9224365D01*
X12265029Y9216035D01*
X12240037D01*
X12256698D02*
X12273359Y9199374D01*
X12323343Y9249357D02*
X12290020D01*
Y9224365D01*
X12306682Y9232696D01*
X12315012D01*
X12323343Y9224365D01*
Y9207704D01*
X12315012Y9199374D01*
X12298351D01*
X12290020Y9207704D01*
X12340004Y9191043D02*
X12373327D01*
X12389988Y9199374D02*
X12406649D01*
X12398318D01*
Y9249357D01*
X12389988Y9241027D01*
X12431641Y9249357D02*
Y9199374D01*
Y9216035D01*
X12464963Y9249357D01*
X12439972Y9224365D01*
X12464963Y9199374D01*
X8633966Y8211117D02*
X8583983D01*
Y8236109D01*
X8592313Y8244439D01*
X8608974D01*
X8617305Y8236109D01*
Y8211117D01*
Y8227778D02*
X8633966Y8244439D01*
Y8286092D02*
X8583983D01*
X8608974Y8261101D01*
Y8294423D01*
X8642297Y8311084D02*
Y8344407D01*
X8633966Y8361068D02*
Y8377729D01*
Y8369399D01*
X8583983D01*
X8592313Y8361068D01*
X8583983Y8402721D02*
X8633966D01*
X8617305D01*
X8583983Y8436044D01*
X8608974Y8411052D01*
X8633966Y8436044D01*
X11961940Y9908594D02*
X11997284Y9873250D01*
X11979612Y9855578D01*
X11967831Y9855578D01*
X11956049Y9867359D01*
Y9879141D01*
X11973722Y9896812D01*
X11961940Y9885031D02*
X11938378Y9885031D01*
X11908925Y9855578D02*
X11944268Y9820234D01*
Y9855578D01*
X11920706Y9832015D01*
X11885362Y9843797D02*
X11861799Y9820234D01*
X11885362Y9773109D02*
X11885362Y9761328D01*
X11873581Y9749547D01*
X11861800Y9749546D01*
X11855909Y9755437D01*
Y9767218D01*
X11861800Y9773109D01*
X11855909Y9767218D01*
X11844127D01*
X11838237Y9773109D01*
Y9784890D01*
X11850018Y9796672D01*
X11861800D01*
X11820565Y9767218D02*
X11826456Y9761328D01*
X11820565Y9755437D01*
X11814674Y9761328D01*
X11820565Y9767218D01*
Y9708312D02*
X11820565Y9696531D01*
X11808784Y9684749D01*
X11797003D01*
X11791112Y9690640D01*
Y9702422D01*
X11797003Y9708312D01*
X11791112Y9702422D01*
X11779331D01*
X11773440Y9708312D01*
Y9720093D01*
X11785221Y9731875D01*
X11797003D01*
X11791112Y9667078D02*
X11755768Y9702422D01*
X11767549Y9690640D01*
Y9643515D01*
Y9678859D01*
X11732206D01*
X10584126Y9907081D02*
X10619470Y9942424D01*
X10637142Y9924752D01*
X10637142Y9912971D01*
X10625361Y9901190D01*
X10613579D01*
X10595907Y9918862D01*
X10607688Y9907081D02*
X10607689Y9883518D01*
X10648923Y9901190D02*
X10660704Y9901190D01*
X10672486Y9889409D01*
Y9877627D01*
X10666595Y9871737D01*
X10654814D01*
X10648923Y9877627D01*
X10654814Y9871737D01*
Y9859955D01*
X10648923Y9854065D01*
X10637142D01*
X10625361Y9865846D01*
Y9877627D01*
X10648923Y9830502D02*
X10672486Y9806940D01*
X10719611Y9830503D02*
X10731392Y9830502D01*
X10743173Y9818721D01*
X10743173Y9806940D01*
X10737283Y9801049D01*
X10725501D01*
X10719611Y9806940D01*
X10725501Y9801049D01*
Y9789268D01*
X10719611Y9783377D01*
X10707829D01*
X10696048Y9795158D01*
Y9806940D01*
X10725501Y9765705D02*
X10731392Y9771596D01*
X10737283Y9765705D01*
X10731392Y9759815D01*
X10725501Y9765705D01*
X10784408D02*
X10796189Y9765705D01*
X10807970Y9753924D01*
Y9742143D01*
X10802080Y9736252D01*
X10790298D01*
X10784408Y9742143D01*
X10790298Y9736252D01*
Y9724471D01*
X10784408Y9718580D01*
X10772626D01*
X10760845Y9730362D01*
Y9742143D01*
X10825642Y9736252D02*
X10790298Y9700908D01*
X10802079Y9712689D01*
X10849205D01*
X10813861D01*
Y9677346D01*
X11535876Y10662589D02*
X11500532Y10697933D01*
X11518205Y10715605D01*
X11529986Y10715605D01*
X11541767Y10703823D01*
Y10692042D01*
X11524095Y10674370D01*
X11535876Y10686151D02*
X11559439Y10686152D01*
X11594783Y10721495D02*
X11571220Y10697933D01*
Y10745058D01*
X11565329Y10750949D01*
X11553548D01*
X11541767Y10739167D01*
X11541767Y10727386D01*
X11612455D02*
X11636017Y10750949D01*
X11612454Y10798074D02*
X11612455Y10809855D01*
X11624236Y10821636D01*
X11636017Y10821636D01*
X11641908Y10815745D01*
Y10803964D01*
X11636017Y10798073D01*
X11641908Y10803964D01*
X11653689D01*
X11659580Y10798074D01*
Y10786292D01*
X11647798Y10774511D01*
X11636017D01*
X11677251Y10803964D02*
X11671361Y10809855D01*
X11677251Y10815745D01*
X11683142Y10809855D01*
X11677251Y10803964D01*
Y10862871D02*
X11677252Y10874652D01*
X11689033Y10886433D01*
X11700814D01*
X11706705Y10880543D01*
Y10868761D01*
X11700814Y10862871D01*
X11706705Y10868761D01*
X11718486D01*
X11724377Y10862871D01*
Y10851089D01*
X11712595Y10839308D01*
X11700814D01*
X11706705Y10904105D02*
X11742048Y10868761D01*
X11730267Y10880542D01*
Y10927668D01*
Y10892324D01*
X11765611D01*
X11888787Y10290169D02*
X11853444Y10325512D01*
X11871116Y10343184D01*
X11882897Y10343185D01*
X11894678Y10331403D01*
Y10319622D01*
X11877006Y10301950D01*
X11888787Y10313731D02*
X11912350Y10313731D01*
X11924131Y10325512D02*
X11935912Y10337294D01*
X11930022Y10331403D01*
X11894678Y10366747D01*
X11894678Y10354966D01*
X11959475Y10349075D02*
X11983038Y10372638D01*
X11959475Y10419763D02*
X11959475Y10431544D01*
X11971256Y10443325D01*
X11983038Y10443325D01*
X11988928Y10437435D01*
Y10425653D01*
X11983038Y10419762D01*
X11988928Y10425653D01*
X12000710D01*
X12006600Y10419763D01*
Y10407981D01*
X11994819Y10396200D01*
X11983038D01*
X12024272Y10425653D02*
X12018381Y10431544D01*
X12024272Y10437435D01*
X12030163Y10431544D01*
X12024272Y10425653D01*
Y10484560D02*
X12024272Y10496341D01*
X12036053Y10508122D01*
X12047835D01*
X12053725Y10502232D01*
Y10490450D01*
X12047835Y10484560D01*
X12053725Y10490450D01*
X12065507D01*
X12071397Y10484560D01*
Y10472778D01*
X12059616Y10460997D01*
X12047835D01*
X12053725Y10525794D02*
X12089069Y10490450D01*
X12077288Y10502231D01*
Y10549357D01*
Y10514013D01*
X12112632D01*
X10008314Y7535673D02*
X10016645Y7527343D01*
X10033306D01*
X10041637Y7535673D01*
Y7544004D01*
X10033306Y7552335D01*
X10016645D01*
X10008314Y7560665D01*
Y7568996D01*
X10016645Y7577326D01*
X10033306D01*
X10041637Y7568996D01*
X9991653Y7585657D02*
X9958330D01*
X9941669Y7577326D02*
Y7527343D01*
X9916677D01*
X9908347Y7535673D01*
Y7552335D01*
X9916677Y7560665D01*
X9941669D01*
X9925008D02*
X9908347Y7577326D01*
X9858363Y7535673D02*
X9866694Y7527343D01*
X9883355D01*
X9891686Y7535673D01*
Y7544004D01*
X9883355Y7552335D01*
X9866694D01*
X9858363Y7560665D01*
Y7568996D01*
X9866694Y7577326D01*
X9883355D01*
X9891686Y7568996D01*
X10914486Y8009127D02*
X10906155Y8017457D01*
X10889494D01*
X10881163Y8009127D01*
Y8000796D01*
X10889494Y7992465D01*
X10906155D01*
X10914486Y7984135D01*
Y7975804D01*
X10906155Y7967474D01*
X10889494D01*
X10881163Y7975804D01*
X10931147Y7959143D02*
X10964470D01*
X11014453Y8017457D02*
X10981131D01*
Y7967474D01*
X11014453D01*
X10981131Y7992465D02*
X10997792D01*
X11031114Y7967474D02*
Y8017457D01*
X11064437Y7967474D01*
Y8017457D01*
X11679426Y5534463D02*
X11629443D01*
Y5559455D01*
X11637773Y5567786D01*
X11654435D01*
X11662765Y5559455D01*
Y5534463D01*
Y5551125D02*
X11679426Y5567786D01*
X11687757Y5584447D02*
Y5617770D01*
X11679426Y5659423D02*
Y5642761D01*
X11671096Y5634431D01*
X11654435D01*
X11646104Y5642761D01*
Y5659423D01*
X11654435Y5667753D01*
X11662765D01*
Y5634431D01*
X11679426Y5684414D02*
X11646104D01*
Y5709406D01*
X11654435Y5717737D01*
X11679426D01*
X10043338Y10462668D02*
Y10512652D01*
X10068330D01*
X10076660Y10504321D01*
Y10487660D01*
X10068330Y10479329D01*
X10043338D01*
X10059999D02*
X10076660Y10462668D01*
X10093321D02*
X10109983D01*
X10101652D01*
Y10512652D01*
X10093321Y10504321D01*
D95*
X8265700Y7015480D02*
G03*
X8265700Y7015480I-12500J0D01*
G01*
X8966000Y5794480D02*
G03*
X8966000Y5794480I-12500J0D01*
G01*
X9181980Y5742280D02*
G03*
X9181980Y5742280I-12500J0D01*
G01*
X12236858Y11017766D02*
G03*
X12236858Y11017766I-12500J0D01*
G01*
D96*
X11539718Y9986707D02*
G03*
X11496613Y9943602I-21553J-21553D01*
G01*
X11539718Y9986706D02*
X11678016Y10125004D01*
X11496614Y9943602D02*
X11539718Y9986706D01*
X11358316Y9805304D02*
X11496614Y9943602D01*
X10999104Y10164516D02*
X11318804Y10484216D01*
D97*
X10872060Y11275904D02*
X10867828Y11280136D01*
X10859364D01*
X10855132Y11275904D01*
Y11258976D01*
X10859364Y11254744D01*
X10867828D01*
X10872060Y11258976D01*
X10880524Y11267440D02*
X10897452D01*
X10905916Y11280136D02*
Y11258976D01*
X10910148Y11254744D01*
X10918612D01*
X10922844Y11258976D01*
Y11280136D01*
X10948236Y11275904D02*
X10944004Y11280136D01*
X10935540D01*
X10931308Y11275904D01*
Y11271672D01*
X10935540Y11267440D01*
X10944004D01*
X10948236Y11263208D01*
Y11258976D01*
X10944004Y11254744D01*
X10935540D01*
X10931308Y11258976D01*
X10956700Y11280136D02*
Y11254744D01*
X10969396D01*
X10973628Y11258976D01*
Y11263208D01*
X10969396Y11267440D01*
X10956700D01*
X10969396D01*
X10973628Y11271672D01*
Y11275904D01*
X10969396Y11280136D01*
X10956700D01*
X8314717Y7177620D02*
Y7203012D01*
X8327413D01*
X8331645Y7198780D01*
Y7190316D01*
X8327413Y7186084D01*
X8314717D01*
X8340109Y7177620D02*
X8348573D01*
X8344340D01*
Y7194548D01*
X8340109D01*
X8361268Y7177620D02*
Y7194548D01*
X8373964D01*
X8378196Y7190316D01*
Y7177620D01*
X8386660Y7173388D02*
X8403588D01*
X8428980Y7198780D02*
X8424748Y7203012D01*
X8416284D01*
X8412052Y7198780D01*
Y7181852D01*
X8416284Y7177620D01*
X8424748D01*
X8428980Y7181852D01*
Y7190316D01*
X8420516D01*
X8437444Y7177620D02*
Y7203012D01*
X8454372Y7177620D01*
Y7203012D01*
X8462836D02*
Y7177620D01*
X8475532D01*
X8479764Y7181852D01*
Y7198780D01*
X8475532Y7203012D01*
X8462836D01*
X11069640Y10319986D02*
X11088160Y10301466D01*
X11100507D01*
X11119027Y10319986D01*
X11094333Y10344680D01*
X11125200Y10387894D02*
X11112853D01*
X11100507Y10375547D01*
Y10363200D01*
X11106680Y10357027D01*
X11119027D01*
X11131373Y10369373D01*
X11143720D01*
X11149894Y10363200D01*
Y10350853D01*
X11137547Y10338507D01*
X11125200D01*
X11131373Y10406414D02*
X11168414Y10369373D01*
X11186934Y10387894D01*
Y10400240D01*
X11162240Y10424934D01*
X11149894D01*
X11131373Y10406414D01*
X9080353Y5676647D02*
Y5701639D01*
X9092849D01*
X9097014Y5697473D01*
Y5689143D01*
X9092849Y5684977D01*
X9080353D01*
X9105345Y5676647D02*
X9113675D01*
X9109510D01*
Y5693308D01*
X9105345D01*
X9126171Y5676647D02*
Y5693308D01*
X9138667D01*
X9142832Y5689143D01*
Y5676647D01*
X9151163Y5672481D02*
X9167824D01*
X9176155Y5701639D02*
X9192816D01*
X9184485D01*
Y5676647D01*
X9201146Y5693308D02*
X9217808Y5676647D01*
X9209477Y5684977D01*
X9217808Y5693308D01*
X9201146Y5676647D01*
X8861913Y6161787D02*
Y6186779D01*
X8874409D01*
X8878574Y6182613D01*
Y6174283D01*
X8874409Y6170117D01*
X8861913D01*
X8886905Y6161787D02*
X8895235D01*
X8891070D01*
Y6178448D01*
X8886905D01*
X8907731Y6161787D02*
Y6178448D01*
X8920227D01*
X8924392Y6174283D01*
Y6161787D01*
X8932723Y6157621D02*
X8949384D01*
X8957715Y6161787D02*
Y6186779D01*
X8970211D01*
X8974376Y6182613D01*
Y6174283D01*
X8970211Y6170117D01*
X8957715D01*
X8966045D02*
X8974376Y6161787D01*
X8982706Y6178448D02*
X8999368Y6161787D01*
X8991037Y6170117D01*
X8999368Y6178448D01*
X8982706Y6161787D01*
D98*
X12469743Y6717395D02*
X12407344Y6761087D01*
X12429190Y6792287D01*
X12446872Y6795405D01*
X12467672Y6780841D01*
X12470790Y6763159D01*
X12448943Y6731959D01*
X12463507Y6752759D02*
X12498871Y6758994D01*
X12490565Y6857804D02*
X12472883Y6854686D01*
X12458318Y6833887D01*
X12461436Y6816205D01*
X12503036Y6787076D01*
X12520718Y6790194D01*
X12535282Y6810994D01*
X12532164Y6828676D01*
X12511364Y6843240D01*
X12496800Y6822440D01*
X12494729Y6885886D02*
X12557128Y6842193D01*
X12578974Y6873393D01*
X12575856Y6891075D01*
X12565456Y6898357D01*
X12547774Y6895239D01*
X12525928Y6864040D01*
X12547774Y6895239D01*
X12544657Y6912921D01*
X12534257Y6920203D01*
X12516575Y6917085D01*
X12494729Y6885886D01*
D99*
X9249422Y11823047D02*
Y11756402D01*
X9262751Y11743073D01*
X9289409D01*
X9302738Y11756402D01*
Y11823047D01*
%TF.MD5,632d92859fbf21837a6fdd6ff2cb781c*%
M02*
