%TF.GenerationSoftware,Altium Limited,Altium Designer,22.2.1 (43)*%
G04 Layer_Color=0*
%FSLAX45Y45*%
%MOMM*%
%TF.SameCoordinates,E85C5352-B1E5-4D08-830E-0896481A3A09*%
%TF.FilePolarity,Positive*%
%TF.FileFunction,Profile,NP*%
%TF.Part,Single*%
G01*
G75*
%TA.AperFunction,Profile*%
%ADD117C,0.02540*%
D117*
X7050336Y6909549D02*
G02*
X7049102Y9452787I3851531J1273488D01*
G01*
D02*
G02*
X7052236Y9457850I12098J-3987D01*
G01*
X7052193Y9457807D01*
X7505662Y9911276D01*
Y10256324D01*
X6607693Y11154293D01*
D02*
G02*
X6605658Y11169650I9007J9007D01*
G01*
D02*
G02*
X6603962Y11176000I11042J6350D01*
G01*
Y11506200D01*
D02*
G02*
X6607736Y11515250I12738J0D01*
G01*
X6607693Y11515207D01*
X7750660Y12658175D01*
D02*
G02*
X7766006Y12660217I9007J-9007D01*
G01*
D02*
G02*
X7772400Y12661938I6394J-11017D01*
G01*
X8178800D01*
D02*
G02*
X8187850Y12658164I0J-12738D01*
G01*
X8187807Y12658207D01*
X9055100Y11790914D01*
X9287393Y12023207D01*
X9287350Y12023164D01*
D02*
G02*
X9296400Y12026938I9050J-8964D01*
G01*
X11506200D01*
D02*
G02*
X11515250Y12023164I0J-12738D01*
G01*
X11515207Y12023207D01*
X11791950Y11746464D01*
X12690993Y12645507D01*
X12690950Y12645464D01*
D02*
G02*
X12700000Y12649238I9050J-8964D01*
G01*
X13093700D01*
D02*
G02*
X13102750Y12645464I0J-12738D01*
G01*
X13102707Y12645507D01*
X14245708Y11502507D01*
X14245663Y11502550D01*
D02*
G02*
X14249438Y11493500I-8964J-9050D01*
G01*
Y11163300D01*
D02*
G02*
X14245663Y11154250I-12738J0D01*
G01*
X14245708Y11154293D01*
X13347739Y10256324D01*
Y9911276D01*
X13801222Y9457792D01*
X13801180Y9457835D01*
D02*
G02*
X13804454Y9452317I-8964J-9050D01*
G01*
D02*
G02*
X13982756Y8191485I-4368726J-1260832D01*
G01*
D02*
G02*
X13804454Y6930653I-4547028J0D01*
G01*
D02*
G02*
X13797018Y6922387I-12238J3532D01*
G01*
X13068314Y6193683D01*
X13068333Y6193701D01*
D02*
G03*
X13068356Y6193725I-9026J8988D01*
G01*
X13068333Y6193701D01*
D02*
G02*
X7778770Y6182644I-2650310J2639253D01*
G01*
Y6182644D01*
D02*
G02*
X7778759Y6182654I8988J9026D01*
G01*
X7058660Y6901381D01*
D02*
G02*
X7050336Y6909549I3770J12167D01*
G01*
%TF.MD5,57aa88faf8107aa6a697654e98f22b47*%
M02*
