%TF.GenerationSoftware,Altium Limited,Altium Designer,20.0.13 (296)*%
G04 Layer_Color=16711935*
%FSLAX45Y45*%
%MOMM*%
%TF.FileFunction,Other,Mechanical_13*%
%TF.Part,Single*%
G01*
G75*
%TA.AperFunction,NonConductor*%
%ADD25C,0.20000*%
%ADD28C,0.12700*%
%ADD36C,0.10160*%
G36*
X15336713Y12093190D02*
X15286510D01*
Y12188298D01*
X15336713D01*
Y12093190D01*
D02*
G37*
G36*
X15219621D02*
X15169670D01*
Y12188274D01*
X15219621D01*
Y12093190D01*
D02*
G37*
G36*
X15336713Y11928090D02*
X15286510D01*
Y12023198D01*
X15336713D01*
Y11928090D01*
D02*
G37*
G36*
X15219621D02*
X15169670D01*
Y12023174D01*
X15219621D01*
Y11928090D01*
D02*
G37*
G36*
X15044614Y9159490D02*
X14994411D01*
Y9254598D01*
X15044614D01*
Y9159490D01*
D02*
G37*
G36*
X14927521D02*
X14877570D01*
Y9254574D01*
X14927521D01*
Y9159490D01*
D02*
G37*
G36*
X14333414D02*
X14283211D01*
Y9254598D01*
X14333414D01*
Y9159490D01*
D02*
G37*
G36*
X14216321D02*
X14166370D01*
Y9254574D01*
X14216321D01*
Y9159490D01*
D02*
G37*
G36*
X15044614Y8079990D02*
X14994411D01*
Y8175098D01*
X15044614D01*
Y8079990D01*
D02*
G37*
G36*
X14927521D02*
X14877570D01*
Y8175074D01*
X14927521D01*
Y8079990D01*
D02*
G37*
G36*
X14333414D02*
X14283211D01*
Y8175098D01*
X14333414D01*
Y8079990D01*
D02*
G37*
G36*
X14216321D02*
X14166370D01*
Y8175074D01*
X14216321D01*
Y8079990D01*
D02*
G37*
D25*
X14297501Y11963400D02*
G03*
X14297501Y11963400I-10000J0D01*
G01*
X14246700Y7137400D02*
G03*
X14246700Y7137400I-10000J0D01*
G01*
X14278297Y11226800D02*
G03*
X14278297Y11226800I-10000J0D01*
G01*
D28*
X14830400Y11454399D02*
Y11964401D01*
X14430400Y11454399D02*
Y11964401D01*
Y11454399D02*
X14830400D01*
X14430400Y11964401D02*
X14830400D01*
X15162698Y11822902D02*
X15342702D01*
X15162698Y11722903D02*
X15342702D01*
Y11822902D01*
X15162698Y11722903D02*
Y11822902D01*
Y11619702D02*
X15342702D01*
X15162698Y11519703D02*
X15342702D01*
Y11619702D01*
X15162698Y11519703D02*
Y11619702D01*
X14072403Y11606698D02*
Y11786702D01*
X14172401Y11606698D02*
Y11786702D01*
X14072403D02*
X14172401D01*
X14072403Y11606698D02*
X14172401D01*
X14096198Y6933098D02*
Y7113102D01*
X13996198Y6933098D02*
Y7113102D01*
Y6933098D02*
X14096198D01*
X13996198Y7113102D02*
X14096198D01*
X14779605Y6628399D02*
Y7138401D01*
X14379605Y6628399D02*
Y7138401D01*
Y6628399D02*
X14779605D01*
X14379605Y7138401D02*
X14779605D01*
X15124599Y7111202D02*
X15304602D01*
X15124599Y7011203D02*
X15304602D01*
Y7111202D01*
X15124599Y7011203D02*
Y7111202D01*
Y6869902D02*
X15304602D01*
X15124599Y6769903D02*
X15304602D01*
Y6869902D01*
X15124599Y6769903D02*
Y6869902D01*
X13996204Y10702199D02*
Y10882203D01*
X14096202Y10702199D02*
Y10882203D01*
X13996204D02*
X14096202D01*
X13996204Y10702199D02*
X14096202D01*
X15137299Y10832302D02*
X15317302D01*
X15137299Y10732303D02*
X15317302D01*
Y10832302D01*
X15137299Y10732303D02*
Y10832302D01*
X15124599Y11099002D02*
X15304602D01*
X15124599Y10999003D02*
X15304602D01*
Y11099002D01*
X15124599Y10999003D02*
Y11099002D01*
X14811197Y10717799D02*
Y11227801D01*
X14411198Y10717799D02*
Y11227801D01*
Y10717799D02*
X14811197D01*
X14411198Y11227801D02*
X14811197D01*
D36*
X15217099Y11932900D02*
X15288301D01*
X15217099Y12018000D02*
X15288301D01*
X15217099Y12098000D02*
X15288301D01*
X15217099Y12183100D02*
X15288301D01*
X14924998Y9164300D02*
X14996201D01*
X14924998Y9249400D02*
X14996201D01*
X14924998Y8084800D02*
X14996201D01*
X14924998Y8169900D02*
X14996201D01*
X14213799Y9164300D02*
X14285001D01*
X14213799Y9249400D02*
X14285001D01*
X14213799Y8084800D02*
X14285001D01*
X14213799Y8169900D02*
X14285001D01*
%TF.MD5,5023c183cfa44a2a87861172ed77a6dc*%
M02*
