%TF.GenerationSoftware,Altium Limited,Altium Designer,20.0.13 (296)*%
G04 Layer_Color=8388736*
%FSLAX45Y45*%
%MOMM*%
%TF.FileFunction,Soldermask,Top*%
%TF.Part,Single*%
G01*
G75*
%TA.AperFunction,ComponentPad*%
%ADD20R,1.70320X1.70320*%
%ADD21R,1.70320X1.70320*%
%TA.AperFunction,ViaPad*%
%ADD22C,2.70320*%
%ADD23C,1.47320*%
%TA.AperFunction,SMDPad,CuDef*%
%ADD31R,1.30320X1.20320*%
%ADD32R,2.61620X3.50520*%
G04:AMPARAMS|DCode=33|XSize=2.1732mm|YSize=0.8032mm|CornerRadius=0.1766mm|HoleSize=0mm|Usage=FLASHONLY|Rotation=0.000|XOffset=0mm|YOffset=0mm|HoleType=Round|Shape=RoundedRectangle|*
%AMROUNDEDRECTD33*
21,1,2.17320,0.45000,0,0,0.0*
21,1,1.82000,0.80320,0,0,0.0*
1,1,0.35320,0.91000,-0.22500*
1,1,0.35320,-0.91000,-0.22500*
1,1,0.35320,-0.91000,0.22500*
1,1,0.35320,0.91000,0.22500*
%
%ADD33ROUNDEDRECTD33*%
G04:AMPARAMS|DCode=34|XSize=1.1432mm|YSize=1.2232mm|CornerRadius=0.1956mm|HoleSize=0mm|Usage=FLASHONLY|Rotation=0.000|XOffset=0mm|YOffset=0mm|HoleType=Round|Shape=RoundedRectangle|*
%AMROUNDEDRECTD34*
21,1,1.14320,0.83200,0,0,0.0*
21,1,0.75200,1.22320,0,0,0.0*
1,1,0.39120,0.37600,-0.41600*
1,1,0.39120,-0.37600,-0.41600*
1,1,0.39120,-0.37600,0.41600*
1,1,0.39120,0.37600,0.41600*
%
%ADD34ROUNDEDRECTD34*%
G04:AMPARAMS|DCode=35|XSize=1.1432mm|YSize=1.2232mm|CornerRadius=0.1956mm|HoleSize=0mm|Usage=FLASHONLY|Rotation=90.000|XOffset=0mm|YOffset=0mm|HoleType=Round|Shape=RoundedRectangle|*
%AMROUNDEDRECTD35*
21,1,1.14320,0.83200,0,0,90.0*
21,1,0.75200,1.22320,0,0,90.0*
1,1,0.39120,0.41600,0.37600*
1,1,0.39120,0.41600,-0.37600*
1,1,0.39120,-0.41600,-0.37600*
1,1,0.39120,-0.41600,0.37600*
%
%ADD35ROUNDEDRECTD35*%
D20*
X14833600Y12458700D02*
D03*
X14274800Y12446000D02*
D03*
X15608299Y11264900D02*
D03*
X15595599Y10769600D02*
D03*
D21*
X13652499Y10922000D02*
D03*
Y5400878D02*
D03*
Y11925300D02*
D03*
Y6400876D02*
D03*
D22*
X15557500Y12433300D02*
D03*
X15544800Y4610100D02*
D03*
X13677901D02*
D03*
X13589000Y12433300D02*
D03*
X13614400Y8705200D02*
D03*
X15608299Y8674100D02*
D03*
D23*
X15481300Y10541000D02*
D03*
X14605000Y10553700D02*
D03*
X13970000Y11480800D02*
D03*
Y11163300D02*
D03*
D31*
X15337698Y11976100D02*
D03*
X15167702D02*
D03*
X15337698Y12141200D02*
D03*
X15167702D02*
D03*
X15045599Y9207500D02*
D03*
X14875601D02*
D03*
X15045599Y8128000D02*
D03*
X14875601D02*
D03*
X14334399Y9207500D02*
D03*
X14164401D02*
D03*
X14334399Y8128000D02*
D03*
X14164401D02*
D03*
D32*
X14630400Y11709400D02*
D03*
X14579605Y6883400D02*
D03*
X14611198Y10972800D02*
D03*
D33*
X14877898Y11899900D02*
D03*
Y11772900D02*
D03*
Y11645900D02*
D03*
Y11518900D02*
D03*
X14382903D02*
D03*
Y11645900D02*
D03*
Y11772900D02*
D03*
Y11899900D02*
D03*
X14827103Y7073900D02*
D03*
Y6946900D02*
D03*
Y6819900D02*
D03*
Y6692900D02*
D03*
X14332108D02*
D03*
Y6819900D02*
D03*
Y6946900D02*
D03*
Y7073900D02*
D03*
X14858694Y11163300D02*
D03*
Y11036300D02*
D03*
Y10909300D02*
D03*
Y10782300D02*
D03*
X14363699D02*
D03*
Y10909300D02*
D03*
Y11036300D02*
D03*
Y11163300D02*
D03*
D34*
X15173701Y11772900D02*
D03*
X15331699D02*
D03*
X15173701Y11569700D02*
D03*
X15331699D02*
D03*
X15135600Y7061200D02*
D03*
X15293599D02*
D03*
X15135600Y6819900D02*
D03*
X15293599D02*
D03*
X15148302Y10782300D02*
D03*
X15306299D02*
D03*
X15135600Y11049000D02*
D03*
X15293599D02*
D03*
D35*
X14122400Y11617701D02*
D03*
Y11775699D02*
D03*
X14046201Y7102099D02*
D03*
Y6944101D02*
D03*
Y10713202D02*
D03*
Y10871200D02*
D03*
%TF.MD5,3ec65b5c09f66d3c1715fa6fc71ab782*%
M02*
