%TF.GenerationSoftware,Altium Limited,Altium Designer,20.0.13 (296)*%
G04 Layer_Color=32768*
%FSLAX45Y45*%
%MOMM*%
%TF.FileFunction,Other,Mechanical_15*%
%TF.Part,Single*%
G01*
G75*
%TA.AperFunction,NonConductor*%
%ADD37C,0.05000*%
D37*
X15001402Y11429401D02*
Y11989399D01*
X14259402Y11429401D02*
Y11989399D01*
Y11429401D02*
X15001402D01*
X14259402Y11989399D02*
X15001402D01*
X15101701Y11848902D02*
X15403699D01*
Y11696898D02*
Y11848902D01*
X15101701Y11696898D02*
X15403699D01*
X15101701D02*
Y11848902D01*
Y11645702D02*
X15403699D01*
Y11493698D02*
Y11645702D01*
X15101701Y11493698D02*
X15403699D01*
X15101701D02*
Y11645702D01*
X14046397Y11545702D02*
Y11847698D01*
X14198402D01*
Y11545702D02*
Y11847698D01*
X14046397Y11545702D02*
X14198402D01*
X14122202Y6872102D02*
Y7174098D01*
X13970198Y6872102D02*
X14122202D01*
X13970198D02*
Y7174098D01*
X14122202D01*
X14950607Y6603401D02*
Y7163399D01*
X14208607Y6603401D02*
Y7163399D01*
Y6603401D02*
X14950607D01*
X14208607Y7163399D02*
X14950607D01*
X15063602Y7137202D02*
X15365598D01*
Y6985198D02*
Y7137202D01*
X15063602Y6985198D02*
X15365598D01*
X15063602D02*
Y7137202D01*
Y6895902D02*
X15365598D01*
Y6743898D02*
Y6895902D01*
X15063602Y6743898D02*
X15365598D01*
X15063602D02*
Y6895902D01*
X13970198Y10641203D02*
Y10943199D01*
X14122202D01*
Y10641203D02*
Y10943199D01*
X13970198Y10641203D02*
X14122202D01*
X15076302Y10858302D02*
X15378297D01*
Y10706298D02*
Y10858302D01*
X15076302Y10706298D02*
X15378297D01*
X15076302D02*
Y10858302D01*
X15063602Y11125002D02*
X15365598D01*
Y10972998D02*
Y11125002D01*
X15063602Y10972998D02*
X15365598D01*
X15063602D02*
Y11125002D01*
X14982201Y10692801D02*
Y11252799D01*
X14240199Y10692801D02*
Y11252799D01*
Y10692801D02*
X14982201D01*
X14240199Y11252799D02*
X14982201D01*
%TF.MD5,51d9e68038e9d27a602945ded4d00ac7*%
M02*
