%TF.GenerationSoftware,Altium Limited,Altium Designer,22.2.1 (43)*%
G04 Layer_Color=8388736*
%FSLAX45Y45*%
%MOMM*%
%TF.SameCoordinates,68419969-02EB-4E78-BB40-8B94D9E39CA8*%
%TF.FilePolarity,Negative*%
%TF.FileFunction,Soldermask,Top*%
%TF.Part,Single*%
G01*
G75*
%TA.AperFunction,ComponentPad*%
%ADD20R,1.70320X1.70320*%
%ADD21R,1.70320X1.70320*%
%TA.AperFunction,ViaPad*%
%ADD22C,1.47320*%
%ADD23C,2.70320*%
%TA.AperFunction,SMDPad,CuDef*%
%ADD31R,1.30320X1.20320*%
%ADD32R,2.61620X3.50520*%
G04:AMPARAMS|DCode=33|XSize=2.1732mm|YSize=0.8032mm|CornerRadius=0.1766mm|HoleSize=0mm|Usage=FLASHONLY|Rotation=0.000|XOffset=0mm|YOffset=0mm|HoleType=Round|Shape=RoundedRectangle|*
%AMROUNDEDRECTD33*
21,1,2.17320,0.45000,0,0,0.0*
21,1,1.82000,0.80320,0,0,0.0*
1,1,0.35320,0.91000,-0.22500*
1,1,0.35320,-0.91000,-0.22500*
1,1,0.35320,-0.91000,0.22500*
1,1,0.35320,0.91000,0.22500*
%
%ADD33ROUNDEDRECTD33*%
G04:AMPARAMS|DCode=34|XSize=1.1432mm|YSize=1.2232mm|CornerRadius=0.1956mm|HoleSize=0mm|Usage=FLASHONLY|Rotation=0.000|XOffset=0mm|YOffset=0mm|HoleType=Round|Shape=RoundedRectangle|*
%AMROUNDEDRECTD34*
21,1,1.14320,0.83200,0,0,0.0*
21,1,0.75200,1.22320,0,0,0.0*
1,1,0.39120,0.37600,-0.41600*
1,1,0.39120,-0.37600,-0.41600*
1,1,0.39120,-0.37600,0.41600*
1,1,0.39120,0.37600,0.41600*
%
%ADD34ROUNDEDRECTD34*%
G04:AMPARAMS|DCode=35|XSize=1.1432mm|YSize=1.2232mm|CornerRadius=0.1956mm|HoleSize=0mm|Usage=FLASHONLY|Rotation=90.000|XOffset=0mm|YOffset=0mm|HoleType=Round|Shape=RoundedRectangle|*
%AMROUNDEDRECTD35*
21,1,1.14320,0.83200,0,0,90.0*
21,1,0.75200,1.22320,0,0,90.0*
1,1,0.39120,0.41600,0.37600*
1,1,0.39120,0.41600,-0.37600*
1,1,0.39120,-0.41600,-0.37600*
1,1,0.39120,-0.41600,0.37600*
%
%ADD35ROUNDEDRECTD35*%
D20*
X14833600Y12458700D02*
D03*
X14274800Y12446000D02*
D03*
X15659100Y11125200D02*
D03*
Y10706100D02*
D03*
D21*
X13652499Y10922000D02*
D03*
Y3432378D02*
D03*
Y11925300D02*
D03*
Y4432376D02*
D03*
D22*
X15135860Y6879499D02*
D03*
X14521181Y10053320D02*
D03*
D23*
X15621001Y2000001D02*
D03*
X13589000D02*
D03*
X15621001Y12433300D02*
D03*
X13589000D02*
D03*
Y7500000D02*
D03*
X15621001D02*
D03*
D31*
X15337698Y11976100D02*
D03*
X15167702D02*
D03*
X15337698Y12141200D02*
D03*
X15167702D02*
D03*
X15032899Y6383401D02*
D03*
X14862901D02*
D03*
X15020200Y5634101D02*
D03*
X14850201D02*
D03*
X14448698Y6370701D02*
D03*
X14278700D02*
D03*
X14435999Y5621401D02*
D03*
X14266000D02*
D03*
D32*
X14630400Y11709400D02*
D03*
X14539107Y3881653D02*
D03*
X14617700Y10401300D02*
D03*
D33*
X14877898Y11899900D02*
D03*
Y11772900D02*
D03*
Y11645900D02*
D03*
Y11518900D02*
D03*
X14382903D02*
D03*
Y11645900D02*
D03*
Y11772900D02*
D03*
Y11899900D02*
D03*
X14786604Y4072153D02*
D03*
Y3945153D02*
D03*
Y3818153D02*
D03*
Y3691153D02*
D03*
X14291611D02*
D03*
Y3818153D02*
D03*
Y3945153D02*
D03*
Y4072153D02*
D03*
X14865198Y10591800D02*
D03*
Y10464800D02*
D03*
Y10337800D02*
D03*
Y10210800D02*
D03*
X14370203D02*
D03*
Y10337800D02*
D03*
Y10464800D02*
D03*
Y10591800D02*
D03*
D34*
X15173701Y11772900D02*
D03*
X15331699D02*
D03*
X15173701Y11569700D02*
D03*
X15331699D02*
D03*
X15148302Y3945001D02*
D03*
X15306299D02*
D03*
X15148302Y3741801D02*
D03*
X15306299D02*
D03*
X15161002Y10350500D02*
D03*
X15318999D02*
D03*
X15161002Y10541000D02*
D03*
X15318999D02*
D03*
D35*
X14122400Y11617701D02*
D03*
Y11775699D02*
D03*
X14020799Y3789802D02*
D03*
Y3947800D02*
D03*
X14058900Y10309601D02*
D03*
Y10467599D02*
D03*
%TF.MD5,c1718c3bdbc9abbbc62767cdf5f61619*%
M02*
