%TF.GenerationSoftware,Altium Limited,Altium Designer,20.0.13 (296)*%
G04 Layer_Color=16711935*
%FSLAX45Y45*%
%MOMM*%
%TF.FileFunction,Soldermask,Bot*%
%TF.Part,Single*%
G01*
G75*
%TA.AperFunction,SMDPad,CuDef*%
G04:AMPARAMS|DCode=68|XSize=1.0632mm|YSize=0.3532mm|CornerRadius=0.1391mm|HoleSize=0mm|Usage=FLASHONLY|Rotation=180.000|XOffset=0mm|YOffset=0mm|HoleType=Round|Shape=RoundedRectangle|*
%AMROUNDEDRECTD68*
21,1,1.06320,0.07500,0,0,180.0*
21,1,0.78500,0.35320,0,0,180.0*
1,1,0.27820,-0.39250,0.03750*
1,1,0.27820,0.39250,0.03750*
1,1,0.27820,0.39250,-0.03750*
1,1,0.27820,-0.39250,-0.03750*
%
%ADD68ROUNDEDRECTD68*%
G04:AMPARAMS|DCode=69|XSize=1.0632mm|YSize=0.3532mm|CornerRadius=0.1391mm|HoleSize=0mm|Usage=FLASHONLY|Rotation=270.000|XOffset=0mm|YOffset=0mm|HoleType=Round|Shape=RoundedRectangle|*
%AMROUNDEDRECTD69*
21,1,1.06320,0.07500,0,0,270.0*
21,1,0.78500,0.35320,0,0,270.0*
1,1,0.27820,-0.03750,-0.39250*
1,1,0.27820,-0.03750,0.39250*
1,1,0.27820,0.03750,0.39250*
1,1,0.27820,0.03750,-0.39250*
%
%ADD69ROUNDEDRECTD69*%
%ADD70R,1.30320X1.30320*%
%ADD71R,1.36320X1.67320*%
%ADD72R,1.34320X1.67320*%
%ADD73R,1.67320X1.36320*%
%TA.AperFunction,ViaPad*%
%ADD74C,1.72720*%
%TA.AperFunction,ComponentPad*%
G04:AMPARAMS|DCode=75|XSize=1.8032mm|YSize=0.8032mm|CornerRadius=0mm|HoleSize=0mm|Usage=FLASHONLY|Rotation=135.000|XOffset=0mm|YOffset=0mm|HoleType=Round|Shape=Rectangle|*
%AMROTATEDRECTD75*
4,1,4,0.92150,-0.35356,0.35356,-0.92150,-0.92150,0.35356,-0.35356,0.92150,0.92150,-0.35356,0.0*
%
%ADD75ROTATEDRECTD75*%

%ADD76R,1.71120X1.71120*%
%ADD77C,1.71120*%
%TA.AperFunction,SMDPad,CuDef*%
%ADD78R,2.20320X1.10320*%
%TA.AperFunction,ComponentPad*%
%ADD79R,1.70320X1.70320*%
%ADD80O,1.25320X2.30320*%
%TA.AperFunction,SMDPad,CuDef*%
%ADD81R,1.17320X1.93320*%
%TA.AperFunction,ComponentPad*%
%ADD82R,1.70320X1.70320*%
%ADD83R,1.70320X1.45320*%
%ADD84C,2.30320*%
%ADD85P,3.25722X4X185.0*%
%TA.AperFunction,ViaPad*%
%ADD86C,1.20320*%
%ADD87C,1.47320*%
%ADD88C,1.20320*%
%ADD89C,0.70320*%
D68*
X10684500Y8916600D02*
D03*
Y8966600D02*
D03*
Y9016600D02*
D03*
Y9066600D02*
D03*
X10397500D02*
D03*
Y9016600D02*
D03*
Y8966600D02*
D03*
Y8916600D02*
D03*
D69*
X10616000Y9135100D02*
D03*
X10566000D02*
D03*
X10516000D02*
D03*
X10466000D02*
D03*
X10516000Y8848100D02*
D03*
X10566000D02*
D03*
X10616000D02*
D03*
D70*
X10541000Y8991600D02*
D03*
D71*
X11347820Y9169400D02*
D03*
X11171820D02*
D03*
X10527400Y8026400D02*
D03*
X10351400D02*
D03*
X10527400Y8280400D02*
D03*
X10351400D02*
D03*
D72*
X10248800Y9423400D02*
D03*
X10426800Y9423400D02*
D03*
X10807800D02*
D03*
X10629800Y9423400D02*
D03*
D73*
X10414000Y9968600D02*
D03*
Y9792600D02*
D03*
D74*
X11574780Y11650980D02*
D03*
D75*
X8320138Y10679798D02*
D03*
X8409940Y10769600D02*
D03*
X8499742Y10859403D02*
D03*
X8589545Y10949205D02*
D03*
X8679348Y11039008D02*
D03*
X8769150Y11128810D02*
D03*
X8230321Y10589981D02*
D03*
X8142328Y10501988D02*
D03*
D76*
X13081000Y9067800D02*
D03*
X13084081Y8238060D02*
D03*
X13081000Y7391400D02*
D03*
X7700740Y9067800D02*
D03*
X7700200Y8232140D02*
D03*
X7705280Y7386320D02*
D03*
D77*
X12831000Y9067800D02*
D03*
X12834081Y8238060D02*
D03*
X12831000Y7391400D02*
D03*
X7950740Y9067800D02*
D03*
X7950200Y8232140D02*
D03*
X7955280Y7386320D02*
D03*
D78*
X11382405Y6781540D02*
D03*
D79*
X8458200Y7015480D02*
D03*
D80*
X10572760Y11715000D02*
D03*
X11287760D02*
D03*
D81*
X10270401Y8559800D02*
D03*
X10566400D02*
D03*
D82*
X8953500Y5999480D02*
D03*
D83*
X9374480Y5742280D02*
D03*
D84*
X8063489Y6510696D02*
D03*
D85*
X8446511Y6189304D02*
D03*
D86*
X11008360Y9776460D02*
D03*
D87*
X11358880Y9347200D02*
D03*
X10924540Y9171940D02*
D03*
X10670540Y8394700D02*
D03*
X11037475Y6400521D02*
D03*
X9745980Y9403080D02*
D03*
X8829040Y5651500D02*
D03*
X11997690Y10093960D02*
D03*
X12473188Y10325681D02*
D03*
X10591800Y10160000D02*
D03*
D88*
X10873740Y6713220D02*
D03*
X8661400Y9210040D02*
D03*
X11823700Y6878320D02*
D03*
X11112500Y6868160D02*
D03*
X9253480Y6273540D02*
D03*
X9324576Y6408340D02*
D03*
X9343560Y6610180D02*
D03*
X9472460Y7005320D02*
D03*
X11694160Y6731000D02*
D03*
X9469120Y9509760D02*
D03*
X9349814Y9832414D02*
D03*
X9203845Y10167620D02*
D03*
X12153900Y5994400D02*
D03*
D89*
X10238740Y9136380D02*
D03*
%TF.MD5,13aaba60c10b023c00f90ce774f64fd8*%
M02*
