%TF.GenerationSoftware,Altium Limited,Altium Designer,22.2.1 (43)*%
G04 Layer_Color=8421504*
%FSLAX45Y45*%
%MOMM*%
%TF.SameCoordinates,874C5421-14EC-454C-B6B0-2495525A8CDB*%
%TF.FilePolarity,Positive*%
%TF.FileFunction,Paste,Top*%
%TF.Part,Single*%
G01*
G75*
%TA.AperFunction,SMDPad,CuDef*%
%ADD10R,0.80000X1.20000*%
%ADD11R,0.76000X1.20000*%
%ADD12R,0.70000X1.20000*%
%ADD13R,2.00000X0.90000*%
G04:AMPARAMS|DCode=14|XSize=1mm|YSize=1.42mm|CornerRadius=0.125mm|HoleSize=0mm|Usage=FLASHONLY|Rotation=90.000|XOffset=0mm|YOffset=0mm|HoleType=Round|Shape=RoundedRectangle|*
%AMROUNDEDRECTD14*
21,1,1.00000,1.17000,0,0,90.0*
21,1,0.75000,1.42000,0,0,90.0*
1,1,0.25000,0.58500,0.37500*
1,1,0.25000,0.58500,-0.37500*
1,1,0.25000,-0.58500,-0.37500*
1,1,0.25000,-0.58500,0.37500*
%
%ADD14ROUNDEDRECTD14*%
G04:AMPARAMS|DCode=15|XSize=1.16mm|YSize=1.47mm|CornerRadius=0mm|HoleSize=0mm|Usage=FLASHONLY|Rotation=135.000|XOffset=0mm|YOffset=0mm|HoleType=Round|Shape=Rectangle|*
%AMROTATEDRECTD15*
4,1,4,0.92985,0.10960,-0.10960,-0.92985,-0.92985,-0.10960,0.10960,0.92985,0.92985,0.10960,0.0*
%
%ADD15ROTATEDRECTD15*%

%ADD16R,1.16000X1.47000*%
%ADD17R,1.47000X1.16000*%
%ADD18R,0.90000X2.00000*%
%ADD19R,5.08000X5.08000*%
G04:AMPARAMS|DCode=20|XSize=0.93mm|YSize=1.31mm|CornerRadius=0.06975mm|HoleSize=0mm|Usage=FLASHONLY|Rotation=0.000|XOffset=0mm|YOffset=0mm|HoleType=Round|Shape=RoundedRectangle|*
%AMROUNDEDRECTD20*
21,1,0.93000,1.17050,0,0,0.0*
21,1,0.79050,1.31000,0,0,0.0*
1,1,0.13950,0.39525,-0.58525*
1,1,0.13950,-0.39525,-0.58525*
1,1,0.13950,-0.39525,0.58525*
1,1,0.13950,0.39525,0.58525*
%
%ADD20ROUNDEDRECTD20*%
G04:AMPARAMS|DCode=21|XSize=3.24mm|YSize=1.31mm|CornerRadius=0.09825mm|HoleSize=0mm|Usage=FLASHONLY|Rotation=0.000|XOffset=0mm|YOffset=0mm|HoleType=Round|Shape=RoundedRectangle|*
%AMROUNDEDRECTD21*
21,1,3.24000,1.11350,0,0,0.0*
21,1,3.04350,1.31000,0,0,0.0*
1,1,0.19650,1.52175,-0.55675*
1,1,0.19650,-1.52175,-0.55675*
1,1,0.19650,-1.52175,0.55675*
1,1,0.19650,1.52175,0.55675*
%
%ADD21ROUNDEDRECTD21*%
G04:AMPARAMS|DCode=22|XSize=1.4732mm|YSize=0.3556mm|CornerRadius=0mm|HoleSize=0mm|Usage=FLASHONLY|Rotation=225.000|XOffset=0mm|YOffset=0mm|HoleType=Round|Shape=Rectangle|*
%AMROTATEDRECTD22*
4,1,4,0.39513,0.64658,0.64658,0.39513,-0.39513,-0.64658,-0.64658,-0.39513,0.39513,0.64658,0.0*
%
%ADD22ROTATEDRECTD22*%

G04:AMPARAMS|DCode=23|XSize=0.7mm|YSize=1.6mm|CornerRadius=0mm|HoleSize=0mm|Usage=FLASHONLY|Rotation=135.000|XOffset=0mm|YOffset=0mm|HoleType=Round|Shape=Rectangle|*
%AMROTATEDRECTD23*
4,1,4,0.81318,0.31820,-0.31820,-0.81318,-0.81318,-0.31820,0.31820,0.81318,0.81318,0.31820,0.0*
%
%ADD23ROTATEDRECTD23*%

G04:AMPARAMS|DCode=24|XSize=0.5mm|YSize=1.6mm|CornerRadius=0mm|HoleSize=0mm|Usage=FLASHONLY|Rotation=135.000|XOffset=0mm|YOffset=0mm|HoleType=Round|Shape=Rectangle|*
%AMROTATEDRECTD24*
4,1,4,0.74246,0.38891,-0.38891,-0.74246,-0.74246,-0.38891,0.38891,0.74246,0.74246,0.38891,0.0*
%
%ADD24ROTATEDRECTD24*%

G04:AMPARAMS|DCode=25|XSize=1.1mm|YSize=1.4mm|CornerRadius=0mm|HoleSize=0mm|Usage=FLASHONLY|Rotation=135.000|XOffset=0mm|YOffset=0mm|HoleType=Round|Shape=Rectangle|*
%AMROTATEDRECTD25*
4,1,4,0.88388,0.10607,-0.10607,-0.88388,-0.88388,-0.10607,0.10607,0.88388,0.88388,0.10607,0.0*
%
%ADD25ROTATEDRECTD25*%

G04:AMPARAMS|DCode=26|XSize=1.2mm|YSize=2.2mm|CornerRadius=0mm|HoleSize=0mm|Usage=FLASHONLY|Rotation=135.000|XOffset=0mm|YOffset=0mm|HoleType=Round|Shape=Rectangle|*
%AMROTATEDRECTD26*
4,1,4,1.20208,0.35355,-0.35355,-1.20208,-1.20208,-0.35355,0.35355,1.20208,1.20208,0.35355,0.0*
%
%ADD26ROTATEDRECTD26*%

G04:AMPARAMS|DCode=27|XSize=1.6mm|YSize=1.4mm|CornerRadius=0mm|HoleSize=0mm|Usage=FLASHONLY|Rotation=135.000|XOffset=0mm|YOffset=0mm|HoleType=Round|Shape=Rectangle|*
%AMROTATEDRECTD27*
4,1,4,1.06066,-0.07071,0.07071,-1.06066,-1.06066,0.07071,-0.07071,1.06066,1.06066,-0.07071,0.0*
%
%ADD27ROTATEDRECTD27*%

G04:AMPARAMS|DCode=28|XSize=1mm|YSize=1.42mm|CornerRadius=0.125mm|HoleSize=0mm|Usage=FLASHONLY|Rotation=45.000|XOffset=0mm|YOffset=0mm|HoleType=Round|Shape=RoundedRectangle|*
%AMROUNDEDRECTD28*
21,1,1.00000,1.17000,0,0,45.0*
21,1,0.75000,1.42000,0,0,45.0*
1,1,0.25000,0.67883,-0.14849*
1,1,0.25000,0.14849,-0.67883*
1,1,0.25000,-0.67883,0.14849*
1,1,0.25000,-0.14849,0.67883*
%
%ADD28ROUNDEDRECTD28*%
G04:AMPARAMS|DCode=29|XSize=1mm|YSize=1.42mm|CornerRadius=0.125mm|HoleSize=0mm|Usage=FLASHONLY|Rotation=135.000|XOffset=0mm|YOffset=0mm|HoleType=Round|Shape=RoundedRectangle|*
%AMROUNDEDRECTD29*
21,1,1.00000,1.17000,0,0,135.0*
21,1,0.75000,1.42000,0,0,135.0*
1,1,0.25000,0.14849,0.67883*
1,1,0.25000,0.67883,0.14849*
1,1,0.25000,-0.14849,-0.67883*
1,1,0.25000,-0.67883,-0.14849*
%
%ADD29ROUNDEDRECTD29*%
G04:AMPARAMS|DCode=30|XSize=1mm|YSize=1.42mm|CornerRadius=0.125mm|HoleSize=0mm|Usage=FLASHONLY|Rotation=0.000|XOffset=0mm|YOffset=0mm|HoleType=Round|Shape=RoundedRectangle|*
%AMROUNDEDRECTD30*
21,1,1.00000,1.17000,0,0,0.0*
21,1,0.75000,1.42000,0,0,0.0*
1,1,0.25000,0.37500,-0.58500*
1,1,0.25000,-0.37500,-0.58500*
1,1,0.25000,-0.37500,0.58500*
1,1,0.25000,0.37500,0.58500*
%
%ADD30ROUNDEDRECTD30*%
%ADD31R,0.80000X2.00000*%
D10*
X11194860Y11371580D02*
D03*
X10644860D02*
D03*
D11*
X11071860D02*
D03*
X10767860D02*
D03*
D12*
X10969860D02*
D03*
X10869860D02*
D03*
D13*
X9682404Y6019541D02*
D03*
X11382405Y6781541D02*
D03*
Y7035541D02*
D03*
Y6908541D02*
D03*
Y6654541D02*
D03*
Y6527541D02*
D03*
Y6400541D02*
D03*
Y6146541D02*
D03*
Y6019541D02*
D03*
Y5892541D02*
D03*
Y5765541D02*
D03*
Y5638541D02*
D03*
Y5511541D02*
D03*
Y5384541D02*
D03*
X9682404Y7035541D02*
D03*
Y6908541D02*
D03*
Y6781541D02*
D03*
Y6654541D02*
D03*
Y6527541D02*
D03*
Y6400541D02*
D03*
Y6273541D02*
D03*
Y6146541D02*
D03*
Y5892541D02*
D03*
Y5765541D02*
D03*
Y5638541D02*
D03*
Y5511541D02*
D03*
Y5384541D02*
D03*
X11382405Y6273541D02*
D03*
D14*
X8465820Y8235158D02*
D03*
Y8422162D02*
D03*
X9385300Y8295160D02*
D03*
Y8108160D02*
D03*
X8481060Y9063203D02*
D03*
Y9250202D02*
D03*
X8448040Y7391878D02*
D03*
Y7578882D02*
D03*
X11811000Y5732302D02*
D03*
Y5545303D02*
D03*
D15*
X11230605Y9513575D02*
D03*
X11106155Y9638025D02*
D03*
D16*
X9485260Y10312400D02*
D03*
X9661260D02*
D03*
X9487800Y10726420D02*
D03*
X9663800D02*
D03*
D17*
X10279380Y11363060D02*
D03*
Y11187060D02*
D03*
X9735820Y8116200D02*
D03*
Y8292200D02*
D03*
X11295380Y8106040D02*
D03*
Y8282040D02*
D03*
D18*
X10468905Y7135541D02*
D03*
X10341905D02*
D03*
X10214905D02*
D03*
X9960905D02*
D03*
X10595905D02*
D03*
X10722905D02*
D03*
X10849905D02*
D03*
X10976905D02*
D03*
X11103905D02*
D03*
D19*
X10634005Y6136640D02*
D03*
D20*
X9445859Y11189482D02*
D03*
X9674860D02*
D03*
X9903861D02*
D03*
D21*
X9674860Y11858478D02*
D03*
D22*
X11132012Y9938212D02*
D03*
X11270310Y9799919D02*
D03*
X11223615Y9846615D02*
D03*
X11178713Y9891517D02*
D03*
X11085317Y9984913D02*
D03*
X11040415Y10029815D02*
D03*
X10993719Y10076510D02*
D03*
X11406810Y10489601D02*
D03*
X11453505Y10442905D02*
D03*
X11498407Y10398003D02*
D03*
X11545108Y10351308D02*
D03*
X11591803Y10304607D02*
D03*
X11636705Y10259705D02*
D03*
X11683401Y10213010D02*
D03*
D23*
X12321586Y11114994D02*
D03*
X12399366Y11037209D02*
D03*
X12477151Y10959429D02*
D03*
X12554930Y10881650D02*
D03*
X12632710Y10803865D02*
D03*
X12710495Y10726085D02*
D03*
X12788275Y10648305D02*
D03*
X12866055Y10570520D02*
D03*
D24*
X12943840Y10492740D02*
D03*
D25*
X13071120Y10450312D02*
D03*
D26*
X13742868Y11122066D02*
D03*
X12646853Y12218081D02*
D03*
D27*
X12031670Y11475618D02*
D03*
D28*
X11826316Y9946716D02*
D03*
X11694084Y9814484D02*
D03*
X11953316Y10581716D02*
D03*
X11821084Y10449484D02*
D03*
X11800916Y10759516D02*
D03*
X11668684Y10627284D02*
D03*
D29*
X10749204Y10000056D02*
D03*
X10881436Y9867824D02*
D03*
D30*
X12233600Y9067800D02*
D03*
X12420600D02*
D03*
X12250898Y7391400D02*
D03*
X12437902D02*
D03*
X12225503Y8229600D02*
D03*
X12412502D02*
D03*
X10170160Y10640060D02*
D03*
X9983160D02*
D03*
D31*
X10166802Y7772400D02*
D03*
X9746798D02*
D03*
X10762798D02*
D03*
X11182802D02*
D03*
%TF.MD5,f15907b0a924edea4fc96ae19cac923b*%
M02*
