%TF.GenerationSoftware,Altium Limited,Altium Designer,20.0.13 (296)*%
G04 Layer_Color=32768*
%FSLAX45Y45*%
%MOMM*%
%TF.FileFunction,Other,Mechanical_15*%
%TF.Part,Single*%
G01*
G75*
%TA.AperFunction,NonConductor*%
%ADD110C,0.05000*%
D110*
X12561000Y8807800D02*
X13350999D01*
Y9432800D01*
X12561000D02*
X13350999D01*
X12561000Y8807800D02*
Y9432800D01*
X12564080Y7978060D02*
X13354080D01*
Y8603060D01*
X12564080D02*
X13354080D01*
X12564080Y7978060D02*
Y8603060D01*
X12561000Y7131400D02*
X13350999D01*
Y7756400D01*
X12561000D02*
X13350999D01*
X12561000Y7131400D02*
Y7756400D01*
X7430740Y9327800D02*
X8220740D01*
X7430740Y8702800D02*
Y9327800D01*
Y8702800D02*
X8220740D01*
Y9327800D01*
X7430200Y8492140D02*
X8220200D01*
X7430200Y7867140D02*
Y8492140D01*
Y7867140D02*
X8220200D01*
Y8492140D01*
X7435280Y7646320D02*
X8225280D01*
X7435280Y7021320D02*
Y7646320D01*
Y7021320D02*
X8225280D01*
Y7646320D01*
X9552405Y5240540D02*
X11512405D01*
X9552405D02*
Y7265540D01*
X11512405D01*
Y5240540D02*
Y7265540D01*
X11360260Y11355000D02*
Y12015000D01*
X10500260Y11355000D02*
Y12015000D01*
X11360260D01*
X10500260Y11355000D02*
X11360260D01*
X9313860Y11312980D02*
Y11734980D01*
Y11312980D02*
X9373860D01*
Y11098980D02*
Y11312980D01*
Y11098980D02*
X9975860D01*
Y11312980D01*
X10035860D01*
Y11734980D01*
X9861860D02*
X10035860D01*
X9861860D02*
Y11948980D01*
X9487860D02*
X9861860D01*
X9487860Y11734980D02*
Y11948980D01*
X9313860Y11734980D02*
X9487860D01*
X10196900Y8448300D02*
Y8671300D01*
X10639900Y8448300D02*
Y8671300D01*
X10196900Y8448300D02*
X10639900D01*
X10196900Y8671300D02*
X10639900D01*
X10329000Y8779600D02*
X10753000D01*
X10329000D02*
Y9203600D01*
X10753000D01*
Y8779600D02*
Y9203600D01*
X11431120Y9071100D02*
X11431120Y9267700D01*
X11088520Y9071100D02*
X11088520Y9267700D01*
X11088520Y9071100D02*
X11431120Y9071100D01*
X11088520Y9267700D02*
X11431120Y9267700D01*
X10167000Y9325100D02*
Y9521700D01*
X10508600Y9325100D02*
Y9521700D01*
X10167000Y9521700D02*
X10508600Y9521700D01*
X10167000Y9325100D02*
X10508600Y9325100D01*
X10610700Y7928100D02*
X10610700Y8124700D01*
X10268100Y7928100D02*
X10268100Y8124700D01*
X10268100Y7928100D02*
X10610700Y7928100D01*
X10268100Y8124700D02*
X10610700Y8124700D01*
X10315700Y10051900D02*
X10512300Y10051900D01*
X10315700Y9709300D02*
X10512300Y9709300D01*
X10512300Y10051900D02*
X10512300Y9709300D01*
X10315700Y10051900D02*
X10315700Y9709300D01*
X10889600Y9325100D02*
Y9521700D01*
X10548000Y9325100D02*
Y9521700D01*
Y9325100D02*
X10889600Y9325100D01*
X10548000Y9521700D02*
X10889600Y9521700D01*
X10610700Y8182100D02*
X10610700Y8378700D01*
X10268100Y8182100D02*
X10268100Y8378700D01*
X10268100Y8182100D02*
X10610700Y8182100D01*
X10268100Y8378700D02*
X10610700Y8378700D01*
X8416128Y5725270D02*
X8930358Y6338105D01*
X7611782Y6400197D02*
X8416128Y5725270D01*
X7611782Y6400197D02*
X8126011Y7013032D01*
X8930358Y6338105D01*
X11572817Y9828981D02*
X11708581Y9693217D01*
X11947583Y9932219D01*
X11811819Y10067983D02*
X11947583Y9932219D01*
X11572817Y9828981D02*
X11811819Y10067983D01*
X10866939Y9746557D02*
X11002703Y9882321D01*
X10763701Y10121323D02*
X11002703Y9882321D01*
X10627937Y9985559D02*
X10763701Y10121323D01*
X10627937Y9985559D02*
X10866939Y9746557D01*
X10987904Y9629959D02*
X11126921Y9768976D01*
X11230159Y9387704D02*
X11369176Y9526721D01*
X10987904Y9629959D02*
X11230159Y9387704D01*
X11126921Y9768976D02*
X11369176Y9526721D01*
X11699817Y10463981D02*
X11835582Y10328216D01*
X12074583Y10567219D01*
X11938818Y10702984D02*
X12074583Y10567219D01*
X11699817Y10463981D02*
X11938818Y10702984D01*
X11547417Y10641781D02*
X11683182Y10506016D01*
X11922183Y10745019D01*
X11786418Y10880784D02*
X11922183Y10745019D01*
X11547417Y10641781D02*
X11786418Y10880784D01*
X8369820Y8159660D02*
X8369820Y8497660D01*
X8561820D01*
X8561820Y8159660D02*
X8561820Y8497660D01*
X8369820Y8159660D02*
X8561820D01*
X8385060Y8987700D02*
Y9325700D01*
X8577060D01*
Y8987700D02*
Y9325700D01*
X8385060Y8987700D02*
X8577060D01*
X8352040Y7316380D02*
X8352040Y7654380D01*
X8544040D01*
X8544040Y7316380D02*
X8544040Y7654380D01*
X8352040Y7316380D02*
X8544040D01*
X12158100Y9163800D02*
X12496100D01*
Y8971800D02*
Y9163800D01*
X12158100Y8971800D02*
X12496100D01*
X12158100D02*
Y9163800D01*
X12175400Y7487400D02*
X12513400Y7487400D01*
Y7295400D02*
Y7487400D01*
X12175400Y7295400D02*
X12513400Y7295400D01*
X12175400Y7295400D02*
Y7487400D01*
X12150000Y8325600D02*
X12488000D01*
Y8133600D02*
Y8325600D01*
X12150000Y8133600D02*
X12488000D01*
X12150000D02*
Y8325600D01*
X10150600Y11113920D02*
X10347200D01*
X10150600Y11456520D02*
X10347200D01*
Y11113920D02*
Y11456520D01*
X10150600Y11113920D02*
Y11456520D01*
X9907660Y10544060D02*
Y10736060D01*
Y10544060D02*
X10245660D01*
Y10736060D01*
X9907660D02*
X10245660D01*
X9407040Y10206480D02*
X9749640D01*
X9407040Y10403080D02*
X9749640D01*
X9407040Y10206480D02*
Y10403080D01*
X9749640Y10206480D02*
Y10403080D01*
X9401060Y10635740D02*
X9743660D01*
X9401060Y10832340D02*
X9743660D01*
X9401060Y10635740D02*
Y10832340D01*
X9743660Y10635740D02*
Y10832340D01*
X9655300Y8032900D02*
X9851900D01*
X9655300Y8375500D02*
X9851900D01*
Y8032900D02*
Y8375500D01*
X9655300Y8032900D02*
Y8375500D01*
X11715000Y5469800D02*
X11907000D01*
Y5807800D01*
X11715000D02*
X11907000D01*
X11715000Y5469800D02*
Y5807800D01*
X11197080Y8025280D02*
X11393680D01*
X11197080Y8367880D02*
X11393680D01*
Y8025280D02*
Y8367880D01*
X11197080Y8025280D02*
Y8367880D01*
%TF.MD5,0692c1ed39889a9901543f5ff7d1190a*%
M02*
