%TF.GenerationSoftware,Altium Limited,Altium Designer,20.0.13 (296)*%
G04 Layer_Color=128*
%FSLAX45Y45*%
%MOMM*%
%TF.FileFunction,Paste,Bot*%
%TF.Part,Single*%
G01*
G75*
%TA.AperFunction,SMDPad,CuDef*%
%ADD32R,1.47000X1.16000*%
%ADD33R,1.16000X1.47000*%
G04:AMPARAMS|DCode=59|XSize=0.86mm|YSize=0.15mm|CornerRadius=0.0375mm|HoleSize=0mm|Usage=FLASHONLY|Rotation=180.000|XOffset=0mm|YOffset=0mm|HoleType=Round|Shape=RoundedRectangle|*
%AMROUNDEDRECTD59*
21,1,0.86000,0.07500,0,0,180.0*
21,1,0.78500,0.15000,0,0,180.0*
1,1,0.07500,-0.39250,0.03750*
1,1,0.07500,0.39250,0.03750*
1,1,0.07500,0.39250,-0.03750*
1,1,0.07500,-0.39250,-0.03750*
%
%ADD59ROUNDEDRECTD59*%
G04:AMPARAMS|DCode=60|XSize=0.86mm|YSize=0.15mm|CornerRadius=0.0375mm|HoleSize=0mm|Usage=FLASHONLY|Rotation=270.000|XOffset=0mm|YOffset=0mm|HoleType=Round|Shape=RoundedRectangle|*
%AMROUNDEDRECTD60*
21,1,0.86000,0.07500,0,0,270.0*
21,1,0.78500,0.15000,0,0,270.0*
1,1,0.07500,-0.03750,-0.39250*
1,1,0.07500,-0.03750,0.39250*
1,1,0.07500,0.03750,0.39250*
1,1,0.07500,0.03750,-0.39250*
%
%ADD60ROUNDEDRECTD60*%
%ADD62R,1.14000X1.47000*%
G36*
X10502100Y9030500D02*
Y8952700D01*
X10579900D01*
Y9030500D01*
X10502100D01*
D02*
G37*
D32*
X10414000Y9968600D02*
D03*
Y9792600D02*
D03*
D33*
X11347820Y9169400D02*
D03*
X11171820D02*
D03*
X10527400Y8026400D02*
D03*
X10351400D02*
D03*
X10527400Y8280400D02*
D03*
X10351400D02*
D03*
D59*
X10684500Y8916600D02*
D03*
Y8966600D02*
D03*
Y9016600D02*
D03*
Y9066600D02*
D03*
X10397500D02*
D03*
Y9016600D02*
D03*
Y8966600D02*
D03*
Y8916600D02*
D03*
D60*
X10616000Y9135100D02*
D03*
X10566000D02*
D03*
X10516000D02*
D03*
X10466000D02*
D03*
X10516000Y8848100D02*
D03*
X10566000D02*
D03*
X10616000D02*
D03*
D62*
X10248800Y9423400D02*
D03*
X10426800Y9423400D02*
D03*
X10807800D02*
D03*
X10629800Y9423400D02*
D03*
%TF.MD5,e5e7039d9f788a9b02ee17b0db696954*%
M02*
