%TF.GenerationSoftware,Altium Limited,Altium Designer,20.0.13 (296)*%
G04 Layer_Physical_Order=2*
G04 Layer_Color=16711680*
%FSLAX45Y45*%
%MOMM*%
%TF.FileFunction,Copper,L2,Bot,Signal*%
%TF.Part,Single*%
G01*
G75*
%TA.AperFunction,SMDPad,CuDef*%
%ADD11R,2.00000X0.90000*%
%ADD32R,1.47000X1.16000*%
%ADD33R,1.16000X1.47000*%
%TA.AperFunction,Conductor*%
%ADD35C,0.25400*%
%ADD37C,0.80000*%
%ADD38C,0.50000*%
%ADD39C,0.40000*%
%ADD44C,0.30000*%
%TA.AperFunction,ComponentPad*%
%ADD45P,2.13263X4X280.0*%
%ADD46C,1.50800*%
%TA.AperFunction,ViaPad*%
%ADD47C,1.52400*%
%TA.AperFunction,ComponentPad*%
G04:AMPARAMS|DCode=48|XSize=1.6mm|YSize=0.6mm|CornerRadius=0mm|HoleSize=0mm|Usage=FLASHONLY|Rotation=135.000|XOffset=0mm|YOffset=0mm|HoleType=Round|Shape=Rectangle|*
%AMROTATEDRECTD48*
4,1,4,0.77782,-0.35356,0.35356,-0.77782,-0.77782,0.35356,-0.35356,0.77782,0.77782,-0.35356,0.0*
%
%ADD48ROTATEDRECTD48*%

%ADD49R,1.50800X1.50800*%
%ADD50R,1.50000X1.50000*%
%ADD51O,1.05000X2.10000*%
%TA.AperFunction,SMDPad,CuDef*%
%ADD52R,0.97000X1.73000*%
%TA.AperFunction,ComponentPad*%
%ADD53R,1.50000X1.50000*%
%ADD54R,1.50000X1.25000*%
%ADD55C,2.10000*%
%ADD56P,2.96985X4X185.0*%
%TA.AperFunction,ViaPad*%
%ADD57C,1.27000*%
%ADD58C,1.01600*%
%TA.AperFunction,SMDPad,CuDef*%
%ADD59R,0.50800X0.50800*%
G04:AMPARAMS|DCode=60|XSize=0.86mm|YSize=0.15mm|CornerRadius=0.0375mm|HoleSize=0mm|Usage=FLASHONLY|Rotation=90.000|XOffset=0mm|YOffset=0mm|HoleType=Round|Shape=RoundedRectangle|*
%AMROUNDEDRECTD60*
21,1,0.86000,0.07500,0,0,90.0*
21,1,0.78500,0.15000,0,0,90.0*
1,1,0.07500,0.03750,0.39250*
1,1,0.07500,0.03750,-0.39250*
1,1,0.07500,-0.03750,-0.39250*
1,1,0.07500,-0.03750,0.39250*
%
%ADD60ROUNDEDRECTD60*%
G04:AMPARAMS|DCode=61|XSize=0.86mm|YSize=0.15mm|CornerRadius=0.0375mm|HoleSize=0mm|Usage=FLASHONLY|Rotation=0.000|XOffset=0mm|YOffset=0mm|HoleType=Round|Shape=RoundedRectangle|*
%AMROUNDEDRECTD61*
21,1,0.86000,0.07500,0,0,0.0*
21,1,0.78500,0.15000,0,0,0.0*
1,1,0.07500,0.39250,-0.03750*
1,1,0.07500,-0.39250,-0.03750*
1,1,0.07500,-0.39250,0.03750*
1,1,0.07500,0.39250,0.03750*
%
%ADD61ROUNDEDRECTD61*%
%ADD62R,1.14000X1.47000*%
%TA.AperFunction,Conductor*%
%ADD63C,0.17780*%
%ADD64C,0.12700*%
%ADD65C,0.20000*%
D11*
X11382405Y6781541D02*
D03*
D32*
X10414000Y9968601D02*
D03*
Y9792599D02*
D03*
D33*
X11347821Y9169400D02*
D03*
X11171819D02*
D03*
X10527401Y8026400D02*
D03*
X10351399D02*
D03*
X10527401Y8280400D02*
D03*
X10351399D02*
D03*
D35*
X10640060Y9799320D02*
Y9911080D01*
X10582539Y9968601D02*
X10640060Y9911080D01*
X10414000Y9968601D02*
X10582539D01*
X10403840Y7769860D02*
X10527401Y7893421D01*
Y8026400D01*
X10924540Y9171940D02*
X11169279D01*
X11171819Y9169400D01*
X10353203Y9731802D02*
Y9747301D01*
X10398501Y9792599D01*
X10414000D01*
X10516799Y9220601D02*
X10629798Y9333601D01*
Y9423400D01*
X10424160Y9268460D02*
X10465999Y9226621D01*
X10424160Y9268460D02*
Y9420758D01*
X10426802Y9423400D01*
D37*
X8135620Y7338060D02*
X8458200Y7015480D01*
X8135620Y7338060D02*
Y7578882D01*
X8270240Y8938260D02*
X8465820Y8742680D01*
X8270240Y8938260D02*
Y9250202D01*
X10270399Y8559800D02*
Y8851260D01*
X10243820Y8877838D02*
X10270399Y8851260D01*
X10243820Y8877838D02*
Y9174480D01*
X10270399Y8361401D02*
Y8559800D01*
Y8361401D02*
X10317902Y8313898D01*
X10333401D01*
X10351399Y8295899D01*
Y8280400D02*
Y8295899D01*
X12153900Y5994400D02*
Y6548120D01*
X11823700Y6878320D02*
X12153900Y6548120D01*
X11008360Y9776460D02*
X11022147Y9790247D01*
X11008360Y9697720D02*
Y9776460D01*
Y9697720D02*
X11358880Y9347200D01*
X10665460Y6601460D02*
Y8389620D01*
Y6601460D02*
X10741660Y6525260D01*
X10902706D01*
X11027446Y6400521D01*
X11037473D01*
X11046470Y6391529D01*
X9469120Y7005320D02*
Y9530817D01*
X9343558Y6610182D02*
Y9826158D01*
Y6610182D02*
X9356278D01*
X9198244Y10167620D02*
X9203842D01*
X9199880Y10147300D02*
X9203842Y10167620D01*
X9199880Y6543152D02*
Y10147300D01*
Y6543152D02*
X9324579Y6418458D01*
X10185400Y5844540D02*
Y6014720D01*
Y5844540D02*
X10294620Y5735320D01*
X12278360D01*
X12640427Y6097387D01*
Y6480917D01*
D38*
X8446511Y6189304D02*
X8661400Y6404193D01*
Y9210040D01*
X11171819Y9169400D02*
Y9292961D01*
X11037783Y9426997D02*
X11171819Y9292961D01*
X10811398Y9426997D02*
X11037783D01*
X10807802Y9423400D02*
X10811398Y9426997D01*
X10351399Y8026400D02*
Y8280400D01*
X11973560Y10093960D02*
X12255500D01*
X12504420Y10342880D01*
X12473188Y10325679D02*
X12504420Y10342880D01*
X12473188Y10325679D02*
Y10329448D01*
X10086340Y7130821D02*
X10087905Y7135541D01*
X10086340Y7130821D02*
Y8587740D01*
X9632081Y9041999D02*
X10086340Y8587740D01*
X9632081Y9041999D02*
Y9530481D01*
X10261600Y10160000D01*
X10591800D01*
X9101379Y6425641D02*
X9253479Y6273541D01*
X9101379Y6425641D02*
Y10616976D01*
X8679348Y11039008D02*
X9101379Y10616976D01*
X8589543Y10949203D02*
X8763000Y10775752D01*
Y5717540D02*
Y10775752D01*
Y5717540D02*
X8829040Y5651500D01*
D39*
X9745980Y9403080D02*
X9916160D01*
X9936480Y9423400D01*
X10248798D01*
Y9627403D01*
X10353203Y9731802D01*
D44*
X10286619Y9174480D02*
X10394498Y9066601D01*
X10397500D01*
X10243820Y9174480D02*
X10286619D01*
X10397500Y9016599D02*
Y9066601D01*
X10871200Y6713220D02*
Y8727440D01*
X10826887Y8771753D02*
X10871200Y8727440D01*
X10692348Y8771753D02*
X10826887D01*
X10616001Y8848100D02*
X10692348Y8771753D01*
X10684500Y9016599D02*
X11123061D01*
X11694160Y8445500D01*
Y6731000D02*
Y8445500D01*
X11681440Y6731000D02*
X11694160D01*
X11109960Y6868160D02*
Y8755380D01*
X10948741Y8916599D02*
X11109960Y8755380D01*
X10684500Y8916599D02*
X10948741D01*
D45*
X12640427Y6480917D02*
D03*
D46*
X12783820Y6685707D02*
D03*
X12830998Y9067800D02*
D03*
X12834082Y8238058D02*
D03*
X12830998Y7391400D02*
D03*
X7950738Y9067800D02*
D03*
X7950200Y8232140D02*
D03*
X7955280Y7386320D02*
D03*
D47*
X11574780Y11650980D02*
D03*
D48*
X8320136Y10679796D02*
D03*
X8409940Y10769600D02*
D03*
X8499744Y10859404D02*
D03*
X8589543Y10949203D02*
D03*
X8679348Y11039008D02*
D03*
X8769152Y11128812D02*
D03*
X8230321Y10589981D02*
D03*
X8142331Y10501991D02*
D03*
D49*
X13081000Y9067800D02*
D03*
X13084077Y8238058D02*
D03*
X13081000Y7391400D02*
D03*
X7700742Y9067800D02*
D03*
X7700198Y8232140D02*
D03*
X7705278Y7386320D02*
D03*
D50*
X8458200Y7015480D02*
D03*
D51*
X10572760Y11714998D02*
D03*
X11287760D02*
D03*
D52*
X10270399Y8559800D02*
D03*
X10566400D02*
D03*
D53*
X8953500Y5999480D02*
D03*
D54*
X9374480Y5742280D02*
D03*
D55*
X8063489Y6510696D02*
D03*
D56*
X8446511Y6189304D02*
D03*
D57*
X10640060Y9799320D02*
D03*
X10403840Y7769860D02*
D03*
X8135620Y7578882D02*
D03*
X8465820Y8742680D02*
D03*
X8270240Y9250202D02*
D03*
X10924540Y9171940D02*
D03*
X9745980Y9403080D02*
D03*
X10243820Y9174480D02*
D03*
X12153900Y5994400D02*
D03*
X11823700Y6878320D02*
D03*
X11358880Y9347200D02*
D03*
X10591800Y10160000D02*
D03*
X9253479Y6273541D02*
D03*
X8829040Y5651500D02*
D03*
X10185400Y6014720D02*
D03*
D58*
X8661400Y9210040D02*
D03*
D59*
X10541000Y8991600D02*
D03*
D60*
X10616001Y8848100D02*
D03*
X10565999D02*
D03*
X10516001D02*
D03*
X10465999Y9135100D02*
D03*
X10516001D02*
D03*
X10565999D02*
D03*
X10616001D02*
D03*
D61*
X10397500Y8916599D02*
D03*
Y8966601D02*
D03*
Y9016599D02*
D03*
Y9066601D02*
D03*
X10684500D02*
D03*
Y9016599D02*
D03*
Y8966601D02*
D03*
Y8916599D02*
D03*
D62*
X10248798Y9423400D02*
D03*
X10426802D02*
D03*
X10807802D02*
D03*
X10629798D02*
D03*
D63*
X10527401Y8280400D02*
Y8390519D01*
Y8026400D02*
Y8280400D01*
X10510520Y8407400D02*
X10527401Y8390519D01*
X10485120Y8407400D02*
X10510520D01*
X10436860Y8455660D02*
X10485120Y8407400D01*
X10436860Y8455660D02*
Y8646160D01*
X10516001Y8725301D01*
Y8848100D01*
X10565999D01*
D64*
Y8903351D02*
X10629783Y8967135D01*
X10609580Y8987338D02*
X10629783Y8967135D01*
X10565999Y8848100D02*
Y8903351D01*
X10609580Y8987338D02*
Y9044940D01*
X10683966Y8967135D02*
X10684500Y8966601D01*
X10629783Y8967135D02*
X10683966D01*
X10565999Y9088521D02*
X10609580Y9044940D01*
X10565999Y9088521D02*
Y9135100D01*
D65*
X10516001D02*
Y9219799D01*
X10516799Y9220601D01*
X10465999Y9135100D02*
Y9226621D01*
%TF.MD5,225e09c5726a3f905e15aac1a409019e*%
M02*
