%TF.GenerationSoftware,Altium Limited,Altium Designer,20.0.13 (296)*%
G04 Layer_Color=32896*
%FSLAX45Y45*%
%MOMM*%
%TF.FileFunction,Legend,Bot*%
%TF.Part,Single*%
G01*
G75*
%TA.AperFunction,NonConductor*%
%ADD66C,0.20000*%
%ADD67C,0.12700*%
%ADD68C,0.10000*%
G36*
X10562354Y6913790D02*
X10565082D01*
Y6911062D01*
X10567810D01*
Y6908334D01*
X10570538D01*
Y6905606D01*
Y6902877D01*
X10573266D01*
Y6900150D01*
X10575995D01*
Y6897421D01*
X10578723D01*
Y6894693D01*
Y6891965D01*
X10581451D01*
Y6889237D01*
Y6886508D01*
X10584179D01*
Y6883780D01*
Y6881052D01*
Y6878324D01*
X10586907D01*
Y6875596D01*
Y6872868D01*
Y6870139D01*
Y6867411D01*
Y6864683D01*
X10589635D01*
Y6861955D01*
Y6859227D01*
Y6856499D01*
Y6853770D01*
X10592364D01*
Y6856499D01*
X10597820D01*
Y6859227D01*
X10603276D01*
Y6861955D01*
X10608733D01*
Y6864683D01*
X10619646D01*
Y6867411D01*
X10636015D01*
Y6864683D01*
X10638743D01*
Y6861955D01*
Y6859227D01*
Y6856499D01*
Y6853770D01*
Y6851042D01*
Y6848314D01*
Y6845586D01*
Y6842858D01*
X10636015D01*
Y6840129D01*
Y6837401D01*
Y6834673D01*
Y6831945D01*
X10633286D01*
Y6829217D01*
Y6826488D01*
Y6823760D01*
X10630558D01*
Y6821032D01*
Y6818304D01*
X10627830D01*
Y6815576D01*
Y6812847D01*
X10625102D01*
Y6810119D01*
Y6807391D01*
X10622373D01*
Y6804663D01*
X10619646D01*
Y6801935D01*
X10616917D01*
Y6799206D01*
X10614189D01*
Y6796478D01*
X10611461D01*
Y6793750D01*
X10608733D01*
Y6791022D01*
X10606004D01*
Y6788294D01*
X10600548D01*
Y6785566D01*
X10595092D01*
Y6782837D01*
X10589635D01*
Y6780109D01*
X10581451D01*
Y6777381D01*
X10575995D01*
Y6774653D01*
X10578723D01*
Y6771925D01*
X10584179D01*
Y6769197D01*
X10589635D01*
Y6766468D01*
X10614189D01*
Y6769197D01*
Y6771925D01*
X10616917D01*
Y6774653D01*
Y6777381D01*
Y6780109D01*
X10619646D01*
Y6782837D01*
Y6785566D01*
X10622373D01*
Y6788294D01*
Y6791022D01*
X10625102D01*
Y6793750D01*
X10627830D01*
Y6796478D01*
Y6799206D01*
X10630558D01*
Y6801935D01*
X10633286D01*
Y6804663D01*
X10636015D01*
Y6807391D01*
X10638743D01*
Y6810119D01*
X10644199D01*
Y6812847D01*
X10646927D01*
Y6815576D01*
X10652384D01*
Y6818304D01*
X10657840D01*
Y6821032D01*
X10666024D01*
Y6823760D01*
X10682394D01*
Y6821032D01*
Y6818304D01*
Y6815576D01*
Y6812847D01*
Y6810119D01*
Y6807391D01*
X10679665D01*
Y6804663D01*
Y6801935D01*
Y6799206D01*
X10676937D01*
Y6796478D01*
Y6793750D01*
X10674209D01*
Y6791022D01*
Y6788294D01*
X10671481D01*
Y6785566D01*
X10668753D01*
Y6782837D01*
Y6780109D01*
X10666024D01*
Y6777381D01*
X10663296D01*
Y6774653D01*
X10660568D01*
Y6771925D01*
X10657840D01*
Y6769197D01*
X10652384D01*
Y6766468D01*
X10649655D01*
Y6763740D01*
X10644199D01*
Y6761012D01*
X10638743D01*
Y6758284D01*
X10630558D01*
Y6755555D01*
X10625102D01*
Y6752827D01*
X10622373D01*
Y6750099D01*
Y6747371D01*
Y6744643D01*
X10625102D01*
Y6741915D01*
Y6739186D01*
Y6736458D01*
Y6733730D01*
Y6731002D01*
X10627830D01*
Y6728274D01*
Y6725546D01*
Y6722817D01*
X10630558D01*
Y6720089D01*
Y6717361D01*
X10636015D01*
Y6720089D01*
Y6722817D01*
Y6725546D01*
X10638743D01*
Y6728274D01*
Y6731002D01*
Y6733730D01*
X10641471D01*
Y6736458D01*
Y6739186D01*
X10644199D01*
Y6741915D01*
Y6744643D01*
X10646927D01*
Y6747371D01*
X10649655D01*
Y6750099D01*
X10652384D01*
Y6752827D01*
X10655112D01*
Y6755555D01*
Y6758284D01*
X10660568D01*
Y6761012D01*
X10663296D01*
Y6763740D01*
X10666024D01*
Y6766468D01*
X10668753D01*
Y6769197D01*
X10674209D01*
Y6771925D01*
X10679665D01*
Y6774653D01*
X10687850D01*
Y6777381D01*
X10698763D01*
Y6780109D01*
X10723317D01*
Y6777381D01*
X10726045D01*
Y6774653D01*
Y6771925D01*
Y6769197D01*
Y6766468D01*
Y6763740D01*
X10723317D01*
Y6761012D01*
Y6758284D01*
Y6755555D01*
Y6752827D01*
X10720588D01*
Y6750099D01*
Y6747371D01*
X10717860D01*
Y6744643D01*
Y6741915D01*
X10715132D01*
Y6739186D01*
Y6736458D01*
X10712404D01*
Y6733730D01*
X10709676D01*
Y6731002D01*
X10726045D01*
Y6728274D01*
X10736957D01*
Y6725546D01*
X10745142D01*
Y6722817D01*
X10750598D01*
Y6720089D01*
X10756055D01*
Y6717361D01*
X10758783D01*
Y6714633D01*
X10764239D01*
Y6711905D01*
X10766968D01*
Y6709176D01*
X10769696D01*
Y6706448D01*
X10772424D01*
Y6703720D01*
X10775152D01*
Y6700992D01*
Y6698264D01*
X10772424D01*
Y6695536D01*
X10769696D01*
Y6692807D01*
X10766968D01*
Y6690079D01*
X10764239D01*
Y6687351D01*
X10758783D01*
Y6684623D01*
X10756055D01*
Y6681894D01*
X10750598D01*
Y6679166D01*
X10745142D01*
Y6676438D01*
X10736957D01*
Y6673710D01*
X10726045D01*
Y6670982D01*
X10709676D01*
Y6668254D01*
X10712404D01*
Y6665525D01*
X10715132D01*
Y6662797D01*
Y6660069D01*
X10717860D01*
Y6657341D01*
Y6654613D01*
X10720588D01*
Y6651885D01*
Y6649156D01*
X10723317D01*
Y6646428D01*
Y6643700D01*
Y6640972D01*
Y6638244D01*
X10726045D01*
Y6635515D01*
Y6632787D01*
Y6630059D01*
Y6627331D01*
Y6624603D01*
Y6621874D01*
X10698763D01*
Y6624603D01*
X10687850D01*
Y6627331D01*
X10679665D01*
Y6630059D01*
X10674209D01*
Y6632787D01*
X10668753D01*
Y6635515D01*
X10666024D01*
Y6638244D01*
X10663296D01*
Y6640972D01*
X10657840D01*
Y6643700D01*
X10655112D01*
Y6646428D01*
X10652384D01*
Y6649156D01*
Y6651885D01*
X10649655D01*
Y6654613D01*
X10646927D01*
Y6657341D01*
X10644199D01*
Y6660069D01*
Y6662797D01*
X10641471D01*
Y6665525D01*
Y6668254D01*
X10638743D01*
Y6670982D01*
Y6673710D01*
Y6676438D01*
X10636015D01*
Y6679166D01*
Y6681894D01*
Y6684623D01*
X10630558D01*
Y6681894D01*
Y6679166D01*
X10627830D01*
Y6676438D01*
Y6673710D01*
X10625102D01*
Y6670982D01*
Y6668254D01*
Y6665525D01*
Y6662797D01*
Y6660069D01*
X10622373D01*
Y6657341D01*
Y6654613D01*
Y6651885D01*
Y6649156D01*
Y6646428D01*
X10630558D01*
Y6643700D01*
X10638743D01*
Y6640972D01*
X10644199D01*
Y6638244D01*
X10649655D01*
Y6635515D01*
X10652384D01*
Y6632787D01*
X10655112D01*
Y6630059D01*
X10660568D01*
Y6627331D01*
X10663296D01*
Y6624603D01*
Y6621874D01*
X10666024D01*
Y6619146D01*
X10668753D01*
Y6616418D01*
X10671481D01*
Y6613690D01*
Y6610962D01*
X10674209D01*
Y6608234D01*
X10676937D01*
Y6605505D01*
Y6602777D01*
Y6600049D01*
X10679665D01*
Y6597321D01*
Y6594593D01*
Y6591864D01*
X10682394D01*
Y6589136D01*
Y6586408D01*
Y6583680D01*
Y6580952D01*
Y6578223D01*
X10666024D01*
Y6580952D01*
X10657840D01*
Y6583680D01*
X10652384D01*
Y6586408D01*
X10646927D01*
Y6589136D01*
X10641471D01*
Y6591864D01*
X10638743D01*
Y6594593D01*
X10636015D01*
Y6597321D01*
X10633286D01*
Y6600049D01*
X10630558D01*
Y6602777D01*
X10627830D01*
Y6605505D01*
X10625102D01*
Y6608234D01*
Y6610962D01*
X10622373D01*
Y6613690D01*
X10619646D01*
Y6616418D01*
Y6619146D01*
X10616917D01*
Y6621874D01*
Y6624603D01*
Y6627331D01*
X10614189D01*
Y6630059D01*
Y6632787D01*
Y6635515D01*
X10589635D01*
Y6632787D01*
X10584179D01*
Y6630059D01*
X10578723D01*
Y6627331D01*
X10573266D01*
Y6624603D01*
X10581451D01*
Y6621874D01*
X10589635D01*
Y6619146D01*
X10595092D01*
Y6616418D01*
X10600548D01*
Y6613690D01*
X10603276D01*
Y6610962D01*
X10608733D01*
Y6608234D01*
X10611461D01*
Y6605505D01*
X10614189D01*
Y6602777D01*
X10616917D01*
Y6600049D01*
X10619646D01*
Y6597321D01*
X10622373D01*
Y6594593D01*
Y6591864D01*
X10625102D01*
Y6589136D01*
X10627830D01*
Y6586408D01*
Y6583680D01*
X10630558D01*
Y6580952D01*
Y6578223D01*
X10633286D01*
Y6575495D01*
Y6572767D01*
Y6570039D01*
X10636015D01*
Y6567311D01*
Y6564583D01*
Y6561854D01*
Y6559126D01*
Y6556398D01*
X10638743D01*
Y6553670D01*
Y6550942D01*
Y6548213D01*
Y6545485D01*
Y6542757D01*
Y6540029D01*
X10636015D01*
Y6537301D01*
Y6534572D01*
Y6531844D01*
X10630558D01*
Y6534572D01*
X10616917D01*
Y6537301D01*
X10608733D01*
Y6540029D01*
X10600548D01*
Y6542757D01*
X10597820D01*
Y6545485D01*
X10592364D01*
Y6548213D01*
X10589635D01*
Y6545485D01*
Y6542757D01*
Y6540029D01*
X10586907D01*
Y6537301D01*
Y6534572D01*
Y6531844D01*
Y6529116D01*
Y6526388D01*
X10584179D01*
Y6523660D01*
Y6520932D01*
Y6518203D01*
Y6515475D01*
X10581451D01*
Y6512747D01*
Y6510019D01*
X10578723D01*
Y6507291D01*
Y6504563D01*
X10575995D01*
Y6501834D01*
X10573266D01*
Y6499106D01*
Y6496378D01*
X10570538D01*
Y6493650D01*
X10567810D01*
Y6490921D01*
X10565082D01*
Y6488193D01*
X10562354D01*
Y6485465D01*
X10556897D01*
Y6488193D01*
X10551441D01*
Y6490921D01*
X10548713D01*
Y6493650D01*
Y6496378D01*
X10545984D01*
Y6499106D01*
X10543256D01*
Y6501834D01*
X10540528D01*
Y6504563D01*
Y6507291D01*
X10537800D01*
Y6510019D01*
Y6512747D01*
X10535072D01*
Y6515475D01*
Y6518203D01*
X10532343D01*
Y6520932D01*
Y6523660D01*
Y6526388D01*
Y6529116D01*
X10529615D01*
Y6531844D01*
Y6534572D01*
Y6537301D01*
Y6540029D01*
Y6542757D01*
Y6545485D01*
Y6548213D01*
X10524159D01*
Y6545485D01*
X10521431D01*
Y6542757D01*
X10515974D01*
Y6540029D01*
X10507790D01*
Y6537301D01*
X10499605D01*
Y6534572D01*
X10485964D01*
Y6531844D01*
X10480508D01*
Y6534572D01*
Y6537301D01*
Y6540029D01*
Y6542757D01*
Y6545485D01*
Y6548213D01*
Y6550942D01*
Y6553670D01*
Y6556398D01*
Y6559126D01*
Y6561854D01*
Y6564583D01*
X10483236D01*
Y6567311D01*
Y6570039D01*
Y6572767D01*
Y6575495D01*
X10485964D01*
Y6578223D01*
Y6580952D01*
X10488693D01*
Y6583680D01*
Y6586408D01*
X10491421D01*
Y6589136D01*
Y6591864D01*
X10494149D01*
Y6594593D01*
X10496877D01*
Y6597321D01*
X10499605D01*
Y6600049D01*
X10502333D01*
Y6602777D01*
X10505062D01*
Y6605505D01*
X10507790D01*
Y6608234D01*
X10510518D01*
Y6610962D01*
X10513246D01*
Y6613690D01*
X10518703D01*
Y6616418D01*
X10524159D01*
Y6619146D01*
X10529615D01*
Y6621874D01*
X10537800D01*
Y6624603D01*
X10543256D01*
Y6627331D01*
X10540528D01*
Y6630059D01*
X10535072D01*
Y6632787D01*
X10526887D01*
Y6635515D01*
X10505062D01*
Y6632787D01*
X10502333D01*
Y6630059D01*
Y6627331D01*
Y6624603D01*
X10499605D01*
Y6621874D01*
Y6619146D01*
X10496877D01*
Y6616418D01*
Y6613690D01*
X10494149D01*
Y6610962D01*
Y6608234D01*
X10491421D01*
Y6605505D01*
X10488693D01*
Y6602777D01*
X10485964D01*
Y6600049D01*
X10483236D01*
Y6597321D01*
X10480508D01*
Y6594593D01*
X10477780D01*
Y6591864D01*
X10475052D01*
Y6589136D01*
X10469595D01*
Y6586408D01*
X10466867D01*
Y6583680D01*
X10461411D01*
Y6580952D01*
X10453226D01*
Y6578223D01*
X10442313D01*
Y6575495D01*
X10439585D01*
Y6578223D01*
X10434129D01*
Y6580952D01*
Y6583680D01*
Y6586408D01*
Y6589136D01*
X10436857D01*
Y6591864D01*
Y6594593D01*
Y6597321D01*
Y6600049D01*
X10439585D01*
Y6602777D01*
Y6605505D01*
X10442313D01*
Y6608234D01*
Y6610962D01*
X10445041D01*
Y6613690D01*
Y6616418D01*
X10447770D01*
Y6619146D01*
X10450498D01*
Y6621874D01*
X10453226D01*
Y6624603D01*
X10455954D01*
Y6627331D01*
X10458682D01*
Y6630059D01*
X10461411D01*
Y6632787D01*
X10464139D01*
Y6635515D01*
X10469595D01*
Y6638244D01*
X10472323D01*
Y6640972D01*
X10480508D01*
Y6643700D01*
X10485964D01*
Y6646428D01*
X10494149D01*
Y6649156D01*
Y6651885D01*
Y6654613D01*
Y6657341D01*
Y6660069D01*
Y6662797D01*
Y6665525D01*
X10491421D01*
Y6668254D01*
Y6670982D01*
Y6673710D01*
X10488693D01*
Y6676438D01*
Y6679166D01*
Y6681894D01*
X10485964D01*
Y6684623D01*
X10483236D01*
Y6681894D01*
X10480508D01*
Y6679166D01*
Y6676438D01*
Y6673710D01*
Y6670982D01*
X10477780D01*
Y6668254D01*
Y6665525D01*
X10475052D01*
Y6662797D01*
Y6660069D01*
X10472323D01*
Y6657341D01*
X10469595D01*
Y6654613D01*
Y6651885D01*
X10466867D01*
Y6649156D01*
X10464139D01*
Y6646428D01*
X10461411D01*
Y6643700D01*
X10458682D01*
Y6640972D01*
X10455954D01*
Y6638244D01*
X10453226D01*
Y6635515D01*
X10447770D01*
Y6632787D01*
X10445041D01*
Y6630059D01*
X10439585D01*
Y6627331D01*
X10431401D01*
Y6624603D01*
X10423216D01*
Y6621874D01*
X10390478D01*
Y6624603D01*
Y6627331D01*
Y6630059D01*
Y6632787D01*
X10393206D01*
Y6635515D01*
Y6638244D01*
Y6640972D01*
Y6643700D01*
X10395934D01*
Y6646428D01*
Y6649156D01*
Y6651885D01*
X10398662D01*
Y6654613D01*
Y6657341D01*
X10401390D01*
Y6660069D01*
Y6662797D01*
X10404119D01*
Y6665525D01*
Y6668254D01*
X10406847D01*
Y6670982D01*
X10387750D01*
Y6673710D01*
X10379565D01*
Y6676438D01*
X10371381D01*
Y6679166D01*
X10365924D01*
Y6681894D01*
X10360468D01*
Y6684623D01*
X10357740D01*
Y6687351D01*
X10355012D01*
Y6690079D01*
X10349555D01*
Y6692807D01*
X10346827D01*
Y6695536D01*
X10344099D01*
Y6698264D01*
Y6700992D01*
Y6703720D01*
X10346827D01*
Y6706448D01*
X10349555D01*
Y6709176D01*
X10352283D01*
Y6711905D01*
X10355012D01*
Y6714633D01*
X10357740D01*
Y6717361D01*
X10363196D01*
Y6720089D01*
X10368652D01*
Y6722817D01*
X10374109D01*
Y6725546D01*
X10382293D01*
Y6728274D01*
X10393206D01*
Y6731002D01*
X10406847D01*
Y6733730D01*
X10404119D01*
Y6736458D01*
Y6739186D01*
X10401390D01*
Y6741915D01*
X10398662D01*
Y6744643D01*
Y6747371D01*
Y6750099D01*
X10395934D01*
Y6752827D01*
Y6755555D01*
X10393206D01*
Y6758284D01*
Y6761012D01*
Y6763740D01*
Y6766468D01*
Y6769197D01*
X10390478D01*
Y6771925D01*
Y6774653D01*
Y6777381D01*
X10395934D01*
Y6780109D01*
X10415031D01*
Y6777381D01*
X10428672D01*
Y6774653D01*
X10436857D01*
Y6771925D01*
X10442313D01*
Y6769197D01*
X10447770D01*
Y6766468D01*
X10450498D01*
Y6763740D01*
X10455954D01*
Y6761012D01*
X10458682D01*
Y6758284D01*
X10461411D01*
Y6755555D01*
X10464139D01*
Y6752827D01*
X10466867D01*
Y6750099D01*
Y6747371D01*
X10469595D01*
Y6744643D01*
X10472323D01*
Y6741915D01*
Y6739186D01*
X10475052D01*
Y6736458D01*
X10477780D01*
Y6733730D01*
Y6731002D01*
Y6728274D01*
X10480508D01*
Y6725546D01*
Y6722817D01*
Y6720089D01*
X10483236D01*
Y6717361D01*
Y6714633D01*
X10485964D01*
Y6717361D01*
Y6720089D01*
X10488693D01*
Y6722817D01*
Y6725546D01*
X10491421D01*
Y6728274D01*
Y6731002D01*
Y6733730D01*
X10494149D01*
Y6736458D01*
Y6739186D01*
Y6741915D01*
Y6744643D01*
Y6747371D01*
Y6750099D01*
Y6752827D01*
Y6755555D01*
X10488693D01*
Y6758284D01*
X10480508D01*
Y6761012D01*
X10475052D01*
Y6763740D01*
X10469595D01*
Y6766468D01*
X10464139D01*
Y6769197D01*
X10461411D01*
Y6771925D01*
X10458682D01*
Y6774653D01*
X10455954D01*
Y6777381D01*
X10453226D01*
Y6780109D01*
X10450498D01*
Y6782837D01*
X10447770D01*
Y6785566D01*
Y6788294D01*
X10445041D01*
Y6791022D01*
Y6793750D01*
X10442313D01*
Y6796478D01*
Y6799206D01*
X10439585D01*
Y6801935D01*
Y6804663D01*
X10436857D01*
Y6807391D01*
Y6810119D01*
Y6812847D01*
Y6815576D01*
X10434129D01*
Y6818304D01*
Y6821032D01*
X10436857D01*
Y6823760D01*
X10453226D01*
Y6821032D01*
X10461411D01*
Y6818304D01*
X10466867D01*
Y6815576D01*
X10472323D01*
Y6812847D01*
X10475052D01*
Y6810119D01*
X10477780D01*
Y6807391D01*
X10483236D01*
Y6804663D01*
X10485964D01*
Y6801935D01*
X10488693D01*
Y6799206D01*
Y6796478D01*
X10491421D01*
Y6793750D01*
X10494149D01*
Y6791022D01*
X10496877D01*
Y6788294D01*
Y6785566D01*
X10499605D01*
Y6782837D01*
Y6780109D01*
X10502333D01*
Y6777381D01*
Y6774653D01*
Y6771925D01*
X10505062D01*
Y6769197D01*
Y6766468D01*
X10529615D01*
Y6769197D01*
X10535072D01*
Y6771925D01*
X10540528D01*
Y6774653D01*
X10543256D01*
Y6777381D01*
X10535072D01*
Y6780109D01*
X10526887D01*
Y6782837D01*
X10521431D01*
Y6785566D01*
X10515974D01*
Y6788294D01*
X10513246D01*
Y6791022D01*
X10510518D01*
Y6793750D01*
X10505062D01*
Y6796478D01*
X10502333D01*
Y6799206D01*
X10499605D01*
Y6801935D01*
Y6804663D01*
X10496877D01*
Y6807391D01*
X10494149D01*
Y6810119D01*
X10491421D01*
Y6812847D01*
Y6815576D01*
X10488693D01*
Y6818304D01*
Y6821032D01*
X10485964D01*
Y6823760D01*
Y6826488D01*
Y6829217D01*
X10483236D01*
Y6831945D01*
Y6834673D01*
Y6837401D01*
X10480508D01*
Y6840129D01*
Y6842858D01*
Y6845586D01*
Y6848314D01*
Y6851042D01*
Y6853770D01*
Y6856499D01*
Y6859227D01*
Y6861955D01*
Y6864683D01*
Y6867411D01*
X10499605D01*
Y6864683D01*
X10507790D01*
Y6861955D01*
X10513246D01*
Y6859227D01*
X10518703D01*
Y6856499D01*
X10524159D01*
Y6853770D01*
X10529615D01*
Y6856499D01*
Y6859227D01*
Y6861955D01*
Y6864683D01*
Y6867411D01*
Y6870139D01*
Y6872868D01*
X10532343D01*
Y6875596D01*
Y6878324D01*
Y6881052D01*
X10535072D01*
Y6883780D01*
Y6886508D01*
Y6889237D01*
X10537800D01*
Y6891965D01*
Y6894693D01*
X10540528D01*
Y6897421D01*
X10543256D01*
Y6900150D01*
Y6902877D01*
X10545984D01*
Y6905606D01*
X10548713D01*
Y6908334D01*
X10551441D01*
Y6911062D01*
X10554169D01*
Y6913790D01*
X10556897D01*
Y6916519D01*
X10562354D01*
Y6913790D01*
D02*
G37*
G36*
X10717860Y6449999D02*
Y6447271D01*
X10712404D01*
Y6444542D01*
X10704219D01*
Y6441814D01*
X10701491D01*
Y6439086D01*
Y6436358D01*
Y6433629D01*
X10698763D01*
Y6430902D01*
Y6428173D01*
Y6425445D01*
Y6422717D01*
Y6419989D01*
Y6417260D01*
Y6414532D01*
Y6411804D01*
Y6409076D01*
Y6406348D01*
Y6403620D01*
Y6400891D01*
Y6398163D01*
Y6395435D01*
Y6392707D01*
Y6389979D01*
Y6387250D01*
Y6384522D01*
Y6381794D01*
Y6379066D01*
Y6376338D01*
Y6373610D01*
Y6370881D01*
Y6368153D01*
Y6365425D01*
Y6362697D01*
X10701491D01*
Y6359969D01*
Y6357240D01*
Y6354512D01*
X10704219D01*
Y6351784D01*
X10706947D01*
Y6349056D01*
X10712404D01*
Y6346328D01*
X10717860D01*
Y6343599D01*
Y6340871D01*
X10709676D01*
Y6343599D01*
X10663296D01*
Y6340871D01*
X10611461D01*
Y6343599D01*
X10608733D01*
Y6346328D01*
Y6349056D01*
Y6351784D01*
Y6354512D01*
Y6357240D01*
X10606004D01*
Y6359969D01*
Y6362697D01*
Y6365425D01*
Y6368153D01*
Y6370881D01*
Y6373610D01*
Y6376338D01*
Y6379066D01*
X10611461D01*
Y6376338D01*
Y6373610D01*
Y6370881D01*
X10614189D01*
Y6368153D01*
Y6365425D01*
X10616917D01*
Y6362697D01*
Y6359969D01*
X10619646D01*
Y6357240D01*
X10622373D01*
Y6354512D01*
X10627830D01*
Y6351784D01*
X10633286D01*
Y6349056D01*
X10668753D01*
Y6351784D01*
X10674209D01*
Y6354512D01*
X10676937D01*
Y6357240D01*
Y6359969D01*
Y6362697D01*
Y6365425D01*
Y6368153D01*
Y6370881D01*
Y6373610D01*
Y6376338D01*
Y6379066D01*
Y6381794D01*
Y6384522D01*
Y6387250D01*
Y6389979D01*
Y6392707D01*
Y6395435D01*
X10674209D01*
Y6392707D01*
X10663296D01*
Y6389979D01*
X10660568D01*
Y6387250D01*
Y6384522D01*
X10657840D01*
Y6381794D01*
Y6379066D01*
X10652384D01*
Y6381794D01*
Y6384522D01*
Y6387250D01*
Y6389979D01*
Y6392707D01*
Y6395435D01*
Y6398163D01*
Y6400891D01*
Y6403620D01*
Y6406348D01*
Y6409076D01*
Y6411804D01*
Y6414532D01*
Y6417260D01*
Y6419989D01*
X10657840D01*
Y6417260D01*
Y6414532D01*
Y6411804D01*
X10660568D01*
Y6409076D01*
X10663296D01*
Y6406348D01*
X10671481D01*
Y6403620D01*
X10676937D01*
Y6406348D01*
Y6409076D01*
Y6411804D01*
Y6414532D01*
Y6417260D01*
Y6419989D01*
Y6422717D01*
Y6425445D01*
Y6428173D01*
Y6430902D01*
Y6433629D01*
Y6436358D01*
Y6439086D01*
Y6441814D01*
Y6444542D01*
X10652384D01*
Y6441814D01*
X10646927D01*
Y6439086D01*
X10644199D01*
Y6436358D01*
X10641471D01*
Y6433629D01*
Y6430902D01*
Y6428173D01*
X10638743D01*
Y6425445D01*
Y6422717D01*
X10636015D01*
Y6425445D01*
X10633286D01*
Y6428173D01*
Y6430902D01*
Y6433629D01*
Y6436358D01*
Y6439086D01*
Y6441814D01*
Y6444542D01*
Y6447271D01*
Y6449999D01*
Y6452727D01*
X10717860D01*
Y6449999D01*
D02*
G37*
G36*
X11064340D02*
Y6447271D01*
X11058883D01*
Y6444542D01*
X11050699D01*
Y6441814D01*
X11047971D01*
Y6439086D01*
X11045243D01*
Y6436358D01*
Y6433629D01*
Y6430902D01*
X11042514D01*
Y6428173D01*
Y6425445D01*
Y6422717D01*
Y6419989D01*
Y6417260D01*
Y6414532D01*
Y6411804D01*
Y6409076D01*
Y6406348D01*
Y6403620D01*
Y6400891D01*
Y6398163D01*
Y6395435D01*
Y6392707D01*
X11045243D01*
Y6389979D01*
Y6387250D01*
Y6384522D01*
Y6381794D01*
Y6379066D01*
Y6376338D01*
Y6373610D01*
Y6370881D01*
Y6368153D01*
Y6365425D01*
Y6362697D01*
Y6359969D01*
X11047971D01*
Y6357240D01*
Y6354512D01*
X11050699D01*
Y6351784D01*
X11053427D01*
Y6349056D01*
X11058883D01*
Y6346328D01*
X11064340D01*
Y6343599D01*
X11015232D01*
Y6340871D01*
X11012504D01*
Y6343599D01*
Y6346328D01*
X11015232D01*
Y6349056D01*
X11023417D01*
Y6351784D01*
X11028873D01*
Y6354512D01*
X11031602D01*
Y6357240D01*
X11034330D01*
Y6359969D01*
Y6362697D01*
Y6365425D01*
Y6368153D01*
Y6370881D01*
Y6373610D01*
Y6376338D01*
X11037058D01*
Y6379066D01*
Y6381794D01*
Y6384522D01*
Y6387250D01*
Y6389979D01*
Y6392707D01*
Y6395435D01*
Y6398163D01*
Y6400891D01*
Y6403620D01*
Y6406348D01*
Y6409076D01*
Y6411804D01*
Y6414532D01*
Y6417260D01*
Y6419989D01*
Y6422717D01*
X11034330D01*
Y6419989D01*
X11031602D01*
Y6417260D01*
X11028873D01*
Y6414532D01*
X11026145D01*
Y6411804D01*
X11023417D01*
Y6409076D01*
X11020689D01*
Y6406348D01*
X11017961D01*
Y6403620D01*
X11015232D01*
Y6400891D01*
X11012504D01*
Y6398163D01*
Y6395435D01*
X11009776D01*
Y6392707D01*
X11007048D01*
Y6389979D01*
X11004320D01*
Y6387250D01*
X11001591D01*
Y6384522D01*
X10998863D01*
Y6381794D01*
X10996135D01*
Y6379066D01*
X10993407D01*
Y6376338D01*
X10990679D01*
Y6373610D01*
X10987951D01*
Y6370881D01*
X10985222D01*
Y6368153D01*
Y6365425D01*
X10982494D01*
Y6362697D01*
X10979766D01*
Y6359969D01*
X10977038D01*
Y6357240D01*
X10974310D01*
Y6354512D01*
X10971581D01*
Y6351784D01*
X10968853D01*
Y6349056D01*
X10966125D01*
Y6346328D01*
X10963397D01*
Y6343599D01*
Y6340871D01*
X10960669D01*
Y6338143D01*
X10955212D01*
Y6340871D01*
X10952484D01*
Y6343599D01*
Y6346328D01*
Y6349056D01*
Y6351784D01*
Y6354512D01*
Y6357240D01*
Y6359969D01*
Y6362697D01*
Y6365425D01*
Y6368153D01*
Y6370881D01*
Y6373610D01*
Y6376338D01*
Y6379066D01*
Y6381794D01*
Y6384522D01*
Y6387250D01*
Y6389979D01*
Y6392707D01*
Y6395435D01*
Y6398163D01*
Y6400891D01*
Y6403620D01*
Y6406348D01*
Y6409076D01*
Y6411804D01*
Y6414532D01*
Y6417260D01*
Y6419989D01*
Y6422717D01*
Y6425445D01*
Y6428173D01*
X10949756D01*
Y6430902D01*
Y6433629D01*
Y6436358D01*
Y6439086D01*
Y6441814D01*
X10947028D01*
Y6444542D01*
X10941571D01*
Y6447271D01*
X10936115D01*
Y6449999D01*
Y6452727D01*
X10982494D01*
Y6449999D01*
Y6447271D01*
X10974310D01*
Y6444542D01*
X10968853D01*
Y6441814D01*
X10966125D01*
Y6439086D01*
X10963397D01*
Y6436358D01*
Y6433629D01*
X10960669D01*
Y6430902D01*
Y6428173D01*
Y6425445D01*
Y6422717D01*
Y6419989D01*
Y6417260D01*
Y6414532D01*
Y6411804D01*
Y6409076D01*
Y6406348D01*
Y6403620D01*
Y6400891D01*
Y6398163D01*
Y6395435D01*
Y6392707D01*
Y6389979D01*
Y6387250D01*
Y6384522D01*
Y6381794D01*
Y6379066D01*
Y6376338D01*
X10963397D01*
Y6379066D01*
X10966125D01*
Y6381794D01*
X10968853D01*
Y6384522D01*
X10971581D01*
Y6387250D01*
X10974310D01*
Y6389979D01*
X10977038D01*
Y6392707D01*
X10979766D01*
Y6395435D01*
Y6398163D01*
X10982494D01*
Y6400891D01*
X10985222D01*
Y6403620D01*
X10987951D01*
Y6406348D01*
X10990679D01*
Y6409076D01*
X10993407D01*
Y6411804D01*
X10996135D01*
Y6414532D01*
X10998863D01*
Y6417260D01*
X11001591D01*
Y6419989D01*
Y6422717D01*
X11004320D01*
Y6425445D01*
X11007048D01*
Y6428173D01*
X11009776D01*
Y6430902D01*
X11012504D01*
Y6433629D01*
X11015232D01*
Y6436358D01*
X11017961D01*
Y6439086D01*
Y6441814D01*
X11020689D01*
Y6444542D01*
X11023417D01*
Y6447271D01*
X11026145D01*
Y6449999D01*
X11028873D01*
Y6452727D01*
X11064340D01*
Y6449999D01*
D02*
G37*
G36*
X10851541D02*
Y6447271D01*
X10846085D01*
Y6444542D01*
X10843357D01*
Y6441814D01*
X10840629D01*
Y6439086D01*
X10837900D01*
Y6436358D01*
X10835172D01*
Y6433629D01*
Y6430902D01*
X10832444D01*
Y6428173D01*
Y6425445D01*
X10829716D01*
Y6422717D01*
Y6419989D01*
Y6417260D01*
X10826987D01*
Y6414532D01*
Y6411804D01*
X10824260D01*
Y6409076D01*
Y6406348D01*
X10821531D01*
Y6403620D01*
Y6400891D01*
Y6398163D01*
X10818803D01*
Y6395435D01*
Y6392707D01*
X10816075D01*
Y6389979D01*
Y6387250D01*
Y6384522D01*
X10813347D01*
Y6381794D01*
Y6379066D01*
X10810618D01*
Y6376338D01*
Y6373610D01*
X10807890D01*
Y6370881D01*
Y6368153D01*
Y6365425D01*
X10805162D01*
Y6362697D01*
Y6359969D01*
X10802434D01*
Y6357240D01*
Y6354512D01*
Y6351784D01*
X10799706D01*
Y6349056D01*
Y6346328D01*
X10796978D01*
Y6343599D01*
Y6340871D01*
X10794249D01*
Y6338143D01*
X10788793D01*
Y6340871D01*
X10786065D01*
Y6343599D01*
Y6346328D01*
X10783337D01*
Y6349056D01*
Y6351784D01*
X10780608D01*
Y6354512D01*
Y6357240D01*
Y6359969D01*
X10777880D01*
Y6362697D01*
Y6365425D01*
X10775152D01*
Y6368153D01*
Y6370881D01*
X10772424D01*
Y6373610D01*
Y6376338D01*
Y6379066D01*
X10769696D01*
Y6381794D01*
Y6384522D01*
X10766968D01*
Y6387250D01*
Y6389979D01*
Y6392707D01*
X10764239D01*
Y6395435D01*
Y6398163D01*
X10761511D01*
Y6400891D01*
Y6403620D01*
X10758783D01*
Y6406348D01*
Y6409076D01*
Y6411804D01*
X10756055D01*
Y6414532D01*
Y6417260D01*
X10753326D01*
Y6419989D01*
Y6422717D01*
X10750598D01*
Y6425445D01*
Y6428173D01*
Y6430902D01*
X10747870D01*
Y6433629D01*
Y6436358D01*
X10745142D01*
Y6439086D01*
X10742414D01*
Y6441814D01*
X10739686D01*
Y6444542D01*
X10734229D01*
Y6447271D01*
X10728773D01*
Y6449999D01*
Y6452727D01*
X10777880D01*
Y6449999D01*
Y6447271D01*
X10769696D01*
Y6444542D01*
X10764239D01*
Y6441814D01*
X10761511D01*
Y6439086D01*
Y6436358D01*
Y6433629D01*
Y6430902D01*
Y6428173D01*
X10764239D01*
Y6425445D01*
Y6422717D01*
Y6419989D01*
X10766968D01*
Y6417260D01*
Y6414532D01*
Y6411804D01*
X10769696D01*
Y6409076D01*
Y6406348D01*
Y6403620D01*
X10772424D01*
Y6400891D01*
Y6398163D01*
Y6395435D01*
X10775152D01*
Y6392707D01*
Y6389979D01*
Y6387250D01*
X10777880D01*
Y6384522D01*
Y6381794D01*
Y6379066D01*
X10780608D01*
Y6376338D01*
Y6373610D01*
X10783337D01*
Y6370881D01*
Y6368153D01*
X10786065D01*
Y6370881D01*
Y6373610D01*
X10788793D01*
Y6376338D01*
Y6379066D01*
Y6381794D01*
X10791521D01*
Y6384522D01*
Y6387250D01*
Y6389979D01*
X10794249D01*
Y6392707D01*
Y6395435D01*
X10796978D01*
Y6398163D01*
Y6400891D01*
Y6403620D01*
X10799706D01*
Y6406348D01*
Y6409076D01*
X10802434D01*
Y6411804D01*
Y6414532D01*
Y6417260D01*
X10805162D01*
Y6419989D01*
Y6422717D01*
X10807890D01*
Y6425445D01*
Y6428173D01*
Y6430902D01*
X10810618D01*
Y6433629D01*
Y6436358D01*
Y6439086D01*
Y6441814D01*
X10807890D01*
Y6444542D01*
X10802434D01*
Y6447271D01*
X10796978D01*
Y6449999D01*
Y6452727D01*
X10851541D01*
Y6449999D01*
D02*
G37*
G36*
X11206205D02*
Y6447271D01*
X11198021D01*
Y6444542D01*
X11192565D01*
Y6441814D01*
X11189836D01*
Y6439086D01*
X11187108D01*
Y6436358D01*
Y6433629D01*
Y6430902D01*
Y6428173D01*
Y6425445D01*
Y6422717D01*
Y6419989D01*
Y6417260D01*
Y6414532D01*
Y6411804D01*
Y6409076D01*
Y6406348D01*
Y6403620D01*
Y6400891D01*
Y6398163D01*
Y6395435D01*
Y6392707D01*
Y6389979D01*
Y6387250D01*
Y6384522D01*
Y6381794D01*
Y6379066D01*
Y6376338D01*
Y6373610D01*
Y6370881D01*
X11184380D01*
Y6368153D01*
Y6365425D01*
Y6362697D01*
Y6359969D01*
X11181652D01*
Y6357240D01*
Y6354512D01*
X11178924D01*
Y6351784D01*
X11176195D01*
Y6349056D01*
X11173467D01*
Y6346328D01*
X11168011D01*
Y6343599D01*
X11162555D01*
Y6340871D01*
X11121632D01*
Y6343599D01*
X11113447D01*
Y6346328D01*
X11110719D01*
Y6349056D01*
X11105263D01*
Y6351784D01*
X11102534D01*
Y6354512D01*
Y6357240D01*
X11099806D01*
Y6359969D01*
Y6362697D01*
X11097078D01*
Y6365425D01*
Y6368153D01*
Y6370881D01*
Y6373610D01*
X11094350D01*
Y6376338D01*
Y6379066D01*
Y6381794D01*
Y6384522D01*
Y6387250D01*
Y6389979D01*
Y6392707D01*
Y6395435D01*
Y6398163D01*
Y6400891D01*
Y6403620D01*
Y6406348D01*
Y6409076D01*
Y6411804D01*
Y6414532D01*
Y6417260D01*
Y6419989D01*
Y6422717D01*
X11091621D01*
Y6425445D01*
Y6428173D01*
Y6430902D01*
Y6433629D01*
Y6436358D01*
Y6439086D01*
X11088893D01*
Y6441814D01*
X11086165D01*
Y6444542D01*
X11083437D01*
Y6447271D01*
X11077981D01*
Y6449999D01*
Y6452727D01*
X11124360D01*
Y6449999D01*
Y6447271D01*
X11116175D01*
Y6444542D01*
X11110719D01*
Y6441814D01*
X11107991D01*
Y6439086D01*
X11105263D01*
Y6436358D01*
Y6433629D01*
Y6430902D01*
X11102534D01*
Y6428173D01*
Y6425445D01*
Y6422717D01*
Y6419989D01*
Y6417260D01*
Y6414532D01*
Y6411804D01*
Y6409076D01*
Y6406348D01*
Y6403620D01*
Y6400891D01*
Y6398163D01*
Y6395435D01*
Y6392707D01*
Y6389979D01*
Y6387250D01*
Y6384522D01*
Y6381794D01*
Y6379066D01*
Y6376338D01*
Y6373610D01*
Y6370881D01*
X11105263D01*
Y6368153D01*
Y6365425D01*
Y6362697D01*
X11107991D01*
Y6359969D01*
X11110719D01*
Y6357240D01*
X11113447D01*
Y6354512D01*
X11116175D01*
Y6351784D01*
X11124360D01*
Y6349056D01*
X11138001D01*
Y6351784D01*
X11146185D01*
Y6354512D01*
X11151642D01*
Y6357240D01*
X11154370D01*
Y6359969D01*
X11157098D01*
Y6362697D01*
X11159826D01*
Y6365425D01*
X11162555D01*
Y6368153D01*
Y6370881D01*
Y6373610D01*
X11165283D01*
Y6376338D01*
Y6379066D01*
Y6381794D01*
Y6384522D01*
Y6387250D01*
Y6389979D01*
Y6392707D01*
Y6395435D01*
Y6398163D01*
Y6400891D01*
Y6403620D01*
Y6406348D01*
Y6409076D01*
Y6411804D01*
Y6414532D01*
Y6417260D01*
Y6419989D01*
Y6422717D01*
Y6425445D01*
Y6428173D01*
Y6430902D01*
Y6433629D01*
X11162555D01*
Y6436358D01*
Y6439086D01*
Y6441814D01*
X11159826D01*
Y6444542D01*
X11151642D01*
Y6447271D01*
X11143457D01*
Y6449999D01*
Y6452727D01*
X11206205D01*
Y6449999D01*
D02*
G37*
G36*
X10592364D02*
Y6447271D01*
X10584179D01*
Y6444542D01*
X10578723D01*
Y6441814D01*
X10575995D01*
Y6439086D01*
Y6436358D01*
Y6433629D01*
Y6430902D01*
X10573266D01*
Y6428173D01*
Y6425445D01*
Y6422717D01*
Y6419989D01*
Y6417260D01*
Y6414532D01*
Y6411804D01*
Y6409076D01*
Y6406348D01*
Y6403620D01*
Y6400891D01*
Y6398163D01*
Y6395435D01*
Y6392707D01*
Y6389979D01*
Y6387250D01*
Y6384522D01*
Y6381794D01*
Y6379066D01*
Y6376338D01*
Y6373610D01*
Y6370881D01*
Y6368153D01*
Y6365425D01*
X10575995D01*
Y6362697D01*
Y6359969D01*
Y6357240D01*
Y6354512D01*
X10578723D01*
Y6351784D01*
X10581451D01*
Y6349056D01*
X10592364D01*
Y6346328D01*
Y6343599D01*
X10529615D01*
Y6346328D01*
Y6349056D01*
X10540528D01*
Y6351784D01*
X10545984D01*
Y6354512D01*
X10548713D01*
Y6357240D01*
X10551441D01*
Y6359969D01*
Y6362697D01*
Y6365425D01*
Y6368153D01*
Y6370881D01*
Y6373610D01*
X10554169D01*
Y6376338D01*
Y6379066D01*
Y6381794D01*
Y6384522D01*
Y6387250D01*
Y6389979D01*
Y6392707D01*
X10543256D01*
Y6389979D01*
X10540528D01*
Y6387250D01*
X10537800D01*
Y6384522D01*
X10535072D01*
Y6381794D01*
Y6379066D01*
X10532343D01*
Y6376338D01*
X10529615D01*
Y6373610D01*
Y6370881D01*
X10526887D01*
Y6368153D01*
Y6365425D01*
X10524159D01*
Y6362697D01*
X10521431D01*
Y6359969D01*
Y6357240D01*
X10518703D01*
Y6354512D01*
X10515974D01*
Y6351784D01*
X10513246D01*
Y6349056D01*
X10510518D01*
Y6346328D01*
X10505062D01*
Y6343599D01*
X10491421D01*
Y6340871D01*
X10466867D01*
Y6343599D01*
Y6346328D01*
X10475052D01*
Y6349056D01*
X10480508D01*
Y6351784D01*
X10483236D01*
Y6354512D01*
X10488693D01*
Y6357240D01*
X10491421D01*
Y6359969D01*
X10494149D01*
Y6362697D01*
X10496877D01*
Y6365425D01*
X10499605D01*
Y6368153D01*
X10502333D01*
Y6370881D01*
Y6373610D01*
X10505062D01*
Y6376338D01*
X10507790D01*
Y6379066D01*
X10510518D01*
Y6381794D01*
Y6384522D01*
X10513246D01*
Y6387250D01*
Y6389979D01*
X10515974D01*
Y6392707D01*
X10518703D01*
Y6395435D01*
Y6398163D01*
Y6400891D01*
X10515974D01*
Y6403620D01*
X10510518D01*
Y6406348D01*
X10507790D01*
Y6409076D01*
X10505062D01*
Y6411804D01*
Y6414532D01*
X10502333D01*
Y6417260D01*
Y6419989D01*
Y6422717D01*
Y6425445D01*
Y6428173D01*
Y6430902D01*
Y6433629D01*
Y6436358D01*
X10505062D01*
Y6439086D01*
Y6441814D01*
X10507790D01*
Y6444542D01*
X10510518D01*
Y6447271D01*
X10515974D01*
Y6449999D01*
X10524159D01*
Y6452727D01*
X10592364D01*
Y6449999D01*
D02*
G37*
G36*
X10371381D02*
Y6447271D01*
X10360468D01*
Y6444542D01*
X10355012D01*
Y6441814D01*
Y6439086D01*
X10352283D01*
Y6436358D01*
Y6433629D01*
Y6430902D01*
Y6428173D01*
X10349555D01*
Y6425445D01*
Y6422717D01*
Y6419989D01*
Y6417260D01*
Y6414532D01*
Y6411804D01*
Y6409076D01*
Y6406348D01*
Y6403620D01*
Y6400891D01*
Y6398163D01*
Y6395435D01*
Y6392707D01*
Y6389979D01*
Y6387250D01*
Y6384522D01*
Y6381794D01*
Y6379066D01*
Y6376338D01*
Y6373610D01*
Y6370881D01*
Y6368153D01*
Y6365425D01*
X10352283D01*
Y6362697D01*
Y6359969D01*
Y6357240D01*
Y6354512D01*
X10355012D01*
Y6351784D01*
X10357740D01*
Y6349056D01*
X10365924D01*
Y6346328D01*
X10371381D01*
Y6343599D01*
X10308632D01*
Y6346328D01*
X10314089D01*
Y6349056D01*
X10322273D01*
Y6351784D01*
X10325001D01*
Y6354512D01*
X10327730D01*
Y6357240D01*
Y6359969D01*
Y6362697D01*
Y6365425D01*
Y6368153D01*
Y6370881D01*
Y6373610D01*
X10330458D01*
Y6376338D01*
Y6379066D01*
Y6381794D01*
Y6384522D01*
Y6387250D01*
Y6389979D01*
Y6392707D01*
Y6395435D01*
Y6398163D01*
Y6400891D01*
Y6403620D01*
Y6406348D01*
Y6409076D01*
Y6411804D01*
Y6414532D01*
Y6417260D01*
Y6419989D01*
Y6422717D01*
X10327730D01*
Y6425445D01*
Y6428173D01*
Y6430902D01*
Y6433629D01*
Y6436358D01*
Y6439086D01*
X10325001D01*
Y6441814D01*
X10322273D01*
Y6444542D01*
X10316817D01*
Y6447271D01*
X10308632D01*
Y6449999D01*
Y6452727D01*
X10371381D01*
Y6449999D01*
D02*
G37*
G36*
X10297720D02*
Y6447271D01*
X10289535D01*
Y6444542D01*
X10284078D01*
Y6441814D01*
X10281350D01*
Y6439086D01*
X10278622D01*
Y6436358D01*
Y6433629D01*
Y6430902D01*
Y6428173D01*
Y6425445D01*
X10275894D01*
Y6422717D01*
Y6419989D01*
Y6417260D01*
Y6414532D01*
Y6411804D01*
Y6409076D01*
Y6406348D01*
Y6403620D01*
Y6400891D01*
Y6398163D01*
Y6395435D01*
Y6392707D01*
Y6389979D01*
Y6387250D01*
Y6384522D01*
Y6381794D01*
Y6379066D01*
Y6376338D01*
Y6373610D01*
Y6370881D01*
X10278622D01*
Y6368153D01*
Y6365425D01*
Y6362697D01*
Y6359969D01*
Y6357240D01*
Y6354512D01*
X10281350D01*
Y6351784D01*
X10284078D01*
Y6349056D01*
X10292263D01*
Y6346328D01*
X10297720D01*
Y6343599D01*
X10215874D01*
Y6346328D01*
X10207689D01*
Y6349056D01*
X10202233D01*
Y6351784D01*
X10199505D01*
Y6354512D01*
X10194048D01*
Y6357240D01*
X10191320D01*
Y6359969D01*
X10188592D01*
Y6362697D01*
X10185864D01*
Y6365425D01*
X10183136D01*
Y6368153D01*
Y6370881D01*
X10180407D01*
Y6373610D01*
Y6376338D01*
X10177679D01*
Y6379066D01*
Y6381794D01*
Y6384522D01*
Y6387250D01*
X10174951D01*
Y6389979D01*
Y6392707D01*
Y6395435D01*
Y6398163D01*
Y6400891D01*
Y6403620D01*
X10177679D01*
Y6406348D01*
Y6409076D01*
Y6411804D01*
Y6414532D01*
Y6417260D01*
X10180407D01*
Y6419989D01*
Y6422717D01*
X10183136D01*
Y6425445D01*
X10185864D01*
Y6428173D01*
Y6430902D01*
X10188592D01*
Y6433629D01*
X10191320D01*
Y6436358D01*
X10194048D01*
Y6439086D01*
X10196776D01*
Y6441814D01*
X10202233D01*
Y6444542D01*
X10207689D01*
Y6447271D01*
X10215874D01*
Y6449999D01*
X10226787D01*
Y6452727D01*
X10297720D01*
Y6449999D01*
D02*
G37*
G36*
X10104018Y6463640D02*
Y6460911D01*
Y6458183D01*
Y6455455D01*
X10106747D01*
Y6452727D01*
X10109475D01*
Y6449999D01*
X10112203D01*
Y6447271D01*
X10114931D01*
Y6444542D01*
Y6441814D01*
Y6439086D01*
X10117659D01*
Y6436358D01*
Y6433629D01*
X10120387D01*
Y6430902D01*
Y6428173D01*
Y6425445D01*
X10123116D01*
Y6422717D01*
Y6419989D01*
X10125844D01*
Y6417260D01*
Y6414532D01*
Y6411804D01*
X10128572D01*
Y6409076D01*
Y6406348D01*
X10131300D01*
Y6403620D01*
Y6400891D01*
Y6398163D01*
X10134028D01*
Y6395435D01*
Y6392707D01*
Y6389979D01*
X10136756D01*
Y6387250D01*
Y6384522D01*
X10139485D01*
Y6381794D01*
Y6379066D01*
Y6376338D01*
X10142213D01*
Y6373610D01*
Y6370881D01*
X10144941D01*
Y6368153D01*
Y6365425D01*
X10147669D01*
Y6362697D01*
Y6359969D01*
X10150398D01*
Y6357240D01*
Y6354512D01*
X10153125D01*
Y6351784D01*
X10158582D01*
Y6349056D01*
X10164038D01*
Y6346328D01*
Y6343599D01*
X10114931D01*
Y6346328D01*
X10120387D01*
Y6349056D01*
X10128572D01*
Y6351784D01*
X10131300D01*
Y6354512D01*
X10134028D01*
Y6357240D01*
Y6359969D01*
Y6362697D01*
Y6365425D01*
Y6368153D01*
X10131300D01*
Y6370881D01*
Y6373610D01*
Y6376338D01*
Y6379066D01*
X10128572D01*
Y6381794D01*
Y6384522D01*
X10125844D01*
Y6387250D01*
X10095834D01*
Y6384522D01*
X10093106D01*
Y6381794D01*
Y6379066D01*
X10090377D01*
Y6376338D01*
Y6373610D01*
X10087649D01*
Y6370881D01*
Y6368153D01*
Y6365425D01*
X10084921D01*
Y6362697D01*
Y6359969D01*
Y6357240D01*
Y6354512D01*
Y6351784D01*
X10087649D01*
Y6349056D01*
X10095834D01*
Y6346328D01*
Y6343599D01*
X10043998D01*
Y6346328D01*
Y6349056D01*
X10052183D01*
Y6351784D01*
X10054911D01*
Y6354512D01*
X10057639D01*
Y6357240D01*
X10060367D01*
Y6359969D01*
Y6362697D01*
X10063095D01*
Y6365425D01*
Y6368153D01*
X10065824D01*
Y6370881D01*
Y6373610D01*
Y6376338D01*
X10068552D01*
Y6379066D01*
Y6381794D01*
Y6384522D01*
X10071280D01*
Y6387250D01*
Y6389979D01*
X10074008D01*
Y6392707D01*
Y6395435D01*
Y6398163D01*
X10076736D01*
Y6400891D01*
Y6403620D01*
Y6406348D01*
X10079464D01*
Y6409076D01*
Y6411804D01*
X10082193D01*
Y6414532D01*
Y6417260D01*
Y6419989D01*
X10084921D01*
Y6422717D01*
Y6425445D01*
Y6428173D01*
X10087649D01*
Y6430902D01*
Y6433629D01*
X10090377D01*
Y6436358D01*
Y6439086D01*
Y6441814D01*
X10093106D01*
Y6444542D01*
Y6447271D01*
Y6449999D01*
X10095834D01*
Y6452727D01*
Y6455455D01*
X10098562D01*
Y6458183D01*
Y6460911D01*
Y6463640D01*
X10101290D01*
Y6466368D01*
X10104018D01*
Y6463640D01*
D02*
G37*
G36*
X10011260Y6452727D02*
X10033085D01*
Y6449999D01*
X10030357D01*
Y6447271D01*
X10022173D01*
Y6444542D01*
X10019445D01*
Y6441814D01*
X10013988D01*
Y6439086D01*
Y6436358D01*
Y6433629D01*
Y6430902D01*
Y6428173D01*
X10011260D01*
Y6425445D01*
Y6422717D01*
Y6419989D01*
Y6417260D01*
Y6414532D01*
Y6411804D01*
Y6409076D01*
Y6406348D01*
Y6403620D01*
Y6400891D01*
Y6398163D01*
Y6395435D01*
Y6392707D01*
Y6389979D01*
Y6387250D01*
Y6384522D01*
Y6381794D01*
Y6379066D01*
Y6376338D01*
Y6373610D01*
Y6370881D01*
Y6368153D01*
X10013988D01*
Y6365425D01*
Y6362697D01*
Y6359969D01*
Y6357240D01*
Y6354512D01*
X10016716D01*
Y6351784D01*
X10022173D01*
Y6349056D01*
X10030357D01*
Y6346328D01*
X10033085D01*
Y6343599D01*
X9956696D01*
Y6346328D01*
X9945784D01*
Y6349056D01*
X9940327D01*
Y6351784D01*
X9934871D01*
Y6354512D01*
X9932142D01*
Y6357240D01*
X9926686D01*
Y6359969D01*
X9923958D01*
Y6362697D01*
X9921230D01*
Y6365425D01*
Y6368153D01*
X9918502D01*
Y6370881D01*
X9915773D01*
Y6373610D01*
Y6376338D01*
X9913045D01*
Y6379066D01*
Y6381794D01*
Y6384522D01*
Y6387250D01*
X9910317D01*
Y6389979D01*
Y6392707D01*
Y6395435D01*
Y6398163D01*
Y6400891D01*
Y6403620D01*
Y6406348D01*
X9913045D01*
Y6409076D01*
Y6411804D01*
Y6414532D01*
Y6417260D01*
X9915773D01*
Y6419989D01*
Y6422717D01*
X9918502D01*
Y6425445D01*
Y6428173D01*
X9921230D01*
Y6430902D01*
X9923958D01*
Y6433629D01*
X9926686D01*
Y6436358D01*
X9929414D01*
Y6439086D01*
X9932142D01*
Y6441814D01*
X9937599D01*
Y6444542D01*
X9940327D01*
Y6447271D01*
X9948511D01*
Y6449999D01*
X9956696D01*
Y6452727D01*
X9981250D01*
Y6455455D01*
X10011260D01*
Y6452727D01*
D02*
G37*
G36*
X10925202Y6449999D02*
Y6447271D01*
X10917018D01*
Y6444542D01*
X10911561D01*
Y6441814D01*
X10908833D01*
Y6439086D01*
X10906105D01*
Y6436358D01*
Y6433629D01*
Y6430902D01*
Y6428173D01*
Y6425445D01*
Y6422717D01*
Y6419989D01*
Y6417260D01*
X10903377D01*
Y6414532D01*
Y6411804D01*
Y6409076D01*
Y6406348D01*
Y6403620D01*
Y6400891D01*
Y6398163D01*
Y6395435D01*
Y6392707D01*
Y6389979D01*
Y6387250D01*
Y6384522D01*
Y6381794D01*
Y6379066D01*
Y6376338D01*
X10906105D01*
Y6373610D01*
Y6370881D01*
Y6368153D01*
Y6365425D01*
Y6362697D01*
Y6359969D01*
Y6357240D01*
X10908833D01*
Y6354512D01*
Y6351784D01*
X10911561D01*
Y6349056D01*
X10919746D01*
Y6346328D01*
X10925202D01*
Y6343599D01*
Y6340871D01*
X10922474D01*
Y6343599D01*
X10865182D01*
Y6340871D01*
X10862454D01*
Y6343599D01*
Y6346328D01*
X10870638D01*
Y6349056D01*
X10876095D01*
Y6351784D01*
X10878823D01*
Y6354512D01*
X10881551D01*
Y6357240D01*
Y6359969D01*
Y6362697D01*
Y6365425D01*
X10884279D01*
Y6368153D01*
Y6370881D01*
Y6373610D01*
Y6376338D01*
Y6379066D01*
Y6381794D01*
Y6384522D01*
Y6387250D01*
Y6389979D01*
Y6392707D01*
Y6395435D01*
Y6398163D01*
Y6400891D01*
Y6403620D01*
Y6406348D01*
Y6409076D01*
Y6411804D01*
Y6414532D01*
Y6417260D01*
Y6419989D01*
Y6422717D01*
Y6425445D01*
Y6428173D01*
Y6430902D01*
X10881551D01*
Y6433629D01*
Y6436358D01*
Y6439086D01*
X10878823D01*
Y6441814D01*
Y6444542D01*
X10870638D01*
Y6447271D01*
X10862454D01*
Y6449999D01*
Y6452727D01*
X10925202D01*
Y6449999D01*
D02*
G37*
G36*
X10420488Y6452727D02*
X10428672D01*
Y6449999D01*
X10434129D01*
Y6447271D01*
X10439585D01*
Y6444542D01*
X10442313D01*
Y6441814D01*
X10445041D01*
Y6439086D01*
Y6436358D01*
X10447770D01*
Y6433629D01*
Y6430902D01*
Y6428173D01*
Y6425445D01*
Y6422717D01*
Y6419989D01*
Y6417260D01*
Y6414532D01*
Y6411804D01*
Y6409076D01*
X10445041D01*
Y6406348D01*
X10442313D01*
Y6403620D01*
X10439585D01*
Y6400891D01*
X10436857D01*
Y6398163D01*
X10434129D01*
Y6395435D01*
X10428672D01*
Y6392707D01*
X10423216D01*
Y6389979D01*
X10420488D01*
Y6387250D01*
X10415031D01*
Y6384522D01*
X10412303D01*
Y6381794D01*
X10409575D01*
Y6379066D01*
X10406847D01*
Y6376338D01*
X10404119D01*
Y6373610D01*
X10401390D01*
Y6370881D01*
Y6368153D01*
Y6365425D01*
X10398662D01*
Y6362697D01*
X10401390D01*
Y6359969D01*
Y6357240D01*
Y6354512D01*
X10404119D01*
Y6351784D01*
X10406847D01*
Y6349056D01*
X10412303D01*
Y6346328D01*
X10420488D01*
Y6349056D01*
X10428672D01*
Y6351784D01*
X10434129D01*
Y6354512D01*
X10436857D01*
Y6357240D01*
X10439585D01*
Y6359969D01*
X10442313D01*
Y6362697D01*
Y6365425D01*
X10445041D01*
Y6368153D01*
Y6370881D01*
X10447770D01*
Y6373610D01*
Y6376338D01*
X10450498D01*
Y6379066D01*
Y6381794D01*
X10455954D01*
Y6379066D01*
Y6376338D01*
Y6373610D01*
Y6370881D01*
Y6368153D01*
X10453226D01*
Y6365425D01*
Y6362697D01*
Y6359969D01*
Y6357240D01*
Y6354512D01*
Y6351784D01*
Y6349056D01*
X10450498D01*
Y6346328D01*
X10445041D01*
Y6343599D01*
X10436857D01*
Y6340871D01*
X10401390D01*
Y6343599D01*
X10395934D01*
Y6346328D01*
X10390478D01*
Y6349056D01*
X10387750D01*
Y6351784D01*
X10385021D01*
Y6354512D01*
X10382293D01*
Y6357240D01*
Y6359969D01*
X10379565D01*
Y6362697D01*
Y6365425D01*
Y6368153D01*
Y6370881D01*
Y6373610D01*
Y6376338D01*
Y6379066D01*
Y6381794D01*
Y6384522D01*
X10382293D01*
Y6387250D01*
Y6389979D01*
X10385021D01*
Y6392707D01*
X10387750D01*
Y6395435D01*
X10390478D01*
Y6398163D01*
X10395934D01*
Y6400891D01*
X10398662D01*
Y6403620D01*
X10404119D01*
Y6406348D01*
X10406847D01*
Y6409076D01*
X10412303D01*
Y6411804D01*
X10415031D01*
Y6414532D01*
X10417760D01*
Y6417260D01*
X10420488D01*
Y6419989D01*
X10423216D01*
Y6422717D01*
X10425944D01*
Y6425445D01*
X10428672D01*
Y6428173D01*
Y6430902D01*
Y6433629D01*
Y6436358D01*
X10425944D01*
Y6439086D01*
Y6441814D01*
X10423216D01*
Y6444542D01*
X10420488D01*
Y6447271D01*
X10404119D01*
Y6444542D01*
X10401390D01*
Y6441814D01*
X10398662D01*
Y6439086D01*
X10395934D01*
Y6436358D01*
Y6433629D01*
X10393206D01*
Y6430902D01*
Y6428173D01*
Y6425445D01*
X10390478D01*
Y6422717D01*
Y6419989D01*
X10385021D01*
Y6422717D01*
Y6425445D01*
Y6428173D01*
Y6430902D01*
Y6433629D01*
Y6436358D01*
X10382293D01*
Y6439086D01*
Y6441814D01*
Y6444542D01*
Y6447271D01*
X10385021D01*
Y6449999D01*
X10390478D01*
Y6452727D01*
X10398662D01*
Y6455455D01*
X10420488D01*
Y6452727D01*
D02*
G37*
G36*
X10611461Y6310861D02*
Y6308133D01*
Y6305405D01*
Y6302677D01*
Y6299949D01*
Y6297220D01*
Y6294492D01*
Y6291764D01*
Y6289036D01*
X10614189D01*
Y6286307D01*
Y6283580D01*
Y6280851D01*
Y6278123D01*
Y6275395D01*
X10608733D01*
Y6278123D01*
Y6280851D01*
X10606004D01*
Y6283580D01*
Y6286307D01*
Y6289036D01*
X10603276D01*
Y6291764D01*
X10600548D01*
Y6294492D01*
X10597820D01*
Y6297220D01*
X10589635D01*
Y6299949D01*
X10570538D01*
Y6297220D01*
Y6294492D01*
Y6291764D01*
Y6289036D01*
Y6286307D01*
Y6283580D01*
Y6280851D01*
Y6278123D01*
Y6275395D01*
Y6272667D01*
Y6269938D01*
Y6267210D01*
Y6264482D01*
Y6261754D01*
Y6259026D01*
Y6256298D01*
Y6253569D01*
Y6250841D01*
Y6248113D01*
Y6245385D01*
Y6242657D01*
Y6239928D01*
Y6237200D01*
Y6234472D01*
Y6231744D01*
Y6229016D01*
Y6226288D01*
Y6223559D01*
Y6220831D01*
Y6218103D01*
Y6215375D01*
X10573266D01*
Y6212646D01*
Y6209918D01*
X10575995D01*
Y6207190D01*
X10578723D01*
Y6204462D01*
X10589635D01*
Y6201734D01*
Y6199006D01*
X10529615D01*
Y6201734D01*
X10532343D01*
Y6204462D01*
X10540528D01*
Y6207190D01*
X10543256D01*
Y6209918D01*
X10545984D01*
Y6212646D01*
Y6215375D01*
X10548713D01*
Y6218103D01*
Y6220831D01*
Y6223559D01*
Y6226288D01*
Y6229016D01*
Y6231744D01*
Y6234472D01*
Y6237200D01*
Y6239928D01*
Y6242657D01*
Y6245385D01*
Y6248113D01*
Y6250841D01*
Y6253569D01*
Y6256298D01*
Y6259026D01*
Y6261754D01*
Y6264482D01*
Y6267210D01*
Y6269938D01*
Y6272667D01*
Y6275395D01*
Y6278123D01*
Y6280851D01*
Y6283580D01*
Y6286307D01*
Y6289036D01*
Y6291764D01*
Y6294492D01*
Y6297220D01*
Y6299949D01*
X10529615D01*
Y6297220D01*
X10521431D01*
Y6294492D01*
X10518703D01*
Y6291764D01*
X10515974D01*
Y6289036D01*
Y6286307D01*
X10513246D01*
Y6283580D01*
Y6280851D01*
X10510518D01*
Y6278123D01*
Y6275395D01*
X10505062D01*
Y6278123D01*
Y6280851D01*
Y6283580D01*
Y6286307D01*
X10507790D01*
Y6289036D01*
Y6291764D01*
Y6294492D01*
Y6297220D01*
Y6299949D01*
Y6302677D01*
Y6305405D01*
Y6308133D01*
Y6310861D01*
Y6313589D01*
X10513246D01*
Y6310861D01*
X10518703D01*
Y6308133D01*
X10603276D01*
Y6310861D01*
X10606004D01*
Y6313589D01*
X10611461D01*
Y6310861D01*
D02*
G37*
G36*
X10878823Y6305405D02*
X10876095D01*
Y6302677D01*
X10867910D01*
Y6299949D01*
X10865182D01*
Y6297220D01*
X10862454D01*
Y6294492D01*
Y6291764D01*
Y6289036D01*
X10859726D01*
Y6286307D01*
Y6283580D01*
Y6280851D01*
Y6278123D01*
Y6275395D01*
Y6272667D01*
Y6269938D01*
Y6267210D01*
Y6264482D01*
Y6261754D01*
Y6259026D01*
Y6256298D01*
Y6253569D01*
Y6250841D01*
Y6248113D01*
Y6245385D01*
Y6242657D01*
Y6239928D01*
Y6237200D01*
Y6234472D01*
Y6231744D01*
Y6229016D01*
Y6226288D01*
Y6223559D01*
Y6220831D01*
X10862454D01*
Y6218103D01*
Y6215375D01*
Y6212646D01*
Y6209918D01*
X10865182D01*
Y6207190D01*
X10870638D01*
Y6204462D01*
X10878823D01*
Y6201734D01*
Y6199006D01*
X10772424D01*
Y6201734D01*
X10769696D01*
Y6204462D01*
Y6207190D01*
Y6209918D01*
Y6212646D01*
Y6215375D01*
X10766968D01*
Y6218103D01*
Y6220831D01*
Y6223559D01*
Y6226288D01*
Y6229016D01*
Y6231744D01*
Y6234472D01*
X10772424D01*
Y6231744D01*
Y6229016D01*
X10775152D01*
Y6226288D01*
Y6223559D01*
Y6220831D01*
X10777880D01*
Y6218103D01*
X10780608D01*
Y6215375D01*
X10783337D01*
Y6212646D01*
X10786065D01*
Y6209918D01*
X10791521D01*
Y6207190D01*
X10799706D01*
Y6204462D01*
X10824260D01*
Y6207190D01*
X10832444D01*
Y6209918D01*
X10835172D01*
Y6212646D01*
X10837900D01*
Y6215375D01*
Y6218103D01*
Y6220831D01*
Y6223559D01*
Y6226288D01*
Y6229016D01*
Y6231744D01*
Y6234472D01*
Y6237200D01*
Y6239928D01*
Y6242657D01*
Y6245385D01*
Y6248113D01*
Y6250841D01*
X10829716D01*
Y6248113D01*
X10824260D01*
Y6245385D01*
X10821531D01*
Y6242657D01*
X10818803D01*
Y6239928D01*
Y6237200D01*
Y6234472D01*
X10813347D01*
Y6237200D01*
Y6239928D01*
Y6242657D01*
Y6245385D01*
Y6248113D01*
Y6250841D01*
Y6253569D01*
Y6256298D01*
Y6259026D01*
Y6261754D01*
Y6264482D01*
Y6267210D01*
Y6269938D01*
Y6272667D01*
Y6275395D01*
X10818803D01*
Y6272667D01*
Y6269938D01*
X10821531D01*
Y6267210D01*
X10824260D01*
Y6264482D01*
X10826987D01*
Y6261754D01*
X10837900D01*
Y6264482D01*
Y6267210D01*
Y6269938D01*
Y6272667D01*
Y6275395D01*
Y6278123D01*
Y6280851D01*
Y6283580D01*
Y6286307D01*
Y6289036D01*
Y6291764D01*
Y6294492D01*
Y6297220D01*
Y6299949D01*
Y6302677D01*
X10818803D01*
Y6299949D01*
X10810618D01*
Y6297220D01*
X10807890D01*
Y6294492D01*
X10805162D01*
Y6291764D01*
X10802434D01*
Y6289036D01*
Y6286307D01*
Y6283580D01*
X10799706D01*
Y6280851D01*
X10796978D01*
Y6283580D01*
X10794249D01*
Y6286307D01*
Y6289036D01*
Y6291764D01*
Y6294492D01*
Y6297220D01*
Y6299949D01*
Y6302677D01*
Y6305405D01*
Y6308133D01*
X10878823D01*
Y6305405D01*
D02*
G37*
G36*
X10753326D02*
Y6302677D01*
X10742414D01*
Y6299949D01*
X10739686D01*
Y6297220D01*
X10736957D01*
Y6294492D01*
X10734229D01*
Y6291764D01*
Y6289036D01*
Y6286307D01*
Y6283580D01*
X10731501D01*
Y6280851D01*
Y6278123D01*
Y6275395D01*
Y6272667D01*
Y6269938D01*
Y6267210D01*
X10734229D01*
Y6264482D01*
Y6261754D01*
Y6259026D01*
Y6256298D01*
Y6253569D01*
Y6250841D01*
Y6248113D01*
Y6245385D01*
Y6242657D01*
Y6239928D01*
Y6237200D01*
Y6234472D01*
Y6231744D01*
Y6229016D01*
Y6226288D01*
Y6223559D01*
Y6220831D01*
Y6218103D01*
X10736957D01*
Y6215375D01*
Y6212646D01*
X10739686D01*
Y6209918D01*
X10742414D01*
Y6207190D01*
X10745142D01*
Y6204462D01*
X10753326D01*
Y6201734D01*
Y6199006D01*
X10701491D01*
Y6201734D01*
Y6204462D01*
X10709676D01*
Y6207190D01*
X10717860D01*
Y6209918D01*
X10720588D01*
Y6212646D01*
X10723317D01*
Y6215375D01*
Y6218103D01*
Y6220831D01*
Y6223559D01*
Y6226288D01*
X10726045D01*
Y6229016D01*
Y6231744D01*
Y6234472D01*
Y6237200D01*
Y6239928D01*
Y6242657D01*
Y6245385D01*
Y6248113D01*
Y6250841D01*
Y6253569D01*
Y6256298D01*
Y6259026D01*
Y6261754D01*
Y6264482D01*
Y6267210D01*
Y6269938D01*
Y6272667D01*
Y6275395D01*
Y6278123D01*
X10720588D01*
Y6275395D01*
Y6272667D01*
X10717860D01*
Y6269938D01*
X10715132D01*
Y6267210D01*
X10712404D01*
Y6264482D01*
X10709676D01*
Y6261754D01*
X10706947D01*
Y6259026D01*
X10704219D01*
Y6256298D01*
X10701491D01*
Y6253569D01*
X10698763D01*
Y6250841D01*
X10696035D01*
Y6248113D01*
X10693307D01*
Y6245385D01*
Y6242657D01*
X10690578D01*
Y6239928D01*
X10687850D01*
Y6237200D01*
X10685122D01*
Y6234472D01*
X10682394D01*
Y6231744D01*
X10679665D01*
Y6229016D01*
X10676937D01*
Y6226288D01*
X10674209D01*
Y6223559D01*
X10671481D01*
Y6220831D01*
X10668753D01*
Y6218103D01*
X10666024D01*
Y6215375D01*
Y6212646D01*
X10663296D01*
Y6209918D01*
X10660568D01*
Y6207190D01*
X10657840D01*
Y6204462D01*
X10655112D01*
Y6201734D01*
X10652384D01*
Y6199006D01*
X10649655D01*
Y6196277D01*
X10641471D01*
Y6199006D01*
Y6201734D01*
Y6204462D01*
Y6207190D01*
Y6209918D01*
Y6212646D01*
Y6215375D01*
Y6218103D01*
Y6220831D01*
Y6223559D01*
Y6226288D01*
Y6229016D01*
Y6231744D01*
Y6234472D01*
Y6237200D01*
Y6239928D01*
Y6242657D01*
Y6245385D01*
Y6248113D01*
Y6250841D01*
Y6253569D01*
Y6256298D01*
Y6259026D01*
Y6261754D01*
Y6264482D01*
Y6267210D01*
Y6269938D01*
Y6272667D01*
Y6275395D01*
Y6278123D01*
Y6280851D01*
Y6283580D01*
Y6286307D01*
Y6289036D01*
X10638743D01*
Y6291764D01*
Y6294492D01*
Y6297220D01*
X10636015D01*
Y6299949D01*
X10633286D01*
Y6302677D01*
X10627830D01*
Y6305405D01*
X10625102D01*
Y6308133D01*
X10674209D01*
Y6305405D01*
X10668753D01*
Y6302677D01*
X10660568D01*
Y6299949D01*
X10655112D01*
Y6297220D01*
X10652384D01*
Y6294492D01*
Y6291764D01*
Y6289036D01*
Y6286307D01*
X10649655D01*
Y6283580D01*
Y6280851D01*
Y6278123D01*
Y6275395D01*
Y6272667D01*
Y6269938D01*
Y6267210D01*
Y6264482D01*
Y6261754D01*
Y6259026D01*
Y6256298D01*
Y6253569D01*
Y6250841D01*
Y6248113D01*
Y6245385D01*
Y6242657D01*
Y6239928D01*
Y6237200D01*
Y6234472D01*
Y6231744D01*
X10652384D01*
Y6234472D01*
X10655112D01*
Y6237200D01*
X10657840D01*
Y6239928D01*
X10660568D01*
Y6242657D01*
X10663296D01*
Y6245385D01*
Y6248113D01*
X10666024D01*
Y6250841D01*
X10668753D01*
Y6253569D01*
X10671481D01*
Y6256298D01*
X10674209D01*
Y6259026D01*
X10676937D01*
Y6261754D01*
X10679665D01*
Y6264482D01*
X10682394D01*
Y6267210D01*
X10685122D01*
Y6269938D01*
Y6272667D01*
X10687850D01*
Y6275395D01*
X10690578D01*
Y6278123D01*
X10693307D01*
Y6280851D01*
X10696035D01*
Y6283580D01*
X10698763D01*
Y6286307D01*
X10701491D01*
Y6289036D01*
Y6291764D01*
X10704219D01*
Y6294492D01*
X10706947D01*
Y6297220D01*
X10709676D01*
Y6299949D01*
X10712404D01*
Y6302677D01*
X10715132D01*
Y6305405D01*
Y6308133D01*
X10753326D01*
Y6305405D01*
D02*
G37*
G36*
X10224058D02*
X10221330D01*
Y6302677D01*
X10213146D01*
Y6299949D01*
X10207689D01*
Y6297220D01*
Y6294492D01*
X10204961D01*
Y6291764D01*
Y6289036D01*
Y6286307D01*
Y6283580D01*
Y6280851D01*
Y6278123D01*
Y6275395D01*
Y6272667D01*
Y6269938D01*
Y6267210D01*
Y6264482D01*
Y6261754D01*
Y6259026D01*
Y6256298D01*
Y6253569D01*
Y6250841D01*
Y6248113D01*
Y6245385D01*
Y6242657D01*
Y6239928D01*
Y6237200D01*
Y6234472D01*
Y6231744D01*
Y6229016D01*
Y6226288D01*
Y6223559D01*
Y6220831D01*
Y6218103D01*
Y6215375D01*
Y6212646D01*
X10207689D01*
Y6209918D01*
Y6207190D01*
X10213146D01*
Y6204462D01*
X10224058D01*
Y6201734D01*
Y6199006D01*
X10128572D01*
Y6201734D01*
Y6204462D01*
Y6207190D01*
X10125844D01*
Y6209918D01*
Y6212646D01*
Y6215375D01*
X10123116D01*
Y6218103D01*
Y6220831D01*
Y6223559D01*
Y6226288D01*
X10120387D01*
Y6229016D01*
Y6231744D01*
Y6234472D01*
X10117659D01*
Y6237200D01*
X10125844D01*
Y6234472D01*
Y6231744D01*
X10128572D01*
Y6229016D01*
Y6226288D01*
X10131300D01*
Y6223559D01*
X10134028D01*
Y6220831D01*
X10136756D01*
Y6218103D01*
Y6215375D01*
X10142213D01*
Y6212646D01*
X10144941D01*
Y6209918D01*
X10153125D01*
Y6207190D01*
X10183136D01*
Y6209918D01*
Y6212646D01*
Y6215375D01*
Y6218103D01*
Y6220831D01*
Y6223559D01*
Y6226288D01*
Y6229016D01*
Y6231744D01*
Y6234472D01*
Y6237200D01*
Y6239928D01*
Y6242657D01*
Y6245385D01*
Y6248113D01*
Y6250841D01*
Y6253569D01*
Y6256298D01*
Y6259026D01*
Y6261754D01*
Y6264482D01*
Y6267210D01*
Y6269938D01*
Y6272667D01*
Y6275395D01*
Y6278123D01*
Y6280851D01*
Y6283580D01*
Y6286307D01*
Y6289036D01*
X10180407D01*
Y6291764D01*
Y6294492D01*
Y6297220D01*
X10177679D01*
Y6299949D01*
X10174951D01*
Y6302677D01*
X10164038D01*
Y6305405D01*
X10161310D01*
Y6308133D01*
X10224058D01*
Y6305405D01*
D02*
G37*
G36*
X10952484Y6308133D02*
X10963397D01*
Y6305405D01*
X10968853D01*
Y6302677D01*
X10974310D01*
Y6299949D01*
X10977038D01*
Y6297220D01*
X10982494D01*
Y6294492D01*
X10985222D01*
Y6291764D01*
X10987951D01*
Y6289036D01*
Y6286307D01*
X10990679D01*
Y6283580D01*
X10993407D01*
Y6280851D01*
Y6278123D01*
X10996135D01*
Y6275395D01*
Y6272667D01*
X10998863D01*
Y6269938D01*
Y6267210D01*
Y6264482D01*
Y6261754D01*
Y6259026D01*
Y6256298D01*
X11001591D01*
Y6253569D01*
Y6250841D01*
Y6248113D01*
X10998863D01*
Y6245385D01*
Y6242657D01*
Y6239928D01*
Y6237200D01*
Y6234472D01*
Y6231744D01*
X10996135D01*
Y6229016D01*
Y6226288D01*
X10993407D01*
Y6223559D01*
Y6220831D01*
X10990679D01*
Y6218103D01*
X10987951D01*
Y6215375D01*
Y6212646D01*
X10985222D01*
Y6209918D01*
X10979766D01*
Y6207190D01*
X10977038D01*
Y6204462D01*
X10971581D01*
Y6201734D01*
X10966125D01*
Y6199006D01*
X10957940D01*
Y6196277D01*
X10914290D01*
Y6199006D01*
X10906105D01*
Y6201734D01*
X10900649D01*
Y6204462D01*
Y6207190D01*
X10897920D01*
Y6209918D01*
Y6212646D01*
Y6215375D01*
X10895192D01*
Y6218103D01*
Y6220831D01*
Y6223559D01*
Y6226288D01*
X10892464D01*
Y6229016D01*
Y6231744D01*
Y6234472D01*
Y6237200D01*
X10897920D01*
Y6234472D01*
Y6231744D01*
X10900649D01*
Y6229016D01*
Y6226288D01*
X10903377D01*
Y6223559D01*
Y6220831D01*
X10906105D01*
Y6218103D01*
X10908833D01*
Y6215375D01*
X10911561D01*
Y6212646D01*
X10914290D01*
Y6209918D01*
X10917018D01*
Y6207190D01*
X10922474D01*
Y6204462D01*
X10930659D01*
Y6201734D01*
X10938843D01*
Y6204462D01*
X10947028D01*
Y6207190D01*
X10952484D01*
Y6209918D01*
X10955212D01*
Y6212646D01*
X10960669D01*
Y6215375D01*
X10963397D01*
Y6218103D01*
Y6220831D01*
X10966125D01*
Y6223559D01*
X10968853D01*
Y6226288D01*
Y6229016D01*
X10971581D01*
Y6231744D01*
Y6234472D01*
Y6237200D01*
X10974310D01*
Y6239928D01*
Y6242657D01*
Y6245385D01*
Y6248113D01*
Y6250841D01*
Y6253569D01*
Y6256298D01*
Y6259026D01*
Y6261754D01*
Y6264482D01*
Y6267210D01*
Y6269938D01*
Y6272667D01*
X10971581D01*
Y6275395D01*
Y6278123D01*
Y6280851D01*
X10968853D01*
Y6283580D01*
Y6286307D01*
X10966125D01*
Y6289036D01*
X10963397D01*
Y6291764D01*
X10960669D01*
Y6294492D01*
X10957940D01*
Y6297220D01*
X10955212D01*
Y6299949D01*
X10947028D01*
Y6302677D01*
X10925202D01*
Y6299949D01*
X10919746D01*
Y6297220D01*
X10917018D01*
Y6294492D01*
X10914290D01*
Y6291764D01*
X10911561D01*
Y6289036D01*
X10908833D01*
Y6286307D01*
Y6283580D01*
X10906105D01*
Y6280851D01*
Y6278123D01*
Y6275395D01*
X10903377D01*
Y6272667D01*
Y6269938D01*
X10897920D01*
Y6272667D01*
Y6275395D01*
Y6278123D01*
Y6280851D01*
Y6283580D01*
Y6286307D01*
Y6289036D01*
Y6291764D01*
Y6294492D01*
Y6297220D01*
Y6299949D01*
Y6302677D01*
X10900649D01*
Y6305405D01*
X10908833D01*
Y6308133D01*
X10919746D01*
Y6310861D01*
X10952484D01*
Y6308133D01*
D02*
G37*
G36*
X10494149Y6305405D02*
X10491421D01*
Y6302677D01*
X10483236D01*
Y6299949D01*
X10480508D01*
Y6297220D01*
X10475052D01*
Y6294492D01*
Y6291764D01*
Y6289036D01*
Y6286307D01*
Y6283580D01*
Y6280851D01*
X10472323D01*
Y6278123D01*
Y6275395D01*
Y6272667D01*
Y6269938D01*
Y6267210D01*
Y6264482D01*
Y6261754D01*
Y6259026D01*
Y6256298D01*
Y6253569D01*
Y6250841D01*
Y6248113D01*
Y6245385D01*
Y6242657D01*
Y6239928D01*
Y6237200D01*
Y6234472D01*
Y6231744D01*
Y6229016D01*
Y6226288D01*
X10475052D01*
Y6223559D01*
Y6220831D01*
Y6218103D01*
Y6215375D01*
Y6212646D01*
X10477780D01*
Y6209918D01*
Y6207190D01*
X10483236D01*
Y6204462D01*
X10491421D01*
Y6201734D01*
X10494149D01*
Y6199006D01*
X10428672D01*
Y6201734D01*
Y6204462D01*
X10439585D01*
Y6207190D01*
X10447770D01*
Y6209918D01*
X10450498D01*
Y6212646D01*
Y6215375D01*
Y6218103D01*
X10453226D01*
Y6220831D01*
Y6223559D01*
Y6226288D01*
Y6229016D01*
Y6231744D01*
Y6234472D01*
Y6237200D01*
Y6239928D01*
Y6242657D01*
Y6245385D01*
Y6248113D01*
X10442313D01*
Y6245385D01*
X10439585D01*
Y6242657D01*
X10436857D01*
Y6239928D01*
X10434129D01*
Y6237200D01*
Y6234472D01*
X10431401D01*
Y6231744D01*
Y6229016D01*
X10428672D01*
Y6226288D01*
X10425944D01*
Y6223559D01*
Y6220831D01*
X10423216D01*
Y6218103D01*
X10420488D01*
Y6215375D01*
Y6212646D01*
X10417760D01*
Y6209918D01*
X10415031D01*
Y6207190D01*
X10412303D01*
Y6204462D01*
X10409575D01*
Y6201734D01*
X10404119D01*
Y6199006D01*
X10387750D01*
Y6196277D01*
X10368652D01*
Y6199006D01*
Y6201734D01*
X10374109D01*
Y6204462D01*
X10379565D01*
Y6207190D01*
X10382293D01*
Y6209918D01*
X10387750D01*
Y6212646D01*
X10390478D01*
Y6215375D01*
X10393206D01*
Y6218103D01*
X10395934D01*
Y6220831D01*
X10398662D01*
Y6223559D01*
X10401390D01*
Y6226288D01*
X10404119D01*
Y6229016D01*
Y6231744D01*
X10406847D01*
Y6234472D01*
X10409575D01*
Y6237200D01*
Y6239928D01*
X10412303D01*
Y6242657D01*
X10415031D01*
Y6245385D01*
Y6248113D01*
X10417760D01*
Y6250841D01*
Y6253569D01*
X10420488D01*
Y6256298D01*
X10415031D01*
Y6259026D01*
X10412303D01*
Y6261754D01*
X10409575D01*
Y6264482D01*
X10406847D01*
Y6267210D01*
X10404119D01*
Y6269938D01*
X10401390D01*
Y6272667D01*
Y6275395D01*
Y6278123D01*
Y6280851D01*
Y6283580D01*
Y6286307D01*
Y6289036D01*
Y6291764D01*
X10404119D01*
Y6294492D01*
Y6297220D01*
X10406847D01*
Y6299949D01*
X10409575D01*
Y6302677D01*
X10415031D01*
Y6305405D01*
X10423216D01*
Y6308133D01*
X10494149D01*
Y6305405D01*
D02*
G37*
G36*
X10294991Y6319046D02*
Y6316318D01*
Y6313589D01*
Y6310861D01*
X10297720D01*
Y6308133D01*
X10300448D01*
Y6305405D01*
X10305904D01*
Y6302677D01*
Y6299949D01*
Y6297220D01*
Y6294492D01*
X10308632D01*
Y6291764D01*
Y6289036D01*
X10311360D01*
Y6286307D01*
Y6283580D01*
Y6280851D01*
X10314089D01*
Y6278123D01*
Y6275395D01*
X10316817D01*
Y6272667D01*
Y6269938D01*
Y6267210D01*
X10319545D01*
Y6264482D01*
Y6261754D01*
Y6259026D01*
X10322273D01*
Y6256298D01*
Y6253569D01*
X10325001D01*
Y6250841D01*
Y6248113D01*
Y6245385D01*
X10327730D01*
Y6242657D01*
Y6239928D01*
X10330458D01*
Y6237200D01*
Y6234472D01*
Y6231744D01*
X10333186D01*
Y6229016D01*
Y6226288D01*
X10335914D01*
Y6223559D01*
Y6220831D01*
X10338642D01*
Y6218103D01*
Y6215375D01*
X10341370D01*
Y6212646D01*
Y6209918D01*
X10344099D01*
Y6207190D01*
X10349555D01*
Y6204462D01*
X10355012D01*
Y6201734D01*
Y6199006D01*
X10305904D01*
Y6201734D01*
X10308632D01*
Y6204462D01*
X10319545D01*
Y6207190D01*
X10322273D01*
Y6209918D01*
X10325001D01*
Y6212646D01*
Y6215375D01*
Y6218103D01*
Y6220831D01*
Y6223559D01*
X10322273D01*
Y6226288D01*
Y6229016D01*
Y6231744D01*
X10319545D01*
Y6234472D01*
Y6237200D01*
Y6239928D01*
X10316817D01*
Y6242657D01*
X10286807D01*
Y6239928D01*
X10284078D01*
Y6237200D01*
X10281350D01*
Y6234472D01*
Y6231744D01*
Y6229016D01*
X10278622D01*
Y6226288D01*
Y6223559D01*
Y6220831D01*
X10275894D01*
Y6218103D01*
Y6215375D01*
Y6212646D01*
Y6209918D01*
Y6207190D01*
X10278622D01*
Y6204462D01*
X10286807D01*
Y6201734D01*
Y6199006D01*
X10234971D01*
Y6201734D01*
Y6204462D01*
X10240428D01*
Y6207190D01*
X10245884D01*
Y6209918D01*
X10248612D01*
Y6212646D01*
Y6215375D01*
X10251340D01*
Y6218103D01*
X10254068D01*
Y6220831D01*
Y6223559D01*
X10256797D01*
Y6226288D01*
Y6229016D01*
Y6231744D01*
X10259525D01*
Y6234472D01*
Y6237200D01*
Y6239928D01*
X10262253D01*
Y6242657D01*
Y6245385D01*
Y6248113D01*
X10264981D01*
Y6250841D01*
Y6253569D01*
X10267709D01*
Y6256298D01*
Y6259026D01*
Y6261754D01*
X10270438D01*
Y6264482D01*
Y6267210D01*
Y6269938D01*
X10273166D01*
Y6272667D01*
Y6275395D01*
X10275894D01*
Y6278123D01*
Y6280851D01*
Y6283580D01*
X10278622D01*
Y6286307D01*
Y6289036D01*
Y6291764D01*
X10281350D01*
Y6294492D01*
Y6297220D01*
X10284078D01*
Y6299949D01*
Y6302677D01*
Y6305405D01*
X10286807D01*
Y6308133D01*
Y6310861D01*
Y6313589D01*
X10289535D01*
Y6316318D01*
Y6319046D01*
X10292263D01*
Y6321774D01*
X10294991D01*
Y6319046D01*
D02*
G37*
G36*
X10981233Y5744540D02*
Y5742991D01*
Y5741442D01*
Y5739892D01*
Y5738343D01*
Y5736793D01*
X10970387D01*
Y5738343D01*
Y5739892D01*
Y5741442D01*
Y5742991D01*
Y5744540D01*
Y5746090D01*
X10981233D01*
Y5744540D01*
D02*
G37*
G36*
X10302596D02*
Y5742991D01*
Y5741442D01*
Y5739892D01*
Y5738343D01*
Y5736793D01*
X10291750D01*
Y5738343D01*
Y5739892D01*
Y5741442D01*
Y5742991D01*
Y5744540D01*
Y5746090D01*
X10302596D01*
Y5744540D01*
D02*
G37*
G36*
X10635716Y5716651D02*
X10637266D01*
Y5715102D01*
X10638815D01*
Y5713552D01*
Y5712003D01*
Y5710454D01*
Y5708904D01*
X10637266D01*
Y5707355D01*
X10635716D01*
Y5705805D01*
X10632618D01*
Y5707355D01*
X10631068D01*
Y5708904D01*
X10629519D01*
Y5710454D01*
Y5712003D01*
Y5713552D01*
Y5715102D01*
X10631068D01*
Y5716651D01*
Y5718201D01*
X10635716D01*
Y5716651D01*
D02*
G37*
G36*
X10363022Y5744540D02*
Y5742991D01*
Y5741442D01*
Y5739892D01*
Y5738343D01*
Y5736793D01*
Y5735244D01*
Y5733695D01*
Y5732145D01*
Y5730596D01*
Y5729046D01*
Y5727497D01*
Y5725948D01*
Y5724398D01*
Y5722849D01*
Y5721299D01*
Y5719750D01*
Y5718201D01*
Y5716651D01*
Y5715102D01*
Y5713552D01*
Y5712003D01*
Y5710454D01*
Y5708904D01*
Y5707355D01*
Y5705805D01*
Y5704256D01*
Y5702707D01*
Y5701157D01*
Y5699608D01*
Y5698058D01*
Y5696509D01*
Y5694960D01*
Y5693410D01*
Y5691861D01*
Y5690311D01*
Y5688762D01*
Y5687213D01*
Y5685663D01*
Y5684114D01*
Y5682564D01*
Y5681015D01*
Y5679466D01*
Y5677916D01*
X10355275D01*
Y5679466D01*
Y5681015D01*
Y5682564D01*
Y5684114D01*
Y5685663D01*
Y5687213D01*
Y5688762D01*
Y5690311D01*
Y5691861D01*
Y5693410D01*
Y5694960D01*
Y5696509D01*
Y5698058D01*
Y5699608D01*
Y5701157D01*
Y5702707D01*
Y5704256D01*
Y5705805D01*
Y5707355D01*
Y5708904D01*
Y5710454D01*
Y5712003D01*
Y5713552D01*
Y5715102D01*
Y5716651D01*
Y5718201D01*
Y5719750D01*
Y5721299D01*
Y5722849D01*
Y5724398D01*
X10353726D01*
Y5722849D01*
Y5721299D01*
Y5719750D01*
X10352177D01*
Y5718201D01*
Y5716651D01*
Y5715102D01*
Y5713552D01*
X10350627D01*
Y5712003D01*
Y5710454D01*
Y5708904D01*
Y5707355D01*
X10349078D01*
Y5705805D01*
Y5704256D01*
Y5702707D01*
X10347528D01*
Y5701157D01*
Y5699608D01*
Y5698058D01*
Y5696509D01*
X10345979D01*
Y5694960D01*
Y5693410D01*
Y5691861D01*
Y5690311D01*
X10344430D01*
Y5688762D01*
Y5687213D01*
Y5685663D01*
Y5684114D01*
X10342880D01*
Y5682564D01*
Y5681015D01*
Y5679466D01*
Y5677916D01*
X10333584D01*
Y5679466D01*
X10332034D01*
Y5681015D01*
Y5682564D01*
Y5684114D01*
Y5685663D01*
X10330485D01*
Y5687213D01*
Y5688762D01*
Y5690311D01*
Y5691861D01*
X10328935D01*
Y5693410D01*
Y5694960D01*
Y5696509D01*
Y5698058D01*
X10327386D01*
Y5699608D01*
Y5701157D01*
Y5702707D01*
Y5704256D01*
X10325837D01*
Y5705805D01*
Y5707355D01*
Y5708904D01*
Y5710454D01*
X10324287D01*
Y5712003D01*
Y5713552D01*
Y5715102D01*
Y5716651D01*
X10322738D01*
Y5718201D01*
Y5719750D01*
Y5721299D01*
Y5722849D01*
X10321189D01*
Y5721299D01*
Y5719750D01*
Y5718201D01*
Y5716651D01*
Y5715102D01*
Y5713552D01*
Y5712003D01*
Y5710454D01*
Y5708904D01*
Y5707355D01*
Y5705805D01*
Y5704256D01*
Y5702707D01*
Y5701157D01*
Y5699608D01*
Y5698058D01*
Y5696509D01*
Y5694960D01*
Y5693410D01*
Y5691861D01*
Y5690311D01*
Y5688762D01*
Y5687213D01*
Y5685663D01*
Y5684114D01*
Y5682564D01*
Y5681015D01*
Y5679466D01*
Y5677916D01*
X10313442D01*
Y5679466D01*
Y5681015D01*
Y5682564D01*
Y5684114D01*
Y5685663D01*
Y5687213D01*
Y5688762D01*
Y5690311D01*
Y5691861D01*
Y5693410D01*
Y5694960D01*
Y5696509D01*
Y5698058D01*
Y5699608D01*
Y5701157D01*
Y5702707D01*
Y5704256D01*
Y5705805D01*
Y5707355D01*
Y5708904D01*
Y5710454D01*
Y5712003D01*
Y5713552D01*
Y5715102D01*
Y5716651D01*
Y5718201D01*
Y5719750D01*
Y5721299D01*
Y5722849D01*
Y5724398D01*
Y5725948D01*
Y5727497D01*
Y5729046D01*
Y5730596D01*
Y5732145D01*
Y5733695D01*
Y5735244D01*
Y5736793D01*
Y5738343D01*
Y5739892D01*
Y5741442D01*
Y5742991D01*
Y5744540D01*
Y5746090D01*
X10324287D01*
Y5744540D01*
Y5742991D01*
X10325837D01*
Y5741442D01*
Y5739892D01*
Y5738343D01*
Y5736793D01*
X10327386D01*
Y5735244D01*
Y5733695D01*
Y5732145D01*
Y5730596D01*
X10328935D01*
Y5729046D01*
Y5727497D01*
Y5725948D01*
Y5724398D01*
X10330485D01*
Y5722849D01*
Y5721299D01*
Y5719750D01*
Y5718201D01*
X10332034D01*
Y5716651D01*
Y5715102D01*
Y5713552D01*
Y5712003D01*
X10333584D01*
Y5710454D01*
Y5708904D01*
Y5707355D01*
Y5705805D01*
X10335133D01*
Y5704256D01*
Y5702707D01*
Y5701157D01*
Y5699608D01*
X10336682D01*
Y5698058D01*
Y5696509D01*
Y5694960D01*
X10338232D01*
Y5696509D01*
Y5698058D01*
X10339782D01*
Y5699608D01*
Y5701157D01*
Y5702707D01*
Y5704256D01*
X10341331D01*
Y5705805D01*
Y5707355D01*
Y5708904D01*
Y5710454D01*
X10342880D01*
Y5712003D01*
Y5713552D01*
Y5715102D01*
Y5716651D01*
X10344430D01*
Y5718201D01*
Y5719750D01*
Y5721299D01*
Y5722849D01*
X10345979D01*
Y5724398D01*
Y5725948D01*
Y5727497D01*
X10347528D01*
Y5729046D01*
Y5730596D01*
Y5732145D01*
Y5733695D01*
X10349078D01*
Y5735244D01*
Y5736793D01*
Y5738343D01*
Y5739892D01*
X10350627D01*
Y5741442D01*
Y5742991D01*
Y5744540D01*
Y5746090D01*
X10363022D01*
Y5744540D01*
D02*
G37*
G36*
X10696143Y5730596D02*
X10694594D01*
Y5729046D01*
Y5727497D01*
Y5725948D01*
X10693044D01*
Y5724398D01*
Y5722849D01*
X10691495D01*
Y5721299D01*
Y5719750D01*
Y5718201D01*
X10689946D01*
Y5716651D01*
Y5715102D01*
X10688396D01*
Y5713552D01*
Y5712003D01*
Y5710454D01*
X10686847D01*
Y5708904D01*
Y5707355D01*
Y5705805D01*
X10685297D01*
Y5704256D01*
Y5702707D01*
X10683748D01*
Y5701157D01*
Y5699608D01*
Y5698058D01*
X10682199D01*
Y5696509D01*
Y5694960D01*
Y5693410D01*
X10680649D01*
Y5691861D01*
Y5690311D01*
X10679100D01*
Y5688762D01*
Y5687213D01*
Y5685663D01*
X10677551D01*
Y5684114D01*
Y5682564D01*
X10676001D01*
Y5681015D01*
Y5679466D01*
Y5677916D01*
Y5676367D01*
Y5674817D01*
X10677551D01*
Y5673268D01*
Y5671718D01*
Y5670169D01*
X10679100D01*
Y5668620D01*
Y5667070D01*
Y5665521D01*
X10680649D01*
Y5663972D01*
Y5662422D01*
Y5660873D01*
X10682199D01*
Y5659323D01*
Y5657774D01*
X10683748D01*
Y5656225D01*
Y5654675D01*
X10674452D01*
Y5656225D01*
Y5657774D01*
X10672902D01*
Y5659323D01*
Y5660873D01*
Y5662422D01*
X10671353D01*
Y5663972D01*
Y5665521D01*
Y5667070D01*
X10669803D01*
Y5668620D01*
Y5670169D01*
X10668254D01*
Y5671718D01*
Y5673268D01*
Y5674817D01*
X10666704D01*
Y5676367D01*
Y5677916D01*
Y5679466D01*
X10665155D01*
Y5681015D01*
Y5682564D01*
Y5684114D01*
X10663606D01*
Y5685663D01*
Y5687213D01*
Y5688762D01*
X10662056D01*
Y5690311D01*
Y5691861D01*
Y5693410D01*
X10660507D01*
Y5694960D01*
Y5696509D01*
X10658958D01*
Y5698058D01*
Y5699608D01*
Y5701157D01*
X10657408D01*
Y5702707D01*
Y5704256D01*
Y5705805D01*
X10655859D01*
Y5707355D01*
Y5708904D01*
Y5710454D01*
X10654309D01*
Y5712003D01*
Y5713552D01*
Y5715102D01*
X10652760D01*
Y5716651D01*
Y5718201D01*
Y5719750D01*
X10651211D01*
Y5721299D01*
Y5722849D01*
X10649661D01*
Y5724398D01*
Y5725948D01*
Y5727497D01*
X10648112D01*
Y5729046D01*
Y5730596D01*
Y5732145D01*
X10655859D01*
Y5730596D01*
Y5729046D01*
Y5727497D01*
X10657408D01*
Y5725948D01*
Y5724398D01*
Y5722849D01*
X10658958D01*
Y5721299D01*
Y5719750D01*
X10660507D01*
Y5718201D01*
Y5716651D01*
Y5715102D01*
X10662056D01*
Y5713552D01*
Y5712003D01*
Y5710454D01*
X10663606D01*
Y5708904D01*
Y5707355D01*
Y5705805D01*
X10665155D01*
Y5704256D01*
Y5702707D01*
Y5701157D01*
X10666704D01*
Y5699608D01*
Y5698058D01*
Y5696509D01*
X10668254D01*
Y5694960D01*
Y5693410D01*
Y5691861D01*
X10669803D01*
Y5693410D01*
Y5694960D01*
X10671353D01*
Y5696509D01*
Y5698058D01*
X10672902D01*
Y5699608D01*
Y5701157D01*
Y5702707D01*
X10674452D01*
Y5704256D01*
Y5705805D01*
Y5707355D01*
X10676001D01*
Y5708904D01*
Y5710454D01*
Y5712003D01*
X10677551D01*
Y5713552D01*
Y5715102D01*
X10679100D01*
Y5716651D01*
Y5718201D01*
Y5719750D01*
X10680649D01*
Y5721299D01*
Y5722849D01*
Y5724398D01*
X10682199D01*
Y5725948D01*
Y5727497D01*
Y5729046D01*
X10683748D01*
Y5730596D01*
Y5732145D01*
X10696143D01*
Y5730596D01*
D02*
G37*
G36*
X10741076Y5744540D02*
Y5742991D01*
Y5741442D01*
Y5739892D01*
Y5738343D01*
Y5736793D01*
Y5735244D01*
Y5733695D01*
Y5732145D01*
Y5730596D01*
Y5729046D01*
Y5727497D01*
Y5725948D01*
Y5724398D01*
Y5722849D01*
Y5721299D01*
Y5719750D01*
Y5718201D01*
Y5716651D01*
Y5715102D01*
Y5713552D01*
Y5712003D01*
Y5710454D01*
Y5708904D01*
Y5707355D01*
Y5705805D01*
Y5704256D01*
Y5702707D01*
Y5701157D01*
Y5699608D01*
Y5698058D01*
Y5696509D01*
Y5694960D01*
Y5693410D01*
Y5691861D01*
Y5690311D01*
Y5688762D01*
Y5687213D01*
Y5685663D01*
Y5684114D01*
Y5682564D01*
Y5681015D01*
Y5679466D01*
Y5677916D01*
X10706989D01*
Y5679466D01*
X10703890D01*
Y5681015D01*
X10702341D01*
Y5682564D01*
X10700791D01*
Y5684114D01*
Y5685663D01*
Y5687213D01*
X10699242D01*
Y5688762D01*
Y5690311D01*
Y5691861D01*
Y5693410D01*
Y5694960D01*
Y5696509D01*
Y5698058D01*
Y5699608D01*
Y5701157D01*
Y5702707D01*
Y5704256D01*
Y5705805D01*
Y5707355D01*
Y5708904D01*
Y5710454D01*
Y5712003D01*
Y5713552D01*
Y5715102D01*
Y5716651D01*
Y5718201D01*
Y5719750D01*
Y5721299D01*
Y5722849D01*
X10700791D01*
Y5724398D01*
Y5725948D01*
Y5727497D01*
X10702341D01*
Y5729046D01*
X10703890D01*
Y5730596D01*
X10706989D01*
Y5732145D01*
X10725582D01*
Y5730596D01*
Y5729046D01*
Y5727497D01*
Y5725948D01*
X10713187D01*
Y5724398D01*
X10711637D01*
Y5722849D01*
X10710088D01*
Y5721299D01*
Y5719750D01*
Y5718201D01*
Y5716651D01*
Y5715102D01*
Y5713552D01*
Y5712003D01*
Y5710454D01*
Y5708904D01*
Y5707355D01*
Y5705805D01*
Y5704256D01*
Y5702707D01*
Y5701157D01*
Y5699608D01*
Y5698058D01*
Y5696509D01*
Y5694960D01*
Y5693410D01*
Y5691861D01*
Y5690311D01*
Y5688762D01*
Y5687213D01*
X10711637D01*
Y5685663D01*
X10713187D01*
Y5684114D01*
X10730230D01*
Y5685663D01*
Y5687213D01*
Y5688762D01*
Y5690311D01*
Y5691861D01*
Y5693410D01*
Y5694960D01*
Y5696509D01*
Y5698058D01*
Y5699608D01*
Y5701157D01*
Y5702707D01*
Y5704256D01*
Y5705805D01*
Y5707355D01*
Y5708904D01*
Y5710454D01*
Y5712003D01*
Y5713552D01*
Y5715102D01*
Y5716651D01*
Y5718201D01*
Y5719750D01*
Y5721299D01*
Y5722849D01*
Y5724398D01*
Y5725948D01*
Y5727497D01*
Y5729046D01*
Y5730596D01*
Y5732145D01*
Y5733695D01*
Y5735244D01*
Y5736793D01*
Y5738343D01*
Y5739892D01*
Y5741442D01*
Y5742991D01*
Y5744540D01*
Y5746090D01*
X10741076D01*
Y5744540D01*
D02*
G37*
G36*
X10531907Y5730596D02*
Y5729046D01*
Y5727497D01*
Y5725948D01*
Y5724398D01*
Y5722849D01*
Y5721299D01*
Y5719750D01*
Y5718201D01*
Y5716651D01*
Y5715102D01*
Y5713552D01*
Y5712003D01*
Y5710454D01*
Y5708904D01*
Y5707355D01*
Y5705805D01*
Y5704256D01*
Y5702707D01*
Y5701157D01*
Y5699608D01*
Y5698058D01*
Y5696509D01*
Y5694960D01*
Y5693410D01*
Y5691861D01*
Y5690311D01*
Y5688762D01*
Y5687213D01*
Y5685663D01*
X10530357D01*
Y5684114D01*
Y5682564D01*
X10528808D01*
Y5681015D01*
X10527259D01*
Y5679466D01*
X10524160D01*
Y5677916D01*
X10490073D01*
Y5679466D01*
Y5681015D01*
Y5682564D01*
Y5684114D01*
Y5685663D01*
Y5687213D01*
Y5688762D01*
Y5690311D01*
Y5691861D01*
Y5693410D01*
Y5694960D01*
Y5696509D01*
Y5698058D01*
Y5699608D01*
Y5701157D01*
Y5702707D01*
Y5704256D01*
Y5705805D01*
Y5707355D01*
Y5708904D01*
Y5710454D01*
Y5712003D01*
Y5713552D01*
Y5715102D01*
Y5716651D01*
Y5718201D01*
Y5719750D01*
Y5721299D01*
Y5722849D01*
Y5724398D01*
Y5725948D01*
Y5727497D01*
Y5729046D01*
Y5730596D01*
Y5732145D01*
X10500919D01*
Y5730596D01*
Y5729046D01*
Y5727497D01*
Y5725948D01*
Y5724398D01*
Y5722849D01*
Y5721299D01*
Y5719750D01*
Y5718201D01*
Y5716651D01*
Y5715102D01*
Y5713552D01*
Y5712003D01*
Y5710454D01*
Y5708904D01*
Y5707355D01*
Y5705805D01*
Y5704256D01*
Y5702707D01*
Y5701157D01*
Y5699608D01*
Y5698058D01*
Y5696509D01*
Y5694960D01*
Y5693410D01*
Y5691861D01*
Y5690311D01*
Y5688762D01*
Y5687213D01*
Y5685663D01*
Y5684114D01*
X10517962D01*
Y5685663D01*
X10519512D01*
Y5687213D01*
X10521061D01*
Y5688762D01*
Y5690311D01*
Y5691861D01*
Y5693410D01*
X10522610D01*
Y5694960D01*
Y5696509D01*
Y5698058D01*
Y5699608D01*
Y5701157D01*
Y5702707D01*
Y5704256D01*
Y5705805D01*
Y5707355D01*
Y5708904D01*
Y5710454D01*
Y5712003D01*
Y5713552D01*
Y5715102D01*
Y5716651D01*
Y5718201D01*
Y5719750D01*
Y5721299D01*
Y5722849D01*
Y5724398D01*
Y5725948D01*
Y5727497D01*
Y5729046D01*
Y5730596D01*
Y5732145D01*
X10531907D01*
Y5730596D01*
D02*
G37*
G36*
X10208082D02*
Y5729046D01*
Y5727497D01*
Y5725948D01*
Y5724398D01*
Y5722849D01*
Y5721299D01*
Y5719750D01*
Y5718201D01*
Y5716651D01*
Y5715102D01*
Y5713552D01*
Y5712003D01*
Y5710454D01*
Y5708904D01*
Y5707355D01*
Y5705805D01*
Y5704256D01*
Y5702707D01*
Y5701157D01*
Y5699608D01*
Y5698058D01*
Y5696509D01*
Y5694960D01*
Y5693410D01*
Y5691861D01*
Y5690311D01*
Y5688762D01*
Y5687213D01*
Y5685663D01*
X10206533D01*
Y5684114D01*
Y5682564D01*
X10204983D01*
Y5681015D01*
X10203434D01*
Y5679466D01*
X10200335D01*
Y5677916D01*
X10166248D01*
Y5679466D01*
Y5681015D01*
Y5682564D01*
Y5684114D01*
Y5685663D01*
Y5687213D01*
Y5688762D01*
Y5690311D01*
Y5691861D01*
Y5693410D01*
Y5694960D01*
Y5696509D01*
Y5698058D01*
Y5699608D01*
Y5701157D01*
Y5702707D01*
Y5704256D01*
Y5705805D01*
Y5707355D01*
Y5708904D01*
Y5710454D01*
Y5712003D01*
Y5713552D01*
Y5715102D01*
Y5716651D01*
Y5718201D01*
Y5719750D01*
Y5721299D01*
Y5722849D01*
Y5724398D01*
Y5725948D01*
Y5727497D01*
Y5729046D01*
Y5730596D01*
Y5732145D01*
X10177094D01*
Y5730596D01*
Y5729046D01*
Y5727497D01*
Y5725948D01*
Y5724398D01*
Y5722849D01*
Y5721299D01*
Y5719750D01*
Y5718201D01*
Y5716651D01*
Y5715102D01*
Y5713552D01*
Y5712003D01*
Y5710454D01*
Y5708904D01*
Y5707355D01*
Y5705805D01*
Y5704256D01*
Y5702707D01*
Y5701157D01*
Y5699608D01*
Y5698058D01*
Y5696509D01*
Y5694960D01*
Y5693410D01*
Y5691861D01*
Y5690311D01*
Y5688762D01*
Y5687213D01*
Y5685663D01*
Y5684114D01*
X10194138D01*
Y5685663D01*
X10195688D01*
Y5687213D01*
X10197236D01*
Y5688762D01*
Y5690311D01*
Y5691861D01*
Y5693410D01*
X10198786D01*
Y5694960D01*
Y5696509D01*
Y5698058D01*
Y5699608D01*
Y5701157D01*
Y5702707D01*
Y5704256D01*
Y5705805D01*
Y5707355D01*
Y5708904D01*
Y5710454D01*
Y5712003D01*
Y5713552D01*
Y5715102D01*
Y5716651D01*
Y5718201D01*
Y5719750D01*
Y5721299D01*
Y5722849D01*
Y5724398D01*
Y5725948D01*
Y5727497D01*
Y5729046D01*
Y5730596D01*
Y5732145D01*
X10208082D01*
Y5730596D01*
D02*
G37*
G36*
X11122228Y5744540D02*
Y5742991D01*
Y5741442D01*
Y5739892D01*
Y5738343D01*
Y5736793D01*
Y5735244D01*
Y5733695D01*
Y5732145D01*
Y5730596D01*
Y5729046D01*
Y5727497D01*
Y5725948D01*
Y5724398D01*
Y5722849D01*
Y5721299D01*
Y5719750D01*
Y5718201D01*
Y5716651D01*
Y5715102D01*
Y5713552D01*
Y5712003D01*
Y5710454D01*
Y5708904D01*
Y5707355D01*
Y5705805D01*
Y5704256D01*
Y5702707D01*
Y5701157D01*
Y5699608D01*
Y5698058D01*
Y5696509D01*
Y5694960D01*
Y5693410D01*
Y5691861D01*
Y5690311D01*
Y5688762D01*
Y5687213D01*
Y5685663D01*
Y5684114D01*
Y5682564D01*
Y5681015D01*
Y5679466D01*
Y5677916D01*
X11089691D01*
Y5679466D01*
X11086592D01*
Y5681015D01*
X11085042D01*
Y5682564D01*
Y5684114D01*
X11083493D01*
Y5685663D01*
Y5687213D01*
X11081944D01*
Y5688762D01*
Y5690311D01*
Y5691861D01*
Y5693410D01*
Y5694960D01*
Y5696509D01*
Y5698058D01*
Y5699608D01*
Y5701157D01*
Y5702707D01*
Y5704256D01*
Y5705805D01*
Y5707355D01*
Y5708904D01*
Y5710454D01*
Y5712003D01*
Y5713552D01*
Y5715102D01*
Y5716651D01*
Y5718201D01*
Y5719750D01*
Y5721299D01*
Y5722849D01*
Y5724398D01*
Y5725948D01*
Y5727497D01*
Y5729046D01*
Y5730596D01*
Y5732145D01*
Y5733695D01*
Y5735244D01*
Y5736793D01*
X11083493D01*
Y5738343D01*
Y5739892D01*
X11085042D01*
Y5741442D01*
Y5742991D01*
X11086592D01*
Y5744540D01*
X11089691D01*
Y5746090D01*
X11122228D01*
Y5744540D01*
D02*
G37*
G36*
X11066450Y5730596D02*
X11069549D01*
Y5729046D01*
X11071098D01*
Y5727497D01*
X11072647D01*
Y5725948D01*
Y5724398D01*
Y5722849D01*
X11074197D01*
Y5721299D01*
Y5719750D01*
Y5718201D01*
Y5716651D01*
Y5715102D01*
Y5713552D01*
Y5712003D01*
Y5710454D01*
Y5708904D01*
Y5707355D01*
Y5705805D01*
Y5704256D01*
Y5702707D01*
Y5701157D01*
Y5699608D01*
Y5698058D01*
Y5696509D01*
Y5694960D01*
Y5693410D01*
Y5691861D01*
Y5690311D01*
Y5688762D01*
Y5687213D01*
X11072647D01*
Y5685663D01*
Y5684114D01*
Y5682564D01*
X11071098D01*
Y5681015D01*
X11069549D01*
Y5679466D01*
X11066450D01*
Y5677916D01*
X11037011D01*
Y5679466D01*
Y5681015D01*
Y5682564D01*
Y5684114D01*
X11060252D01*
Y5685663D01*
X11061801D01*
Y5687213D01*
X11063351D01*
Y5688762D01*
Y5690311D01*
Y5691861D01*
Y5693410D01*
Y5694960D01*
Y5696509D01*
Y5698058D01*
Y5699608D01*
Y5701157D01*
Y5702707D01*
Y5704256D01*
Y5705805D01*
Y5707355D01*
Y5708904D01*
Y5710454D01*
Y5712003D01*
Y5713552D01*
Y5715102D01*
Y5716651D01*
Y5718201D01*
Y5719750D01*
Y5721299D01*
Y5722849D01*
X11061801D01*
Y5724398D01*
X11060252D01*
Y5725948D01*
X11044758D01*
Y5724398D01*
Y5722849D01*
X11043209D01*
Y5721299D01*
Y5719750D01*
Y5718201D01*
Y5716651D01*
Y5715102D01*
Y5713552D01*
Y5712003D01*
X11044758D01*
Y5710454D01*
Y5708904D01*
X11046308D01*
Y5707355D01*
X11057153D01*
Y5705805D01*
Y5704256D01*
Y5702707D01*
Y5701157D01*
X11040110D01*
Y5702707D01*
X11038561D01*
Y5704256D01*
X11037011D01*
Y5705805D01*
X11035462D01*
Y5707355D01*
Y5708904D01*
Y5710454D01*
X11033912D01*
Y5712003D01*
Y5713552D01*
Y5715102D01*
Y5716651D01*
Y5718201D01*
Y5719750D01*
Y5721299D01*
Y5722849D01*
X11035462D01*
Y5724398D01*
Y5725948D01*
Y5727497D01*
X11037011D01*
Y5729046D01*
X11038561D01*
Y5730596D01*
X11040110D01*
Y5732145D01*
X11066450D01*
Y5730596D01*
D02*
G37*
G36*
X11019968D02*
X11021517D01*
Y5729046D01*
X11023066D01*
Y5727497D01*
X11024616D01*
Y5725948D01*
Y5724398D01*
Y5722849D01*
X11026165D01*
Y5721299D01*
Y5719750D01*
Y5718201D01*
Y5716651D01*
Y5715102D01*
Y5713552D01*
Y5712003D01*
X11024616D01*
Y5710454D01*
Y5708904D01*
Y5707355D01*
X11023066D01*
Y5705805D01*
Y5704256D01*
X11021517D01*
Y5702707D01*
X11019968D01*
Y5701157D01*
X10998276D01*
Y5699608D01*
X10996727D01*
Y5698058D01*
Y5696509D01*
X10995177D01*
Y5694960D01*
Y5693410D01*
Y5691861D01*
Y5690311D01*
Y5688762D01*
X10996727D01*
Y5687213D01*
Y5685663D01*
X10998276D01*
Y5684114D01*
X11021517D01*
Y5682564D01*
Y5681015D01*
Y5679466D01*
Y5677916D01*
X10992078D01*
Y5679466D01*
X10990529D01*
Y5681015D01*
X10988980D01*
Y5682564D01*
Y5684114D01*
X10987430D01*
Y5685663D01*
Y5687213D01*
Y5688762D01*
Y5690311D01*
Y5691861D01*
X10985881D01*
Y5693410D01*
X10987430D01*
Y5694960D01*
Y5696509D01*
Y5698058D01*
Y5699608D01*
Y5701157D01*
Y5702707D01*
X10988980D01*
Y5704256D01*
Y5705805D01*
X10990529D01*
Y5707355D01*
X10992078D01*
Y5708904D01*
X11013770D01*
Y5710454D01*
X11015320D01*
Y5712003D01*
X11016869D01*
Y5713552D01*
Y5715102D01*
Y5716651D01*
Y5718201D01*
Y5719750D01*
Y5721299D01*
Y5722849D01*
X11015320D01*
Y5724398D01*
Y5725948D01*
X10993628D01*
Y5727497D01*
Y5729046D01*
Y5730596D01*
Y5732145D01*
X11019968D01*
Y5730596D01*
D02*
G37*
G36*
X10981233D02*
Y5729046D01*
Y5727497D01*
Y5725948D01*
Y5724398D01*
Y5722849D01*
Y5721299D01*
Y5719750D01*
Y5718201D01*
Y5716651D01*
Y5715102D01*
Y5713552D01*
Y5712003D01*
Y5710454D01*
Y5708904D01*
Y5707355D01*
Y5705805D01*
Y5704256D01*
Y5702707D01*
Y5701157D01*
Y5699608D01*
Y5698058D01*
Y5696509D01*
Y5694960D01*
Y5693410D01*
Y5691861D01*
Y5690311D01*
Y5688762D01*
Y5687213D01*
Y5685663D01*
Y5684114D01*
Y5682564D01*
Y5681015D01*
Y5679466D01*
Y5677916D01*
X10970387D01*
Y5679466D01*
Y5681015D01*
Y5682564D01*
Y5684114D01*
Y5685663D01*
Y5687213D01*
Y5688762D01*
Y5690311D01*
Y5691861D01*
Y5693410D01*
Y5694960D01*
Y5696509D01*
Y5698058D01*
Y5699608D01*
Y5701157D01*
Y5702707D01*
Y5704256D01*
Y5705805D01*
Y5707355D01*
Y5708904D01*
Y5710454D01*
Y5712003D01*
Y5713552D01*
Y5715102D01*
Y5716651D01*
Y5718201D01*
Y5719750D01*
Y5721299D01*
Y5722849D01*
Y5724398D01*
Y5725948D01*
Y5727497D01*
Y5729046D01*
Y5730596D01*
Y5732145D01*
X10981233D01*
Y5730596D01*
D02*
G37*
G36*
X10953344D02*
X10956442D01*
Y5729046D01*
X10957992D01*
Y5727497D01*
X10959541D01*
Y5725948D01*
Y5724398D01*
Y5722849D01*
Y5721299D01*
X10961090D01*
Y5719750D01*
Y5718201D01*
Y5716651D01*
Y5715102D01*
Y5713552D01*
Y5712003D01*
Y5710454D01*
Y5708904D01*
Y5707355D01*
Y5705805D01*
Y5704256D01*
Y5702707D01*
Y5701157D01*
Y5699608D01*
Y5698058D01*
Y5696509D01*
Y5694960D01*
Y5693410D01*
Y5691861D01*
Y5690311D01*
Y5688762D01*
Y5687213D01*
X10959541D01*
Y5685663D01*
Y5684114D01*
Y5682564D01*
X10957992D01*
Y5681015D01*
X10956442D01*
Y5679466D01*
X10953344D01*
Y5677916D01*
X10934751D01*
Y5679466D01*
Y5681015D01*
Y5682564D01*
Y5684114D01*
X10947146D01*
Y5685663D01*
X10948695D01*
Y5687213D01*
X10950245D01*
Y5688762D01*
Y5690311D01*
Y5691861D01*
Y5693410D01*
Y5694960D01*
Y5696509D01*
Y5698058D01*
Y5699608D01*
Y5701157D01*
Y5702707D01*
Y5704256D01*
Y5705805D01*
Y5707355D01*
Y5708904D01*
Y5710454D01*
Y5712003D01*
Y5713552D01*
Y5715102D01*
Y5716651D01*
Y5718201D01*
Y5719750D01*
Y5721299D01*
Y5722849D01*
X10948695D01*
Y5724398D01*
X10945597D01*
Y5725948D01*
X10928553D01*
Y5724398D01*
Y5722849D01*
Y5721299D01*
Y5719750D01*
Y5718201D01*
Y5716651D01*
Y5715102D01*
Y5713552D01*
Y5712003D01*
Y5710454D01*
Y5708904D01*
Y5707355D01*
Y5705805D01*
Y5704256D01*
Y5702707D01*
Y5701157D01*
Y5699608D01*
Y5698058D01*
Y5696509D01*
Y5694960D01*
Y5693410D01*
Y5691861D01*
Y5690311D01*
Y5688762D01*
Y5687213D01*
Y5685663D01*
Y5684114D01*
Y5682564D01*
Y5681015D01*
Y5679466D01*
Y5677916D01*
Y5676367D01*
Y5674817D01*
Y5673268D01*
Y5671718D01*
Y5670169D01*
Y5668620D01*
X10930103D01*
Y5667070D01*
Y5665521D01*
Y5663972D01*
X10931652D01*
Y5662422D01*
X10933201D01*
Y5660873D01*
X10947146D01*
Y5659323D01*
Y5657774D01*
Y5656225D01*
Y5654675D01*
X10927004D01*
Y5656225D01*
X10923905D01*
Y5657774D01*
X10922356D01*
Y5659323D01*
X10920806D01*
Y5660873D01*
Y5662422D01*
X10919257D01*
Y5663972D01*
Y5665521D01*
Y5667070D01*
Y5668620D01*
Y5670169D01*
Y5671718D01*
Y5673268D01*
Y5674817D01*
Y5676367D01*
Y5677916D01*
Y5679466D01*
Y5681015D01*
Y5682564D01*
Y5684114D01*
Y5685663D01*
Y5687213D01*
Y5688762D01*
Y5690311D01*
Y5691861D01*
Y5693410D01*
Y5694960D01*
Y5696509D01*
Y5698058D01*
Y5699608D01*
Y5701157D01*
Y5702707D01*
Y5704256D01*
Y5705805D01*
Y5707355D01*
Y5708904D01*
Y5710454D01*
Y5712003D01*
Y5713552D01*
Y5715102D01*
Y5716651D01*
Y5718201D01*
Y5719750D01*
Y5721299D01*
Y5722849D01*
Y5724398D01*
Y5725948D01*
Y5727497D01*
Y5729046D01*
Y5730596D01*
Y5732145D01*
X10953344D01*
Y5730596D01*
D02*
G37*
G36*
X10911510D02*
Y5729046D01*
Y5727497D01*
Y5725948D01*
Y5724398D01*
Y5722849D01*
Y5721299D01*
Y5719750D01*
Y5718201D01*
Y5716651D01*
Y5715102D01*
Y5713552D01*
Y5712003D01*
Y5710454D01*
Y5708904D01*
Y5707355D01*
Y5705805D01*
Y5704256D01*
Y5702707D01*
Y5701157D01*
Y5699608D01*
Y5698058D01*
Y5696509D01*
Y5694960D01*
Y5693410D01*
Y5691861D01*
Y5690311D01*
Y5688762D01*
Y5687213D01*
Y5685663D01*
Y5684114D01*
Y5682564D01*
Y5681015D01*
Y5679466D01*
Y5677916D01*
X10900664D01*
Y5679466D01*
Y5681015D01*
Y5682564D01*
Y5684114D01*
Y5685663D01*
Y5687213D01*
Y5688762D01*
Y5690311D01*
Y5691861D01*
Y5693410D01*
Y5694960D01*
Y5696509D01*
Y5698058D01*
Y5699608D01*
Y5701157D01*
Y5702707D01*
Y5704256D01*
Y5705805D01*
Y5707355D01*
Y5708904D01*
Y5710454D01*
Y5712003D01*
Y5713552D01*
Y5715102D01*
Y5716651D01*
Y5718201D01*
Y5719750D01*
Y5721299D01*
Y5722849D01*
Y5724398D01*
Y5725948D01*
X10882071D01*
Y5724398D01*
X10880522D01*
Y5722849D01*
Y5721299D01*
Y5719750D01*
X10878972D01*
Y5718201D01*
Y5716651D01*
Y5715102D01*
Y5713552D01*
Y5712003D01*
Y5710454D01*
Y5708904D01*
Y5707355D01*
Y5705805D01*
Y5704256D01*
Y5702707D01*
Y5701157D01*
Y5699608D01*
Y5698058D01*
Y5696509D01*
Y5694960D01*
Y5693410D01*
Y5691861D01*
Y5690311D01*
Y5688762D01*
Y5687213D01*
Y5685663D01*
Y5684114D01*
Y5682564D01*
Y5681015D01*
Y5679466D01*
Y5677916D01*
X10869676D01*
Y5679466D01*
Y5681015D01*
Y5682564D01*
Y5684114D01*
Y5685663D01*
Y5687213D01*
Y5688762D01*
Y5690311D01*
Y5691861D01*
Y5693410D01*
Y5694960D01*
Y5696509D01*
Y5698058D01*
Y5699608D01*
Y5701157D01*
Y5702707D01*
Y5704256D01*
Y5705805D01*
Y5707355D01*
Y5708904D01*
Y5710454D01*
Y5712003D01*
Y5713552D01*
Y5715102D01*
Y5716651D01*
Y5718201D01*
Y5719750D01*
Y5721299D01*
Y5722849D01*
Y5724398D01*
Y5725948D01*
X10871225D01*
Y5727497D01*
Y5729046D01*
X10872775D01*
Y5730596D01*
X10875874D01*
Y5732145D01*
X10911510D01*
Y5730596D01*
D02*
G37*
G36*
X10855731D02*
X10858830D01*
Y5729046D01*
X10860380D01*
Y5727497D01*
X10861929D01*
Y5725948D01*
Y5724398D01*
Y5722849D01*
X10863478D01*
Y5721299D01*
Y5719750D01*
Y5718201D01*
Y5716651D01*
Y5715102D01*
Y5713552D01*
Y5712003D01*
Y5710454D01*
Y5708904D01*
Y5707355D01*
Y5705805D01*
Y5704256D01*
Y5702707D01*
Y5701157D01*
Y5699608D01*
Y5698058D01*
Y5696509D01*
Y5694960D01*
Y5693410D01*
Y5691861D01*
Y5690311D01*
Y5688762D01*
Y5687213D01*
X10861929D01*
Y5685663D01*
Y5684114D01*
Y5682564D01*
X10860380D01*
Y5681015D01*
X10858830D01*
Y5679466D01*
X10855731D01*
Y5677916D01*
X10826293D01*
Y5679466D01*
Y5681015D01*
Y5682564D01*
Y5684114D01*
X10849534D01*
Y5685663D01*
X10851083D01*
Y5687213D01*
X10852633D01*
Y5688762D01*
Y5690311D01*
Y5691861D01*
Y5693410D01*
Y5694960D01*
Y5696509D01*
Y5698058D01*
Y5699608D01*
Y5701157D01*
Y5702707D01*
Y5704256D01*
Y5705805D01*
Y5707355D01*
Y5708904D01*
Y5710454D01*
Y5712003D01*
Y5713552D01*
Y5715102D01*
Y5716651D01*
Y5718201D01*
Y5719750D01*
Y5721299D01*
Y5722849D01*
X10851083D01*
Y5724398D01*
X10849534D01*
Y5725948D01*
X10834040D01*
Y5724398D01*
Y5722849D01*
X10832490D01*
Y5721299D01*
Y5719750D01*
Y5718201D01*
Y5716651D01*
Y5715102D01*
Y5713552D01*
Y5712003D01*
X10834040D01*
Y5710454D01*
Y5708904D01*
X10835589D01*
Y5707355D01*
X10846435D01*
Y5705805D01*
Y5704256D01*
Y5702707D01*
Y5701157D01*
X10829392D01*
Y5702707D01*
X10827842D01*
Y5704256D01*
X10826293D01*
Y5705805D01*
X10824743D01*
Y5707355D01*
Y5708904D01*
Y5710454D01*
X10823194D01*
Y5712003D01*
Y5713552D01*
Y5715102D01*
Y5716651D01*
Y5718201D01*
Y5719750D01*
Y5721299D01*
Y5722849D01*
X10824743D01*
Y5724398D01*
Y5725948D01*
Y5727497D01*
X10826293D01*
Y5729046D01*
X10827842D01*
Y5730596D01*
X10829392D01*
Y5732145D01*
X10855731D01*
Y5730596D01*
D02*
G37*
G36*
X10784459Y5744540D02*
Y5742991D01*
Y5741442D01*
Y5739892D01*
Y5738343D01*
Y5736793D01*
Y5735244D01*
Y5733695D01*
Y5732145D01*
Y5730596D01*
Y5729046D01*
Y5727497D01*
Y5725948D01*
Y5724398D01*
Y5722849D01*
Y5721299D01*
Y5719750D01*
Y5718201D01*
Y5716651D01*
Y5715102D01*
Y5713552D01*
Y5712003D01*
Y5710454D01*
Y5708904D01*
Y5707355D01*
Y5705805D01*
Y5704256D01*
Y5702707D01*
Y5701157D01*
Y5699608D01*
Y5698058D01*
Y5696509D01*
Y5694960D01*
Y5693410D01*
Y5691861D01*
Y5690311D01*
Y5688762D01*
Y5687213D01*
Y5685663D01*
Y5684114D01*
X10799953D01*
Y5685663D01*
X10801503D01*
Y5687213D01*
X10803052D01*
Y5688762D01*
X10804601D01*
Y5690311D01*
Y5691861D01*
Y5693410D01*
Y5694960D01*
Y5696509D01*
Y5698058D01*
Y5699608D01*
Y5701157D01*
Y5702707D01*
Y5704256D01*
Y5705805D01*
Y5707355D01*
Y5708904D01*
Y5710454D01*
Y5712003D01*
Y5713552D01*
Y5715102D01*
Y5716651D01*
Y5718201D01*
Y5719750D01*
Y5721299D01*
Y5722849D01*
X10803052D01*
Y5724398D01*
X10801503D01*
Y5725948D01*
X10790656D01*
Y5727497D01*
Y5729046D01*
Y5730596D01*
Y5732145D01*
X10807700D01*
Y5730596D01*
X10810799D01*
Y5729046D01*
X10812348D01*
Y5727497D01*
Y5725948D01*
X10813898D01*
Y5724398D01*
Y5722849D01*
Y5721299D01*
X10815447D01*
Y5719750D01*
Y5718201D01*
Y5716651D01*
Y5715102D01*
Y5713552D01*
Y5712003D01*
Y5710454D01*
Y5708904D01*
Y5707355D01*
Y5705805D01*
Y5704256D01*
Y5702707D01*
Y5701157D01*
Y5699608D01*
Y5698058D01*
Y5696509D01*
Y5694960D01*
Y5693410D01*
Y5691861D01*
Y5690311D01*
Y5688762D01*
X10813898D01*
Y5687213D01*
Y5685663D01*
Y5684114D01*
X10812348D01*
Y5682564D01*
Y5681015D01*
X10810799D01*
Y5679466D01*
X10807700D01*
Y5677916D01*
X10775163D01*
Y5679466D01*
Y5681015D01*
Y5682564D01*
Y5684114D01*
Y5685663D01*
Y5687213D01*
Y5688762D01*
Y5690311D01*
Y5691861D01*
Y5693410D01*
Y5694960D01*
Y5696509D01*
Y5698058D01*
Y5699608D01*
Y5701157D01*
Y5702707D01*
Y5704256D01*
Y5705805D01*
Y5707355D01*
Y5708904D01*
Y5710454D01*
Y5712003D01*
Y5713552D01*
Y5715102D01*
Y5716651D01*
Y5718201D01*
Y5719750D01*
Y5721299D01*
Y5722849D01*
Y5724398D01*
Y5725948D01*
Y5727497D01*
Y5729046D01*
Y5730596D01*
Y5732145D01*
Y5733695D01*
Y5735244D01*
Y5736793D01*
Y5738343D01*
Y5739892D01*
Y5741442D01*
Y5742991D01*
Y5744540D01*
Y5746090D01*
X10784459D01*
Y5744540D01*
D02*
G37*
G36*
X10556697D02*
Y5742991D01*
Y5741442D01*
Y5739892D01*
X10548950D01*
Y5738343D01*
Y5736793D01*
Y5735244D01*
Y5733695D01*
Y5732145D01*
Y5730596D01*
Y5729046D01*
Y5727497D01*
Y5725948D01*
Y5724398D01*
Y5722849D01*
Y5721299D01*
Y5719750D01*
Y5718201D01*
Y5716651D01*
Y5715102D01*
Y5713552D01*
Y5712003D01*
Y5710454D01*
Y5708904D01*
Y5707355D01*
Y5705805D01*
Y5704256D01*
Y5702707D01*
Y5701157D01*
Y5699608D01*
Y5698058D01*
Y5696509D01*
Y5694960D01*
Y5693410D01*
Y5691861D01*
X10550500D01*
Y5690311D01*
Y5688762D01*
Y5687213D01*
X10552049D01*
Y5685663D01*
X10553598D01*
Y5684114D01*
X10575290D01*
Y5682564D01*
Y5681015D01*
Y5679466D01*
Y5677916D01*
X10547401D01*
Y5679466D01*
X10545851D01*
Y5681015D01*
X10544302D01*
Y5682564D01*
X10542753D01*
Y5684114D01*
X10541203D01*
Y5685663D01*
Y5687213D01*
Y5688762D01*
X10539654D01*
Y5690311D01*
Y5691861D01*
Y5693410D01*
Y5694960D01*
Y5696509D01*
Y5698058D01*
Y5699608D01*
Y5701157D01*
Y5702707D01*
Y5704256D01*
Y5705805D01*
Y5707355D01*
Y5708904D01*
Y5710454D01*
Y5712003D01*
Y5713552D01*
Y5715102D01*
Y5716651D01*
Y5718201D01*
Y5719750D01*
Y5721299D01*
Y5722849D01*
Y5724398D01*
Y5725948D01*
Y5727497D01*
Y5729046D01*
Y5730596D01*
Y5732145D01*
Y5733695D01*
Y5735244D01*
Y5736793D01*
Y5738343D01*
Y5739892D01*
Y5741442D01*
Y5742991D01*
Y5744540D01*
Y5746090D01*
X10556697D01*
Y5744540D01*
D02*
G37*
G36*
X10474579Y5730596D02*
Y5729046D01*
Y5727497D01*
Y5725948D01*
X10457536D01*
Y5724398D01*
X10455986D01*
Y5722849D01*
X10454437D01*
Y5721299D01*
Y5719750D01*
Y5718201D01*
Y5716651D01*
Y5715102D01*
Y5713552D01*
Y5712003D01*
Y5710454D01*
Y5708904D01*
Y5707355D01*
Y5705805D01*
Y5704256D01*
Y5702707D01*
Y5701157D01*
Y5699608D01*
Y5698058D01*
Y5696509D01*
Y5694960D01*
Y5693410D01*
Y5691861D01*
Y5690311D01*
Y5688762D01*
Y5687213D01*
Y5685663D01*
Y5684114D01*
X10471480D01*
Y5685663D01*
X10473030D01*
Y5687213D01*
Y5688762D01*
Y5690311D01*
Y5691861D01*
X10474579D01*
Y5693410D01*
Y5694960D01*
Y5696509D01*
Y5698058D01*
X10473030D01*
Y5699608D01*
Y5701157D01*
Y5702707D01*
X10471480D01*
Y5704256D01*
X10459085D01*
Y5705805D01*
Y5707355D01*
Y5708904D01*
Y5710454D01*
X10476129D01*
Y5708904D01*
X10479227D01*
Y5707355D01*
X10480777D01*
Y5705805D01*
Y5704256D01*
X10482326D01*
Y5702707D01*
Y5701157D01*
Y5699608D01*
X10483876D01*
Y5698058D01*
Y5696509D01*
Y5694960D01*
Y5693410D01*
Y5691861D01*
Y5690311D01*
Y5688762D01*
X10482326D01*
Y5687213D01*
Y5685663D01*
Y5684114D01*
X10480777D01*
Y5682564D01*
Y5681015D01*
X10479227D01*
Y5679466D01*
X10476129D01*
Y5677916D01*
X10443591D01*
Y5679466D01*
Y5681015D01*
Y5682564D01*
Y5684114D01*
Y5685663D01*
Y5687213D01*
Y5688762D01*
Y5690311D01*
Y5691861D01*
Y5693410D01*
Y5694960D01*
Y5696509D01*
Y5698058D01*
Y5699608D01*
Y5701157D01*
Y5702707D01*
Y5704256D01*
Y5705805D01*
Y5707355D01*
Y5708904D01*
Y5710454D01*
Y5712003D01*
Y5713552D01*
Y5715102D01*
Y5716651D01*
Y5718201D01*
Y5719750D01*
X10445141D01*
Y5721299D01*
Y5722849D01*
Y5724398D01*
Y5725948D01*
Y5727497D01*
X10446690D01*
Y5729046D01*
X10448239D01*
Y5730596D01*
X10451338D01*
Y5732145D01*
X10474579D01*
Y5730596D01*
D02*
G37*
G36*
X10437394D02*
Y5729046D01*
Y5727497D01*
Y5725948D01*
Y5724398D01*
Y5722849D01*
Y5721299D01*
Y5719750D01*
Y5718201D01*
Y5716651D01*
Y5715102D01*
Y5713552D01*
Y5712003D01*
Y5710454D01*
Y5708904D01*
Y5707355D01*
Y5705805D01*
Y5704256D01*
Y5702707D01*
Y5701157D01*
Y5699608D01*
Y5698058D01*
Y5696509D01*
Y5694960D01*
Y5693410D01*
Y5691861D01*
Y5690311D01*
Y5688762D01*
Y5687213D01*
Y5685663D01*
Y5684114D01*
Y5682564D01*
Y5681015D01*
Y5679466D01*
Y5677916D01*
X10426548D01*
Y5679466D01*
Y5681015D01*
Y5682564D01*
Y5684114D01*
Y5685663D01*
Y5687213D01*
Y5688762D01*
Y5690311D01*
Y5691861D01*
Y5693410D01*
Y5694960D01*
Y5696509D01*
Y5698058D01*
Y5699608D01*
Y5701157D01*
Y5702707D01*
Y5704256D01*
Y5705805D01*
Y5707355D01*
Y5708904D01*
Y5710454D01*
Y5712003D01*
Y5713552D01*
Y5715102D01*
Y5716651D01*
Y5718201D01*
Y5719750D01*
Y5721299D01*
Y5722849D01*
Y5724398D01*
Y5725948D01*
X10407955D01*
Y5724398D01*
X10406406D01*
Y5722849D01*
Y5721299D01*
Y5719750D01*
X10404856D01*
Y5718201D01*
Y5716651D01*
Y5715102D01*
Y5713552D01*
Y5712003D01*
Y5710454D01*
Y5708904D01*
Y5707355D01*
Y5705805D01*
Y5704256D01*
Y5702707D01*
Y5701157D01*
Y5699608D01*
Y5698058D01*
Y5696509D01*
Y5694960D01*
Y5693410D01*
Y5691861D01*
Y5690311D01*
Y5688762D01*
Y5687213D01*
Y5685663D01*
Y5684114D01*
Y5682564D01*
Y5681015D01*
Y5679466D01*
Y5677916D01*
X10395560D01*
Y5679466D01*
Y5681015D01*
Y5682564D01*
Y5684114D01*
Y5685663D01*
Y5687213D01*
Y5688762D01*
Y5690311D01*
Y5691861D01*
Y5693410D01*
Y5694960D01*
Y5696509D01*
Y5698058D01*
Y5699608D01*
Y5701157D01*
Y5702707D01*
Y5704256D01*
Y5705805D01*
Y5707355D01*
Y5708904D01*
Y5710454D01*
Y5712003D01*
Y5713552D01*
Y5715102D01*
Y5716651D01*
Y5718201D01*
Y5719750D01*
Y5721299D01*
Y5722849D01*
Y5724398D01*
Y5725948D01*
X10397109D01*
Y5727497D01*
Y5729046D01*
X10398658D01*
Y5730596D01*
X10401757D01*
Y5732145D01*
X10437394D01*
Y5730596D01*
D02*
G37*
G36*
X10302596D02*
Y5729046D01*
Y5727497D01*
Y5725948D01*
Y5724398D01*
Y5722849D01*
Y5721299D01*
Y5719750D01*
Y5718201D01*
Y5716651D01*
Y5715102D01*
Y5713552D01*
Y5712003D01*
Y5710454D01*
Y5708904D01*
Y5707355D01*
Y5705805D01*
Y5704256D01*
Y5702707D01*
Y5701157D01*
Y5699608D01*
Y5698058D01*
Y5696509D01*
Y5694960D01*
Y5693410D01*
Y5691861D01*
Y5690311D01*
Y5688762D01*
Y5687213D01*
Y5685663D01*
Y5684114D01*
Y5682564D01*
Y5681015D01*
Y5679466D01*
Y5677916D01*
X10291750D01*
Y5679466D01*
Y5681015D01*
Y5682564D01*
Y5684114D01*
Y5685663D01*
Y5687213D01*
Y5688762D01*
Y5690311D01*
Y5691861D01*
Y5693410D01*
Y5694960D01*
Y5696509D01*
Y5698058D01*
Y5699608D01*
Y5701157D01*
Y5702707D01*
Y5704256D01*
Y5705805D01*
Y5707355D01*
Y5708904D01*
Y5710454D01*
Y5712003D01*
Y5713552D01*
Y5715102D01*
Y5716651D01*
Y5718201D01*
Y5719750D01*
Y5721299D01*
Y5722849D01*
Y5724398D01*
Y5725948D01*
Y5727497D01*
Y5729046D01*
Y5730596D01*
Y5732145D01*
X10302596D01*
Y5730596D01*
D02*
G37*
G36*
X10273157D02*
X10277805D01*
Y5729046D01*
X10279355D01*
Y5727497D01*
X10280904D01*
Y5725948D01*
X10282454D01*
Y5724398D01*
Y5722849D01*
X10284003D01*
Y5721299D01*
Y5719750D01*
Y5718201D01*
Y5716651D01*
Y5715102D01*
Y5713552D01*
Y5712003D01*
Y5710454D01*
Y5708904D01*
Y5707355D01*
Y5705805D01*
Y5704256D01*
Y5702707D01*
Y5701157D01*
Y5699608D01*
Y5698058D01*
Y5696509D01*
Y5694960D01*
Y5693410D01*
Y5691861D01*
Y5690311D01*
Y5688762D01*
Y5687213D01*
Y5685663D01*
Y5684114D01*
Y5682564D01*
Y5681015D01*
Y5679466D01*
Y5677916D01*
X10274706D01*
Y5679466D01*
Y5681015D01*
Y5682564D01*
Y5684114D01*
Y5685663D01*
Y5687213D01*
Y5688762D01*
Y5690311D01*
Y5691861D01*
Y5693410D01*
Y5694960D01*
Y5696509D01*
Y5698058D01*
Y5699608D01*
Y5701157D01*
Y5702707D01*
Y5704256D01*
Y5705805D01*
Y5707355D01*
Y5708904D01*
Y5710454D01*
Y5712003D01*
Y5713552D01*
Y5715102D01*
Y5716651D01*
X10273157D01*
Y5718201D01*
Y5719750D01*
Y5721299D01*
Y5722849D01*
Y5724398D01*
X10270058D01*
Y5725948D01*
X10259212D01*
Y5727497D01*
Y5729046D01*
Y5730596D01*
Y5732145D01*
X10273157D01*
Y5730596D01*
D02*
G37*
G36*
X10246817D02*
X10249916D01*
Y5729046D01*
X10251466D01*
Y5727497D01*
X10253015D01*
Y5725948D01*
Y5724398D01*
Y5722849D01*
X10254564D01*
Y5721299D01*
Y5719750D01*
Y5718201D01*
Y5716651D01*
Y5715102D01*
Y5713552D01*
Y5712003D01*
Y5710454D01*
Y5708904D01*
Y5707355D01*
Y5705805D01*
Y5704256D01*
Y5702707D01*
Y5701157D01*
Y5699608D01*
Y5698058D01*
Y5696509D01*
Y5694960D01*
Y5693410D01*
Y5691861D01*
Y5690311D01*
Y5688762D01*
Y5687213D01*
X10253015D01*
Y5685663D01*
Y5684114D01*
Y5682564D01*
X10251466D01*
Y5681015D01*
X10249916D01*
Y5679466D01*
X10246817D01*
Y5677916D01*
X10228224D01*
Y5679466D01*
Y5681015D01*
Y5682564D01*
Y5684114D01*
X10240620D01*
Y5685663D01*
X10242169D01*
Y5687213D01*
X10243718D01*
Y5688762D01*
Y5690311D01*
Y5691861D01*
Y5693410D01*
Y5694960D01*
Y5696509D01*
Y5698058D01*
Y5699608D01*
Y5701157D01*
Y5702707D01*
Y5704256D01*
Y5705805D01*
Y5707355D01*
Y5708904D01*
Y5710454D01*
Y5712003D01*
Y5713552D01*
Y5715102D01*
Y5716651D01*
Y5718201D01*
Y5719750D01*
Y5721299D01*
Y5722849D01*
X10242169D01*
Y5724398D01*
X10239070D01*
Y5725948D01*
X10223576D01*
Y5724398D01*
Y5722849D01*
Y5721299D01*
Y5719750D01*
Y5718201D01*
Y5716651D01*
Y5715102D01*
Y5713552D01*
Y5712003D01*
Y5710454D01*
Y5708904D01*
Y5707355D01*
Y5705805D01*
Y5704256D01*
Y5702707D01*
Y5701157D01*
Y5699608D01*
Y5698058D01*
Y5696509D01*
Y5694960D01*
Y5693410D01*
Y5691861D01*
Y5690311D01*
Y5688762D01*
Y5687213D01*
Y5685663D01*
Y5684114D01*
Y5682564D01*
Y5681015D01*
Y5679466D01*
Y5677916D01*
Y5676367D01*
Y5674817D01*
Y5673268D01*
Y5671718D01*
Y5670169D01*
Y5668620D01*
Y5667070D01*
Y5665521D01*
Y5663972D01*
Y5662422D01*
Y5660873D01*
Y5659323D01*
Y5657774D01*
Y5656225D01*
Y5654675D01*
X10212730D01*
Y5656225D01*
Y5657774D01*
Y5659323D01*
Y5660873D01*
Y5662422D01*
Y5663972D01*
Y5665521D01*
Y5667070D01*
Y5668620D01*
Y5670169D01*
Y5671718D01*
Y5673268D01*
Y5674817D01*
Y5676367D01*
Y5677916D01*
Y5679466D01*
Y5681015D01*
Y5682564D01*
Y5684114D01*
Y5685663D01*
Y5687213D01*
Y5688762D01*
Y5690311D01*
Y5691861D01*
Y5693410D01*
Y5694960D01*
Y5696509D01*
Y5698058D01*
Y5699608D01*
Y5701157D01*
Y5702707D01*
Y5704256D01*
Y5705805D01*
Y5707355D01*
Y5708904D01*
Y5710454D01*
Y5712003D01*
Y5713552D01*
Y5715102D01*
Y5716651D01*
Y5718201D01*
Y5719750D01*
Y5721299D01*
Y5722849D01*
Y5724398D01*
Y5725948D01*
Y5727497D01*
Y5729046D01*
Y5730596D01*
Y5732145D01*
X10246817D01*
Y5730596D01*
D02*
G37*
G36*
X10150754D02*
X10153853D01*
Y5729046D01*
X10155403D01*
Y5727497D01*
X10156952D01*
Y5725948D01*
Y5724398D01*
Y5722849D01*
X10158502D01*
Y5721299D01*
Y5719750D01*
Y5718201D01*
Y5716651D01*
Y5715102D01*
Y5713552D01*
Y5712003D01*
Y5710454D01*
Y5708904D01*
Y5707355D01*
Y5705805D01*
Y5704256D01*
Y5702707D01*
Y5701157D01*
Y5699608D01*
Y5698058D01*
Y5696509D01*
Y5694960D01*
Y5693410D01*
Y5691861D01*
Y5690311D01*
Y5688762D01*
Y5687213D01*
X10156952D01*
Y5685663D01*
Y5684114D01*
Y5682564D01*
X10155403D01*
Y5681015D01*
X10153853D01*
Y5679466D01*
X10150754D01*
Y5677916D01*
X10121316D01*
Y5679466D01*
Y5681015D01*
Y5682564D01*
Y5684114D01*
X10144557D01*
Y5685663D01*
X10146106D01*
Y5687213D01*
X10147656D01*
Y5688762D01*
Y5690311D01*
Y5691861D01*
Y5693410D01*
Y5694960D01*
Y5696509D01*
Y5698058D01*
Y5699608D01*
Y5701157D01*
Y5702707D01*
Y5704256D01*
Y5705805D01*
Y5707355D01*
Y5708904D01*
Y5710454D01*
Y5712003D01*
Y5713552D01*
Y5715102D01*
Y5716651D01*
Y5718201D01*
Y5719750D01*
Y5721299D01*
Y5722849D01*
X10146106D01*
Y5724398D01*
X10144557D01*
Y5725948D01*
X10129063D01*
Y5724398D01*
Y5722849D01*
X10127514D01*
Y5721299D01*
Y5719750D01*
Y5718201D01*
Y5716651D01*
Y5715102D01*
Y5713552D01*
Y5712003D01*
X10129063D01*
Y5710454D01*
Y5708904D01*
X10130612D01*
Y5707355D01*
X10141458D01*
Y5705805D01*
Y5704256D01*
Y5702707D01*
Y5701157D01*
X10124415D01*
Y5702707D01*
X10122865D01*
Y5704256D01*
X10121316D01*
Y5705805D01*
X10119767D01*
Y5707355D01*
Y5708904D01*
Y5710454D01*
X10118217D01*
Y5712003D01*
Y5713552D01*
Y5715102D01*
Y5716651D01*
Y5718201D01*
Y5719750D01*
Y5721299D01*
Y5722849D01*
X10119767D01*
Y5724398D01*
Y5725948D01*
Y5727497D01*
X10121316D01*
Y5729046D01*
X10122865D01*
Y5730596D01*
X10124415D01*
Y5732145D01*
X10150754D01*
Y5730596D01*
D02*
G37*
G36*
X10079482D02*
Y5729046D01*
Y5727497D01*
Y5725948D01*
X10062439D01*
Y5724398D01*
X10060889D01*
Y5722849D01*
X10059340D01*
Y5721299D01*
Y5719750D01*
Y5718201D01*
Y5716651D01*
Y5715102D01*
Y5713552D01*
Y5712003D01*
Y5710454D01*
Y5708904D01*
Y5707355D01*
Y5705805D01*
Y5704256D01*
Y5702707D01*
Y5701157D01*
Y5699608D01*
Y5698058D01*
Y5696509D01*
Y5694960D01*
Y5693410D01*
Y5691861D01*
Y5690311D01*
Y5688762D01*
Y5687213D01*
Y5685663D01*
Y5684114D01*
X10076383D01*
Y5685663D01*
X10077933D01*
Y5687213D01*
Y5688762D01*
Y5690311D01*
Y5691861D01*
X10079482D01*
Y5693410D01*
Y5694960D01*
Y5696509D01*
Y5698058D01*
X10077933D01*
Y5699608D01*
Y5701157D01*
Y5702707D01*
X10076383D01*
Y5704256D01*
X10063988D01*
Y5705805D01*
Y5707355D01*
Y5708904D01*
Y5710454D01*
X10081032D01*
Y5708904D01*
X10084130D01*
Y5707355D01*
X10085680D01*
Y5705805D01*
Y5704256D01*
X10087229D01*
Y5702707D01*
Y5701157D01*
Y5699608D01*
X10088779D01*
Y5698058D01*
Y5696509D01*
Y5694960D01*
Y5693410D01*
Y5691861D01*
Y5690311D01*
Y5688762D01*
X10087229D01*
Y5687213D01*
Y5685663D01*
Y5684114D01*
X10085680D01*
Y5682564D01*
Y5681015D01*
X10084130D01*
Y5679466D01*
X10081032D01*
Y5677916D01*
X10048494D01*
Y5679466D01*
Y5681015D01*
Y5682564D01*
Y5684114D01*
Y5685663D01*
Y5687213D01*
Y5688762D01*
Y5690311D01*
Y5691861D01*
Y5693410D01*
Y5694960D01*
Y5696509D01*
Y5698058D01*
Y5699608D01*
Y5701157D01*
Y5702707D01*
Y5704256D01*
Y5705805D01*
Y5707355D01*
Y5708904D01*
Y5710454D01*
Y5712003D01*
Y5713552D01*
Y5715102D01*
Y5716651D01*
Y5718201D01*
Y5719750D01*
X10050044D01*
Y5721299D01*
Y5722849D01*
Y5724398D01*
Y5725948D01*
Y5727497D01*
X10051593D01*
Y5729046D01*
X10053142D01*
Y5730596D01*
X10056241D01*
Y5732145D01*
X10079482D01*
Y5730596D01*
D02*
G37*
G36*
X10042297D02*
Y5729046D01*
Y5727497D01*
Y5725948D01*
Y5724398D01*
Y5722849D01*
Y5721299D01*
Y5719750D01*
Y5718201D01*
Y5716651D01*
Y5715102D01*
Y5713552D01*
Y5712003D01*
Y5710454D01*
Y5708904D01*
Y5707355D01*
Y5705805D01*
Y5704256D01*
Y5702707D01*
Y5701157D01*
Y5699608D01*
Y5698058D01*
Y5696509D01*
Y5694960D01*
Y5693410D01*
Y5691861D01*
Y5690311D01*
Y5688762D01*
Y5687213D01*
Y5685663D01*
Y5684114D01*
Y5682564D01*
Y5681015D01*
Y5679466D01*
Y5677916D01*
X10031451D01*
Y5679466D01*
Y5681015D01*
Y5682564D01*
Y5684114D01*
Y5685663D01*
Y5687213D01*
Y5688762D01*
Y5690311D01*
Y5691861D01*
Y5693410D01*
Y5694960D01*
Y5696509D01*
Y5698058D01*
Y5699608D01*
Y5701157D01*
Y5702707D01*
Y5704256D01*
Y5705805D01*
Y5707355D01*
Y5708904D01*
Y5710454D01*
Y5712003D01*
Y5713552D01*
Y5715102D01*
Y5716651D01*
Y5718201D01*
Y5719750D01*
Y5721299D01*
Y5722849D01*
Y5724398D01*
Y5725948D01*
X10012858D01*
Y5724398D01*
X10011309D01*
Y5722849D01*
Y5721299D01*
Y5719750D01*
X10009759D01*
Y5718201D01*
Y5716651D01*
Y5715102D01*
Y5713552D01*
Y5712003D01*
Y5710454D01*
Y5708904D01*
Y5707355D01*
Y5705805D01*
Y5704256D01*
Y5702707D01*
Y5701157D01*
Y5699608D01*
Y5698058D01*
Y5696509D01*
Y5694960D01*
Y5693410D01*
Y5691861D01*
Y5690311D01*
Y5688762D01*
Y5687213D01*
Y5685663D01*
Y5684114D01*
Y5682564D01*
Y5681015D01*
Y5679466D01*
Y5677916D01*
X10000463D01*
Y5679466D01*
Y5681015D01*
Y5682564D01*
Y5684114D01*
Y5685663D01*
Y5687213D01*
Y5688762D01*
Y5690311D01*
Y5691861D01*
Y5693410D01*
Y5694960D01*
Y5696509D01*
Y5698058D01*
Y5699608D01*
Y5701157D01*
Y5702707D01*
Y5704256D01*
Y5705805D01*
Y5707355D01*
Y5708904D01*
Y5710454D01*
Y5712003D01*
Y5713552D01*
Y5715102D01*
Y5716651D01*
Y5718201D01*
Y5719750D01*
Y5721299D01*
Y5722849D01*
Y5724398D01*
Y5725948D01*
X10002012D01*
Y5727497D01*
Y5729046D01*
X10003562D01*
Y5730596D01*
X10006661D01*
Y5732145D01*
X10042297D01*
Y5730596D01*
D02*
G37*
G36*
X9963277Y5744540D02*
Y5742991D01*
Y5741442D01*
Y5739892D01*
Y5738343D01*
Y5736793D01*
Y5735244D01*
Y5733695D01*
Y5732145D01*
Y5730596D01*
Y5729046D01*
Y5727497D01*
Y5725948D01*
Y5724398D01*
Y5722849D01*
Y5721299D01*
Y5719750D01*
Y5718201D01*
Y5716651D01*
Y5715102D01*
Y5713552D01*
Y5712003D01*
Y5710454D01*
Y5708904D01*
Y5707355D01*
Y5705805D01*
Y5704256D01*
Y5702707D01*
Y5701157D01*
Y5699608D01*
Y5698058D01*
Y5696509D01*
Y5694960D01*
Y5693410D01*
Y5691861D01*
Y5690311D01*
Y5688762D01*
Y5687213D01*
Y5685663D01*
Y5684114D01*
X9978771D01*
Y5685663D01*
X9980321D01*
Y5687213D01*
X9981870D01*
Y5688762D01*
X9983420D01*
Y5690311D01*
Y5691861D01*
Y5693410D01*
Y5694960D01*
Y5696509D01*
Y5698058D01*
Y5699608D01*
Y5701157D01*
Y5702707D01*
Y5704256D01*
Y5705805D01*
Y5707355D01*
Y5708904D01*
Y5710454D01*
Y5712003D01*
Y5713552D01*
Y5715102D01*
Y5716651D01*
Y5718201D01*
Y5719750D01*
Y5721299D01*
Y5722849D01*
X9981870D01*
Y5724398D01*
X9980321D01*
Y5725948D01*
X9969475D01*
Y5727497D01*
Y5729046D01*
Y5730596D01*
Y5732145D01*
X9986518D01*
Y5730596D01*
X9989617D01*
Y5729046D01*
X9991166D01*
Y5727497D01*
Y5725948D01*
X9992716D01*
Y5724398D01*
Y5722849D01*
Y5721299D01*
X9994265D01*
Y5719750D01*
Y5718201D01*
Y5716651D01*
Y5715102D01*
Y5713552D01*
Y5712003D01*
Y5710454D01*
Y5708904D01*
Y5707355D01*
Y5705805D01*
Y5704256D01*
Y5702707D01*
Y5701157D01*
Y5699608D01*
Y5698058D01*
Y5696509D01*
Y5694960D01*
Y5693410D01*
Y5691861D01*
Y5690311D01*
Y5688762D01*
X9992716D01*
Y5687213D01*
Y5685663D01*
Y5684114D01*
X9991166D01*
Y5682564D01*
Y5681015D01*
X9989617D01*
Y5679466D01*
X9986518D01*
Y5677916D01*
X9953981D01*
Y5679466D01*
Y5681015D01*
Y5682564D01*
Y5684114D01*
Y5685663D01*
Y5687213D01*
Y5688762D01*
Y5690311D01*
Y5691861D01*
Y5693410D01*
Y5694960D01*
Y5696509D01*
Y5698058D01*
Y5699608D01*
Y5701157D01*
Y5702707D01*
Y5704256D01*
Y5705805D01*
Y5707355D01*
Y5708904D01*
Y5710454D01*
Y5712003D01*
Y5713552D01*
Y5715102D01*
Y5716651D01*
Y5718201D01*
Y5719750D01*
Y5721299D01*
Y5722849D01*
Y5724398D01*
Y5725948D01*
Y5727497D01*
Y5729046D01*
Y5730596D01*
Y5732145D01*
Y5733695D01*
Y5735244D01*
Y5736793D01*
Y5738343D01*
Y5739892D01*
Y5741442D01*
Y5742991D01*
Y5744540D01*
Y5746090D01*
X9963277D01*
Y5744540D01*
D02*
G37*
G36*
X10635716Y5685663D02*
X10637266D01*
Y5684114D01*
X10638815D01*
Y5682564D01*
Y5681015D01*
Y5679466D01*
Y5677916D01*
X10637266D01*
Y5676367D01*
X10635716D01*
Y5674817D01*
X10632618D01*
Y5676367D01*
X10631068D01*
Y5677916D01*
X10629519D01*
Y5679466D01*
Y5681015D01*
Y5682564D01*
Y5684114D01*
X10631068D01*
Y5685663D01*
X10632618D01*
Y5687213D01*
X10635716D01*
Y5685663D01*
D02*
G37*
G36*
X10465283Y5628335D02*
Y5626786D01*
Y5625237D01*
Y5623687D01*
Y5622138D01*
Y5620589D01*
X10454437D01*
Y5622138D01*
Y5623687D01*
Y5625237D01*
Y5626786D01*
Y5628335D01*
Y5629885D01*
X10465283D01*
Y5628335D01*
D02*
G37*
G36*
X10370769D02*
Y5626786D01*
Y5625237D01*
Y5623687D01*
Y5622138D01*
Y5620589D01*
X10359923D01*
Y5622138D01*
Y5623687D01*
Y5625237D01*
Y5626786D01*
Y5628335D01*
Y5629885D01*
X10370769D01*
Y5628335D01*
D02*
G37*
G36*
X10102724Y5614391D02*
Y5612841D01*
X10101174D01*
Y5611292D01*
Y5609742D01*
Y5608193D01*
X10099624D01*
Y5606644D01*
Y5605094D01*
Y5603545D01*
Y5601996D01*
X10098075D01*
Y5600446D01*
Y5598897D01*
Y5597347D01*
Y5595798D01*
X10096526D01*
Y5594249D01*
Y5592699D01*
Y5591150D01*
X10094976D01*
Y5589601D01*
Y5588051D01*
Y5586501D01*
Y5584952D01*
X10093427D01*
Y5583403D01*
Y5581853D01*
Y5580304D01*
Y5578754D01*
X10091877D01*
Y5577205D01*
Y5575656D01*
Y5574106D01*
X10090328D01*
Y5572557D01*
Y5571008D01*
Y5569458D01*
Y5567909D01*
X10088779D01*
Y5566359D01*
Y5564810D01*
Y5563261D01*
Y5561711D01*
X10073285D01*
Y5563261D01*
Y5564810D01*
X10071735D01*
Y5566359D01*
Y5567909D01*
Y5569458D01*
Y5571008D01*
X10070186D01*
Y5572557D01*
Y5574106D01*
Y5575656D01*
Y5577205D01*
X10068636D01*
Y5578754D01*
Y5580304D01*
Y5581853D01*
X10067087D01*
Y5583403D01*
Y5584952D01*
Y5586501D01*
Y5588051D01*
X10065538D01*
Y5589601D01*
Y5591150D01*
Y5592699D01*
Y5594249D01*
X10063988D01*
Y5595798D01*
Y5597347D01*
Y5598897D01*
X10062439D01*
Y5600446D01*
Y5601996D01*
Y5603545D01*
Y5605094D01*
X10060889D01*
Y5606644D01*
Y5608193D01*
Y5609742D01*
Y5611292D01*
X10059340D01*
Y5612841D01*
Y5614391D01*
Y5615940D01*
X10068636D01*
Y5614391D01*
X10070186D01*
Y5612841D01*
Y5611292D01*
Y5609742D01*
Y5608193D01*
X10071735D01*
Y5606644D01*
Y5605094D01*
Y5603545D01*
Y5601996D01*
X10073285D01*
Y5600446D01*
Y5598897D01*
Y5597347D01*
Y5595798D01*
X10074834D01*
Y5594249D01*
Y5592699D01*
Y5591150D01*
Y5589601D01*
Y5588051D01*
X10076383D01*
Y5586501D01*
Y5584952D01*
Y5583403D01*
Y5581853D01*
X10077933D01*
Y5580304D01*
Y5578754D01*
Y5577205D01*
Y5575656D01*
X10079482D01*
Y5574106D01*
Y5572557D01*
Y5571008D01*
Y5569458D01*
X10081032D01*
Y5571008D01*
Y5572557D01*
X10082581D01*
Y5574106D01*
Y5575656D01*
Y5577205D01*
Y5578754D01*
X10084130D01*
Y5580304D01*
Y5581853D01*
Y5583403D01*
Y5584952D01*
X10085680D01*
Y5586501D01*
Y5588051D01*
Y5589601D01*
Y5591150D01*
X10087229D01*
Y5592699D01*
Y5594249D01*
Y5595798D01*
Y5597347D01*
X10088779D01*
Y5598897D01*
Y5600446D01*
Y5601996D01*
Y5603545D01*
Y5605094D01*
X10090328D01*
Y5606644D01*
Y5608193D01*
Y5609742D01*
Y5611292D01*
X10091877D01*
Y5612841D01*
Y5614391D01*
Y5615940D01*
X10102724D01*
Y5614391D01*
D02*
G37*
G36*
X10530357Y5628335D02*
X10531907D01*
Y5626786D01*
X10533456D01*
Y5625237D01*
X10535006D01*
Y5623687D01*
Y5622138D01*
X10536555D01*
Y5620589D01*
Y5619039D01*
Y5617489D01*
X10538104D01*
Y5615940D01*
Y5614391D01*
Y5612841D01*
Y5611292D01*
Y5609742D01*
Y5608193D01*
Y5606644D01*
Y5605094D01*
Y5603545D01*
Y5601996D01*
Y5600446D01*
Y5598897D01*
Y5597347D01*
Y5595798D01*
Y5594249D01*
Y5592699D01*
Y5591150D01*
Y5589601D01*
Y5588051D01*
Y5586501D01*
Y5584952D01*
Y5583403D01*
Y5581853D01*
Y5580304D01*
Y5578754D01*
Y5577205D01*
Y5575656D01*
Y5574106D01*
Y5572557D01*
X10536555D01*
Y5571008D01*
Y5569458D01*
X10535006D01*
Y5567909D01*
Y5566359D01*
X10533456D01*
Y5564810D01*
X10531907D01*
Y5563261D01*
X10530357D01*
Y5561711D01*
X10502468D01*
Y5563261D01*
Y5564810D01*
Y5566359D01*
Y5567909D01*
X10524160D01*
Y5569458D01*
X10525709D01*
Y5571008D01*
X10527259D01*
Y5572557D01*
Y5574106D01*
Y5575656D01*
X10528808D01*
Y5577205D01*
Y5578754D01*
Y5580304D01*
Y5581853D01*
Y5583403D01*
Y5584952D01*
Y5586501D01*
Y5588051D01*
Y5589601D01*
Y5591150D01*
Y5592699D01*
Y5594249D01*
Y5595798D01*
Y5597347D01*
Y5598897D01*
Y5600446D01*
Y5601996D01*
Y5603545D01*
Y5605094D01*
Y5606644D01*
Y5608193D01*
Y5609742D01*
Y5611292D01*
Y5612841D01*
Y5614391D01*
Y5615940D01*
X10527259D01*
Y5617489D01*
Y5619039D01*
Y5620589D01*
X10525709D01*
Y5622138D01*
X10524160D01*
Y5623687D01*
X10502468D01*
Y5625237D01*
Y5626786D01*
Y5628335D01*
Y5629885D01*
X10530357D01*
Y5628335D01*
D02*
G37*
G36*
X10485425Y5614391D02*
X10490073D01*
Y5612841D01*
X10491622D01*
Y5611292D01*
X10493172D01*
Y5609742D01*
X10494721D01*
Y5608193D01*
Y5606644D01*
X10496271D01*
Y5605094D01*
Y5603545D01*
Y5601996D01*
Y5600446D01*
Y5598897D01*
Y5597347D01*
Y5595798D01*
Y5594249D01*
Y5592699D01*
Y5591150D01*
Y5589601D01*
Y5588051D01*
Y5586501D01*
Y5584952D01*
Y5583403D01*
Y5581853D01*
Y5580304D01*
Y5578754D01*
Y5577205D01*
Y5575656D01*
Y5574106D01*
Y5572557D01*
Y5571008D01*
Y5569458D01*
Y5567909D01*
Y5566359D01*
Y5564810D01*
Y5563261D01*
Y5561711D01*
X10486974D01*
Y5563261D01*
Y5564810D01*
Y5566359D01*
Y5567909D01*
Y5569458D01*
Y5571008D01*
Y5572557D01*
Y5574106D01*
Y5575656D01*
Y5577205D01*
Y5578754D01*
Y5580304D01*
Y5581853D01*
Y5583403D01*
Y5584952D01*
Y5586501D01*
Y5588051D01*
Y5589601D01*
Y5591150D01*
Y5592699D01*
Y5594249D01*
Y5595798D01*
Y5597347D01*
Y5598897D01*
Y5600446D01*
X10485425D01*
Y5601996D01*
Y5603545D01*
Y5605094D01*
Y5606644D01*
Y5608193D01*
X10482326D01*
Y5609742D01*
X10471480D01*
Y5611292D01*
Y5612841D01*
Y5614391D01*
Y5615940D01*
X10485425D01*
Y5614391D01*
D02*
G37*
G36*
X10465283D02*
Y5612841D01*
Y5611292D01*
Y5609742D01*
Y5608193D01*
Y5606644D01*
Y5605094D01*
Y5603545D01*
Y5601996D01*
Y5600446D01*
Y5598897D01*
Y5597347D01*
Y5595798D01*
Y5594249D01*
Y5592699D01*
Y5591150D01*
Y5589601D01*
Y5588051D01*
Y5586501D01*
Y5584952D01*
Y5583403D01*
Y5581853D01*
Y5580304D01*
Y5578754D01*
Y5577205D01*
Y5575656D01*
Y5574106D01*
Y5572557D01*
Y5571008D01*
Y5569458D01*
Y5567909D01*
Y5566359D01*
Y5564810D01*
Y5563261D01*
Y5561711D01*
X10454437D01*
Y5563261D01*
Y5564810D01*
Y5566359D01*
Y5567909D01*
Y5569458D01*
Y5571008D01*
Y5572557D01*
Y5574106D01*
Y5575656D01*
Y5577205D01*
Y5578754D01*
Y5580304D01*
Y5581853D01*
Y5583403D01*
Y5584952D01*
Y5586501D01*
Y5588051D01*
Y5589601D01*
Y5591150D01*
Y5592699D01*
Y5594249D01*
Y5595798D01*
Y5597347D01*
Y5598897D01*
Y5600446D01*
Y5601996D01*
Y5603545D01*
Y5605094D01*
Y5606644D01*
Y5608193D01*
Y5609742D01*
Y5611292D01*
Y5612841D01*
Y5614391D01*
Y5615940D01*
X10465283D01*
Y5614391D01*
D02*
G37*
G36*
X10440492D02*
X10442042D01*
Y5612841D01*
X10443591D01*
Y5611292D01*
X10445141D01*
Y5609742D01*
Y5608193D01*
Y5606644D01*
X10446690D01*
Y5605094D01*
Y5603545D01*
Y5601996D01*
Y5600446D01*
Y5598897D01*
Y5597347D01*
Y5595798D01*
X10445141D01*
Y5594249D01*
Y5592699D01*
Y5591150D01*
X10443591D01*
Y5589601D01*
Y5588051D01*
X10442042D01*
Y5586501D01*
X10440492D01*
Y5584952D01*
X10418801D01*
Y5583403D01*
X10417251D01*
Y5581853D01*
Y5580304D01*
X10415702D01*
Y5578754D01*
Y5577205D01*
Y5575656D01*
Y5574106D01*
Y5572557D01*
X10417251D01*
Y5571008D01*
Y5569458D01*
X10418801D01*
Y5567909D01*
X10442042D01*
Y5566359D01*
Y5564810D01*
Y5563261D01*
Y5561711D01*
X10412603D01*
Y5563261D01*
X10411054D01*
Y5564810D01*
X10409504D01*
Y5566359D01*
Y5567909D01*
X10407955D01*
Y5569458D01*
Y5571008D01*
Y5572557D01*
Y5574106D01*
Y5575656D01*
X10406406D01*
Y5577205D01*
X10407955D01*
Y5578754D01*
Y5580304D01*
Y5581853D01*
Y5583403D01*
Y5584952D01*
Y5586501D01*
X10409504D01*
Y5588051D01*
Y5589601D01*
X10411054D01*
Y5591150D01*
X10412603D01*
Y5592699D01*
X10434295D01*
Y5594249D01*
X10435844D01*
Y5595798D01*
X10437394D01*
Y5597347D01*
Y5598897D01*
Y5600446D01*
Y5601996D01*
Y5603545D01*
Y5605094D01*
Y5606644D01*
X10435844D01*
Y5608193D01*
Y5609742D01*
X10414153D01*
Y5611292D01*
Y5612841D01*
Y5614391D01*
Y5615940D01*
X10440492D01*
Y5614391D01*
D02*
G37*
G36*
X10400208Y5628335D02*
Y5626786D01*
Y5625237D01*
Y5623687D01*
Y5622138D01*
Y5620589D01*
Y5619039D01*
Y5617489D01*
Y5615940D01*
Y5614391D01*
Y5612841D01*
Y5611292D01*
Y5609742D01*
Y5608193D01*
Y5606644D01*
Y5605094D01*
Y5603545D01*
Y5601996D01*
Y5600446D01*
Y5598897D01*
Y5597347D01*
Y5595798D01*
Y5594249D01*
Y5592699D01*
Y5591150D01*
Y5589601D01*
Y5588051D01*
Y5586501D01*
Y5584952D01*
Y5583403D01*
Y5581853D01*
Y5580304D01*
Y5578754D01*
Y5577205D01*
Y5575656D01*
Y5574106D01*
Y5572557D01*
Y5571008D01*
Y5569458D01*
Y5567909D01*
X10398658D01*
Y5566359D01*
Y5564810D01*
X10397109D01*
Y5563261D01*
X10394010D01*
Y5561711D01*
X10380066D01*
Y5563261D01*
Y5564810D01*
Y5566359D01*
Y5567909D01*
X10387813D01*
Y5569458D01*
X10389362D01*
Y5571008D01*
Y5572557D01*
Y5574106D01*
Y5575656D01*
Y5577205D01*
Y5578754D01*
Y5580304D01*
Y5581853D01*
Y5583403D01*
Y5584952D01*
Y5586501D01*
Y5588051D01*
Y5589601D01*
Y5591150D01*
Y5592699D01*
Y5594249D01*
Y5595798D01*
Y5597347D01*
Y5598897D01*
Y5600446D01*
Y5601996D01*
Y5603545D01*
Y5605094D01*
Y5606644D01*
Y5608193D01*
Y5609742D01*
X10376967D01*
Y5611292D01*
Y5612841D01*
Y5614391D01*
Y5615940D01*
X10389362D01*
Y5617489D01*
Y5619039D01*
Y5620589D01*
Y5622138D01*
Y5623687D01*
Y5625237D01*
Y5626786D01*
Y5628335D01*
Y5629885D01*
X10400208D01*
Y5628335D01*
D02*
G37*
G36*
X10370769Y5614391D02*
Y5612841D01*
Y5611292D01*
Y5609742D01*
Y5608193D01*
Y5606644D01*
Y5605094D01*
Y5603545D01*
Y5601996D01*
Y5600446D01*
Y5598897D01*
Y5597347D01*
Y5595798D01*
Y5594249D01*
Y5592699D01*
Y5591150D01*
Y5589601D01*
Y5588051D01*
Y5586501D01*
Y5584952D01*
Y5583403D01*
Y5581853D01*
Y5580304D01*
Y5578754D01*
Y5577205D01*
Y5575656D01*
Y5574106D01*
Y5572557D01*
Y5571008D01*
Y5569458D01*
Y5567909D01*
Y5566359D01*
Y5564810D01*
Y5563261D01*
Y5561711D01*
X10359923D01*
Y5563261D01*
Y5564810D01*
Y5566359D01*
Y5567909D01*
Y5569458D01*
Y5571008D01*
Y5572557D01*
Y5574106D01*
Y5575656D01*
Y5577205D01*
Y5578754D01*
Y5580304D01*
Y5581853D01*
Y5583403D01*
Y5584952D01*
Y5586501D01*
Y5588051D01*
Y5589601D01*
Y5591150D01*
Y5592699D01*
Y5594249D01*
Y5595798D01*
Y5597347D01*
Y5598897D01*
Y5600446D01*
Y5601996D01*
Y5603545D01*
Y5605094D01*
Y5606644D01*
Y5608193D01*
Y5609742D01*
Y5611292D01*
Y5612841D01*
Y5614391D01*
Y5615940D01*
X10370769D01*
Y5614391D01*
D02*
G37*
G36*
X10342880D02*
Y5612841D01*
Y5611292D01*
Y5609742D01*
X10325837D01*
Y5608193D01*
X10324287D01*
Y5606644D01*
X10322738D01*
Y5605094D01*
Y5603545D01*
Y5601996D01*
Y5600446D01*
Y5598897D01*
Y5597347D01*
Y5595798D01*
Y5594249D01*
Y5592699D01*
Y5591150D01*
Y5589601D01*
Y5588051D01*
Y5586501D01*
Y5584952D01*
Y5583403D01*
Y5581853D01*
Y5580304D01*
Y5578754D01*
Y5577205D01*
Y5575656D01*
Y5574106D01*
Y5572557D01*
Y5571008D01*
Y5569458D01*
Y5567909D01*
X10339782D01*
Y5569458D01*
X10341331D01*
Y5571008D01*
Y5572557D01*
Y5574106D01*
Y5575656D01*
X10342880D01*
Y5577205D01*
Y5578754D01*
Y5580304D01*
Y5581853D01*
X10341331D01*
Y5583403D01*
Y5584952D01*
Y5586501D01*
X10339782D01*
Y5588051D01*
X10327386D01*
Y5589601D01*
Y5591150D01*
Y5592699D01*
Y5594249D01*
X10344430D01*
Y5592699D01*
X10347528D01*
Y5591150D01*
X10349078D01*
Y5589601D01*
Y5588051D01*
X10350627D01*
Y5586501D01*
Y5584952D01*
Y5583403D01*
X10352177D01*
Y5581853D01*
Y5580304D01*
Y5578754D01*
Y5577205D01*
Y5575656D01*
Y5574106D01*
Y5572557D01*
X10350627D01*
Y5571008D01*
Y5569458D01*
Y5567909D01*
X10349078D01*
Y5566359D01*
Y5564810D01*
X10347528D01*
Y5563261D01*
X10344430D01*
Y5561711D01*
X10311892D01*
Y5563261D01*
Y5564810D01*
Y5566359D01*
Y5567909D01*
Y5569458D01*
Y5571008D01*
Y5572557D01*
Y5574106D01*
Y5575656D01*
Y5577205D01*
Y5578754D01*
Y5580304D01*
Y5581853D01*
Y5583403D01*
Y5584952D01*
Y5586501D01*
Y5588051D01*
Y5589601D01*
Y5591150D01*
Y5592699D01*
Y5594249D01*
Y5595798D01*
Y5597347D01*
Y5598897D01*
Y5600446D01*
Y5601996D01*
Y5603545D01*
X10313442D01*
Y5605094D01*
Y5606644D01*
Y5608193D01*
Y5609742D01*
Y5611292D01*
X10314991D01*
Y5612841D01*
X10316540D01*
Y5614391D01*
X10319639D01*
Y5615940D01*
X10342880D01*
Y5614391D01*
D02*
G37*
G36*
X10305694D02*
Y5612841D01*
Y5611292D01*
Y5609742D01*
Y5608193D01*
Y5606644D01*
Y5605094D01*
Y5603545D01*
Y5601996D01*
Y5600446D01*
Y5598897D01*
Y5597347D01*
Y5595798D01*
Y5594249D01*
Y5592699D01*
Y5591150D01*
Y5589601D01*
Y5588051D01*
Y5586501D01*
Y5584952D01*
Y5583403D01*
Y5581853D01*
Y5580304D01*
Y5578754D01*
Y5577205D01*
Y5575656D01*
Y5574106D01*
Y5572557D01*
Y5571008D01*
Y5569458D01*
Y5567909D01*
Y5566359D01*
Y5564810D01*
Y5563261D01*
Y5561711D01*
X10294849D01*
Y5563261D01*
Y5564810D01*
Y5566359D01*
Y5567909D01*
Y5569458D01*
Y5571008D01*
Y5572557D01*
Y5574106D01*
Y5575656D01*
Y5577205D01*
Y5578754D01*
Y5580304D01*
Y5581853D01*
Y5583403D01*
Y5584952D01*
Y5586501D01*
Y5588051D01*
Y5589601D01*
Y5591150D01*
Y5592699D01*
Y5594249D01*
Y5595798D01*
Y5597347D01*
Y5598897D01*
Y5600446D01*
Y5601996D01*
Y5603545D01*
Y5605094D01*
Y5606644D01*
Y5608193D01*
Y5609742D01*
X10276256D01*
Y5608193D01*
X10274706D01*
Y5606644D01*
Y5605094D01*
Y5603545D01*
X10273157D01*
Y5601996D01*
Y5600446D01*
Y5598897D01*
Y5597347D01*
Y5595798D01*
Y5594249D01*
Y5592699D01*
Y5591150D01*
Y5589601D01*
Y5588051D01*
Y5586501D01*
Y5584952D01*
Y5583403D01*
Y5581853D01*
Y5580304D01*
Y5578754D01*
Y5577205D01*
Y5575656D01*
Y5574106D01*
Y5572557D01*
Y5571008D01*
Y5569458D01*
Y5567909D01*
Y5566359D01*
Y5564810D01*
Y5563261D01*
Y5561711D01*
X10263861D01*
Y5563261D01*
Y5564810D01*
Y5566359D01*
Y5567909D01*
Y5569458D01*
Y5571008D01*
Y5572557D01*
Y5574106D01*
Y5575656D01*
Y5577205D01*
Y5578754D01*
Y5580304D01*
Y5581853D01*
Y5583403D01*
Y5584952D01*
Y5586501D01*
Y5588051D01*
Y5589601D01*
Y5591150D01*
Y5592699D01*
Y5594249D01*
Y5595798D01*
Y5597347D01*
Y5598897D01*
Y5600446D01*
Y5601996D01*
Y5603545D01*
Y5605094D01*
Y5606644D01*
Y5608193D01*
Y5609742D01*
X10265410D01*
Y5611292D01*
Y5612841D01*
X10266959D01*
Y5614391D01*
X10270058D01*
Y5615940D01*
X10305694D01*
Y5614391D01*
D02*
G37*
G36*
X10223576Y5628335D02*
Y5626786D01*
Y5625237D01*
X10225126D01*
Y5623687D01*
Y5622138D01*
Y5620589D01*
Y5619039D01*
Y5617489D01*
X10226675D01*
Y5615940D01*
Y5614391D01*
Y5612841D01*
Y5611292D01*
Y5609742D01*
X10228224D01*
Y5608193D01*
Y5606644D01*
Y5605094D01*
Y5603545D01*
Y5601996D01*
X10229774D01*
Y5600446D01*
Y5598897D01*
Y5597347D01*
Y5595798D01*
Y5594249D01*
X10231323D01*
Y5592699D01*
Y5591150D01*
Y5589601D01*
Y5588051D01*
X10232873D01*
Y5586501D01*
Y5584952D01*
Y5583403D01*
Y5581853D01*
Y5580304D01*
X10234422D01*
Y5578754D01*
Y5577205D01*
Y5575656D01*
Y5574106D01*
Y5572557D01*
X10235971D01*
Y5571008D01*
Y5569458D01*
Y5567909D01*
Y5566359D01*
Y5564810D01*
X10237521D01*
Y5563261D01*
Y5561711D01*
X10226675D01*
Y5563261D01*
Y5564810D01*
Y5566359D01*
Y5567909D01*
Y5569458D01*
X10225126D01*
Y5571008D01*
Y5572557D01*
Y5574106D01*
Y5575656D01*
Y5577205D01*
X10208082D01*
Y5575656D01*
Y5574106D01*
Y5572557D01*
X10206533D01*
Y5571008D01*
Y5569458D01*
Y5567909D01*
Y5566359D01*
Y5564810D01*
Y5563261D01*
X10204983D01*
Y5561711D01*
X10195688D01*
Y5563261D01*
Y5564810D01*
Y5566359D01*
X10197236D01*
Y5567909D01*
Y5569458D01*
Y5571008D01*
Y5572557D01*
Y5574106D01*
X10198786D01*
Y5575656D01*
Y5577205D01*
Y5578754D01*
Y5580304D01*
Y5581853D01*
X10200335D01*
Y5583403D01*
Y5584952D01*
Y5586501D01*
Y5588051D01*
Y5589601D01*
X10201885D01*
Y5591150D01*
Y5592699D01*
Y5594249D01*
Y5595798D01*
Y5597347D01*
X10203434D01*
Y5598897D01*
Y5600446D01*
Y5601996D01*
Y5603545D01*
Y5605094D01*
X10204983D01*
Y5606644D01*
Y5608193D01*
Y5609742D01*
Y5611292D01*
X10206533D01*
Y5612841D01*
Y5614391D01*
Y5615940D01*
Y5617489D01*
Y5619039D01*
X10208082D01*
Y5620589D01*
Y5622138D01*
Y5623687D01*
Y5625237D01*
Y5626786D01*
X10209632D01*
Y5628335D01*
Y5629885D01*
X10223576D01*
Y5628335D01*
D02*
G37*
G36*
X10180193Y5614391D02*
X10183292D01*
Y5612841D01*
X10184841D01*
Y5611292D01*
X10186391D01*
Y5609742D01*
Y5608193D01*
Y5606644D01*
X10187940D01*
Y5605094D01*
Y5603545D01*
Y5601996D01*
Y5600446D01*
Y5598897D01*
Y5597347D01*
Y5595798D01*
Y5594249D01*
Y5592699D01*
Y5591150D01*
Y5589601D01*
Y5588051D01*
Y5586501D01*
Y5584952D01*
Y5583403D01*
Y5581853D01*
Y5580304D01*
Y5578754D01*
Y5577205D01*
Y5575656D01*
Y5574106D01*
Y5572557D01*
Y5571008D01*
X10186391D01*
Y5569458D01*
Y5567909D01*
Y5566359D01*
X10184841D01*
Y5564810D01*
X10183292D01*
Y5563261D01*
X10180193D01*
Y5561711D01*
X10155403D01*
Y5563261D01*
Y5564810D01*
Y5566359D01*
Y5567909D01*
X10173995D01*
Y5569458D01*
X10175545D01*
Y5571008D01*
X10177094D01*
Y5572557D01*
Y5574106D01*
Y5575656D01*
Y5577205D01*
Y5578754D01*
Y5580304D01*
Y5581853D01*
Y5583403D01*
Y5584952D01*
Y5586501D01*
Y5588051D01*
Y5589601D01*
Y5591150D01*
Y5592699D01*
Y5594249D01*
Y5595798D01*
Y5597347D01*
Y5598897D01*
Y5600446D01*
Y5601996D01*
Y5603545D01*
Y5605094D01*
Y5606644D01*
X10175545D01*
Y5608193D01*
X10173995D01*
Y5609742D01*
X10155403D01*
Y5611292D01*
Y5612841D01*
Y5614391D01*
Y5615940D01*
X10180193D01*
Y5614391D01*
D02*
G37*
G36*
X10139909D02*
X10143008D01*
Y5612841D01*
X10144557D01*
Y5611292D01*
X10146106D01*
Y5609742D01*
Y5608193D01*
Y5606644D01*
X10147656D01*
Y5605094D01*
Y5603545D01*
Y5601996D01*
Y5600446D01*
Y5598897D01*
Y5597347D01*
Y5595798D01*
Y5594249D01*
Y5592699D01*
Y5591150D01*
Y5589601D01*
Y5588051D01*
Y5586501D01*
Y5584952D01*
Y5583403D01*
Y5581853D01*
Y5580304D01*
Y5578754D01*
Y5577205D01*
Y5575656D01*
Y5574106D01*
Y5572557D01*
Y5571008D01*
X10146106D01*
Y5569458D01*
Y5567909D01*
Y5566359D01*
X10144557D01*
Y5564810D01*
X10143008D01*
Y5563261D01*
X10139909D01*
Y5561711D01*
X10110470D01*
Y5563261D01*
Y5564810D01*
Y5566359D01*
Y5567909D01*
X10133712D01*
Y5569458D01*
X10135261D01*
Y5571008D01*
X10136810D01*
Y5572557D01*
Y5574106D01*
Y5575656D01*
Y5577205D01*
Y5578754D01*
Y5580304D01*
Y5581853D01*
Y5583403D01*
Y5584952D01*
Y5586501D01*
Y5588051D01*
Y5589601D01*
Y5591150D01*
Y5592699D01*
Y5594249D01*
Y5595798D01*
Y5597347D01*
Y5598897D01*
Y5600446D01*
Y5601996D01*
Y5603545D01*
Y5605094D01*
Y5606644D01*
X10135261D01*
Y5608193D01*
X10133712D01*
Y5609742D01*
X10118217D01*
Y5608193D01*
Y5606644D01*
X10116668D01*
Y5605094D01*
Y5603545D01*
Y5601996D01*
Y5600446D01*
Y5598897D01*
Y5597347D01*
Y5595798D01*
X10118217D01*
Y5594249D01*
Y5592699D01*
X10119767D01*
Y5591150D01*
X10130612D01*
Y5589601D01*
Y5588051D01*
Y5586501D01*
Y5584952D01*
X10113569D01*
Y5586501D01*
X10112020D01*
Y5588051D01*
X10110470D01*
Y5589601D01*
X10108921D01*
Y5591150D01*
Y5592699D01*
Y5594249D01*
X10107371D01*
Y5595798D01*
Y5597347D01*
Y5598897D01*
Y5600446D01*
Y5601996D01*
Y5603545D01*
Y5605094D01*
Y5606644D01*
X10108921D01*
Y5608193D01*
Y5609742D01*
Y5611292D01*
X10110470D01*
Y5612841D01*
X10112020D01*
Y5614391D01*
X10113569D01*
Y5615940D01*
X10139909D01*
Y5614391D01*
D02*
G37*
G36*
X10045395D02*
X10048494D01*
Y5612841D01*
X10050044D01*
Y5611292D01*
X10051593D01*
Y5609742D01*
Y5608193D01*
Y5606644D01*
X10053142D01*
Y5605094D01*
Y5603545D01*
Y5601996D01*
Y5600446D01*
Y5598897D01*
Y5597347D01*
Y5595798D01*
Y5594249D01*
Y5592699D01*
Y5591150D01*
Y5589601D01*
Y5588051D01*
Y5586501D01*
Y5584952D01*
Y5583403D01*
Y5581853D01*
Y5580304D01*
Y5578754D01*
Y5577205D01*
Y5575656D01*
Y5574106D01*
Y5572557D01*
Y5571008D01*
X10051593D01*
Y5569458D01*
Y5567909D01*
Y5566359D01*
X10050044D01*
Y5564810D01*
X10048494D01*
Y5563261D01*
X10045395D01*
Y5561711D01*
X10015957D01*
Y5563261D01*
Y5564810D01*
Y5566359D01*
Y5567909D01*
X10039198D01*
Y5569458D01*
X10040747D01*
Y5571008D01*
X10042297D01*
Y5572557D01*
Y5574106D01*
Y5575656D01*
Y5577205D01*
Y5578754D01*
Y5580304D01*
Y5581853D01*
Y5583403D01*
Y5584952D01*
Y5586501D01*
Y5588051D01*
Y5589601D01*
Y5591150D01*
Y5592699D01*
Y5594249D01*
Y5595798D01*
Y5597347D01*
Y5598897D01*
Y5600446D01*
Y5601996D01*
Y5603545D01*
Y5605094D01*
Y5606644D01*
X10040747D01*
Y5608193D01*
X10039198D01*
Y5609742D01*
X10023704D01*
Y5608193D01*
Y5606644D01*
X10022154D01*
Y5605094D01*
Y5603545D01*
Y5601996D01*
Y5600446D01*
Y5598897D01*
Y5597347D01*
Y5595798D01*
X10023704D01*
Y5594249D01*
Y5592699D01*
X10025253D01*
Y5591150D01*
X10036099D01*
Y5589601D01*
Y5588051D01*
Y5586501D01*
Y5584952D01*
X10019056D01*
Y5586501D01*
X10017506D01*
Y5588051D01*
X10015957D01*
Y5589601D01*
X10014407D01*
Y5591150D01*
Y5592699D01*
Y5594249D01*
X10012858D01*
Y5595798D01*
Y5597347D01*
Y5598897D01*
Y5600446D01*
Y5601996D01*
Y5603545D01*
Y5605094D01*
Y5606644D01*
X10014407D01*
Y5608193D01*
Y5609742D01*
Y5611292D01*
X10015957D01*
Y5612841D01*
X10017506D01*
Y5614391D01*
X10019056D01*
Y5615940D01*
X10045395D01*
Y5614391D01*
D02*
G37*
G36*
X9972573Y5628335D02*
Y5626786D01*
Y5625237D01*
Y5623687D01*
Y5622138D01*
Y5620589D01*
Y5619039D01*
Y5617489D01*
Y5615940D01*
Y5614391D01*
Y5612841D01*
Y5611292D01*
Y5609742D01*
Y5608193D01*
Y5606644D01*
Y5605094D01*
Y5603545D01*
Y5601996D01*
Y5600446D01*
Y5598897D01*
Y5597347D01*
Y5595798D01*
Y5594249D01*
Y5592699D01*
Y5591150D01*
Y5589601D01*
Y5588051D01*
Y5586501D01*
Y5584952D01*
Y5583403D01*
Y5581853D01*
Y5580304D01*
Y5578754D01*
Y5577205D01*
Y5575656D01*
Y5574106D01*
Y5572557D01*
Y5571008D01*
Y5569458D01*
Y5567909D01*
X9988068D01*
Y5569458D01*
X9989617D01*
Y5571008D01*
X9991166D01*
Y5572557D01*
X9992716D01*
Y5574106D01*
Y5575656D01*
Y5577205D01*
Y5578754D01*
Y5580304D01*
Y5581853D01*
Y5583403D01*
Y5584952D01*
Y5586501D01*
Y5588051D01*
Y5589601D01*
Y5591150D01*
Y5592699D01*
Y5594249D01*
Y5595798D01*
Y5597347D01*
Y5598897D01*
Y5600446D01*
Y5601996D01*
Y5603545D01*
Y5605094D01*
Y5606644D01*
X9991166D01*
Y5608193D01*
X9989617D01*
Y5609742D01*
X9978771D01*
Y5611292D01*
Y5612841D01*
Y5614391D01*
Y5615940D01*
X9995815D01*
Y5614391D01*
X9998913D01*
Y5612841D01*
X10000463D01*
Y5611292D01*
Y5609742D01*
X10002012D01*
Y5608193D01*
Y5606644D01*
Y5605094D01*
X10003562D01*
Y5603545D01*
Y5601996D01*
Y5600446D01*
Y5598897D01*
Y5597347D01*
Y5595798D01*
Y5594249D01*
Y5592699D01*
Y5591150D01*
Y5589601D01*
Y5588051D01*
Y5586501D01*
Y5584952D01*
Y5583403D01*
Y5581853D01*
Y5580304D01*
Y5578754D01*
Y5577205D01*
Y5575656D01*
Y5574106D01*
Y5572557D01*
X10002012D01*
Y5571008D01*
Y5569458D01*
Y5567909D01*
X10000463D01*
Y5566359D01*
Y5564810D01*
X9998913D01*
Y5563261D01*
X9995815D01*
Y5561711D01*
X9963277D01*
Y5563261D01*
Y5564810D01*
Y5566359D01*
Y5567909D01*
Y5569458D01*
Y5571008D01*
Y5572557D01*
Y5574106D01*
Y5575656D01*
Y5577205D01*
Y5578754D01*
Y5580304D01*
Y5581853D01*
Y5583403D01*
Y5584952D01*
Y5586501D01*
Y5588051D01*
Y5589601D01*
Y5591150D01*
Y5592699D01*
Y5594249D01*
Y5595798D01*
Y5597347D01*
Y5598897D01*
Y5600446D01*
Y5601996D01*
Y5603545D01*
Y5605094D01*
Y5606644D01*
Y5608193D01*
Y5609742D01*
Y5611292D01*
Y5612841D01*
Y5614391D01*
Y5615940D01*
Y5617489D01*
Y5619039D01*
Y5620589D01*
Y5622138D01*
Y5623687D01*
Y5625237D01*
Y5626786D01*
Y5628335D01*
Y5629885D01*
X9972573D01*
Y5628335D01*
D02*
G37*
G36*
X9947783Y5614391D02*
X9950882D01*
Y5612841D01*
X9952432D01*
Y5611292D01*
X9953981D01*
Y5609742D01*
Y5608193D01*
Y5606644D01*
X9955530D01*
Y5605094D01*
Y5603545D01*
Y5601996D01*
Y5600446D01*
Y5598897D01*
Y5597347D01*
Y5595798D01*
Y5594249D01*
Y5592699D01*
Y5591150D01*
Y5589601D01*
Y5588051D01*
Y5586501D01*
Y5584952D01*
Y5583403D01*
Y5581853D01*
Y5580304D01*
Y5578754D01*
Y5577205D01*
Y5575656D01*
Y5574106D01*
Y5572557D01*
Y5571008D01*
X9953981D01*
Y5569458D01*
Y5567909D01*
Y5566359D01*
X9952432D01*
Y5564810D01*
X9950882D01*
Y5563261D01*
X9947783D01*
Y5561711D01*
X9919894D01*
Y5563261D01*
X9916795D01*
Y5564810D01*
X9915246D01*
Y5566359D01*
X9913697D01*
Y5567909D01*
Y5569458D01*
Y5571008D01*
X9912147D01*
Y5572557D01*
Y5574106D01*
Y5575656D01*
Y5577205D01*
Y5578754D01*
Y5580304D01*
Y5581853D01*
Y5583403D01*
Y5584952D01*
Y5586501D01*
Y5588051D01*
Y5589601D01*
Y5591150D01*
Y5592699D01*
Y5594249D01*
Y5595798D01*
Y5597347D01*
Y5598897D01*
Y5600446D01*
Y5601996D01*
Y5603545D01*
Y5605094D01*
Y5606644D01*
X9913697D01*
Y5608193D01*
Y5609742D01*
Y5611292D01*
X9915246D01*
Y5612841D01*
X9916795D01*
Y5614391D01*
X9919894D01*
Y5615940D01*
X9947783D01*
Y5614391D01*
D02*
G37*
%LPC*%
G36*
X10668753Y6810119D02*
X10663296D01*
Y6807391D01*
X10657840D01*
Y6804663D01*
X10652384D01*
Y6801935D01*
X10649655D01*
Y6799206D01*
X10644199D01*
Y6796478D01*
X10641471D01*
Y6793750D01*
X10638743D01*
Y6791022D01*
Y6788294D01*
X10636015D01*
Y6785566D01*
X10633286D01*
Y6782837D01*
Y6780109D01*
X10630558D01*
Y6777381D01*
X10627830D01*
Y6774653D01*
Y6771925D01*
Y6769197D01*
X10633286D01*
Y6771925D01*
X10638743D01*
Y6774653D01*
X10644199D01*
Y6777381D01*
X10646927D01*
Y6780109D01*
X10649655D01*
Y6782837D01*
X10655112D01*
Y6785566D01*
Y6788294D01*
X10657840D01*
Y6791022D01*
X10660568D01*
Y6793750D01*
X10663296D01*
Y6796478D01*
Y6799206D01*
X10666024D01*
Y6801935D01*
Y6804663D01*
X10668753D01*
Y6807391D01*
Y6810119D01*
D02*
G37*
G36*
X10455954D02*
X10450498D01*
Y6807391D01*
Y6804663D01*
Y6801935D01*
X10453226D01*
Y6799206D01*
Y6796478D01*
X10455954D01*
Y6793750D01*
X10458682D01*
Y6791022D01*
Y6788294D01*
X10461411D01*
Y6785566D01*
X10464139D01*
Y6782837D01*
X10466867D01*
Y6780109D01*
X10472323D01*
Y6777381D01*
X10475052D01*
Y6774653D01*
X10480508D01*
Y6771925D01*
X10485964D01*
Y6769197D01*
X10491421D01*
Y6771925D01*
Y6774653D01*
X10488693D01*
Y6777381D01*
Y6780109D01*
X10485964D01*
Y6782837D01*
Y6785566D01*
X10483236D01*
Y6788294D01*
X10480508D01*
Y6791022D01*
X10477780D01*
Y6793750D01*
X10475052D01*
Y6796478D01*
X10472323D01*
Y6799206D01*
X10469595D01*
Y6801935D01*
X10466867D01*
Y6804663D01*
X10461411D01*
Y6807391D01*
X10455954D01*
Y6810119D01*
D02*
G37*
G36*
X10562354Y6769197D02*
X10554169D01*
Y6766468D01*
X10551441D01*
Y6763740D01*
X10545984D01*
Y6761012D01*
X10540528D01*
Y6758284D01*
X10532343D01*
Y6755555D01*
X10521431D01*
Y6752827D01*
X10507790D01*
Y6750099D01*
Y6747371D01*
Y6744643D01*
Y6741915D01*
X10505062D01*
Y6739186D01*
Y6736458D01*
Y6733730D01*
Y6731002D01*
Y6728274D01*
X10502333D01*
Y6725546D01*
Y6722817D01*
Y6720089D01*
X10499605D01*
Y6717361D01*
Y6714633D01*
X10496877D01*
Y6711905D01*
Y6709176D01*
X10494149D01*
Y6706448D01*
X10491421D01*
Y6703720D01*
Y6700992D01*
X10488693D01*
Y6698264D01*
X10491421D01*
Y6695536D01*
X10494149D01*
Y6692807D01*
Y6690079D01*
X10496877D01*
Y6687351D01*
Y6684623D01*
X10499605D01*
Y6681894D01*
Y6679166D01*
X10502333D01*
Y6676438D01*
Y6673710D01*
Y6670982D01*
X10505062D01*
Y6668254D01*
Y6665525D01*
Y6662797D01*
Y6660069D01*
Y6657341D01*
Y6654613D01*
Y6651885D01*
Y6649156D01*
X10518703D01*
Y6646428D01*
X10532343D01*
Y6643700D01*
X10540528D01*
Y6640972D01*
X10545984D01*
Y6638244D01*
X10548713D01*
Y6635515D01*
X10554169D01*
Y6632787D01*
X10556897D01*
Y6630059D01*
X10559625D01*
Y6632787D01*
X10562354D01*
Y6635515D01*
X10567810D01*
Y6638244D01*
X10573266D01*
Y6640972D01*
X10578723D01*
Y6643700D01*
X10586907D01*
Y6646428D01*
X10597820D01*
Y6649156D01*
X10611461D01*
Y6651885D01*
Y6654613D01*
Y6657341D01*
Y6660069D01*
Y6662797D01*
Y6665525D01*
X10614189D01*
Y6668254D01*
Y6670982D01*
Y6673710D01*
Y6676438D01*
X10616917D01*
Y6679166D01*
Y6681894D01*
Y6684623D01*
X10619646D01*
Y6687351D01*
Y6690079D01*
X10622373D01*
Y6692807D01*
X10625102D01*
Y6695536D01*
Y6698264D01*
X10627830D01*
Y6700992D01*
Y6703720D01*
X10625102D01*
Y6706448D01*
Y6709176D01*
X10622373D01*
Y6711905D01*
Y6714633D01*
X10619646D01*
Y6717361D01*
Y6720089D01*
X10616917D01*
Y6722817D01*
Y6725546D01*
X10614189D01*
Y6728274D01*
Y6731002D01*
Y6733730D01*
Y6736458D01*
X10611461D01*
Y6739186D01*
Y6741915D01*
Y6744643D01*
Y6747371D01*
Y6750099D01*
Y6752827D01*
X10597820D01*
Y6755555D01*
X10586907D01*
Y6758284D01*
X10578723D01*
Y6761012D01*
X10573266D01*
Y6763740D01*
X10567810D01*
Y6766468D01*
X10562354D01*
Y6769197D01*
D02*
G37*
G36*
X10633286Y6632787D02*
X10625102D01*
Y6630059D01*
X10627830D01*
Y6627331D01*
Y6624603D01*
X10630558D01*
Y6621874D01*
Y6619146D01*
X10633286D01*
Y6616418D01*
X10636015D01*
Y6613690D01*
Y6610962D01*
X10638743D01*
Y6608234D01*
X10641471D01*
Y6605505D01*
X10644199D01*
Y6602777D01*
X10646927D01*
Y6600049D01*
X10652384D01*
Y6597321D01*
X10655112D01*
Y6594593D01*
X10660568D01*
Y6591864D01*
X10668753D01*
Y6594593D01*
Y6597321D01*
X10666024D01*
Y6600049D01*
Y6602777D01*
X10663296D01*
Y6605505D01*
Y6608234D01*
X10660568D01*
Y6610962D01*
X10657840D01*
Y6613690D01*
X10655112D01*
Y6616418D01*
X10652384D01*
Y6619146D01*
X10649655D01*
Y6621874D01*
X10646927D01*
Y6624603D01*
X10644199D01*
Y6627331D01*
X10638743D01*
Y6630059D01*
X10633286D01*
Y6632787D01*
D02*
G37*
G36*
X10491421D02*
X10483236D01*
Y6630059D01*
X10477780D01*
Y6627331D01*
X10475052D01*
Y6624603D01*
X10469595D01*
Y6621874D01*
X10466867D01*
Y6619146D01*
X10464139D01*
Y6616418D01*
X10461411D01*
Y6613690D01*
X10458682D01*
Y6610962D01*
X10455954D01*
Y6608234D01*
Y6605505D01*
X10453226D01*
Y6602777D01*
Y6600049D01*
X10450498D01*
Y6597321D01*
Y6594593D01*
X10447770D01*
Y6591864D01*
X10455954D01*
Y6594593D01*
X10461411D01*
Y6597321D01*
X10466867D01*
Y6600049D01*
X10469595D01*
Y6602777D01*
X10472323D01*
Y6605505D01*
X10475052D01*
Y6608234D01*
X10477780D01*
Y6610962D01*
X10480508D01*
Y6613690D01*
X10483236D01*
Y6616418D01*
Y6619146D01*
X10485964D01*
Y6621874D01*
X10488693D01*
Y6624603D01*
Y6627331D01*
Y6630059D01*
X10491421D01*
Y6632787D01*
D02*
G37*
%LPD*%
G36*
X10570538Y6739186D02*
X10578723D01*
Y6736458D01*
X10584179D01*
Y6733730D01*
X10586907D01*
Y6731002D01*
X10589635D01*
Y6728274D01*
X10592364D01*
Y6725546D01*
X10595092D01*
Y6722817D01*
Y6720089D01*
X10597820D01*
Y6717361D01*
Y6714633D01*
Y6711905D01*
X10600548D01*
Y6709176D01*
Y6706448D01*
Y6703720D01*
Y6700992D01*
Y6698264D01*
Y6695536D01*
Y6692807D01*
Y6690079D01*
X10597820D01*
Y6687351D01*
Y6684623D01*
Y6681894D01*
X10595092D01*
Y6679166D01*
Y6676438D01*
X10592364D01*
Y6673710D01*
X10589635D01*
Y6670982D01*
X10586907D01*
Y6668254D01*
X10584179D01*
Y6665525D01*
X10578723D01*
Y6662797D01*
X10573266D01*
Y6660069D01*
X10545984D01*
Y6662797D01*
X10537800D01*
Y6665525D01*
X10535072D01*
Y6668254D01*
X10532343D01*
Y6670982D01*
X10529615D01*
Y6673710D01*
X10526887D01*
Y6676438D01*
X10524159D01*
Y6679166D01*
X10521431D01*
Y6681894D01*
Y6684623D01*
Y6687351D01*
X10518703D01*
Y6690079D01*
Y6692807D01*
Y6695536D01*
Y6698264D01*
Y6700992D01*
Y6703720D01*
Y6706448D01*
Y6709176D01*
Y6711905D01*
Y6714633D01*
X10521431D01*
Y6717361D01*
Y6720089D01*
X10524159D01*
Y6722817D01*
Y6725546D01*
X10526887D01*
Y6728274D01*
X10529615D01*
Y6731002D01*
X10532343D01*
Y6733730D01*
X10535072D01*
Y6736458D01*
X10540528D01*
Y6739186D01*
X10545984D01*
Y6741915D01*
X10570538D01*
Y6739186D01*
D02*
G37*
%LPC*%
G36*
X10554169Y6447271D02*
X10543256D01*
Y6444542D01*
X10537800D01*
Y6441814D01*
X10532343D01*
Y6439086D01*
X10529615D01*
Y6436358D01*
X10526887D01*
Y6433629D01*
Y6430902D01*
Y6428173D01*
X10524159D01*
Y6425445D01*
Y6422717D01*
Y6419989D01*
X10526887D01*
Y6417260D01*
Y6414532D01*
Y6411804D01*
X10529615D01*
Y6409076D01*
X10532343D01*
Y6406348D01*
X10535072D01*
Y6403620D01*
X10540528D01*
Y6400891D01*
X10554169D01*
Y6403620D01*
Y6406348D01*
Y6409076D01*
Y6411804D01*
Y6414532D01*
Y6417260D01*
Y6419989D01*
Y6422717D01*
Y6425445D01*
Y6428173D01*
Y6430902D01*
Y6433629D01*
Y6436358D01*
Y6439086D01*
Y6441814D01*
Y6444542D01*
Y6447271D01*
D02*
G37*
G36*
X10254068D02*
X10248612D01*
Y6444542D01*
X10237699D01*
Y6441814D01*
X10229515D01*
Y6439086D01*
X10224058D01*
Y6436358D01*
X10221330D01*
Y6433629D01*
X10215874D01*
Y6430902D01*
X10213146D01*
Y6428173D01*
X10210417D01*
Y6425445D01*
Y6422717D01*
X10207689D01*
Y6419989D01*
Y6417260D01*
X10204961D01*
Y6414532D01*
Y6411804D01*
Y6409076D01*
X10202233D01*
Y6406348D01*
Y6403620D01*
Y6400891D01*
Y6398163D01*
Y6395435D01*
Y6392707D01*
Y6389979D01*
Y6387250D01*
Y6384522D01*
Y6381794D01*
Y6379066D01*
Y6376338D01*
X10204961D01*
Y6373610D01*
Y6370881D01*
X10207689D01*
Y6368153D01*
Y6365425D01*
X10210417D01*
Y6362697D01*
X10213146D01*
Y6359969D01*
Y6357240D01*
X10218602D01*
Y6354512D01*
X10221330D01*
Y6351784D01*
X10229515D01*
Y6349056D01*
X10245884D01*
Y6351784D01*
X10251340D01*
Y6354512D01*
X10254068D01*
Y6357240D01*
Y6359969D01*
Y6362697D01*
X10256797D01*
Y6365425D01*
Y6368153D01*
Y6370881D01*
Y6373610D01*
Y6376338D01*
Y6379066D01*
Y6381794D01*
Y6384522D01*
Y6387250D01*
Y6389979D01*
Y6392707D01*
Y6395435D01*
Y6398163D01*
Y6400891D01*
Y6403620D01*
Y6406348D01*
Y6409076D01*
Y6411804D01*
Y6414532D01*
Y6417260D01*
Y6419989D01*
Y6422717D01*
Y6425445D01*
Y6428173D01*
Y6430902D01*
Y6433629D01*
Y6436358D01*
Y6439086D01*
Y6441814D01*
Y6444542D01*
X10254068D01*
Y6447271D01*
D02*
G37*
G36*
X10112203Y6430902D02*
X10109475D01*
Y6428173D01*
Y6425445D01*
X10106747D01*
Y6422717D01*
Y6419989D01*
Y6417260D01*
X10104018D01*
Y6414532D01*
Y6411804D01*
Y6409076D01*
X10101290D01*
Y6406348D01*
Y6403620D01*
X10098562D01*
Y6400891D01*
Y6398163D01*
Y6395435D01*
X10123116D01*
Y6398163D01*
Y6400891D01*
X10120387D01*
Y6403620D01*
Y6406348D01*
Y6409076D01*
X10117659D01*
Y6411804D01*
Y6414532D01*
Y6417260D01*
X10114931D01*
Y6419989D01*
Y6422717D01*
Y6425445D01*
X10112203D01*
Y6428173D01*
Y6430902D01*
D02*
G37*
G36*
X9992163Y6447271D02*
X9981250D01*
Y6444542D01*
X9970337D01*
Y6441814D01*
X9962153D01*
Y6439086D01*
X9959424D01*
Y6436358D01*
X9953968D01*
Y6433629D01*
X9951240D01*
Y6430902D01*
X9948511D01*
Y6428173D01*
X9945784D01*
Y6425445D01*
X9943055D01*
Y6422717D01*
Y6419989D01*
X9940327D01*
Y6417260D01*
Y6414532D01*
Y6411804D01*
X9937599D01*
Y6409076D01*
Y6406348D01*
Y6403620D01*
Y6400891D01*
Y6398163D01*
Y6395435D01*
Y6392707D01*
Y6389979D01*
Y6387250D01*
Y6384522D01*
Y6381794D01*
Y6379066D01*
Y6376338D01*
X9940327D01*
Y6373610D01*
Y6370881D01*
X9943055D01*
Y6368153D01*
Y6365425D01*
X9945784D01*
Y6362697D01*
X9948511D01*
Y6359969D01*
X9951240D01*
Y6357240D01*
X9953968D01*
Y6354512D01*
X9959424D01*
Y6351784D01*
X9967609D01*
Y6349056D01*
X9978522D01*
Y6351784D01*
X9983978D01*
Y6354512D01*
X9986706D01*
Y6357240D01*
X9989434D01*
Y6359969D01*
Y6362697D01*
Y6365425D01*
X9992163D01*
Y6368153D01*
Y6370881D01*
Y6373610D01*
Y6376338D01*
Y6379066D01*
Y6381794D01*
Y6384522D01*
Y6387250D01*
Y6389979D01*
Y6392707D01*
Y6395435D01*
Y6398163D01*
Y6400891D01*
Y6403620D01*
Y6406348D01*
Y6409076D01*
Y6411804D01*
Y6414532D01*
Y6417260D01*
Y6419989D01*
Y6422717D01*
Y6425445D01*
Y6428173D01*
Y6430902D01*
Y6433629D01*
Y6436358D01*
Y6439086D01*
Y6441814D01*
Y6444542D01*
Y6447271D01*
D02*
G37*
G36*
X10453226Y6302677D02*
X10442313D01*
Y6299949D01*
X10436857D01*
Y6297220D01*
X10431401D01*
Y6294492D01*
X10428672D01*
Y6291764D01*
Y6289036D01*
X10425944D01*
Y6286307D01*
Y6283580D01*
Y6280851D01*
X10423216D01*
Y6278123D01*
X10425944D01*
Y6275395D01*
Y6272667D01*
Y6269938D01*
Y6267210D01*
X10428672D01*
Y6264482D01*
X10431401D01*
Y6261754D01*
X10434129D01*
Y6259026D01*
X10442313D01*
Y6256298D01*
X10453226D01*
Y6259026D01*
Y6261754D01*
Y6264482D01*
Y6267210D01*
Y6269938D01*
Y6272667D01*
Y6275395D01*
Y6278123D01*
Y6280851D01*
Y6283580D01*
Y6286307D01*
Y6289036D01*
Y6291764D01*
Y6294492D01*
Y6297220D01*
Y6299949D01*
Y6302677D01*
D02*
G37*
G36*
X10303176Y6286307D02*
X10300448D01*
Y6283580D01*
Y6280851D01*
X10297720D01*
Y6278123D01*
Y6275395D01*
Y6272667D01*
X10294991D01*
Y6269938D01*
Y6267210D01*
X10292263D01*
Y6264482D01*
Y6261754D01*
Y6259026D01*
X10289535D01*
Y6256298D01*
Y6253569D01*
X10314089D01*
Y6256298D01*
X10311360D01*
Y6259026D01*
Y6261754D01*
Y6264482D01*
X10308632D01*
Y6267210D01*
Y6269938D01*
Y6272667D01*
X10305904D01*
Y6275395D01*
Y6278123D01*
Y6280851D01*
X10303176D01*
Y6283580D01*
Y6286307D01*
D02*
G37*
G36*
X11111382Y5739892D02*
X11095888D01*
Y5738343D01*
X11092789D01*
Y5736793D01*
Y5735244D01*
X11091240D01*
Y5733695D01*
Y5732145D01*
Y5730596D01*
Y5729046D01*
Y5727497D01*
Y5725948D01*
Y5724398D01*
Y5722849D01*
Y5721299D01*
Y5719750D01*
Y5718201D01*
Y5716651D01*
Y5715102D01*
Y5713552D01*
Y5712003D01*
Y5710454D01*
Y5708904D01*
Y5707355D01*
Y5705805D01*
Y5704256D01*
Y5702707D01*
Y5701157D01*
Y5699608D01*
Y5698058D01*
Y5696509D01*
Y5694960D01*
Y5693410D01*
Y5691861D01*
Y5690311D01*
Y5688762D01*
X11092789D01*
Y5687213D01*
X11094339D01*
Y5685663D01*
X11095888D01*
Y5684114D01*
X11111382D01*
Y5685663D01*
Y5687213D01*
Y5688762D01*
Y5690311D01*
Y5691861D01*
Y5693410D01*
Y5694960D01*
Y5696509D01*
Y5698058D01*
Y5699608D01*
Y5701157D01*
Y5702707D01*
Y5704256D01*
Y5705805D01*
Y5707355D01*
Y5708904D01*
Y5710454D01*
Y5712003D01*
Y5713552D01*
Y5715102D01*
Y5716651D01*
Y5718201D01*
Y5719750D01*
Y5721299D01*
Y5722849D01*
Y5724398D01*
Y5725948D01*
Y5727497D01*
Y5729046D01*
Y5730596D01*
Y5732145D01*
Y5733695D01*
Y5735244D01*
Y5736793D01*
Y5738343D01*
Y5739892D01*
D02*
G37*
G36*
X10217379Y5620589D02*
X10215829D01*
Y5619039D01*
Y5617489D01*
Y5615940D01*
X10214280D01*
Y5614391D01*
Y5612841D01*
Y5611292D01*
Y5609742D01*
Y5608193D01*
X10212730D01*
Y5606644D01*
Y5605094D01*
Y5603545D01*
Y5601996D01*
Y5600446D01*
Y5598897D01*
X10211181D01*
Y5597347D01*
Y5595798D01*
Y5594249D01*
Y5592699D01*
Y5591150D01*
X10209632D01*
Y5589601D01*
Y5588051D01*
Y5586501D01*
Y5584952D01*
Y5583403D01*
X10223576D01*
Y5584952D01*
Y5586501D01*
Y5588051D01*
X10222027D01*
Y5589601D01*
Y5591150D01*
Y5592699D01*
Y5594249D01*
Y5595798D01*
X10220478D01*
Y5597347D01*
Y5598897D01*
Y5600446D01*
Y5601996D01*
Y5603545D01*
Y5605094D01*
X10218928D01*
Y5606644D01*
Y5608193D01*
Y5609742D01*
Y5611292D01*
Y5612841D01*
X10217379D01*
Y5614391D01*
Y5615940D01*
Y5617489D01*
Y5619039D01*
Y5620589D01*
D02*
G37*
G36*
X9941585Y5609742D02*
X9926092D01*
Y5608193D01*
X9924542D01*
Y5606644D01*
X9922993D01*
Y5605094D01*
Y5603545D01*
Y5601996D01*
Y5600446D01*
Y5598897D01*
Y5597347D01*
Y5595798D01*
Y5594249D01*
Y5592699D01*
Y5591150D01*
Y5589601D01*
Y5588051D01*
Y5586501D01*
Y5584952D01*
Y5583403D01*
Y5581853D01*
Y5580304D01*
Y5578754D01*
Y5577205D01*
Y5575656D01*
Y5574106D01*
Y5572557D01*
Y5571008D01*
X9924542D01*
Y5569458D01*
X9926092D01*
Y5567909D01*
X9940036D01*
Y5569458D01*
X9941585D01*
Y5571008D01*
X9943135D01*
Y5572557D01*
X9944685D01*
Y5574106D01*
Y5575656D01*
Y5577205D01*
Y5578754D01*
Y5580304D01*
Y5581853D01*
Y5583403D01*
Y5584952D01*
Y5586501D01*
Y5588051D01*
Y5589601D01*
Y5591150D01*
Y5592699D01*
Y5594249D01*
Y5595798D01*
Y5597347D01*
Y5598897D01*
Y5600446D01*
Y5601996D01*
Y5603545D01*
Y5605094D01*
Y5606644D01*
X9943135D01*
Y5608193D01*
X9941585D01*
Y5609742D01*
D02*
G37*
%LPD*%
D66*
X10672180Y8756600D02*
G03*
X10672180Y8756600I-11180J0D01*
G01*
X8693985Y5990039D02*
G03*
X8693985Y5990039I-10000J0D01*
G01*
D67*
X10665460Y9141460D02*
X10690860D01*
X10391140Y9116060D02*
Y9141460D01*
Y8841740D02*
X10416540D01*
X10690860D02*
Y8867140D01*
X10391140Y8841740D02*
Y8867140D01*
Y9141460D02*
X10416540D01*
X10690860Y9116060D02*
Y9141460D01*
X10665460Y8841740D02*
X10690860D01*
X7647000Y6403279D02*
X8129092Y6977812D01*
X7647000Y6403279D02*
X8413049Y5760491D01*
X8895136Y6335024D01*
X8129092Y6977812D02*
X8895136Y6335024D01*
X8010908Y6339279D02*
X7978265Y6300377D01*
X7981395Y6264604D01*
X8017167Y6267734D01*
X8049810Y6306636D01*
X8025328Y6277459D01*
X7986425Y6310102D01*
X8020297Y6231961D02*
X8061101Y6280589D01*
X8078987Y6282154D01*
X8098438Y6265833D01*
X8100003Y6247946D01*
X8059199Y6199318D01*
X8078651Y6182997D02*
X8127615Y6241350D01*
X8156792Y6216868D01*
X8158357Y6198982D01*
X8125714Y6160079D01*
X8107828Y6158514D01*
X8078651Y6182997D01*
X8137004Y6134032D02*
X8156456Y6117710D01*
X8146730Y6125871D01*
X8195695Y6184225D01*
X8185969Y6192386D01*
X8205420Y6176064D01*
X8214809Y6068746D02*
X8195358Y6085067D01*
X8193793Y6102954D01*
X8226436Y6141856D01*
X8244323Y6143421D01*
X8263774Y6127100D01*
X8265339Y6109213D01*
X8232695Y6070311D01*
X8214809Y6068746D01*
D68*
X10928314Y8809210D02*
Y8869190D01*
X10908320Y8849197D01*
X10888327Y8869190D01*
Y8809210D01*
X10868333D02*
Y8849197D01*
X10848340Y8869190D01*
X10828346Y8849197D01*
Y8809210D01*
Y8839200D01*
X10868333D01*
X10808353Y8869190D02*
X10768366Y8809210D01*
Y8869190D02*
X10808353Y8809210D01*
X10304377Y9258708D02*
X10271055D01*
Y9283699D01*
X10287716D01*
X10271055D01*
Y9308691D01*
X10321039Y9258708D02*
Y9308691D01*
X10354361D01*
X10404345D02*
X10371022D01*
X10404345Y9275369D01*
Y9267038D01*
X10396014Y9258708D01*
X10379353D01*
X10371022Y9267038D01*
X10681008Y9258708D02*
X10647686D01*
Y9283700D01*
X10664347D01*
X10647686D01*
Y9308692D01*
X10697669Y9258708D02*
Y9308692D01*
X10730992D01*
X10747653D02*
X10764314D01*
X10755984D01*
Y9258708D01*
X10747653Y9267038D01*
X10554108Y10025282D02*
X10545778Y10033612D01*
Y10050274D01*
X10554108Y10058604D01*
X10587431D01*
X10595761Y10050274D01*
Y10033612D01*
X10587431Y10025282D01*
X10595761Y9983629D02*
X10545778D01*
X10570770Y10008621D01*
Y9975298D01*
X10604092Y9958637D02*
Y9925314D01*
X10595761Y9875331D02*
Y9908653D01*
X10562439Y9875331D01*
X10554108D01*
X10545778Y9883661D01*
Y9900323D01*
X10554108Y9908653D01*
X10595761Y9825347D02*
Y9858670D01*
X10562439Y9825347D01*
X10554108D01*
X10545778Y9833678D01*
Y9850339D01*
X10554108Y9858670D01*
Y9808686D02*
X10545778Y9800355D01*
Y9783694D01*
X10554108Y9775363D01*
X10587431D01*
X10595761Y9783694D01*
Y9800355D01*
X10587431Y9808686D01*
X10554108D01*
X10612423Y9758702D02*
X10562439D01*
Y9733711D01*
X10570770Y9725380D01*
X10587431D01*
X10595761Y9733711D01*
Y9758702D01*
X10545778Y9675396D02*
Y9708719D01*
X10570770D01*
Y9692058D01*
Y9708719D01*
X10595761D01*
X10568524Y7894826D02*
X10576855Y7903157D01*
X10593516D01*
X10601847Y7894826D01*
Y7861504D01*
X10593516Y7853173D01*
X10576855D01*
X10568524Y7861504D01*
X10518541Y7853173D02*
X10551863D01*
X10518541Y7886496D01*
Y7894826D01*
X10526872Y7903157D01*
X10543533D01*
X10551863Y7894826D01*
X10501880Y7844843D02*
X10468557D01*
X10451896Y7853173D02*
X10435235D01*
X10443565D01*
Y7903157D01*
X10451896Y7894826D01*
X10410243D02*
X10401912Y7903157D01*
X10385251D01*
X10376920Y7894826D01*
Y7861504D01*
X10385251Y7853173D01*
X10401912D01*
X10410243Y7861504D01*
Y7894826D01*
X10360259Y7886496D02*
Y7861504D01*
X10351928Y7853173D01*
X10326937D01*
Y7886496D01*
X10276953Y7903157D02*
X10310276D01*
Y7878165D01*
X10293614D01*
X10310276D01*
Y7853173D01*
X10585281Y8148150D02*
X10593650Y8156442D01*
X10610311Y8156365D01*
X10618603Y8147996D01*
X10618448Y8114674D01*
X10610079Y8106382D01*
X10593418Y8106459D01*
X10585126Y8114828D01*
X10568427Y8106575D02*
X10551766Y8106652D01*
X10560096Y8106613D01*
X10560328Y8156597D01*
X10568620Y8148228D01*
X10526735Y8098437D02*
X10493413Y8098592D01*
X10476984Y8148652D02*
X10468692Y8157022D01*
X10452031Y8157099D01*
X10443662Y8148807D01*
X10443507Y8115485D01*
X10451799Y8107116D01*
X10468460Y8107038D01*
X10476829Y8115330D01*
X10476984Y8148652D01*
X10426808Y8107231D02*
X10426846Y8115562D01*
X10418516Y8115601D01*
X10418477Y8107270D01*
X10426808Y8107231D01*
X10385155Y8107424D02*
X10368494Y8107502D01*
X10376824Y8107463D01*
X10377056Y8157446D01*
X10385348Y8149077D01*
X10343657Y8140940D02*
X10343541Y8115948D01*
X10335172Y8107656D01*
X10310180Y8107772D01*
X10310334Y8141094D01*
X10260429Y8157987D02*
X10293751Y8157833D01*
X10293635Y8132841D01*
X10276974Y8132918D01*
X10293635Y8132841D01*
X10293519Y8107849D01*
%TF.MD5,a8bdbf33c51e6518df5f73f217172847*%
M02*
