%TF.GenerationSoftware,Altium Limited,Altium Designer,20.0.13 (296)*%
G04 Layer_Color=255*
%FSLAX45Y45*%
%MOMM*%
%TF.FileFunction,Pads,Bot*%
%TF.Part,Single*%
G01*
G75*
%TA.AperFunction,SMDPad,CuDef*%
%ADD10R,2.00000X0.90000*%
%ADD32R,1.47000X1.16000*%
%ADD33R,1.16000X1.47000*%
%TA.AperFunction,ViaPad*%
%ADD43C,1.52400*%
%TA.AperFunction,ComponentPad*%
G04:AMPARAMS|DCode=44|XSize=1.6mm|YSize=0.6mm|CornerRadius=0mm|HoleSize=0mm|Usage=FLASHONLY|Rotation=135.000|XOffset=0mm|YOffset=0mm|HoleType=Round|Shape=Rectangle|*
%AMROTATEDRECTD44*
4,1,4,0.77782,-0.35356,0.35356,-0.77782,-0.77782,0.35356,-0.35356,0.77782,0.77782,-0.35356,0.0*
%
%ADD44ROTATEDRECTD44*%

%ADD45R,1.50800X1.50800*%
%ADD46C,1.50800*%
%ADD47R,1.50000X1.50000*%
%ADD48O,1.05000X2.10000*%
%TA.AperFunction,SMDPad,CuDef*%
%ADD49R,0.97000X1.73000*%
%TA.AperFunction,ComponentPad*%
%ADD50R,1.50000X1.50000*%
%ADD51R,1.50000X1.25000*%
%ADD52C,2.10000*%
%ADD53P,2.96985X4X185.0*%
%TA.AperFunction,SMDPad,CuDef*%
G04:AMPARAMS|DCode=57|XSize=0.86mm|YSize=0.15mm|CornerRadius=0.0375mm|HoleSize=0mm|Usage=FLASHONLY|Rotation=180.000|XOffset=0mm|YOffset=0mm|HoleType=Round|Shape=RoundedRectangle|*
%AMROUNDEDRECTD57*
21,1,0.86000,0.07500,0,0,180.0*
21,1,0.78500,0.15000,0,0,180.0*
1,1,0.07500,-0.39250,0.03750*
1,1,0.07500,0.39250,0.03750*
1,1,0.07500,0.39250,-0.03750*
1,1,0.07500,-0.39250,-0.03750*
%
%ADD57ROUNDEDRECTD57*%
G04:AMPARAMS|DCode=58|XSize=0.86mm|YSize=0.15mm|CornerRadius=0.0375mm|HoleSize=0mm|Usage=FLASHONLY|Rotation=270.000|XOffset=0mm|YOffset=0mm|HoleType=Round|Shape=RoundedRectangle|*
%AMROUNDEDRECTD58*
21,1,0.86000,0.07500,0,0,270.0*
21,1,0.78500,0.15000,0,0,270.0*
1,1,0.07500,-0.03750,-0.39250*
1,1,0.07500,-0.03750,0.39250*
1,1,0.07500,0.03750,0.39250*
1,1,0.07500,0.03750,-0.39250*
%
%ADD58ROUNDEDRECTD58*%
%ADD59R,1.10000X1.10000*%
%ADD60R,1.14000X1.47000*%
D10*
X11382405Y6781540D02*
D03*
D32*
X10414000Y9968600D02*
D03*
Y9792600D02*
D03*
D33*
X11347820Y9169400D02*
D03*
X11171820D02*
D03*
X10527400Y8026400D02*
D03*
X10351400D02*
D03*
X10527400Y8280400D02*
D03*
X10351400D02*
D03*
D43*
X11574780Y11650980D02*
D03*
D44*
X8320138Y10679798D02*
D03*
X8409940Y10769600D02*
D03*
X8499742Y10859403D02*
D03*
X8589545Y10949205D02*
D03*
X8679348Y11039008D02*
D03*
X8769150Y11128810D02*
D03*
X8230321Y10589981D02*
D03*
X8142328Y10501988D02*
D03*
D45*
X13081000Y9067800D02*
D03*
X13084081Y8238060D02*
D03*
X13081000Y7391400D02*
D03*
X7700740Y9067800D02*
D03*
X7700200Y8232140D02*
D03*
X7705280Y7386320D02*
D03*
D46*
X12831000Y9067800D02*
D03*
X12834081Y8238060D02*
D03*
X12831000Y7391400D02*
D03*
X7950740Y9067800D02*
D03*
X7950200Y8232140D02*
D03*
X7955280Y7386320D02*
D03*
D47*
X8458200Y7015480D02*
D03*
D48*
X10572760Y11715000D02*
D03*
X11287760D02*
D03*
D49*
X10270401Y8559800D02*
D03*
X10566400D02*
D03*
D50*
X8953500Y5999480D02*
D03*
D51*
X9374480Y5742280D02*
D03*
D52*
X8063489Y6510696D02*
D03*
D53*
X8446511Y6189304D02*
D03*
D57*
X10684500Y8916600D02*
D03*
Y8966600D02*
D03*
Y9016600D02*
D03*
Y9066600D02*
D03*
X10397500D02*
D03*
Y9016600D02*
D03*
Y8966600D02*
D03*
Y8916600D02*
D03*
D58*
X10616000Y9135100D02*
D03*
X10566000D02*
D03*
X10516000D02*
D03*
X10466000D02*
D03*
X10516000Y8848100D02*
D03*
X10566000D02*
D03*
X10616000D02*
D03*
D59*
X10541000Y8991600D02*
D03*
D60*
X10248800Y9423400D02*
D03*
X10426800Y9423400D02*
D03*
X10807800D02*
D03*
X10629800Y9423400D02*
D03*
%TF.MD5,9f6568e4cb53e8abb58d67b9553d63be*%
M02*
