%TF.GenerationSoftware,Altium Limited,Altium Designer,20.0.13 (296)*%
G04 Layer_Color=32768*
%FSLAX45Y45*%
%MOMM*%
%TF.FileFunction,Other,Mechanical_15*%
%TF.Part,Single*%
G01*
G75*
%TA.AperFunction,NonConductor*%
%ADD120C,0.05000*%
D120*
X12272579Y6408877D02*
X12725705Y7056008D01*
X12272579Y6408877D02*
X12784552Y6050392D01*
X13237677Y6697523D01*
X12725705Y7056008D02*
X13237677Y6697523D01*
X10752999Y8779601D02*
Y9203599D01*
X10329001D02*
X10752999D01*
X10329001Y8779601D02*
Y9203599D01*
Y8779601D02*
X10752999D01*
X12561001Y8807801D02*
X13351003D01*
Y9432798D01*
X12561001D02*
X13351003D01*
X12561001Y8807801D02*
Y9432798D01*
X12564080Y7978059D02*
X13354080D01*
Y8603061D01*
X12564080D02*
X13354080D01*
X12564080Y7978059D02*
Y8603061D01*
X12561001Y7131401D02*
X13351003D01*
Y7756398D01*
X12561001D02*
X13351003D01*
X12561001Y7131401D02*
Y7756398D01*
X7430740Y9327799D02*
X8220740D01*
X7430740Y8702802D02*
Y9327799D01*
Y8702802D02*
X8220740D01*
Y9327799D01*
X7430201Y8492139D02*
X8220202D01*
X7430201Y7867142D02*
Y8492139D01*
Y7867142D02*
X8220202D01*
Y8492139D01*
X7435281Y7646319D02*
X8225282D01*
X7435281Y7021322D02*
Y7646319D01*
Y7021322D02*
X8225282D01*
Y7646319D01*
X9552407Y5240538D02*
X11512408D01*
X9552407D02*
Y7265538D01*
X11512408D01*
Y5240538D02*
Y7265538D01*
X11360262Y11354999D02*
Y12014998D01*
X10500258Y11354999D02*
Y12014998D01*
X11360262D01*
X10500258Y11354999D02*
X11360262D01*
X9313860Y11312982D02*
Y11734978D01*
Y11312982D02*
X9373860D01*
Y11098982D02*
Y11312982D01*
Y11098982D02*
X9975860D01*
Y11312982D01*
X10035860D01*
Y11734978D01*
X9861860D02*
X10035860D01*
X9861860D02*
Y11948978D01*
X9487860D02*
X9861860D01*
X9487860Y11734978D02*
Y11948978D01*
X9313860Y11734978D02*
X9487860D01*
X10196901Y8448299D02*
Y8671301D01*
X10639903Y8448299D02*
Y8671301D01*
X10196901Y8448299D02*
X10639903D01*
X10196901Y8671301D02*
X10639903D01*
X11431118Y9071102D02*
Y9267698D01*
X11088522Y9071102D02*
Y9267698D01*
Y9071102D02*
X11431118D01*
X11088522Y9267698D02*
X11431118D01*
X10167000Y9325102D02*
Y9521698D01*
X10508600Y9325102D02*
Y9521698D01*
X10167000D02*
X10508600D01*
X10167000Y9325102D02*
X10508600D01*
X10610698Y7928102D02*
Y8124698D01*
X10268102Y7928102D02*
Y8124698D01*
Y7928102D02*
X10610698D01*
X10268102Y8124698D02*
X10610698D01*
X10315702Y10051898D02*
X10512298D01*
X10315702Y9709302D02*
X10512298D01*
Y10051898D01*
X10315702Y9709302D02*
Y10051898D01*
X10889600Y9325102D02*
Y9521698D01*
X10548000Y9325102D02*
Y9521698D01*
Y9325102D02*
X10889600D01*
X10548000Y9521698D02*
X10889600D01*
X10610698Y8182102D02*
Y8378698D01*
X10268102Y8182102D02*
Y8378698D01*
Y8182102D02*
X10610698D01*
X10268102Y8378698D02*
X10610698D01*
X8416127Y5725272D02*
X8930361Y6338102D01*
X7611781Y6400195D02*
X8416127Y5725272D01*
X7611781Y6400195D02*
X8126009Y7013031D01*
X8930361Y6338102D01*
X11572819Y9828982D02*
X11708582Y9693219D01*
X11947581Y9932218D01*
X11811818Y10067981D02*
X11947581Y9932218D01*
X11572819Y9828982D02*
X11811818Y10067981D01*
X10866938Y9746559D02*
X11002701Y9882322D01*
X10763702Y10121321D02*
X11002701Y9882322D01*
X10627939Y9985558D02*
X10763702Y10121321D01*
X10627939Y9985558D02*
X10866938Y9746559D01*
X10987903Y9629958D02*
X11126922Y9768977D01*
X11230158Y9387703D02*
X11369177Y9526722D01*
X10987903Y9629958D02*
X11230158Y9387703D01*
X11126922Y9768977D02*
X11369177Y9526722D01*
X11699819Y10463982D02*
X11835582Y10328214D01*
X12074581Y10567218D01*
X11938818Y10702986D02*
X12074581Y10567218D01*
X11699819Y10463982D02*
X11938818Y10702986D01*
X11547419Y10641782D02*
X11683182Y10506014D01*
X11922181Y10745018D01*
X11786418Y10880786D02*
X11922181Y10745018D01*
X11547419Y10641782D02*
X11786418Y10880786D01*
X8369818Y8159659D02*
Y8497661D01*
X8561822D01*
Y8159659D02*
Y8497661D01*
X8369818Y8159659D02*
X8561822D01*
X8385058Y8987699D02*
Y9325701D01*
X8577062D01*
Y8987699D02*
Y9325701D01*
X8385058Y8987699D02*
X8577062D01*
X8352038Y7316379D02*
Y7654381D01*
X8544042D01*
Y7316379D02*
Y7654381D01*
X8352038Y7316379D02*
X8544042D01*
X12158101Y9163802D02*
X12496099D01*
Y8971798D02*
Y9163802D01*
X12158101Y8971798D02*
X12496099D01*
X12158101D02*
Y9163802D01*
X12175399Y7487402D02*
X12513401D01*
Y7295398D02*
Y7487402D01*
X12175399Y7295398D02*
X12513401D01*
X12175399D02*
Y7487402D01*
X12149999Y8325602D02*
X12488001D01*
Y8133598D02*
Y8325602D01*
X12149999Y8133598D02*
X12488001D01*
X12149999D02*
Y8325602D01*
X10150602Y11113922D02*
X10347198D01*
X10150602Y11456518D02*
X10347198D01*
Y11113922D02*
Y11456518D01*
X10150602Y11113922D02*
Y11456518D01*
X9907661Y10544058D02*
Y10736062D01*
Y10544058D02*
X10245659D01*
Y10736062D01*
X9907661D02*
X10245659D01*
X9407042Y10206482D02*
X9749638D01*
X9407042Y10403078D02*
X9749638D01*
X9407042Y10206482D02*
Y10403078D01*
X9749638Y10206482D02*
Y10403078D01*
X9401058Y10635742D02*
X9743658D01*
X9401058Y10832338D02*
X9743658D01*
X9401058Y10635742D02*
Y10832338D01*
X9743658Y10635742D02*
Y10832338D01*
X9655302Y8032902D02*
X9851898D01*
X9655302Y8375498D02*
X9851898D01*
Y8032902D02*
Y8375498D01*
X9655302Y8032902D02*
Y8375498D01*
X11714998Y5469799D02*
X11907002D01*
Y5807801D01*
X11714998D02*
X11907002D01*
X11714998Y5469799D02*
Y5807801D01*
X11197082Y8025282D02*
X11393678D01*
X11197082Y8367878D02*
X11393678D01*
Y8025282D02*
Y8367878D01*
X11197082Y8025282D02*
Y8367878D01*
%TF.MD5,20d3e576c0467286c6172b25b836327a*%
M02*
