%TF.GenerationSoftware,Altium Limited,Altium Designer,20.0.13 (296)*%
G04 Layer_Physical_Order=2*
G04 Layer_Color=16711680*
%FSLAX45Y45*%
%MOMM*%
%TF.FileFunction,Copper,L2,Bot,Signal*%
%TF.Part,Single*%
G01*
G75*
%TA.AperFunction,SMDPad,CuDef*%
%ADD10R,2.00000X0.90000*%
%ADD32R,1.47000X1.16000*%
%ADD33R,1.16000X1.47000*%
%TA.AperFunction,Conductor*%
%ADD35C,0.50000*%
%ADD36C,0.80000*%
%ADD37C,0.25400*%
%ADD38C,0.40000*%
%ADD42C,0.30000*%
%TA.AperFunction,ViaPad*%
%ADD43C,1.52400*%
%TA.AperFunction,ComponentPad*%
G04:AMPARAMS|DCode=44|XSize=1.6mm|YSize=0.6mm|CornerRadius=0mm|HoleSize=0mm|Usage=FLASHONLY|Rotation=135.000|XOffset=0mm|YOffset=0mm|HoleType=Round|Shape=Rectangle|*
%AMROTATEDRECTD44*
4,1,4,0.77782,-0.35356,0.35356,-0.77782,-0.77782,0.35356,-0.35356,0.77782,0.77782,-0.35356,0.0*
%
%ADD44ROTATEDRECTD44*%

%ADD45R,1.50800X1.50800*%
%ADD46C,1.50800*%
%ADD47R,1.50000X1.50000*%
%ADD48O,1.05000X2.10000*%
%TA.AperFunction,SMDPad,CuDef*%
%ADD49R,0.97000X1.73000*%
%TA.AperFunction,ComponentPad*%
%ADD50R,1.50000X1.50000*%
%ADD51R,1.50000X1.25000*%
%ADD52C,2.10000*%
%ADD53P,2.96985X4X185.0*%
%TA.AperFunction,ViaPad*%
%ADD54C,1.00000*%
%ADD55C,1.27000*%
%ADD56C,0.50000*%
%TA.AperFunction,SMDPad,CuDef*%
G04:AMPARAMS|DCode=57|XSize=0.86mm|YSize=0.15mm|CornerRadius=0.0375mm|HoleSize=0mm|Usage=FLASHONLY|Rotation=180.000|XOffset=0mm|YOffset=0mm|HoleType=Round|Shape=RoundedRectangle|*
%AMROUNDEDRECTD57*
21,1,0.86000,0.07500,0,0,180.0*
21,1,0.78500,0.15000,0,0,180.0*
1,1,0.07500,-0.39250,0.03750*
1,1,0.07500,0.39250,0.03750*
1,1,0.07500,0.39250,-0.03750*
1,1,0.07500,-0.39250,-0.03750*
%
%ADD57ROUNDEDRECTD57*%
G04:AMPARAMS|DCode=58|XSize=0.86mm|YSize=0.15mm|CornerRadius=0.0375mm|HoleSize=0mm|Usage=FLASHONLY|Rotation=270.000|XOffset=0mm|YOffset=0mm|HoleType=Round|Shape=RoundedRectangle|*
%AMROUNDEDRECTD58*
21,1,0.86000,0.07500,0,0,270.0*
21,1,0.78500,0.15000,0,0,270.0*
1,1,0.07500,-0.03750,-0.39250*
1,1,0.07500,-0.03750,0.39250*
1,1,0.07500,0.03750,0.39250*
1,1,0.07500,0.03750,-0.39250*
%
%ADD58ROUNDEDRECTD58*%
%ADD59R,1.10000X1.10000*%
%ADD60R,1.14000X1.47000*%
%TA.AperFunction,Conductor*%
%ADD61C,0.10000*%
%ADD62C,0.20000*%
G36*
X9039860Y11772900D02*
X9047480D01*
X9286240Y12011660D01*
X11498580D01*
X11772900Y11737340D01*
X11955780Y11920220D01*
Y11922760D01*
X11958320D01*
X12682220Y12646660D01*
X13083540D01*
Y12628880D01*
X14224001Y11488420D01*
Y11160760D01*
X14218919D01*
X13319760Y10261600D01*
Y9906000D01*
X13774420Y9451340D01*
X13769341Y9446260D01*
Y6929120D01*
X12908412Y6068192D01*
X12481342Y5721693D01*
X11298454Y5221943D01*
X9855386Y5176777D01*
X9044940Y5372100D01*
X8511540Y5689600D01*
X8227060Y5831840D01*
X7241234Y6817666D01*
X7248258Y6828603D01*
X7274560Y6826013D01*
X7304044Y6828916D01*
X7332394Y6837516D01*
X7358522Y6851482D01*
X7381423Y6870277D01*
X7400218Y6893178D01*
X7414184Y6919306D01*
X7422783Y6947656D01*
X7425687Y6977140D01*
X7422783Y7006624D01*
X7414184Y7034974D01*
X7400218Y7061102D01*
X7381423Y7084003D01*
X7358522Y7102798D01*
X7332394Y7116764D01*
X7304044Y7125363D01*
X7274560Y7128267D01*
X7245076Y7125363D01*
X7216726Y7116764D01*
X7190598Y7102798D01*
X7167697Y7084003D01*
X7148902Y7061102D01*
X7134936Y7034974D01*
X7127240Y7009602D01*
X7114540Y7011486D01*
Y9300154D01*
X7127240Y9302038D01*
X7134936Y9276666D01*
X7148902Y9250538D01*
X7167697Y9227637D01*
X7190598Y9208842D01*
X7216726Y9194876D01*
X7245076Y9186277D01*
X7274560Y9183373D01*
X7304044Y9186277D01*
X7332394Y9194876D01*
X7358522Y9208842D01*
X7381423Y9227637D01*
X7400218Y9250538D01*
X7414184Y9276666D01*
X7422783Y9305016D01*
X7425687Y9334500D01*
X7422783Y9363984D01*
X7414184Y9392334D01*
X7400218Y9418462D01*
X7381423Y9441363D01*
X7358522Y9460158D01*
X7332394Y9474124D01*
X7304044Y9482723D01*
X7274560Y9485627D01*
X7245076Y9482723D01*
X7216726Y9474124D01*
X7190598Y9460158D01*
X7167697Y9441363D01*
X7148902Y9418462D01*
X7134936Y9392334D01*
X7127240Y9366962D01*
X7114540Y9368846D01*
Y9512300D01*
X7505700Y9903460D01*
Y10264140D01*
X6606540Y11163300D01*
Y11508740D01*
X7744460Y12646660D01*
X8161020D01*
X8163560Y12649200D01*
X9039860Y11772900D01*
D02*
G37*
%LPC*%
G36*
X13007478Y11985032D02*
X12989101Y11982612D01*
X12971976Y11975518D01*
X12957269Y11964234D01*
X12945985Y11949528D01*
X12938892Y11932402D01*
X12936472Y11914024D01*
X12938892Y11895646D01*
X12945985Y11878521D01*
X12957269Y11863814D01*
X12971976Y11852530D01*
X12989101Y11845436D01*
X13007478Y11843017D01*
X13025858Y11845436D01*
X13042982Y11852530D01*
X13057689Y11863814D01*
X13068973Y11878521D01*
X13076067Y11895646D01*
X13078487Y11914024D01*
X13076067Y11932402D01*
X13068973Y11949528D01*
X13057689Y11964234D01*
X13042982Y11975518D01*
X13025858Y11982612D01*
X13007478Y11985032D01*
D02*
G37*
G36*
X11587480Y11751785D02*
Y11663680D01*
X11675585D01*
X11673765Y11677503D01*
X11663528Y11702218D01*
X11647242Y11723442D01*
X11626018Y11739728D01*
X11601303Y11749965D01*
X11587480Y11751785D01*
D02*
G37*
G36*
X11562080D02*
X11548257Y11749965D01*
X11523542Y11739728D01*
X11502318Y11723442D01*
X11486032Y11702218D01*
X11475795Y11677503D01*
X11473975Y11663680D01*
X11562080D01*
Y11751785D01*
D02*
G37*
G36*
X11287760Y11846072D02*
X11267424Y11843395D01*
X11248474Y11835545D01*
X11232201Y11823059D01*
X11219715Y11806786D01*
X11211865Y11787836D01*
X11209188Y11767500D01*
Y11662500D01*
X11211865Y11642164D01*
X11219715Y11623214D01*
X11232201Y11606941D01*
X11248474Y11594455D01*
X11267424Y11586605D01*
X11287760Y11583928D01*
X11308096Y11586605D01*
X11327046Y11594455D01*
X11343319Y11606941D01*
X11355805Y11623214D01*
X11363655Y11642164D01*
X11366332Y11662500D01*
Y11767500D01*
X11363655Y11787836D01*
X11355805Y11806786D01*
X11343319Y11823059D01*
X11327046Y11835545D01*
X11308096Y11843395D01*
X11287760Y11846072D01*
D02*
G37*
G36*
X10572760D02*
X10552424Y11843395D01*
X10533474Y11835545D01*
X10517201Y11823059D01*
X10504715Y11806786D01*
X10496865Y11787836D01*
X10494188Y11767500D01*
Y11662500D01*
X10496865Y11642164D01*
X10504715Y11623214D01*
X10517201Y11606941D01*
X10533474Y11594455D01*
X10552424Y11586605D01*
X10572760Y11583928D01*
X10593096Y11586605D01*
X10612046Y11594455D01*
X10628319Y11606941D01*
X10640805Y11623214D01*
X10648655Y11642164D01*
X10651332Y11662500D01*
Y11767500D01*
X10648655Y11787836D01*
X10640805Y11806786D01*
X10628319Y11823059D01*
X10612046Y11835545D01*
X10593096Y11843395D01*
X10572760Y11846072D01*
D02*
G37*
G36*
X11675585Y11638280D02*
X11587480D01*
Y11550175D01*
X11601303Y11551995D01*
X11626018Y11562232D01*
X11647242Y11578518D01*
X11663528Y11599742D01*
X11673765Y11624457D01*
X11675585Y11638280D01*
D02*
G37*
G36*
X11562080D02*
X11473975D01*
X11475795Y11624457D01*
X11486032Y11599742D01*
X11502318Y11578518D01*
X11523542Y11562232D01*
X11548257Y11551995D01*
X11562080Y11550175D01*
Y11638280D01*
D02*
G37*
G36*
X13573164Y11419346D02*
X13554787Y11416926D01*
X13537662Y11409833D01*
X13522955Y11398548D01*
X13511671Y11383842D01*
X13504578Y11366717D01*
X13502158Y11348338D01*
X13504578Y11329961D01*
X13511671Y11312835D01*
X13522955Y11298129D01*
X13537662Y11286844D01*
X13554787Y11279751D01*
X13573164Y11277331D01*
X13591544Y11279751D01*
X13608669Y11286844D01*
X13623375Y11298129D01*
X13634659Y11312835D01*
X13641753Y11329960D01*
X13644173Y11348338D01*
X13641753Y11366716D01*
X13634659Y11383842D01*
X13623375Y11398548D01*
X13608669Y11409833D01*
X13591544Y11416926D01*
X13573164Y11419346D01*
D02*
G37*
G36*
X8733795Y11242513D02*
X8655448Y11164166D01*
X8804506Y11015108D01*
X8882853Y11093455D01*
X8733795Y11242513D01*
D02*
G37*
G36*
X8464387Y10973105D02*
X8386040Y10894758D01*
X8535098Y10745700D01*
X8613445Y10824047D01*
X8464387Y10973105D01*
D02*
G37*
G36*
X8374585Y10883303D02*
X8296237Y10804955D01*
X8445295Y10655897D01*
X8523643Y10734245D01*
X8374585Y10883303D01*
D02*
G37*
G36*
X10507980Y10938507D02*
X10478496Y10935603D01*
X10450146Y10927004D01*
X10424018Y10913038D01*
X10401117Y10894243D01*
X10382322Y10871342D01*
X10368356Y10845214D01*
X10359757Y10816864D01*
X10356853Y10787380D01*
X10359757Y10757896D01*
X10368356Y10729546D01*
X10382322Y10703418D01*
X10401117Y10680517D01*
X10424018Y10661722D01*
X10450146Y10647756D01*
X10478496Y10639157D01*
X10507980Y10636253D01*
X10537464Y10639157D01*
X10565814Y10647756D01*
X10591942Y10661722D01*
X10614843Y10680517D01*
X10633638Y10703418D01*
X10647604Y10729546D01*
X10656203Y10757896D01*
X10659107Y10787380D01*
X10656203Y10816864D01*
X10647604Y10845214D01*
X10633638Y10871342D01*
X10614843Y10894243D01*
X10591942Y10913038D01*
X10565814Y10927004D01*
X10537464Y10935603D01*
X10507980Y10938507D01*
D02*
G37*
G36*
X8194966Y10703683D02*
X8164773Y10673491D01*
X8230321Y10607942D01*
X8260514Y10638135D01*
X8194966Y10703683D01*
D02*
G37*
G36*
X8284782Y10793500D02*
X8206435Y10715153D01*
X8355493Y10566095D01*
X8433840Y10644442D01*
X8284782Y10793500D01*
D02*
G37*
G36*
X8146812Y10655530D02*
X8116618Y10625336D01*
X8182167Y10559788D01*
X8212361Y10589982D01*
X8146812Y10655530D01*
D02*
G37*
G36*
X8278474Y10620175D02*
X8248282Y10589982D01*
X8313831Y10524433D01*
X8344023Y10554626D01*
X8278474Y10620175D01*
D02*
G37*
G36*
X8230321Y10572021D02*
X8200127Y10541827D01*
X8265676Y10476278D01*
X8295870Y10506472D01*
X8230321Y10572021D01*
D02*
G37*
G36*
X8106973Y10615691D02*
X8028626Y10537344D01*
X8177684Y10388286D01*
X8256031Y10466633D01*
X8106973Y10615691D01*
D02*
G37*
G36*
X12473188Y10415348D02*
X12449981Y10412293D01*
X12428355Y10403335D01*
X12409784Y10389086D01*
X12395535Y10370515D01*
X12386577Y10348889D01*
X12383521Y10325681D01*
X12386577Y10302474D01*
X12387972Y10299105D01*
X12234215Y10145347D01*
X12070315D01*
X12061094Y10157364D01*
X12042523Y10171614D01*
X12020897Y10180572D01*
X11997690Y10183627D01*
X11974482Y10180572D01*
X11952856Y10171614D01*
X11934286Y10157364D01*
X11920036Y10138794D01*
X11911078Y10117167D01*
X11908023Y10093960D01*
X11911078Y10070753D01*
X11920036Y10049126D01*
X11934286Y10030556D01*
X11952856Y10016306D01*
X11974482Y10007348D01*
X11997690Y10004293D01*
X12020897Y10007348D01*
X12042523Y10016306D01*
X12061094Y10030556D01*
X12070315Y10042573D01*
X12255500D01*
X12275165Y10046484D01*
X12291836Y10057624D01*
X12470571Y10236359D01*
X12473188Y10236014D01*
X12496396Y10239070D01*
X12518022Y10248028D01*
X12536593Y10262277D01*
X12550842Y10280848D01*
X12559800Y10302474D01*
X12562855Y10325681D01*
X12559800Y10348889D01*
X12550842Y10370515D01*
X12536593Y10389086D01*
X12518022Y10403335D01*
X12496396Y10412293D01*
X12473188Y10415348D01*
D02*
G37*
G36*
X10591800Y10249667D02*
X10568593Y10246612D01*
X10546966Y10237654D01*
X10528396Y10223404D01*
X10519175Y10211387D01*
X10261600D01*
X10241935Y10207476D01*
X10225264Y10196336D01*
X9595744Y9566816D01*
X9584604Y9550145D01*
X9580693Y9530480D01*
Y9042000D01*
X9584604Y9022335D01*
X9595744Y9005664D01*
X10034953Y8566455D01*
Y7130821D01*
X10038864Y7111156D01*
X10050004Y7094485D01*
X10066675Y7083345D01*
X10086340Y7079434D01*
X10106005Y7083345D01*
X10122676Y7094485D01*
X10133816Y7111156D01*
X10137727Y7130821D01*
Y8587740D01*
X10133816Y8607405D01*
X10122676Y8624076D01*
X9683467Y9063285D01*
Y9324634D01*
X9694858Y9330252D01*
X9701146Y9325426D01*
X9722773Y9316468D01*
X9745980Y9313413D01*
X9769187Y9316468D01*
X9790814Y9325426D01*
X9809384Y9339676D01*
X9822517Y9356791D01*
X9916159D01*
X9916160Y9356790D01*
X9933874Y9360314D01*
X9948892Y9370348D01*
X9955654Y9377110D01*
X10166400D01*
Y9324500D01*
X10331200D01*
Y9522300D01*
X10295089D01*
Y9608226D01*
X10385932Y9699069D01*
X10392701Y9709200D01*
X10512900D01*
Y9872500D01*
X10512900Y9876000D01*
Y9885200D01*
X10512900Y9888700D01*
Y9955900D01*
X10414000D01*
X10315100D01*
Y9888700D01*
X10315100Y9885200D01*
Y9876000D01*
X10315100Y9872500D01*
Y9759163D01*
X10216068Y9660132D01*
X10206034Y9645114D01*
X10202510Y9627400D01*
X10202510Y9627399D01*
Y9522300D01*
X10166400D01*
Y9469689D01*
X9936481D01*
X9936480Y9469689D01*
X9918766Y9466166D01*
X9903748Y9456131D01*
X9903748Y9456131D01*
X9896986Y9449369D01*
X9822517D01*
X9809384Y9466484D01*
X9790814Y9480734D01*
X9769187Y9489692D01*
X9745980Y9492747D01*
X9722773Y9489692D01*
X9701146Y9480734D01*
X9694858Y9475908D01*
X9683467Y9481526D01*
Y9509195D01*
X10282885Y10108613D01*
X10519175D01*
X10528396Y10096596D01*
X10546966Y10082346D01*
X10568593Y10073388D01*
X10591800Y10070333D01*
X10615007Y10073388D01*
X10636634Y10082346D01*
X10655204Y10096596D01*
X10669454Y10115166D01*
X10678412Y10136793D01*
X10681467Y10160000D01*
X10678412Y10183207D01*
X10669454Y10204834D01*
X10655204Y10223404D01*
X10636634Y10237654D01*
X10615007Y10246612D01*
X10591800Y10249667D01*
D02*
G37*
G36*
X10512900Y10052000D02*
X10426700D01*
Y9981300D01*
X10512900D01*
Y10052000D01*
D02*
G37*
G36*
X10401300D02*
X10315100D01*
Y9981300D01*
X10401300D01*
Y10052000D01*
D02*
G37*
G36*
X8554190Y11062908D02*
X8475843Y10984560D01*
X8624900Y10835503D01*
X8627738Y10838340D01*
X8711612Y10754465D01*
X8711613Y9280907D01*
X8700222Y9275290D01*
X8699425Y9275902D01*
X8681083Y9283499D01*
X8661400Y9286091D01*
X8641717Y9283499D01*
X8623375Y9275902D01*
X8607624Y9263816D01*
X8595538Y9248065D01*
X8587941Y9229723D01*
X8585349Y9210040D01*
X8587941Y9190357D01*
X8595538Y9172015D01*
X8607624Y9156264D01*
X8610013Y9154431D01*
Y6425478D01*
X8499555Y6315020D01*
X8430439Y6373015D01*
X8262800Y6173231D01*
X8462584Y6005592D01*
X8630223Y6205376D01*
X8585785Y6242664D01*
X8585231Y6255352D01*
X8697736Y6367857D01*
X8698913Y6369618D01*
X8711613Y6365765D01*
Y5717540D01*
X8715525Y5697875D01*
X8726664Y5681204D01*
X8741350Y5666517D01*
X8739373Y5651500D01*
X8742428Y5628293D01*
X8751386Y5606666D01*
X8765636Y5588096D01*
X8784206Y5573846D01*
X8805833Y5564888D01*
X8829040Y5561833D01*
X8852247Y5564888D01*
X8873874Y5573846D01*
X8892444Y5588096D01*
X8906694Y5606666D01*
X8915652Y5628293D01*
X8918707Y5651500D01*
X8915652Y5674707D01*
X8906694Y5696334D01*
X8892444Y5714904D01*
X8873874Y5729154D01*
X8852247Y5738112D01*
X8829040Y5741167D01*
X8823936Y5740495D01*
X8814388Y5748869D01*
X8814387Y10775751D01*
X8810475Y10795416D01*
X8799336Y10812087D01*
X8700410Y10911012D01*
X8703248Y10913850D01*
X8554190Y11062908D01*
D02*
G37*
G36*
X10890200Y9522300D02*
X10725400D01*
Y9324500D01*
X10890200D01*
Y9375610D01*
X11016498D01*
X11111108Y9281000D01*
X11105847Y9268300D01*
X11088420D01*
Y9210787D01*
X11004674D01*
X11002194Y9216774D01*
X10987944Y9235344D01*
X10969374Y9249594D01*
X10947747Y9258552D01*
X10924540Y9261607D01*
X10901333Y9258552D01*
X10879706Y9249594D01*
X10861136Y9235344D01*
X10846886Y9216774D01*
X10837928Y9195147D01*
X10834873Y9171940D01*
X10837928Y9148733D01*
X10846886Y9127106D01*
X10861136Y9108536D01*
X10879706Y9094286D01*
X10901333Y9085328D01*
X10924540Y9082273D01*
X10947747Y9085328D01*
X10969374Y9094286D01*
X10987944Y9108536D01*
X11002194Y9127106D01*
X11004674Y9133093D01*
X11088420D01*
Y9070500D01*
X11251720D01*
X11255220Y9070500D01*
X11264420D01*
X11267920Y9070500D01*
X11335120D01*
Y9169400D01*
Y9268300D01*
X11267920D01*
X11264420Y9268300D01*
X11255220D01*
X11251720Y9268300D01*
X11223207D01*
Y9292960D01*
X11219296Y9312625D01*
X11208156Y9329296D01*
X11074119Y9463333D01*
X11057448Y9474473D01*
X11037783Y9478384D01*
X10890200D01*
Y9522300D01*
D02*
G37*
G36*
X13530580Y9488167D02*
X13501096Y9485263D01*
X13472746Y9476664D01*
X13446619Y9462698D01*
X13423717Y9443903D01*
X13404922Y9421002D01*
X13390956Y9394874D01*
X13382356Y9366524D01*
X13379453Y9337040D01*
X13382356Y9307556D01*
X13390956Y9279206D01*
X13404922Y9253078D01*
X13423717Y9230177D01*
X13446619Y9211382D01*
X13472746Y9197416D01*
X13501096Y9188817D01*
X13530580Y9185913D01*
X13560065Y9188817D01*
X13588414Y9197416D01*
X13614542Y9211382D01*
X13637444Y9230177D01*
X13656238Y9253078D01*
X13670204Y9279206D01*
X13678802Y9307556D01*
X13681706Y9337040D01*
X13678802Y9366524D01*
X13670204Y9394874D01*
X13656238Y9421002D01*
X13637444Y9443903D01*
X13614542Y9462698D01*
X13588414Y9476664D01*
X13560065Y9485263D01*
X13530580Y9488167D01*
D02*
G37*
G36*
X11360520Y9268300D02*
Y9182100D01*
X11431220D01*
Y9268300D01*
X11360520D01*
D02*
G37*
G36*
X10509200Y9522300D02*
X10344400D01*
Y9324500D01*
X10385313D01*
Y9268460D01*
X10388271Y9253594D01*
X10396691Y9240991D01*
X10429906Y9207776D01*
Y9134100D01*
X10432529Y9120916D01*
Y9102627D01*
X10419829Y9100269D01*
X10417586Y9101767D01*
X10353847Y9165507D01*
X10340483Y9174436D01*
X10324720Y9177571D01*
X10289568D01*
X10285384Y9183024D01*
X10271722Y9193507D01*
X10255813Y9200097D01*
X10238740Y9202344D01*
X10221667Y9200097D01*
X10205758Y9193507D01*
X10192096Y9183024D01*
X10181613Y9169362D01*
X10175023Y9153453D01*
X10172776Y9136380D01*
Y8882920D01*
X10175023Y8865847D01*
X10181613Y8849938D01*
X10192096Y8836276D01*
X10204436Y8823936D01*
Y8671700D01*
X10196501D01*
Y8447900D01*
X10204436D01*
Y8361400D01*
X10206684Y8344327D01*
X10213274Y8328417D01*
X10223757Y8314756D01*
X10268000Y8270512D01*
Y8181500D01*
X10300013D01*
Y8125300D01*
X10268000D01*
Y7927500D01*
X10431300D01*
X10434800Y7927500D01*
X10444000D01*
X10447500Y7927500D01*
X10514700D01*
Y8026400D01*
Y8125300D01*
X10447500D01*
X10444000Y8125300D01*
X10434800D01*
X10431300Y8125300D01*
X10402787D01*
Y8181500D01*
X10431300D01*
X10434800Y8181500D01*
X10444000D01*
X10447500Y8181500D01*
X10514700D01*
Y8280400D01*
Y8379300D01*
X10447500D01*
X10444000Y8379300D01*
X10434800D01*
X10431300Y8379300D01*
X10345788D01*
X10336365Y8388723D01*
Y8447900D01*
X10344301D01*
Y8671700D01*
X10336365D01*
Y8851260D01*
X10334117Y8868333D01*
X10329071Y8880516D01*
X10328655Y8885123D01*
X10335809Y8890719D01*
X10340268Y8889807D01*
X10346876Y8885391D01*
X10358250Y8883129D01*
X10436750D01*
X10448124Y8885391D01*
X10457766Y8891834D01*
X10464208Y8901476D01*
X10466079Y8910882D01*
X10478246Y8910494D01*
X10484792Y8898723D01*
X10482529Y8887350D01*
Y8860800D01*
X10516001D01*
Y8848100D01*
X10528701D01*
Y8780909D01*
X10531124Y8781391D01*
X10541000Y8787685D01*
X10550877Y8781391D01*
X10553300Y8780909D01*
Y8848100D01*
X10574804D01*
X10577939Y8832335D01*
X10578700Y8831197D01*
Y8780909D01*
X10581124Y8781391D01*
X10591000Y8787684D01*
X10600877Y8781391D01*
X10612250Y8779129D01*
X10619750D01*
X10625562Y8780285D01*
X10663220Y8742626D01*
X10676584Y8733697D01*
X10692347Y8730561D01*
X10809825D01*
X10830009Y8710378D01*
Y6774703D01*
X10819964Y6766996D01*
X10807878Y6751245D01*
X10800281Y6732903D01*
X10797689Y6713220D01*
X10800281Y6693537D01*
X10807878Y6675195D01*
X10819964Y6659444D01*
X10835715Y6647358D01*
X10854057Y6639761D01*
X10873740Y6637169D01*
X10893423Y6639761D01*
X10911765Y6647358D01*
X10927516Y6659444D01*
X10939602Y6675195D01*
X10947199Y6693537D01*
X10949791Y6713220D01*
X10947199Y6732903D01*
X10939602Y6751245D01*
X10927516Y6766996D01*
X10912391Y6778601D01*
Y8727440D01*
X10909256Y8743203D01*
X10900327Y8756567D01*
X10856014Y8800880D01*
X10842650Y8809809D01*
X10826887Y8812944D01*
X10709409D01*
X10658725Y8863628D01*
X10662208Y8878107D01*
X10667045Y8879674D01*
X10668737Y8878544D01*
X10684500Y8875408D01*
X10931678D01*
X11068769Y8738318D01*
Y6929643D01*
X11058724Y6921936D01*
X11046638Y6906185D01*
X11039041Y6887843D01*
X11036449Y6868160D01*
X11039041Y6848477D01*
X11046638Y6830135D01*
X11058724Y6814384D01*
X11074475Y6802298D01*
X11092817Y6794701D01*
X11112500Y6792109D01*
X11132183Y6794701D01*
X11150525Y6802298D01*
X11166276Y6814384D01*
X11178362Y6830135D01*
X11185959Y6848477D01*
X11188551Y6868160D01*
X11185959Y6887843D01*
X11178362Y6906185D01*
X11166276Y6921936D01*
X11151151Y6933541D01*
Y8755380D01*
X11148016Y8771143D01*
X11139087Y8784507D01*
X10977867Y8945727D01*
X10964503Y8954656D01*
X10948740Y8957791D01*
X10757623D01*
X10753471Y8962851D01*
Y8970350D01*
X10757623Y8975409D01*
X11105998D01*
X11652969Y8428438D01*
Y6794432D01*
X11640384Y6784776D01*
X11628298Y6769025D01*
X11620701Y6750683D01*
X11618109Y6731000D01*
X11620701Y6711317D01*
X11628298Y6692975D01*
X11640384Y6677224D01*
X11656135Y6665138D01*
X11674477Y6657541D01*
X11694160Y6654949D01*
X11713843Y6657541D01*
X11732185Y6665138D01*
X11747936Y6677224D01*
X11760022Y6692975D01*
X11767619Y6711317D01*
X11770211Y6731000D01*
X11767619Y6750683D01*
X11760022Y6769025D01*
X11747936Y6784776D01*
X11735351Y6794432D01*
Y6874433D01*
X11748051Y6875265D01*
X11748843Y6869252D01*
X11750241Y6858637D01*
X11757838Y6840295D01*
X11769924Y6824544D01*
X11785675Y6812458D01*
X11804017Y6804861D01*
X11823700Y6802269D01*
X11826685Y6802662D01*
X12102513Y6526835D01*
Y6050009D01*
X12100124Y6048176D01*
X12088038Y6032425D01*
X12080441Y6014083D01*
X12077849Y5994400D01*
X12080441Y5974717D01*
X12088038Y5956375D01*
X12100124Y5940624D01*
X12115875Y5928538D01*
X12134217Y5920941D01*
X12153900Y5918349D01*
X12173583Y5920941D01*
X12191925Y5928538D01*
X12207676Y5940624D01*
X12219762Y5956375D01*
X12227359Y5974717D01*
X12229951Y5994400D01*
X12227359Y6014083D01*
X12219762Y6032425D01*
X12207676Y6048176D01*
X12205287Y6050009D01*
Y6548120D01*
X12201376Y6567785D01*
X12190236Y6584456D01*
X11899358Y6875335D01*
X11899751Y6878320D01*
X11897159Y6898003D01*
X11889562Y6916345D01*
X11877476Y6932096D01*
X11861725Y6944182D01*
X11843383Y6951779D01*
X11823700Y6954371D01*
X11804017Y6951779D01*
X11785675Y6944182D01*
X11769924Y6932096D01*
X11757838Y6916345D01*
X11750241Y6898003D01*
X11748843Y6887388D01*
X11748051Y6881375D01*
X11735351Y6882207D01*
Y8445500D01*
X11732216Y8461263D01*
X11723287Y8474627D01*
X11152187Y9045727D01*
X11138823Y9054656D01*
X11123060Y9057791D01*
X10757623D01*
X10753471Y9062851D01*
Y9070350D01*
X10751209Y9081724D01*
X10744766Y9091366D01*
X10735124Y9097809D01*
X10723750Y9100071D01*
X10649471D01*
Y9174350D01*
X10647209Y9185724D01*
X10640766Y9195366D01*
X10631124Y9201809D01*
X10619750Y9204071D01*
X10612250D01*
X10600876Y9201809D01*
X10591000Y9195516D01*
X10581123Y9201809D01*
X10572601Y9203504D01*
X10568733Y9211080D01*
X10567908Y9216771D01*
X10657268Y9306132D01*
X10665689Y9318734D01*
X10666836Y9324500D01*
X10712200D01*
Y9522300D01*
X10547400D01*
Y9382854D01*
X10546653Y9379100D01*
X10547400Y9375345D01*
Y9324500D01*
X10549169D01*
X10554029Y9312766D01*
X10495183Y9253920D01*
X10493468Y9254089D01*
X10463007Y9284551D01*
Y9324500D01*
X10509200D01*
Y9522300D01*
D02*
G37*
G36*
X11431220Y9156700D02*
X11360520D01*
Y9070500D01*
X11431220D01*
Y9156700D01*
D02*
G37*
G36*
X13181799Y9168600D02*
X12980200D01*
Y8967000D01*
X13181799D01*
Y9168600D01*
D02*
G37*
G36*
X7801540D02*
X7599940D01*
Y8967000D01*
X7801540D01*
Y9168600D01*
D02*
G37*
G36*
X12831000Y9169470D02*
X12804686Y9166005D01*
X12780165Y9155848D01*
X12759109Y9139691D01*
X12742952Y9118635D01*
X12732795Y9094114D01*
X12729330Y9067800D01*
X12732795Y9041486D01*
X12742952Y9016965D01*
X12759109Y8995909D01*
X12780165Y8979752D01*
X12804686Y8969595D01*
X12831000Y8966130D01*
X12857314Y8969595D01*
X12881834Y8979752D01*
X12902892Y8995909D01*
X12919048Y9016965D01*
X12929205Y9041486D01*
X12932671Y9067800D01*
X12929205Y9094114D01*
X12919048Y9118635D01*
X12902892Y9139691D01*
X12881834Y9155848D01*
X12857314Y9166005D01*
X12831000Y9169470D01*
D02*
G37*
G36*
X7950740D02*
X7924426Y9166005D01*
X7899905Y9155848D01*
X7878849Y9139691D01*
X7862692Y9118635D01*
X7852535Y9094114D01*
X7849070Y9067800D01*
X7852535Y9041486D01*
X7862692Y9016965D01*
X7878849Y8995909D01*
X7899905Y8979752D01*
X7924426Y8969595D01*
X7950740Y8966130D01*
X7977054Y8969595D01*
X8001575Y8979752D01*
X8022631Y8995909D01*
X8038788Y9016965D01*
X8048945Y9041486D01*
X8052410Y9067800D01*
X8048945Y9094114D01*
X8038788Y9118635D01*
X8022631Y9139691D01*
X8001575Y9155848D01*
X7977054Y9166005D01*
X7950740Y9169470D01*
D02*
G37*
G36*
X10503301Y8835400D02*
X10482529D01*
Y8808850D01*
X10484792Y8797476D01*
X10491234Y8787834D01*
X10500876Y8781391D01*
X10503301Y8780909D01*
Y8835400D01*
D02*
G37*
G36*
X10640300Y8671700D02*
X10492500D01*
Y8447900D01*
X10640300D01*
Y8671700D01*
D02*
G37*
G36*
X10540100Y8379300D02*
Y8293100D01*
X10610800D01*
Y8379300D01*
X10540100D01*
D02*
G37*
G36*
X10610800Y8267700D02*
X10540100D01*
Y8181500D01*
X10610800D01*
Y8267700D01*
D02*
G37*
G36*
X13184880Y8338860D02*
X12983279D01*
Y8137260D01*
X13184880D01*
Y8338860D01*
D02*
G37*
G36*
X12834081Y8339730D02*
X12807767Y8336265D01*
X12783245Y8326108D01*
X12762189Y8309951D01*
X12746032Y8288895D01*
X12735875Y8264374D01*
X12732410Y8238060D01*
X12735875Y8211746D01*
X12746032Y8187225D01*
X12762189Y8166169D01*
X12783245Y8150012D01*
X12807767Y8139855D01*
X12834081Y8136390D01*
X12860394Y8139855D01*
X12884915Y8150012D01*
X12905971Y8166169D01*
X12922128Y8187225D01*
X12932285Y8211746D01*
X12935750Y8238060D01*
X12932285Y8264374D01*
X12922128Y8288895D01*
X12905971Y8309951D01*
X12884915Y8326108D01*
X12860394Y8336265D01*
X12834081Y8339730D01*
D02*
G37*
G36*
X7801000Y8332940D02*
X7599400D01*
Y8131340D01*
X7801000D01*
Y8332940D01*
D02*
G37*
G36*
X7950200Y8333810D02*
X7923886Y8330345D01*
X7899365Y8320188D01*
X7878309Y8304031D01*
X7862152Y8282975D01*
X7851995Y8258454D01*
X7848530Y8232140D01*
X7851995Y8205826D01*
X7862152Y8181305D01*
X7878309Y8160249D01*
X7899365Y8144092D01*
X7923886Y8133935D01*
X7950200Y8130470D01*
X7976514Y8133935D01*
X8001035Y8144092D01*
X8022091Y8160249D01*
X8038248Y8181305D01*
X8048405Y8205826D01*
X8051870Y8232140D01*
X8048405Y8258454D01*
X8038248Y8282975D01*
X8022091Y8304031D01*
X8001035Y8320188D01*
X7976514Y8330345D01*
X7950200Y8333810D01*
D02*
G37*
G36*
X10540100Y8125300D02*
Y8039100D01*
X10610800D01*
Y8125300D01*
X10540100D01*
D02*
G37*
G36*
X10610800Y8013700D02*
X10540100D01*
Y7927500D01*
X10610800D01*
Y8013700D01*
D02*
G37*
G36*
X10477500Y7675897D02*
Y7538720D01*
X10614677D01*
X10613023Y7555504D01*
X10604424Y7583854D01*
X10590458Y7609982D01*
X10571663Y7632883D01*
X10548762Y7651678D01*
X10522634Y7665644D01*
X10494284Y7674243D01*
X10477500Y7675897D01*
D02*
G37*
G36*
X10452100D02*
X10435316Y7674243D01*
X10406966Y7665644D01*
X10380838Y7651678D01*
X10357937Y7632883D01*
X10339142Y7609982D01*
X10325176Y7583854D01*
X10316577Y7555504D01*
X10314923Y7538720D01*
X10452100D01*
Y7675897D01*
D02*
G37*
G36*
X10614677Y7513320D02*
X10477500D01*
Y7376143D01*
X10494284Y7377797D01*
X10522634Y7386396D01*
X10548762Y7400362D01*
X10571663Y7419157D01*
X10590458Y7442058D01*
X10604424Y7468186D01*
X10613023Y7496536D01*
X10614677Y7513320D01*
D02*
G37*
G36*
X10452100D02*
X10314923D01*
X10316577Y7496536D01*
X10325176Y7468186D01*
X10339142Y7442058D01*
X10357937Y7419157D01*
X10380838Y7400362D01*
X10406966Y7386396D01*
X10435316Y7377797D01*
X10452100Y7376143D01*
Y7513320D01*
D02*
G37*
G36*
X13181799Y7492200D02*
X12980200D01*
Y7290600D01*
X13181799D01*
Y7492200D01*
D02*
G37*
G36*
X12831000Y7493070D02*
X12804686Y7489605D01*
X12780165Y7479448D01*
X12759109Y7463291D01*
X12742952Y7442235D01*
X12732795Y7417714D01*
X12729330Y7391400D01*
X12732795Y7365086D01*
X12742952Y7340565D01*
X12759109Y7319509D01*
X12780165Y7303352D01*
X12804686Y7293195D01*
X12831000Y7289730D01*
X12857314Y7293195D01*
X12881834Y7303352D01*
X12902892Y7319509D01*
X12919048Y7340565D01*
X12929205Y7365086D01*
X12932671Y7391400D01*
X12929205Y7417714D01*
X12919048Y7442235D01*
X12902892Y7463291D01*
X12881834Y7479448D01*
X12857314Y7489605D01*
X12831000Y7493070D01*
D02*
G37*
G36*
X7806080Y7487120D02*
X7604480D01*
Y7285520D01*
X7806080D01*
Y7487120D01*
D02*
G37*
G36*
X7955280Y7487990D02*
X7928966Y7484525D01*
X7904445Y7474368D01*
X7883389Y7458211D01*
X7867232Y7437155D01*
X7857075Y7412634D01*
X7853610Y7386320D01*
X7857075Y7360006D01*
X7867232Y7335485D01*
X7883389Y7314429D01*
X7904445Y7298272D01*
X7928966Y7288115D01*
X7955280Y7284650D01*
X7981594Y7288115D01*
X8006115Y7298272D01*
X8027171Y7314429D01*
X8043328Y7335485D01*
X8053485Y7360006D01*
X8056950Y7386320D01*
X8053485Y7412634D01*
X8043328Y7437155D01*
X8027171Y7458211D01*
X8006115Y7474368D01*
X7981594Y7484525D01*
X7955280Y7487990D01*
D02*
G37*
G36*
X8558600Y7115880D02*
X8470900D01*
Y7028180D01*
X8558600D01*
Y7115880D01*
D02*
G37*
G36*
X8445500D02*
X8357800D01*
Y7028180D01*
X8445500D01*
Y7115880D01*
D02*
G37*
G36*
X8643992Y11152710D02*
X8565645Y11074363D01*
X8714703Y10925305D01*
X8717540Y10928143D01*
X9049993Y10595691D01*
X9049993Y6425640D01*
X9053904Y6405975D01*
X9065044Y6389304D01*
X9177822Y6276525D01*
X9177429Y6273540D01*
X9180021Y6253856D01*
X9187618Y6235515D01*
X9199704Y6219764D01*
X9215455Y6207678D01*
X9233797Y6200081D01*
X9253480Y6197489D01*
X9273164Y6200081D01*
X9291505Y6207678D01*
X9307256Y6219764D01*
X9319342Y6235515D01*
X9326939Y6253856D01*
X9329531Y6273540D01*
X9326939Y6293223D01*
X9319342Y6311565D01*
X9311998Y6321135D01*
X9318871Y6333040D01*
X9324576Y6332289D01*
X9344260Y6334881D01*
X9362602Y6342478D01*
X9378352Y6354564D01*
X9390438Y6370315D01*
X9398036Y6388657D01*
X9400627Y6408340D01*
X9398036Y6428023D01*
X9390438Y6446365D01*
X9378352Y6462116D01*
X9362602Y6474202D01*
X9361776Y6474544D01*
X9305898Y6530421D01*
X9313092Y6541188D01*
X9323876Y6536721D01*
X9343560Y6534129D01*
X9363243Y6536721D01*
X9381585Y6544318D01*
X9397336Y6556404D01*
X9409422Y6572155D01*
X9417019Y6590497D01*
X9419611Y6610180D01*
X9417019Y6629864D01*
X9409524Y6647958D01*
Y6943943D01*
X9422224Y6948828D01*
X9434435Y6939458D01*
X9452777Y6931861D01*
X9472460Y6929269D01*
X9492144Y6931861D01*
X9510485Y6939458D01*
X9526236Y6951544D01*
X9538322Y6967295D01*
X9545919Y6985637D01*
X9548511Y7005320D01*
X9545919Y7025003D01*
X9538322Y7043345D01*
X9535084Y7047565D01*
Y9471982D01*
X9542579Y9490077D01*
X9545171Y9509760D01*
X9542579Y9529443D01*
X9534982Y9547785D01*
X9522896Y9563536D01*
X9507145Y9575622D01*
X9488803Y9583219D01*
X9469120Y9585811D01*
X9449437Y9583219D01*
X9431095Y9575622D01*
X9422224Y9568815D01*
X9409524Y9575078D01*
Y9786372D01*
X9415675Y9794388D01*
X9423273Y9812730D01*
X9425864Y9832414D01*
X9423273Y9852097D01*
X9415675Y9870439D01*
X9403590Y9886190D01*
X9387839Y9898275D01*
X9369497Y9905873D01*
X9349814Y9908464D01*
X9330130Y9905873D01*
X9311788Y9898275D01*
X9296038Y9886190D01*
X9283952Y9870439D01*
X9278544Y9857384D01*
X9265844Y9859910D01*
Y10124561D01*
X9269706Y10129595D01*
X9277304Y10147937D01*
X9279895Y10167620D01*
X9277304Y10187303D01*
X9269706Y10205645D01*
X9257621Y10221396D01*
X9241870Y10233482D01*
X9223528Y10241079D01*
X9203845Y10243671D01*
X9184161Y10241079D01*
X9165819Y10233482D01*
X9164157Y10232207D01*
X9152767Y10237824D01*
Y10616976D01*
X9148855Y10636641D01*
X9137716Y10653312D01*
X8790213Y11000815D01*
X8793050Y11003653D01*
X8643992Y11152710D01*
D02*
G37*
G36*
X8558600Y7002780D02*
X8470900D01*
Y6915080D01*
X8558600D01*
Y7002780D01*
D02*
G37*
G36*
X8445500D02*
X8357800D01*
Y6915080D01*
X8445500D01*
Y7002780D01*
D02*
G37*
G36*
X13535660Y7115807D02*
X13506177Y7112903D01*
X13477826Y7104304D01*
X13451698Y7090338D01*
X13428796Y7071543D01*
X13410002Y7048642D01*
X13396036Y7022514D01*
X13387437Y6994164D01*
X13384534Y6964680D01*
X13384657Y6963410D01*
X13384534Y6962140D01*
X13387437Y6932656D01*
X13396036Y6904306D01*
X13410002Y6878178D01*
X13428796Y6855277D01*
X13451698Y6836482D01*
X13477826Y6822516D01*
X13506177Y6813917D01*
X13535660Y6811013D01*
X13565144Y6813917D01*
X13593494Y6822516D01*
X13619621Y6836482D01*
X13642523Y6855277D01*
X13661317Y6878178D01*
X13675284Y6904306D01*
X13683884Y6932656D01*
X13686787Y6962140D01*
X13686662Y6963410D01*
X13686787Y6964680D01*
X13683884Y6994164D01*
X13675284Y7022514D01*
X13661317Y7048642D01*
X13642523Y7071543D01*
X13619621Y7090338D01*
X13593494Y7104304D01*
X13565144Y7112903D01*
X13535660Y7115807D01*
D02*
G37*
G36*
X11507806Y6851940D02*
X11257005D01*
Y6711140D01*
X11507806D01*
Y6851940D01*
D02*
G37*
G36*
X8052025Y6641721D02*
X8018504Y6634290D01*
X7988049Y6618436D01*
X7962734Y6595239D01*
X7944286Y6566281D01*
X7933962Y6533536D01*
X7932464Y6499233D01*
X7939895Y6465712D01*
X7955749Y6435257D01*
X7978946Y6409942D01*
X8007904Y6391494D01*
X8040649Y6381169D01*
X8074952Y6379672D01*
X8108473Y6387103D01*
X8138928Y6402957D01*
X8164243Y6426154D01*
X8182691Y6455112D01*
X8193016Y6487857D01*
X8194513Y6522160D01*
X8187082Y6555681D01*
X8171228Y6586136D01*
X8148031Y6611451D01*
X8119073Y6629899D01*
X8086328Y6640223D01*
X8052025Y6641721D01*
D02*
G37*
G36*
X9053900Y6099880D02*
X8853100D01*
Y5899080D01*
X9053900D01*
Y6099880D01*
D02*
G37*
G36*
X9474880Y5830180D02*
X9274080D01*
Y5654380D01*
X9474880D01*
Y5830180D01*
D02*
G37*
%LPD*%
D10*
X11382405Y6781540D02*
D03*
D32*
X10414000Y9968600D02*
D03*
Y9792600D02*
D03*
D33*
X11347820Y9169400D02*
D03*
X11171820D02*
D03*
X10527400Y8026400D02*
D03*
X10351400D02*
D03*
X10527400Y8280400D02*
D03*
X10351400D02*
D03*
D35*
X8446511Y6189304D02*
X8661400Y6404193D01*
Y9210040D01*
X9632080Y9530480D02*
X10261600Y10160000D01*
X9632080Y9042000D02*
Y9530480D01*
Y9042000D02*
X10086340Y8587740D01*
X8763000Y5717540D02*
X8829040Y5651500D01*
X8763000Y10775751D02*
X8763000Y5717540D01*
X12255500Y10093960D02*
X12504420Y10342880D01*
X12153900Y5994400D02*
Y6548120D01*
X11823700Y6878320D02*
X12153900Y6548120D01*
X9101380Y6425640D02*
X9253480Y6273540D01*
X10086340Y7130821D02*
Y8587740D01*
X8589545Y10949205D02*
X8763000Y10775751D01*
X8446511Y6189304D02*
Y6189304D01*
X8679348Y11039008D02*
X9101380Y10616976D01*
X9101380Y6425640D01*
X11037783Y9426997D02*
X11171820Y9292960D01*
X10811397Y9426997D02*
X11037783D01*
X10807800Y9423400D02*
X10811397Y9426997D01*
X11997690Y10093960D02*
X12255500D01*
X11171820Y9169400D02*
Y9292960D01*
X10261600Y10160000D02*
X10591800D01*
X10351400Y8026400D02*
Y8280400D01*
D36*
X9199880Y6543152D02*
X9324576Y6418456D01*
X9199880Y6543152D02*
Y10147300D01*
X9324576Y6408340D02*
Y6418456D01*
X9469120Y7005320D02*
Y9509760D01*
X10351400Y8280400D02*
Y8295900D01*
X10333400Y8313900D02*
X10351400Y8295900D01*
X10317900Y8313900D02*
X10333400D01*
X10270401Y8361400D02*
X10317900Y8313900D01*
X10270401Y8361400D02*
Y8559800D01*
Y8851260D01*
X10238740Y8882920D02*
X10270401Y8851260D01*
X10238740Y8882920D02*
Y9136380D01*
X9343560Y9826160D02*
X9349814Y9832414D01*
X9343560Y6610180D02*
Y9826160D01*
D37*
X10629800Y9333600D02*
Y9423400D01*
X10818103Y9448915D02*
X10822721Y9448801D01*
X10845439Y9385761D02*
Y9385761D01*
X10825876Y9447735D02*
X10830517Y9433032D01*
X10807800Y9423401D02*
Y9448915D01*
X10807800Y9423400D02*
X10807800Y9423401D01*
X10807800Y9423400D02*
X10845439Y9385761D01*
X10822721Y9448801D02*
X10825876Y9447735D01*
X10830517Y9433032D02*
X10845439Y9385761D01*
X10807800Y9448915D02*
X10818103D01*
X8446511Y6189304D02*
Y6189304D01*
X10924540Y9171940D02*
X11169280D01*
X11171820Y9169400D01*
X10353200Y9731800D02*
Y9747300D01*
X10398500Y9792600D02*
X10414000D01*
X10353200Y9747300D02*
X10398500Y9792600D01*
X10424160Y9420760D02*
X10426800Y9423400D01*
X10424160Y9268460D02*
Y9420760D01*
Y9268460D02*
X10466000Y9226620D01*
X10585500Y9379100D02*
X10629800Y9423400D01*
X10516800Y9220600D02*
X10629800Y9333600D01*
D38*
X9745980Y9403080D02*
X9916160D01*
X9936480Y9423400D01*
X10248800D01*
Y9627400D01*
X10353200Y9731800D01*
D42*
X10871200Y6713220D02*
Y8727440D01*
X11109960Y6868160D02*
Y8755380D01*
X10684500Y8916600D02*
X10948740D01*
X11109960Y8755380D01*
X10692347Y8771753D02*
X10826887D01*
X10871200Y8727440D01*
X11694160Y6731000D02*
Y8445500D01*
X11123060Y9016600D02*
X11694160Y8445500D01*
X10684500Y9016600D02*
X11123060D01*
X10397500D02*
Y9066600D01*
X10324720Y9136380D02*
X10394500Y9066600D01*
X10238740Y9136380D02*
X10324720D01*
X10616000Y8848100D02*
X10692347Y8771753D01*
D43*
X11574780Y11650980D02*
D03*
D44*
X8320138Y10679798D02*
D03*
X8409940Y10769600D02*
D03*
X8499742Y10859403D02*
D03*
X8589545Y10949205D02*
D03*
X8679348Y11039008D02*
D03*
X8769150Y11128810D02*
D03*
X8230321Y10589981D02*
D03*
X8142328Y10501988D02*
D03*
D45*
X13081000Y9067800D02*
D03*
X13084081Y8238060D02*
D03*
X13081000Y7391400D02*
D03*
X7700740Y9067800D02*
D03*
X7700200Y8232140D02*
D03*
X7705280Y7386320D02*
D03*
D46*
X12831000Y9067800D02*
D03*
X12834081Y8238060D02*
D03*
X12831000Y7391400D02*
D03*
X7950740Y9067800D02*
D03*
X7950200Y8232140D02*
D03*
X7955280Y7386320D02*
D03*
D47*
X8458200Y7015480D02*
D03*
D48*
X10572760Y11715000D02*
D03*
X11287760D02*
D03*
D49*
X10270401Y8559800D02*
D03*
X10566400D02*
D03*
D50*
X8953500Y5999480D02*
D03*
D51*
X9374480Y5742280D02*
D03*
D52*
X8063489Y6510696D02*
D03*
D53*
X8446511Y6189304D02*
D03*
D54*
X8661400Y9210040D02*
D03*
X11823700Y6878320D02*
D03*
X11112500Y6868160D02*
D03*
X9253480Y6273540D02*
D03*
X9324576Y6408340D02*
D03*
X9343560Y6610180D02*
D03*
X9472460Y7005320D02*
D03*
X10873740Y6713220D02*
D03*
X11694160Y6731000D02*
D03*
X9469120Y9509760D02*
D03*
X9349814Y9832414D02*
D03*
X9203845Y10167620D02*
D03*
X12153900Y5994400D02*
D03*
D55*
X9745980Y9403080D02*
D03*
X8829040Y5651500D02*
D03*
X11997690Y10093960D02*
D03*
X10924540Y9171940D02*
D03*
X12473188Y10325681D02*
D03*
X10591800Y10160000D02*
D03*
D56*
X10238740Y9136380D02*
D03*
D57*
X10684500Y8916600D02*
D03*
Y8966600D02*
D03*
Y9016600D02*
D03*
Y9066600D02*
D03*
X10397500D02*
D03*
Y9016600D02*
D03*
Y8966600D02*
D03*
Y8916600D02*
D03*
D58*
X10616000Y9135100D02*
D03*
X10566000D02*
D03*
X10516000D02*
D03*
X10466000D02*
D03*
X10516000Y8848100D02*
D03*
X10566000D02*
D03*
X10616000D02*
D03*
D59*
X10541000Y8991600D02*
D03*
D60*
X10248800Y9423400D02*
D03*
X10426800Y9423400D02*
D03*
X10807800D02*
D03*
X10629800Y9423400D02*
D03*
D61*
X10397500Y9066600D02*
X10398500D01*
D62*
X10516000Y9134100D02*
Y9219800D01*
X10516800Y9220600D01*
X10466000Y9134100D02*
Y9226620D01*
%TF.MD5,4ebd2435e5d0ad67867703772c8a51cb*%
M02*
