%TF.GenerationSoftware,Altium Limited,Altium Designer,20.0.13 (296)*%
G04 Layer_Physical_Order=2*
G04 Layer_Color=16711680*
%FSLAX45Y45*%
%MOMM*%
%TF.FileFunction,Copper,L2,Bot,Signal*%
%TF.Part,Single*%
G01*
G75*
%TA.AperFunction,SMDPad,CuDef*%
%ADD11R,2.00000X0.90000*%
%ADD32R,1.47000X1.16000*%
%ADD33R,1.16000X1.47000*%
%TA.AperFunction,Conductor*%
%ADD35C,0.80000*%
%ADD36C,0.25400*%
%ADD38C,0.50000*%
%ADD40C,0.50038*%
%ADD41C,0.40000*%
%ADD46C,0.30000*%
%TA.AperFunction,ComponentPad*%
%ADD47P,2.13263X4X280.0*%
%ADD48C,1.50800*%
%TA.AperFunction,ViaPad*%
%ADD49C,1.52400*%
%TA.AperFunction,ComponentPad*%
G04:AMPARAMS|DCode=50|XSize=1.6mm|YSize=0.6mm|CornerRadius=0mm|HoleSize=0mm|Usage=FLASHONLY|Rotation=135.000|XOffset=0mm|YOffset=0mm|HoleType=Round|Shape=Rectangle|*
%AMROTATEDRECTD50*
4,1,4,0.77782,-0.35356,0.35356,-0.77782,-0.77782,0.35356,-0.35356,0.77782,0.77782,-0.35356,0.0*
%
%ADD50ROTATEDRECTD50*%

%ADD51R,1.50800X1.50800*%
%ADD52R,1.50000X1.50000*%
%ADD53O,1.05000X2.10000*%
%TA.AperFunction,SMDPad,CuDef*%
%ADD54R,0.97000X1.73000*%
%TA.AperFunction,ComponentPad*%
%ADD55R,1.50000X1.50000*%
%ADD56R,1.50000X1.25000*%
%ADD57C,2.10000*%
%ADD58P,2.96985X4X185.0*%
%TA.AperFunction,ViaPad*%
%ADD59C,1.27000*%
%ADD60C,1.01600*%
%TA.AperFunction,SMDPad,CuDef*%
%ADD61R,0.50800X0.50800*%
G04:AMPARAMS|DCode=62|XSize=0.86mm|YSize=0.15mm|CornerRadius=0.0375mm|HoleSize=0mm|Usage=FLASHONLY|Rotation=90.000|XOffset=0mm|YOffset=0mm|HoleType=Round|Shape=RoundedRectangle|*
%AMROUNDEDRECTD62*
21,1,0.86000,0.07500,0,0,90.0*
21,1,0.78500,0.15000,0,0,90.0*
1,1,0.07500,0.03750,0.39250*
1,1,0.07500,0.03750,-0.39250*
1,1,0.07500,-0.03750,-0.39250*
1,1,0.07500,-0.03750,0.39250*
%
%ADD62ROUNDEDRECTD62*%
G04:AMPARAMS|DCode=63|XSize=0.86mm|YSize=0.15mm|CornerRadius=0.0375mm|HoleSize=0mm|Usage=FLASHONLY|Rotation=0.000|XOffset=0mm|YOffset=0mm|HoleType=Round|Shape=RoundedRectangle|*
%AMROUNDEDRECTD63*
21,1,0.86000,0.07500,0,0,0.0*
21,1,0.78500,0.15000,0,0,0.0*
1,1,0.07500,0.39250,-0.03750*
1,1,0.07500,-0.39250,-0.03750*
1,1,0.07500,-0.39250,0.03750*
1,1,0.07500,0.39250,0.03750*
%
%ADD63ROUNDEDRECTD63*%
%ADD64R,1.14000X1.47000*%
%TA.AperFunction,Conductor*%
%ADD65C,0.80000*%
%ADD66C,0.76200*%
%ADD67C,0.17780*%
%ADD68C,0.50800*%
%ADD69C,0.12700*%
%ADD70C,0.20000*%
%ADD71C,0.48260*%
D11*
X11382405Y6781541D02*
D03*
D32*
X10414000Y9968601D02*
D03*
Y9792599D02*
D03*
D33*
X11347821Y9169400D02*
D03*
X11171819D02*
D03*
X10527401Y8026400D02*
D03*
X10351399D02*
D03*
X10527401Y8280400D02*
D03*
X10351399D02*
D03*
D35*
X11973560Y10093960D02*
X12209048Y10329448D01*
X12473188D01*
X9340220Y9570772D02*
X9350015Y9580567D01*
X9476740Y7190740D02*
X9481820Y7185660D01*
X9340220Y6684658D02*
Y9570772D01*
X9350015Y9580567D02*
Y9857668D01*
X9476740Y7190740D02*
Y9514840D01*
X9471660Y9519920D02*
X9476740Y9514840D01*
X9380220Y6631940D02*
Y6644658D01*
X9340220Y6684658D02*
X9380220Y6644658D01*
X9215760Y6539993D02*
X9262229Y6493523D01*
X9215760Y9880652D02*
X9225280Y9890172D01*
X9215760Y6539993D02*
Y9880652D01*
X9262229Y6480805D02*
Y6493523D01*
X9225280Y9890172D02*
Y10157460D01*
X9056370Y11118850D02*
Y11558270D01*
X9055100Y11117580D02*
X9056370Y11118850D01*
Y11558270D02*
X9057640Y11559540D01*
X11015980Y10175240D02*
X11275060D01*
X10640060Y9799320D02*
X11015980Y10175240D01*
X11347821Y9184900D02*
X11365821Y9202900D01*
X11445720D01*
X11689080Y9446260D01*
X11347821Y9169400D02*
Y9184900D01*
X10657840Y6733540D02*
X11015980Y6375400D01*
X10657840Y6733540D02*
Y7371080D01*
X8135620Y7338060D02*
X8458200Y7015480D01*
X8135620Y7338060D02*
Y7578882D01*
X8270240Y8938260D02*
X8465820Y8742680D01*
X8270240Y8938260D02*
Y9250202D01*
X10270399Y8559800D02*
Y8851260D01*
X10243820Y8877838D02*
X10270399Y8851260D01*
X10243820Y8877838D02*
Y9174480D01*
X10270399Y8361401D02*
Y8559800D01*
Y8361401D02*
X10317902Y8313898D01*
X10333401D01*
X10351399Y8295899D01*
Y8280400D02*
Y8295899D01*
X12153900Y5994400D02*
Y6548120D01*
X11823700Y6878320D02*
X12153900Y6548120D01*
X10185400Y5844540D02*
Y6014720D01*
Y5844540D02*
X10294620Y5735320D01*
X12278360D01*
X12640427Y6097387D01*
Y6480917D01*
D36*
X10640060Y9799320D02*
Y9911080D01*
X10582539Y9968601D02*
X10640060Y9911080D01*
X10414000Y9968601D02*
X10582539D01*
X10924540Y9171940D02*
X11169279D01*
X11171819Y9169400D01*
X10353203Y9731802D02*
Y9747301D01*
X10398501Y9792599D01*
X10414000D01*
X10516799Y9220601D02*
X10629798Y9333601D01*
Y9423400D01*
X10424160Y9268460D02*
X10465999Y9226621D01*
X10424160Y9268460D02*
Y9420758D01*
X10426802Y9423400D01*
D38*
X8661400Y6404193D02*
Y9210040D01*
X9101379Y6425641D02*
Y10638020D01*
Y6425641D02*
X9253479Y6273541D01*
X10261600Y10160000D02*
X10591800D01*
X8446511Y6189304D02*
X8661400Y6404193D01*
X11171819Y9169400D02*
Y9292961D01*
X11037783Y9426997D02*
X11171819Y9292961D01*
X10811398Y9426997D02*
X11037783D01*
X10807802Y9423400D02*
X10811398Y9426997D01*
X10351399Y8026400D02*
Y8280400D01*
X10086340Y7130821D02*
X10087905Y7135541D01*
X10086340Y7130821D02*
Y8587740D01*
X9632081Y9041999D02*
X10086340Y8587740D01*
X9632081Y9041999D02*
Y9530481D01*
X10261600Y10160000D01*
D40*
X11008360Y9697720D02*
Y9776460D01*
Y9697720D02*
X11358880Y9347200D01*
D41*
X9745980Y9403080D02*
X9916160D01*
X9936480Y9423400D01*
X10248798D01*
Y9627403D01*
X10353203Y9731802D01*
D46*
X10286619Y9174480D02*
X10394498Y9066601D01*
X10397500D01*
X10243820Y9174480D02*
X10286619D01*
X10397500Y9016599D02*
Y9066601D01*
X10871200Y6713220D02*
Y8727440D01*
X10826887Y8771753D02*
X10871200Y8727440D01*
X10692348Y8771753D02*
X10826887D01*
X10616001Y8848100D02*
X10692348Y8771753D01*
X10684500Y9016599D02*
X11123061D01*
X11681440Y6731000D02*
X11694160D01*
X11109960Y6868160D02*
Y8755380D01*
X10948741Y8916599D02*
X11109960Y8755380D01*
X10684500Y8916599D02*
X10948741D01*
D47*
X12640427Y6480917D02*
D03*
D48*
X12783820Y6685707D02*
D03*
X12830998Y9067800D02*
D03*
X12834082Y8238058D02*
D03*
X12830998Y7391400D02*
D03*
X7950738Y9067800D02*
D03*
X7950200Y8232140D02*
D03*
X7955280Y7386320D02*
D03*
D49*
X11574780Y11650980D02*
D03*
D50*
X8320136Y10679796D02*
D03*
X8409940Y10769600D02*
D03*
X8499744Y10859404D02*
D03*
X8589543Y10949203D02*
D03*
X8679348Y11039008D02*
D03*
X8769152Y11128812D02*
D03*
X8230321Y10589981D02*
D03*
X8142331Y10501991D02*
D03*
D51*
X13081000Y9067800D02*
D03*
X13084077Y8238058D02*
D03*
X13081000Y7391400D02*
D03*
X7700742Y9067800D02*
D03*
X7700198Y8232140D02*
D03*
X7705278Y7386320D02*
D03*
D52*
X8458200Y7015480D02*
D03*
D53*
X10572760Y11714998D02*
D03*
X11287760D02*
D03*
D54*
X10270399Y8559800D02*
D03*
X10566400D02*
D03*
D55*
X8953500Y5999480D02*
D03*
D56*
X9374480Y5742280D02*
D03*
D57*
X8063489Y6510696D02*
D03*
D58*
X8446511Y6189304D02*
D03*
D59*
X8790331Y5737156D02*
D03*
X9101379Y10638020D02*
D03*
X8775700Y10777220D02*
D03*
X11973560Y10093960D02*
D03*
X12473188Y10329448D02*
D03*
X9471660Y9519920D02*
D03*
X9481820Y7185660D02*
D03*
X9350015Y9857668D02*
D03*
X9380220Y6631940D02*
D03*
X9225280Y10157460D02*
D03*
X9253479Y6273541D02*
D03*
X9262229Y6480805D02*
D03*
X9057640Y11559540D02*
D03*
X9055100Y11117580D02*
D03*
X11275060Y10175240D02*
D03*
X10591800Y10160000D02*
D03*
X11689080Y9446260D02*
D03*
X11008360Y9776460D02*
D03*
X10657840Y7371080D02*
D03*
X10871200Y6713220D02*
D03*
X11681440Y6731000D02*
D03*
X11112500Y6855460D02*
D03*
X10640060Y9799320D02*
D03*
X10403840Y7769860D02*
D03*
X8135620Y7578882D02*
D03*
X8465820Y8742680D02*
D03*
X8270240Y9250202D02*
D03*
X10924540Y9171940D02*
D03*
X9745980Y9403080D02*
D03*
X10243820Y9174480D02*
D03*
X12153900Y5994400D02*
D03*
X11823700Y6878320D02*
D03*
X11358880Y9347200D02*
D03*
X10185400Y6014720D02*
D03*
D60*
X8661400Y9210040D02*
D03*
X11015980Y6375400D02*
D03*
D61*
X10541000Y8991600D02*
D03*
D62*
X10616001Y8848100D02*
D03*
X10565999D02*
D03*
X10516001D02*
D03*
X10465999Y9135100D02*
D03*
X10516001D02*
D03*
X10565999D02*
D03*
X10616001D02*
D03*
D63*
X10397500Y8916599D02*
D03*
Y8966601D02*
D03*
Y9016599D02*
D03*
Y9066601D02*
D03*
X10684500D02*
D03*
Y9016599D02*
D03*
Y8966601D02*
D03*
Y8916599D02*
D03*
D64*
X10248798Y9423400D02*
D03*
X10426802D02*
D03*
X10807802D02*
D03*
X10629798D02*
D03*
D65*
X8783016Y5744471D02*
X8790331Y5737156D01*
X8783016Y5744471D02*
Y10769904D01*
X8775700Y10777220D02*
X8783016Y10769904D01*
D66*
X10436860Y8455660D02*
X10522366Y8370154D01*
X10403840Y7769860D02*
X10527401Y7893421D01*
Y8026400D01*
Y8280400D01*
X10436860Y8455660D02*
Y8646160D01*
D67*
X10522366Y8285435D02*
Y8370154D01*
Y8285435D02*
X10527401Y8280400D01*
X10516001Y8725301D02*
Y8848100D01*
X10565999D01*
D68*
X11694160Y6731000D02*
Y8445500D01*
X10436860Y8646160D02*
X10516001Y8725301D01*
D69*
X10565999Y8903351D02*
X10629783Y8967135D01*
X10609580Y8987338D02*
X10629783Y8967135D01*
X10565999Y8848100D02*
Y8903351D01*
X10609580Y8987338D02*
Y9044940D01*
X10683966Y8967135D02*
X10684500Y8966601D01*
X10629783Y8967135D02*
X10683966D01*
X10565999Y9088521D02*
X10609580Y9044940D01*
X10565999Y9088521D02*
Y9135100D01*
D70*
X10516001D02*
Y9219799D01*
X10516799Y9220601D01*
X10465999Y9135100D02*
Y9226621D01*
D71*
X11123061Y9016599D02*
X11694160Y8445500D01*
%TF.MD5,ece56ce05dc8aca9d05d422e75aa1715*%
M02*
