%TF.GenerationSoftware,Altium Limited,Altium Designer,20.0.13 (296)*%
G04 Layer_Color=8421504*
%FSLAX45Y45*%
%MOMM*%
%TF.FileFunction,Paste,Top*%
%TF.Part,Single*%
G01*
G75*
%TA.AperFunction,SMDPad,CuDef*%
%ADD10R,1.10000X1.00000*%
%TA.AperFunction,ConnectorPad*%
%ADD11R,1.15000X1.45000*%
%ADD12R,1.10000X1.45000*%
%ADD13R,1.75000X1.90000*%
%ADD14R,0.30000X1.40000*%
%ADD15R,0.40000X1.40000*%
%ADD16R,0.30600X1.40000*%
%TA.AperFunction,SMDPad,CuDef*%
G04:AMPARAMS|DCode=18|XSize=1.97mm|YSize=0.6mm|CornerRadius=0.075mm|HoleSize=0mm|Usage=FLASHONLY|Rotation=0.000|XOffset=0mm|YOffset=0mm|HoleType=Round|Shape=RoundedRectangle|*
%AMROUNDEDRECTD18*
21,1,1.97000,0.45000,0,0,0.0*
21,1,1.82000,0.60000,0,0,0.0*
1,1,0.15000,0.91000,-0.22500*
1,1,0.15000,-0.91000,-0.22500*
1,1,0.15000,-0.91000,0.22500*
1,1,0.15000,0.91000,0.22500*
%
%ADD18ROUNDEDRECTD18*%
G04:AMPARAMS|DCode=19|XSize=0.94mm|YSize=1.02mm|CornerRadius=0.094mm|HoleSize=0mm|Usage=FLASHONLY|Rotation=0.000|XOffset=0mm|YOffset=0mm|HoleType=Round|Shape=RoundedRectangle|*
%AMROUNDEDRECTD19*
21,1,0.94000,0.83200,0,0,0.0*
21,1,0.75200,1.02000,0,0,0.0*
1,1,0.18800,0.37600,-0.41600*
1,1,0.18800,-0.37600,-0.41600*
1,1,0.18800,-0.37600,0.41600*
1,1,0.18800,0.37600,0.41600*
%
%ADD19ROUNDEDRECTD19*%
G04:AMPARAMS|DCode=20|XSize=0.94mm|YSize=1.02mm|CornerRadius=0.094mm|HoleSize=0mm|Usage=FLASHONLY|Rotation=90.000|XOffset=0mm|YOffset=0mm|HoleType=Round|Shape=RoundedRectangle|*
%AMROUNDEDRECTD20*
21,1,0.94000,0.83200,0,0,90.0*
21,1,0.75200,1.02000,0,0,90.0*
1,1,0.18800,0.41600,0.37600*
1,1,0.18800,0.41600,-0.37600*
1,1,0.18800,-0.41600,-0.37600*
1,1,0.18800,-0.41600,0.37600*
%
%ADD20ROUNDEDRECTD20*%
G36*
X14629005Y8858953D02*
X14500005D01*
Y9022954D01*
X14629005D01*
Y8858953D01*
D02*
G37*
G36*
X14631400Y10319300D02*
X14502400D01*
Y10483300D01*
X14631400D01*
Y10319300D01*
D02*
G37*
G36*
X14644099Y11627400D02*
X14515100D01*
Y11791400D01*
X14644099D01*
Y11627400D01*
D02*
G37*
D10*
X15286899Y11976100D02*
D03*
X15116901D02*
D03*
X15286899Y12141200D02*
D03*
X15116901D02*
D03*
X15058299Y9804400D02*
D03*
X14888301D02*
D03*
X15058299Y9588500D02*
D03*
X14888301D02*
D03*
X14474100Y9791700D02*
D03*
X14304102D02*
D03*
X14474100Y9575800D02*
D03*
X14304102D02*
D03*
D11*
X14334901Y12322901D02*
D03*
D12*
X14798898D02*
D03*
D13*
X14454398Y12545898D02*
D03*
X14679402D02*
D03*
D14*
X14436897Y12280900D02*
D03*
X14501901D02*
D03*
D15*
X14566901D02*
D03*
X14696902D02*
D03*
D16*
X14631898D02*
D03*
D18*
X14827098Y11899900D02*
D03*
Y11772900D02*
D03*
Y11645900D02*
D03*
Y11518900D02*
D03*
X14332101D02*
D03*
Y11645900D02*
D03*
Y11772900D02*
D03*
Y11899900D02*
D03*
X14812003Y9131453D02*
D03*
Y9004453D02*
D03*
Y8877453D02*
D03*
Y8750453D02*
D03*
X14317007D02*
D03*
Y8877453D02*
D03*
Y9004453D02*
D03*
Y9131453D02*
D03*
X14814398Y10591800D02*
D03*
Y10464800D02*
D03*
Y10337800D02*
D03*
Y10210800D02*
D03*
X14319402D02*
D03*
Y10337800D02*
D03*
Y10464800D02*
D03*
Y10591800D02*
D03*
D19*
X15122900Y11772900D02*
D03*
X15280899D02*
D03*
X15122900Y11569700D02*
D03*
X15280899D02*
D03*
X15173701Y9004300D02*
D03*
X15331699D02*
D03*
X15173701Y8801100D02*
D03*
X15331699D02*
D03*
X15110201Y10350500D02*
D03*
X15268199D02*
D03*
X15110201Y10541000D02*
D03*
X15268199D02*
D03*
D20*
X14071600Y11617701D02*
D03*
Y11775699D02*
D03*
X14046201Y8849101D02*
D03*
Y9007099D02*
D03*
X14008099Y10309601D02*
D03*
Y10467599D02*
D03*
%TF.MD5,353f22e137e6eec0263a05ee7bba8639*%
M02*
