%TF.GenerationSoftware,Altium Limited,Altium Designer,20.0.13 (296)*%
G04 Layer_Physical_Order=1*
G04 Layer_Color=255*
%FSLAX45Y45*%
%MOMM*%
%TF.FileFunction,Copper,L1,Top,Signal*%
%TF.Part,Single*%
G01*
G75*
%TA.AperFunction,SMDPad,CuDef*%
%ADD10R,1.10000X1.00000*%
%ADD11R,2.41300X3.30200*%
G04:AMPARAMS|DCode=12|XSize=1.97mm|YSize=0.6mm|CornerRadius=0.075mm|HoleSize=0mm|Usage=FLASHONLY|Rotation=0.000|XOffset=0mm|YOffset=0mm|HoleType=Round|Shape=RoundedRectangle|*
%AMROUNDEDRECTD12*
21,1,1.97000,0.45000,0,0,0.0*
21,1,1.82000,0.60000,0,0,0.0*
1,1,0.15000,0.91000,-0.22500*
1,1,0.15000,-0.91000,-0.22500*
1,1,0.15000,-0.91000,0.22500*
1,1,0.15000,0.91000,0.22500*
%
%ADD12ROUNDEDRECTD12*%
G04:AMPARAMS|DCode=13|XSize=0.94mm|YSize=1.02mm|CornerRadius=0.094mm|HoleSize=0mm|Usage=FLASHONLY|Rotation=0.000|XOffset=0mm|YOffset=0mm|HoleType=Round|Shape=RoundedRectangle|*
%AMROUNDEDRECTD13*
21,1,0.94000,0.83200,0,0,0.0*
21,1,0.75200,1.02000,0,0,0.0*
1,1,0.18800,0.37600,-0.41600*
1,1,0.18800,-0.37600,-0.41600*
1,1,0.18800,-0.37600,0.41600*
1,1,0.18800,0.37600,0.41600*
%
%ADD13ROUNDEDRECTD13*%
G04:AMPARAMS|DCode=14|XSize=0.94mm|YSize=1.02mm|CornerRadius=0.094mm|HoleSize=0mm|Usage=FLASHONLY|Rotation=90.000|XOffset=0mm|YOffset=0mm|HoleType=Round|Shape=RoundedRectangle|*
%AMROUNDEDRECTD14*
21,1,0.94000,0.83200,0,0,90.0*
21,1,0.75200,1.02000,0,0,90.0*
1,1,0.18800,0.41600,0.37600*
1,1,0.18800,0.41600,-0.37600*
1,1,0.18800,-0.41600,-0.37600*
1,1,0.18800,-0.41600,0.37600*
%
%ADD14ROUNDEDRECTD14*%
%TA.AperFunction,Conductor*%
%ADD15C,0.50000*%
%TA.AperFunction,ComponentPad*%
%ADD16R,1.50000X1.50000*%
%ADD17R,1.50000X1.50000*%
%TA.AperFunction,ViaPad*%
%ADD18C,1.27000*%
%ADD19C,2.50000*%
D10*
X15337698Y11976100D02*
D03*
X15167702D02*
D03*
X15337698Y12141200D02*
D03*
X15167702D02*
D03*
X15032899Y6383401D02*
D03*
X14862901D02*
D03*
X15020200Y5634101D02*
D03*
X14850201D02*
D03*
X14448698Y6370701D02*
D03*
X14278700D02*
D03*
X14435999Y5621401D02*
D03*
X14266000D02*
D03*
D11*
X14630400Y11709400D02*
D03*
X14539107Y3881653D02*
D03*
X14617700Y10401300D02*
D03*
D12*
X14877898Y11899900D02*
D03*
Y11772900D02*
D03*
Y11645900D02*
D03*
Y11518900D02*
D03*
X14382903D02*
D03*
Y11645900D02*
D03*
Y11772900D02*
D03*
Y11899900D02*
D03*
X14786604Y4072153D02*
D03*
Y3945153D02*
D03*
Y3818153D02*
D03*
Y3691153D02*
D03*
X14291611D02*
D03*
Y3818153D02*
D03*
Y3945153D02*
D03*
Y4072153D02*
D03*
X14865198Y10591800D02*
D03*
Y10464800D02*
D03*
Y10337800D02*
D03*
Y10210800D02*
D03*
X14370203D02*
D03*
Y10337800D02*
D03*
Y10464800D02*
D03*
Y10591800D02*
D03*
D13*
X15173701Y11772900D02*
D03*
X15331699D02*
D03*
X15173701Y11569700D02*
D03*
X15331699D02*
D03*
X15148302Y3945001D02*
D03*
X15306299D02*
D03*
X15148302Y3741801D02*
D03*
X15306299D02*
D03*
X15161002Y10350500D02*
D03*
X15318999D02*
D03*
X15161002Y10541000D02*
D03*
X15318999D02*
D03*
D14*
X14122400Y11617701D02*
D03*
Y11775699D02*
D03*
X14020799Y3789802D02*
D03*
Y3947800D02*
D03*
X14058900Y10309601D02*
D03*
Y10467599D02*
D03*
D15*
X13893800Y10148501D02*
X14054900Y10309601D01*
X13893800Y4673676D02*
Y10148501D01*
X14033501Y5471958D02*
X14173997Y5331460D01*
X14033501Y6832600D02*
X15318999Y8118099D01*
X14033501Y5471958D02*
Y6832600D01*
X14145261Y5537200D02*
X14196060Y5486400D01*
X14145261Y5537200D02*
Y6659870D01*
X15417799Y7932410D01*
X14032899Y10309601D02*
X14058900D01*
X13985500D02*
X14032899D01*
X14020799Y3789802D02*
X14140179D01*
X13859590D02*
X14020799D01*
X13652499Y4432376D02*
X13893800Y4673676D01*
X13830299Y3819091D02*
X13859590Y3789802D01*
X14122400Y10591800D02*
X14142720D01*
X13859590Y4072153D02*
X14012723D01*
X14051280Y11877040D02*
X14075600Y11878716D01*
X13830299Y3819091D02*
Y4042864D01*
X13859590Y4072153D01*
X13982700Y10591800D02*
X14122400D01*
X14075600Y11878716D02*
X14382903Y11899900D01*
X14051280Y11877040D02*
X14074139Y11899900D01*
X14020799Y11846560D02*
X14051280Y11877040D01*
X14932660Y10591800D02*
Y10701020D01*
X14795500Y10160000D02*
Y10210800D01*
X14744701Y3546678D02*
Y3691153D01*
X14876781Y11480800D02*
Y11518900D01*
X13652499Y11925300D02*
X14051280Y11877040D01*
X14274800Y12008002D02*
Y12446000D01*
Y12008002D02*
X14382903Y11899900D01*
X14865198Y10591800D02*
X14932660D01*
Y10701020D02*
X15204440Y10972800D01*
X15735300D01*
X15786099Y11023600D01*
Y11958320D01*
X15483839Y12260580D02*
X15786099Y11958320D01*
X15236281Y12260580D02*
X15483839D01*
X15167702Y12192000D02*
X15236281Y12260580D01*
X15167702Y12141200D02*
Y12192000D01*
X14833600Y11944198D02*
Y12458700D01*
Y11944198D02*
X14877898Y11899900D01*
X14850201Y4135750D02*
Y5634101D01*
X14786604Y4072153D02*
X14850201Y4135750D01*
X15318999Y8118099D02*
Y10350500D01*
X14173997Y5331460D02*
X14427200D01*
X14541499Y5445760D01*
Y6370701D01*
X14448698D02*
X14541499D01*
X14266000Y5621401D02*
Y5689600D01*
X14278700Y5702300D01*
Y6370701D01*
X14435999Y5543459D02*
Y5621401D01*
X14378940Y5486400D02*
X14435999Y5543459D01*
X14196060Y5486400D02*
X14378940D01*
X15417799Y7932410D02*
Y10515600D01*
X15392400Y10541000D02*
X15417799Y10515600D01*
X15318999Y10541000D02*
X15392400D01*
X14862901Y6606540D02*
X15135860Y6879499D01*
X14862901Y6383401D02*
Y6606540D01*
X14278700Y6370701D02*
Y6426200D01*
X14324422Y6471920D01*
X14714220D01*
X14802739Y6383401D01*
X14862901D01*
X14226799Y10337800D02*
X14370203D01*
X14198599Y10309601D02*
X14226799Y10337800D01*
X14058900Y10309601D02*
X14198599D01*
X14795500Y10210800D02*
X14865198D01*
X14688820Y10053320D02*
X14795500Y10160000D01*
X14521181Y10053320D02*
X14688820D01*
X15331699Y11569700D02*
X15438120D01*
X15565120Y11696700D01*
Y12019280D01*
X15443201Y12141200D02*
X15565120Y12019280D01*
X15337698Y12141200D02*
X15443201D01*
X14046201Y11617701D02*
X14122400D01*
X14020799Y11643101D02*
X14046201Y11617701D01*
X14020799Y11643101D02*
Y11846560D01*
X14074139Y11899900D02*
X14382903D01*
X14122400Y10612120D02*
Y11617701D01*
Y10612120D02*
X14142720Y10591800D01*
X14370203D01*
X13957300Y10337800D02*
X13985500Y10309601D01*
X13957300Y10337800D02*
Y10566400D01*
X13982700Y10591800D01*
X14012723Y4072153D02*
X14291611D01*
X13652499Y4432376D02*
X14012723Y4072153D01*
X15659100Y11125200D02*
Y11206480D01*
X15544800Y11320780D02*
X15659100Y11206480D01*
X15036800Y11320780D02*
X15544800D01*
X14876781Y11480800D02*
X15036800Y11320780D01*
X14876781Y11518900D02*
X14877898D01*
X14744701Y3691153D02*
X14786604D01*
X14630400Y3432378D02*
X14744701Y3546678D01*
X13652499Y3432378D02*
X14630400D01*
X15306299Y3741801D02*
X15367000D01*
X15405099Y3779901D01*
Y5878739D01*
X15032899Y6250940D02*
X15405099Y5878739D01*
X15032899Y6250940D02*
Y6383401D01*
X15306299Y3945001D02*
Y4071361D01*
X15020200Y4357461D02*
X15306299Y4071361D01*
X15020200Y4357461D02*
Y5634101D01*
X14168530Y3818153D02*
X14291611D01*
X14140179Y3789802D02*
X14168530Y3818153D01*
X14264899Y11645900D02*
X14382903D01*
X14236700Y11617701D02*
X14264899Y11645900D01*
X14122400Y11617701D02*
X14236700D01*
X15059660Y11976100D02*
X15167702D01*
X14983459Y11899900D02*
X15059660Y11976100D01*
X14877898Y11899900D02*
X14983459D01*
X15167702Y11976100D02*
Y12141200D01*
X14862901Y6014720D02*
Y6383401D01*
X14850201Y6002020D02*
X14862901Y6014720D01*
X14850201Y5634101D02*
Y6002020D01*
X15003932Y3741801D02*
X15148302D01*
X14927580Y3818153D02*
X15003932Y3741801D01*
X14786604Y3818153D02*
X14927580D01*
X14965833Y3945001D02*
X15148302D01*
X14965680Y3945153D02*
X14965833Y3945001D01*
X14786604Y3945153D02*
X14965680D01*
X14155527D02*
X14291611D01*
X14152879Y3947800D02*
X14155527Y3945153D01*
X14020799Y3947800D02*
X14152879D01*
X15019020Y10350500D02*
X15161002D01*
X15006320Y10337800D02*
X15019020Y10350500D01*
X14865198Y10337800D02*
X15006320D01*
X15049500Y10541000D02*
X15161002D01*
X14973300Y10464800D02*
X15049500Y10541000D01*
X14865198Y10464800D02*
X14973300D01*
X14214099D02*
X14370203D01*
X14211301Y10467599D02*
X14214099Y10464800D01*
X14058900Y10467599D02*
X14211301D01*
X15337698Y11875419D02*
Y11976100D01*
X15331699Y11869420D02*
X15337698Y11875419D01*
X15331699Y11772900D02*
Y11869420D01*
X15062199Y11569700D02*
X15173701D01*
X14986000Y11645900D02*
X15062199Y11569700D01*
X14877898Y11645900D02*
X14986000D01*
X14877898Y11772900D02*
X15173701D01*
X14252199D02*
X14382903D01*
X14249400Y11775699D02*
X14252199Y11772900D01*
X14122400Y11775699D02*
X14249400D01*
D16*
X14833600Y12458700D02*
D03*
X14274800Y12446000D02*
D03*
X15659100Y11125200D02*
D03*
Y10706100D02*
D03*
D17*
X13652499Y10922000D02*
D03*
Y3432378D02*
D03*
Y11925300D02*
D03*
Y4432376D02*
D03*
D18*
X15135860Y6879499D02*
D03*
X14521181Y10053320D02*
D03*
D19*
X15621001Y2000001D02*
D03*
X13589000D02*
D03*
X15621001Y12433300D02*
D03*
X13589000D02*
D03*
Y7500000D02*
D03*
X15621001D02*
D03*
%TF.MD5,50d20f2ea506bf84ed3b893e32da7397*%
M02*
