%TF.GenerationSoftware,Altium Limited,Altium Designer,20.0.13 (296)*%
G04 Layer_Physical_Order=2*
G04 Layer_Color=16711680*
%FSLAX45Y45*%
%MOMM*%
%TF.FileFunction,Copper,L2,Bot,Signal*%
%TF.Part,Single*%
G01*
G75*
%TA.AperFunction,Conductor*%
%ADD15C,0.50000*%
%TA.AperFunction,ComponentPad*%
%ADD16R,1.50000X1.50000*%
%ADD17R,1.50000X1.50000*%
%TA.AperFunction,ViaPad*%
%ADD18C,1.27000*%
%ADD19C,2.50000*%
D15*
X14833600Y12458700D02*
X15786099Y11506200D01*
Y10551160D02*
Y11506200D01*
X15422881Y10187940D02*
X15786099Y10551160D01*
X15422881Y7166519D02*
Y10187940D01*
X15135860Y6879499D02*
X15422881Y7166519D01*
X13652499Y10922000D02*
X14521181Y10053320D01*
X13652499Y11925300D02*
X14439900D01*
X15659100Y10706100D01*
D16*
X14833600Y12458700D02*
D03*
X14274800Y12446000D02*
D03*
X15659100Y11125200D02*
D03*
Y10706100D02*
D03*
D17*
X13652499Y10922000D02*
D03*
Y3432378D02*
D03*
Y11925300D02*
D03*
Y4432376D02*
D03*
D18*
X15135860Y6879499D02*
D03*
X14521181Y10053320D02*
D03*
D19*
X15621001Y2000001D02*
D03*
X13589000D02*
D03*
X15621001Y12433300D02*
D03*
X13589000D02*
D03*
Y7500000D02*
D03*
X15621001D02*
D03*
%TF.MD5,a59c6fce2e8317f59499e11e177ed5f6*%
M02*
