%TF.GenerationSoftware,Altium Limited,Altium Designer,20.0.13 (296)*%
G04 Layer_Color=65535*
%FSLAX45Y45*%
%MOMM*%
%TF.FileFunction,Legend,Top*%
%TF.Part,Single*%
G01*
G75*
%TA.AperFunction,NonConductor*%
%ADD18C,0.20000*%
%ADD19C,0.25000*%
%ADD20C,0.25400*%
%ADD21C,0.12700*%
D18*
X12835600Y9306400D02*
G03*
X12835600Y9306400I-10000J0D01*
G01*
X13357700Y8496300D02*
G03*
X13357700Y8496300I-10000J0D01*
G01*
X13982401Y8750000D02*
Y9030000D01*
Y8750000D02*
X14262399D01*
Y9030000D01*
X13982401D02*
X14262399D01*
X12356800Y11379500D02*
X12636800D01*
Y11099500D02*
Y11379500D01*
X12356800Y11099500D02*
X12636800D01*
X12356800D02*
Y11379500D01*
X11988500Y11112800D02*
X12268500D01*
Y10832800D02*
Y11112800D01*
X11988500Y10832800D02*
X12268500D01*
X11988500D02*
Y11112800D01*
X13601401Y8419800D02*
Y8699800D01*
Y8419800D02*
X13881400D01*
Y8699800D01*
X13601401D02*
X13881400D01*
X12217100Y8343600D02*
Y8623600D01*
Y8343600D02*
X12497100D01*
Y8623600D01*
X12217100D02*
X12497100D01*
X11848800Y8699200D02*
Y8979200D01*
Y8699200D02*
X12128800D01*
Y8979200D01*
X11848800D02*
X12128800D01*
D19*
X14134900Y9095000D02*
G03*
X14134900Y9095000I-12500J0D01*
G01*
X12509300Y11444500D02*
G03*
X12509300Y11444500I-12500J0D01*
G01*
X12141000Y11177800D02*
G03*
X12141000Y11177800I-12500J0D01*
G01*
X13753900Y8764800D02*
G03*
X13753900Y8764800I-12500J0D01*
G01*
X12369600Y8688600D02*
G03*
X12369600Y8688600I-12500J0D01*
G01*
X12001300Y9044200D02*
G03*
X12001300Y9044200I-12500J0D01*
G01*
D20*
X14757401Y9867900D02*
G03*
X14757401Y9867900I-1752600J0D01*
G01*
D21*
X12755601Y10231399D02*
X13355598D01*
Y9631401D02*
Y10231399D01*
X12755601Y9631401D02*
X13355598D01*
X12755601D02*
Y10231399D01*
X12805598Y8487598D02*
X13305602D01*
X12805598Y8987602D02*
X13305602D01*
X14202876Y9127060D02*
X14194414Y9135524D01*
X14177486D01*
X14169022Y9127060D01*
Y9093204D01*
X14177486Y9084740D01*
X14194414D01*
X14202876Y9093204D01*
Y9110132D01*
X14185950D01*
X14219804Y9084740D02*
Y9135524D01*
X14253661Y9084740D01*
Y9135524D01*
X14270589D02*
Y9084740D01*
X14295981D01*
X14304443Y9093204D01*
Y9127060D01*
X14295981Y9135524D01*
X14270589D01*
X14321371Y9076276D02*
X14355228D01*
X14397548Y9135524D02*
X14380620D01*
X14372156Y9127060D01*
Y9093204D01*
X14380620Y9084740D01*
X14397548D01*
X14406010Y9093204D01*
Y9127060D01*
X14397548Y9135524D01*
X14422939D02*
Y9093204D01*
X14431403Y9084740D01*
X14448331D01*
X14456795Y9093204D01*
Y9135524D01*
X14473723D02*
X14507578D01*
X14490649D01*
Y9084740D01*
X12720320Y9128743D02*
Y9077960D01*
X12754176D01*
X12804959Y9128743D02*
X12771103D01*
Y9077960D01*
X12804959D01*
X12771103Y9103352D02*
X12788031D01*
X12821887Y9128743D02*
Y9077960D01*
X12847279D01*
X12855743Y9086424D01*
Y9120280D01*
X12847279Y9128743D01*
X12821887D01*
X13512801Y9986428D02*
X13504337Y9994892D01*
X13487408D01*
X13478944Y9986428D01*
Y9977964D01*
X13487408Y9969500D01*
X13504337D01*
X13512801Y9961036D01*
Y9952572D01*
X13504337Y9944108D01*
X13487408D01*
X13478944Y9952572D01*
X13529729Y9944108D02*
X13546655D01*
X13538193D01*
Y9994892D01*
X13529729Y9986428D01*
X12098881Y10744208D02*
Y10794992D01*
X12124272D01*
X12132736Y10786528D01*
Y10769600D01*
X12124272Y10761136D01*
X12098881D01*
X12149664Y10769600D02*
X12183520D01*
X12454481Y10972808D02*
Y11023592D01*
X12479872D01*
X12488336Y11015128D01*
Y10998200D01*
X12479872Y10989736D01*
X12454481D01*
X12505264Y10998200D02*
X12539120D01*
X12522192Y11015128D02*
Y10981272D01*
X11885496Y9183780D02*
X11877032Y9192243D01*
X11860104D01*
X11851640Y9183780D01*
Y9149924D01*
X11860104Y9141460D01*
X11877032D01*
X11885496Y9149924D01*
Y9166852D01*
X11868568D01*
X11902423Y9141460D02*
Y9192243D01*
X11936279Y9141460D01*
Y9192243D01*
X11953207D02*
Y9141460D01*
X11978599D01*
X11987063Y9149924D01*
Y9183780D01*
X11978599Y9192243D01*
X11953207D01*
X12003990Y9132996D02*
X12037846D01*
X12054774Y9192243D02*
X12071702D01*
X12063238D01*
Y9141460D01*
X12054774D01*
X12071702D01*
X12097094D02*
Y9192243D01*
X12130949Y9141460D01*
Y9192243D01*
X13604240Y8905223D02*
Y8854440D01*
X13629633D01*
X13638097Y8862904D01*
Y8896760D01*
X13629633Y8905223D01*
X13604240D01*
X13680415D02*
X13663487D01*
X13655023Y8896760D01*
Y8862904D01*
X13663487Y8854440D01*
X13680415D01*
X13688879Y8862904D01*
Y8896760D01*
X13680415Y8905223D01*
X13705807D02*
Y8862904D01*
X13714272Y8854440D01*
X13731200D01*
X13739664Y8862904D01*
Y8905223D01*
X13756590D02*
X13790446D01*
X13773518D01*
Y8854440D01*
X12219940Y8829023D02*
Y8778240D01*
X12245332D01*
X12253796Y8786704D01*
Y8820560D01*
X12245332Y8829023D01*
X12219940D01*
X12270723D02*
X12287651D01*
X12279188D01*
Y8778240D01*
X12270723D01*
X12287651D01*
X12313043D02*
Y8829023D01*
X12346899Y8778240D01*
Y8829023D01*
X13631328Y9276529D02*
X13622864Y9284992D01*
X13605936D01*
X13597472Y9276529D01*
Y9242673D01*
X13605936Y9234209D01*
X13622864D01*
X13631328Y9242673D01*
%TF.MD5,f617b7a8b32d6f5b1743e78192cc1b88*%
M02*
