M48
;Layer_Color=9474304
;FILE_FORMAT=4:4
METRIC,LZ
;TYPE=PLATED
T2F00S00C0.5080
T3F00S00C0.5588
T4F00S00C0.7112
T5F00S00C0.7620
T6F00S00C0.9000
T7F00S00C1.0000
T8F00S00C1.4000
;TYPE=NON_PLATED
T9F00S00C0.9000
T10F00S00C2.5000
%
T02
X00814233Y01050199
X00823032Y01058998
X00832014Y0106798
X00840994Y0107696
X00849974Y0108594
X00858954Y0109492
X00867935Y01103901
X00876915Y01112881
T03
X01101598Y0063754
T04
X0121539Y0059944
X01168144Y006731
X0118237Y00687832
X0111125Y00685546
X0108712Y00671322
X01065784Y00737108
X01040384Y00776986
X00948182Y00718566
X00938022Y00663194
X00926223Y00648081
X00925348Y00627354
X00879033Y00573716
X0101854Y00601472
X00813562Y00757888
X00846582Y00874268
X0086614Y00921004
X00827024Y0092502
X00947166Y00951992
X00974598Y00940308
X01024382Y00917448
X01092454Y00917194
X01135888Y0093472
X01168908Y00944626
X01100836Y00977646
X01064006Y00979932
X0105918Y01016
X01127506Y01017524
X00922528Y01015746
X00935002Y00985767
X00910138Y01063802
X0087757Y01077722
X0090551Y01111758
X00905764Y01155954
X01197356Y01009396
X01247319Y01032945
T05
X01157478Y01165098
T06
X0089535Y00599948
X00937448Y00574228
X0084582Y00701548
T07
X01264043Y00648092
X01278382Y00668571
X012831Y0073914
X013081
X00795528Y00738632
X00770528
X0077002Y00823214
X00770074Y0090678
X00795074
X0079502Y00823214
X01283408Y00823806
X01308408
X013081Y0090678
X012831
T08
X00806349Y0065107
X00844651Y0061893
T09
X01357317Y01134834
X01300748Y01191402
T10
X01353566Y00696214
Y00696468
X0104648Y00752602
X00727456Y00697714
Y0093345
X01050798Y01078738
X01353058Y00933704
M30
