M48
;Layer_Color=9474304
;FILE_FORMAT=4:4
METRIC,LZ
;TYPE=PLATED
T1F00S00C0.1000
T3F00S00C0.5000
T4F00S00C0.5080
T5F00S00C0.7112
T6F00S00C0.7620
T7F00S00C0.9000
T8F00S00C1.0000
T9F00S00C1.4000
;TYPE=NON_PLATED
T10F00S00C0.9000
T11F00S00C2.5000
%
T01
X01023874Y00913638
T03
X0118237Y00687832
T04
X00814233Y01050199
X00823032Y01058998
X00832014Y0106798
X00840994Y0107696
X00849974Y0108594
X00858954Y01094921
X00867935Y01103901
X00876915Y01112881
T05
X0121539Y0059944
X01169416Y006731
X0111125Y00686816
X01087374Y00671322
X01103747Y00640052
X00932458Y00640834
X00925348Y00627354
X00934356Y00661018
X00947246Y00700532
X00882904Y0056515
X0086614Y00921004
X00946912Y00950976
X00974598Y00940308
X00934981Y00983241
X00920385Y01016762
X0105918Y01016
X01100836Y00977646
X01092454Y00917194
X01135888Y0093472
X01067054Y0083947
X01199769Y01009396
X01247319Y01032568
T06
X01157478Y01165098
T07
X0089535Y00599948
X00937448Y00574228
X0084582Y00701548
T08
X012831Y0073914
X013081
X00795528Y00738632
X00770528
X0077002Y00823214
X00770074Y0090678
X00795074
X0079502Y00823214
X01283408Y00823806
X01308408
X013081Y0090678
X012831
T09
X00806349Y0065107
X00844651Y0061893
T10
X01357316Y01134834
X01300748Y01191402
T11
X01353566Y00696214
Y00696468
X0104648Y00752602
X00727456Y00697714
Y0093345
X01050798Y01078738
X01353058Y00933704
M30
