M48
;Layer_Color=9474304
;FILE_FORMAT=2:5
INCH,LZ
;TYPE=PLATED
T1F00S00C0.00394
T3F00S00C0.01968
T4F00S00C0.02000
T5F00S00C0.02800
T6F00S00C0.03000
T7F00S00C0.03543
T8F00S00C0.03937
T9F00S00C0.05512
;TYPE=NON_PLATED
T10F00S00C0.03543
T11F00S00C0.09842
%
T01
X04031Y03597
T03
X04655Y02708
T04
X0320564Y0413464
X0324028Y0416928
X0327565Y0420465
X03311Y0424
X0334635Y0427535
X0338171Y0431071
X0341707Y0434607
X0345242Y0438142
T05
X04785Y0236
X04604Y0265
X04375Y02704
X04281Y02643
X0367857Y0260243
X0367109Y0252297
X036431Y024699
X0372932Y02758
X03476Y02225
X0341Y03626
X03728Y03744
X03837Y03702
X0368103Y0387103
X0362356Y04003
X0417Y04
X04301Y03611
X047235Y03974
X049107Y0406523
T06
X04557Y04587
T07
X03525Y02362
X0369074Y0226074
X0333Y02762
T08
X0505158Y0291
X0515
X03132Y02908
X0303358
X0303157Y03241
X0303179Y0357
X0313021
X0313Y03241
X0505279Y0324333
X0515121
X0515Y0357
X0505158
T09
X031746Y0256327
X033254Y0243673
T10
X0534377Y0446785
X0512106Y0469056
T11
X05329Y02741
Y02742
X0412Y02963
X02864Y0274691
Y03675
X04137Y04247
X05327Y03676
M30
