%TF.GenerationSoftware,Altium Limited,Altium Designer,20.0.13 (296)*%
G04 Layer_Color=32768*
%FSLAX45Y45*%
%MOMM*%
%TF.FileFunction,Other,Mechanical_15*%
%TF.Part,Single*%
G01*
G75*
%TA.AperFunction,NonConductor*%
%ADD44C,0.20000*%
%ADD60C,0.10000*%
%ADD61C,0.05000*%
%ADD62C,0.05080*%
D44*
X9636592Y5851992D02*
X10607213D01*
X9636592D02*
Y6822608D01*
X10607213D01*
Y5851992D02*
Y6822608D01*
X9554098Y7530998D02*
Y7821000D01*
Y7530998D02*
X9994102D01*
Y7821000D01*
X9554098D02*
X9994102D01*
D60*
X10071903Y6337300D02*
X10171902D01*
X10121900Y6287298D02*
Y6387297D01*
X10315199Y8156103D02*
X10665201D01*
X10315199Y7766101D02*
X10665201D01*
Y8156103D01*
X10315199Y7766101D02*
Y8156103D01*
X10490200Y7911099D02*
Y8011099D01*
X10440203Y7961102D02*
X10540202D01*
X9774098Y7625999D02*
Y7725999D01*
X9724100Y7676002D02*
X9824100D01*
D61*
X9403598Y5876199D02*
X9595602D01*
Y6214201D01*
X9403598D02*
X9595602D01*
X9403598Y5876199D02*
Y6214201D01*
X9993498Y7328098D02*
Y7480102D01*
X9691502D02*
X9993498D01*
X9691502Y7328098D02*
Y7480102D01*
Y7328098D02*
X9993498D01*
X10023922Y7403003D02*
X10175926D01*
X10023922Y7101007D02*
Y7403003D01*
Y7101007D02*
X10175926D01*
Y7403003D01*
X10442702Y7372502D02*
X10639298D01*
X10442702Y7715098D02*
X10639298D01*
Y7372502D02*
Y7715098D01*
X10442702Y7372502D02*
Y7715098D01*
X10444998Y6917599D02*
X10637002D01*
Y7255596D01*
X10444998D02*
X10637002D01*
X10444998Y6917599D02*
Y7255596D01*
X8883797Y6874002D02*
Y7070598D01*
X9226398Y6874002D02*
Y7070598D01*
X8883797Y6874002D02*
X9226398D01*
X8883797Y7070598D02*
X9226398D01*
X9153200Y5973902D02*
X9327200D01*
X9153200Y5759902D02*
Y5973902D01*
X8779200Y5759902D02*
X9153200D01*
X8779200D02*
Y5973902D01*
X8605200D02*
X8779200D01*
X8605200D02*
Y6395898D01*
X8665200D01*
Y6609898D01*
X9267200D01*
Y6395898D02*
Y6609898D01*
Y6395898D02*
X9327200D01*
Y5973902D02*
Y6395898D01*
X10700400Y6304702D02*
X10940400D01*
Y6674698D01*
X10700400D02*
X10940400D01*
X10700400Y6304702D02*
Y6674698D01*
X10089398Y7806604D02*
X10281402D01*
Y8144601D01*
X10089398D02*
X10281402D01*
X10089398Y7806604D02*
Y8144601D01*
D62*
X8887800Y6834703D02*
X9222400D01*
Y6678102D02*
Y6834703D01*
X8887800Y6678102D02*
X9222400D01*
X8887800D02*
Y6834703D01*
X9395902Y6297000D02*
Y6631600D01*
X9552498D01*
Y6297000D02*
Y6631600D01*
X9395902Y6297000D02*
X9552498D01*
%TF.MD5,168f5c653f8c19d7e9b77bc965761100*%
M02*
