%TF.GenerationSoftware,Altium Limited,Altium Designer,20.0.13 (296)*%
G04 Layer_Color=16711935*
%FSLAX45Y45*%
%MOMM*%
%TF.FileFunction,Soldermask,Bot*%
%TF.Part,Single*%
G01*
G75*
%TA.AperFunction,ComponentPad*%
%ADD35C,2.30320*%
%ADD36R,2.30320X2.30320*%
%ADD37C,1.48320*%
%ADD38R,1.70320X1.70320*%
%ADD39R,1.80320X0.80320*%
%TA.AperFunction,ViaPad*%
%ADD40C,2.70320*%
%ADD41C,0.90320*%
D35*
X8724900Y9394002D02*
D03*
D36*
Y8893998D02*
D03*
D37*
X10922000Y7289800D02*
D03*
Y8039100D02*
D03*
D38*
X8659998Y7175500D02*
D03*
Y8176900D02*
D03*
D39*
X9232900Y9220200D02*
D03*
Y9093200D02*
D03*
Y8966200D02*
D03*
Y8839200D02*
D03*
Y8712200D02*
D03*
Y8585200D02*
D03*
Y9347220D02*
D03*
Y9471660D02*
D03*
D40*
X10833100Y5880100D02*
D03*
X9766300Y8166100D02*
D03*
D41*
X9702800Y9055100D02*
D03*
X10325100D02*
D03*
X9959340Y6503619D02*
D03*
X10047757Y6138697D02*
D03*
X10482580Y6891020D02*
D03*
X10396220Y7830820D02*
D03*
X10655300Y6192520D02*
D03*
X10241280Y7180097D02*
D03*
X10154920Y7073351D02*
D03*
Y6438900D02*
D03*
X9870440Y6908800D02*
D03*
%TF.MD5,b77a56c010786b2c32fec7c8a163d8d6*%
M02*
