%TF.GenerationSoftware,Altium Limited,Altium Designer,20.0.13 (296)*%
G04 Layer_Physical_Order=1*
G04 Layer_Color=255*
%FSLAX45Y45*%
%MOMM*%
%TF.FileFunction,Copper,L1,Top,Signal*%
%TF.Part,Single*%
G01*
G75*
%TA.AperFunction,SMDPad,CuDef*%
%ADD10R,1.40000X2.10000*%
%ADD11R,0.97000X0.92000*%
%ADD12R,1.50000X0.90000*%
%TA.AperFunction,Conductor*%
%ADD13C,0.80000*%
%TA.AperFunction,ComponentPad*%
%ADD14R,1.50000X1.50000*%
%TA.AperFunction,ViaPad*%
%ADD15C,2.50000*%
D10*
X12830602Y10386400D02*
D03*
Y9476400D02*
D03*
X13280598D02*
D03*
Y10386400D02*
D03*
D11*
X13512801Y9311701D02*
D03*
Y9156700D02*
D03*
D12*
X13300598Y8572602D02*
D03*
Y8902598D02*
D03*
X12810602D02*
D03*
Y8572602D02*
D03*
D13*
X13309599Y9311701D02*
X13512801D01*
X13280598Y9476400D02*
X13309599Y9311701D01*
X12446102Y8572602D02*
X12810602D01*
X12357100Y8483600D02*
X12446102Y8572602D01*
X13280598Y10386400D02*
Y10567462D01*
X12608560Y11239500D02*
X13280598Y10567462D01*
X12496800Y11239500D02*
X12608560D01*
X12830602Y10386400D02*
Y10566400D01*
X12424202Y10972800D02*
X12830602Y10566400D01*
X12128500Y10972800D02*
X12424202D01*
X13300598Y8572602D02*
Y8660242D01*
X13149580Y8811260D02*
X13300598Y8660242D01*
X13149580Y8811260D02*
Y9122202D01*
X13280598Y9253220D01*
Y9476400D01*
X13300598Y8902598D02*
X13398602D01*
X13741400Y8559800D01*
X13512801Y9156700D02*
X13855701D01*
X14122400Y8890000D01*
X13280598Y9476400D02*
Y10386400D01*
X12430658Y8902598D02*
X12810602D01*
X12367260Y8839200D02*
X12430658Y8902598D01*
X11988800Y8839200D02*
X12367260D01*
X12830602Y9476400D02*
Y10386400D01*
D14*
X14122400Y8890000D02*
D03*
X12496800Y11239500D02*
D03*
X12128500Y10972800D02*
D03*
X13741400Y8559800D02*
D03*
X12357100Y8483600D02*
D03*
X11988800Y8839200D02*
D03*
D15*
X13055600Y8305800D02*
D03*
X14528799Y9880600D02*
D03*
X11468100D02*
D03*
X13030200Y11442700D02*
D03*
%TF.MD5,559c7e1d9a5aceacc118f2d55e3ab111*%
M02*
