M48
;Layer_Color=9474304
;FILE_FORMAT=4:4
METRIC,LZ
;TYPE=PLATED
T1F00S00C0.5080
T2F00S00C0.7112
T3F00S00C0.8500
T4F00S00C0.9000
T5F00S00C1.4000
T6F00S00C2.5000
T7F00S00C2.5300
%
T01
X0128905Y0074676
X0130175
X0131445
X0132715
X0133985
X0135255
X01365252
X01377696
T02
X0128397Y0079248
X01390396Y00737616
X0137287Y00703834
X01405636Y00875538
X0131445Y00907796
X0128397Y0085979
T03
X0119761Y00792623
Y00867553
T04
X0148463Y0077343
Y00873357
T05
X0127969Y010287
X0132969
T06
X0118872Y0067945
X0118491Y0104267
T07
X0146939Y0067945
M30
