M48
;Layer_Color=9474304
;FILE_FORMAT=4:4
METRIC,LZ
;TYPE=PLATED
T1F00S00C0.5080
T2F00S00C0.7112
T3F00S00C0.8500
T4F00S00C0.9000
T5F00S00C1.4000
%
T01
X0081915Y007366
X0083185
X0084455
X0085725
X0086995
X0088265
X00895352
X00907796
T02
X00835104Y00616458
X0085109Y0060833
X00821944Y00658368
X0088646Y00679704
X00943102Y00698754
X00933958Y0064389
T03
X0094234Y0059563
Y0067056
T04
X0093853Y0074676
Y0077978
X0078232Y0061468
Y0058166
X007874Y0085344
X0093726
Y0082042
T05
X0078613Y0076748
Y0081748
M30
