M48
;Layer_Color=9474304
;FILE_FORMAT=4:4
METRIC,LZ
;TYPE=PLATED
T2F00S00C0.7112
T3F00S00C0.9000
;TYPE=NON_PLATED
T4F00S00C2.5000
%
T02
X01372616Y00519684
X0142367Y005842
X0143764Y00592836
X0141732Y00648462
X0139192Y0063401
X01395476Y00674251
X0138811Y0073533
X0154305Y00766826
X0157861Y00693674
X0151384Y0043942
X01465834Y0046101
X01461516Y00843534
Y0096139
X01358392Y00930402
X0134366Y01052576
X01458722Y01146048
X01558848Y01002742
T03
X0136525Y00540088
Y00640088
Y010922
X0155956Y0097663
X0156083Y0091567
X0148336Y0124587
X0142748Y012446
X0136525Y0119253
T04
X0136779Y0046101
X0155448
X0156083Y0086741
X0136144Y0087052
X013589Y0124333
X0155575
M30
