%TF.GenerationSoftware,Altium Limited,Altium Designer,20.0.13 (296)*%
G04 Layer_Color=16711935*
%FSLAX45Y45*%
%MOMM*%
%TF.FileFunction,Other,Mechanical_13*%
%TF.Part,Single*%
G01*
G75*
%TA.AperFunction,NonConductor*%
%ADD31C,0.20000*%
%ADD33C,0.25400*%
%ADD35C,0.12700*%
%ADD48C,0.10160*%
%ADD49C,0.10000*%
G36*
X15285913Y12093190D02*
X15235710D01*
Y12188298D01*
X15285913D01*
Y12093190D01*
D02*
G37*
G36*
X15168822D02*
X15118871D01*
Y12188274D01*
X15168822D01*
Y12093190D01*
D02*
G37*
G36*
X15285913Y11928090D02*
X15235710D01*
Y12023198D01*
X15285913D01*
Y11928090D01*
D02*
G37*
G36*
X15168822D02*
X15118871D01*
Y12023174D01*
X15168822D01*
Y11928090D01*
D02*
G37*
G36*
X15057314Y9756390D02*
X15007111D01*
Y9851498D01*
X15057314D01*
Y9756390D01*
D02*
G37*
G36*
X14940221D02*
X14890269D01*
Y9851474D01*
X14940221D01*
Y9756390D01*
D02*
G37*
G36*
X14473112Y9743690D02*
X14422910D01*
Y9838798D01*
X14473112D01*
Y9743690D01*
D02*
G37*
G36*
X14356021D02*
X14306070D01*
Y9838774D01*
X14356021D01*
Y9743690D01*
D02*
G37*
G36*
X15057314Y9540490D02*
X15007111D01*
Y9635598D01*
X15057314D01*
Y9540490D01*
D02*
G37*
G36*
X14940221D02*
X14890269D01*
Y9635574D01*
X14940221D01*
Y9540490D01*
D02*
G37*
G36*
X14473112Y9527790D02*
X14422910D01*
Y9622898D01*
X14473112D01*
Y9527790D01*
D02*
G37*
G36*
X14356021D02*
X14306070D01*
Y9622874D01*
X14356021D01*
Y9527790D01*
D02*
G37*
D31*
X14706900Y12165900D02*
G03*
X14706900Y12165900I-10000J0D01*
G01*
X14246700Y11963400D02*
G03*
X14246700Y11963400I-10000J0D01*
G01*
X14231606Y9194953D02*
G03*
X14231606Y9194953I-10000J0D01*
G01*
X14234000Y10655300D02*
G03*
X14234000Y10655300I-10000J0D01*
G01*
D33*
X14125346Y12686394D02*
Y12645624D01*
X14104961D01*
X14098166Y12652419D01*
Y12666009D01*
X14104961Y12672804D01*
X14125346D01*
X14057394Y12652419D02*
X14064191Y12645624D01*
X14077782D01*
X14084576Y12652419D01*
Y12679599D01*
X14077782Y12686394D01*
X14064191D01*
X14057394Y12679599D01*
X14043805Y12645624D02*
Y12686394D01*
X14023421D01*
X14016624Y12679599D01*
Y12672804D01*
X14023421Y12666009D01*
X14043805D01*
X14023421D01*
X14016624Y12659214D01*
Y12652419D01*
X14023421Y12645624D01*
X14043805D01*
X13935085D02*
X13962265D01*
Y12686394D01*
X13935085D01*
X13962265Y12666009D02*
X13948676D01*
X13921494Y12645624D02*
Y12686394D01*
X13901109D01*
X13894315Y12679599D01*
Y12652419D01*
X13901109Y12645624D01*
X13921494D01*
X13853545Y12652419D02*
X13860339Y12645624D01*
X13873929D01*
X13880724Y12652419D01*
Y12679599D01*
X13873929Y12686394D01*
X13860339D01*
X13853545Y12679599D01*
Y12666009D01*
X13867134D01*
X13812773Y12645624D02*
X13839954D01*
Y12686394D01*
X13812773D01*
X13839954Y12666009D02*
X13826364D01*
D35*
X14779601Y11454399D02*
Y11964401D01*
X14379601Y11454399D02*
Y11964401D01*
Y11454399D02*
X14779601D01*
X14379601Y11964401D02*
X14779601D01*
X15111897Y11822902D02*
X15291902D01*
X15111897Y11722903D02*
X15291902D01*
Y11822902D01*
X15111897Y11722903D02*
Y11822902D01*
Y11619702D02*
X15291902D01*
X15111897Y11519703D02*
X15291902D01*
Y11619702D01*
X15111897Y11519703D02*
Y11619702D01*
X14021603Y11606698D02*
Y11786702D01*
X14121602Y11606698D02*
Y11786702D01*
X14021603D02*
X14121602D01*
X14021603Y11606698D02*
X14121602D01*
X13996204Y8838098D02*
Y9018102D01*
X14096202Y8838098D02*
Y9018102D01*
X13996204D02*
X14096202D01*
X13996204Y8838098D02*
X14096202D01*
X14764503Y8685953D02*
Y9195954D01*
X14364505Y8685953D02*
Y9195954D01*
Y8685953D02*
X14764503D01*
X14364505Y9195954D02*
X14764503D01*
X15162698Y9054302D02*
X15342702D01*
X15162698Y8954303D02*
X15342702D01*
Y9054302D01*
X15162698Y8954303D02*
Y9054302D01*
Y8851102D02*
X15342702D01*
X15162698Y8751103D02*
X15342702D01*
Y8851102D01*
X15162698Y8751103D02*
Y8851102D01*
X13958102Y10298598D02*
Y10478602D01*
X14058102Y10298598D02*
Y10478602D01*
X13958102D02*
X14058102D01*
X13958102Y10298598D02*
X14058102D01*
X15099197Y10400502D02*
X15279202D01*
X15099197Y10300503D02*
X15279202D01*
Y10400502D01*
X15099197Y10300503D02*
Y10400502D01*
Y10591002D02*
X15279202D01*
X15099197Y10491003D02*
X15279202D01*
Y10591002D01*
X15099197Y10491003D02*
Y10591002D01*
X14766901Y10146299D02*
Y10656301D01*
X14366901Y10146299D02*
Y10656301D01*
Y10146299D02*
X14766901D01*
X14366901Y10656301D02*
X14766901D01*
D48*
X15166299Y11932900D02*
X15237502D01*
X15166299Y12018000D02*
X15237502D01*
X15166299Y12098000D02*
X15237502D01*
X15166299Y12183100D02*
X15237502D01*
X14937698Y9761200D02*
X15008900D01*
X14937698Y9846300D02*
X15008900D01*
X14937698Y9545300D02*
X15008900D01*
X14937698Y9630400D02*
X15008900D01*
X14353499Y9748500D02*
X14424701D01*
X14353499Y9833600D02*
X14424701D01*
X14353499Y9532600D02*
X14424701D01*
X14353499Y9617700D02*
X14424701D01*
D49*
X13946901Y12690902D02*
X15056902D01*
X14176898Y12820898D02*
X14196898Y12766899D01*
X14936902Y12265899D02*
Y12766899D01*
X14176898Y12820898D02*
X14956902D01*
X14196898Y12265899D02*
Y12766899D01*
Y12265899D02*
X14936902D01*
Y12766899D02*
X14956902Y12820898D01*
%TF.MD5,85d4997fff2be75b666b4288559ec243*%
M02*
