%TF.GenerationSoftware,Altium Limited,Altium Designer,20.0.13 (296)*%
G04 Layer_Color=32896*
%FSLAX45Y45*%
%MOMM*%
%TF.FileFunction,Legend,Bot*%
%TF.Part,Single*%
G01*
G75*
G36*
X14645488Y10589124D02*
X14648692D01*
Y10585920D01*
X14651897D01*
Y10582715D01*
X14655099D01*
Y10579511D01*
Y10576307D01*
X14658304D01*
Y10573103D01*
X14661508D01*
Y10569899D01*
X14664713D01*
Y10566695D01*
Y10563490D01*
X14667917D01*
Y10560286D01*
Y10557082D01*
X14671121D01*
Y10553878D01*
Y10550674D01*
Y10547470D01*
X14674326D01*
Y10544265D01*
Y10541061D01*
Y10537857D01*
Y10534653D01*
Y10531449D01*
X14677528D01*
Y10528245D01*
Y10525041D01*
Y10521836D01*
Y10518632D01*
X14680733D01*
Y10521836D01*
X14687141D01*
Y10525041D01*
X14693550D01*
Y10528245D01*
X14699957D01*
Y10531449D01*
X14712775D01*
Y10534653D01*
X14732001D01*
Y10531449D01*
X14735204D01*
Y10528245D01*
Y10525041D01*
Y10521836D01*
Y10518632D01*
Y10515428D01*
Y10512224D01*
Y10509020D01*
Y10505816D01*
X14732001D01*
Y10502611D01*
Y10499407D01*
Y10496203D01*
Y10492999D01*
X14728796D01*
Y10489795D01*
Y10486591D01*
Y10483386D01*
X14725592D01*
Y10480182D01*
Y10476978D01*
X14722388D01*
Y10473774D01*
Y10470570D01*
X14719183D01*
Y10467366D01*
Y10464161D01*
X14715979D01*
Y10460957D01*
X14712775D01*
Y10457753D01*
X14709570D01*
Y10454549D01*
X14706367D01*
Y10451345D01*
X14703163D01*
Y10448141D01*
X14699957D01*
Y10444937D01*
X14696754D01*
Y10441732D01*
X14690346D01*
Y10438528D01*
X14683939D01*
Y10435324D01*
X14677528D01*
Y10432120D01*
X14667917D01*
Y10428916D01*
X14661508D01*
Y10425712D01*
X14664713D01*
Y10422507D01*
X14671121D01*
Y10419303D01*
X14677528D01*
Y10416099D01*
X14706367D01*
Y10419303D01*
Y10422507D01*
X14709570D01*
Y10425712D01*
Y10428916D01*
Y10432120D01*
X14712775D01*
Y10435324D01*
Y10438528D01*
X14715979D01*
Y10441732D01*
Y10444937D01*
X14719183D01*
Y10448141D01*
X14722388D01*
Y10451345D01*
Y10454549D01*
X14725592D01*
Y10457753D01*
X14728796D01*
Y10460957D01*
X14732001D01*
Y10464161D01*
X14735204D01*
Y10467366D01*
X14741612D01*
Y10470570D01*
X14744817D01*
Y10473774D01*
X14751225D01*
Y10476978D01*
X14757632D01*
Y10480182D01*
X14767245D01*
Y10483386D01*
X14786472D01*
Y10480182D01*
Y10476978D01*
Y10473774D01*
Y10470570D01*
Y10467366D01*
Y10464161D01*
X14783266D01*
Y10460957D01*
Y10457753D01*
Y10454549D01*
X14780061D01*
Y10451345D01*
Y10448141D01*
X14776859D01*
Y10444937D01*
Y10441732D01*
X14773654D01*
Y10438528D01*
X14770450D01*
Y10435324D01*
Y10432120D01*
X14767245D01*
Y10428916D01*
X14764043D01*
Y10425712D01*
X14760837D01*
Y10422507D01*
X14757632D01*
Y10419303D01*
X14751225D01*
Y10416099D01*
X14748021D01*
Y10412895D01*
X14741612D01*
Y10409691D01*
X14735204D01*
Y10406487D01*
X14725592D01*
Y10403282D01*
X14719183D01*
Y10400079D01*
X14715979D01*
Y10396874D01*
Y10393670D01*
Y10390466D01*
X14719183D01*
Y10387262D01*
Y10384058D01*
Y10380854D01*
Y10377649D01*
Y10374445D01*
X14722388D01*
Y10371241D01*
Y10368037D01*
Y10364833D01*
X14725592D01*
Y10361629D01*
Y10358424D01*
X14732001D01*
Y10361629D01*
Y10364833D01*
Y10368037D01*
X14735204D01*
Y10371241D01*
Y10374445D01*
Y10377649D01*
X14738408D01*
Y10380854D01*
Y10384058D01*
X14741612D01*
Y10387262D01*
Y10390466D01*
X14744817D01*
Y10393670D01*
X14748021D01*
Y10396874D01*
X14751225D01*
Y10400079D01*
X14754430D01*
Y10403282D01*
Y10406487D01*
X14760837D01*
Y10409691D01*
X14764043D01*
Y10412895D01*
X14767245D01*
Y10416099D01*
X14770450D01*
Y10419303D01*
X14776859D01*
Y10422507D01*
X14783266D01*
Y10425712D01*
X14792879D01*
Y10428916D01*
X14805696D01*
Y10432120D01*
X14834534D01*
Y10428916D01*
X14837737D01*
Y10425712D01*
Y10422507D01*
Y10419303D01*
Y10416099D01*
Y10412895D01*
X14834534D01*
Y10409691D01*
Y10406487D01*
Y10403282D01*
Y10400079D01*
X14831329D01*
Y10396874D01*
Y10393670D01*
X14828125D01*
Y10390466D01*
Y10387262D01*
X14824921D01*
Y10384058D01*
Y10380854D01*
X14821716D01*
Y10377649D01*
X14818512D01*
Y10374445D01*
X14837737D01*
Y10371241D01*
X14850554D01*
Y10368037D01*
X14860165D01*
Y10364833D01*
X14866576D01*
Y10361629D01*
X14872983D01*
Y10358424D01*
X14876187D01*
Y10355220D01*
X14882594D01*
Y10352016D01*
X14885800D01*
Y10348812D01*
X14889005D01*
Y10345608D01*
X14892207D01*
Y10342403D01*
X14895412D01*
Y10339200D01*
Y10335995D01*
X14892207D01*
Y10332791D01*
X14889005D01*
Y10329587D01*
X14885800D01*
Y10326383D01*
X14882594D01*
Y10323179D01*
X14876187D01*
Y10319975D01*
X14872983D01*
Y10316770D01*
X14866576D01*
Y10313566D01*
X14860165D01*
Y10310362D01*
X14850554D01*
Y10307158D01*
X14837737D01*
Y10303954D01*
X14818512D01*
Y10300750D01*
X14821716D01*
Y10297545D01*
X14824921D01*
Y10294341D01*
Y10291137D01*
X14828125D01*
Y10287933D01*
Y10284729D01*
X14831329D01*
Y10281525D01*
Y10278321D01*
X14834534D01*
Y10275116D01*
Y10271912D01*
Y10268708D01*
Y10265504D01*
X14837737D01*
Y10262300D01*
Y10259096D01*
Y10255891D01*
Y10252687D01*
Y10249483D01*
Y10246279D01*
X14805696D01*
Y10249483D01*
X14792879D01*
Y10252687D01*
X14783266D01*
Y10255891D01*
X14776859D01*
Y10259096D01*
X14770450D01*
Y10262300D01*
X14767245D01*
Y10265504D01*
X14764043D01*
Y10268708D01*
X14757632D01*
Y10271912D01*
X14754430D01*
Y10275116D01*
X14751225D01*
Y10278321D01*
Y10281525D01*
X14748021D01*
Y10284729D01*
X14744817D01*
Y10287933D01*
X14741612D01*
Y10291137D01*
Y10294341D01*
X14738408D01*
Y10297545D01*
Y10300750D01*
X14735204D01*
Y10303954D01*
Y10307158D01*
Y10310362D01*
X14732001D01*
Y10313566D01*
Y10316770D01*
Y10319975D01*
X14725592D01*
Y10316770D01*
Y10313566D01*
X14722388D01*
Y10310362D01*
Y10307158D01*
X14719183D01*
Y10303954D01*
Y10300750D01*
Y10297545D01*
Y10294341D01*
Y10291137D01*
X14715979D01*
Y10287933D01*
Y10284729D01*
Y10281525D01*
Y10278321D01*
Y10275116D01*
X14725592D01*
Y10271912D01*
X14735204D01*
Y10268708D01*
X14741612D01*
Y10265504D01*
X14748021D01*
Y10262300D01*
X14751225D01*
Y10259096D01*
X14754430D01*
Y10255891D01*
X14760837D01*
Y10252687D01*
X14764043D01*
Y10249483D01*
Y10246279D01*
X14767245D01*
Y10243075D01*
X14770450D01*
Y10239871D01*
X14773654D01*
Y10236666D01*
Y10233462D01*
X14776859D01*
Y10230258D01*
X14780061D01*
Y10227054D01*
Y10223850D01*
Y10220646D01*
X14783266D01*
Y10217441D01*
Y10214237D01*
Y10211033D01*
X14786472D01*
Y10207829D01*
Y10204625D01*
Y10201421D01*
Y10198217D01*
Y10195012D01*
X14767245D01*
Y10198217D01*
X14757632D01*
Y10201421D01*
X14751225D01*
Y10204625D01*
X14744817D01*
Y10207829D01*
X14738408D01*
Y10211033D01*
X14735204D01*
Y10214237D01*
X14732001D01*
Y10217441D01*
X14728796D01*
Y10220646D01*
X14725592D01*
Y10223850D01*
X14722388D01*
Y10227054D01*
X14719183D01*
Y10230258D01*
Y10233462D01*
X14715979D01*
Y10236666D01*
X14712775D01*
Y10239871D01*
Y10243075D01*
X14709570D01*
Y10246279D01*
Y10249483D01*
Y10252687D01*
X14706367D01*
Y10255891D01*
Y10259096D01*
Y10262300D01*
X14677528D01*
Y10259096D01*
X14671121D01*
Y10255891D01*
X14664713D01*
Y10252687D01*
X14658304D01*
Y10249483D01*
X14667917D01*
Y10246279D01*
X14677528D01*
Y10243075D01*
X14683939D01*
Y10239871D01*
X14690346D01*
Y10236666D01*
X14693550D01*
Y10233462D01*
X14699957D01*
Y10230258D01*
X14703163D01*
Y10227054D01*
X14706367D01*
Y10223850D01*
X14709570D01*
Y10220646D01*
X14712775D01*
Y10217441D01*
X14715979D01*
Y10214237D01*
Y10211033D01*
X14719183D01*
Y10207829D01*
X14722388D01*
Y10204625D01*
Y10201421D01*
X14725592D01*
Y10198217D01*
Y10195012D01*
X14728796D01*
Y10191808D01*
Y10188604D01*
Y10185400D01*
X14732001D01*
Y10182196D01*
Y10178992D01*
Y10175787D01*
Y10172583D01*
Y10169379D01*
X14735204D01*
Y10166175D01*
Y10162971D01*
Y10159767D01*
Y10156562D01*
Y10153358D01*
Y10150154D01*
X14732001D01*
Y10146950D01*
Y10143746D01*
Y10140542D01*
X14725592D01*
Y10143746D01*
X14709570D01*
Y10146950D01*
X14699957D01*
Y10150154D01*
X14690346D01*
Y10153358D01*
X14687141D01*
Y10156562D01*
X14680733D01*
Y10159767D01*
X14677528D01*
Y10156562D01*
Y10153358D01*
Y10150154D01*
X14674326D01*
Y10146950D01*
Y10143746D01*
Y10140542D01*
Y10137338D01*
Y10134133D01*
X14671121D01*
Y10130929D01*
Y10127725D01*
Y10124521D01*
Y10121317D01*
X14667917D01*
Y10118113D01*
Y10114908D01*
X14664713D01*
Y10111704D01*
Y10108500D01*
X14661508D01*
Y10105296D01*
X14658304D01*
Y10102092D01*
Y10098888D01*
X14655099D01*
Y10095683D01*
X14651897D01*
Y10092479D01*
X14648692D01*
Y10089275D01*
X14645488D01*
Y10086071D01*
X14639079D01*
Y10089275D01*
X14632671D01*
Y10092479D01*
X14629466D01*
Y10095683D01*
Y10098888D01*
X14626263D01*
Y10102092D01*
X14623059D01*
Y10105296D01*
X14619855D01*
Y10108500D01*
Y10111704D01*
X14616650D01*
Y10114908D01*
Y10118113D01*
X14613446D01*
Y10121317D01*
Y10124521D01*
X14610242D01*
Y10127725D01*
Y10130929D01*
Y10134133D01*
Y10137338D01*
X14607037D01*
Y10140542D01*
Y10143746D01*
Y10146950D01*
Y10150154D01*
Y10153358D01*
Y10156562D01*
Y10159767D01*
X14600629D01*
Y10156562D01*
X14597424D01*
Y10153358D01*
X14591017D01*
Y10150154D01*
X14581406D01*
Y10146950D01*
X14571793D01*
Y10143746D01*
X14555771D01*
Y10140542D01*
X14549364D01*
Y10143746D01*
Y10146950D01*
Y10150154D01*
Y10153358D01*
Y10156562D01*
Y10159767D01*
Y10162971D01*
Y10166175D01*
Y10169379D01*
Y10172583D01*
Y10175787D01*
Y10178992D01*
X14552567D01*
Y10182196D01*
Y10185400D01*
Y10188604D01*
Y10191808D01*
X14555771D01*
Y10195012D01*
Y10198217D01*
X14558975D01*
Y10201421D01*
Y10204625D01*
X14562180D01*
Y10207829D01*
Y10211033D01*
X14565384D01*
Y10214237D01*
X14568588D01*
Y10217441D01*
X14571793D01*
Y10220646D01*
X14574995D01*
Y10223850D01*
X14578200D01*
Y10227054D01*
X14581406D01*
Y10230258D01*
X14584608D01*
Y10233462D01*
X14587813D01*
Y10236666D01*
X14594221D01*
Y10239871D01*
X14600629D01*
Y10243075D01*
X14607037D01*
Y10246279D01*
X14616650D01*
Y10249483D01*
X14623059D01*
Y10252687D01*
X14619855D01*
Y10255891D01*
X14613446D01*
Y10259096D01*
X14603835D01*
Y10262300D01*
X14578200D01*
Y10259096D01*
X14574995D01*
Y10255891D01*
Y10252687D01*
Y10249483D01*
X14571793D01*
Y10246279D01*
Y10243075D01*
X14568588D01*
Y10239871D01*
Y10236666D01*
X14565384D01*
Y10233462D01*
Y10230258D01*
X14562180D01*
Y10227054D01*
X14558975D01*
Y10223850D01*
X14555771D01*
Y10220646D01*
X14552567D01*
Y10217441D01*
X14549364D01*
Y10214237D01*
X14546159D01*
Y10211033D01*
X14542955D01*
Y10207829D01*
X14536546D01*
Y10204625D01*
X14533342D01*
Y10201421D01*
X14526933D01*
Y10198217D01*
X14517320D01*
Y10195012D01*
X14504504D01*
Y10191808D01*
X14501302D01*
Y10195012D01*
X14494891D01*
Y10198217D01*
Y10201421D01*
Y10204625D01*
Y10207829D01*
X14498096D01*
Y10211033D01*
Y10214237D01*
Y10217441D01*
Y10220646D01*
X14501302D01*
Y10223850D01*
Y10227054D01*
X14504504D01*
Y10230258D01*
Y10233462D01*
X14507709D01*
Y10236666D01*
Y10239871D01*
X14510913D01*
Y10243075D01*
X14514117D01*
Y10246279D01*
X14517320D01*
Y10249483D01*
X14520525D01*
Y10252687D01*
X14523730D01*
Y10255891D01*
X14526933D01*
Y10259096D01*
X14530138D01*
Y10262300D01*
X14536546D01*
Y10265504D01*
X14539751D01*
Y10268708D01*
X14549364D01*
Y10271912D01*
X14555771D01*
Y10275116D01*
X14565384D01*
Y10278321D01*
Y10281525D01*
Y10284729D01*
Y10287933D01*
Y10291137D01*
Y10294341D01*
Y10297545D01*
X14562180D01*
Y10300750D01*
Y10303954D01*
Y10307158D01*
X14558975D01*
Y10310362D01*
Y10313566D01*
Y10316770D01*
X14555771D01*
Y10319975D01*
X14552567D01*
Y10316770D01*
X14549364D01*
Y10313566D01*
Y10310362D01*
Y10307158D01*
Y10303954D01*
X14546159D01*
Y10300750D01*
Y10297545D01*
X14542955D01*
Y10294341D01*
Y10291137D01*
X14539751D01*
Y10287933D01*
X14536546D01*
Y10284729D01*
Y10281525D01*
X14533342D01*
Y10278321D01*
X14530138D01*
Y10275116D01*
X14526933D01*
Y10271912D01*
X14523730D01*
Y10268708D01*
X14520525D01*
Y10265504D01*
X14517320D01*
Y10262300D01*
X14510913D01*
Y10259096D01*
X14507709D01*
Y10255891D01*
X14501302D01*
Y10252687D01*
X14491689D01*
Y10249483D01*
X14482076D01*
Y10246279D01*
X14443626D01*
Y10249483D01*
Y10252687D01*
Y10255891D01*
Y10259096D01*
X14446831D01*
Y10262300D01*
Y10265504D01*
Y10268708D01*
Y10271912D01*
X14450034D01*
Y10275116D01*
Y10278321D01*
Y10281525D01*
X14453238D01*
Y10284729D01*
Y10287933D01*
X14456442D01*
Y10291137D01*
Y10294341D01*
X14459647D01*
Y10297545D01*
Y10300750D01*
X14462851D01*
Y10303954D01*
X14440422D01*
Y10307158D01*
X14430809D01*
Y10310362D01*
X14421198D01*
Y10313566D01*
X14414787D01*
Y10316770D01*
X14408380D01*
Y10319975D01*
X14405176D01*
Y10323179D01*
X14401971D01*
Y10326383D01*
X14395564D01*
Y10329587D01*
X14392358D01*
Y10332791D01*
X14389156D01*
Y10335995D01*
Y10339200D01*
Y10342403D01*
X14392358D01*
Y10345608D01*
X14395564D01*
Y10348812D01*
X14398767D01*
Y10352016D01*
X14401971D01*
Y10355220D01*
X14405176D01*
Y10358424D01*
X14411584D01*
Y10361629D01*
X14417992D01*
Y10364833D01*
X14424400D01*
Y10368037D01*
X14434013D01*
Y10371241D01*
X14446831D01*
Y10374445D01*
X14462851D01*
Y10377649D01*
X14459647D01*
Y10380854D01*
Y10384058D01*
X14456442D01*
Y10387262D01*
X14453238D01*
Y10390466D01*
Y10393670D01*
Y10396874D01*
X14450034D01*
Y10400079D01*
Y10403282D01*
X14446831D01*
Y10406487D01*
Y10409691D01*
Y10412895D01*
Y10416099D01*
Y10419303D01*
X14443626D01*
Y10422507D01*
Y10425712D01*
Y10428916D01*
X14450034D01*
Y10432120D01*
X14472462D01*
Y10428916D01*
X14488484D01*
Y10425712D01*
X14498096D01*
Y10422507D01*
X14504504D01*
Y10419303D01*
X14510913D01*
Y10416099D01*
X14514117D01*
Y10412895D01*
X14520525D01*
Y10409691D01*
X14523730D01*
Y10406487D01*
X14526933D01*
Y10403282D01*
X14530138D01*
Y10400079D01*
X14533342D01*
Y10396874D01*
Y10393670D01*
X14536546D01*
Y10390466D01*
X14539751D01*
Y10387262D01*
Y10384058D01*
X14542955D01*
Y10380854D01*
X14546159D01*
Y10377649D01*
Y10374445D01*
Y10371241D01*
X14549364D01*
Y10368037D01*
Y10364833D01*
Y10361629D01*
X14552567D01*
Y10358424D01*
Y10355220D01*
X14555771D01*
Y10358424D01*
Y10361629D01*
X14558975D01*
Y10364833D01*
Y10368037D01*
X14562180D01*
Y10371241D01*
Y10374445D01*
Y10377649D01*
X14565384D01*
Y10380854D01*
Y10384058D01*
Y10387262D01*
Y10390466D01*
Y10393670D01*
Y10396874D01*
Y10400079D01*
Y10403282D01*
X14558975D01*
Y10406487D01*
X14549364D01*
Y10409691D01*
X14542955D01*
Y10412895D01*
X14536546D01*
Y10416099D01*
X14530138D01*
Y10419303D01*
X14526933D01*
Y10422507D01*
X14523730D01*
Y10425712D01*
X14520525D01*
Y10428916D01*
X14517320D01*
Y10432120D01*
X14514117D01*
Y10435324D01*
X14510913D01*
Y10438528D01*
Y10441732D01*
X14507709D01*
Y10444937D01*
Y10448141D01*
X14504504D01*
Y10451345D01*
Y10454549D01*
X14501302D01*
Y10457753D01*
Y10460957D01*
X14498096D01*
Y10464161D01*
Y10467366D01*
Y10470570D01*
Y10473774D01*
X14494891D01*
Y10476978D01*
Y10480182D01*
X14498096D01*
Y10483386D01*
X14517320D01*
Y10480182D01*
X14526933D01*
Y10476978D01*
X14533342D01*
Y10473774D01*
X14539751D01*
Y10470570D01*
X14542955D01*
Y10467366D01*
X14546159D01*
Y10464161D01*
X14552567D01*
Y10460957D01*
X14555771D01*
Y10457753D01*
X14558975D01*
Y10454549D01*
Y10451345D01*
X14562180D01*
Y10448141D01*
X14565384D01*
Y10444937D01*
X14568588D01*
Y10441732D01*
Y10438528D01*
X14571793D01*
Y10435324D01*
Y10432120D01*
X14574995D01*
Y10428916D01*
Y10425712D01*
Y10422507D01*
X14578200D01*
Y10419303D01*
Y10416099D01*
X14607037D01*
Y10419303D01*
X14613446D01*
Y10422507D01*
X14619855D01*
Y10425712D01*
X14623059D01*
Y10428916D01*
X14613446D01*
Y10432120D01*
X14603835D01*
Y10435324D01*
X14597424D01*
Y10438528D01*
X14591017D01*
Y10441732D01*
X14587813D01*
Y10444937D01*
X14584608D01*
Y10448141D01*
X14578200D01*
Y10451345D01*
X14574995D01*
Y10454549D01*
X14571793D01*
Y10457753D01*
Y10460957D01*
X14568588D01*
Y10464161D01*
X14565384D01*
Y10467366D01*
X14562180D01*
Y10470570D01*
Y10473774D01*
X14558975D01*
Y10476978D01*
Y10480182D01*
X14555771D01*
Y10483386D01*
Y10486591D01*
Y10489795D01*
X14552567D01*
Y10492999D01*
Y10496203D01*
Y10499407D01*
X14549364D01*
Y10502611D01*
Y10505816D01*
Y10509020D01*
Y10512224D01*
Y10515428D01*
Y10518632D01*
Y10521836D01*
Y10525041D01*
Y10528245D01*
Y10531449D01*
Y10534653D01*
X14571793D01*
Y10531449D01*
X14581406D01*
Y10528245D01*
X14587813D01*
Y10525041D01*
X14594221D01*
Y10521836D01*
X14600629D01*
Y10518632D01*
X14607037D01*
Y10521836D01*
Y10525041D01*
Y10528245D01*
Y10531449D01*
Y10534653D01*
Y10537857D01*
Y10541061D01*
X14610242D01*
Y10544265D01*
Y10547470D01*
Y10550674D01*
X14613446D01*
Y10553878D01*
Y10557082D01*
Y10560286D01*
X14616650D01*
Y10563490D01*
Y10566695D01*
X14619855D01*
Y10569899D01*
X14623059D01*
Y10573103D01*
Y10576307D01*
X14626263D01*
Y10579511D01*
X14629466D01*
Y10582715D01*
X14632671D01*
Y10585920D01*
X14635875D01*
Y10589124D01*
X14639079D01*
Y10592328D01*
X14645488D01*
Y10589124D01*
D02*
G37*
G36*
X14828125Y10044417D02*
Y10041213D01*
X14821716D01*
Y10038009D01*
X14812103D01*
Y10034804D01*
X14808900D01*
Y10031600D01*
Y10028396D01*
Y10025192D01*
X14805696D01*
Y10021988D01*
Y10018784D01*
Y10015580D01*
Y10012375D01*
Y10009171D01*
Y10005967D01*
Y10002763D01*
Y9999559D01*
Y9996355D01*
Y9993150D01*
Y9989946D01*
Y9986742D01*
Y9983538D01*
Y9980334D01*
Y9977130D01*
Y9973925D01*
Y9970721D01*
Y9967517D01*
Y9964313D01*
Y9961109D01*
Y9957905D01*
Y9954701D01*
Y9951496D01*
Y9948292D01*
Y9945088D01*
Y9941884D01*
X14808900D01*
Y9938680D01*
Y9935476D01*
Y9932271D01*
X14812103D01*
Y9929067D01*
X14815308D01*
Y9925863D01*
X14821716D01*
Y9922659D01*
X14828125D01*
Y9919455D01*
Y9916251D01*
X14818512D01*
Y9919455D01*
X14764043D01*
Y9916251D01*
X14703163D01*
Y9919455D01*
X14699957D01*
Y9922659D01*
Y9925863D01*
Y9929067D01*
Y9932271D01*
Y9935476D01*
X14696754D01*
Y9938680D01*
Y9941884D01*
Y9945088D01*
Y9948292D01*
Y9951496D01*
Y9954701D01*
Y9957905D01*
Y9961109D01*
X14703163D01*
Y9957905D01*
Y9954701D01*
Y9951496D01*
X14706367D01*
Y9948292D01*
Y9945088D01*
X14709570D01*
Y9941884D01*
Y9938680D01*
X14712775D01*
Y9935476D01*
X14715979D01*
Y9932271D01*
X14722388D01*
Y9929067D01*
X14728796D01*
Y9925863D01*
X14770450D01*
Y9929067D01*
X14776859D01*
Y9932271D01*
X14780061D01*
Y9935476D01*
Y9938680D01*
Y9941884D01*
Y9945088D01*
Y9948292D01*
Y9951496D01*
Y9954701D01*
Y9957905D01*
Y9961109D01*
Y9964313D01*
Y9967517D01*
Y9970721D01*
Y9973925D01*
Y9977130D01*
Y9980334D01*
X14776859D01*
Y9977130D01*
X14764043D01*
Y9973925D01*
X14760837D01*
Y9970721D01*
Y9967517D01*
X14757632D01*
Y9964313D01*
Y9961109D01*
X14751225D01*
Y9964313D01*
Y9967517D01*
Y9970721D01*
Y9973925D01*
Y9977130D01*
Y9980334D01*
Y9983538D01*
Y9986742D01*
Y9989946D01*
Y9993150D01*
Y9996355D01*
Y9999559D01*
Y10002763D01*
Y10005967D01*
Y10009171D01*
X14757632D01*
Y10005967D01*
Y10002763D01*
Y9999559D01*
X14760837D01*
Y9996355D01*
X14764043D01*
Y9993150D01*
X14773654D01*
Y9989946D01*
X14780061D01*
Y9993150D01*
Y9996355D01*
Y9999559D01*
Y10002763D01*
Y10005967D01*
Y10009171D01*
Y10012375D01*
Y10015580D01*
Y10018784D01*
Y10021988D01*
Y10025192D01*
Y10028396D01*
Y10031600D01*
Y10034804D01*
Y10038009D01*
X14751225D01*
Y10034804D01*
X14744817D01*
Y10031600D01*
X14741612D01*
Y10028396D01*
X14738408D01*
Y10025192D01*
Y10021988D01*
Y10018784D01*
X14735204D01*
Y10015580D01*
Y10012375D01*
X14732001D01*
Y10015580D01*
X14728796D01*
Y10018784D01*
Y10021988D01*
Y10025192D01*
Y10028396D01*
Y10031600D01*
Y10034804D01*
Y10038009D01*
Y10041213D01*
Y10044417D01*
Y10047621D01*
X14828125D01*
Y10044417D01*
D02*
G37*
G36*
X15235052D02*
Y10041213D01*
X15228644D01*
Y10038009D01*
X15219032D01*
Y10034804D01*
X15215828D01*
Y10031600D01*
X15212624D01*
Y10028396D01*
Y10025192D01*
Y10021988D01*
X15209419D01*
Y10018784D01*
Y10015580D01*
Y10012375D01*
Y10009171D01*
Y10005967D01*
Y10002763D01*
Y9999559D01*
Y9996355D01*
Y9993150D01*
Y9989946D01*
Y9986742D01*
Y9983538D01*
Y9980334D01*
Y9977130D01*
X15212624D01*
Y9973925D01*
Y9970721D01*
Y9967517D01*
Y9964313D01*
Y9961109D01*
Y9957905D01*
Y9954701D01*
Y9951496D01*
Y9948292D01*
Y9945088D01*
Y9941884D01*
Y9938680D01*
X15215828D01*
Y9935476D01*
Y9932271D01*
X15219032D01*
Y9929067D01*
X15222237D01*
Y9925863D01*
X15228644D01*
Y9922659D01*
X15235052D01*
Y9919455D01*
X15177377D01*
Y9916251D01*
X15174174D01*
Y9919455D01*
Y9922659D01*
X15177377D01*
Y9925863D01*
X15186990D01*
Y9929067D01*
X15193399D01*
Y9932271D01*
X15196603D01*
Y9935476D01*
X15199808D01*
Y9938680D01*
Y9941884D01*
Y9945088D01*
Y9948292D01*
Y9951496D01*
Y9954701D01*
Y9957905D01*
X15203011D01*
Y9961109D01*
Y9964313D01*
Y9967517D01*
Y9970721D01*
Y9973925D01*
Y9977130D01*
Y9980334D01*
Y9983538D01*
Y9986742D01*
Y9989946D01*
Y9993150D01*
Y9996355D01*
Y9999559D01*
Y10002763D01*
Y10005967D01*
Y10009171D01*
Y10012375D01*
X15199808D01*
Y10009171D01*
X15196603D01*
Y10005967D01*
X15193399D01*
Y10002763D01*
X15190195D01*
Y9999559D01*
X15186990D01*
Y9996355D01*
X15183786D01*
Y9993150D01*
X15180582D01*
Y9989946D01*
X15177377D01*
Y9986742D01*
X15174174D01*
Y9983538D01*
Y9980334D01*
X15170969D01*
Y9977130D01*
X15167764D01*
Y9973925D01*
X15164561D01*
Y9970721D01*
X15161357D01*
Y9967517D01*
X15158153D01*
Y9964313D01*
X15154948D01*
Y9961109D01*
X15151746D01*
Y9957905D01*
X15148540D01*
Y9954701D01*
X15145335D01*
Y9951496D01*
X15142133D01*
Y9948292D01*
Y9945088D01*
X15138928D01*
Y9941884D01*
X15135724D01*
Y9938680D01*
X15132520D01*
Y9935476D01*
X15129315D01*
Y9932271D01*
X15126111D01*
Y9929067D01*
X15122906D01*
Y9925863D01*
X15119704D01*
Y9922659D01*
X15116499D01*
Y9919455D01*
Y9916251D01*
X15113295D01*
Y9913046D01*
X15106886D01*
Y9916251D01*
X15103682D01*
Y9919455D01*
Y9922659D01*
Y9925863D01*
Y9929067D01*
Y9932271D01*
Y9935476D01*
Y9938680D01*
Y9941884D01*
Y9945088D01*
Y9948292D01*
Y9951496D01*
Y9954701D01*
Y9957905D01*
Y9961109D01*
Y9964313D01*
Y9967517D01*
Y9970721D01*
Y9973925D01*
Y9977130D01*
Y9980334D01*
Y9983538D01*
Y9986742D01*
Y9989946D01*
Y9993150D01*
Y9996355D01*
Y9999559D01*
Y10002763D01*
Y10005967D01*
Y10009171D01*
Y10012375D01*
Y10015580D01*
Y10018784D01*
X15100478D01*
Y10021988D01*
Y10025192D01*
Y10028396D01*
Y10031600D01*
Y10034804D01*
X15097273D01*
Y10038009D01*
X15090865D01*
Y10041213D01*
X15084457D01*
Y10044417D01*
Y10047621D01*
X15138928D01*
Y10044417D01*
Y10041213D01*
X15129315D01*
Y10038009D01*
X15122906D01*
Y10034804D01*
X15119704D01*
Y10031600D01*
X15116499D01*
Y10028396D01*
Y10025192D01*
X15113295D01*
Y10021988D01*
Y10018784D01*
Y10015580D01*
Y10012375D01*
Y10009171D01*
Y10005967D01*
Y10002763D01*
Y9999559D01*
Y9996355D01*
Y9993150D01*
Y9989946D01*
Y9986742D01*
Y9983538D01*
Y9980334D01*
Y9977130D01*
Y9973925D01*
Y9970721D01*
Y9967517D01*
Y9964313D01*
Y9961109D01*
Y9957905D01*
X15116499D01*
Y9961109D01*
X15119704D01*
Y9964313D01*
X15122906D01*
Y9967517D01*
X15126111D01*
Y9970721D01*
X15129315D01*
Y9973925D01*
X15132520D01*
Y9977130D01*
X15135724D01*
Y9980334D01*
Y9983538D01*
X15138928D01*
Y9986742D01*
X15142133D01*
Y9989946D01*
X15145335D01*
Y9993150D01*
X15148540D01*
Y9996355D01*
X15151746D01*
Y9999559D01*
X15154948D01*
Y10002763D01*
X15158153D01*
Y10005967D01*
X15161357D01*
Y10009171D01*
Y10012375D01*
X15164561D01*
Y10015580D01*
X15167764D01*
Y10018784D01*
X15170969D01*
Y10021988D01*
X15174174D01*
Y10025192D01*
X15177377D01*
Y10028396D01*
X15180582D01*
Y10031600D01*
Y10034804D01*
X15183786D01*
Y10038009D01*
X15186990D01*
Y10041213D01*
X15190195D01*
Y10044417D01*
X15193399D01*
Y10047621D01*
X15235052D01*
Y10044417D01*
D02*
G37*
G36*
X14985127D02*
Y10041213D01*
X14978720D01*
Y10038009D01*
X14975516D01*
Y10034804D01*
X14972311D01*
Y10031600D01*
X14969107D01*
Y10028396D01*
X14965904D01*
Y10025192D01*
Y10021988D01*
X14962698D01*
Y10018784D01*
Y10015580D01*
X14959496D01*
Y10012375D01*
Y10009171D01*
Y10005967D01*
X14956291D01*
Y10002763D01*
Y9999559D01*
X14953087D01*
Y9996355D01*
Y9993150D01*
X14949883D01*
Y9989946D01*
Y9986742D01*
Y9983538D01*
X14946680D01*
Y9980334D01*
Y9977130D01*
X14943474D01*
Y9973925D01*
Y9970721D01*
Y9967517D01*
X14940269D01*
Y9964313D01*
Y9961109D01*
X14937067D01*
Y9957905D01*
Y9954701D01*
X14933862D01*
Y9951496D01*
Y9948292D01*
Y9945088D01*
X14930658D01*
Y9941884D01*
Y9938680D01*
X14927454D01*
Y9935476D01*
Y9932271D01*
Y9929067D01*
X14924249D01*
Y9925863D01*
Y9922659D01*
X14921045D01*
Y9919455D01*
Y9916251D01*
X14917841D01*
Y9913046D01*
X14911433D01*
Y9916251D01*
X14908229D01*
Y9919455D01*
Y9922659D01*
X14905025D01*
Y9925863D01*
Y9929067D01*
X14901820D01*
Y9932271D01*
Y9935476D01*
Y9938680D01*
X14898616D01*
Y9941884D01*
Y9945088D01*
X14895412D01*
Y9948292D01*
Y9951496D01*
X14892207D01*
Y9954701D01*
Y9957905D01*
Y9961109D01*
X14889005D01*
Y9964313D01*
Y9967517D01*
X14885800D01*
Y9970721D01*
Y9973925D01*
Y9977130D01*
X14882594D01*
Y9980334D01*
Y9983538D01*
X14879391D01*
Y9986742D01*
Y9989946D01*
X14876187D01*
Y9993150D01*
Y9996355D01*
Y9999559D01*
X14872983D01*
Y10002763D01*
Y10005967D01*
X14869778D01*
Y10009171D01*
Y10012375D01*
X14866576D01*
Y10015580D01*
Y10018784D01*
Y10021988D01*
X14863370D01*
Y10025192D01*
Y10028396D01*
X14860165D01*
Y10031600D01*
X14856963D01*
Y10034804D01*
X14853758D01*
Y10038009D01*
X14847350D01*
Y10041213D01*
X14840941D01*
Y10044417D01*
Y10047621D01*
X14898616D01*
Y10044417D01*
Y10041213D01*
X14889005D01*
Y10038009D01*
X14882594D01*
Y10034804D01*
X14879391D01*
Y10031600D01*
Y10028396D01*
Y10025192D01*
Y10021988D01*
Y10018784D01*
X14882594D01*
Y10015580D01*
Y10012375D01*
Y10009171D01*
X14885800D01*
Y10005967D01*
Y10002763D01*
Y9999559D01*
X14889005D01*
Y9996355D01*
Y9993150D01*
Y9989946D01*
X14892207D01*
Y9986742D01*
Y9983538D01*
Y9980334D01*
X14895412D01*
Y9977130D01*
Y9973925D01*
Y9970721D01*
X14898616D01*
Y9967517D01*
Y9964313D01*
Y9961109D01*
X14901820D01*
Y9957905D01*
Y9954701D01*
X14905025D01*
Y9951496D01*
Y9948292D01*
X14908229D01*
Y9951496D01*
Y9954701D01*
X14911433D01*
Y9957905D01*
Y9961109D01*
Y9964313D01*
X14914638D01*
Y9967517D01*
Y9970721D01*
Y9973925D01*
X14917841D01*
Y9977130D01*
Y9980334D01*
X14921045D01*
Y9983538D01*
Y9986742D01*
Y9989946D01*
X14924249D01*
Y9993150D01*
Y9996355D01*
X14927454D01*
Y9999559D01*
Y10002763D01*
Y10005967D01*
X14930658D01*
Y10009171D01*
Y10012375D01*
X14933862D01*
Y10015580D01*
Y10018784D01*
Y10021988D01*
X14937067D01*
Y10025192D01*
Y10028396D01*
Y10031600D01*
Y10034804D01*
X14933862D01*
Y10038009D01*
X14927454D01*
Y10041213D01*
X14921045D01*
Y10044417D01*
Y10047621D01*
X14985127D01*
Y10044417D01*
D02*
G37*
G36*
X15401669D02*
Y10041213D01*
X15392056D01*
Y10038009D01*
X15385648D01*
Y10034804D01*
X15382443D01*
Y10031600D01*
X15379240D01*
Y10028396D01*
Y10025192D01*
Y10021988D01*
Y10018784D01*
Y10015580D01*
Y10012375D01*
Y10009171D01*
Y10005967D01*
Y10002763D01*
Y9999559D01*
Y9996355D01*
Y9993150D01*
Y9989946D01*
Y9986742D01*
Y9983538D01*
Y9980334D01*
Y9977130D01*
Y9973925D01*
Y9970721D01*
Y9967517D01*
Y9964313D01*
Y9961109D01*
Y9957905D01*
Y9954701D01*
Y9951496D01*
X15376036D01*
Y9948292D01*
Y9945088D01*
Y9941884D01*
Y9938680D01*
X15372832D01*
Y9935476D01*
Y9932271D01*
X15369627D01*
Y9929067D01*
X15366423D01*
Y9925863D01*
X15363219D01*
Y9922659D01*
X15356812D01*
Y9919455D01*
X15350401D01*
Y9916251D01*
X15302341D01*
Y9919455D01*
X15292728D01*
Y9922659D01*
X15289523D01*
Y9925863D01*
X15283115D01*
Y9929067D01*
X15279910D01*
Y9932271D01*
Y9935476D01*
X15276707D01*
Y9938680D01*
Y9941884D01*
X15273503D01*
Y9945088D01*
Y9948292D01*
Y9951496D01*
Y9954701D01*
X15270297D01*
Y9957905D01*
Y9961109D01*
Y9964313D01*
Y9967517D01*
Y9970721D01*
Y9973925D01*
Y9977130D01*
Y9980334D01*
Y9983538D01*
Y9986742D01*
Y9989946D01*
Y9993150D01*
Y9996355D01*
Y9999559D01*
Y10002763D01*
Y10005967D01*
Y10009171D01*
Y10012375D01*
X15267094D01*
Y10015580D01*
Y10018784D01*
Y10021988D01*
Y10025192D01*
Y10028396D01*
Y10031600D01*
X15263890D01*
Y10034804D01*
X15260686D01*
Y10038009D01*
X15257481D01*
Y10041213D01*
X15251073D01*
Y10044417D01*
Y10047621D01*
X15305544D01*
Y10044417D01*
Y10041213D01*
X15295932D01*
Y10038009D01*
X15289523D01*
Y10034804D01*
X15286319D01*
Y10031600D01*
X15283115D01*
Y10028396D01*
Y10025192D01*
Y10021988D01*
X15279910D01*
Y10018784D01*
Y10015580D01*
Y10012375D01*
Y10009171D01*
Y10005967D01*
Y10002763D01*
Y9999559D01*
Y9996355D01*
Y9993150D01*
Y9989946D01*
Y9986742D01*
Y9983538D01*
Y9980334D01*
Y9977130D01*
Y9973925D01*
Y9970721D01*
Y9967517D01*
Y9964313D01*
Y9961109D01*
Y9957905D01*
Y9954701D01*
Y9951496D01*
X15283115D01*
Y9948292D01*
Y9945088D01*
Y9941884D01*
X15286319D01*
Y9938680D01*
X15289523D01*
Y9935476D01*
X15292728D01*
Y9932271D01*
X15295932D01*
Y9929067D01*
X15305544D01*
Y9925863D01*
X15321565D01*
Y9929067D01*
X15331177D01*
Y9932271D01*
X15337585D01*
Y9935476D01*
X15340790D01*
Y9938680D01*
X15343994D01*
Y9941884D01*
X15347198D01*
Y9945088D01*
X15350401D01*
Y9948292D01*
Y9951496D01*
Y9954701D01*
X15353606D01*
Y9957905D01*
Y9961109D01*
Y9964313D01*
Y9967517D01*
Y9970721D01*
Y9973925D01*
Y9977130D01*
Y9980334D01*
Y9983538D01*
Y9986742D01*
Y9989946D01*
Y9993150D01*
Y9996355D01*
Y9999559D01*
Y10002763D01*
Y10005967D01*
Y10009171D01*
Y10012375D01*
Y10015580D01*
Y10018784D01*
Y10021988D01*
Y10025192D01*
X15350401D01*
Y10028396D01*
Y10031600D01*
Y10034804D01*
X15347198D01*
Y10038009D01*
X15337585D01*
Y10041213D01*
X15327972D01*
Y10044417D01*
Y10047621D01*
X15401669D01*
Y10044417D01*
D02*
G37*
G36*
X14680733D02*
Y10041213D01*
X14671121D01*
Y10038009D01*
X14664713D01*
Y10034804D01*
X14661508D01*
Y10031600D01*
Y10028396D01*
Y10025192D01*
Y10021988D01*
X14658304D01*
Y10018784D01*
Y10015580D01*
Y10012375D01*
Y10009171D01*
Y10005967D01*
Y10002763D01*
Y9999559D01*
Y9996355D01*
Y9993150D01*
Y9989946D01*
Y9986742D01*
Y9983538D01*
Y9980334D01*
Y9977130D01*
Y9973925D01*
Y9970721D01*
Y9967517D01*
Y9964313D01*
Y9961109D01*
Y9957905D01*
Y9954701D01*
Y9951496D01*
Y9948292D01*
Y9945088D01*
X14661508D01*
Y9941884D01*
Y9938680D01*
Y9935476D01*
Y9932271D01*
X14664713D01*
Y9929067D01*
X14667917D01*
Y9925863D01*
X14680733D01*
Y9922659D01*
Y9919455D01*
X14607037D01*
Y9922659D01*
Y9925863D01*
X14619855D01*
Y9929067D01*
X14626263D01*
Y9932271D01*
X14629466D01*
Y9935476D01*
X14632671D01*
Y9938680D01*
Y9941884D01*
Y9945088D01*
Y9948292D01*
Y9951496D01*
Y9954701D01*
X14635875D01*
Y9957905D01*
Y9961109D01*
Y9964313D01*
Y9967517D01*
Y9970721D01*
Y9973925D01*
Y9977130D01*
X14623059D01*
Y9973925D01*
X14619855D01*
Y9970721D01*
X14616650D01*
Y9967517D01*
X14613446D01*
Y9964313D01*
Y9961109D01*
X14610242D01*
Y9957905D01*
X14607037D01*
Y9954701D01*
Y9951496D01*
X14603835D01*
Y9948292D01*
Y9945088D01*
X14600629D01*
Y9941884D01*
X14597424D01*
Y9938680D01*
Y9935476D01*
X14594221D01*
Y9932271D01*
X14591017D01*
Y9929067D01*
X14587813D01*
Y9925863D01*
X14584608D01*
Y9922659D01*
X14578200D01*
Y9919455D01*
X14562180D01*
Y9916251D01*
X14533342D01*
Y9919455D01*
Y9922659D01*
X14542955D01*
Y9925863D01*
X14549364D01*
Y9929067D01*
X14552567D01*
Y9932271D01*
X14558975D01*
Y9935476D01*
X14562180D01*
Y9938680D01*
X14565384D01*
Y9941884D01*
X14568588D01*
Y9945088D01*
X14571793D01*
Y9948292D01*
X14574995D01*
Y9951496D01*
Y9954701D01*
X14578200D01*
Y9957905D01*
X14581406D01*
Y9961109D01*
X14584608D01*
Y9964313D01*
Y9967517D01*
X14587813D01*
Y9970721D01*
Y9973925D01*
X14591017D01*
Y9977130D01*
X14594221D01*
Y9980334D01*
Y9983538D01*
Y9986742D01*
X14591017D01*
Y9989946D01*
X14584608D01*
Y9993150D01*
X14581406D01*
Y9996355D01*
X14578200D01*
Y9999559D01*
Y10002763D01*
X14574995D01*
Y10005967D01*
Y10009171D01*
Y10012375D01*
Y10015580D01*
Y10018784D01*
Y10021988D01*
Y10025192D01*
Y10028396D01*
X14578200D01*
Y10031600D01*
Y10034804D01*
X14581406D01*
Y10038009D01*
X14584608D01*
Y10041213D01*
X14591017D01*
Y10044417D01*
X14600629D01*
Y10047621D01*
X14680733D01*
Y10044417D01*
D02*
G37*
G36*
X14421198D02*
Y10041213D01*
X14408380D01*
Y10038009D01*
X14401971D01*
Y10034804D01*
Y10031600D01*
X14398767D01*
Y10028396D01*
Y10025192D01*
Y10021988D01*
Y10018784D01*
X14395564D01*
Y10015580D01*
Y10012375D01*
Y10009171D01*
Y10005967D01*
Y10002763D01*
Y9999559D01*
Y9996355D01*
Y9993150D01*
Y9989946D01*
Y9986742D01*
Y9983538D01*
Y9980334D01*
Y9977130D01*
Y9973925D01*
Y9970721D01*
Y9967517D01*
Y9964313D01*
Y9961109D01*
Y9957905D01*
Y9954701D01*
Y9951496D01*
Y9948292D01*
Y9945088D01*
X14398767D01*
Y9941884D01*
Y9938680D01*
Y9935476D01*
Y9932271D01*
X14401971D01*
Y9929067D01*
X14405176D01*
Y9925863D01*
X14414787D01*
Y9922659D01*
X14421198D01*
Y9919455D01*
X14347501D01*
Y9922659D01*
X14353909D01*
Y9925863D01*
X14363522D01*
Y9929067D01*
X14366727D01*
Y9932271D01*
X14369930D01*
Y9935476D01*
Y9938680D01*
Y9941884D01*
Y9945088D01*
Y9948292D01*
Y9951496D01*
Y9954701D01*
X14373134D01*
Y9957905D01*
Y9961109D01*
Y9964313D01*
Y9967517D01*
Y9970721D01*
Y9973925D01*
Y9977130D01*
Y9980334D01*
Y9983538D01*
Y9986742D01*
Y9989946D01*
Y9993150D01*
Y9996355D01*
Y9999559D01*
Y10002763D01*
Y10005967D01*
Y10009171D01*
Y10012375D01*
X14369930D01*
Y10015580D01*
Y10018784D01*
Y10021988D01*
Y10025192D01*
Y10028396D01*
Y10031600D01*
X14366727D01*
Y10034804D01*
X14363522D01*
Y10038009D01*
X14357114D01*
Y10041213D01*
X14347501D01*
Y10044417D01*
Y10047621D01*
X14421198D01*
Y10044417D01*
D02*
G37*
G36*
X14334685D02*
Y10041213D01*
X14325072D01*
Y10038009D01*
X14318665D01*
Y10034804D01*
X14315460D01*
Y10031600D01*
X14312254D01*
Y10028396D01*
Y10025192D01*
Y10021988D01*
Y10018784D01*
Y10015580D01*
X14309052D01*
Y10012375D01*
Y10009171D01*
Y10005967D01*
Y10002763D01*
Y9999559D01*
Y9996355D01*
Y9993150D01*
Y9989946D01*
Y9986742D01*
Y9983538D01*
Y9980334D01*
Y9977130D01*
Y9973925D01*
Y9970721D01*
Y9967517D01*
Y9964313D01*
Y9961109D01*
Y9957905D01*
Y9954701D01*
Y9951496D01*
X14312254D01*
Y9948292D01*
Y9945088D01*
Y9941884D01*
Y9938680D01*
Y9935476D01*
Y9932271D01*
X14315460D01*
Y9929067D01*
X14318665D01*
Y9925863D01*
X14328276D01*
Y9922659D01*
X14334685D01*
Y9919455D01*
X14238560D01*
Y9922659D01*
X14228947D01*
Y9925863D01*
X14222539D01*
Y9929067D01*
X14219334D01*
Y9932271D01*
X14212926D01*
Y9935476D01*
X14209721D01*
Y9938680D01*
X14206519D01*
Y9941884D01*
X14203314D01*
Y9945088D01*
X14200110D01*
Y9948292D01*
Y9951496D01*
X14196906D01*
Y9954701D01*
Y9957905D01*
X14193703D01*
Y9961109D01*
Y9964313D01*
Y9967517D01*
Y9970721D01*
X14190497D01*
Y9973925D01*
Y9977130D01*
Y9980334D01*
Y9983538D01*
Y9986742D01*
Y9989946D01*
X14193703D01*
Y9993150D01*
Y9996355D01*
Y9999559D01*
Y10002763D01*
Y10005967D01*
X14196906D01*
Y10009171D01*
Y10012375D01*
X14200110D01*
Y10015580D01*
X14203314D01*
Y10018784D01*
Y10021988D01*
X14206519D01*
Y10025192D01*
X14209721D01*
Y10028396D01*
X14212926D01*
Y10031600D01*
X14216132D01*
Y10034804D01*
X14222539D01*
Y10038009D01*
X14228947D01*
Y10041213D01*
X14238560D01*
Y10044417D01*
X14251376D01*
Y10047621D01*
X14334685D01*
Y10044417D01*
D02*
G37*
G36*
X14107188Y10060438D02*
Y10057234D01*
Y10054029D01*
Y10050825D01*
X14110393D01*
Y10047621D01*
X14113599D01*
Y10044417D01*
X14116801D01*
Y10041213D01*
X14120006D01*
Y10038009D01*
Y10034804D01*
Y10031600D01*
X14123210D01*
Y10028396D01*
Y10025192D01*
X14126414D01*
Y10021988D01*
Y10018784D01*
Y10015580D01*
X14129617D01*
Y10012375D01*
Y10009171D01*
X14132823D01*
Y10005967D01*
Y10002763D01*
Y9999559D01*
X14136028D01*
Y9996355D01*
Y9993150D01*
X14139230D01*
Y9989946D01*
Y9986742D01*
Y9983538D01*
X14142435D01*
Y9980334D01*
Y9977130D01*
Y9973925D01*
X14145639D01*
Y9970721D01*
Y9967517D01*
X14148843D01*
Y9964313D01*
Y9961109D01*
Y9957905D01*
X14152048D01*
Y9954701D01*
Y9951496D01*
X14155252D01*
Y9948292D01*
Y9945088D01*
X14158456D01*
Y9941884D01*
Y9938680D01*
X14161659D01*
Y9935476D01*
Y9932271D01*
X14164864D01*
Y9929067D01*
X14171272D01*
Y9925863D01*
X14177681D01*
Y9922659D01*
Y9919455D01*
X14120006D01*
Y9922659D01*
X14126414D01*
Y9925863D01*
X14136028D01*
Y9929067D01*
X14139230D01*
Y9932271D01*
X14142435D01*
Y9935476D01*
Y9938680D01*
Y9941884D01*
Y9945088D01*
Y9948292D01*
X14139230D01*
Y9951496D01*
Y9954701D01*
Y9957905D01*
Y9961109D01*
X14136028D01*
Y9964313D01*
Y9967517D01*
X14132823D01*
Y9970721D01*
X14097577D01*
Y9967517D01*
X14094373D01*
Y9964313D01*
Y9961109D01*
X14091168D01*
Y9957905D01*
Y9954701D01*
X14087964D01*
Y9951496D01*
Y9948292D01*
Y9945088D01*
X14084760D01*
Y9941884D01*
Y9938680D01*
Y9935476D01*
Y9932271D01*
Y9929067D01*
X14087964D01*
Y9925863D01*
X14097577D01*
Y9922659D01*
Y9919455D01*
X14036697D01*
Y9922659D01*
Y9925863D01*
X14046310D01*
Y9929067D01*
X14049513D01*
Y9932271D01*
X14052719D01*
Y9935476D01*
X14055923D01*
Y9938680D01*
Y9941884D01*
X14059126D01*
Y9945088D01*
Y9948292D01*
X14062331D01*
Y9951496D01*
Y9954701D01*
Y9957905D01*
X14065535D01*
Y9961109D01*
Y9964313D01*
Y9967517D01*
X14068739D01*
Y9970721D01*
Y9973925D01*
X14071944D01*
Y9977130D01*
Y9980334D01*
Y9983538D01*
X14075148D01*
Y9986742D01*
Y9989946D01*
Y9993150D01*
X14078352D01*
Y9996355D01*
Y9999559D01*
X14081557D01*
Y10002763D01*
Y10005967D01*
Y10009171D01*
X14084760D01*
Y10012375D01*
Y10015580D01*
Y10018784D01*
X14087964D01*
Y10021988D01*
Y10025192D01*
X14091168D01*
Y10028396D01*
Y10031600D01*
Y10034804D01*
X14094373D01*
Y10038009D01*
Y10041213D01*
Y10044417D01*
X14097577D01*
Y10047621D01*
Y10050825D01*
X14100781D01*
Y10054029D01*
Y10057234D01*
Y10060438D01*
X14103986D01*
Y10063642D01*
X14107188D01*
Y10060438D01*
D02*
G37*
G36*
X13998248Y10047621D02*
X14023882D01*
Y10044417D01*
X14020677D01*
Y10041213D01*
X14011064D01*
Y10038009D01*
X14007860D01*
Y10034804D01*
X14001453D01*
Y10031600D01*
Y10028396D01*
Y10025192D01*
Y10021988D01*
Y10018784D01*
X13998248D01*
Y10015580D01*
Y10012375D01*
Y10009171D01*
Y10005967D01*
Y10002763D01*
Y9999559D01*
Y9996355D01*
Y9993150D01*
Y9989946D01*
Y9986742D01*
Y9983538D01*
Y9980334D01*
Y9977130D01*
Y9973925D01*
Y9970721D01*
Y9967517D01*
Y9964313D01*
Y9961109D01*
Y9957905D01*
Y9954701D01*
Y9951496D01*
Y9948292D01*
X14001453D01*
Y9945088D01*
Y9941884D01*
Y9938680D01*
Y9935476D01*
Y9932271D01*
X14004655D01*
Y9929067D01*
X14011064D01*
Y9925863D01*
X14020677D01*
Y9922659D01*
X14023882D01*
Y9919455D01*
X13934164D01*
Y9922659D01*
X13921349D01*
Y9925863D01*
X13914940D01*
Y9929067D01*
X13908531D01*
Y9932271D01*
X13905327D01*
Y9935476D01*
X13898920D01*
Y9938680D01*
X13895715D01*
Y9941884D01*
X13892511D01*
Y9945088D01*
Y9948292D01*
X13889307D01*
Y9951496D01*
X13886102D01*
Y9954701D01*
Y9957905D01*
X13882898D01*
Y9961109D01*
Y9964313D01*
Y9967517D01*
Y9970721D01*
X13879694D01*
Y9973925D01*
Y9977130D01*
Y9980334D01*
Y9983538D01*
Y9986742D01*
Y9989946D01*
Y9993150D01*
X13882898D01*
Y9996355D01*
Y9999559D01*
Y10002763D01*
Y10005967D01*
X13886102D01*
Y10009171D01*
Y10012375D01*
X13889307D01*
Y10015580D01*
Y10018784D01*
X13892511D01*
Y10021988D01*
X13895715D01*
Y10025192D01*
X13898920D01*
Y10028396D01*
X13902122D01*
Y10031600D01*
X13905327D01*
Y10034804D01*
X13911736D01*
Y10038009D01*
X13914940D01*
Y10041213D01*
X13924551D01*
Y10044417D01*
X13934164D01*
Y10047621D01*
X13963002D01*
Y10050825D01*
X13998248D01*
Y10047621D01*
D02*
G37*
G36*
X15071642Y10044417D02*
Y10041213D01*
X15062029D01*
Y10038009D01*
X15055620D01*
Y10034804D01*
X15052415D01*
Y10031600D01*
X15049211D01*
Y10028396D01*
Y10025192D01*
Y10021988D01*
Y10018784D01*
Y10015580D01*
Y10012375D01*
Y10009171D01*
Y10005967D01*
X15046007D01*
Y10002763D01*
Y9999559D01*
Y9996355D01*
Y9993150D01*
Y9989946D01*
Y9986742D01*
Y9983538D01*
Y9980334D01*
Y9977130D01*
Y9973925D01*
Y9970721D01*
Y9967517D01*
Y9964313D01*
Y9961109D01*
Y9957905D01*
X15049211D01*
Y9954701D01*
Y9951496D01*
Y9948292D01*
Y9945088D01*
Y9941884D01*
Y9938680D01*
Y9935476D01*
X15052415D01*
Y9932271D01*
Y9929067D01*
X15055620D01*
Y9925863D01*
X15065231D01*
Y9922659D01*
X15071642D01*
Y9919455D01*
Y9916251D01*
X15068436D01*
Y9919455D01*
X15001149D01*
Y9916251D01*
X14997945D01*
Y9919455D01*
Y9922659D01*
X15007558D01*
Y9925863D01*
X15013966D01*
Y9929067D01*
X15017171D01*
Y9932271D01*
X15020374D01*
Y9935476D01*
Y9938680D01*
Y9941884D01*
Y9945088D01*
X15023578D01*
Y9948292D01*
Y9951496D01*
Y9954701D01*
Y9957905D01*
Y9961109D01*
Y9964313D01*
Y9967517D01*
Y9970721D01*
Y9973925D01*
Y9977130D01*
Y9980334D01*
Y9983538D01*
Y9986742D01*
Y9989946D01*
Y9993150D01*
Y9996355D01*
Y9999559D01*
Y10002763D01*
Y10005967D01*
Y10009171D01*
Y10012375D01*
Y10015580D01*
Y10018784D01*
Y10021988D01*
X15020374D01*
Y10025192D01*
Y10028396D01*
Y10031600D01*
X15017171D01*
Y10034804D01*
Y10038009D01*
X15007558D01*
Y10041213D01*
X14997945D01*
Y10044417D01*
Y10047621D01*
X15071642D01*
Y10044417D01*
D02*
G37*
G36*
X14478871Y10047621D02*
X14488484D01*
Y10044417D01*
X14494891D01*
Y10041213D01*
X14501302D01*
Y10038009D01*
X14504504D01*
Y10034804D01*
X14507709D01*
Y10031600D01*
Y10028396D01*
X14510913D01*
Y10025192D01*
Y10021988D01*
Y10018784D01*
Y10015580D01*
Y10012375D01*
Y10009171D01*
Y10005967D01*
Y10002763D01*
Y9999559D01*
Y9996355D01*
X14507709D01*
Y9993150D01*
X14504504D01*
Y9989946D01*
X14501302D01*
Y9986742D01*
X14498096D01*
Y9983538D01*
X14494891D01*
Y9980334D01*
X14488484D01*
Y9977130D01*
X14482076D01*
Y9973925D01*
X14478871D01*
Y9970721D01*
X14472462D01*
Y9967517D01*
X14469260D01*
Y9964313D01*
X14466055D01*
Y9961109D01*
X14462851D01*
Y9957905D01*
X14459647D01*
Y9954701D01*
X14456442D01*
Y9951496D01*
Y9948292D01*
Y9945088D01*
X14453238D01*
Y9941884D01*
X14456442D01*
Y9938680D01*
Y9935476D01*
Y9932271D01*
X14459647D01*
Y9929067D01*
X14462851D01*
Y9925863D01*
X14469260D01*
Y9922659D01*
X14478871D01*
Y9925863D01*
X14488484D01*
Y9929067D01*
X14494891D01*
Y9932271D01*
X14498096D01*
Y9935476D01*
X14501302D01*
Y9938680D01*
X14504504D01*
Y9941884D01*
Y9945088D01*
X14507709D01*
Y9948292D01*
Y9951496D01*
X14510913D01*
Y9954701D01*
Y9957905D01*
X14514117D01*
Y9961109D01*
Y9964313D01*
X14520525D01*
Y9961109D01*
Y9957905D01*
Y9954701D01*
Y9951496D01*
Y9948292D01*
X14517320D01*
Y9945088D01*
Y9941884D01*
Y9938680D01*
Y9935476D01*
Y9932271D01*
Y9929067D01*
Y9925863D01*
X14514117D01*
Y9922659D01*
X14507709D01*
Y9919455D01*
X14498096D01*
Y9916251D01*
X14456442D01*
Y9919455D01*
X14450034D01*
Y9922659D01*
X14443626D01*
Y9925863D01*
X14440422D01*
Y9929067D01*
X14437218D01*
Y9932271D01*
X14434013D01*
Y9935476D01*
Y9938680D01*
X14430809D01*
Y9941884D01*
Y9945088D01*
Y9948292D01*
Y9951496D01*
Y9954701D01*
Y9957905D01*
Y9961109D01*
Y9964313D01*
Y9967517D01*
X14434013D01*
Y9970721D01*
Y9973925D01*
X14437218D01*
Y9977130D01*
X14440422D01*
Y9980334D01*
X14443626D01*
Y9983538D01*
X14450034D01*
Y9986742D01*
X14453238D01*
Y9989946D01*
X14459647D01*
Y9993150D01*
X14462851D01*
Y9996355D01*
X14469260D01*
Y9999559D01*
X14472462D01*
Y10002763D01*
X14475667D01*
Y10005967D01*
X14478871D01*
Y10009171D01*
X14482076D01*
Y10012375D01*
X14485280D01*
Y10015580D01*
X14488484D01*
Y10018784D01*
Y10021988D01*
Y10025192D01*
Y10028396D01*
X14485280D01*
Y10031600D01*
Y10034804D01*
X14482076D01*
Y10038009D01*
X14478871D01*
Y10041213D01*
X14459647D01*
Y10038009D01*
X14456442D01*
Y10034804D01*
X14453238D01*
Y10031600D01*
X14450034D01*
Y10028396D01*
Y10025192D01*
X14446831D01*
Y10021988D01*
Y10018784D01*
Y10015580D01*
X14443626D01*
Y10012375D01*
Y10009171D01*
X14437218D01*
Y10012375D01*
Y10015580D01*
Y10018784D01*
Y10021988D01*
Y10025192D01*
Y10028396D01*
X14434013D01*
Y10031600D01*
Y10034804D01*
Y10038009D01*
Y10041213D01*
X14437218D01*
Y10044417D01*
X14443626D01*
Y10047621D01*
X14453238D01*
Y10050825D01*
X14478871D01*
Y10047621D01*
D02*
G37*
G36*
X14703163Y9881005D02*
Y9877801D01*
Y9874597D01*
Y9871393D01*
Y9868188D01*
Y9864984D01*
Y9861780D01*
Y9858576D01*
Y9855372D01*
X14706367D01*
Y9852167D01*
Y9848963D01*
Y9845759D01*
Y9842555D01*
Y9839351D01*
X14699957D01*
Y9842555D01*
Y9845759D01*
X14696754D01*
Y9848963D01*
Y9852167D01*
Y9855372D01*
X14693550D01*
Y9858576D01*
X14690346D01*
Y9861780D01*
X14687141D01*
Y9864984D01*
X14677528D01*
Y9868188D01*
X14655099D01*
Y9864984D01*
Y9861780D01*
Y9858576D01*
Y9855372D01*
Y9852167D01*
Y9848963D01*
Y9845759D01*
Y9842555D01*
Y9839351D01*
Y9836147D01*
Y9832942D01*
Y9829739D01*
Y9826534D01*
Y9823330D01*
Y9820126D01*
Y9816922D01*
Y9813718D01*
Y9810514D01*
Y9807309D01*
Y9804105D01*
Y9800901D01*
Y9797697D01*
Y9794493D01*
Y9791289D01*
Y9788084D01*
Y9784880D01*
Y9781676D01*
Y9778472D01*
Y9775268D01*
Y9772064D01*
Y9768860D01*
X14658304D01*
Y9765655D01*
Y9762451D01*
X14661508D01*
Y9759247D01*
X14664713D01*
Y9756043D01*
X14677528D01*
Y9752839D01*
Y9749635D01*
X14607037D01*
Y9752839D01*
X14610242D01*
Y9756043D01*
X14619855D01*
Y9759247D01*
X14623059D01*
Y9762451D01*
X14626263D01*
Y9765655D01*
Y9768860D01*
X14629466D01*
Y9772064D01*
Y9775268D01*
Y9778472D01*
Y9781676D01*
Y9784880D01*
Y9788084D01*
Y9791289D01*
Y9794493D01*
Y9797697D01*
Y9800901D01*
Y9804105D01*
Y9807309D01*
Y9810514D01*
Y9813718D01*
Y9816922D01*
Y9820126D01*
Y9823330D01*
Y9826534D01*
Y9829739D01*
Y9832942D01*
Y9836147D01*
Y9839351D01*
Y9842555D01*
Y9845759D01*
Y9848963D01*
Y9852167D01*
Y9855372D01*
Y9858576D01*
Y9861780D01*
Y9864984D01*
Y9868188D01*
X14607037D01*
Y9864984D01*
X14597424D01*
Y9861780D01*
X14594221D01*
Y9858576D01*
X14591017D01*
Y9855372D01*
Y9852167D01*
X14587813D01*
Y9848963D01*
Y9845759D01*
X14584608D01*
Y9842555D01*
Y9839351D01*
X14578200D01*
Y9842555D01*
Y9845759D01*
Y9848963D01*
Y9852167D01*
X14581406D01*
Y9855372D01*
Y9858576D01*
Y9861780D01*
Y9864984D01*
Y9868188D01*
Y9871393D01*
Y9874597D01*
Y9877801D01*
Y9881005D01*
Y9884209D01*
X14587813D01*
Y9881005D01*
X14594221D01*
Y9877801D01*
X14693550D01*
Y9881005D01*
X14696754D01*
Y9884209D01*
X14703163D01*
Y9881005D01*
D02*
G37*
G36*
X15017171Y9874597D02*
X15013966D01*
Y9871393D01*
X15004353D01*
Y9868188D01*
X15001149D01*
Y9864984D01*
X14997945D01*
Y9861780D01*
Y9858576D01*
Y9855372D01*
X14994740D01*
Y9852167D01*
Y9848963D01*
Y9845759D01*
Y9842555D01*
Y9839351D01*
Y9836147D01*
Y9832942D01*
Y9829739D01*
Y9826534D01*
Y9823330D01*
Y9820126D01*
Y9816922D01*
Y9813718D01*
Y9810514D01*
Y9807309D01*
Y9804105D01*
Y9800901D01*
Y9797697D01*
Y9794493D01*
Y9791289D01*
Y9788084D01*
Y9784880D01*
Y9781676D01*
Y9778472D01*
Y9775268D01*
X14997945D01*
Y9772064D01*
Y9768860D01*
Y9765655D01*
Y9762451D01*
X15001149D01*
Y9759247D01*
X15007558D01*
Y9756043D01*
X15017171D01*
Y9752839D01*
Y9749635D01*
X14892207D01*
Y9752839D01*
X14889005D01*
Y9756043D01*
Y9759247D01*
Y9762451D01*
Y9765655D01*
Y9768860D01*
X14885800D01*
Y9772064D01*
Y9775268D01*
Y9778472D01*
Y9781676D01*
Y9784880D01*
Y9788084D01*
Y9791289D01*
X14892207D01*
Y9788084D01*
Y9784880D01*
X14895412D01*
Y9781676D01*
Y9778472D01*
Y9775268D01*
X14898616D01*
Y9772064D01*
X14901820D01*
Y9768860D01*
X14905025D01*
Y9765655D01*
X14908229D01*
Y9762451D01*
X14914638D01*
Y9759247D01*
X14924249D01*
Y9756043D01*
X14953087D01*
Y9759247D01*
X14962698D01*
Y9762451D01*
X14965904D01*
Y9765655D01*
X14969107D01*
Y9768860D01*
Y9772064D01*
Y9775268D01*
Y9778472D01*
Y9781676D01*
Y9784880D01*
Y9788084D01*
Y9791289D01*
Y9794493D01*
Y9797697D01*
Y9800901D01*
Y9804105D01*
Y9807309D01*
Y9810514D01*
X14959496D01*
Y9807309D01*
X14953087D01*
Y9804105D01*
X14949883D01*
Y9800901D01*
X14946680D01*
Y9797697D01*
Y9794493D01*
Y9791289D01*
X14940269D01*
Y9794493D01*
Y9797697D01*
Y9800901D01*
Y9804105D01*
Y9807309D01*
Y9810514D01*
Y9813718D01*
Y9816922D01*
Y9820126D01*
Y9823330D01*
Y9826534D01*
Y9829739D01*
Y9832942D01*
Y9836147D01*
Y9839351D01*
X14946680D01*
Y9836147D01*
Y9832942D01*
X14949883D01*
Y9829739D01*
X14953087D01*
Y9826534D01*
X14956291D01*
Y9823330D01*
X14969107D01*
Y9826534D01*
Y9829739D01*
Y9832942D01*
Y9836147D01*
Y9839351D01*
Y9842555D01*
Y9845759D01*
Y9848963D01*
Y9852167D01*
Y9855372D01*
Y9858576D01*
Y9861780D01*
Y9864984D01*
Y9868188D01*
Y9871393D01*
X14946680D01*
Y9868188D01*
X14937067D01*
Y9864984D01*
X14933862D01*
Y9861780D01*
X14930658D01*
Y9858576D01*
X14927454D01*
Y9855372D01*
Y9852167D01*
Y9848963D01*
X14924249D01*
Y9845759D01*
X14921045D01*
Y9848963D01*
X14917841D01*
Y9852167D01*
Y9855372D01*
Y9858576D01*
Y9861780D01*
Y9864984D01*
Y9868188D01*
Y9871393D01*
Y9874597D01*
Y9877801D01*
X15017171D01*
Y9874597D01*
D02*
G37*
G36*
X14869778D02*
Y9871393D01*
X14856963D01*
Y9868188D01*
X14853758D01*
Y9864984D01*
X14850554D01*
Y9861780D01*
X14847350D01*
Y9858576D01*
Y9855372D01*
Y9852167D01*
Y9848963D01*
X14844145D01*
Y9845759D01*
Y9842555D01*
Y9839351D01*
Y9836147D01*
Y9832942D01*
Y9829739D01*
X14847350D01*
Y9826534D01*
Y9823330D01*
Y9820126D01*
Y9816922D01*
Y9813718D01*
Y9810514D01*
Y9807309D01*
Y9804105D01*
Y9800901D01*
Y9797697D01*
Y9794493D01*
Y9791289D01*
Y9788084D01*
Y9784880D01*
Y9781676D01*
Y9778472D01*
Y9775268D01*
Y9772064D01*
X14850554D01*
Y9768860D01*
Y9765655D01*
X14853758D01*
Y9762451D01*
X14856963D01*
Y9759247D01*
X14860165D01*
Y9756043D01*
X14869778D01*
Y9752839D01*
Y9749635D01*
X14808900D01*
Y9752839D01*
Y9756043D01*
X14818512D01*
Y9759247D01*
X14828125D01*
Y9762451D01*
X14831329D01*
Y9765655D01*
X14834534D01*
Y9768860D01*
Y9772064D01*
Y9775268D01*
Y9778472D01*
Y9781676D01*
X14837737D01*
Y9784880D01*
Y9788084D01*
Y9791289D01*
Y9794493D01*
Y9797697D01*
Y9800901D01*
Y9804105D01*
Y9807309D01*
Y9810514D01*
Y9813718D01*
Y9816922D01*
Y9820126D01*
Y9823330D01*
Y9826534D01*
Y9829739D01*
Y9832942D01*
Y9836147D01*
Y9839351D01*
Y9842555D01*
X14831329D01*
Y9839351D01*
Y9836147D01*
X14828125D01*
Y9832942D01*
X14824921D01*
Y9829739D01*
X14821716D01*
Y9826534D01*
X14818512D01*
Y9823330D01*
X14815308D01*
Y9820126D01*
X14812103D01*
Y9816922D01*
X14808900D01*
Y9813718D01*
X14805696D01*
Y9810514D01*
X14802492D01*
Y9807309D01*
X14799287D01*
Y9804105D01*
Y9800901D01*
X14796083D01*
Y9797697D01*
X14792879D01*
Y9794493D01*
X14789674D01*
Y9791289D01*
X14786472D01*
Y9788084D01*
X14783266D01*
Y9784880D01*
X14780061D01*
Y9781676D01*
X14776859D01*
Y9778472D01*
X14773654D01*
Y9775268D01*
X14770450D01*
Y9772064D01*
X14767245D01*
Y9768860D01*
Y9765655D01*
X14764043D01*
Y9762451D01*
X14760837D01*
Y9759247D01*
X14757632D01*
Y9756043D01*
X14754430D01*
Y9752839D01*
X14751225D01*
Y9749635D01*
X14748021D01*
Y9746430D01*
X14738408D01*
Y9749635D01*
Y9752839D01*
Y9756043D01*
Y9759247D01*
Y9762451D01*
Y9765655D01*
Y9768860D01*
Y9772064D01*
Y9775268D01*
Y9778472D01*
Y9781676D01*
Y9784880D01*
Y9788084D01*
Y9791289D01*
Y9794493D01*
Y9797697D01*
Y9800901D01*
Y9804105D01*
Y9807309D01*
Y9810514D01*
Y9813718D01*
Y9816922D01*
Y9820126D01*
Y9823330D01*
Y9826534D01*
Y9829739D01*
Y9832942D01*
Y9836147D01*
Y9839351D01*
Y9842555D01*
Y9845759D01*
Y9848963D01*
Y9852167D01*
Y9855372D01*
X14735204D01*
Y9858576D01*
Y9861780D01*
Y9864984D01*
X14732001D01*
Y9868188D01*
X14728796D01*
Y9871393D01*
X14722388D01*
Y9874597D01*
X14719183D01*
Y9877801D01*
X14776859D01*
Y9874597D01*
X14770450D01*
Y9871393D01*
X14760837D01*
Y9868188D01*
X14754430D01*
Y9864984D01*
X14751225D01*
Y9861780D01*
Y9858576D01*
Y9855372D01*
Y9852167D01*
X14748021D01*
Y9848963D01*
Y9845759D01*
Y9842555D01*
Y9839351D01*
Y9836147D01*
Y9832942D01*
Y9829739D01*
Y9826534D01*
Y9823330D01*
Y9820126D01*
Y9816922D01*
Y9813718D01*
Y9810514D01*
Y9807309D01*
Y9804105D01*
Y9800901D01*
Y9797697D01*
Y9794493D01*
Y9791289D01*
Y9788084D01*
X14751225D01*
Y9791289D01*
X14754430D01*
Y9794493D01*
X14757632D01*
Y9797697D01*
X14760837D01*
Y9800901D01*
X14764043D01*
Y9804105D01*
Y9807309D01*
X14767245D01*
Y9810514D01*
X14770450D01*
Y9813718D01*
X14773654D01*
Y9816922D01*
X14776859D01*
Y9820126D01*
X14780061D01*
Y9823330D01*
X14783266D01*
Y9826534D01*
X14786472D01*
Y9829739D01*
X14789674D01*
Y9832942D01*
Y9836147D01*
X14792879D01*
Y9839351D01*
X14796083D01*
Y9842555D01*
X14799287D01*
Y9845759D01*
X14802492D01*
Y9848963D01*
X14805696D01*
Y9852167D01*
X14808900D01*
Y9855372D01*
Y9858576D01*
X14812103D01*
Y9861780D01*
X14815308D01*
Y9864984D01*
X14818512D01*
Y9868188D01*
X14821716D01*
Y9871393D01*
X14824921D01*
Y9874597D01*
Y9877801D01*
X14869778D01*
Y9874597D01*
D02*
G37*
G36*
X14248172D02*
X14244968D01*
Y9871393D01*
X14235356D01*
Y9868188D01*
X14228947D01*
Y9864984D01*
Y9861780D01*
X14225743D01*
Y9858576D01*
Y9855372D01*
Y9852167D01*
Y9848963D01*
Y9845759D01*
Y9842555D01*
Y9839351D01*
Y9836147D01*
Y9832942D01*
Y9829739D01*
Y9826534D01*
Y9823330D01*
Y9820126D01*
Y9816922D01*
Y9813718D01*
Y9810514D01*
Y9807309D01*
Y9804105D01*
Y9800901D01*
Y9797697D01*
Y9794493D01*
Y9791289D01*
Y9788084D01*
Y9784880D01*
Y9781676D01*
Y9778472D01*
Y9775268D01*
Y9772064D01*
Y9768860D01*
Y9765655D01*
X14228947D01*
Y9762451D01*
Y9759247D01*
X14235356D01*
Y9756043D01*
X14248172D01*
Y9752839D01*
Y9749635D01*
X14136028D01*
Y9752839D01*
Y9756043D01*
Y9759247D01*
X14132823D01*
Y9762451D01*
Y9765655D01*
Y9768860D01*
X14129617D01*
Y9772064D01*
Y9775268D01*
Y9778472D01*
Y9781676D01*
X14126414D01*
Y9784880D01*
Y9788084D01*
Y9791289D01*
X14123210D01*
Y9794493D01*
X14132823D01*
Y9791289D01*
Y9788084D01*
X14136028D01*
Y9784880D01*
Y9781676D01*
X14139230D01*
Y9778472D01*
X14142435D01*
Y9775268D01*
X14145639D01*
Y9772064D01*
Y9768860D01*
X14152048D01*
Y9765655D01*
X14155252D01*
Y9762451D01*
X14164864D01*
Y9759247D01*
X14200110D01*
Y9762451D01*
Y9765655D01*
Y9768860D01*
Y9772064D01*
Y9775268D01*
Y9778472D01*
Y9781676D01*
Y9784880D01*
Y9788084D01*
Y9791289D01*
Y9794493D01*
Y9797697D01*
Y9800901D01*
Y9804105D01*
Y9807309D01*
Y9810514D01*
Y9813718D01*
Y9816922D01*
Y9820126D01*
Y9823330D01*
Y9826534D01*
Y9829739D01*
Y9832942D01*
Y9836147D01*
Y9839351D01*
Y9842555D01*
Y9845759D01*
Y9848963D01*
Y9852167D01*
Y9855372D01*
X14196906D01*
Y9858576D01*
Y9861780D01*
Y9864984D01*
X14193703D01*
Y9868188D01*
X14190497D01*
Y9871393D01*
X14177681D01*
Y9874597D01*
X14174477D01*
Y9877801D01*
X14248172D01*
Y9874597D01*
D02*
G37*
G36*
X15103682Y9877801D02*
X15116499D01*
Y9874597D01*
X15122906D01*
Y9871393D01*
X15129315D01*
Y9868188D01*
X15132520D01*
Y9864984D01*
X15138928D01*
Y9861780D01*
X15142133D01*
Y9858576D01*
X15145335D01*
Y9855372D01*
Y9852167D01*
X15148540D01*
Y9848963D01*
X15151746D01*
Y9845759D01*
Y9842555D01*
X15154948D01*
Y9839351D01*
Y9836147D01*
X15158153D01*
Y9832942D01*
Y9829739D01*
Y9826534D01*
Y9823330D01*
Y9820126D01*
Y9816922D01*
X15161357D01*
Y9813718D01*
Y9810514D01*
Y9807309D01*
X15158153D01*
Y9804105D01*
Y9800901D01*
Y9797697D01*
Y9794493D01*
Y9791289D01*
Y9788084D01*
X15154948D01*
Y9784880D01*
Y9781676D01*
X15151746D01*
Y9778472D01*
Y9775268D01*
X15148540D01*
Y9772064D01*
X15145335D01*
Y9768860D01*
Y9765655D01*
X15142133D01*
Y9762451D01*
X15135724D01*
Y9759247D01*
X15132520D01*
Y9756043D01*
X15126111D01*
Y9752839D01*
X15119704D01*
Y9749635D01*
X15110091D01*
Y9746430D01*
X15058824D01*
Y9749635D01*
X15049211D01*
Y9752839D01*
X15042802D01*
Y9756043D01*
Y9759247D01*
X15039600D01*
Y9762451D01*
Y9765655D01*
Y9768860D01*
X15036395D01*
Y9772064D01*
Y9775268D01*
Y9778472D01*
Y9781676D01*
X15033191D01*
Y9784880D01*
Y9788084D01*
Y9791289D01*
Y9794493D01*
X15039600D01*
Y9791289D01*
Y9788084D01*
X15042802D01*
Y9784880D01*
Y9781676D01*
X15046007D01*
Y9778472D01*
Y9775268D01*
X15049211D01*
Y9772064D01*
X15052415D01*
Y9768860D01*
X15055620D01*
Y9765655D01*
X15058824D01*
Y9762451D01*
X15062029D01*
Y9759247D01*
X15068436D01*
Y9756043D01*
X15078049D01*
Y9752839D01*
X15087662D01*
Y9756043D01*
X15097273D01*
Y9759247D01*
X15103682D01*
Y9762451D01*
X15106886D01*
Y9765655D01*
X15113295D01*
Y9768860D01*
X15116499D01*
Y9772064D01*
Y9775268D01*
X15119704D01*
Y9778472D01*
X15122906D01*
Y9781676D01*
Y9784880D01*
X15126111D01*
Y9788084D01*
Y9791289D01*
Y9794493D01*
X15129315D01*
Y9797697D01*
Y9800901D01*
Y9804105D01*
Y9807309D01*
Y9810514D01*
Y9813718D01*
Y9816922D01*
Y9820126D01*
Y9823330D01*
Y9826534D01*
Y9829739D01*
Y9832942D01*
Y9836147D01*
X15126111D01*
Y9839351D01*
Y9842555D01*
Y9845759D01*
X15122906D01*
Y9848963D01*
Y9852167D01*
X15119704D01*
Y9855372D01*
X15116499D01*
Y9858576D01*
X15113295D01*
Y9861780D01*
X15110091D01*
Y9864984D01*
X15106886D01*
Y9868188D01*
X15097273D01*
Y9871393D01*
X15071642D01*
Y9868188D01*
X15065231D01*
Y9864984D01*
X15062029D01*
Y9861780D01*
X15058824D01*
Y9858576D01*
X15055620D01*
Y9855372D01*
X15052415D01*
Y9852167D01*
Y9848963D01*
X15049211D01*
Y9845759D01*
Y9842555D01*
Y9839351D01*
X15046007D01*
Y9836147D01*
Y9832942D01*
X15039600D01*
Y9836147D01*
Y9839351D01*
Y9842555D01*
Y9845759D01*
Y9848963D01*
Y9852167D01*
Y9855372D01*
Y9858576D01*
Y9861780D01*
Y9864984D01*
Y9868188D01*
Y9871393D01*
X15042802D01*
Y9874597D01*
X15052415D01*
Y9877801D01*
X15065231D01*
Y9881005D01*
X15103682D01*
Y9877801D01*
D02*
G37*
G36*
X14565384Y9874597D02*
X14562180D01*
Y9871393D01*
X14552567D01*
Y9868188D01*
X14549364D01*
Y9864984D01*
X14542955D01*
Y9861780D01*
Y9858576D01*
Y9855372D01*
Y9852167D01*
Y9848963D01*
Y9845759D01*
X14539751D01*
Y9842555D01*
Y9839351D01*
Y9836147D01*
Y9832942D01*
Y9829739D01*
Y9826534D01*
Y9823330D01*
Y9820126D01*
Y9816922D01*
Y9813718D01*
Y9810514D01*
Y9807309D01*
Y9804105D01*
Y9800901D01*
Y9797697D01*
Y9794493D01*
Y9791289D01*
Y9788084D01*
Y9784880D01*
Y9781676D01*
X14542955D01*
Y9778472D01*
Y9775268D01*
Y9772064D01*
Y9768860D01*
Y9765655D01*
X14546159D01*
Y9762451D01*
Y9759247D01*
X14552567D01*
Y9756043D01*
X14562180D01*
Y9752839D01*
X14565384D01*
Y9749635D01*
X14488484D01*
Y9752839D01*
Y9756043D01*
X14501302D01*
Y9759247D01*
X14510913D01*
Y9762451D01*
X14514117D01*
Y9765655D01*
Y9768860D01*
Y9772064D01*
X14517320D01*
Y9775268D01*
Y9778472D01*
Y9781676D01*
Y9784880D01*
Y9788084D01*
Y9791289D01*
Y9794493D01*
Y9797697D01*
Y9800901D01*
Y9804105D01*
Y9807309D01*
X14504504D01*
Y9804105D01*
X14501302D01*
Y9800901D01*
X14498096D01*
Y9797697D01*
X14494891D01*
Y9794493D01*
Y9791289D01*
X14491689D01*
Y9788084D01*
Y9784880D01*
X14488484D01*
Y9781676D01*
X14485280D01*
Y9778472D01*
Y9775268D01*
X14482076D01*
Y9772064D01*
X14478871D01*
Y9768860D01*
Y9765655D01*
X14475667D01*
Y9762451D01*
X14472462D01*
Y9759247D01*
X14469260D01*
Y9756043D01*
X14466055D01*
Y9752839D01*
X14459647D01*
Y9749635D01*
X14440422D01*
Y9746430D01*
X14417992D01*
Y9749635D01*
Y9752839D01*
X14424400D01*
Y9756043D01*
X14430809D01*
Y9759247D01*
X14434013D01*
Y9762451D01*
X14440422D01*
Y9765655D01*
X14443626D01*
Y9768860D01*
X14446831D01*
Y9772064D01*
X14450034D01*
Y9775268D01*
X14453238D01*
Y9778472D01*
X14456442D01*
Y9781676D01*
X14459647D01*
Y9784880D01*
Y9788084D01*
X14462851D01*
Y9791289D01*
X14466055D01*
Y9794493D01*
Y9797697D01*
X14469260D01*
Y9800901D01*
X14472462D01*
Y9804105D01*
Y9807309D01*
X14475667D01*
Y9810514D01*
Y9813718D01*
X14478871D01*
Y9816922D01*
X14472462D01*
Y9820126D01*
X14469260D01*
Y9823330D01*
X14466055D01*
Y9826534D01*
X14462851D01*
Y9829739D01*
X14459647D01*
Y9832942D01*
X14456442D01*
Y9836147D01*
Y9839351D01*
Y9842555D01*
Y9845759D01*
Y9848963D01*
Y9852167D01*
Y9855372D01*
Y9858576D01*
X14459647D01*
Y9861780D01*
Y9864984D01*
X14462851D01*
Y9868188D01*
X14466055D01*
Y9871393D01*
X14472462D01*
Y9874597D01*
X14482076D01*
Y9877801D01*
X14565384D01*
Y9874597D01*
D02*
G37*
G36*
X14331480Y9890618D02*
Y9887413D01*
Y9884209D01*
Y9881005D01*
X14334685D01*
Y9877801D01*
X14337889D01*
Y9874597D01*
X14344296D01*
Y9871393D01*
Y9868188D01*
Y9864984D01*
Y9861780D01*
X14347501D01*
Y9858576D01*
Y9855372D01*
X14350705D01*
Y9852167D01*
Y9848963D01*
Y9845759D01*
X14353909D01*
Y9842555D01*
Y9839351D01*
X14357114D01*
Y9836147D01*
Y9832942D01*
Y9829739D01*
X14360318D01*
Y9826534D01*
Y9823330D01*
Y9820126D01*
X14363522D01*
Y9816922D01*
Y9813718D01*
X14366727D01*
Y9810514D01*
Y9807309D01*
Y9804105D01*
X14369930D01*
Y9800901D01*
Y9797697D01*
X14373134D01*
Y9794493D01*
Y9791289D01*
Y9788084D01*
X14376340D01*
Y9784880D01*
Y9781676D01*
X14379543D01*
Y9778472D01*
Y9775268D01*
X14382747D01*
Y9772064D01*
Y9768860D01*
X14385951D01*
Y9765655D01*
Y9762451D01*
X14389156D01*
Y9759247D01*
X14395564D01*
Y9756043D01*
X14401971D01*
Y9752839D01*
Y9749635D01*
X14344296D01*
Y9752839D01*
X14347501D01*
Y9756043D01*
X14360318D01*
Y9759247D01*
X14363522D01*
Y9762451D01*
X14366727D01*
Y9765655D01*
Y9768860D01*
Y9772064D01*
Y9775268D01*
Y9778472D01*
X14363522D01*
Y9781676D01*
Y9784880D01*
Y9788084D01*
X14360318D01*
Y9791289D01*
Y9794493D01*
Y9797697D01*
X14357114D01*
Y9800901D01*
X14321867D01*
Y9797697D01*
X14318665D01*
Y9794493D01*
X14315460D01*
Y9791289D01*
Y9788084D01*
Y9784880D01*
X14312254D01*
Y9781676D01*
Y9778472D01*
Y9775268D01*
X14309052D01*
Y9772064D01*
Y9768860D01*
Y9765655D01*
Y9762451D01*
Y9759247D01*
X14312254D01*
Y9756043D01*
X14321867D01*
Y9752839D01*
Y9749635D01*
X14260989D01*
Y9752839D01*
Y9756043D01*
X14267397D01*
Y9759247D01*
X14273805D01*
Y9762451D01*
X14277010D01*
Y9765655D01*
Y9768860D01*
X14280214D01*
Y9772064D01*
X14283418D01*
Y9775268D01*
Y9778472D01*
X14286623D01*
Y9781676D01*
Y9784880D01*
Y9788084D01*
X14289825D01*
Y9791289D01*
Y9794493D01*
Y9797697D01*
X14293030D01*
Y9800901D01*
Y9804105D01*
Y9807309D01*
X14296236D01*
Y9810514D01*
Y9813718D01*
X14299438D01*
Y9816922D01*
Y9820126D01*
Y9823330D01*
X14302643D01*
Y9826534D01*
Y9829739D01*
Y9832942D01*
X14305847D01*
Y9836147D01*
Y9839351D01*
X14309052D01*
Y9842555D01*
Y9845759D01*
Y9848963D01*
X14312254D01*
Y9852167D01*
Y9855372D01*
Y9858576D01*
X14315460D01*
Y9861780D01*
Y9864984D01*
X14318665D01*
Y9868188D01*
Y9871393D01*
Y9874597D01*
X14321867D01*
Y9877801D01*
Y9881005D01*
Y9884209D01*
X14325072D01*
Y9887413D01*
Y9890618D01*
X14328276D01*
Y9893821D01*
X14331480D01*
Y9890618D01*
D02*
G37*
G36*
X15204485Y9521054D02*
Y9519031D01*
Y9517008D01*
Y9514986D01*
Y9512963D01*
Y9510940D01*
X15190324D01*
Y9512963D01*
Y9514986D01*
Y9517008D01*
Y9519031D01*
Y9521054D01*
Y9523076D01*
X15204485D01*
Y9521054D01*
D02*
G37*
G36*
X14318538D02*
Y9519031D01*
Y9517008D01*
Y9514986D01*
Y9512963D01*
Y9510940D01*
X14304379D01*
Y9512963D01*
Y9514986D01*
Y9517008D01*
Y9519031D01*
Y9521054D01*
Y9523076D01*
X14318538D01*
Y9521054D01*
D02*
G37*
G36*
X14753419Y9484645D02*
X14755441D01*
Y9482622D01*
X14757465D01*
Y9480600D01*
Y9478577D01*
Y9476554D01*
Y9474531D01*
X14755441D01*
Y9472509D01*
X14753419D01*
Y9470486D01*
X14749374D01*
Y9472509D01*
X14747353D01*
Y9474531D01*
X14745329D01*
Y9476554D01*
Y9478577D01*
Y9480600D01*
Y9482622D01*
X14747353D01*
Y9484645D01*
Y9486668D01*
X14753419D01*
Y9484645D01*
D02*
G37*
G36*
X14397423Y9521054D02*
Y9519031D01*
Y9517008D01*
Y9514986D01*
Y9512963D01*
Y9510940D01*
Y9508918D01*
Y9506895D01*
Y9504872D01*
Y9502849D01*
Y9500827D01*
Y9498804D01*
Y9496781D01*
Y9494759D01*
Y9492736D01*
Y9490713D01*
Y9488691D01*
Y9486668D01*
Y9484645D01*
Y9482622D01*
Y9480600D01*
Y9478577D01*
Y9476554D01*
Y9474531D01*
Y9472509D01*
Y9470486D01*
Y9468463D01*
Y9466441D01*
Y9464418D01*
Y9462395D01*
Y9460373D01*
Y9458350D01*
Y9456327D01*
Y9454304D01*
Y9452282D01*
Y9450259D01*
Y9448236D01*
Y9446214D01*
Y9444191D01*
Y9442168D01*
Y9440145D01*
Y9438123D01*
Y9436100D01*
Y9434077D01*
X14387309D01*
Y9436100D01*
Y9438123D01*
Y9440145D01*
Y9442168D01*
Y9444191D01*
Y9446214D01*
Y9448236D01*
Y9450259D01*
Y9452282D01*
Y9454304D01*
Y9456327D01*
Y9458350D01*
Y9460373D01*
Y9462395D01*
Y9464418D01*
Y9466441D01*
Y9468463D01*
Y9470486D01*
Y9472509D01*
Y9474531D01*
Y9476554D01*
Y9478577D01*
Y9480600D01*
Y9482622D01*
Y9484645D01*
Y9486668D01*
Y9488691D01*
Y9490713D01*
Y9492736D01*
Y9494759D01*
X14385287D01*
Y9492736D01*
Y9490713D01*
Y9488691D01*
X14383264D01*
Y9486668D01*
Y9484645D01*
Y9482622D01*
Y9480600D01*
X14381241D01*
Y9478577D01*
Y9476554D01*
Y9474531D01*
Y9472509D01*
X14379219D01*
Y9470486D01*
Y9468463D01*
Y9466441D01*
X14377196D01*
Y9464418D01*
Y9462395D01*
Y9460373D01*
Y9458350D01*
X14375172D01*
Y9456327D01*
Y9454304D01*
Y9452282D01*
Y9450259D01*
X14373151D01*
Y9448236D01*
Y9446214D01*
Y9444191D01*
Y9442168D01*
X14371127D01*
Y9440145D01*
Y9438123D01*
Y9436100D01*
Y9434077D01*
X14358992D01*
Y9436100D01*
X14356969D01*
Y9438123D01*
Y9440145D01*
Y9442168D01*
Y9444191D01*
X14354945D01*
Y9446214D01*
Y9448236D01*
Y9450259D01*
Y9452282D01*
X14352924D01*
Y9454304D01*
Y9456327D01*
Y9458350D01*
Y9460373D01*
X14350900D01*
Y9462395D01*
Y9464418D01*
Y9466441D01*
Y9468463D01*
X14348878D01*
Y9470486D01*
Y9472509D01*
Y9474531D01*
Y9476554D01*
X14346855D01*
Y9478577D01*
Y9480600D01*
Y9482622D01*
Y9484645D01*
X14344833D01*
Y9486668D01*
Y9488691D01*
Y9490713D01*
Y9492736D01*
X14342810D01*
Y9490713D01*
Y9488691D01*
Y9486668D01*
Y9484645D01*
Y9482622D01*
Y9480600D01*
Y9478577D01*
Y9476554D01*
Y9474531D01*
Y9472509D01*
Y9470486D01*
Y9468463D01*
Y9466441D01*
Y9464418D01*
Y9462395D01*
Y9460373D01*
Y9458350D01*
Y9456327D01*
Y9454304D01*
Y9452282D01*
Y9450259D01*
Y9448236D01*
Y9446214D01*
Y9444191D01*
Y9442168D01*
Y9440145D01*
Y9438123D01*
Y9436100D01*
Y9434077D01*
X14332697D01*
Y9436100D01*
Y9438123D01*
Y9440145D01*
Y9442168D01*
Y9444191D01*
Y9446214D01*
Y9448236D01*
Y9450259D01*
Y9452282D01*
Y9454304D01*
Y9456327D01*
Y9458350D01*
Y9460373D01*
Y9462395D01*
Y9464418D01*
Y9466441D01*
Y9468463D01*
Y9470486D01*
Y9472509D01*
Y9474531D01*
Y9476554D01*
Y9478577D01*
Y9480600D01*
Y9482622D01*
Y9484645D01*
Y9486668D01*
Y9488691D01*
Y9490713D01*
Y9492736D01*
Y9494759D01*
Y9496781D01*
Y9498804D01*
Y9500827D01*
Y9502849D01*
Y9504872D01*
Y9506895D01*
Y9508918D01*
Y9510940D01*
Y9512963D01*
Y9514986D01*
Y9517008D01*
Y9519031D01*
Y9521054D01*
Y9523076D01*
X14346855D01*
Y9521054D01*
Y9519031D01*
X14348878D01*
Y9517008D01*
Y9514986D01*
Y9512963D01*
Y9510940D01*
X14350900D01*
Y9508918D01*
Y9506895D01*
Y9504872D01*
Y9502849D01*
X14352924D01*
Y9500827D01*
Y9498804D01*
Y9496781D01*
Y9494759D01*
X14354945D01*
Y9492736D01*
Y9490713D01*
Y9488691D01*
Y9486668D01*
X14356969D01*
Y9484645D01*
Y9482622D01*
Y9480600D01*
Y9478577D01*
X14358992D01*
Y9476554D01*
Y9474531D01*
Y9472509D01*
Y9470486D01*
X14361014D01*
Y9468463D01*
Y9466441D01*
Y9464418D01*
Y9462395D01*
X14363037D01*
Y9460373D01*
Y9458350D01*
Y9456327D01*
X14365060D01*
Y9458350D01*
Y9460373D01*
X14367084D01*
Y9462395D01*
Y9464418D01*
Y9466441D01*
Y9468463D01*
X14369106D01*
Y9470486D01*
Y9472509D01*
Y9474531D01*
Y9476554D01*
X14371127D01*
Y9478577D01*
Y9480600D01*
Y9482622D01*
Y9484645D01*
X14373151D01*
Y9486668D01*
Y9488691D01*
Y9490713D01*
Y9492736D01*
X14375172D01*
Y9494759D01*
Y9496781D01*
Y9498804D01*
X14377196D01*
Y9500827D01*
Y9502849D01*
Y9504872D01*
Y9506895D01*
X14379219D01*
Y9508918D01*
Y9510940D01*
Y9512963D01*
Y9514986D01*
X14381241D01*
Y9517008D01*
Y9519031D01*
Y9521054D01*
Y9523076D01*
X14397423D01*
Y9521054D01*
D02*
G37*
G36*
X14832304Y9502849D02*
X14830283D01*
Y9500827D01*
Y9498804D01*
Y9496781D01*
X14828259D01*
Y9494759D01*
Y9492736D01*
X14826237D01*
Y9490713D01*
Y9488691D01*
Y9486668D01*
X14824216D01*
Y9484645D01*
Y9482622D01*
X14822192D01*
Y9480600D01*
Y9478577D01*
Y9476554D01*
X14820169D01*
Y9474531D01*
Y9472509D01*
Y9470486D01*
X14818146D01*
Y9468463D01*
Y9466441D01*
X14816124D01*
Y9464418D01*
Y9462395D01*
Y9460373D01*
X14814101D01*
Y9458350D01*
Y9456327D01*
Y9454304D01*
X14812077D01*
Y9452282D01*
Y9450259D01*
X14810056D01*
Y9448236D01*
Y9446214D01*
Y9444191D01*
X14808034D01*
Y9442168D01*
Y9440145D01*
X14806010D01*
Y9438123D01*
Y9436100D01*
Y9434077D01*
Y9432055D01*
Y9430032D01*
X14808034D01*
Y9428009D01*
Y9425986D01*
Y9423964D01*
X14810056D01*
Y9421941D01*
Y9419918D01*
Y9417896D01*
X14812077D01*
Y9415873D01*
Y9413850D01*
Y9411828D01*
X14814101D01*
Y9409805D01*
Y9407782D01*
X14816124D01*
Y9405759D01*
Y9403737D01*
X14803987D01*
Y9405759D01*
Y9407782D01*
X14801965D01*
Y9409805D01*
Y9411828D01*
Y9413850D01*
X14799942D01*
Y9415873D01*
Y9417896D01*
Y9419918D01*
X14797919D01*
Y9421941D01*
Y9423964D01*
X14795897D01*
Y9425986D01*
Y9428009D01*
Y9430032D01*
X14793874D01*
Y9432055D01*
Y9434077D01*
Y9436100D01*
X14791850D01*
Y9438123D01*
Y9440145D01*
Y9442168D01*
X14789828D01*
Y9444191D01*
Y9446214D01*
Y9448236D01*
X14787807D01*
Y9450259D01*
Y9452282D01*
Y9454304D01*
X14785783D01*
Y9456327D01*
Y9458350D01*
X14783760D01*
Y9460373D01*
Y9462395D01*
Y9464418D01*
X14781738D01*
Y9466441D01*
Y9468463D01*
Y9470486D01*
X14779715D01*
Y9472509D01*
Y9474531D01*
Y9476554D01*
X14777692D01*
Y9478577D01*
Y9480600D01*
Y9482622D01*
X14775668D01*
Y9484645D01*
Y9486668D01*
Y9488691D01*
X14773647D01*
Y9490713D01*
Y9492736D01*
X14771625D01*
Y9494759D01*
Y9496781D01*
Y9498804D01*
X14769601D01*
Y9500827D01*
Y9502849D01*
Y9504872D01*
X14779715D01*
Y9502849D01*
Y9500827D01*
Y9498804D01*
X14781738D01*
Y9496781D01*
Y9494759D01*
Y9492736D01*
X14783760D01*
Y9490713D01*
Y9488691D01*
X14785783D01*
Y9486668D01*
Y9484645D01*
Y9482622D01*
X14787807D01*
Y9480600D01*
Y9478577D01*
Y9476554D01*
X14789828D01*
Y9474531D01*
Y9472509D01*
Y9470486D01*
X14791850D01*
Y9468463D01*
Y9466441D01*
Y9464418D01*
X14793874D01*
Y9462395D01*
Y9460373D01*
Y9458350D01*
X14795897D01*
Y9456327D01*
Y9454304D01*
Y9452282D01*
X14797919D01*
Y9454304D01*
Y9456327D01*
X14799942D01*
Y9458350D01*
Y9460373D01*
X14801965D01*
Y9462395D01*
Y9464418D01*
Y9466441D01*
X14803987D01*
Y9468463D01*
Y9470486D01*
Y9472509D01*
X14806010D01*
Y9474531D01*
Y9476554D01*
Y9478577D01*
X14808034D01*
Y9480600D01*
Y9482622D01*
X14810056D01*
Y9484645D01*
Y9486668D01*
Y9488691D01*
X14812077D01*
Y9490713D01*
Y9492736D01*
Y9494759D01*
X14814101D01*
Y9496781D01*
Y9498804D01*
Y9500827D01*
X14816124D01*
Y9502849D01*
Y9504872D01*
X14832304D01*
Y9502849D01*
D02*
G37*
G36*
X14890964Y9521054D02*
Y9519031D01*
Y9517008D01*
Y9514986D01*
Y9512963D01*
Y9510940D01*
Y9508918D01*
Y9506895D01*
Y9504872D01*
Y9502849D01*
Y9500827D01*
Y9498804D01*
Y9496781D01*
Y9494759D01*
Y9492736D01*
Y9490713D01*
Y9488691D01*
Y9486668D01*
Y9484645D01*
Y9482622D01*
Y9480600D01*
Y9478577D01*
Y9476554D01*
Y9474531D01*
Y9472509D01*
Y9470486D01*
Y9468463D01*
Y9466441D01*
Y9464418D01*
Y9462395D01*
Y9460373D01*
Y9458350D01*
Y9456327D01*
Y9454304D01*
Y9452282D01*
Y9450259D01*
Y9448236D01*
Y9446214D01*
Y9444191D01*
Y9442168D01*
Y9440145D01*
Y9438123D01*
Y9436100D01*
Y9434077D01*
X14846465D01*
Y9436100D01*
X14842419D01*
Y9438123D01*
X14840396D01*
Y9440145D01*
X14838373D01*
Y9442168D01*
Y9444191D01*
Y9446214D01*
X14836351D01*
Y9448236D01*
Y9450259D01*
Y9452282D01*
Y9454304D01*
Y9456327D01*
Y9458350D01*
Y9460373D01*
Y9462395D01*
Y9464418D01*
Y9466441D01*
Y9468463D01*
Y9470486D01*
Y9472509D01*
Y9474531D01*
Y9476554D01*
Y9478577D01*
Y9480600D01*
Y9482622D01*
Y9484645D01*
Y9486668D01*
Y9488691D01*
Y9490713D01*
Y9492736D01*
X14838373D01*
Y9494759D01*
Y9496781D01*
Y9498804D01*
X14840396D01*
Y9500827D01*
X14842419D01*
Y9502849D01*
X14846465D01*
Y9504872D01*
X14870737D01*
Y9502849D01*
Y9500827D01*
Y9498804D01*
Y9496781D01*
X14854555D01*
Y9494759D01*
X14852531D01*
Y9492736D01*
X14850510D01*
Y9490713D01*
Y9488691D01*
Y9486668D01*
Y9484645D01*
Y9482622D01*
Y9480600D01*
Y9478577D01*
Y9476554D01*
Y9474531D01*
Y9472509D01*
Y9470486D01*
Y9468463D01*
Y9466441D01*
Y9464418D01*
Y9462395D01*
Y9460373D01*
Y9458350D01*
Y9456327D01*
Y9454304D01*
Y9452282D01*
Y9450259D01*
Y9448236D01*
Y9446214D01*
X14852531D01*
Y9444191D01*
X14854555D01*
Y9442168D01*
X14876805D01*
Y9444191D01*
Y9446214D01*
Y9448236D01*
Y9450259D01*
Y9452282D01*
Y9454304D01*
Y9456327D01*
Y9458350D01*
Y9460373D01*
Y9462395D01*
Y9464418D01*
Y9466441D01*
Y9468463D01*
Y9470486D01*
Y9472509D01*
Y9474531D01*
Y9476554D01*
Y9478577D01*
Y9480600D01*
Y9482622D01*
Y9484645D01*
Y9486668D01*
Y9488691D01*
Y9490713D01*
Y9492736D01*
Y9494759D01*
Y9496781D01*
Y9498804D01*
Y9500827D01*
Y9502849D01*
Y9504872D01*
Y9506895D01*
Y9508918D01*
Y9510940D01*
Y9512963D01*
Y9514986D01*
Y9517008D01*
Y9519031D01*
Y9521054D01*
Y9523076D01*
X14890964D01*
Y9521054D01*
D02*
G37*
G36*
X14617899Y9502849D02*
Y9500827D01*
Y9498804D01*
Y9496781D01*
Y9494759D01*
Y9492736D01*
Y9490713D01*
Y9488691D01*
Y9486668D01*
Y9484645D01*
Y9482622D01*
Y9480600D01*
Y9478577D01*
Y9476554D01*
Y9474531D01*
Y9472509D01*
Y9470486D01*
Y9468463D01*
Y9466441D01*
Y9464418D01*
Y9462395D01*
Y9460373D01*
Y9458350D01*
Y9456327D01*
Y9454304D01*
Y9452282D01*
Y9450259D01*
Y9448236D01*
Y9446214D01*
Y9444191D01*
X14615875D01*
Y9442168D01*
Y9440145D01*
X14613853D01*
Y9438123D01*
X14611830D01*
Y9436100D01*
X14607785D01*
Y9434077D01*
X14563284D01*
Y9436100D01*
Y9438123D01*
Y9440145D01*
Y9442168D01*
Y9444191D01*
Y9446214D01*
Y9448236D01*
Y9450259D01*
Y9452282D01*
Y9454304D01*
Y9456327D01*
Y9458350D01*
Y9460373D01*
Y9462395D01*
Y9464418D01*
Y9466441D01*
Y9468463D01*
Y9470486D01*
Y9472509D01*
Y9474531D01*
Y9476554D01*
Y9478577D01*
Y9480600D01*
Y9482622D01*
Y9484645D01*
Y9486668D01*
Y9488691D01*
Y9490713D01*
Y9492736D01*
Y9494759D01*
Y9496781D01*
Y9498804D01*
Y9500827D01*
Y9502849D01*
Y9504872D01*
X14577444D01*
Y9502849D01*
Y9500827D01*
Y9498804D01*
Y9496781D01*
Y9494759D01*
Y9492736D01*
Y9490713D01*
Y9488691D01*
Y9486668D01*
Y9484645D01*
Y9482622D01*
Y9480600D01*
Y9478577D01*
Y9476554D01*
Y9474531D01*
Y9472509D01*
Y9470486D01*
Y9468463D01*
Y9466441D01*
Y9464418D01*
Y9462395D01*
Y9460373D01*
Y9458350D01*
Y9456327D01*
Y9454304D01*
Y9452282D01*
Y9450259D01*
Y9448236D01*
Y9446214D01*
Y9444191D01*
Y9442168D01*
X14599693D01*
Y9444191D01*
X14601717D01*
Y9446214D01*
X14603738D01*
Y9448236D01*
Y9450259D01*
Y9452282D01*
Y9454304D01*
X14605762D01*
Y9456327D01*
Y9458350D01*
Y9460373D01*
Y9462395D01*
Y9464418D01*
Y9466441D01*
Y9468463D01*
Y9470486D01*
Y9472509D01*
Y9474531D01*
Y9476554D01*
Y9478577D01*
Y9480600D01*
Y9482622D01*
Y9484645D01*
Y9486668D01*
Y9488691D01*
Y9490713D01*
Y9492736D01*
Y9494759D01*
Y9496781D01*
Y9498804D01*
Y9500827D01*
Y9502849D01*
Y9504872D01*
X14617899D01*
Y9502849D01*
D02*
G37*
G36*
X14195152D02*
Y9500827D01*
Y9498804D01*
Y9496781D01*
Y9494759D01*
Y9492736D01*
Y9490713D01*
Y9488691D01*
Y9486668D01*
Y9484645D01*
Y9482622D01*
Y9480600D01*
Y9478577D01*
Y9476554D01*
Y9474531D01*
Y9472509D01*
Y9470486D01*
Y9468463D01*
Y9466441D01*
Y9464418D01*
Y9462395D01*
Y9460373D01*
Y9458350D01*
Y9456327D01*
Y9454304D01*
Y9452282D01*
Y9450259D01*
Y9448236D01*
Y9446214D01*
Y9444191D01*
X14193130D01*
Y9442168D01*
Y9440145D01*
X14191107D01*
Y9438123D01*
X14189084D01*
Y9436100D01*
X14185039D01*
Y9434077D01*
X14140540D01*
Y9436100D01*
Y9438123D01*
Y9440145D01*
Y9442168D01*
Y9444191D01*
Y9446214D01*
Y9448236D01*
Y9450259D01*
Y9452282D01*
Y9454304D01*
Y9456327D01*
Y9458350D01*
Y9460373D01*
Y9462395D01*
Y9464418D01*
Y9466441D01*
Y9468463D01*
Y9470486D01*
Y9472509D01*
Y9474531D01*
Y9476554D01*
Y9478577D01*
Y9480600D01*
Y9482622D01*
Y9484645D01*
Y9486668D01*
Y9488691D01*
Y9490713D01*
Y9492736D01*
Y9494759D01*
Y9496781D01*
Y9498804D01*
Y9500827D01*
Y9502849D01*
Y9504872D01*
X14154698D01*
Y9502849D01*
Y9500827D01*
Y9498804D01*
Y9496781D01*
Y9494759D01*
Y9492736D01*
Y9490713D01*
Y9488691D01*
Y9486668D01*
Y9484645D01*
Y9482622D01*
Y9480600D01*
Y9478577D01*
Y9476554D01*
Y9474531D01*
Y9472509D01*
Y9470486D01*
Y9468463D01*
Y9466441D01*
Y9464418D01*
Y9462395D01*
Y9460373D01*
Y9458350D01*
Y9456327D01*
Y9454304D01*
Y9452282D01*
Y9450259D01*
Y9448236D01*
Y9446214D01*
Y9444191D01*
Y9442168D01*
X14176949D01*
Y9444191D01*
X14178970D01*
Y9446214D01*
X14180994D01*
Y9448236D01*
Y9450259D01*
Y9452282D01*
Y9454304D01*
X14183015D01*
Y9456327D01*
Y9458350D01*
Y9460373D01*
Y9462395D01*
Y9464418D01*
Y9466441D01*
Y9468463D01*
Y9470486D01*
Y9472509D01*
Y9474531D01*
Y9476554D01*
Y9478577D01*
Y9480600D01*
Y9482622D01*
Y9484645D01*
Y9486668D01*
Y9488691D01*
Y9490713D01*
Y9492736D01*
Y9494759D01*
Y9496781D01*
Y9498804D01*
Y9500827D01*
Y9502849D01*
Y9504872D01*
X14195152D01*
Y9502849D01*
D02*
G37*
G36*
X15388550Y9521054D02*
Y9519031D01*
Y9517008D01*
Y9514986D01*
Y9512963D01*
Y9510940D01*
Y9508918D01*
Y9506895D01*
Y9504872D01*
Y9502849D01*
Y9500827D01*
Y9498804D01*
Y9496781D01*
Y9494759D01*
Y9492736D01*
Y9490713D01*
Y9488691D01*
Y9486668D01*
Y9484645D01*
Y9482622D01*
Y9480600D01*
Y9478577D01*
Y9476554D01*
Y9474531D01*
Y9472509D01*
Y9470486D01*
Y9468463D01*
Y9466441D01*
Y9464418D01*
Y9462395D01*
Y9460373D01*
Y9458350D01*
Y9456327D01*
Y9454304D01*
Y9452282D01*
Y9450259D01*
Y9448236D01*
Y9446214D01*
Y9444191D01*
Y9442168D01*
Y9440145D01*
Y9438123D01*
Y9436100D01*
Y9434077D01*
X15346072D01*
Y9436100D01*
X15342027D01*
Y9438123D01*
X15340005D01*
Y9440145D01*
Y9442168D01*
X15337982D01*
Y9444191D01*
Y9446214D01*
X15335960D01*
Y9448236D01*
Y9450259D01*
Y9452282D01*
Y9454304D01*
Y9456327D01*
Y9458350D01*
Y9460373D01*
Y9462395D01*
Y9464418D01*
Y9466441D01*
Y9468463D01*
Y9470486D01*
Y9472509D01*
Y9474531D01*
Y9476554D01*
Y9478577D01*
Y9480600D01*
Y9482622D01*
Y9484645D01*
Y9486668D01*
Y9488691D01*
Y9490713D01*
Y9492736D01*
Y9494759D01*
Y9496781D01*
Y9498804D01*
Y9500827D01*
Y9502849D01*
Y9504872D01*
Y9506895D01*
Y9508918D01*
Y9510940D01*
X15337982D01*
Y9512963D01*
Y9514986D01*
X15340005D01*
Y9517008D01*
Y9519031D01*
X15342027D01*
Y9521054D01*
X15346072D01*
Y9523076D01*
X15388550D01*
Y9521054D01*
D02*
G37*
G36*
X15315733Y9502849D02*
X15319778D01*
Y9500827D01*
X15321802D01*
Y9498804D01*
X15323824D01*
Y9496781D01*
Y9494759D01*
Y9492736D01*
X15325845D01*
Y9490713D01*
Y9488691D01*
Y9486668D01*
Y9484645D01*
Y9482622D01*
Y9480600D01*
Y9478577D01*
Y9476554D01*
Y9474531D01*
Y9472509D01*
Y9470486D01*
Y9468463D01*
Y9466441D01*
Y9464418D01*
Y9462395D01*
Y9460373D01*
Y9458350D01*
Y9456327D01*
Y9454304D01*
Y9452282D01*
Y9450259D01*
Y9448236D01*
Y9446214D01*
X15323824D01*
Y9444191D01*
Y9442168D01*
Y9440145D01*
X15321802D01*
Y9438123D01*
X15319778D01*
Y9436100D01*
X15315733D01*
Y9434077D01*
X15277301D01*
Y9436100D01*
Y9438123D01*
Y9440145D01*
Y9442168D01*
X15307642D01*
Y9444191D01*
X15309663D01*
Y9446214D01*
X15311687D01*
Y9448236D01*
Y9450259D01*
Y9452282D01*
Y9454304D01*
Y9456327D01*
Y9458350D01*
Y9460373D01*
Y9462395D01*
Y9464418D01*
Y9466441D01*
Y9468463D01*
Y9470486D01*
Y9472509D01*
Y9474531D01*
Y9476554D01*
Y9478577D01*
Y9480600D01*
Y9482622D01*
Y9484645D01*
Y9486668D01*
Y9488691D01*
Y9490713D01*
Y9492736D01*
X15309663D01*
Y9494759D01*
X15307642D01*
Y9496781D01*
X15287415D01*
Y9494759D01*
Y9492736D01*
X15285393D01*
Y9490713D01*
Y9488691D01*
Y9486668D01*
Y9484645D01*
Y9482622D01*
Y9480600D01*
Y9478577D01*
X15287415D01*
Y9476554D01*
Y9474531D01*
X15289436D01*
Y9472509D01*
X15303596D01*
Y9470486D01*
Y9468463D01*
Y9466441D01*
Y9464418D01*
X15281348D01*
Y9466441D01*
X15279324D01*
Y9468463D01*
X15277301D01*
Y9470486D01*
X15275278D01*
Y9472509D01*
Y9474531D01*
Y9476554D01*
X15273256D01*
Y9478577D01*
Y9480600D01*
Y9482622D01*
Y9484645D01*
Y9486668D01*
Y9488691D01*
Y9490713D01*
Y9492736D01*
X15275278D01*
Y9494759D01*
Y9496781D01*
Y9498804D01*
X15277301D01*
Y9500827D01*
X15279324D01*
Y9502849D01*
X15281348D01*
Y9504872D01*
X15315733D01*
Y9502849D01*
D02*
G37*
G36*
X15255051D02*
X15257074D01*
Y9500827D01*
X15259097D01*
Y9498804D01*
X15261119D01*
Y9496781D01*
Y9494759D01*
Y9492736D01*
X15263142D01*
Y9490713D01*
Y9488691D01*
Y9486668D01*
Y9484645D01*
Y9482622D01*
Y9480600D01*
Y9478577D01*
X15261119D01*
Y9476554D01*
Y9474531D01*
Y9472509D01*
X15259097D01*
Y9470486D01*
Y9468463D01*
X15257074D01*
Y9466441D01*
X15255051D01*
Y9464418D01*
X15226733D01*
Y9462395D01*
X15224712D01*
Y9460373D01*
Y9458350D01*
X15222688D01*
Y9456327D01*
Y9454304D01*
Y9452282D01*
Y9450259D01*
Y9448236D01*
X15224712D01*
Y9446214D01*
Y9444191D01*
X15226733D01*
Y9442168D01*
X15257074D01*
Y9440145D01*
Y9438123D01*
Y9436100D01*
Y9434077D01*
X15218643D01*
Y9436100D01*
X15216620D01*
Y9438123D01*
X15214597D01*
Y9440145D01*
Y9442168D01*
X15212575D01*
Y9444191D01*
Y9446214D01*
Y9448236D01*
Y9450259D01*
Y9452282D01*
X15210551D01*
Y9454304D01*
X15212575D01*
Y9456327D01*
Y9458350D01*
Y9460373D01*
Y9462395D01*
Y9464418D01*
Y9466441D01*
X15214597D01*
Y9468463D01*
Y9470486D01*
X15216620D01*
Y9472509D01*
X15218643D01*
Y9474531D01*
X15246960D01*
Y9476554D01*
X15248982D01*
Y9478577D01*
X15251006D01*
Y9480600D01*
Y9482622D01*
Y9484645D01*
Y9486668D01*
Y9488691D01*
Y9490713D01*
Y9492736D01*
X15248982D01*
Y9494759D01*
Y9496781D01*
X15220665D01*
Y9498804D01*
Y9500827D01*
Y9502849D01*
Y9504872D01*
X15255051D01*
Y9502849D01*
D02*
G37*
G36*
X15204485D02*
Y9500827D01*
Y9498804D01*
Y9496781D01*
Y9494759D01*
Y9492736D01*
Y9490713D01*
Y9488691D01*
Y9486668D01*
Y9484645D01*
Y9482622D01*
Y9480600D01*
Y9478577D01*
Y9476554D01*
Y9474531D01*
Y9472509D01*
Y9470486D01*
Y9468463D01*
Y9466441D01*
Y9464418D01*
Y9462395D01*
Y9460373D01*
Y9458350D01*
Y9456327D01*
Y9454304D01*
Y9452282D01*
Y9450259D01*
Y9448236D01*
Y9446214D01*
Y9444191D01*
Y9442168D01*
Y9440145D01*
Y9438123D01*
Y9436100D01*
Y9434077D01*
X15190324D01*
Y9436100D01*
Y9438123D01*
Y9440145D01*
Y9442168D01*
Y9444191D01*
Y9446214D01*
Y9448236D01*
Y9450259D01*
Y9452282D01*
Y9454304D01*
Y9456327D01*
Y9458350D01*
Y9460373D01*
Y9462395D01*
Y9464418D01*
Y9466441D01*
Y9468463D01*
Y9470486D01*
Y9472509D01*
Y9474531D01*
Y9476554D01*
Y9478577D01*
Y9480600D01*
Y9482622D01*
Y9484645D01*
Y9486668D01*
Y9488691D01*
Y9490713D01*
Y9492736D01*
Y9494759D01*
Y9496781D01*
Y9498804D01*
Y9500827D01*
Y9502849D01*
Y9504872D01*
X15204485D01*
Y9502849D01*
D02*
G37*
G36*
X15168076D02*
X15172121D01*
Y9500827D01*
X15174142D01*
Y9498804D01*
X15176166D01*
Y9496781D01*
Y9494759D01*
Y9492736D01*
Y9490713D01*
X15178188D01*
Y9488691D01*
Y9486668D01*
Y9484645D01*
Y9482622D01*
Y9480600D01*
Y9478577D01*
Y9476554D01*
Y9474531D01*
Y9472509D01*
Y9470486D01*
Y9468463D01*
Y9466441D01*
Y9464418D01*
Y9462395D01*
Y9460373D01*
Y9458350D01*
Y9456327D01*
Y9454304D01*
Y9452282D01*
Y9450259D01*
Y9448236D01*
Y9446214D01*
X15176166D01*
Y9444191D01*
Y9442168D01*
Y9440145D01*
X15174142D01*
Y9438123D01*
X15172121D01*
Y9436100D01*
X15168076D01*
Y9434077D01*
X15143802D01*
Y9436100D01*
Y9438123D01*
Y9440145D01*
Y9442168D01*
X15159984D01*
Y9444191D01*
X15162007D01*
Y9446214D01*
X15164030D01*
Y9448236D01*
Y9450259D01*
Y9452282D01*
Y9454304D01*
Y9456327D01*
Y9458350D01*
Y9460373D01*
Y9462395D01*
Y9464418D01*
Y9466441D01*
Y9468463D01*
Y9470486D01*
Y9472509D01*
Y9474531D01*
Y9476554D01*
Y9478577D01*
Y9480600D01*
Y9482622D01*
Y9484645D01*
Y9486668D01*
Y9488691D01*
Y9490713D01*
Y9492736D01*
X15162007D01*
Y9494759D01*
X15157961D01*
Y9496781D01*
X15135712D01*
Y9494759D01*
Y9492736D01*
Y9490713D01*
Y9488691D01*
Y9486668D01*
Y9484645D01*
Y9482622D01*
Y9480600D01*
Y9478577D01*
Y9476554D01*
Y9474531D01*
Y9472509D01*
Y9470486D01*
Y9468463D01*
Y9466441D01*
Y9464418D01*
Y9462395D01*
Y9460373D01*
Y9458350D01*
Y9456327D01*
Y9454304D01*
Y9452282D01*
Y9450259D01*
Y9448236D01*
Y9446214D01*
Y9444191D01*
Y9442168D01*
Y9440145D01*
Y9438123D01*
Y9436100D01*
Y9434077D01*
Y9432055D01*
Y9430032D01*
Y9428009D01*
Y9425986D01*
Y9423964D01*
Y9421941D01*
X15137733D01*
Y9419918D01*
Y9417896D01*
Y9415873D01*
X15139757D01*
Y9413850D01*
X15141780D01*
Y9411828D01*
X15159984D01*
Y9409805D01*
Y9407782D01*
Y9405759D01*
Y9403737D01*
X15133688D01*
Y9405759D01*
X15129643D01*
Y9407782D01*
X15127621D01*
Y9409805D01*
X15125598D01*
Y9411828D01*
Y9413850D01*
X15123575D01*
Y9415873D01*
Y9417896D01*
Y9419918D01*
Y9421941D01*
Y9423964D01*
Y9425986D01*
Y9428009D01*
Y9430032D01*
Y9432055D01*
Y9434077D01*
Y9436100D01*
Y9438123D01*
Y9440145D01*
Y9442168D01*
Y9444191D01*
Y9446214D01*
Y9448236D01*
Y9450259D01*
Y9452282D01*
Y9454304D01*
Y9456327D01*
Y9458350D01*
Y9460373D01*
Y9462395D01*
Y9464418D01*
Y9466441D01*
Y9468463D01*
Y9470486D01*
Y9472509D01*
Y9474531D01*
Y9476554D01*
Y9478577D01*
Y9480600D01*
Y9482622D01*
Y9484645D01*
Y9486668D01*
Y9488691D01*
Y9490713D01*
Y9492736D01*
Y9494759D01*
Y9496781D01*
Y9498804D01*
Y9500827D01*
Y9502849D01*
Y9504872D01*
X15168076D01*
Y9502849D01*
D02*
G37*
G36*
X15113461D02*
Y9500827D01*
Y9498804D01*
Y9496781D01*
Y9494759D01*
Y9492736D01*
Y9490713D01*
Y9488691D01*
Y9486668D01*
Y9484645D01*
Y9482622D01*
Y9480600D01*
Y9478577D01*
Y9476554D01*
Y9474531D01*
Y9472509D01*
Y9470486D01*
Y9468463D01*
Y9466441D01*
Y9464418D01*
Y9462395D01*
Y9460373D01*
Y9458350D01*
Y9456327D01*
Y9454304D01*
Y9452282D01*
Y9450259D01*
Y9448236D01*
Y9446214D01*
Y9444191D01*
Y9442168D01*
Y9440145D01*
Y9438123D01*
Y9436100D01*
Y9434077D01*
X15099303D01*
Y9436100D01*
Y9438123D01*
Y9440145D01*
Y9442168D01*
Y9444191D01*
Y9446214D01*
Y9448236D01*
Y9450259D01*
Y9452282D01*
Y9454304D01*
Y9456327D01*
Y9458350D01*
Y9460373D01*
Y9462395D01*
Y9464418D01*
Y9466441D01*
Y9468463D01*
Y9470486D01*
Y9472509D01*
Y9474531D01*
Y9476554D01*
Y9478577D01*
Y9480600D01*
Y9482622D01*
Y9484645D01*
Y9486668D01*
Y9488691D01*
Y9490713D01*
Y9492736D01*
Y9494759D01*
Y9496781D01*
X15075031D01*
Y9494759D01*
X15073009D01*
Y9492736D01*
Y9490713D01*
Y9488691D01*
X15070985D01*
Y9486668D01*
Y9484645D01*
Y9482622D01*
Y9480600D01*
Y9478577D01*
Y9476554D01*
Y9474531D01*
Y9472509D01*
Y9470486D01*
Y9468463D01*
Y9466441D01*
Y9464418D01*
Y9462395D01*
Y9460373D01*
Y9458350D01*
Y9456327D01*
Y9454304D01*
Y9452282D01*
Y9450259D01*
Y9448236D01*
Y9446214D01*
Y9444191D01*
Y9442168D01*
Y9440145D01*
Y9438123D01*
Y9436100D01*
Y9434077D01*
X15058849D01*
Y9436100D01*
Y9438123D01*
Y9440145D01*
Y9442168D01*
Y9444191D01*
Y9446214D01*
Y9448236D01*
Y9450259D01*
Y9452282D01*
Y9454304D01*
Y9456327D01*
Y9458350D01*
Y9460373D01*
Y9462395D01*
Y9464418D01*
Y9466441D01*
Y9468463D01*
Y9470486D01*
Y9472509D01*
Y9474531D01*
Y9476554D01*
Y9478577D01*
Y9480600D01*
Y9482622D01*
Y9484645D01*
Y9486668D01*
Y9488691D01*
Y9490713D01*
Y9492736D01*
Y9494759D01*
Y9496781D01*
X15060870D01*
Y9498804D01*
Y9500827D01*
X15062894D01*
Y9502849D01*
X15066939D01*
Y9504872D01*
X15113461D01*
Y9502849D01*
D02*
G37*
G36*
X15040643D02*
X15044690D01*
Y9500827D01*
X15046712D01*
Y9498804D01*
X15048735D01*
Y9496781D01*
Y9494759D01*
Y9492736D01*
X15050758D01*
Y9490713D01*
Y9488691D01*
Y9486668D01*
Y9484645D01*
Y9482622D01*
Y9480600D01*
Y9478577D01*
Y9476554D01*
Y9474531D01*
Y9472509D01*
Y9470486D01*
Y9468463D01*
Y9466441D01*
Y9464418D01*
Y9462395D01*
Y9460373D01*
Y9458350D01*
Y9456327D01*
Y9454304D01*
Y9452282D01*
Y9450259D01*
Y9448236D01*
Y9446214D01*
X15048735D01*
Y9444191D01*
Y9442168D01*
Y9440145D01*
X15046712D01*
Y9438123D01*
X15044690D01*
Y9436100D01*
X15040643D01*
Y9434077D01*
X15002213D01*
Y9436100D01*
Y9438123D01*
Y9440145D01*
Y9442168D01*
X15032555D01*
Y9444191D01*
X15034576D01*
Y9446214D01*
X15036600D01*
Y9448236D01*
Y9450259D01*
Y9452282D01*
Y9454304D01*
Y9456327D01*
Y9458350D01*
Y9460373D01*
Y9462395D01*
Y9464418D01*
Y9466441D01*
Y9468463D01*
Y9470486D01*
Y9472509D01*
Y9474531D01*
Y9476554D01*
Y9478577D01*
Y9480600D01*
Y9482622D01*
Y9484645D01*
Y9486668D01*
Y9488691D01*
Y9490713D01*
Y9492736D01*
X15034576D01*
Y9494759D01*
X15032555D01*
Y9496781D01*
X15012326D01*
Y9494759D01*
Y9492736D01*
X15010303D01*
Y9490713D01*
Y9488691D01*
Y9486668D01*
Y9484645D01*
Y9482622D01*
Y9480600D01*
Y9478577D01*
X15012326D01*
Y9476554D01*
Y9474531D01*
X15014349D01*
Y9472509D01*
X15028508D01*
Y9470486D01*
Y9468463D01*
Y9466441D01*
Y9464418D01*
X15006258D01*
Y9466441D01*
X15004236D01*
Y9468463D01*
X15002213D01*
Y9470486D01*
X15000191D01*
Y9472509D01*
Y9474531D01*
Y9476554D01*
X14998167D01*
Y9478577D01*
Y9480600D01*
Y9482622D01*
Y9484645D01*
Y9486668D01*
Y9488691D01*
Y9490713D01*
Y9492736D01*
X15000191D01*
Y9494759D01*
Y9496781D01*
Y9498804D01*
X15002213D01*
Y9500827D01*
X15004236D01*
Y9502849D01*
X15006258D01*
Y9504872D01*
X15040643D01*
Y9502849D01*
D02*
G37*
G36*
X14947600Y9521054D02*
Y9519031D01*
Y9517008D01*
Y9514986D01*
Y9512963D01*
Y9510940D01*
Y9508918D01*
Y9506895D01*
Y9504872D01*
Y9502849D01*
Y9500827D01*
Y9498804D01*
Y9496781D01*
Y9494759D01*
Y9492736D01*
Y9490713D01*
Y9488691D01*
Y9486668D01*
Y9484645D01*
Y9482622D01*
Y9480600D01*
Y9478577D01*
Y9476554D01*
Y9474531D01*
Y9472509D01*
Y9470486D01*
Y9468463D01*
Y9466441D01*
Y9464418D01*
Y9462395D01*
Y9460373D01*
Y9458350D01*
Y9456327D01*
Y9454304D01*
Y9452282D01*
Y9450259D01*
Y9448236D01*
Y9446214D01*
Y9444191D01*
Y9442168D01*
X14967827D01*
Y9444191D01*
X14969849D01*
Y9446214D01*
X14971872D01*
Y9448236D01*
X14973895D01*
Y9450259D01*
Y9452282D01*
Y9454304D01*
Y9456327D01*
Y9458350D01*
Y9460373D01*
Y9462395D01*
Y9464418D01*
Y9466441D01*
Y9468463D01*
Y9470486D01*
Y9472509D01*
Y9474531D01*
Y9476554D01*
Y9478577D01*
Y9480600D01*
Y9482622D01*
Y9484645D01*
Y9486668D01*
Y9488691D01*
Y9490713D01*
Y9492736D01*
X14971872D01*
Y9494759D01*
X14969849D01*
Y9496781D01*
X14955692D01*
Y9498804D01*
Y9500827D01*
Y9502849D01*
Y9504872D01*
X14977940D01*
Y9502849D01*
X14981985D01*
Y9500827D01*
X14984007D01*
Y9498804D01*
Y9496781D01*
X14986031D01*
Y9494759D01*
Y9492736D01*
Y9490713D01*
X14988054D01*
Y9488691D01*
Y9486668D01*
Y9484645D01*
Y9482622D01*
Y9480600D01*
Y9478577D01*
Y9476554D01*
Y9474531D01*
Y9472509D01*
Y9470486D01*
Y9468463D01*
Y9466441D01*
Y9464418D01*
Y9462395D01*
Y9460373D01*
Y9458350D01*
Y9456327D01*
Y9454304D01*
Y9452282D01*
Y9450259D01*
Y9448236D01*
X14986031D01*
Y9446214D01*
Y9444191D01*
Y9442168D01*
X14984007D01*
Y9440145D01*
Y9438123D01*
X14981985D01*
Y9436100D01*
X14977940D01*
Y9434077D01*
X14935463D01*
Y9436100D01*
Y9438123D01*
Y9440145D01*
Y9442168D01*
Y9444191D01*
Y9446214D01*
Y9448236D01*
Y9450259D01*
Y9452282D01*
Y9454304D01*
Y9456327D01*
Y9458350D01*
Y9460373D01*
Y9462395D01*
Y9464418D01*
Y9466441D01*
Y9468463D01*
Y9470486D01*
Y9472509D01*
Y9474531D01*
Y9476554D01*
Y9478577D01*
Y9480600D01*
Y9482622D01*
Y9484645D01*
Y9486668D01*
Y9488691D01*
Y9490713D01*
Y9492736D01*
Y9494759D01*
Y9496781D01*
Y9498804D01*
Y9500827D01*
Y9502849D01*
Y9504872D01*
Y9506895D01*
Y9508918D01*
Y9510940D01*
Y9512963D01*
Y9514986D01*
Y9517008D01*
Y9519031D01*
Y9521054D01*
Y9523076D01*
X14947600D01*
Y9521054D01*
D02*
G37*
G36*
X14650262D02*
Y9519031D01*
Y9517008D01*
Y9514986D01*
X14640147D01*
Y9512963D01*
Y9510940D01*
Y9508918D01*
Y9506895D01*
Y9504872D01*
Y9502849D01*
Y9500827D01*
Y9498804D01*
Y9496781D01*
Y9494759D01*
Y9492736D01*
Y9490713D01*
Y9488691D01*
Y9486668D01*
Y9484645D01*
Y9482622D01*
Y9480600D01*
Y9478577D01*
Y9476554D01*
Y9474531D01*
Y9472509D01*
Y9470486D01*
Y9468463D01*
Y9466441D01*
Y9464418D01*
Y9462395D01*
Y9460373D01*
Y9458350D01*
Y9456327D01*
Y9454304D01*
Y9452282D01*
X14642171D01*
Y9450259D01*
Y9448236D01*
Y9446214D01*
X14644193D01*
Y9444191D01*
X14646216D01*
Y9442168D01*
X14674535D01*
Y9440145D01*
Y9438123D01*
Y9436100D01*
Y9434077D01*
X14638126D01*
Y9436100D01*
X14636102D01*
Y9438123D01*
X14634081D01*
Y9440145D01*
X14632057D01*
Y9442168D01*
X14630034D01*
Y9444191D01*
Y9446214D01*
Y9448236D01*
X14628012D01*
Y9450259D01*
Y9452282D01*
Y9454304D01*
Y9456327D01*
Y9458350D01*
Y9460373D01*
Y9462395D01*
Y9464418D01*
Y9466441D01*
Y9468463D01*
Y9470486D01*
Y9472509D01*
Y9474531D01*
Y9476554D01*
Y9478577D01*
Y9480600D01*
Y9482622D01*
Y9484645D01*
Y9486668D01*
Y9488691D01*
Y9490713D01*
Y9492736D01*
Y9494759D01*
Y9496781D01*
Y9498804D01*
Y9500827D01*
Y9502849D01*
Y9504872D01*
Y9506895D01*
Y9508918D01*
Y9510940D01*
Y9512963D01*
Y9514986D01*
Y9517008D01*
Y9519031D01*
Y9521054D01*
Y9523076D01*
X14650262D01*
Y9521054D01*
D02*
G37*
G36*
X14543057Y9502849D02*
Y9500827D01*
Y9498804D01*
Y9496781D01*
X14520808D01*
Y9494759D01*
X14518787D01*
Y9492736D01*
X14516763D01*
Y9490713D01*
Y9488691D01*
Y9486668D01*
Y9484645D01*
Y9482622D01*
Y9480600D01*
Y9478577D01*
Y9476554D01*
Y9474531D01*
Y9472509D01*
Y9470486D01*
Y9468463D01*
Y9466441D01*
Y9464418D01*
Y9462395D01*
Y9460373D01*
Y9458350D01*
Y9456327D01*
Y9454304D01*
Y9452282D01*
Y9450259D01*
Y9448236D01*
Y9446214D01*
Y9444191D01*
Y9442168D01*
X14539014D01*
Y9444191D01*
X14541035D01*
Y9446214D01*
Y9448236D01*
Y9450259D01*
Y9452282D01*
X14543057D01*
Y9454304D01*
Y9456327D01*
Y9458350D01*
Y9460373D01*
X14541035D01*
Y9462395D01*
Y9464418D01*
Y9466441D01*
X14539014D01*
Y9468463D01*
X14522832D01*
Y9470486D01*
Y9472509D01*
Y9474531D01*
Y9476554D01*
X14545081D01*
Y9474531D01*
X14549126D01*
Y9472509D01*
X14551149D01*
Y9470486D01*
Y9468463D01*
X14553172D01*
Y9466441D01*
Y9464418D01*
Y9462395D01*
X14555194D01*
Y9460373D01*
Y9458350D01*
Y9456327D01*
Y9454304D01*
Y9452282D01*
Y9450259D01*
Y9448236D01*
X14553172D01*
Y9446214D01*
Y9444191D01*
Y9442168D01*
X14551149D01*
Y9440145D01*
Y9438123D01*
X14549126D01*
Y9436100D01*
X14545081D01*
Y9434077D01*
X14502605D01*
Y9436100D01*
Y9438123D01*
Y9440145D01*
Y9442168D01*
Y9444191D01*
Y9446214D01*
Y9448236D01*
Y9450259D01*
Y9452282D01*
Y9454304D01*
Y9456327D01*
Y9458350D01*
Y9460373D01*
Y9462395D01*
Y9464418D01*
Y9466441D01*
Y9468463D01*
Y9470486D01*
Y9472509D01*
Y9474531D01*
Y9476554D01*
Y9478577D01*
Y9480600D01*
Y9482622D01*
Y9484645D01*
Y9486668D01*
Y9488691D01*
X14504626D01*
Y9490713D01*
Y9492736D01*
Y9494759D01*
Y9496781D01*
Y9498804D01*
X14506648D01*
Y9500827D01*
X14508672D01*
Y9502849D01*
X14512717D01*
Y9504872D01*
X14543057D01*
Y9502849D01*
D02*
G37*
G36*
X14494513D02*
Y9500827D01*
Y9498804D01*
Y9496781D01*
Y9494759D01*
Y9492736D01*
Y9490713D01*
Y9488691D01*
Y9486668D01*
Y9484645D01*
Y9482622D01*
Y9480600D01*
Y9478577D01*
Y9476554D01*
Y9474531D01*
Y9472509D01*
Y9470486D01*
Y9468463D01*
Y9466441D01*
Y9464418D01*
Y9462395D01*
Y9460373D01*
Y9458350D01*
Y9456327D01*
Y9454304D01*
Y9452282D01*
Y9450259D01*
Y9448236D01*
Y9446214D01*
Y9444191D01*
Y9442168D01*
Y9440145D01*
Y9438123D01*
Y9436100D01*
Y9434077D01*
X14480354D01*
Y9436100D01*
Y9438123D01*
Y9440145D01*
Y9442168D01*
Y9444191D01*
Y9446214D01*
Y9448236D01*
Y9450259D01*
Y9452282D01*
Y9454304D01*
Y9456327D01*
Y9458350D01*
Y9460373D01*
Y9462395D01*
Y9464418D01*
Y9466441D01*
Y9468463D01*
Y9470486D01*
Y9472509D01*
Y9474531D01*
Y9476554D01*
Y9478577D01*
Y9480600D01*
Y9482622D01*
Y9484645D01*
Y9486668D01*
Y9488691D01*
Y9490713D01*
Y9492736D01*
Y9494759D01*
Y9496781D01*
X14456082D01*
Y9494759D01*
X14454059D01*
Y9492736D01*
Y9490713D01*
Y9488691D01*
X14452036D01*
Y9486668D01*
Y9484645D01*
Y9482622D01*
Y9480600D01*
Y9478577D01*
Y9476554D01*
Y9474531D01*
Y9472509D01*
Y9470486D01*
Y9468463D01*
Y9466441D01*
Y9464418D01*
Y9462395D01*
Y9460373D01*
Y9458350D01*
Y9456327D01*
Y9454304D01*
Y9452282D01*
Y9450259D01*
Y9448236D01*
Y9446214D01*
Y9444191D01*
Y9442168D01*
Y9440145D01*
Y9438123D01*
Y9436100D01*
Y9434077D01*
X14439900D01*
Y9436100D01*
Y9438123D01*
Y9440145D01*
Y9442168D01*
Y9444191D01*
Y9446214D01*
Y9448236D01*
Y9450259D01*
Y9452282D01*
Y9454304D01*
Y9456327D01*
Y9458350D01*
Y9460373D01*
Y9462395D01*
Y9464418D01*
Y9466441D01*
Y9468463D01*
Y9470486D01*
Y9472509D01*
Y9474531D01*
Y9476554D01*
Y9478577D01*
Y9480600D01*
Y9482622D01*
Y9484645D01*
Y9486668D01*
Y9488691D01*
Y9490713D01*
Y9492736D01*
Y9494759D01*
Y9496781D01*
X14441924D01*
Y9498804D01*
Y9500827D01*
X14443945D01*
Y9502849D01*
X14447990D01*
Y9504872D01*
X14494513D01*
Y9502849D01*
D02*
G37*
G36*
X14318538D02*
Y9500827D01*
Y9498804D01*
Y9496781D01*
Y9494759D01*
Y9492736D01*
Y9490713D01*
Y9488691D01*
Y9486668D01*
Y9484645D01*
Y9482622D01*
Y9480600D01*
Y9478577D01*
Y9476554D01*
Y9474531D01*
Y9472509D01*
Y9470486D01*
Y9468463D01*
Y9466441D01*
Y9464418D01*
Y9462395D01*
Y9460373D01*
Y9458350D01*
Y9456327D01*
Y9454304D01*
Y9452282D01*
Y9450259D01*
Y9448236D01*
Y9446214D01*
Y9444191D01*
Y9442168D01*
Y9440145D01*
Y9438123D01*
Y9436100D01*
Y9434077D01*
X14304379D01*
Y9436100D01*
Y9438123D01*
Y9440145D01*
Y9442168D01*
Y9444191D01*
Y9446214D01*
Y9448236D01*
Y9450259D01*
Y9452282D01*
Y9454304D01*
Y9456327D01*
Y9458350D01*
Y9460373D01*
Y9462395D01*
Y9464418D01*
Y9466441D01*
Y9468463D01*
Y9470486D01*
Y9472509D01*
Y9474531D01*
Y9476554D01*
Y9478577D01*
Y9480600D01*
Y9482622D01*
Y9484645D01*
Y9486668D01*
Y9488691D01*
Y9490713D01*
Y9492736D01*
Y9494759D01*
Y9496781D01*
Y9498804D01*
Y9500827D01*
Y9502849D01*
Y9504872D01*
X14318538D01*
Y9502849D01*
D02*
G37*
G36*
X14280106D02*
X14286174D01*
Y9500827D01*
X14288197D01*
Y9498804D01*
X14290221D01*
Y9496781D01*
X14292242D01*
Y9494759D01*
Y9492736D01*
X14294266D01*
Y9490713D01*
Y9488691D01*
Y9486668D01*
Y9484645D01*
Y9482622D01*
Y9480600D01*
Y9478577D01*
Y9476554D01*
Y9474531D01*
Y9472509D01*
Y9470486D01*
Y9468463D01*
Y9466441D01*
Y9464418D01*
Y9462395D01*
Y9460373D01*
Y9458350D01*
Y9456327D01*
Y9454304D01*
Y9452282D01*
Y9450259D01*
Y9448236D01*
Y9446214D01*
Y9444191D01*
Y9442168D01*
Y9440145D01*
Y9438123D01*
Y9436100D01*
Y9434077D01*
X14282129D01*
Y9436100D01*
Y9438123D01*
Y9440145D01*
Y9442168D01*
Y9444191D01*
Y9446214D01*
Y9448236D01*
Y9450259D01*
Y9452282D01*
Y9454304D01*
Y9456327D01*
Y9458350D01*
Y9460373D01*
Y9462395D01*
Y9464418D01*
Y9466441D01*
Y9468463D01*
Y9470486D01*
Y9472509D01*
Y9474531D01*
Y9476554D01*
Y9478577D01*
Y9480600D01*
Y9482622D01*
Y9484645D01*
X14280106D01*
Y9486668D01*
Y9488691D01*
Y9490713D01*
Y9492736D01*
Y9494759D01*
X14276060D01*
Y9496781D01*
X14261902D01*
Y9498804D01*
Y9500827D01*
Y9502849D01*
Y9504872D01*
X14280106D01*
Y9502849D01*
D02*
G37*
G36*
X14245720D02*
X14249767D01*
Y9500827D01*
X14251788D01*
Y9498804D01*
X14253812D01*
Y9496781D01*
Y9494759D01*
Y9492736D01*
X14255833D01*
Y9490713D01*
Y9488691D01*
Y9486668D01*
Y9484645D01*
Y9482622D01*
Y9480600D01*
Y9478577D01*
Y9476554D01*
Y9474531D01*
Y9472509D01*
Y9470486D01*
Y9468463D01*
Y9466441D01*
Y9464418D01*
Y9462395D01*
Y9460373D01*
Y9458350D01*
Y9456327D01*
Y9454304D01*
Y9452282D01*
Y9450259D01*
Y9448236D01*
Y9446214D01*
X14253812D01*
Y9444191D01*
Y9442168D01*
Y9440145D01*
X14251788D01*
Y9438123D01*
X14249767D01*
Y9436100D01*
X14245720D01*
Y9434077D01*
X14221448D01*
Y9436100D01*
Y9438123D01*
Y9440145D01*
Y9442168D01*
X14237630D01*
Y9444191D01*
X14239651D01*
Y9446214D01*
X14241675D01*
Y9448236D01*
Y9450259D01*
Y9452282D01*
Y9454304D01*
Y9456327D01*
Y9458350D01*
Y9460373D01*
Y9462395D01*
Y9464418D01*
Y9466441D01*
Y9468463D01*
Y9470486D01*
Y9472509D01*
Y9474531D01*
Y9476554D01*
Y9478577D01*
Y9480600D01*
Y9482622D01*
Y9484645D01*
Y9486668D01*
Y9488691D01*
Y9490713D01*
Y9492736D01*
X14239651D01*
Y9494759D01*
X14235606D01*
Y9496781D01*
X14215379D01*
Y9494759D01*
Y9492736D01*
Y9490713D01*
Y9488691D01*
Y9486668D01*
Y9484645D01*
Y9482622D01*
Y9480600D01*
Y9478577D01*
Y9476554D01*
Y9474531D01*
Y9472509D01*
Y9470486D01*
Y9468463D01*
Y9466441D01*
Y9464418D01*
Y9462395D01*
Y9460373D01*
Y9458350D01*
Y9456327D01*
Y9454304D01*
Y9452282D01*
Y9450259D01*
Y9448236D01*
Y9446214D01*
Y9444191D01*
Y9442168D01*
Y9440145D01*
Y9438123D01*
Y9436100D01*
Y9434077D01*
Y9432055D01*
Y9430032D01*
Y9428009D01*
Y9425986D01*
Y9423964D01*
Y9421941D01*
Y9419918D01*
Y9417896D01*
Y9415873D01*
Y9413850D01*
Y9411828D01*
Y9409805D01*
Y9407782D01*
Y9405759D01*
Y9403737D01*
X14201221D01*
Y9405759D01*
Y9407782D01*
Y9409805D01*
Y9411828D01*
Y9413850D01*
Y9415873D01*
Y9417896D01*
Y9419918D01*
Y9421941D01*
Y9423964D01*
Y9425986D01*
Y9428009D01*
Y9430032D01*
Y9432055D01*
Y9434077D01*
Y9436100D01*
Y9438123D01*
Y9440145D01*
Y9442168D01*
Y9444191D01*
Y9446214D01*
Y9448236D01*
Y9450259D01*
Y9452282D01*
Y9454304D01*
Y9456327D01*
Y9458350D01*
Y9460373D01*
Y9462395D01*
Y9464418D01*
Y9466441D01*
Y9468463D01*
Y9470486D01*
Y9472509D01*
Y9474531D01*
Y9476554D01*
Y9478577D01*
Y9480600D01*
Y9482622D01*
Y9484645D01*
Y9486668D01*
Y9488691D01*
Y9490713D01*
Y9492736D01*
Y9494759D01*
Y9496781D01*
Y9498804D01*
Y9500827D01*
Y9502849D01*
Y9504872D01*
X14245720D01*
Y9502849D01*
D02*
G37*
G36*
X14120312D02*
X14124358D01*
Y9500827D01*
X14126379D01*
Y9498804D01*
X14128403D01*
Y9496781D01*
Y9494759D01*
Y9492736D01*
X14130426D01*
Y9490713D01*
Y9488691D01*
Y9486668D01*
Y9484645D01*
Y9482622D01*
Y9480600D01*
Y9478577D01*
Y9476554D01*
Y9474531D01*
Y9472509D01*
Y9470486D01*
Y9468463D01*
Y9466441D01*
Y9464418D01*
Y9462395D01*
Y9460373D01*
Y9458350D01*
Y9456327D01*
Y9454304D01*
Y9452282D01*
Y9450259D01*
Y9448236D01*
Y9446214D01*
X14128403D01*
Y9444191D01*
Y9442168D01*
Y9440145D01*
X14126379D01*
Y9438123D01*
X14124358D01*
Y9436100D01*
X14120312D01*
Y9434077D01*
X14081882D01*
Y9436100D01*
Y9438123D01*
Y9440145D01*
Y9442168D01*
X14112221D01*
Y9444191D01*
X14114244D01*
Y9446214D01*
X14116267D01*
Y9448236D01*
Y9450259D01*
Y9452282D01*
Y9454304D01*
Y9456327D01*
Y9458350D01*
Y9460373D01*
Y9462395D01*
Y9464418D01*
Y9466441D01*
Y9468463D01*
Y9470486D01*
Y9472509D01*
Y9474531D01*
Y9476554D01*
Y9478577D01*
Y9480600D01*
Y9482622D01*
Y9484645D01*
Y9486668D01*
Y9488691D01*
Y9490713D01*
Y9492736D01*
X14114244D01*
Y9494759D01*
X14112221D01*
Y9496781D01*
X14091994D01*
Y9494759D01*
Y9492736D01*
X14089972D01*
Y9490713D01*
Y9488691D01*
Y9486668D01*
Y9484645D01*
Y9482622D01*
Y9480600D01*
Y9478577D01*
X14091994D01*
Y9476554D01*
Y9474531D01*
X14094017D01*
Y9472509D01*
X14108176D01*
Y9470486D01*
Y9468463D01*
Y9466441D01*
Y9464418D01*
X14085925D01*
Y9466441D01*
X14083904D01*
Y9468463D01*
X14081882D01*
Y9470486D01*
X14079858D01*
Y9472509D01*
Y9474531D01*
Y9476554D01*
X14077835D01*
Y9478577D01*
Y9480600D01*
Y9482622D01*
Y9484645D01*
Y9486668D01*
Y9488691D01*
Y9490713D01*
Y9492736D01*
X14079858D01*
Y9494759D01*
Y9496781D01*
Y9498804D01*
X14081882D01*
Y9500827D01*
X14083904D01*
Y9502849D01*
X14085925D01*
Y9504872D01*
X14120312D01*
Y9502849D01*
D02*
G37*
G36*
X14027267D02*
Y9500827D01*
Y9498804D01*
Y9496781D01*
X14005019D01*
Y9494759D01*
X14002995D01*
Y9492736D01*
X14000972D01*
Y9490713D01*
Y9488691D01*
Y9486668D01*
Y9484645D01*
Y9482622D01*
Y9480600D01*
Y9478577D01*
Y9476554D01*
Y9474531D01*
Y9472509D01*
Y9470486D01*
Y9468463D01*
Y9466441D01*
Y9464418D01*
Y9462395D01*
Y9460373D01*
Y9458350D01*
Y9456327D01*
Y9454304D01*
Y9452282D01*
Y9450259D01*
Y9448236D01*
Y9446214D01*
Y9444191D01*
Y9442168D01*
X14023222D01*
Y9444191D01*
X14025246D01*
Y9446214D01*
Y9448236D01*
Y9450259D01*
Y9452282D01*
X14027267D01*
Y9454304D01*
Y9456327D01*
Y9458350D01*
Y9460373D01*
X14025246D01*
Y9462395D01*
Y9464418D01*
Y9466441D01*
X14023222D01*
Y9468463D01*
X14007040D01*
Y9470486D01*
Y9472509D01*
Y9474531D01*
Y9476554D01*
X14029289D01*
Y9474531D01*
X14033336D01*
Y9472509D01*
X14035359D01*
Y9470486D01*
Y9468463D01*
X14037381D01*
Y9466441D01*
Y9464418D01*
Y9462395D01*
X14039404D01*
Y9460373D01*
Y9458350D01*
Y9456327D01*
Y9454304D01*
Y9452282D01*
Y9450259D01*
Y9448236D01*
X14037381D01*
Y9446214D01*
Y9444191D01*
Y9442168D01*
X14035359D01*
Y9440145D01*
Y9438123D01*
X14033336D01*
Y9436100D01*
X14029289D01*
Y9434077D01*
X13986813D01*
Y9436100D01*
Y9438123D01*
Y9440145D01*
Y9442168D01*
Y9444191D01*
Y9446214D01*
Y9448236D01*
Y9450259D01*
Y9452282D01*
Y9454304D01*
Y9456327D01*
Y9458350D01*
Y9460373D01*
Y9462395D01*
Y9464418D01*
Y9466441D01*
Y9468463D01*
Y9470486D01*
Y9472509D01*
Y9474531D01*
Y9476554D01*
Y9478577D01*
Y9480600D01*
Y9482622D01*
Y9484645D01*
Y9486668D01*
Y9488691D01*
X13988837D01*
Y9490713D01*
Y9492736D01*
Y9494759D01*
Y9496781D01*
Y9498804D01*
X13990858D01*
Y9500827D01*
X13992880D01*
Y9502849D01*
X13996927D01*
Y9504872D01*
X14027267D01*
Y9502849D01*
D02*
G37*
G36*
X13978723D02*
Y9500827D01*
Y9498804D01*
Y9496781D01*
Y9494759D01*
Y9492736D01*
Y9490713D01*
Y9488691D01*
Y9486668D01*
Y9484645D01*
Y9482622D01*
Y9480600D01*
Y9478577D01*
Y9476554D01*
Y9474531D01*
Y9472509D01*
Y9470486D01*
Y9468463D01*
Y9466441D01*
Y9464418D01*
Y9462395D01*
Y9460373D01*
Y9458350D01*
Y9456327D01*
Y9454304D01*
Y9452282D01*
Y9450259D01*
Y9448236D01*
Y9446214D01*
Y9444191D01*
Y9442168D01*
Y9440145D01*
Y9438123D01*
Y9436100D01*
Y9434077D01*
X13964565D01*
Y9436100D01*
Y9438123D01*
Y9440145D01*
Y9442168D01*
Y9444191D01*
Y9446214D01*
Y9448236D01*
Y9450259D01*
Y9452282D01*
Y9454304D01*
Y9456327D01*
Y9458350D01*
Y9460373D01*
Y9462395D01*
Y9464418D01*
Y9466441D01*
Y9468463D01*
Y9470486D01*
Y9472509D01*
Y9474531D01*
Y9476554D01*
Y9478577D01*
Y9480600D01*
Y9482622D01*
Y9484645D01*
Y9486668D01*
Y9488691D01*
Y9490713D01*
Y9492736D01*
Y9494759D01*
Y9496781D01*
X13940291D01*
Y9494759D01*
X13938268D01*
Y9492736D01*
Y9490713D01*
Y9488691D01*
X13936246D01*
Y9486668D01*
Y9484645D01*
Y9482622D01*
Y9480600D01*
Y9478577D01*
Y9476554D01*
Y9474531D01*
Y9472509D01*
Y9470486D01*
Y9468463D01*
Y9466441D01*
Y9464418D01*
Y9462395D01*
Y9460373D01*
Y9458350D01*
Y9456327D01*
Y9454304D01*
Y9452282D01*
Y9450259D01*
Y9448236D01*
Y9446214D01*
Y9444191D01*
Y9442168D01*
Y9440145D01*
Y9438123D01*
Y9436100D01*
Y9434077D01*
X13924110D01*
Y9436100D01*
Y9438123D01*
Y9440145D01*
Y9442168D01*
Y9444191D01*
Y9446214D01*
Y9448236D01*
Y9450259D01*
Y9452282D01*
Y9454304D01*
Y9456327D01*
Y9458350D01*
Y9460373D01*
Y9462395D01*
Y9464418D01*
Y9466441D01*
Y9468463D01*
Y9470486D01*
Y9472509D01*
Y9474531D01*
Y9476554D01*
Y9478577D01*
Y9480600D01*
Y9482622D01*
Y9484645D01*
Y9486668D01*
Y9488691D01*
Y9490713D01*
Y9492736D01*
Y9494759D01*
Y9496781D01*
X13926132D01*
Y9498804D01*
Y9500827D01*
X13928156D01*
Y9502849D01*
X13932201D01*
Y9504872D01*
X13978723D01*
Y9502849D01*
D02*
G37*
G36*
X13875565Y9521054D02*
Y9519031D01*
Y9517008D01*
Y9514986D01*
Y9512963D01*
Y9510940D01*
Y9508918D01*
Y9506895D01*
Y9504872D01*
Y9502849D01*
Y9500827D01*
Y9498804D01*
Y9496781D01*
Y9494759D01*
Y9492736D01*
Y9490713D01*
Y9488691D01*
Y9486668D01*
Y9484645D01*
Y9482622D01*
Y9480600D01*
Y9478577D01*
Y9476554D01*
Y9474531D01*
Y9472509D01*
Y9470486D01*
Y9468463D01*
Y9466441D01*
Y9464418D01*
Y9462395D01*
Y9460373D01*
Y9458350D01*
Y9456327D01*
Y9454304D01*
Y9452282D01*
Y9450259D01*
Y9448236D01*
Y9446214D01*
Y9444191D01*
Y9442168D01*
X13895792D01*
Y9444191D01*
X13897813D01*
Y9446214D01*
X13899837D01*
Y9448236D01*
X13901860D01*
Y9450259D01*
Y9452282D01*
Y9454304D01*
Y9456327D01*
Y9458350D01*
Y9460373D01*
Y9462395D01*
Y9464418D01*
Y9466441D01*
Y9468463D01*
Y9470486D01*
Y9472509D01*
Y9474531D01*
Y9476554D01*
Y9478577D01*
Y9480600D01*
Y9482622D01*
Y9484645D01*
Y9486668D01*
Y9488691D01*
Y9490713D01*
Y9492736D01*
X13899837D01*
Y9494759D01*
X13897813D01*
Y9496781D01*
X13883655D01*
Y9498804D01*
Y9500827D01*
Y9502849D01*
Y9504872D01*
X13905905D01*
Y9502849D01*
X13909950D01*
Y9500827D01*
X13911974D01*
Y9498804D01*
Y9496781D01*
X13913995D01*
Y9494759D01*
Y9492736D01*
Y9490713D01*
X13916019D01*
Y9488691D01*
Y9486668D01*
Y9484645D01*
Y9482622D01*
Y9480600D01*
Y9478577D01*
Y9476554D01*
Y9474531D01*
Y9472509D01*
Y9470486D01*
Y9468463D01*
Y9466441D01*
Y9464418D01*
Y9462395D01*
Y9460373D01*
Y9458350D01*
Y9456327D01*
Y9454304D01*
Y9452282D01*
Y9450259D01*
Y9448236D01*
X13913995D01*
Y9446214D01*
Y9444191D01*
Y9442168D01*
X13911974D01*
Y9440145D01*
Y9438123D01*
X13909950D01*
Y9436100D01*
X13905905D01*
Y9434077D01*
X13863428D01*
Y9436100D01*
Y9438123D01*
Y9440145D01*
Y9442168D01*
Y9444191D01*
Y9446214D01*
Y9448236D01*
Y9450259D01*
Y9452282D01*
Y9454304D01*
Y9456327D01*
Y9458350D01*
Y9460373D01*
Y9462395D01*
Y9464418D01*
Y9466441D01*
Y9468463D01*
Y9470486D01*
Y9472509D01*
Y9474531D01*
Y9476554D01*
Y9478577D01*
Y9480600D01*
Y9482622D01*
Y9484645D01*
Y9486668D01*
Y9488691D01*
Y9490713D01*
Y9492736D01*
Y9494759D01*
Y9496781D01*
Y9498804D01*
Y9500827D01*
Y9502849D01*
Y9504872D01*
Y9506895D01*
Y9508918D01*
Y9510940D01*
Y9512963D01*
Y9514986D01*
Y9517008D01*
Y9519031D01*
Y9521054D01*
Y9523076D01*
X13875565D01*
Y9521054D01*
D02*
G37*
G36*
X14753419Y9444191D02*
X14755441D01*
Y9442168D01*
X14757465D01*
Y9440145D01*
Y9438123D01*
Y9436100D01*
Y9434077D01*
X14755441D01*
Y9432055D01*
X14753419D01*
Y9430032D01*
X14749374D01*
Y9432055D01*
X14747353D01*
Y9434077D01*
X14745329D01*
Y9436100D01*
Y9438123D01*
Y9440145D01*
Y9442168D01*
X14747353D01*
Y9444191D01*
X14749374D01*
Y9446214D01*
X14753419D01*
Y9444191D01*
D02*
G37*
G36*
X14571376Y9371373D02*
Y9369351D01*
Y9367328D01*
Y9365305D01*
Y9363283D01*
Y9361260D01*
X14557217D01*
Y9363283D01*
Y9365305D01*
Y9367328D01*
Y9369351D01*
Y9371373D01*
Y9373396D01*
X14571376D01*
Y9371373D01*
D02*
G37*
G36*
X14447990D02*
Y9369351D01*
Y9367328D01*
Y9365305D01*
Y9363283D01*
Y9361260D01*
X14433832D01*
Y9363283D01*
Y9365305D01*
Y9367328D01*
Y9369351D01*
Y9371373D01*
Y9373396D01*
X14447990D01*
Y9371373D01*
D02*
G37*
G36*
X14098062Y9353169D02*
Y9351146D01*
X14096040D01*
Y9349124D01*
Y9347101D01*
Y9345078D01*
X14094017D01*
Y9343055D01*
Y9341033D01*
Y9339010D01*
Y9336987D01*
X14091994D01*
Y9334965D01*
Y9332942D01*
Y9330919D01*
Y9328897D01*
X14089972D01*
Y9326874D01*
Y9324851D01*
Y9322828D01*
X14087949D01*
Y9320806D01*
Y9318783D01*
Y9316760D01*
Y9314738D01*
X14085925D01*
Y9312715D01*
Y9310692D01*
Y9308669D01*
Y9306647D01*
X14083904D01*
Y9304624D01*
Y9302601D01*
Y9300579D01*
X14081882D01*
Y9298556D01*
Y9296533D01*
Y9294510D01*
Y9292488D01*
X14079858D01*
Y9290465D01*
Y9288442D01*
Y9286420D01*
Y9284397D01*
X14059631D01*
Y9286420D01*
Y9288442D01*
X14057608D01*
Y9290465D01*
Y9292488D01*
Y9294510D01*
Y9296533D01*
X14055586D01*
Y9298556D01*
Y9300579D01*
Y9302601D01*
Y9304624D01*
X14053563D01*
Y9306647D01*
Y9308669D01*
Y9310692D01*
X14051540D01*
Y9312715D01*
Y9314738D01*
Y9316760D01*
Y9318783D01*
X14049516D01*
Y9320806D01*
Y9322828D01*
Y9324851D01*
Y9326874D01*
X14047495D01*
Y9328897D01*
Y9330919D01*
Y9332942D01*
X14045473D01*
Y9334965D01*
Y9336987D01*
Y9339010D01*
Y9341033D01*
X14043449D01*
Y9343055D01*
Y9345078D01*
Y9347101D01*
Y9349124D01*
X14041426D01*
Y9351146D01*
Y9353169D01*
Y9355192D01*
X14053563D01*
Y9353169D01*
X14055586D01*
Y9351146D01*
Y9349124D01*
Y9347101D01*
Y9345078D01*
X14057608D01*
Y9343055D01*
Y9341033D01*
Y9339010D01*
Y9336987D01*
X14059631D01*
Y9334965D01*
Y9332942D01*
Y9330919D01*
Y9328897D01*
X14061655D01*
Y9326874D01*
Y9324851D01*
Y9322828D01*
Y9320806D01*
Y9318783D01*
X14063676D01*
Y9316760D01*
Y9314738D01*
Y9312715D01*
Y9310692D01*
X14065698D01*
Y9308669D01*
Y9306647D01*
Y9304624D01*
Y9302601D01*
X14067722D01*
Y9300579D01*
Y9298556D01*
Y9296533D01*
Y9294510D01*
X14069743D01*
Y9296533D01*
Y9298556D01*
X14071767D01*
Y9300579D01*
Y9302601D01*
Y9304624D01*
Y9306647D01*
X14073790D01*
Y9308669D01*
Y9310692D01*
Y9312715D01*
Y9314738D01*
X14075813D01*
Y9316760D01*
Y9318783D01*
Y9320806D01*
Y9322828D01*
X14077835D01*
Y9324851D01*
Y9326874D01*
Y9328897D01*
Y9330919D01*
X14079858D01*
Y9332942D01*
Y9334965D01*
Y9336987D01*
Y9339010D01*
Y9341033D01*
X14081882D01*
Y9343055D01*
Y9345078D01*
Y9347101D01*
Y9349124D01*
X14083904D01*
Y9351146D01*
Y9353169D01*
Y9355192D01*
X14098062D01*
Y9353169D01*
D02*
G37*
G36*
X14656329Y9371373D02*
X14658353D01*
Y9369351D01*
X14660374D01*
Y9367328D01*
X14662398D01*
Y9365305D01*
Y9363283D01*
X14664421D01*
Y9361260D01*
Y9359237D01*
Y9357214D01*
X14666443D01*
Y9355192D01*
Y9353169D01*
Y9351146D01*
Y9349124D01*
Y9347101D01*
Y9345078D01*
Y9343055D01*
Y9341033D01*
Y9339010D01*
Y9336987D01*
Y9334965D01*
Y9332942D01*
Y9330919D01*
Y9328897D01*
Y9326874D01*
Y9324851D01*
Y9322828D01*
Y9320806D01*
Y9318783D01*
Y9316760D01*
Y9314738D01*
Y9312715D01*
Y9310692D01*
Y9308669D01*
Y9306647D01*
Y9304624D01*
Y9302601D01*
Y9300579D01*
Y9298556D01*
X14664421D01*
Y9296533D01*
Y9294510D01*
X14662398D01*
Y9292488D01*
Y9290465D01*
X14660374D01*
Y9288442D01*
X14658353D01*
Y9286420D01*
X14656329D01*
Y9284397D01*
X14619920D01*
Y9286420D01*
Y9288442D01*
Y9290465D01*
Y9292488D01*
X14648239D01*
Y9294510D01*
X14650262D01*
Y9296533D01*
X14652284D01*
Y9298556D01*
Y9300579D01*
Y9302601D01*
X14654308D01*
Y9304624D01*
Y9306647D01*
Y9308669D01*
Y9310692D01*
Y9312715D01*
Y9314738D01*
Y9316760D01*
Y9318783D01*
Y9320806D01*
Y9322828D01*
Y9324851D01*
Y9326874D01*
Y9328897D01*
Y9330919D01*
Y9332942D01*
Y9334965D01*
Y9336987D01*
Y9339010D01*
Y9341033D01*
Y9343055D01*
Y9345078D01*
Y9347101D01*
Y9349124D01*
Y9351146D01*
Y9353169D01*
Y9355192D01*
X14652284D01*
Y9357214D01*
Y9359237D01*
Y9361260D01*
X14650262D01*
Y9363283D01*
X14648239D01*
Y9365305D01*
X14619920D01*
Y9367328D01*
Y9369351D01*
Y9371373D01*
Y9373396D01*
X14656329D01*
Y9371373D01*
D02*
G37*
G36*
X14597672Y9353169D02*
X14603738D01*
Y9351146D01*
X14605762D01*
Y9349124D01*
X14607785D01*
Y9347101D01*
X14609807D01*
Y9345078D01*
Y9343055D01*
X14611830D01*
Y9341033D01*
Y9339010D01*
Y9336987D01*
Y9334965D01*
Y9332942D01*
Y9330919D01*
Y9328897D01*
Y9326874D01*
Y9324851D01*
Y9322828D01*
Y9320806D01*
Y9318783D01*
Y9316760D01*
Y9314738D01*
Y9312715D01*
Y9310692D01*
Y9308669D01*
Y9306647D01*
Y9304624D01*
Y9302601D01*
Y9300579D01*
Y9298556D01*
Y9296533D01*
Y9294510D01*
Y9292488D01*
Y9290465D01*
Y9288442D01*
Y9286420D01*
Y9284397D01*
X14599693D01*
Y9286420D01*
Y9288442D01*
Y9290465D01*
Y9292488D01*
Y9294510D01*
Y9296533D01*
Y9298556D01*
Y9300579D01*
Y9302601D01*
Y9304624D01*
Y9306647D01*
Y9308669D01*
Y9310692D01*
Y9312715D01*
Y9314738D01*
Y9316760D01*
Y9318783D01*
Y9320806D01*
Y9322828D01*
Y9324851D01*
Y9326874D01*
Y9328897D01*
Y9330919D01*
Y9332942D01*
Y9334965D01*
X14597672D01*
Y9336987D01*
Y9339010D01*
Y9341033D01*
Y9343055D01*
Y9345078D01*
X14593626D01*
Y9347101D01*
X14579466D01*
Y9349124D01*
Y9351146D01*
Y9353169D01*
Y9355192D01*
X14597672D01*
Y9353169D01*
D02*
G37*
G36*
X14571376D02*
Y9351146D01*
Y9349124D01*
Y9347101D01*
Y9345078D01*
Y9343055D01*
Y9341033D01*
Y9339010D01*
Y9336987D01*
Y9334965D01*
Y9332942D01*
Y9330919D01*
Y9328897D01*
Y9326874D01*
Y9324851D01*
Y9322828D01*
Y9320806D01*
Y9318783D01*
Y9316760D01*
Y9314738D01*
Y9312715D01*
Y9310692D01*
Y9308669D01*
Y9306647D01*
Y9304624D01*
Y9302601D01*
Y9300579D01*
Y9298556D01*
Y9296533D01*
Y9294510D01*
Y9292488D01*
Y9290465D01*
Y9288442D01*
Y9286420D01*
Y9284397D01*
X14557217D01*
Y9286420D01*
Y9288442D01*
Y9290465D01*
Y9292488D01*
Y9294510D01*
Y9296533D01*
Y9298556D01*
Y9300579D01*
Y9302601D01*
Y9304624D01*
Y9306647D01*
Y9308669D01*
Y9310692D01*
Y9312715D01*
Y9314738D01*
Y9316760D01*
Y9318783D01*
Y9320806D01*
Y9322828D01*
Y9324851D01*
Y9326874D01*
Y9328897D01*
Y9330919D01*
Y9332942D01*
Y9334965D01*
Y9336987D01*
Y9339010D01*
Y9341033D01*
Y9343055D01*
Y9345078D01*
Y9347101D01*
Y9349124D01*
Y9351146D01*
Y9353169D01*
Y9355192D01*
X14571376D01*
Y9353169D01*
D02*
G37*
G36*
X14539014D02*
X14541035D01*
Y9351146D01*
X14543057D01*
Y9349124D01*
X14545081D01*
Y9347101D01*
Y9345078D01*
Y9343055D01*
X14547102D01*
Y9341033D01*
Y9339010D01*
Y9336987D01*
Y9334965D01*
Y9332942D01*
Y9330919D01*
Y9328897D01*
X14545081D01*
Y9326874D01*
Y9324851D01*
Y9322828D01*
X14543057D01*
Y9320806D01*
Y9318783D01*
X14541035D01*
Y9316760D01*
X14539014D01*
Y9314738D01*
X14510695D01*
Y9312715D01*
X14508672D01*
Y9310692D01*
Y9308669D01*
X14506648D01*
Y9306647D01*
Y9304624D01*
Y9302601D01*
Y9300579D01*
Y9298556D01*
X14508672D01*
Y9296533D01*
Y9294510D01*
X14510695D01*
Y9292488D01*
X14541035D01*
Y9290465D01*
Y9288442D01*
Y9286420D01*
Y9284397D01*
X14502605D01*
Y9286420D01*
X14500581D01*
Y9288442D01*
X14498560D01*
Y9290465D01*
Y9292488D01*
X14496536D01*
Y9294510D01*
Y9296533D01*
Y9298556D01*
Y9300579D01*
Y9302601D01*
X14494513D01*
Y9304624D01*
X14496536D01*
Y9306647D01*
Y9308669D01*
Y9310692D01*
Y9312715D01*
Y9314738D01*
Y9316760D01*
X14498560D01*
Y9318783D01*
Y9320806D01*
X14500581D01*
Y9322828D01*
X14502605D01*
Y9324851D01*
X14530922D01*
Y9326874D01*
X14532945D01*
Y9328897D01*
X14534967D01*
Y9330919D01*
Y9332942D01*
Y9334965D01*
Y9336987D01*
Y9339010D01*
Y9341033D01*
Y9343055D01*
X14532945D01*
Y9345078D01*
Y9347101D01*
X14504626D01*
Y9349124D01*
Y9351146D01*
Y9353169D01*
Y9355192D01*
X14539014D01*
Y9353169D01*
D02*
G37*
G36*
X14486423Y9371373D02*
Y9369351D01*
Y9367328D01*
Y9365305D01*
Y9363283D01*
Y9361260D01*
Y9359237D01*
Y9357214D01*
Y9355192D01*
Y9353169D01*
Y9351146D01*
Y9349124D01*
Y9347101D01*
Y9345078D01*
Y9343055D01*
Y9341033D01*
Y9339010D01*
Y9336987D01*
Y9334965D01*
Y9332942D01*
Y9330919D01*
Y9328897D01*
Y9326874D01*
Y9324851D01*
Y9322828D01*
Y9320806D01*
Y9318783D01*
Y9316760D01*
Y9314738D01*
Y9312715D01*
Y9310692D01*
Y9308669D01*
Y9306647D01*
Y9304624D01*
Y9302601D01*
Y9300579D01*
Y9298556D01*
Y9296533D01*
Y9294510D01*
Y9292488D01*
X14484399D01*
Y9290465D01*
Y9288442D01*
X14482378D01*
Y9286420D01*
X14478331D01*
Y9284397D01*
X14460127D01*
Y9286420D01*
Y9288442D01*
Y9290465D01*
Y9292488D01*
X14470241D01*
Y9294510D01*
X14472263D01*
Y9296533D01*
Y9298556D01*
Y9300579D01*
Y9302601D01*
Y9304624D01*
Y9306647D01*
Y9308669D01*
Y9310692D01*
Y9312715D01*
Y9314738D01*
Y9316760D01*
Y9318783D01*
Y9320806D01*
Y9322828D01*
Y9324851D01*
Y9326874D01*
Y9328897D01*
Y9330919D01*
Y9332942D01*
Y9334965D01*
Y9336987D01*
Y9339010D01*
Y9341033D01*
Y9343055D01*
Y9345078D01*
Y9347101D01*
X14456082D01*
Y9349124D01*
Y9351146D01*
Y9353169D01*
Y9355192D01*
X14472263D01*
Y9357214D01*
Y9359237D01*
Y9361260D01*
Y9363283D01*
Y9365305D01*
Y9367328D01*
Y9369351D01*
Y9371373D01*
Y9373396D01*
X14486423D01*
Y9371373D01*
D02*
G37*
G36*
X14447990Y9353169D02*
Y9351146D01*
Y9349124D01*
Y9347101D01*
Y9345078D01*
Y9343055D01*
Y9341033D01*
Y9339010D01*
Y9336987D01*
Y9334965D01*
Y9332942D01*
Y9330919D01*
Y9328897D01*
Y9326874D01*
Y9324851D01*
Y9322828D01*
Y9320806D01*
Y9318783D01*
Y9316760D01*
Y9314738D01*
Y9312715D01*
Y9310692D01*
Y9308669D01*
Y9306647D01*
Y9304624D01*
Y9302601D01*
Y9300579D01*
Y9298556D01*
Y9296533D01*
Y9294510D01*
Y9292488D01*
Y9290465D01*
Y9288442D01*
Y9286420D01*
Y9284397D01*
X14433832D01*
Y9286420D01*
Y9288442D01*
Y9290465D01*
Y9292488D01*
Y9294510D01*
Y9296533D01*
Y9298556D01*
Y9300579D01*
Y9302601D01*
Y9304624D01*
Y9306647D01*
Y9308669D01*
Y9310692D01*
Y9312715D01*
Y9314738D01*
Y9316760D01*
Y9318783D01*
Y9320806D01*
Y9322828D01*
Y9324851D01*
Y9326874D01*
Y9328897D01*
Y9330919D01*
Y9332942D01*
Y9334965D01*
Y9336987D01*
Y9339010D01*
Y9341033D01*
Y9343055D01*
Y9345078D01*
Y9347101D01*
Y9349124D01*
Y9351146D01*
Y9353169D01*
Y9355192D01*
X14447990D01*
Y9353169D01*
D02*
G37*
G36*
X14411581D02*
Y9351146D01*
Y9349124D01*
Y9347101D01*
X14389333D01*
Y9345078D01*
X14387309D01*
Y9343055D01*
X14385287D01*
Y9341033D01*
Y9339010D01*
Y9336987D01*
Y9334965D01*
Y9332942D01*
Y9330919D01*
Y9328897D01*
Y9326874D01*
Y9324851D01*
Y9322828D01*
Y9320806D01*
Y9318783D01*
Y9316760D01*
Y9314738D01*
Y9312715D01*
Y9310692D01*
Y9308669D01*
Y9306647D01*
Y9304624D01*
Y9302601D01*
Y9300579D01*
Y9298556D01*
Y9296533D01*
Y9294510D01*
Y9292488D01*
X14407536D01*
Y9294510D01*
X14409560D01*
Y9296533D01*
Y9298556D01*
Y9300579D01*
Y9302601D01*
X14411581D01*
Y9304624D01*
Y9306647D01*
Y9308669D01*
Y9310692D01*
X14409560D01*
Y9312715D01*
Y9314738D01*
Y9316760D01*
X14407536D01*
Y9318783D01*
X14391354D01*
Y9320806D01*
Y9322828D01*
Y9324851D01*
Y9326874D01*
X14413605D01*
Y9324851D01*
X14417650D01*
Y9322828D01*
X14419673D01*
Y9320806D01*
Y9318783D01*
X14421696D01*
Y9316760D01*
Y9314738D01*
Y9312715D01*
X14423718D01*
Y9310692D01*
Y9308669D01*
Y9306647D01*
Y9304624D01*
Y9302601D01*
Y9300579D01*
Y9298556D01*
X14421696D01*
Y9296533D01*
Y9294510D01*
Y9292488D01*
X14419673D01*
Y9290465D01*
Y9288442D01*
X14417650D01*
Y9286420D01*
X14413605D01*
Y9284397D01*
X14371127D01*
Y9286420D01*
Y9288442D01*
Y9290465D01*
Y9292488D01*
Y9294510D01*
Y9296533D01*
Y9298556D01*
Y9300579D01*
Y9302601D01*
Y9304624D01*
Y9306647D01*
Y9308669D01*
Y9310692D01*
Y9312715D01*
Y9314738D01*
Y9316760D01*
Y9318783D01*
Y9320806D01*
Y9322828D01*
Y9324851D01*
Y9326874D01*
Y9328897D01*
Y9330919D01*
Y9332942D01*
Y9334965D01*
Y9336987D01*
Y9339010D01*
X14373151D01*
Y9341033D01*
Y9343055D01*
Y9345078D01*
Y9347101D01*
Y9349124D01*
X14375172D01*
Y9351146D01*
X14377196D01*
Y9353169D01*
X14381241D01*
Y9355192D01*
X14411581D01*
Y9353169D01*
D02*
G37*
G36*
X14363037D02*
Y9351146D01*
Y9349124D01*
Y9347101D01*
Y9345078D01*
Y9343055D01*
Y9341033D01*
Y9339010D01*
Y9336987D01*
Y9334965D01*
Y9332942D01*
Y9330919D01*
Y9328897D01*
Y9326874D01*
Y9324851D01*
Y9322828D01*
Y9320806D01*
Y9318783D01*
Y9316760D01*
Y9314738D01*
Y9312715D01*
Y9310692D01*
Y9308669D01*
Y9306647D01*
Y9304624D01*
Y9302601D01*
Y9300579D01*
Y9298556D01*
Y9296533D01*
Y9294510D01*
Y9292488D01*
Y9290465D01*
Y9288442D01*
Y9286420D01*
Y9284397D01*
X14348878D01*
Y9286420D01*
Y9288442D01*
Y9290465D01*
Y9292488D01*
Y9294510D01*
Y9296533D01*
Y9298556D01*
Y9300579D01*
Y9302601D01*
Y9304624D01*
Y9306647D01*
Y9308669D01*
Y9310692D01*
Y9312715D01*
Y9314738D01*
Y9316760D01*
Y9318783D01*
Y9320806D01*
Y9322828D01*
Y9324851D01*
Y9326874D01*
Y9328897D01*
Y9330919D01*
Y9332942D01*
Y9334965D01*
Y9336987D01*
Y9339010D01*
Y9341033D01*
Y9343055D01*
Y9345078D01*
Y9347101D01*
X14324606D01*
Y9345078D01*
X14322583D01*
Y9343055D01*
Y9341033D01*
Y9339010D01*
X14320560D01*
Y9336987D01*
Y9334965D01*
Y9332942D01*
Y9330919D01*
Y9328897D01*
Y9326874D01*
Y9324851D01*
Y9322828D01*
Y9320806D01*
Y9318783D01*
Y9316760D01*
Y9314738D01*
Y9312715D01*
Y9310692D01*
Y9308669D01*
Y9306647D01*
Y9304624D01*
Y9302601D01*
Y9300579D01*
Y9298556D01*
Y9296533D01*
Y9294510D01*
Y9292488D01*
Y9290465D01*
Y9288442D01*
Y9286420D01*
Y9284397D01*
X14308424D01*
Y9286420D01*
Y9288442D01*
Y9290465D01*
Y9292488D01*
Y9294510D01*
Y9296533D01*
Y9298556D01*
Y9300579D01*
Y9302601D01*
Y9304624D01*
Y9306647D01*
Y9308669D01*
Y9310692D01*
Y9312715D01*
Y9314738D01*
Y9316760D01*
Y9318783D01*
Y9320806D01*
Y9322828D01*
Y9324851D01*
Y9326874D01*
Y9328897D01*
Y9330919D01*
Y9332942D01*
Y9334965D01*
Y9336987D01*
Y9339010D01*
Y9341033D01*
Y9343055D01*
Y9345078D01*
Y9347101D01*
X14310448D01*
Y9349124D01*
Y9351146D01*
X14312469D01*
Y9353169D01*
X14316515D01*
Y9355192D01*
X14363037D01*
Y9353169D01*
D02*
G37*
G36*
X14255833Y9371373D02*
Y9369351D01*
Y9367328D01*
X14257857D01*
Y9365305D01*
Y9363283D01*
Y9361260D01*
Y9359237D01*
Y9357214D01*
X14259879D01*
Y9355192D01*
Y9353169D01*
Y9351146D01*
Y9349124D01*
Y9347101D01*
X14261902D01*
Y9345078D01*
Y9343055D01*
Y9341033D01*
Y9339010D01*
Y9336987D01*
X14263924D01*
Y9334965D01*
Y9332942D01*
Y9330919D01*
Y9328897D01*
Y9326874D01*
X14265947D01*
Y9324851D01*
Y9322828D01*
Y9320806D01*
Y9318783D01*
X14267970D01*
Y9316760D01*
Y9314738D01*
Y9312715D01*
Y9310692D01*
Y9308669D01*
X14269994D01*
Y9306647D01*
Y9304624D01*
Y9302601D01*
Y9300579D01*
Y9298556D01*
X14272015D01*
Y9296533D01*
Y9294510D01*
Y9292488D01*
Y9290465D01*
Y9288442D01*
X14274039D01*
Y9286420D01*
Y9284397D01*
X14259879D01*
Y9286420D01*
Y9288442D01*
Y9290465D01*
Y9292488D01*
Y9294510D01*
X14257857D01*
Y9296533D01*
Y9298556D01*
Y9300579D01*
Y9302601D01*
Y9304624D01*
X14235606D01*
Y9302601D01*
Y9300579D01*
Y9298556D01*
X14233585D01*
Y9296533D01*
Y9294510D01*
Y9292488D01*
Y9290465D01*
Y9288442D01*
Y9286420D01*
X14231561D01*
Y9284397D01*
X14219424D01*
Y9286420D01*
Y9288442D01*
Y9290465D01*
X14221448D01*
Y9292488D01*
Y9294510D01*
Y9296533D01*
Y9298556D01*
Y9300579D01*
X14223470D01*
Y9302601D01*
Y9304624D01*
Y9306647D01*
Y9308669D01*
Y9310692D01*
X14225493D01*
Y9312715D01*
Y9314738D01*
Y9316760D01*
Y9318783D01*
Y9320806D01*
X14227516D01*
Y9322828D01*
Y9324851D01*
Y9326874D01*
Y9328897D01*
Y9330919D01*
X14229538D01*
Y9332942D01*
Y9334965D01*
Y9336987D01*
Y9339010D01*
Y9341033D01*
X14231561D01*
Y9343055D01*
Y9345078D01*
Y9347101D01*
Y9349124D01*
X14233585D01*
Y9351146D01*
Y9353169D01*
Y9355192D01*
Y9357214D01*
Y9359237D01*
X14235606D01*
Y9361260D01*
Y9363283D01*
Y9365305D01*
Y9367328D01*
Y9369351D01*
X14237630D01*
Y9371373D01*
Y9373396D01*
X14255833D01*
Y9371373D01*
D02*
G37*
G36*
X14199197Y9353169D02*
X14203242D01*
Y9351146D01*
X14205266D01*
Y9349124D01*
X14207289D01*
Y9347101D01*
Y9345078D01*
Y9343055D01*
X14209311D01*
Y9341033D01*
Y9339010D01*
Y9336987D01*
Y9334965D01*
Y9332942D01*
Y9330919D01*
Y9328897D01*
Y9326874D01*
Y9324851D01*
Y9322828D01*
Y9320806D01*
Y9318783D01*
Y9316760D01*
Y9314738D01*
Y9312715D01*
Y9310692D01*
Y9308669D01*
Y9306647D01*
Y9304624D01*
Y9302601D01*
Y9300579D01*
Y9298556D01*
Y9296533D01*
X14207289D01*
Y9294510D01*
Y9292488D01*
Y9290465D01*
X14205266D01*
Y9288442D01*
X14203242D01*
Y9286420D01*
X14199197D01*
Y9284397D01*
X14166835D01*
Y9286420D01*
Y9288442D01*
Y9290465D01*
Y9292488D01*
X14191107D01*
Y9294510D01*
X14193130D01*
Y9296533D01*
X14195152D01*
Y9298556D01*
Y9300579D01*
Y9302601D01*
Y9304624D01*
Y9306647D01*
Y9308669D01*
Y9310692D01*
Y9312715D01*
Y9314738D01*
Y9316760D01*
Y9318783D01*
Y9320806D01*
Y9322828D01*
Y9324851D01*
Y9326874D01*
Y9328897D01*
Y9330919D01*
Y9332942D01*
Y9334965D01*
Y9336987D01*
Y9339010D01*
Y9341033D01*
Y9343055D01*
X14193130D01*
Y9345078D01*
X14191107D01*
Y9347101D01*
X14166835D01*
Y9349124D01*
Y9351146D01*
Y9353169D01*
Y9355192D01*
X14199197D01*
Y9353169D01*
D02*
G37*
G36*
X14146606D02*
X14150653D01*
Y9351146D01*
X14152675D01*
Y9349124D01*
X14154698D01*
Y9347101D01*
Y9345078D01*
Y9343055D01*
X14156721D01*
Y9341033D01*
Y9339010D01*
Y9336987D01*
Y9334965D01*
Y9332942D01*
Y9330919D01*
Y9328897D01*
Y9326874D01*
Y9324851D01*
Y9322828D01*
Y9320806D01*
Y9318783D01*
Y9316760D01*
Y9314738D01*
Y9312715D01*
Y9310692D01*
Y9308669D01*
Y9306647D01*
Y9304624D01*
Y9302601D01*
Y9300579D01*
Y9298556D01*
Y9296533D01*
X14154698D01*
Y9294510D01*
Y9292488D01*
Y9290465D01*
X14152675D01*
Y9288442D01*
X14150653D01*
Y9286420D01*
X14146606D01*
Y9284397D01*
X14108176D01*
Y9286420D01*
Y9288442D01*
Y9290465D01*
Y9292488D01*
X14138518D01*
Y9294510D01*
X14140540D01*
Y9296533D01*
X14142561D01*
Y9298556D01*
Y9300579D01*
Y9302601D01*
Y9304624D01*
Y9306647D01*
Y9308669D01*
Y9310692D01*
Y9312715D01*
Y9314738D01*
Y9316760D01*
Y9318783D01*
Y9320806D01*
Y9322828D01*
Y9324851D01*
Y9326874D01*
Y9328897D01*
Y9330919D01*
Y9332942D01*
Y9334965D01*
Y9336987D01*
Y9339010D01*
Y9341033D01*
Y9343055D01*
X14140540D01*
Y9345078D01*
X14138518D01*
Y9347101D01*
X14118291D01*
Y9345078D01*
Y9343055D01*
X14116267D01*
Y9341033D01*
Y9339010D01*
Y9336987D01*
Y9334965D01*
Y9332942D01*
Y9330919D01*
Y9328897D01*
X14118291D01*
Y9326874D01*
Y9324851D01*
X14120312D01*
Y9322828D01*
X14134471D01*
Y9320806D01*
Y9318783D01*
Y9316760D01*
Y9314738D01*
X14112221D01*
Y9316760D01*
X14110199D01*
Y9318783D01*
X14108176D01*
Y9320806D01*
X14106152D01*
Y9322828D01*
Y9324851D01*
Y9326874D01*
X14104131D01*
Y9328897D01*
Y9330919D01*
Y9332942D01*
Y9334965D01*
Y9336987D01*
Y9339010D01*
Y9341033D01*
Y9343055D01*
X14106152D01*
Y9345078D01*
Y9347101D01*
Y9349124D01*
X14108176D01*
Y9351146D01*
X14110199D01*
Y9353169D01*
X14112221D01*
Y9355192D01*
X14146606D01*
Y9353169D01*
D02*
G37*
G36*
X14023222D02*
X14027267D01*
Y9351146D01*
X14029289D01*
Y9349124D01*
X14031313D01*
Y9347101D01*
Y9345078D01*
Y9343055D01*
X14033336D01*
Y9341033D01*
Y9339010D01*
Y9336987D01*
Y9334965D01*
Y9332942D01*
Y9330919D01*
Y9328897D01*
Y9326874D01*
Y9324851D01*
Y9322828D01*
Y9320806D01*
Y9318783D01*
Y9316760D01*
Y9314738D01*
Y9312715D01*
Y9310692D01*
Y9308669D01*
Y9306647D01*
Y9304624D01*
Y9302601D01*
Y9300579D01*
Y9298556D01*
Y9296533D01*
X14031313D01*
Y9294510D01*
Y9292488D01*
Y9290465D01*
X14029289D01*
Y9288442D01*
X14027267D01*
Y9286420D01*
X14023222D01*
Y9284397D01*
X13984792D01*
Y9286420D01*
Y9288442D01*
Y9290465D01*
Y9292488D01*
X14015131D01*
Y9294510D01*
X14017154D01*
Y9296533D01*
X14019177D01*
Y9298556D01*
Y9300579D01*
Y9302601D01*
Y9304624D01*
Y9306647D01*
Y9308669D01*
Y9310692D01*
Y9312715D01*
Y9314738D01*
Y9316760D01*
Y9318783D01*
Y9320806D01*
Y9322828D01*
Y9324851D01*
Y9326874D01*
Y9328897D01*
Y9330919D01*
Y9332942D01*
Y9334965D01*
Y9336987D01*
Y9339010D01*
Y9341033D01*
Y9343055D01*
X14017154D01*
Y9345078D01*
X14015131D01*
Y9347101D01*
X13994904D01*
Y9345078D01*
Y9343055D01*
X13992880D01*
Y9341033D01*
Y9339010D01*
Y9336987D01*
Y9334965D01*
Y9332942D01*
Y9330919D01*
Y9328897D01*
X13994904D01*
Y9326874D01*
Y9324851D01*
X13996927D01*
Y9322828D01*
X14011086D01*
Y9320806D01*
Y9318783D01*
Y9316760D01*
Y9314738D01*
X13988837D01*
Y9316760D01*
X13986813D01*
Y9318783D01*
X13984792D01*
Y9320806D01*
X13982768D01*
Y9322828D01*
Y9324851D01*
Y9326874D01*
X13980745D01*
Y9328897D01*
Y9330919D01*
Y9332942D01*
Y9334965D01*
Y9336987D01*
Y9339010D01*
Y9341033D01*
Y9343055D01*
X13982768D01*
Y9345078D01*
Y9347101D01*
Y9349124D01*
X13984792D01*
Y9351146D01*
X13986813D01*
Y9353169D01*
X13988837D01*
Y9355192D01*
X14023222D01*
Y9353169D01*
D02*
G37*
G36*
X13928156Y9371373D02*
Y9369351D01*
Y9367328D01*
Y9365305D01*
Y9363283D01*
Y9361260D01*
Y9359237D01*
Y9357214D01*
Y9355192D01*
Y9353169D01*
Y9351146D01*
Y9349124D01*
Y9347101D01*
Y9345078D01*
Y9343055D01*
Y9341033D01*
Y9339010D01*
Y9336987D01*
Y9334965D01*
Y9332942D01*
Y9330919D01*
Y9328897D01*
Y9326874D01*
Y9324851D01*
Y9322828D01*
Y9320806D01*
Y9318783D01*
Y9316760D01*
Y9314738D01*
Y9312715D01*
Y9310692D01*
Y9308669D01*
Y9306647D01*
Y9304624D01*
Y9302601D01*
Y9300579D01*
Y9298556D01*
Y9296533D01*
Y9294510D01*
Y9292488D01*
X13948383D01*
Y9294510D01*
X13950404D01*
Y9296533D01*
X13952428D01*
Y9298556D01*
X13954449D01*
Y9300579D01*
Y9302601D01*
Y9304624D01*
Y9306647D01*
Y9308669D01*
Y9310692D01*
Y9312715D01*
Y9314738D01*
Y9316760D01*
Y9318783D01*
Y9320806D01*
Y9322828D01*
Y9324851D01*
Y9326874D01*
Y9328897D01*
Y9330919D01*
Y9332942D01*
Y9334965D01*
Y9336987D01*
Y9339010D01*
Y9341033D01*
Y9343055D01*
X13952428D01*
Y9345078D01*
X13950404D01*
Y9347101D01*
X13936246D01*
Y9349124D01*
Y9351146D01*
Y9353169D01*
Y9355192D01*
X13958496D01*
Y9353169D01*
X13962541D01*
Y9351146D01*
X13964565D01*
Y9349124D01*
Y9347101D01*
X13966586D01*
Y9345078D01*
Y9343055D01*
Y9341033D01*
X13968610D01*
Y9339010D01*
Y9336987D01*
Y9334965D01*
Y9332942D01*
Y9330919D01*
Y9328897D01*
Y9326874D01*
Y9324851D01*
Y9322828D01*
Y9320806D01*
Y9318783D01*
Y9316760D01*
Y9314738D01*
Y9312715D01*
Y9310692D01*
Y9308669D01*
Y9306647D01*
Y9304624D01*
Y9302601D01*
Y9300579D01*
Y9298556D01*
X13966586D01*
Y9296533D01*
Y9294510D01*
Y9292488D01*
X13964565D01*
Y9290465D01*
Y9288442D01*
X13962541D01*
Y9286420D01*
X13958496D01*
Y9284397D01*
X13916019D01*
Y9286420D01*
Y9288442D01*
Y9290465D01*
Y9292488D01*
Y9294510D01*
Y9296533D01*
Y9298556D01*
Y9300579D01*
Y9302601D01*
Y9304624D01*
Y9306647D01*
Y9308669D01*
Y9310692D01*
Y9312715D01*
Y9314738D01*
Y9316760D01*
Y9318783D01*
Y9320806D01*
Y9322828D01*
Y9324851D01*
Y9326874D01*
Y9328897D01*
Y9330919D01*
Y9332942D01*
Y9334965D01*
Y9336987D01*
Y9339010D01*
Y9341033D01*
Y9343055D01*
Y9345078D01*
Y9347101D01*
Y9349124D01*
Y9351146D01*
Y9353169D01*
Y9355192D01*
Y9357214D01*
Y9359237D01*
Y9361260D01*
Y9363283D01*
Y9365305D01*
Y9367328D01*
Y9369351D01*
Y9371373D01*
Y9373396D01*
X13928156D01*
Y9371373D01*
D02*
G37*
G36*
X13895792Y9353169D02*
X13899837D01*
Y9351146D01*
X13901860D01*
Y9349124D01*
X13903882D01*
Y9347101D01*
Y9345078D01*
Y9343055D01*
X13905905D01*
Y9341033D01*
Y9339010D01*
Y9336987D01*
Y9334965D01*
Y9332942D01*
Y9330919D01*
Y9328897D01*
Y9326874D01*
Y9324851D01*
Y9322828D01*
Y9320806D01*
Y9318783D01*
Y9316760D01*
Y9314738D01*
Y9312715D01*
Y9310692D01*
Y9308669D01*
Y9306647D01*
Y9304624D01*
Y9302601D01*
Y9300579D01*
Y9298556D01*
Y9296533D01*
X13903882D01*
Y9294510D01*
Y9292488D01*
Y9290465D01*
X13901860D01*
Y9288442D01*
X13899837D01*
Y9286420D01*
X13895792D01*
Y9284397D01*
X13859383D01*
Y9286420D01*
X13855338D01*
Y9288442D01*
X13853316D01*
Y9290465D01*
X13851292D01*
Y9292488D01*
Y9294510D01*
Y9296533D01*
X13849269D01*
Y9298556D01*
Y9300579D01*
Y9302601D01*
Y9304624D01*
Y9306647D01*
Y9308669D01*
Y9310692D01*
Y9312715D01*
Y9314738D01*
Y9316760D01*
Y9318783D01*
Y9320806D01*
Y9322828D01*
Y9324851D01*
Y9326874D01*
Y9328897D01*
Y9330919D01*
Y9332942D01*
Y9334965D01*
Y9336987D01*
Y9339010D01*
Y9341033D01*
Y9343055D01*
X13851292D01*
Y9345078D01*
Y9347101D01*
Y9349124D01*
X13853316D01*
Y9351146D01*
X13855338D01*
Y9353169D01*
X13859383D01*
Y9355192D01*
X13895792D01*
Y9353169D01*
D02*
G37*
%LPC*%
G36*
X14770450Y10467366D02*
X14764043D01*
Y10464161D01*
X14757632D01*
Y10460957D01*
X14751225D01*
Y10457753D01*
X14748021D01*
Y10454549D01*
X14741612D01*
Y10451345D01*
X14738408D01*
Y10448141D01*
X14735204D01*
Y10444937D01*
Y10441732D01*
X14732001D01*
Y10438528D01*
X14728796D01*
Y10435324D01*
Y10432120D01*
X14725592D01*
Y10428916D01*
X14722388D01*
Y10425712D01*
Y10422507D01*
Y10419303D01*
X14728796D01*
Y10422507D01*
X14735204D01*
Y10425712D01*
X14741612D01*
Y10428916D01*
X14744817D01*
Y10432120D01*
X14748021D01*
Y10435324D01*
X14754430D01*
Y10438528D01*
Y10441732D01*
X14757632D01*
Y10444937D01*
X14760837D01*
Y10448141D01*
X14764043D01*
Y10451345D01*
Y10454549D01*
X14767245D01*
Y10457753D01*
Y10460957D01*
X14770450D01*
Y10464161D01*
Y10467366D01*
D02*
G37*
G36*
X14520525D02*
X14514117D01*
Y10464161D01*
Y10460957D01*
Y10457753D01*
X14517320D01*
Y10454549D01*
Y10451345D01*
X14520525D01*
Y10448141D01*
X14523730D01*
Y10444937D01*
Y10441732D01*
X14526933D01*
Y10438528D01*
X14530138D01*
Y10435324D01*
X14533342D01*
Y10432120D01*
X14539751D01*
Y10428916D01*
X14542955D01*
Y10425712D01*
X14549364D01*
Y10422507D01*
X14555771D01*
Y10419303D01*
X14562180D01*
Y10422507D01*
Y10425712D01*
X14558975D01*
Y10428916D01*
Y10432120D01*
X14555771D01*
Y10435324D01*
Y10438528D01*
X14552567D01*
Y10441732D01*
X14549364D01*
Y10444937D01*
X14546159D01*
Y10448141D01*
X14542955D01*
Y10451345D01*
X14539751D01*
Y10454549D01*
X14536546D01*
Y10457753D01*
X14533342D01*
Y10460957D01*
X14526933D01*
Y10464161D01*
X14520525D01*
Y10467366D01*
D02*
G37*
G36*
X14645488Y10419303D02*
X14635875D01*
Y10416099D01*
X14632671D01*
Y10412895D01*
X14626263D01*
Y10409691D01*
X14619855D01*
Y10406487D01*
X14610242D01*
Y10403282D01*
X14597424D01*
Y10400079D01*
X14581406D01*
Y10396874D01*
Y10393670D01*
Y10390466D01*
Y10387262D01*
X14578200D01*
Y10384058D01*
Y10380854D01*
Y10377649D01*
Y10374445D01*
Y10371241D01*
X14574995D01*
Y10368037D01*
Y10364833D01*
Y10361629D01*
X14571793D01*
Y10358424D01*
Y10355220D01*
X14568588D01*
Y10352016D01*
Y10348812D01*
X14565384D01*
Y10345608D01*
X14562180D01*
Y10342403D01*
Y10339200D01*
X14558975D01*
Y10335995D01*
X14562180D01*
Y10332791D01*
X14565384D01*
Y10329587D01*
Y10326383D01*
X14568588D01*
Y10323179D01*
Y10319975D01*
X14571793D01*
Y10316770D01*
Y10313566D01*
X14574995D01*
Y10310362D01*
Y10307158D01*
Y10303954D01*
X14578200D01*
Y10300750D01*
Y10297545D01*
Y10294341D01*
Y10291137D01*
Y10287933D01*
Y10284729D01*
Y10281525D01*
Y10278321D01*
X14594221D01*
Y10275116D01*
X14610242D01*
Y10271912D01*
X14619855D01*
Y10268708D01*
X14626263D01*
Y10265504D01*
X14629466D01*
Y10262300D01*
X14635875D01*
Y10259096D01*
X14639079D01*
Y10255891D01*
X14642284D01*
Y10259096D01*
X14645488D01*
Y10262300D01*
X14651897D01*
Y10265504D01*
X14658304D01*
Y10268708D01*
X14664713D01*
Y10271912D01*
X14674326D01*
Y10275116D01*
X14687141D01*
Y10278321D01*
X14703163D01*
Y10281525D01*
Y10284729D01*
Y10287933D01*
Y10291137D01*
Y10294341D01*
Y10297545D01*
X14706367D01*
Y10300750D01*
Y10303954D01*
Y10307158D01*
Y10310362D01*
X14709570D01*
Y10313566D01*
Y10316770D01*
Y10319975D01*
X14712775D01*
Y10323179D01*
Y10326383D01*
X14715979D01*
Y10329587D01*
X14719183D01*
Y10332791D01*
Y10335995D01*
X14722388D01*
Y10339200D01*
Y10342403D01*
X14719183D01*
Y10345608D01*
Y10348812D01*
X14715979D01*
Y10352016D01*
Y10355220D01*
X14712775D01*
Y10358424D01*
Y10361629D01*
X14709570D01*
Y10364833D01*
Y10368037D01*
X14706367D01*
Y10371241D01*
Y10374445D01*
Y10377649D01*
Y10380854D01*
X14703163D01*
Y10384058D01*
Y10387262D01*
Y10390466D01*
Y10393670D01*
Y10396874D01*
Y10400079D01*
X14687141D01*
Y10403282D01*
X14674326D01*
Y10406487D01*
X14664713D01*
Y10409691D01*
X14658304D01*
Y10412895D01*
X14651897D01*
Y10416099D01*
X14645488D01*
Y10419303D01*
D02*
G37*
G36*
X14728796Y10259096D02*
X14719183D01*
Y10255891D01*
X14722388D01*
Y10252687D01*
Y10249483D01*
X14725592D01*
Y10246279D01*
Y10243075D01*
X14728796D01*
Y10239871D01*
X14732001D01*
Y10236666D01*
Y10233462D01*
X14735204D01*
Y10230258D01*
X14738408D01*
Y10227054D01*
X14741612D01*
Y10223850D01*
X14744817D01*
Y10220646D01*
X14751225D01*
Y10217441D01*
X14754430D01*
Y10214237D01*
X14760837D01*
Y10211033D01*
X14770450D01*
Y10214237D01*
Y10217441D01*
X14767245D01*
Y10220646D01*
Y10223850D01*
X14764043D01*
Y10227054D01*
Y10230258D01*
X14760837D01*
Y10233462D01*
X14757632D01*
Y10236666D01*
X14754430D01*
Y10239871D01*
X14751225D01*
Y10243075D01*
X14748021D01*
Y10246279D01*
X14744817D01*
Y10249483D01*
X14741612D01*
Y10252687D01*
X14735204D01*
Y10255891D01*
X14728796D01*
Y10259096D01*
D02*
G37*
G36*
X14562180D02*
X14552567D01*
Y10255891D01*
X14546159D01*
Y10252687D01*
X14542955D01*
Y10249483D01*
X14536546D01*
Y10246279D01*
X14533342D01*
Y10243075D01*
X14530138D01*
Y10239871D01*
X14526933D01*
Y10236666D01*
X14523730D01*
Y10233462D01*
X14520525D01*
Y10230258D01*
Y10227054D01*
X14517320D01*
Y10223850D01*
Y10220646D01*
X14514117D01*
Y10217441D01*
Y10214237D01*
X14510913D01*
Y10211033D01*
X14520525D01*
Y10214237D01*
X14526933D01*
Y10217441D01*
X14533342D01*
Y10220646D01*
X14536546D01*
Y10223850D01*
X14539751D01*
Y10227054D01*
X14542955D01*
Y10230258D01*
X14546159D01*
Y10233462D01*
X14549364D01*
Y10236666D01*
X14552567D01*
Y10239871D01*
Y10243075D01*
X14555771D01*
Y10246279D01*
X14558975D01*
Y10249483D01*
Y10252687D01*
Y10255891D01*
X14562180D01*
Y10259096D01*
D02*
G37*
%LPD*%
G36*
X14655099Y10384058D02*
X14664713D01*
Y10380854D01*
X14671121D01*
Y10377649D01*
X14674326D01*
Y10374445D01*
X14677528D01*
Y10371241D01*
X14680733D01*
Y10368037D01*
X14683939D01*
Y10364833D01*
Y10361629D01*
X14687141D01*
Y10358424D01*
Y10355220D01*
Y10352016D01*
X14690346D01*
Y10348812D01*
Y10345608D01*
Y10342403D01*
Y10339200D01*
Y10335995D01*
Y10332791D01*
Y10329587D01*
Y10326383D01*
X14687141D01*
Y10323179D01*
Y10319975D01*
Y10316770D01*
X14683939D01*
Y10313566D01*
Y10310362D01*
X14680733D01*
Y10307158D01*
X14677528D01*
Y10303954D01*
X14674326D01*
Y10300750D01*
X14671121D01*
Y10297545D01*
X14664713D01*
Y10294341D01*
X14658304D01*
Y10291137D01*
X14626263D01*
Y10294341D01*
X14616650D01*
Y10297545D01*
X14613446D01*
Y10300750D01*
X14610242D01*
Y10303954D01*
X14607037D01*
Y10307158D01*
X14603835D01*
Y10310362D01*
X14600629D01*
Y10313566D01*
X14597424D01*
Y10316770D01*
Y10319975D01*
Y10323179D01*
X14594221D01*
Y10326383D01*
Y10329587D01*
Y10332791D01*
Y10335995D01*
Y10339200D01*
Y10342403D01*
Y10345608D01*
Y10348812D01*
Y10352016D01*
Y10355220D01*
X14597424D01*
Y10358424D01*
Y10361629D01*
X14600629D01*
Y10364833D01*
Y10368037D01*
X14603835D01*
Y10371241D01*
X14607037D01*
Y10374445D01*
X14610242D01*
Y10377649D01*
X14613446D01*
Y10380854D01*
X14619855D01*
Y10384058D01*
X14626263D01*
Y10387262D01*
X14655099D01*
Y10384058D01*
D02*
G37*
%LPC*%
G36*
X14635875Y10041213D02*
X14623059D01*
Y10038009D01*
X14616650D01*
Y10034804D01*
X14610242D01*
Y10031600D01*
X14607037D01*
Y10028396D01*
X14603835D01*
Y10025192D01*
Y10021988D01*
Y10018784D01*
X14600629D01*
Y10015580D01*
Y10012375D01*
Y10009171D01*
X14603835D01*
Y10005967D01*
Y10002763D01*
Y9999559D01*
X14607037D01*
Y9996355D01*
X14610242D01*
Y9993150D01*
X14613446D01*
Y9989946D01*
X14619855D01*
Y9986742D01*
X14635875D01*
Y9989946D01*
Y9993150D01*
Y9996355D01*
Y9999559D01*
Y10002763D01*
Y10005967D01*
Y10009171D01*
Y10012375D01*
Y10015580D01*
Y10018784D01*
Y10021988D01*
Y10025192D01*
Y10028396D01*
Y10031600D01*
Y10034804D01*
Y10038009D01*
Y10041213D01*
D02*
G37*
G36*
X14283418D02*
X14277010D01*
Y10038009D01*
X14264194D01*
Y10034804D01*
X14254581D01*
Y10031600D01*
X14248172D01*
Y10028396D01*
X14244968D01*
Y10025192D01*
X14238560D01*
Y10021988D01*
X14235356D01*
Y10018784D01*
X14232150D01*
Y10015580D01*
Y10012375D01*
X14228947D01*
Y10009171D01*
Y10005967D01*
X14225743D01*
Y10002763D01*
Y9999559D01*
Y9996355D01*
X14222539D01*
Y9993150D01*
Y9989946D01*
Y9986742D01*
Y9983538D01*
Y9980334D01*
Y9977130D01*
Y9973925D01*
Y9970721D01*
Y9967517D01*
Y9964313D01*
Y9961109D01*
Y9957905D01*
X14225743D01*
Y9954701D01*
Y9951496D01*
X14228947D01*
Y9948292D01*
Y9945088D01*
X14232150D01*
Y9941884D01*
X14235356D01*
Y9938680D01*
Y9935476D01*
X14241763D01*
Y9932271D01*
X14244968D01*
Y9929067D01*
X14254581D01*
Y9925863D01*
X14273805D01*
Y9929067D01*
X14280214D01*
Y9932271D01*
X14283418D01*
Y9935476D01*
Y9938680D01*
Y9941884D01*
X14286623D01*
Y9945088D01*
Y9948292D01*
Y9951496D01*
Y9954701D01*
Y9957905D01*
Y9961109D01*
Y9964313D01*
Y9967517D01*
Y9970721D01*
Y9973925D01*
Y9977130D01*
Y9980334D01*
Y9983538D01*
Y9986742D01*
Y9989946D01*
Y9993150D01*
Y9996355D01*
Y9999559D01*
Y10002763D01*
Y10005967D01*
Y10009171D01*
Y10012375D01*
Y10015580D01*
Y10018784D01*
Y10021988D01*
Y10025192D01*
Y10028396D01*
Y10031600D01*
Y10034804D01*
Y10038009D01*
X14283418D01*
Y10041213D01*
D02*
G37*
G36*
X14116801Y10021988D02*
X14113599D01*
Y10018784D01*
Y10015580D01*
X14110393D01*
Y10012375D01*
Y10009171D01*
Y10005967D01*
X14107188D01*
Y10002763D01*
Y9999559D01*
Y9996355D01*
X14103986D01*
Y9993150D01*
Y9989946D01*
X14100781D01*
Y9986742D01*
Y9983538D01*
Y9980334D01*
X14129617D01*
Y9983538D01*
Y9986742D01*
X14126414D01*
Y9989946D01*
Y9993150D01*
Y9996355D01*
X14123210D01*
Y9999559D01*
Y10002763D01*
Y10005967D01*
X14120006D01*
Y10009171D01*
Y10012375D01*
Y10015580D01*
X14116801D01*
Y10018784D01*
Y10021988D01*
D02*
G37*
G36*
X13975819Y10041213D02*
X13963002D01*
Y10038009D01*
X13950185D01*
Y10034804D01*
X13940573D01*
Y10031600D01*
X13937369D01*
Y10028396D01*
X13930962D01*
Y10025192D01*
X13927756D01*
Y10021988D01*
X13924551D01*
Y10018784D01*
X13921349D01*
Y10015580D01*
X13918144D01*
Y10012375D01*
Y10009171D01*
X13914940D01*
Y10005967D01*
Y10002763D01*
Y9999559D01*
X13911736D01*
Y9996355D01*
Y9993150D01*
Y9989946D01*
Y9986742D01*
Y9983538D01*
Y9980334D01*
Y9977130D01*
Y9973925D01*
Y9970721D01*
Y9967517D01*
Y9964313D01*
Y9961109D01*
Y9957905D01*
X13914940D01*
Y9954701D01*
Y9951496D01*
X13918144D01*
Y9948292D01*
Y9945088D01*
X13921349D01*
Y9941884D01*
X13924551D01*
Y9938680D01*
X13927756D01*
Y9935476D01*
X13930962D01*
Y9932271D01*
X13937369D01*
Y9929067D01*
X13946982D01*
Y9925863D01*
X13959798D01*
Y9929067D01*
X13966206D01*
Y9932271D01*
X13969411D01*
Y9935476D01*
X13972615D01*
Y9938680D01*
Y9941884D01*
Y9945088D01*
X13975819D01*
Y9948292D01*
Y9951496D01*
Y9954701D01*
Y9957905D01*
Y9961109D01*
Y9964313D01*
Y9967517D01*
Y9970721D01*
Y9973925D01*
Y9977130D01*
Y9980334D01*
Y9983538D01*
Y9986742D01*
Y9989946D01*
Y9993150D01*
Y9996355D01*
Y9999559D01*
Y10002763D01*
Y10005967D01*
Y10009171D01*
Y10012375D01*
Y10015580D01*
Y10018784D01*
Y10021988D01*
Y10025192D01*
Y10028396D01*
Y10031600D01*
Y10034804D01*
Y10038009D01*
Y10041213D01*
D02*
G37*
G36*
X14517320Y9871393D02*
X14504504D01*
Y9868188D01*
X14498096D01*
Y9864984D01*
X14491689D01*
Y9861780D01*
X14488484D01*
Y9858576D01*
Y9855372D01*
X14485280D01*
Y9852167D01*
Y9848963D01*
Y9845759D01*
X14482076D01*
Y9842555D01*
X14485280D01*
Y9839351D01*
Y9836147D01*
Y9832942D01*
Y9829739D01*
X14488484D01*
Y9826534D01*
X14491689D01*
Y9823330D01*
X14494891D01*
Y9820126D01*
X14504504D01*
Y9816922D01*
X14517320D01*
Y9820126D01*
Y9823330D01*
Y9826534D01*
Y9829739D01*
Y9832942D01*
Y9836147D01*
Y9839351D01*
Y9842555D01*
Y9845759D01*
Y9848963D01*
Y9852167D01*
Y9855372D01*
Y9858576D01*
Y9861780D01*
Y9864984D01*
Y9868188D01*
Y9871393D01*
D02*
G37*
G36*
X14341093Y9852167D02*
X14337889D01*
Y9848963D01*
Y9845759D01*
X14334685D01*
Y9842555D01*
Y9839351D01*
Y9836147D01*
X14331480D01*
Y9832942D01*
Y9829739D01*
X14328276D01*
Y9826534D01*
Y9823330D01*
Y9820126D01*
X14325072D01*
Y9816922D01*
Y9813718D01*
X14353909D01*
Y9816922D01*
X14350705D01*
Y9820126D01*
Y9823330D01*
Y9826534D01*
X14347501D01*
Y9829739D01*
Y9832942D01*
Y9836147D01*
X14344296D01*
Y9839351D01*
Y9842555D01*
Y9845759D01*
X14341093D01*
Y9848963D01*
Y9852167D01*
D02*
G37*
G36*
X15374391Y9514986D02*
X15354164D01*
Y9512963D01*
X15350119D01*
Y9510940D01*
Y9508918D01*
X15348096D01*
Y9506895D01*
Y9504872D01*
Y9502849D01*
Y9500827D01*
Y9498804D01*
Y9496781D01*
Y9494759D01*
Y9492736D01*
Y9490713D01*
Y9488691D01*
Y9486668D01*
Y9484645D01*
Y9482622D01*
Y9480600D01*
Y9478577D01*
Y9476554D01*
Y9474531D01*
Y9472509D01*
Y9470486D01*
Y9468463D01*
Y9466441D01*
Y9464418D01*
Y9462395D01*
Y9460373D01*
Y9458350D01*
Y9456327D01*
Y9454304D01*
Y9452282D01*
Y9450259D01*
Y9448236D01*
X15350119D01*
Y9446214D01*
X15352142D01*
Y9444191D01*
X15354164D01*
Y9442168D01*
X15374391D01*
Y9444191D01*
Y9446214D01*
Y9448236D01*
Y9450259D01*
Y9452282D01*
Y9454304D01*
Y9456327D01*
Y9458350D01*
Y9460373D01*
Y9462395D01*
Y9464418D01*
Y9466441D01*
Y9468463D01*
Y9470486D01*
Y9472509D01*
Y9474531D01*
Y9476554D01*
Y9478577D01*
Y9480600D01*
Y9482622D01*
Y9484645D01*
Y9486668D01*
Y9488691D01*
Y9490713D01*
Y9492736D01*
Y9494759D01*
Y9496781D01*
Y9498804D01*
Y9500827D01*
Y9502849D01*
Y9504872D01*
Y9506895D01*
Y9508918D01*
Y9510940D01*
Y9512963D01*
Y9514986D01*
D02*
G37*
G36*
X14247743Y9361260D02*
X14245720D01*
Y9359237D01*
Y9357214D01*
Y9355192D01*
X14243697D01*
Y9353169D01*
Y9351146D01*
Y9349124D01*
Y9347101D01*
Y9345078D01*
X14241675D01*
Y9343055D01*
Y9341033D01*
Y9339010D01*
Y9336987D01*
Y9334965D01*
Y9332942D01*
X14239651D01*
Y9330919D01*
Y9328897D01*
Y9326874D01*
Y9324851D01*
Y9322828D01*
X14237630D01*
Y9320806D01*
Y9318783D01*
Y9316760D01*
Y9314738D01*
Y9312715D01*
X14255833D01*
Y9314738D01*
Y9316760D01*
Y9318783D01*
X14253812D01*
Y9320806D01*
Y9322828D01*
Y9324851D01*
Y9326874D01*
Y9328897D01*
X14251788D01*
Y9330919D01*
Y9332942D01*
Y9334965D01*
Y9336987D01*
Y9339010D01*
Y9341033D01*
X14249767D01*
Y9343055D01*
Y9345078D01*
Y9347101D01*
Y9349124D01*
Y9351146D01*
X14247743D01*
Y9353169D01*
Y9355192D01*
Y9357214D01*
Y9359237D01*
Y9361260D01*
D02*
G37*
G36*
X13887701Y9347101D02*
X13867474D01*
Y9345078D01*
X13865451D01*
Y9343055D01*
X13863428D01*
Y9341033D01*
Y9339010D01*
Y9336987D01*
Y9334965D01*
Y9332942D01*
Y9330919D01*
Y9328897D01*
Y9326874D01*
Y9324851D01*
Y9322828D01*
Y9320806D01*
Y9318783D01*
Y9316760D01*
Y9314738D01*
Y9312715D01*
Y9310692D01*
Y9308669D01*
Y9306647D01*
Y9304624D01*
Y9302601D01*
Y9300579D01*
Y9298556D01*
Y9296533D01*
X13865451D01*
Y9294510D01*
X13867474D01*
Y9292488D01*
X13885678D01*
Y9294510D01*
X13887701D01*
Y9296533D01*
X13889723D01*
Y9298556D01*
X13891747D01*
Y9300579D01*
Y9302601D01*
Y9304624D01*
Y9306647D01*
Y9308669D01*
Y9310692D01*
Y9312715D01*
Y9314738D01*
Y9316760D01*
Y9318783D01*
Y9320806D01*
Y9322828D01*
Y9324851D01*
Y9326874D01*
Y9328897D01*
Y9330919D01*
Y9332942D01*
Y9334965D01*
Y9336987D01*
Y9339010D01*
Y9341033D01*
Y9343055D01*
X13889723D01*
Y9345078D01*
X13887701D01*
Y9347101D01*
D02*
G37*
%LPD*%
%TF.MD5,ed5651c34915efac75da5f488ba80282*%
M02*
