%TF.GenerationSoftware,Altium Limited,Altium Designer,20.0.13 (296)*%
G04 Layer_Color=16711935*
%FSLAX45Y45*%
%MOMM*%
%TF.FileFunction,Other,Mechanical_13*%
%TF.Part,Single*%
G01*
G75*
%TA.AperFunction,NonConductor*%
%ADD25C,0.20000*%
%ADD28C,0.12700*%
%ADD36C,0.10160*%
G36*
X15336713Y12093190D02*
X15286510D01*
Y12188298D01*
X15336713D01*
Y12093190D01*
D02*
G37*
G36*
X15219621D02*
X15169670D01*
Y12188274D01*
X15219621D01*
Y12093190D01*
D02*
G37*
G36*
X15336713Y11928090D02*
X15286510D01*
Y12023198D01*
X15336713D01*
Y11928090D01*
D02*
G37*
G36*
X15219621D02*
X15169670D01*
Y12023174D01*
X15219621D01*
Y11928090D01*
D02*
G37*
G36*
X15031914Y6335391D02*
X14981709D01*
Y6430499D01*
X15031914D01*
Y6335391D01*
D02*
G37*
G36*
X14914821D02*
X14864870D01*
Y6430475D01*
X14914821D01*
Y6335391D01*
D02*
G37*
G36*
X14447713Y6322691D02*
X14397510D01*
Y6417799D01*
X14447713D01*
Y6322691D01*
D02*
G37*
G36*
X14330621D02*
X14280670D01*
Y6417775D01*
X14330621D01*
Y6322691D01*
D02*
G37*
G36*
X15019212Y5586091D02*
X14969009D01*
Y5681199D01*
X15019212D01*
Y5586091D01*
D02*
G37*
G36*
X14902121D02*
X14852170D01*
Y5681175D01*
X14902121D01*
Y5586091D01*
D02*
G37*
G36*
X14435013Y5573391D02*
X14384810D01*
Y5668499D01*
X14435013D01*
Y5573391D01*
D02*
G37*
G36*
X14317921D02*
X14267970D01*
Y5668475D01*
X14317921D01*
Y5573391D01*
D02*
G37*
D25*
X14297501Y11963400D02*
G03*
X14297501Y11963400I-10000J0D01*
G01*
X14206206Y4135654D02*
G03*
X14206206Y4135654I-10000J0D01*
G01*
X14284801Y10655300D02*
G03*
X14284801Y10655300I-10000J0D01*
G01*
D28*
X14830400Y11454399D02*
Y11964401D01*
X14430400Y11454399D02*
Y11964401D01*
Y11454399D02*
X14830400D01*
X14430400Y11964401D02*
X14830400D01*
X15162698Y11822902D02*
X15342702D01*
X15162698Y11722903D02*
X15342702D01*
Y11822902D01*
X15162698Y11722903D02*
Y11822902D01*
Y11619702D02*
X15342702D01*
X15162698Y11519703D02*
X15342702D01*
Y11619702D01*
X15162698Y11519703D02*
Y11619702D01*
X14072403Y11606698D02*
Y11786702D01*
X14172401Y11606698D02*
Y11786702D01*
X14072403D02*
X14172401D01*
X14072403Y11606698D02*
X14172401D01*
X13970802Y3778799D02*
Y3958803D01*
X14070802Y3778799D02*
Y3958803D01*
X13970802D02*
X14070802D01*
X13970802Y3778799D02*
X14070802D01*
X14739107Y3626653D02*
Y4136654D01*
X14339108Y3626653D02*
Y4136654D01*
Y3626653D02*
X14739107D01*
X14339108Y4136654D02*
X14739107D01*
X15137299Y3995003D02*
X15317302D01*
X15137299Y3895004D02*
X15317302D01*
Y3995003D01*
X15137299Y3895004D02*
Y3995003D01*
Y3791803D02*
X15317302D01*
X15137299Y3691804D02*
X15317302D01*
Y3791803D01*
X15137299Y3691804D02*
Y3791803D01*
X14008904Y10298598D02*
Y10478602D01*
X14108902Y10298598D02*
Y10478602D01*
X14008904D02*
X14108902D01*
X14008904Y10298598D02*
X14108902D01*
X15149998Y10400502D02*
X15330002D01*
X15149998Y10300503D02*
X15330002D01*
Y10400502D01*
X15149998Y10300503D02*
Y10400502D01*
Y10591002D02*
X15330002D01*
X15149998Y10491003D02*
X15330002D01*
Y10591002D01*
X15149998Y10491003D02*
Y10591002D01*
X14817700Y10146299D02*
Y10656301D01*
X14417700Y10146299D02*
Y10656301D01*
Y10146299D02*
X14817700D01*
X14417700Y10656301D02*
X14817700D01*
D36*
X15217099Y11932900D02*
X15288301D01*
X15217099Y12018000D02*
X15288301D01*
X15217099Y12098000D02*
X15288301D01*
X15217099Y12183100D02*
X15288301D01*
X14912299Y6340201D02*
X14983501D01*
X14912299Y6425301D02*
X14983501D01*
X14899599Y5590901D02*
X14970801D01*
X14899599Y5676001D02*
X14970801D01*
X14328099Y6327501D02*
X14399301D01*
X14328099Y6412601D02*
X14399301D01*
X14315399Y5578201D02*
X14386601D01*
X14315399Y5663301D02*
X14386601D01*
%TF.MD5,a85f5d6f835873958da287ad634780f7*%
M02*
