%TF.GenerationSoftware,Altium Limited,Altium Designer,20.0.13 (296)*%
G04 Layer_Color=32896*
%FSLAX45Y45*%
%MOMM*%
%TF.FileFunction,Legend,Bot*%
%TF.Part,Single*%
G01*
G75*
%TA.AperFunction,NonConductor*%
%ADD20C,0.20000*%
%ADD21C,0.12700*%
%ADD22C,0.25400*%
D20*
X13321001Y5318600D02*
G03*
X13321001Y5318600I-10000J0D01*
G01*
D21*
X11569700Y4973600D02*
G03*
X12719700Y6123600I0J1150000D01*
G01*
X10419700D02*
G03*
X11569700Y4973600I1150000J0D01*
G01*
X11369346Y7255343D02*
G03*
X10419700Y6123600I199557J-1131743D01*
G01*
X12719700Y6123600D02*
G03*
X11788860Y7252799I-1150334J0D01*
G01*
X12781000Y6243600D02*
X13381000D01*
X12781000Y5643600D02*
Y6243600D01*
Y5643600D02*
X13381000D01*
Y6243600D01*
D22*
X13620230Y7032800D02*
X14845628D01*
Y5207000D02*
Y7032800D01*
X14431609Y5283200D02*
X14558609D01*
X14558630D02*
X14685629D01*
Y5359400D02*
X14845628D01*
X14304610Y5283200D02*
X14431609D01*
X14177609D02*
X14304610D01*
X14050609D02*
X14177609D01*
X13923608D02*
X14050609D01*
X13796609D02*
X13923608D01*
X13620230Y5207400D02*
Y7032800D01*
X14686301Y5359802D02*
X14846300D01*
X13636610Y5283200D02*
X13796609D01*
X13618810Y5207000D02*
X14845628D01*
X11576083Y7547110D02*
Y7665814D01*
X11635435Y7606462D02*
X11516731D01*
X14698981Y7122160D02*
Y7223727D01*
X14622804D01*
X14597414Y7198335D01*
Y7122160D01*
X14546629Y7223727D02*
Y7122160D01*
Y7172943D01*
X14521237Y7198335D01*
X14495847Y7223727D01*
X14470454D01*
X14368887Y7122160D02*
Y7249119D01*
Y7198335D01*
X14394279D01*
X14343495D01*
X14368887D01*
Y7249119D01*
X14343495Y7274511D01*
X14165752Y7122160D02*
X14267320D01*
X14165752Y7223727D01*
Y7249119D01*
X14191144Y7274511D01*
X14241928D01*
X14267320Y7249119D01*
X14038794Y7122160D02*
Y7274511D01*
X14114969Y7198335D01*
X14013402D01*
X13962617Y7122160D02*
X13911835D01*
X13937225D01*
Y7274511D01*
X13962617D01*
X13835658Y7249119D02*
X13810268Y7274511D01*
X13759483D01*
X13734093Y7249119D01*
Y7147552D01*
X13759483Y7122160D01*
X13810268D01*
X13835658Y7147552D01*
Y7249119D01*
X13683308Y7122160D02*
X13632526D01*
X13657916D01*
Y7274511D01*
X13683308Y7249119D01*
X13030215Y6705583D02*
X13055608Y6730975D01*
X13106392D01*
X13131783Y6705583D01*
Y6680192D01*
X13106392Y6654800D01*
X13055608D01*
X13030215Y6629408D01*
Y6604017D01*
X13055608Y6578625D01*
X13106392D01*
X13131783Y6604017D01*
X11099734Y7409375D02*
Y7257025D01*
X11023559D01*
X10998167Y7282416D01*
Y7307808D01*
X11023559Y7333200D01*
X11099734D01*
X11023559D01*
X10998167Y7358592D01*
Y7383983D01*
X11023559Y7409375D01*
X11099734D01*
X10947383D02*
X10845816D01*
X10896600D01*
Y7257025D01*
X10693466D02*
X10795033D01*
X10693466Y7358592D01*
Y7383983D01*
X10718857Y7409375D01*
X10769641D01*
X10795033Y7383983D01*
%TF.MD5,50300accdfb394fc3c73d3e54f3a144a*%
M02*
