%TF.GenerationSoftware,Altium Limited,Altium Designer,20.0.13 (296)*%
G04 Layer_Physical_Order=1*
G04 Layer_Color=255*
%FSLAX45Y45*%
%MOMM*%
%TF.FileFunction,Copper,L1,Top,Signal*%
%TF.Part,Single*%
G01*
G75*
%TA.AperFunction,SMDPad,CuDef*%
%ADD10R,2.50000X2.50000*%
%ADD11R,1.73000X0.97000*%
%ADD12O,0.60000X1.90000*%
%ADD13R,0.60000X1.15000*%
%TA.AperFunction,Conductor*%
%ADD14C,0.25400*%
%TA.AperFunction,ComponentPad*%
%ADD15R,0.60000X1.60000*%
%ADD16C,1.50800*%
%ADD17R,3.00000X3.00000*%
%TA.AperFunction,ViaPad*%
%ADD18C,1.27000*%
D10*
X10388600Y5791200D02*
D03*
Y6491200D02*
D03*
X11088600D02*
D03*
Y5791200D02*
D03*
D11*
X14173199Y6798400D02*
D03*
Y6502400D02*
D03*
X14655800Y5782900D02*
D03*
Y6078900D02*
D03*
D12*
X14300200Y6278600D02*
D03*
X14173199D02*
D03*
X14046201D02*
D03*
X13919200D02*
D03*
X14300200Y5608600D02*
D03*
X14173199D02*
D03*
X14046201D02*
D03*
X13919200D02*
D03*
D13*
X13963400Y6741900D02*
D03*
X13773399D02*
D03*
X13868401Y6516900D02*
D03*
D14*
X11569700Y6146800D02*
Y6174400D01*
Y5281000D02*
Y6174400D01*
Y5281000D02*
Y6146800D01*
X12509500Y6985000D02*
X14871700D01*
X11188700Y4940300D02*
X12402600D01*
X12407900Y4935000D01*
X11569700Y5242000D02*
Y6174400D01*
X11612600Y6278600D02*
X13919200D01*
X11506200Y6172200D02*
X11612600Y6278600D01*
X14173199D02*
Y6502400D01*
X13215440Y5976440D02*
X14244141D01*
X14262100Y5994400D01*
X14300200Y6009279D02*
Y6278600D01*
X14285321Y5994400D02*
X14300200Y6009279D01*
X14262100Y5994400D02*
X14285321D01*
X13208000Y5969000D02*
X13215440Y5976440D01*
X13716000Y5829300D02*
X14236700D01*
X13639799Y5753100D02*
X13716000Y5829300D01*
X14236700D02*
X14300200Y5765800D01*
X14795500Y5232400D02*
Y6515100D01*
X14046201Y6278600D02*
Y6604000D01*
X14071600Y6629400D01*
X14681200D02*
X14795500Y6515100D01*
X14071600Y6629400D02*
X14681200D01*
X14820900Y5130800D02*
X14848479Y5158379D01*
Y5179421D01*
X14795500Y5232400D02*
X14848479Y5179421D01*
X14922501Y5105400D02*
Y6934200D01*
X14871700Y6985000D02*
X14922501Y6934200D01*
X12407900Y6985000D02*
X12509500D01*
X14871700Y5054600D02*
X14922501Y5105400D01*
X13718179Y5054600D02*
X14871700D01*
X14338300Y5130800D02*
X14820900D01*
X14304610Y5164491D02*
Y5283200D01*
Y5164491D02*
X14338300Y5130800D01*
X14655800Y6078900D02*
Y6197600D01*
X14300200Y6278600D02*
X14574800D01*
X14655800Y6197600D01*
X14300200Y5608600D02*
Y5765800D01*
X13639799Y5130800D02*
Y5753100D01*
Y5130800D02*
X13703300Y5067300D01*
X13705479D02*
X13718179Y5054600D01*
X13703300Y5067300D02*
X13705479D01*
X11557000Y6985000D02*
X12407900D01*
X11506200Y7035800D02*
Y7289800D01*
Y7035800D02*
X11557000Y6985000D01*
X11125200Y6667500D02*
X11239500D01*
X11087100Y6629400D02*
X11125200Y6667500D01*
X11087100Y6492700D02*
Y6629400D01*
Y6492700D02*
X11088600Y6491200D01*
X11277600Y6629400D02*
X13931900D01*
X11239500Y6667500D02*
X11277600Y6629400D01*
X11088600Y5040400D02*
X11188700Y4940300D01*
X11088600Y5040400D02*
Y5791200D01*
X13931900Y6629400D02*
X13963400Y6660900D01*
Y6741900D01*
X14173199Y6798400D02*
Y6870700D01*
X13817599Y6896100D02*
X14147800D01*
X14173199Y6870700D01*
X13773399Y6851900D02*
X13817599Y6896100D01*
X13773399Y6741900D02*
Y6851900D01*
X13919200Y6278600D02*
Y6400800D01*
X13868401Y6516900D02*
X13885699Y6499600D01*
Y6434300D02*
Y6499600D01*
Y6434300D02*
X13919200Y6400800D01*
X14427200Y5287609D02*
X14431609Y5283200D01*
X14338300Y5422900D02*
X14412321D01*
X14427200Y5408021D01*
Y5287609D02*
Y5408021D01*
X14300200Y5461000D02*
X14338300Y5422900D01*
X14300200Y5461000D02*
Y5608600D01*
X14655800Y5651500D02*
Y5782900D01*
X14612900Y5608600D02*
X14655800Y5651500D01*
X14300200Y5608600D02*
X14612900D01*
X14173199D02*
X14175404Y5606395D01*
Y5285405D02*
Y5606395D01*
Y5285405D02*
X14177609Y5283200D01*
X14046201Y5608600D02*
X14048405Y5606395D01*
Y5285405D02*
Y5606395D01*
Y5285405D02*
X14050609Y5283200D01*
X13919200Y5608600D02*
X13921405Y5606395D01*
Y5285405D02*
Y5606395D01*
Y5285405D02*
X13923608Y5283200D01*
D15*
X14431609D02*
D03*
X14304610D02*
D03*
X14177609D02*
D03*
X14050609D02*
D03*
X13923608D02*
D03*
X13796609D02*
D03*
X14558630D02*
D03*
X14683069D02*
D03*
D16*
X12509500Y6990300D02*
D03*
X11569700Y5308600D02*
D03*
D17*
X12509500Y4940300D02*
D03*
X11569700Y7358600D02*
D03*
D18*
X13208000Y5969000D02*
D03*
%TF.MD5,4863ca82ce30ef0f2b16cc23ae83c4e9*%
M02*
