%TF.GenerationSoftware,Altium Limited,Altium Designer,20.0.13 (296)*%
G04 Layer_Color=16711935*
%FSLAX45Y45*%
%MOMM*%
%TF.FileFunction,Other,Mechanical_13*%
%TF.Part,Single*%
G01*
G75*
%TA.AperFunction,NonConductor*%
%ADD20C,0.20000*%
%ADD21C,0.12700*%
%ADD22C,0.25400*%
%ADD34C,0.10000*%
D20*
X13321001Y5318600D02*
G03*
X13321001Y5318600I-10000J0D01*
G01*
D21*
X13659500Y6175300D02*
G03*
X13659500Y6175300I-1150000J0D01*
G01*
X12719700Y6123600D02*
G03*
X12719700Y6123600I-1150000J0D01*
G01*
X11163600Y5716200D02*
Y6566200D01*
X10313600D02*
X11163600D01*
X10313600Y5716200D02*
X11163600D01*
X10313600D02*
Y6566200D01*
X12781000Y6243600D02*
X13381000D01*
Y5643600D02*
Y6243600D01*
X12781000Y5643600D02*
X13381000D01*
X12781000D02*
Y6243600D01*
X14088200Y6490400D02*
X14258200D01*
X14088200Y6810400D02*
X14258200D01*
X14088200Y6490400D02*
Y6810400D01*
X14258200Y6490400D02*
Y6810400D01*
X14570799Y6090900D02*
X14740800D01*
X14570799Y5770900D02*
X14740800D01*
Y6090900D01*
X14570799Y5770900D02*
Y6090900D01*
D22*
X12515874Y5260881D02*
Y5142331D01*
X12575149Y5201606D02*
X12456600D01*
X11576074Y7038019D02*
Y7156569D01*
X11635349Y7097294D02*
X11516800D01*
D34*
X14337199Y6123600D02*
G03*
X14337199Y6123600I-50000J0D01*
G01*
X13842200Y6213600D02*
X14377200D01*
X13842200Y5673600D02*
X14377200D01*
Y6213600D01*
X13842200Y5673600D02*
Y6213600D01*
X13718401Y6699400D02*
X14018401D01*
X13718401Y6559400D02*
X14018401D01*
Y6699400D01*
X13718401Y6559400D02*
Y6699400D01*
%TF.MD5,65a6866b13e678322ba1610966af7996*%
M02*
