%TF.GenerationSoftware,Altium Limited,Altium Designer,20.0.13 (296)*%
G04 Layer_Color=65535*
%FSLAX45Y45*%
%MOMM*%
%TF.FileFunction,Legend,Top*%
%TF.Part,Single*%
G01*
G75*
%TA.AperFunction,NonConductor*%
%ADD20C,0.20000*%
%ADD21C,0.12700*%
%ADD22C,0.25400*%
%ADD28C,0.25000*%
%ADD29C,0.60000*%
D20*
X13839700Y6143600D02*
X14379700D01*
X13839700Y5743600D02*
X14379700D01*
Y6143600D01*
X13839700Y5743600D02*
Y6143600D01*
X14018401Y6559400D02*
Y6649400D01*
X13938400Y6559400D02*
X14018401D01*
X13718401D02*
Y6649400D01*
Y6559400D02*
X13798399D01*
D21*
X12728660Y5046101D02*
G03*
X13659500Y6175300I-219494J1129199D01*
G01*
X11359500Y6175300D02*
G03*
X12309146Y5043557I1149202J0D01*
G01*
X12509500Y7325300D02*
G03*
X11359500Y6175300I0J-1150000D01*
G01*
X13659500D02*
G03*
X12509500Y7325300I-1150000J0D01*
G01*
X11163600Y5941200D02*
Y6341200D01*
X10538600Y6566200D02*
X10938600D01*
X10313600Y5941200D02*
Y6341200D01*
X10538600Y5716200D02*
X10938600D01*
X14258200Y6583400D02*
Y6717400D01*
X14088200Y6583400D02*
Y6717400D01*
X14570799Y5863900D02*
Y5997900D01*
X14740800Y5863900D02*
Y5997900D01*
D22*
X11254642Y6526711D02*
X11339288D01*
X11364085Y5791409D02*
X11448790D01*
X11406438Y5833762D02*
Y5749056D01*
X12515883Y4751790D02*
Y4633086D01*
X12575235Y4692438D02*
X12456531D01*
X14084300Y6949440D02*
Y7101791D01*
X14160475D01*
X14185867Y7076399D01*
Y7025615D01*
X14160475Y7000223D01*
X14084300D01*
X14135083D02*
X14185867Y6949440D01*
X14236652D02*
X14287434D01*
X14262044D01*
Y7101791D01*
X14236652Y7076399D01*
X14566901Y6230620D02*
Y6382971D01*
X14643076D01*
X14668468Y6357579D01*
Y6306795D01*
X14643076Y6281403D01*
X14566901D01*
X14617683D02*
X14668468Y6230620D01*
X14820818D02*
X14719250D01*
X14820818Y6332187D01*
Y6357579D01*
X14795425Y6382971D01*
X14744643D01*
X14719250Y6357579D01*
X10147341Y5562575D02*
Y5410225D01*
X10248908D01*
X10401259Y5537183D02*
X10375867Y5562575D01*
X10325084D01*
X10299692Y5537183D01*
Y5511792D01*
X10325084Y5486400D01*
X10375867D01*
X10401259Y5461008D01*
Y5435617D01*
X10375867Y5410225D01*
X10325084D01*
X10299692Y5435617D01*
X13208058Y7256975D02*
Y7104625D01*
X13284233D01*
X13309625Y7130016D01*
Y7155408D01*
X13284233Y7180800D01*
X13208058D01*
X13284233D01*
X13309625Y7206192D01*
Y7231583D01*
X13284233Y7256975D01*
X13208058D01*
X13360408D02*
X13461977D01*
X13411192D01*
Y7104625D01*
X13512759D02*
X13563544D01*
X13538152D01*
Y7256975D01*
X13512759Y7231583D01*
X13853160Y6614111D02*
Y6487152D01*
X13878552Y6461760D01*
X13929335D01*
X13954727Y6487152D01*
Y6614111D01*
X14005511Y6461760D02*
X14056294D01*
X14030904D01*
Y6614111D01*
X14005511Y6588719D01*
X13816547Y6929852D02*
Y7031419D01*
X13791156Y7056811D01*
X13740372D01*
X13714980Y7031419D01*
Y6929852D01*
X13740372Y6904460D01*
X13791156D01*
X13765764Y6955243D02*
X13816547Y6904460D01*
X13791156D02*
X13816547Y6929852D01*
X13867331Y6904460D02*
X13918114D01*
X13892723D01*
Y7056811D01*
X13867331Y7031419D01*
D28*
X14397701Y6278600D02*
G03*
X14397701Y6278600I-12500J0D01*
G01*
X14060899Y6741900D02*
G03*
X14060899Y6741900I-12500J0D01*
G01*
D29*
X14309700Y6043600D02*
G03*
X14309700Y6043600I-30000J0D01*
G01*
%TF.MD5,eb77aa0e012fa6e92f485839f566403d*%
M02*
