%TF.GenerationSoftware,Altium Limited,Altium Designer,20.0.13 (296)*%
G04 Layer_Color=8388736*
%FSLAX45Y45*%
%MOMM*%
%TF.FileFunction,Soldermask,Top*%
%TF.Part,Single*%
G01*
G75*
%TA.AperFunction,ComponentPad*%
%ADD24R,0.80320X1.80320*%
%ADD25C,1.71120*%
%ADD26R,3.20320X3.20320*%
%TA.AperFunction,ViaPad*%
%ADD27C,1.47320*%
%TA.AperFunction,SMDPad,CuDef*%
%ADD30R,2.70320X2.70320*%
%ADD31R,1.93320X1.17320*%
%ADD32O,0.80320X2.10320*%
%ADD33R,0.80320X1.35320*%
D24*
X14431609Y5283200D02*
D03*
X14304610D02*
D03*
X14177609D02*
D03*
X14050609D02*
D03*
X13923608D02*
D03*
X13796609D02*
D03*
X14558630D02*
D03*
X14683069D02*
D03*
D25*
X12509500Y6990300D02*
D03*
X11569700Y5308600D02*
D03*
D26*
X12509500Y4940300D02*
D03*
X11569700Y7358600D02*
D03*
D27*
X13208000Y5969000D02*
D03*
D30*
X10388600Y5791200D02*
D03*
Y6491200D02*
D03*
X11088600D02*
D03*
Y5791200D02*
D03*
D31*
X14173199Y6798400D02*
D03*
Y6502400D02*
D03*
X14655800Y5782900D02*
D03*
Y6078900D02*
D03*
D32*
X14300200Y6278600D02*
D03*
X14173199D02*
D03*
X14046201D02*
D03*
X13919200D02*
D03*
X14300200Y5608600D02*
D03*
X14173199D02*
D03*
X14046201D02*
D03*
X13919200D02*
D03*
D33*
X13963400Y6741900D02*
D03*
X13773399D02*
D03*
X13868401Y6516900D02*
D03*
%TF.MD5,3a2520674e977e1c9663f49354b62777*%
M02*
