%TF.GenerationSoftware,Altium Limited,Altium Designer,20.0.13 (296)*%
G04 Layer_Physical_Order=2*
G04 Layer_Color=16711680*
%FSLAX45Y45*%
%MOMM*%
%TF.FileFunction,Copper,L2,Bot,Signal*%
%TF.Part,Single*%
G01*
G75*
%TA.AperFunction,Conductor*%
%ADD14C,0.25400*%
%TA.AperFunction,ComponentPad*%
%ADD15R,0.60000X1.60000*%
%ADD16C,1.50800*%
%ADD17R,3.00000X3.00000*%
%TA.AperFunction,ViaPad*%
%ADD18C,1.27000*%
%TA.AperFunction,SMDPad,CuDef*%
%ADD19R,1.40000X2.10000*%
D14*
X14501199Y5488600D02*
X14558630Y5431170D01*
Y5283200D02*
Y5431170D01*
X13306000Y5488600D02*
X14501199D01*
X11506200Y5239800D02*
X11513600Y5232400D01*
X13271500D01*
X13306000Y5266900D02*
Y5488600D01*
X13271500Y5232400D02*
X13306000Y5266900D01*
X12865100Y6210300D02*
X12903200Y6172200D01*
X13144501D01*
X12865100Y6210300D02*
Y6389500D01*
X12856000Y6398600D02*
X12865100Y6389500D01*
X13188560Y5988440D02*
Y6128140D01*
X13144501Y6172200D02*
X13188560Y6128140D01*
Y5988440D02*
X13208000Y5969000D01*
D15*
X14431609Y5283200D02*
D03*
X14304610D02*
D03*
X14177609D02*
D03*
X14050609D02*
D03*
X13923608D02*
D03*
X13796609D02*
D03*
X14558630D02*
D03*
X14683069D02*
D03*
D16*
X12509500Y6990300D02*
D03*
X11569700Y5308600D02*
D03*
D17*
X12509500Y4940300D02*
D03*
X11569700Y7358600D02*
D03*
D18*
X13208000Y5969000D02*
D03*
D19*
X13306000Y6398600D02*
D03*
Y5488600D02*
D03*
X12856000D02*
D03*
Y6398600D02*
D03*
%TF.MD5,b56ed61b169e0956d4cbba8d1cef238e*%
M02*
