%TF.GenerationSoftware,Altium Limited,Altium Designer,20.0.13 (296)*%
G04 Layer_Color=8421504*
%FSLAX45Y45*%
%MOMM*%
%TF.FileFunction,Paste,Top*%
%TF.Part,Single*%
G01*
G75*
%TA.AperFunction,SMDPad,CuDef*%
%ADD10R,1.47000X1.16000*%
G04:AMPARAMS|DCode=11|XSize=1mm|YSize=1.42mm|CornerRadius=0.125mm|HoleSize=0mm|Usage=FLASHONLY|Rotation=90.000|XOffset=0mm|YOffset=0mm|HoleType=Round|Shape=RoundedRectangle|*
%AMROUNDEDRECTD11*
21,1,1.00000,1.17000,0,0,90.0*
21,1,0.75000,1.42000,0,0,90.0*
1,1,0.25000,0.58500,0.37500*
1,1,0.25000,0.58500,-0.37500*
1,1,0.25000,-0.58500,-0.37500*
1,1,0.25000,-0.58500,0.37500*
%
%ADD11ROUNDEDRECTD11*%
%ADD12R,1.00000X1.10000*%
%ADD13R,1.70000X0.80000*%
%ADD15R,1.35523X0.48583*%
G04:AMPARAMS|DCode=16|XSize=1.35523mm|YSize=0.48583mm|CornerRadius=0.24292mm|HoleSize=0mm|Usage=FLASHONLY|Rotation=0.000|XOffset=0mm|YOffset=0mm|HoleType=Round|Shape=RoundedRectangle|*
%AMROUNDEDRECTD16*
21,1,1.35523,0.00000,0,0,0.0*
21,1,0.86940,0.48583,0,0,0.0*
1,1,0.48583,0.43470,0.00000*
1,1,0.48583,-0.43470,0.00000*
1,1,0.48583,-0.43470,0.00000*
1,1,0.48583,0.43470,0.00000*
%
%ADD16ROUNDEDRECTD16*%
G04:AMPARAMS|DCode=17|XSize=0.48583mm|YSize=1.35523mm|CornerRadius=0.24292mm|HoleSize=0mm|Usage=FLASHONLY|Rotation=0.000|XOffset=0mm|YOffset=0mm|HoleType=Round|Shape=RoundedRectangle|*
%AMROUNDEDRECTD17*
21,1,0.48583,0.86940,0,0,0.0*
21,1,0.00000,1.35523,0,0,0.0*
1,1,0.48583,0.00000,-0.43470*
1,1,0.48583,0.00000,-0.43470*
1,1,0.48583,0.00000,0.43470*
1,1,0.48583,0.00000,0.43470*
%
%ADD17ROUNDEDRECTD17*%
%ADD18R,1.90000X0.40000*%
G04:AMPARAMS|DCode=19|XSize=0.94mm|YSize=1.02mm|CornerRadius=0.094mm|HoleSize=0mm|Usage=FLASHONLY|Rotation=0.000|XOffset=0mm|YOffset=0mm|HoleType=Round|Shape=RoundedRectangle|*
%AMROUNDEDRECTD19*
21,1,0.94000,0.83200,0,0,0.0*
21,1,0.75200,1.02000,0,0,0.0*
1,1,0.18800,0.37600,-0.41600*
1,1,0.18800,-0.37600,-0.41600*
1,1,0.18800,-0.37600,0.41600*
1,1,0.18800,0.37600,0.41600*
%
%ADD19ROUNDEDRECTD19*%
G04:AMPARAMS|DCode=20|XSize=1mm|YSize=1.42mm|CornerRadius=0.125mm|HoleSize=0mm|Usage=FLASHONLY|Rotation=180.000|XOffset=0mm|YOffset=0mm|HoleType=Round|Shape=RoundedRectangle|*
%AMROUNDEDRECTD20*
21,1,1.00000,1.17000,0,0,180.0*
21,1,0.75000,1.42000,0,0,180.0*
1,1,0.25000,-0.37500,0.58500*
1,1,0.25000,0.37500,0.58500*
1,1,0.25000,0.37500,-0.58500*
1,1,0.25000,-0.37500,-0.58500*
%
%ADD20ROUNDEDRECTD20*%
%ADD21R,0.60000X1.15000*%
%ADD22R,1.10000X1.00000*%
%ADD23R,1.16000X1.47000*%
G04:AMPARAMS|DCode=24|XSize=0.94mm|YSize=1.02mm|CornerRadius=0.094mm|HoleSize=0mm|Usage=FLASHONLY|Rotation=270.000|XOffset=0mm|YOffset=0mm|HoleType=Round|Shape=RoundedRectangle|*
%AMROUNDEDRECTD24*
21,1,0.94000,0.83200,0,0,270.0*
21,1,0.75200,1.02000,0,0,270.0*
1,1,0.18800,-0.41600,-0.37600*
1,1,0.18800,-0.41600,0.37600*
1,1,0.18800,0.41600,0.37600*
1,1,0.18800,0.41600,-0.37600*
%
%ADD24ROUNDEDRECTD24*%
G04:AMPARAMS|DCode=25|XSize=3.24mm|YSize=1.31mm|CornerRadius=0.09825mm|HoleSize=0mm|Usage=FLASHONLY|Rotation=270.000|XOffset=0mm|YOffset=0mm|HoleType=Round|Shape=RoundedRectangle|*
%AMROUNDEDRECTD25*
21,1,3.24000,1.11350,0,0,270.0*
21,1,3.04350,1.31000,0,0,270.0*
1,1,0.19650,-0.55675,-1.52175*
1,1,0.19650,-0.55675,1.52175*
1,1,0.19650,0.55675,1.52175*
1,1,0.19650,0.55675,-1.52175*
%
%ADD25ROUNDEDRECTD25*%
G04:AMPARAMS|DCode=26|XSize=0.93mm|YSize=1.31mm|CornerRadius=0.06975mm|HoleSize=0mm|Usage=FLASHONLY|Rotation=270.000|XOffset=0mm|YOffset=0mm|HoleType=Round|Shape=RoundedRectangle|*
%AMROUNDEDRECTD26*
21,1,0.93000,1.17050,0,0,270.0*
21,1,0.79050,1.31000,0,0,270.0*
1,1,0.13950,-0.58525,-0.39525*
1,1,0.13950,-0.58525,0.39525*
1,1,0.13950,0.58525,0.39525*
1,1,0.13950,0.58525,-0.39525*
%
%ADD26ROUNDEDRECTD26*%
D10*
X14617700Y9663801D02*
D03*
Y9487799D02*
D03*
D11*
X14630400Y9174002D02*
D03*
Y8987003D02*
D03*
X14198599Y9656602D02*
D03*
Y9469603D02*
D03*
D12*
X14224001Y9228999D02*
D03*
Y9059001D02*
D03*
D13*
X13271500Y8399602D02*
D03*
Y8059598D02*
D03*
D15*
X12955386Y9550999D02*
D03*
D16*
Y9471000D02*
D03*
Y9391000D02*
D03*
Y9311000D02*
D03*
Y9231000D02*
D03*
Y9151000D02*
D03*
Y9071000D02*
D03*
Y8991001D02*
D03*
X13770483D02*
D03*
Y9071000D02*
D03*
Y9151000D02*
D03*
Y9231000D02*
D03*
Y9311000D02*
D03*
Y9391000D02*
D03*
Y9471000D02*
D03*
Y9550999D02*
D03*
D17*
X13082935Y8863452D02*
D03*
X13162935D02*
D03*
X13242935D02*
D03*
X13322935D02*
D03*
X13402934D02*
D03*
X13482935D02*
D03*
X13562935D02*
D03*
X13642934D02*
D03*
Y9678548D02*
D03*
X13562935D02*
D03*
X13482935D02*
D03*
X13402934D02*
D03*
X13322935D02*
D03*
X13242935D02*
D03*
X13162935D02*
D03*
X13082935D02*
D03*
D18*
X12636500Y9391000D02*
D03*
Y9151000D02*
D03*
Y9271000D02*
D03*
D19*
X12573000Y9779000D02*
D03*
X12415002D02*
D03*
D20*
X11946103Y9550400D02*
D03*
X12133102D02*
D03*
D21*
X12134601Y9257248D02*
D03*
X11944599D02*
D03*
X12039600Y9032250D02*
D03*
D22*
X12298502Y7404100D02*
D03*
X12128500D02*
D03*
D23*
X12292701Y7137400D02*
D03*
X12116699D02*
D03*
D24*
X12547600Y7385802D02*
D03*
Y7543800D02*
D03*
D25*
X14812498Y10325100D02*
D03*
D26*
X14143501Y10096099D02*
D03*
Y10325100D02*
D03*
Y10554101D02*
D03*
%TF.MD5,e93ff3741f6a746f093181431bafcbc3*%
M02*
