%TF.GenerationSoftware,Altium Limited,Altium Designer,20.0.13 (296)*%
G04 Layer_Color=16711935*
%FSLAX45Y45*%
%MOMM*%
%TF.FileFunction,Other,Mechanical_13*%
%TF.Part,Single*%
G01*
G75*
%TA.AperFunction,NonConductor*%
%ADD37C,0.20000*%
%ADD39C,0.12700*%
%ADD63C,0.10160*%
%ADD64C,0.10000*%
G36*
X12130470Y7451187D02*
X12180412D01*
Y7356090D01*
X12130470D01*
Y7451187D01*
D02*
G37*
G36*
X12247310Y7451113D02*
X12297361D01*
Y7356090D01*
X12247310D01*
Y7451113D01*
D02*
G37*
G36*
X14176913Y9060970D02*
Y9110912D01*
X14272009D01*
Y9060970D01*
X14176913D01*
D02*
G37*
G36*
X14176987Y9177810D02*
Y9227861D01*
X14272009D01*
Y9177810D01*
X14176987D01*
D02*
G37*
D37*
X13488699Y10287000D02*
G03*
X13488699Y10287000I-10000J0D01*
G01*
X12646500Y9061000D02*
G03*
X12646500Y9061000I-10000J0D01*
G01*
D39*
X12598800Y8281825D02*
G03*
X12598800Y8281825I-610000J0D01*
G01*
X13546902Y9936998D02*
Y10686999D01*
X12546899Y9936998D02*
X13546902D01*
X12546899D02*
Y10686999D01*
X13546902D01*
X14545702Y9465798D02*
X14689699D01*
X14545702Y9685802D02*
X14689699D01*
X14545702Y9465798D02*
Y9685802D01*
X14689699Y9465798D02*
Y9685802D01*
X14560397Y8972499D02*
X14700401D01*
X14560397Y9188501D02*
X14700401D01*
Y8972499D02*
Y9188501D01*
X14560397Y8972499D02*
Y9188501D01*
X14128598Y9455099D02*
X14268602D01*
X14128598Y9671101D02*
X14268602D01*
Y9455099D02*
Y9671101D01*
X14128598Y9455099D02*
Y9671101D01*
X12571501Y9111000D02*
X12701499D01*
Y9431000D01*
X12571501D02*
X12701499D01*
X12571501Y9111000D02*
Y9431000D01*
X12403999Y9729003D02*
Y9829002D01*
X12583998Y9729003D02*
Y9829002D01*
X12403999Y9729003D02*
X12583998D01*
X12403999Y9829002D02*
X12583998D01*
X12147601Y9480398D02*
Y9620402D01*
X11931604Y9480398D02*
Y9620402D01*
X12147601D01*
X11931604Y9480398D02*
X12147601D01*
X12094698Y7065401D02*
Y7209399D01*
X12314702Y7065401D02*
Y7209399D01*
X12094698D02*
X12314702D01*
X12094698Y7065401D02*
X12314702D01*
X12497603Y7554798D02*
X12597602D01*
X12497603Y7374799D02*
X12597602D01*
X12497603D02*
Y7554798D01*
X12597602Y7374799D02*
Y7554798D01*
X14292001Y9989099D02*
Y10661101D01*
Y9989099D02*
X14663998D01*
Y10661101D01*
X14292001D02*
X14663998D01*
D63*
X14267200Y9108399D02*
Y9179601D01*
X14182100Y9108399D02*
Y9179601D01*
X12177898Y7360900D02*
X12249099D01*
X12177898Y7446000D02*
X12249099D01*
D64*
X11889598Y9214749D02*
X12189602D01*
X11889598Y9074749D02*
X12189602D01*
Y9214749D01*
X11889598Y9074749D02*
Y9214749D01*
%TF.MD5,0b01bdc76e7786adcc2730e3e3fa9ef4*%
M02*
