%TF.GenerationSoftware,Altium Limited,Altium Designer,20.0.13 (296)*%
G04 Layer_Color=8421504*
%FSLAX45Y45*%
%MOMM*%
%TF.FileFunction,Paste,Top*%
%TF.Part,Single*%
G01*
G75*
%TA.AperFunction,SMDPad,CuDef*%
%ADD10R,1.35523X0.48583*%
G04:AMPARAMS|DCode=11|XSize=1.35523mm|YSize=0.48583mm|CornerRadius=0.24292mm|HoleSize=0mm|Usage=FLASHONLY|Rotation=180.000|XOffset=0mm|YOffset=0mm|HoleType=Round|Shape=RoundedRectangle|*
%AMROUNDEDRECTD11*
21,1,1.35523,0.00000,0,0,180.0*
21,1,0.86940,0.48583,0,0,180.0*
1,1,0.48583,-0.43470,0.00000*
1,1,0.48583,0.43470,0.00000*
1,1,0.48583,0.43470,0.00000*
1,1,0.48583,-0.43470,0.00000*
%
%ADD11ROUNDEDRECTD11*%
G04:AMPARAMS|DCode=12|XSize=0.48583mm|YSize=1.35523mm|CornerRadius=0.24292mm|HoleSize=0mm|Usage=FLASHONLY|Rotation=180.000|XOffset=0mm|YOffset=0mm|HoleType=Round|Shape=RoundedRectangle|*
%AMROUNDEDRECTD12*
21,1,0.48583,0.86940,0,0,180.0*
21,1,0.00000,1.35523,0,0,180.0*
1,1,0.48583,0.00000,0.43470*
1,1,0.48583,0.00000,0.43470*
1,1,0.48583,0.00000,-0.43470*
1,1,0.48583,0.00000,-0.43470*
%
%ADD12ROUNDEDRECTD12*%
G04:AMPARAMS|DCode=13|XSize=1mm|YSize=1.42mm|CornerRadius=0.125mm|HoleSize=0mm|Usage=FLASHONLY|Rotation=90.000|XOffset=0mm|YOffset=0mm|HoleType=Round|Shape=RoundedRectangle|*
%AMROUNDEDRECTD13*
21,1,1.00000,1.17000,0,0,90.0*
21,1,0.75000,1.42000,0,0,90.0*
1,1,0.25000,0.58500,0.37500*
1,1,0.25000,0.58500,-0.37500*
1,1,0.25000,-0.58500,-0.37500*
1,1,0.25000,-0.58500,0.37500*
%
%ADD13ROUNDEDRECTD13*%
G04:AMPARAMS|DCode=14|XSize=0.94mm|YSize=1.02mm|CornerRadius=0.094mm|HoleSize=0mm|Usage=FLASHONLY|Rotation=180.000|XOffset=0mm|YOffset=0mm|HoleType=Round|Shape=RoundedRectangle|*
%AMROUNDEDRECTD14*
21,1,0.94000,0.83200,0,0,180.0*
21,1,0.75200,1.02000,0,0,180.0*
1,1,0.18800,-0.37600,0.41600*
1,1,0.18800,0.37600,0.41600*
1,1,0.18800,0.37600,-0.41600*
1,1,0.18800,-0.37600,-0.41600*
%
%ADD14ROUNDEDRECTD14*%
G04:AMPARAMS|DCode=15|XSize=0.94mm|YSize=1.02mm|CornerRadius=0.094mm|HoleSize=0mm|Usage=FLASHONLY|Rotation=270.000|XOffset=0mm|YOffset=0mm|HoleType=Round|Shape=RoundedRectangle|*
%AMROUNDEDRECTD15*
21,1,0.94000,0.83200,0,0,270.0*
21,1,0.75200,1.02000,0,0,270.0*
1,1,0.18800,-0.41600,-0.37600*
1,1,0.18800,-0.41600,0.37600*
1,1,0.18800,0.41600,0.37600*
1,1,0.18800,0.41600,-0.37600*
%
%ADD15ROUNDEDRECTD15*%
%ADD16R,1.47000X1.16000*%
%ADD17R,1.16000X1.47000*%
%ADD18R,1.10000X1.00000*%
G04:AMPARAMS|DCode=19|XSize=3.24mm|YSize=1.31mm|CornerRadius=0.09825mm|HoleSize=0mm|Usage=FLASHONLY|Rotation=180.000|XOffset=0mm|YOffset=0mm|HoleType=Round|Shape=RoundedRectangle|*
%AMROUNDEDRECTD19*
21,1,3.24000,1.11350,0,0,180.0*
21,1,3.04350,1.31000,0,0,180.0*
1,1,0.19650,-1.52175,0.55675*
1,1,0.19650,1.52175,0.55675*
1,1,0.19650,1.52175,-0.55675*
1,1,0.19650,-1.52175,-0.55675*
%
%ADD19ROUNDEDRECTD19*%
G04:AMPARAMS|DCode=20|XSize=0.93mm|YSize=1.31mm|CornerRadius=0.06975mm|HoleSize=0mm|Usage=FLASHONLY|Rotation=180.000|XOffset=0mm|YOffset=0mm|HoleType=Round|Shape=RoundedRectangle|*
%AMROUNDEDRECTD20*
21,1,0.93000,1.17050,0,0,180.0*
21,1,0.79050,1.31000,0,0,180.0*
1,1,0.13950,-0.39525,0.58525*
1,1,0.13950,0.39525,0.58525*
1,1,0.13950,0.39525,-0.58525*
1,1,0.13950,-0.39525,-0.58525*
%
%ADD20ROUNDEDRECTD20*%
%ADD21R,1.00000X1.10000*%
%ADD22R,1.90000X0.40000*%
%ADD23R,0.60000X1.15000*%
%ADD24R,0.80000X1.70000*%
D10*
X10529448Y6057301D02*
D03*
D11*
Y6137300D02*
D03*
Y6217300D02*
D03*
Y6297300D02*
D03*
Y6377300D02*
D03*
Y6457300D02*
D03*
Y6537300D02*
D03*
Y6617299D02*
D03*
X9714352D02*
D03*
Y6537300D02*
D03*
Y6457300D02*
D03*
Y6377300D02*
D03*
Y6297300D02*
D03*
Y6217300D02*
D03*
Y6137300D02*
D03*
Y6057301D02*
D03*
D12*
X10401899Y6744848D02*
D03*
X10321900D02*
D03*
X10241900D02*
D03*
X10161900D02*
D03*
X10081900D02*
D03*
X10001900D02*
D03*
X9921900D02*
D03*
X9841901D02*
D03*
Y5929752D02*
D03*
X9921900D02*
D03*
X10001900D02*
D03*
X10081900D02*
D03*
X10161900D02*
D03*
X10241900D02*
D03*
X10321900D02*
D03*
X10401899D02*
D03*
D13*
X9499600Y6138697D02*
D03*
Y5951698D02*
D03*
X10541000Y7180097D02*
D03*
Y6993098D02*
D03*
X10185400Y8069102D02*
D03*
Y7882103D02*
D03*
D14*
X9763501Y7404100D02*
D03*
X9921499D02*
D03*
D15*
X10099924Y7173006D02*
D03*
Y7331004D02*
D03*
D16*
X10541000Y7455799D02*
D03*
Y7631801D02*
D03*
D17*
X8967099Y6972300D02*
D03*
X9143101D02*
D03*
D18*
X8970101Y6756400D02*
D03*
X9140099D02*
D03*
D19*
X8966200Y5850402D02*
D03*
D20*
X8737199Y6519398D02*
D03*
X8966200D02*
D03*
X9195201D02*
D03*
D21*
X9474200Y6379301D02*
D03*
Y6549304D02*
D03*
D22*
X10820400Y6609700D02*
D03*
Y6369700D02*
D03*
Y6489700D02*
D03*
D23*
X10585201Y8073598D02*
D03*
X10395199D02*
D03*
X10490200Y7848600D02*
D03*
D24*
X9944100Y7676002D02*
D03*
X9604101D02*
D03*
%TF.MD5,c44e8a34b99544c69db34414f45d60c9*%
M02*
