%TF.GenerationSoftware,Altium Limited,Altium Designer,20.0.13 (296)*%
G04 Layer_Physical_Order=1*
G04 Layer_Color=255*
%FSLAX45Y45*%
%MOMM*%
%TF.FileFunction,Copper,L1,Top,Signal*%
%TF.Part,Single*%
G01*
G75*
%TA.AperFunction,SMDPad,CuDef*%
%ADD10R,1.35523X0.48583*%
G04:AMPARAMS|DCode=11|XSize=1.35523mm|YSize=0.48583mm|CornerRadius=0.24292mm|HoleSize=0mm|Usage=FLASHONLY|Rotation=180.000|XOffset=0mm|YOffset=0mm|HoleType=Round|Shape=RoundedRectangle|*
%AMROUNDEDRECTD11*
21,1,1.35523,0.00000,0,0,180.0*
21,1,0.86940,0.48583,0,0,180.0*
1,1,0.48583,-0.43470,0.00000*
1,1,0.48583,0.43470,0.00000*
1,1,0.48583,0.43470,0.00000*
1,1,0.48583,-0.43470,0.00000*
%
%ADD11ROUNDEDRECTD11*%
G04:AMPARAMS|DCode=12|XSize=0.48583mm|YSize=1.35523mm|CornerRadius=0.24292mm|HoleSize=0mm|Usage=FLASHONLY|Rotation=180.000|XOffset=0mm|YOffset=0mm|HoleType=Round|Shape=RoundedRectangle|*
%AMROUNDEDRECTD12*
21,1,0.48583,0.86940,0,0,180.0*
21,1,0.00000,1.35523,0,0,180.0*
1,1,0.48583,0.00000,0.43470*
1,1,0.48583,0.00000,0.43470*
1,1,0.48583,0.00000,-0.43470*
1,1,0.48583,0.00000,-0.43470*
%
%ADD12ROUNDEDRECTD12*%
G04:AMPARAMS|DCode=13|XSize=1mm|YSize=1.42mm|CornerRadius=0.125mm|HoleSize=0mm|Usage=FLASHONLY|Rotation=90.000|XOffset=0mm|YOffset=0mm|HoleType=Round|Shape=RoundedRectangle|*
%AMROUNDEDRECTD13*
21,1,1.00000,1.17000,0,0,90.0*
21,1,0.75000,1.42000,0,0,90.0*
1,1,0.25000,0.58500,0.37500*
1,1,0.25000,0.58500,-0.37500*
1,1,0.25000,-0.58500,-0.37500*
1,1,0.25000,-0.58500,0.37500*
%
%ADD13ROUNDEDRECTD13*%
G04:AMPARAMS|DCode=14|XSize=0.94mm|YSize=1.02mm|CornerRadius=0.094mm|HoleSize=0mm|Usage=FLASHONLY|Rotation=180.000|XOffset=0mm|YOffset=0mm|HoleType=Round|Shape=RoundedRectangle|*
%AMROUNDEDRECTD14*
21,1,0.94000,0.83200,0,0,180.0*
21,1,0.75200,1.02000,0,0,180.0*
1,1,0.18800,-0.37600,0.41600*
1,1,0.18800,0.37600,0.41600*
1,1,0.18800,0.37600,-0.41600*
1,1,0.18800,-0.37600,-0.41600*
%
%ADD14ROUNDEDRECTD14*%
G04:AMPARAMS|DCode=15|XSize=0.94mm|YSize=1.02mm|CornerRadius=0.094mm|HoleSize=0mm|Usage=FLASHONLY|Rotation=270.000|XOffset=0mm|YOffset=0mm|HoleType=Round|Shape=RoundedRectangle|*
%AMROUNDEDRECTD15*
21,1,0.94000,0.83200,0,0,270.0*
21,1,0.75200,1.02000,0,0,270.0*
1,1,0.18800,-0.41600,-0.37600*
1,1,0.18800,-0.41600,0.37600*
1,1,0.18800,0.41600,0.37600*
1,1,0.18800,0.41600,-0.37600*
%
%ADD15ROUNDEDRECTD15*%
%ADD16R,1.47000X1.16000*%
%ADD17R,1.16000X1.47000*%
%ADD18R,1.10000X1.00000*%
G04:AMPARAMS|DCode=19|XSize=3.24mm|YSize=1.31mm|CornerRadius=0.09825mm|HoleSize=0mm|Usage=FLASHONLY|Rotation=180.000|XOffset=0mm|YOffset=0mm|HoleType=Round|Shape=RoundedRectangle|*
%AMROUNDEDRECTD19*
21,1,3.24000,1.11350,0,0,180.0*
21,1,3.04350,1.31000,0,0,180.0*
1,1,0.19650,-1.52175,0.55675*
1,1,0.19650,1.52175,0.55675*
1,1,0.19650,1.52175,-0.55675*
1,1,0.19650,-1.52175,-0.55675*
%
%ADD19ROUNDEDRECTD19*%
G04:AMPARAMS|DCode=20|XSize=0.93mm|YSize=1.31mm|CornerRadius=0.06975mm|HoleSize=0mm|Usage=FLASHONLY|Rotation=180.000|XOffset=0mm|YOffset=0mm|HoleType=Round|Shape=RoundedRectangle|*
%AMROUNDEDRECTD20*
21,1,0.93000,1.17050,0,0,180.0*
21,1,0.79050,1.31000,0,0,180.0*
1,1,0.13950,-0.39525,0.58525*
1,1,0.13950,0.39525,0.58525*
1,1,0.13950,0.39525,-0.58525*
1,1,0.13950,-0.39525,-0.58525*
%
%ADD20ROUNDEDRECTD20*%
%ADD21R,1.00000X1.10000*%
%ADD22R,1.90000X0.40000*%
%ADD23R,0.60000X1.15000*%
%ADD24R,0.80000X1.70000*%
%ADD25C,0.75000*%
%TA.AperFunction,Conductor*%
%ADD26C,0.50000*%
%TA.AperFunction,ComponentPad*%
%ADD27C,2.10000*%
%ADD28R,2.10000X2.10000*%
%ADD29C,1.28000*%
%ADD30R,1.50000X1.50000*%
%ADD31R,1.60000X0.60000*%
%TA.AperFunction,ViaPad*%
%ADD32C,2.50000*%
%ADD33C,0.70000*%
G36*
X11023102Y8053370D02*
X11010402Y8052537D01*
X11009099Y8062438D01*
X11000091Y8084186D01*
X10985761Y8102861D01*
X10967086Y8117191D01*
X10945338Y8126199D01*
X10922000Y8129271D01*
X10898662Y8126199D01*
X10876914Y8117191D01*
X10858239Y8102861D01*
X10848745Y8090487D01*
X10640985D01*
X10640601Y8090871D01*
Y8156498D01*
X10529801D01*
Y7990698D01*
X10604690D01*
X10619699Y7987713D01*
X10848745D01*
X10858239Y7975339D01*
X10876914Y7961009D01*
X10898662Y7952001D01*
X10922000Y7948929D01*
X10945338Y7952001D01*
X10967086Y7961009D01*
X10985761Y7975339D01*
X11000091Y7994014D01*
X11009099Y8015762D01*
X11010402Y8025663D01*
X11023102Y8024830D01*
Y7304070D01*
X11010402Y7303237D01*
X11009099Y7313138D01*
X11000091Y7334886D01*
X10985761Y7353561D01*
X10973387Y7363055D01*
Y7526020D01*
X10969476Y7545685D01*
X10958336Y7562356D01*
X10743661Y7777032D01*
X10726989Y7788171D01*
X10707324Y7792083D01*
X10545600D01*
Y7835900D01*
X10490200D01*
Y7848600D01*
X10477500D01*
Y7931500D01*
X10434800D01*
Y7891155D01*
X10423600Y7885168D01*
X10419787Y7887715D01*
X10410063Y7889650D01*
X10381274Y7918439D01*
X10364603Y7929578D01*
X10344937Y7933490D01*
X10279780D01*
X10279601Y7934391D01*
X10271224Y7946927D01*
X10258688Y7955303D01*
X10243900Y7958245D01*
X10126900D01*
X10114868Y7955851D01*
X10102167Y7962770D01*
Y7988435D01*
X10114868Y7995354D01*
X10126900Y7992960D01*
X10243900D01*
X10258688Y7995902D01*
X10271224Y8004278D01*
X10279601Y8016815D01*
X10279780Y8017715D01*
X10287000D01*
X10306665Y8021627D01*
X10307539Y8022211D01*
X10339799D01*
Y7990698D01*
X10450599D01*
Y8156498D01*
X10339799D01*
Y8124986D01*
X10291496D01*
X10278876Y8122475D01*
X10271224Y8133927D01*
X10258688Y8142303D01*
X10243900Y8145245D01*
X10126900D01*
X10114868Y8142851D01*
X10102167Y8149770D01*
Y8956040D01*
X10098256Y8975705D01*
X10087116Y8992376D01*
X9571496Y9507996D01*
X9554825Y9519136D01*
X9535160Y9523047D01*
X9338300D01*
Y9527060D01*
X9127500D01*
Y9523047D01*
X9091559D01*
X9071894Y9519136D01*
X9055223Y9507996D01*
X8930763Y9383536D01*
X8919624Y9366865D01*
X8915712Y9347200D01*
Y7071200D01*
X8883699D01*
Y6873400D01*
X8915712D01*
Y6863542D01*
X8918714Y6848449D01*
Y6831800D01*
X8889702D01*
Y6681000D01*
X8918714D01*
Y6654094D01*
X8914813Y6634480D01*
Y6608573D01*
X8914043Y6608419D01*
X8903334Y6601264D01*
X8896178Y6590555D01*
X8893666Y6577923D01*
Y6460873D01*
X8896178Y6448241D01*
X8903334Y6437532D01*
X8914043Y6430376D01*
X8926675Y6427863D01*
X9005725D01*
X9018357Y6430376D01*
X9029066Y6437532D01*
X9036222Y6448241D01*
X9038734Y6460873D01*
Y6577923D01*
X9036222Y6590555D01*
X9029066Y6601264D01*
X9018357Y6608419D01*
X9017954Y6620609D01*
X9021489Y6638381D01*
Y6681000D01*
X9046998D01*
X9050501Y6681000D01*
X9059699D01*
X9063202Y6681000D01*
X9127399D01*
Y6756400D01*
Y6831800D01*
X9063202D01*
X9059699Y6831800D01*
X9050501D01*
X9046998Y6831800D01*
X9021489D01*
Y6860540D01*
X9020883Y6863583D01*
X9028940Y6873400D01*
X9047001D01*
X9050499Y6873400D01*
X9059701D01*
X9063199Y6873400D01*
X9130401D01*
Y6972300D01*
Y7071200D01*
X9063199D01*
X9059701Y7071200D01*
X9050499D01*
X9047001Y7071200D01*
X9018486D01*
Y9325915D01*
X9112844Y9420273D01*
X9127500D01*
Y9416260D01*
X9338299D01*
X9338300Y9416260D01*
Y9416260D01*
X9338300Y9416260D01*
X9349292Y9412136D01*
X9462726Y9298701D01*
Y9209251D01*
X9450993Y9204391D01*
X9398847Y9256536D01*
X9382176Y9267676D01*
X9362511Y9271587D01*
X9338300D01*
Y9275600D01*
X9127500D01*
Y9164800D01*
X9338299D01*
X9338300Y9164800D01*
Y9164800D01*
X9338300Y9164800D01*
X9349313Y9160726D01*
X9387324Y9122715D01*
Y8752051D01*
X9375591Y8747191D01*
X9374245Y8748536D01*
X9357574Y8759676D01*
X9338300Y8763510D01*
Y8767600D01*
X9152207D01*
Y8783800D01*
X9338300D01*
Y8894600D01*
X9198130D01*
X9191599Y8907300D01*
X9194102Y8910800D01*
X9338300D01*
Y9021600D01*
X9127500D01*
Y8996973D01*
X9064484Y8933956D01*
X9053344Y8917285D01*
X9049433Y8897620D01*
Y7369114D01*
X9053344Y7349449D01*
X9064484Y7332778D01*
X9664113Y6733149D01*
Y6666618D01*
X9651493Y6664108D01*
X9635056Y6653125D01*
X9624073Y6636688D01*
X9620217Y6617299D01*
X9624073Y6597911D01*
X9631857Y6586262D01*
X9634039Y6577300D01*
X9631857Y6568337D01*
X9624073Y6556688D01*
X9620217Y6537300D01*
X9624073Y6517911D01*
X9631857Y6506262D01*
X9634039Y6497300D01*
X9631857Y6488337D01*
X9624073Y6476688D01*
X9620217Y6457300D01*
X9623382Y6441387D01*
X9616125Y6428687D01*
X9601102D01*
X9591040Y6430689D01*
X9549600D01*
Y6456203D01*
X9549600Y6459701D01*
Y6468904D01*
X9549600Y6472402D01*
Y6536604D01*
X9474200D01*
X9398800D01*
Y6472402D01*
X9398800Y6468904D01*
Y6459701D01*
X9398800Y6456203D01*
Y6298902D01*
X9549600D01*
Y6327914D01*
X9582979D01*
X9593042Y6325913D01*
X9616125D01*
X9623382Y6313212D01*
X9622743Y6310000D01*
X9714352D01*
X9805961D01*
X9804630Y6316689D01*
X9796847Y6328338D01*
X9795181Y6335180D01*
X9799781Y6341740D01*
X9814844Y6343084D01*
X9869664Y6288264D01*
X9886335Y6277124D01*
X9906000Y6273213D01*
X10019340D01*
X10039005Y6277124D01*
X10055676Y6288264D01*
X10057022Y6289609D01*
X10068755Y6284749D01*
Y6246978D01*
X10072667Y6227312D01*
X10083806Y6210641D01*
X10106146Y6188301D01*
X10105325Y6184117D01*
X10091854Y6181419D01*
X10091303Y6182243D01*
X10071324Y6195593D01*
X10047757Y6200281D01*
X10024191Y6195593D01*
X10015947Y6190085D01*
X9813512D01*
X9805600Y6202785D01*
X9808487Y6217300D01*
X9804630Y6236689D01*
X9796847Y6248338D01*
X9794664Y6257300D01*
X9796847Y6266263D01*
X9804630Y6277911D01*
X9805961Y6284600D01*
X9714352D01*
X9622743D01*
X9624073Y6277911D01*
X9631857Y6266263D01*
X9634039Y6257300D01*
X9631857Y6248338D01*
X9624073Y6236689D01*
X9620217Y6217300D01*
X9623104Y6202785D01*
X9615192Y6190085D01*
X9593980D01*
X9593801Y6190985D01*
X9585424Y6203522D01*
X9572888Y6211898D01*
X9558100Y6214840D01*
X9441100D01*
X9426312Y6211898D01*
X9413776Y6203522D01*
X9405399Y6190985D01*
X9402458Y6176197D01*
Y6101197D01*
X9405399Y6086409D01*
X9413776Y6073873D01*
X9426312Y6065497D01*
X9441100Y6062555D01*
X9558100D01*
X9572888Y6065497D01*
X9585424Y6073873D01*
X9593801Y6086409D01*
X9593980Y6087310D01*
X9598114D01*
X9605137Y6085913D01*
X9616125D01*
X9623382Y6073213D01*
X9620217Y6057301D01*
X9624073Y6037912D01*
X9635056Y6021475D01*
X9651493Y6010492D01*
X9670882Y6006635D01*
X9757822D01*
X9777211Y6010492D01*
X9793648Y6021475D01*
X9804630Y6037912D01*
X9808487Y6057301D01*
X9805044Y6074610D01*
X9811378Y6087310D01*
X10015947D01*
X10024191Y6081802D01*
X10047757Y6077114D01*
X10071324Y6081802D01*
X10091303Y6095151D01*
X10097813Y6104893D01*
X10110513Y6101041D01*
Y6027979D01*
X10097812Y6020722D01*
X10081900Y6023887D01*
X10062511Y6020030D01*
X10046075Y6009048D01*
X10037726D01*
X10021289Y6020030D01*
X10001900Y6023887D01*
X9982512Y6020030D01*
X9966075Y6009048D01*
X9957726D01*
X9941289Y6020030D01*
X9921900Y6023887D01*
X9902512Y6020030D01*
X9886075Y6009048D01*
X9877726D01*
X9861289Y6020030D01*
X9841901Y6023887D01*
X9822512Y6020030D01*
X9806075Y6009048D01*
X9795092Y5992611D01*
X9791235Y5973222D01*
Y5886282D01*
X9795092Y5866893D01*
X9806075Y5850456D01*
X9822512Y5839473D01*
X9841901Y5835617D01*
X9861289Y5839473D01*
X9877726Y5850456D01*
X9886075D01*
X9902512Y5839473D01*
X9921900Y5835617D01*
X9941289Y5839473D01*
X9957726Y5850456D01*
X9966075D01*
X9982512Y5839473D01*
X10001900Y5835617D01*
X10021289Y5839473D01*
X10037726Y5850456D01*
X10046075D01*
X10062511Y5839473D01*
X10081900Y5835617D01*
X10101289Y5839473D01*
X10117726Y5850456D01*
X10126074D01*
X10142511Y5839473D01*
X10161900Y5835617D01*
X10181289Y5839473D01*
X10197725Y5850456D01*
X10206074D01*
X10222511Y5839473D01*
X10241900Y5835617D01*
X10261288Y5839473D01*
X10277725Y5850456D01*
X10286074D01*
X10302511Y5839473D01*
X10321900Y5835617D01*
X10341288Y5839473D01*
X10357725Y5850456D01*
X10366074D01*
X10382511Y5839473D01*
X10401899Y5835617D01*
X10421288Y5839473D01*
X10437725Y5850456D01*
X10448708Y5866893D01*
X10452565Y5886282D01*
Y5973222D01*
X10448708Y5992611D01*
X10446170Y5996409D01*
X10452157Y6007609D01*
X10520923D01*
X10529448Y6005913D01*
X10617200D01*
X10636865Y6009825D01*
X10653536Y6020964D01*
X10691636Y6059064D01*
X10702776Y6075735D01*
X10706687Y6095401D01*
Y6160709D01*
X10712195Y6168953D01*
X10716883Y6192520D01*
X10712195Y6216087D01*
X10698846Y6236066D01*
X10678867Y6249415D01*
X10655300Y6254103D01*
X10631733Y6249415D01*
X10623088Y6243639D01*
X10611288Y6251029D01*
X10609761Y6257300D01*
X10611943Y6266263D01*
X10619727Y6277911D01*
X10623583Y6297300D01*
X10619727Y6316689D01*
X10611943Y6328338D01*
X10609761Y6337300D01*
X10611943Y6346262D01*
X10619727Y6357911D01*
X10621057Y6364600D01*
X10529448D01*
Y6390000D01*
X10621057D01*
X10619727Y6396689D01*
X10616405Y6401660D01*
X10619787Y6411801D01*
X10626552Y6412756D01*
X10700000Y6339307D01*
Y6324300D01*
X10719508D01*
X10722615Y6322225D01*
X10742280Y6318313D01*
X10820400D01*
X10840065Y6322225D01*
X10843171Y6324300D01*
X10940800D01*
Y6415100D01*
X10843171D01*
X10840065Y6417176D01*
X10820400Y6421087D01*
X10763565D01*
X10752086Y6432567D01*
X10756946Y6444300D01*
X10807700D01*
Y6489700D01*
Y6535100D01*
X10700001D01*
X10700000Y6535100D01*
Y6535100D01*
X10689216Y6540005D01*
X10685415Y6546194D01*
X10691380Y6558313D01*
X10820400D01*
X10840065Y6562224D01*
X10843171Y6564300D01*
X10940800D01*
Y6655100D01*
X10843171D01*
X10840065Y6657175D01*
X10820400Y6661087D01*
X10695725D01*
X10690205Y6664775D01*
X10670540Y6668687D01*
X10529448D01*
X10525818Y6667965D01*
X10485978D01*
X10466589Y6664108D01*
X10450152Y6653125D01*
X10439170Y6636688D01*
X10435313Y6617299D01*
X10439170Y6597911D01*
X10446953Y6586262D01*
X10449136Y6577300D01*
X10446953Y6568337D01*
X10439170Y6556688D01*
X10435313Y6537300D01*
X10439170Y6517911D01*
X10446953Y6506262D01*
X10449136Y6497300D01*
X10446953Y6488337D01*
X10439170Y6476688D01*
X10435313Y6457300D01*
X10439170Y6437911D01*
X10450152Y6421474D01*
Y6413125D01*
X10440585Y6398808D01*
X10426798Y6394635D01*
X10259836Y6561596D01*
X10243165Y6572736D01*
X10223500Y6576647D01*
X10083800D01*
X10064135Y6572736D01*
X10047464Y6561596D01*
X10022039Y6536171D01*
X10009400Y6537416D01*
X10002886Y6547165D01*
X9982907Y6560515D01*
X9973288Y6562428D01*
Y6646621D01*
X9985988Y6653878D01*
X10001900Y6650713D01*
X10021289Y6654570D01*
X10037726Y6665552D01*
X10046075D01*
X10062511Y6654570D01*
X10081900Y6650713D01*
X10101289Y6654570D01*
X10117726Y6665552D01*
X10126074D01*
X10142511Y6654570D01*
X10161900Y6650713D01*
X10181289Y6654570D01*
X10197725Y6665552D01*
X10206074D01*
X10222511Y6654570D01*
X10241900Y6650713D01*
X10261288Y6654570D01*
X10277725Y6665552D01*
X10286074D01*
X10302511Y6654570D01*
X10321900Y6650713D01*
X10341288Y6654570D01*
X10357725Y6665552D01*
X10366074D01*
X10382511Y6654570D01*
X10401899Y6650713D01*
X10421288Y6654570D01*
X10437725Y6665552D01*
X10448708Y6681989D01*
X10452565Y6701378D01*
Y6788318D01*
X10448708Y6807707D01*
X10437725Y6824144D01*
X10421288Y6835127D01*
X10401899Y6838983D01*
X10382511Y6835127D01*
X10366074Y6824144D01*
X10357725D01*
X10341288Y6835127D01*
X10321900Y6838983D01*
X10302511Y6835127D01*
X10286074Y6824144D01*
X10277725D01*
X10261288Y6835127D01*
X10241900Y6838983D01*
X10225987Y6835818D01*
X10213287Y6843075D01*
Y6930354D01*
X10209376Y6950020D01*
X10198236Y6966691D01*
X10164251Y7000675D01*
X10168432Y7014456D01*
X10178487Y7016456D01*
X10198466Y7029805D01*
X10211815Y7049784D01*
X10216503Y7073351D01*
X10211815Y7096918D01*
X10198466Y7116897D01*
X10188728Y7123404D01*
X10189397Y7127910D01*
X10202996Y7133036D01*
X10217713Y7123202D01*
X10241280Y7118514D01*
X10264847Y7123202D01*
X10273091Y7128710D01*
X10446620D01*
X10446799Y7127809D01*
X10455176Y7115273D01*
X10467712Y7106897D01*
X10482500Y7103955D01*
X10599500D01*
X10614288Y7106897D01*
X10626824Y7115273D01*
X10635201Y7127809D01*
X10638142Y7142597D01*
Y7217597D01*
X10635201Y7232385D01*
X10626824Y7244922D01*
X10614288Y7253298D01*
X10599500Y7256240D01*
X10592387D01*
Y7372399D01*
X10639900D01*
Y7539199D01*
X10639900D01*
Y7548401D01*
X10639900D01*
Y7619101D01*
X10541000D01*
X10442100D01*
Y7548401D01*
X10442100D01*
Y7539199D01*
X10442100D01*
Y7372399D01*
X10489613D01*
Y7256240D01*
X10482500D01*
X10467712Y7253298D01*
X10455176Y7244922D01*
X10446799Y7232385D01*
X10446620Y7231485D01*
X10273091D01*
X10264847Y7236993D01*
X10241280Y7241681D01*
X10217713Y7236993D01*
X10197734Y7223643D01*
X10189444Y7211237D01*
X10186921Y7211109D01*
X10176258Y7214362D01*
X10174305Y7224184D01*
X10166613Y7235695D01*
X10155102Y7243387D01*
X10144324Y7245530D01*
Y7258479D01*
X10155102Y7260623D01*
X10166613Y7268315D01*
X10174305Y7279826D01*
X10177006Y7293404D01*
Y7368604D01*
X10174305Y7382182D01*
X10166613Y7393693D01*
X10155102Y7401385D01*
X10151311Y7402139D01*
Y7689308D01*
X10442100D01*
Y7644501D01*
X10541000D01*
X10639900D01*
Y7689308D01*
X10686039D01*
X10870613Y7504735D01*
Y7363055D01*
X10858239Y7353561D01*
X10843909Y7334886D01*
X10834901Y7313138D01*
X10831829Y7289800D01*
X10834901Y7266462D01*
X10843909Y7244714D01*
X10858239Y7226039D01*
X10876914Y7211709D01*
X10898662Y7202701D01*
X10922000Y7199629D01*
X10945338Y7202701D01*
X10967086Y7211709D01*
X10985761Y7226039D01*
X11000091Y7244714D01*
X11009099Y7266462D01*
X11010402Y7276363D01*
X11023102Y7275530D01*
Y5678302D01*
X11021700Y5676900D01*
X8521700D01*
Y9676902D01*
X11023102D01*
Y8053370D01*
D02*
G37*
G36*
X9999393Y8934755D02*
Y7810500D01*
X10000501Y7804929D01*
X10000639Y7799249D01*
X10000705Y7799102D01*
X9996368Y7790002D01*
X9992155Y7786402D01*
X9878700D01*
Y7565603D01*
X9878700Y7565602D01*
X9878700D01*
X9877485Y7553405D01*
X9874023Y7548225D01*
X9870112Y7528560D01*
Y7478341D01*
X9858810Y7470789D01*
X9851118Y7459278D01*
X9848974Y7448500D01*
X9836026D01*
X9833882Y7459278D01*
X9826190Y7470789D01*
X9814679Y7478481D01*
X9812643Y7478886D01*
X9810977Y7487265D01*
X9799837Y7503936D01*
X9746497Y7557276D01*
X9729826Y7568416D01*
X9710161Y7572327D01*
X9669501D01*
Y7663302D01*
X9604101D01*
Y7676002D01*
X9591401D01*
Y7786402D01*
X9563687D01*
Y8369245D01*
X9565501Y8378363D01*
Y9319986D01*
X9561589Y9339651D01*
X9550450Y9356323D01*
X9500592Y9406181D01*
X9505329Y9418300D01*
X9514827Y9419321D01*
X9999393Y8934755D01*
D02*
G37*
G36*
X9308513Y8529320D02*
Y7271421D01*
X9312424Y7251755D01*
X9319699Y7240868D01*
X9309835Y7232772D01*
X9152207Y7390399D01*
Y8529800D01*
X9308119D01*
X9308513Y8529320D01*
D02*
G37*
G36*
X10048537Y7724421D02*
Y7402139D01*
X10044746Y7401385D01*
X10033235Y7393693D01*
X10025543Y7382182D01*
X10022842Y7368604D01*
Y7293404D01*
X10025543Y7279826D01*
X10033235Y7268315D01*
X10044746Y7260623D01*
X10055524Y7258479D01*
Y7245530D01*
X10044746Y7243387D01*
X10033235Y7235695D01*
X10025543Y7224184D01*
X10022842Y7210606D01*
Y7158678D01*
X10011109Y7153818D01*
X9972886Y7192040D01*
Y7329859D01*
X9984188Y7337411D01*
X9991880Y7348922D01*
X9994581Y7362500D01*
Y7445700D01*
X9991880Y7459278D01*
X9984188Y7470789D01*
X9972886Y7478341D01*
Y7507275D01*
X9980436Y7514825D01*
X9991576Y7531496D01*
X9995487Y7551161D01*
Y7565602D01*
X10009500D01*
Y7758837D01*
X10021607Y7762672D01*
X10048537Y7724421D01*
D02*
G37*
G36*
X9475964Y7380464D02*
X9492635Y7369324D01*
X9512300Y7365413D01*
X9547535D01*
X9943315Y6969632D01*
X9937059Y6957928D01*
X9925700Y6960187D01*
X9902251D01*
X9894007Y6965695D01*
X9870440Y6970383D01*
X9846873Y6965695D01*
X9826894Y6952346D01*
X9813545Y6932367D01*
X9809570Y6912384D01*
X9797316Y6906677D01*
X9411287Y7292706D01*
Y7428547D01*
X9423021Y7433407D01*
X9475964Y7380464D01*
D02*
G37*
G36*
X10415124Y6260964D02*
X10431795Y6249824D01*
X10434841Y6249218D01*
X10438761Y6239755D01*
X10438925Y6235457D01*
X10435313Y6217300D01*
X10439170Y6197912D01*
X10446953Y6186263D01*
X10449136Y6177300D01*
X10446953Y6168338D01*
X10439170Y6156689D01*
X10435313Y6137300D01*
X10438816Y6119692D01*
X10436286Y6106992D01*
X10436286D01*
Y6023480D01*
X10425086Y6017493D01*
X10421288Y6020030D01*
X10401899Y6023887D01*
X10382511Y6020030D01*
X10366074Y6009048D01*
X10357725D01*
X10341288Y6020030D01*
X10321900Y6023887D01*
X10302511Y6020030D01*
X10286074Y6009048D01*
X10277725D01*
X10261288Y6020030D01*
X10241900Y6023887D01*
X10225987Y6020722D01*
X10213287Y6027979D01*
Y6205220D01*
X10209376Y6224885D01*
X10198236Y6241556D01*
X10171530Y6268263D01*
Y6380620D01*
X10178487Y6382005D01*
X10198466Y6395354D01*
X10211815Y6415333D01*
X10216503Y6438900D01*
X10215827Y6442300D01*
X10227531Y6448556D01*
X10415124Y6260964D01*
D02*
G37*
%LPC*%
G36*
X8737600Y9523855D02*
Y9406702D01*
X8854753D01*
X8851944Y9428043D01*
X8838804Y9459765D01*
X8817902Y9487004D01*
X8790663Y9507906D01*
X8758941Y9521046D01*
X8737600Y9523855D01*
D02*
G37*
G36*
X8712200D02*
X8690859Y9521046D01*
X8659137Y9507906D01*
X8631898Y9487004D01*
X8610996Y9459765D01*
X8597856Y9428043D01*
X8595047Y9406702D01*
X8712200D01*
Y9523855D01*
D02*
G37*
G36*
X9338300Y9402620D02*
X9245600D01*
Y9359920D01*
X9338300D01*
Y9402620D01*
D02*
G37*
G36*
X9220200D02*
X9127500D01*
Y9359920D01*
X9220200D01*
Y9402620D01*
D02*
G37*
G36*
X9338300Y9334520D02*
X9245600D01*
Y9291820D01*
X9338300D01*
Y9334520D01*
D02*
G37*
G36*
X9220200D02*
X9127500D01*
Y9291820D01*
X9220200D01*
Y9334520D01*
D02*
G37*
G36*
X8854753Y9381302D02*
X8737600D01*
Y9264149D01*
X8758941Y9266958D01*
X8790663Y9280098D01*
X8817902Y9301000D01*
X8838804Y9328239D01*
X8851944Y9359961D01*
X8854753Y9381302D01*
D02*
G37*
G36*
X8712200D02*
X8595047D01*
X8597856Y9359961D01*
X8610996Y9328239D01*
X8631898Y9301000D01*
X8659137Y9280098D01*
X8690859Y9266958D01*
X8712200Y9264149D01*
Y9381302D01*
D02*
G37*
G36*
X10337800Y9114157D02*
Y9067800D01*
X10384157D01*
X10381995Y9078667D01*
X10368646Y9098646D01*
X10348667Y9111995D01*
X10337800Y9114157D01*
D02*
G37*
G36*
X10312400D02*
X10301533Y9111995D01*
X10281554Y9098646D01*
X10268205Y9078667D01*
X10266043Y9067800D01*
X10312400D01*
Y9114157D01*
D02*
G37*
G36*
X9338300Y9148600D02*
X9127500D01*
Y9037800D01*
X9338300D01*
Y9148600D01*
D02*
G37*
G36*
X10384157Y9042400D02*
X10337800D01*
Y8996043D01*
X10348667Y8998205D01*
X10368646Y9011554D01*
X10381995Y9031533D01*
X10384157Y9042400D01*
D02*
G37*
G36*
X10312400D02*
X10266043D01*
X10268205Y9031533D01*
X10281554Y9011554D01*
X10301533Y8998205D01*
X10312400Y8996043D01*
Y9042400D01*
D02*
G37*
G36*
X10545600Y7931500D02*
X10502900D01*
Y7861300D01*
X10545600D01*
Y7931500D01*
D02*
G37*
G36*
X8647298Y7275900D02*
X8559598D01*
Y7188200D01*
X8647298D01*
Y7275900D01*
D02*
G37*
G36*
Y7162800D02*
X8559598D01*
Y7075100D01*
X8647298D01*
Y7162800D01*
D02*
G37*
G36*
X9155801Y7071200D02*
Y6985000D01*
X9226501D01*
Y7071200D01*
X9155801D01*
D02*
G37*
G36*
X9226501Y6959600D02*
X9155801D01*
Y6873400D01*
X9226501D01*
Y6959600D01*
D02*
G37*
G36*
X10599500Y7069240D02*
X10482500D01*
X10467712Y7066298D01*
X10455176Y7057922D01*
X10446799Y7045385D01*
X10443858Y7030598D01*
Y7025863D01*
X10435104Y7012762D01*
X10431193Y6993098D01*
Y6922831D01*
X10425685Y6914587D01*
X10420997Y6891020D01*
X10425685Y6867453D01*
X10439034Y6847474D01*
X10459013Y6834125D01*
X10482580Y6829437D01*
X10506147Y6834125D01*
X10526126Y6847474D01*
X10539475Y6867453D01*
X10544163Y6891020D01*
X10541531Y6904255D01*
X10551953Y6916955D01*
X10599500D01*
X10614288Y6919897D01*
X10626824Y6928273D01*
X10635201Y6940810D01*
X10638142Y6955597D01*
Y7030598D01*
X10635201Y7045385D01*
X10626824Y7057922D01*
X10614288Y7066298D01*
X10599500Y7069240D01*
D02*
G37*
G36*
X9152799Y6831800D02*
Y6769100D01*
X9220498D01*
Y6831800D01*
X9152799D01*
D02*
G37*
G36*
X9220498Y6743700D02*
X9152799D01*
Y6681000D01*
X9220498D01*
Y6743700D01*
D02*
G37*
G36*
X9549600Y6629704D02*
X9486900D01*
Y6562004D01*
X9549600D01*
Y6629704D01*
D02*
G37*
G36*
X9461500D02*
X9398800D01*
Y6562004D01*
X9461500D01*
Y6629704D01*
D02*
G37*
G36*
X9234726Y6610932D02*
X9207901D01*
Y6532098D01*
X9267736D01*
Y6577923D01*
X9265223Y6590555D01*
X9258067Y6601264D01*
X9247358Y6608419D01*
X9234726Y6610932D01*
D02*
G37*
G36*
X9182501D02*
X9155676D01*
X9143044Y6608419D01*
X9132335Y6601264D01*
X9125180Y6590555D01*
X9122667Y6577923D01*
Y6532098D01*
X9182501D01*
Y6610932D01*
D02*
G37*
G36*
X10940800Y6535100D02*
X10833100D01*
Y6502400D01*
X10940800D01*
Y6535100D01*
D02*
G37*
G36*
Y6477000D02*
X10833100D01*
Y6444300D01*
X10940800D01*
Y6477000D01*
D02*
G37*
G36*
X9267736Y6506698D02*
X9207901D01*
Y6427863D01*
X9234726D01*
X9247358Y6430376D01*
X9258067Y6437532D01*
X9265223Y6448241D01*
X9267736Y6460873D01*
Y6506698D01*
D02*
G37*
G36*
X9182501D02*
X9122667D01*
Y6460873D01*
X9125180Y6448241D01*
X9132335Y6437532D01*
X9143044Y6430376D01*
X9155676Y6427863D01*
X9182501D01*
Y6506698D01*
D02*
G37*
G36*
X8855300Y9024398D02*
X8594500D01*
Y8763598D01*
X8673513D01*
Y8587567D01*
X8623662Y8537716D01*
X8612522Y8521045D01*
X8608611Y8501380D01*
Y8277300D01*
X8559598D01*
Y8076500D01*
X8687725D01*
X8744633Y8019593D01*
Y7275900D01*
X8672698D01*
Y7175500D01*
Y7075100D01*
X8744633D01*
Y6897065D01*
X8700862Y6853295D01*
X8689723Y6836624D01*
X8685811Y6816959D01*
Y6608573D01*
X8685042Y6608419D01*
X8674333Y6601264D01*
X8667177Y6590555D01*
X8664664Y6577923D01*
Y6460873D01*
X8667177Y6448241D01*
X8674333Y6437532D01*
X8685042Y6430376D01*
X8697674Y6427863D01*
X8776724D01*
X8789356Y6430376D01*
X8800065Y6437532D01*
X8807220Y6448241D01*
X8809733Y6460873D01*
Y6577923D01*
X8807220Y6590555D01*
X8800065Y6601264D01*
X8789356Y6608419D01*
X8788586Y6608573D01*
Y6795673D01*
X8832356Y6839444D01*
X8843496Y6856115D01*
X8847407Y6875780D01*
Y8040878D01*
X8843496Y8060543D01*
X8832356Y8077214D01*
X8760398Y8149173D01*
Y8277300D01*
X8711385D01*
Y8480095D01*
X8761236Y8529946D01*
X8772376Y8546617D01*
X8776287Y8566282D01*
Y8763598D01*
X8855300D01*
Y9024398D01*
D02*
G37*
G36*
X9558100Y6027840D02*
X9512300D01*
Y5964398D01*
X9596742D01*
Y5989198D01*
X9593801Y6003985D01*
X9585424Y6016522D01*
X9572888Y6024898D01*
X9558100Y6027840D01*
D02*
G37*
G36*
X9486900D02*
X9441100D01*
X9426312Y6024898D01*
X9413776Y6016522D01*
X9405399Y6003985D01*
X9402458Y5989198D01*
Y5964398D01*
X9486900D01*
Y6027840D01*
D02*
G37*
G36*
X9596742Y5938998D02*
X9512300D01*
Y5875555D01*
X9558100D01*
X9572888Y5878497D01*
X9585424Y5886873D01*
X9593801Y5899410D01*
X9596742Y5914197D01*
Y5938998D01*
D02*
G37*
G36*
X9486900D02*
X9402458D01*
Y5914197D01*
X9405399Y5899410D01*
X9413776Y5886873D01*
X9426312Y5878497D01*
X9441100Y5875555D01*
X9486900D01*
Y5938998D01*
D02*
G37*
G36*
X9118375Y5941992D02*
X8814025D01*
X8800281Y5939259D01*
X8788629Y5931473D01*
X8780844Y5919822D01*
X8778110Y5906077D01*
Y5794727D01*
X8780844Y5780983D01*
X8788629Y5769332D01*
X8800281Y5761546D01*
X8814025Y5758812D01*
X9118375D01*
X9132119Y5761546D01*
X9143771Y5769332D01*
X9151556Y5780983D01*
X9154290Y5794727D01*
Y5906077D01*
X9151556Y5919822D01*
X9143771Y5931473D01*
X9132119Y5939259D01*
X9118375Y5941992D01*
D02*
G37*
G36*
X10833100Y6031228D02*
X10803616Y6028324D01*
X10775266Y6019724D01*
X10749138Y6005758D01*
X10726237Y5986963D01*
X10707442Y5964062D01*
X10693476Y5937934D01*
X10684876Y5909584D01*
X10681972Y5880100D01*
X10684876Y5850616D01*
X10693476Y5822266D01*
X10707442Y5796138D01*
X10726237Y5773237D01*
X10749138Y5754442D01*
X10775266Y5740476D01*
X10803616Y5731876D01*
X10833100Y5728972D01*
X10862584Y5731876D01*
X10890934Y5740476D01*
X10917062Y5754442D01*
X10939963Y5773237D01*
X10958758Y5796138D01*
X10972724Y5822266D01*
X10981324Y5850616D01*
X10984228Y5880100D01*
X10981324Y5909584D01*
X10972724Y5937934D01*
X10958758Y5964062D01*
X10939963Y5986963D01*
X10917062Y6005758D01*
X10890934Y6019724D01*
X10862584Y6028324D01*
X10833100Y6031228D01*
D02*
G37*
G36*
X9715500Y9114157D02*
Y9067800D01*
X9761857D01*
X9759695Y9078667D01*
X9746346Y9098646D01*
X9726367Y9111995D01*
X9715500Y9114157D01*
D02*
G37*
G36*
X9690100D02*
X9679233Y9111995D01*
X9659254Y9098646D01*
X9645905Y9078667D01*
X9643743Y9067800D01*
X9690100D01*
Y9114157D01*
D02*
G37*
G36*
X9761857Y9042400D02*
X9715500D01*
Y8996043D01*
X9726367Y8998205D01*
X9746346Y9011554D01*
X9759695Y9031533D01*
X9761857Y9042400D01*
D02*
G37*
G36*
X9690100D02*
X9643743D01*
X9645905Y9031533D01*
X9659254Y9011554D01*
X9679233Y8998205D01*
X9690100Y8996043D01*
Y9042400D01*
D02*
G37*
G36*
X9766300Y8317228D02*
X9736816Y8314324D01*
X9708466Y8305724D01*
X9682338Y8291758D01*
X9659437Y8272963D01*
X9640642Y8250062D01*
X9626676Y8223934D01*
X9618076Y8195584D01*
X9615172Y8166100D01*
X9618076Y8136616D01*
X9626676Y8108266D01*
X9640642Y8082138D01*
X9659437Y8059237D01*
X9682338Y8040442D01*
X9708466Y8026476D01*
X9736816Y8017876D01*
X9766300Y8014972D01*
X9795784Y8017876D01*
X9824134Y8026476D01*
X9850262Y8040442D01*
X9873163Y8059237D01*
X9891958Y8082138D01*
X9905924Y8108266D01*
X9914524Y8136616D01*
X9917428Y8166100D01*
X9914524Y8195584D01*
X9905924Y8223934D01*
X9891958Y8250062D01*
X9873163Y8272963D01*
X9850262Y8291758D01*
X9824134Y8305724D01*
X9795784Y8314324D01*
X9766300Y8317228D01*
D02*
G37*
G36*
X9669501Y7786402D02*
X9616801D01*
Y7688702D01*
X9669501D01*
Y7786402D01*
D02*
G37*
G36*
X9774098Y7740134D02*
X9749555Y7735252D01*
X9728749Y7721350D01*
X9714847Y7700544D01*
X9709965Y7676002D01*
X9714847Y7651459D01*
X9728749Y7630654D01*
X9749555Y7616751D01*
X9774098Y7611869D01*
X9798640Y7616751D01*
X9819446Y7630654D01*
X9833348Y7651459D01*
X9838230Y7676002D01*
X9833348Y7700544D01*
X9819446Y7721350D01*
X9798640Y7735252D01*
X9774098Y7740134D01*
D02*
G37*
%LPD*%
D10*
X10529448Y6057301D02*
D03*
D11*
Y6137300D02*
D03*
Y6217300D02*
D03*
Y6297300D02*
D03*
Y6377300D02*
D03*
Y6457300D02*
D03*
Y6537300D02*
D03*
Y6617299D02*
D03*
X9714352D02*
D03*
Y6537300D02*
D03*
Y6457300D02*
D03*
Y6377300D02*
D03*
Y6297300D02*
D03*
Y6217300D02*
D03*
Y6137300D02*
D03*
Y6057301D02*
D03*
D12*
X10401899Y6744848D02*
D03*
X10321900D02*
D03*
X10241900D02*
D03*
X10161900D02*
D03*
X10081900D02*
D03*
X10001900D02*
D03*
X9921900D02*
D03*
X9841901D02*
D03*
Y5929752D02*
D03*
X9921900D02*
D03*
X10001900D02*
D03*
X10081900D02*
D03*
X10161900D02*
D03*
X10241900D02*
D03*
X10321900D02*
D03*
X10401899D02*
D03*
D13*
X9499600Y6138697D02*
D03*
Y5951698D02*
D03*
X10541000Y7180097D02*
D03*
Y6993098D02*
D03*
X10185400Y8069102D02*
D03*
Y7882103D02*
D03*
D14*
X9763501Y7404100D02*
D03*
X9921499D02*
D03*
D15*
X10099924Y7173006D02*
D03*
Y7331004D02*
D03*
D16*
X10541000Y7455799D02*
D03*
Y7631801D02*
D03*
D17*
X8967099Y6972300D02*
D03*
X9143101D02*
D03*
D18*
X8970101Y6756400D02*
D03*
X9140099D02*
D03*
D19*
X8966200Y5850402D02*
D03*
D20*
X8737199Y6519398D02*
D03*
X8966200D02*
D03*
X9195201D02*
D03*
D21*
X9474200Y6379301D02*
D03*
Y6549304D02*
D03*
D22*
X10820400Y6609700D02*
D03*
Y6369700D02*
D03*
Y6489700D02*
D03*
D23*
X10585201Y8073598D02*
D03*
X10395199D02*
D03*
X10490200Y7848600D02*
D03*
D24*
X9944100Y7676002D02*
D03*
X9604101D02*
D03*
D25*
X9774098D02*
D03*
D26*
X9715500Y6617299D02*
Y6754434D01*
X9169400Y8966200D02*
X9232900D01*
X9100820Y8897620D02*
X9169400Y8966200D01*
X9362440Y9471660D02*
X9535160D01*
X10132060Y7096211D02*
Y7173006D01*
X10120142Y6246978D02*
Y6438900D01*
X10482580Y6891020D02*
Y6993098D01*
X9603740Y6138697D02*
X10047757D01*
X10099924Y7331004D02*
Y7740696D01*
X10050780Y7810500D02*
Y8956040D01*
X9535160Y9471660D02*
X10050780Y8956040D01*
Y7810500D02*
X10099924Y7740696D01*
X10707324D01*
X10922000Y7526020D01*
Y7289800D02*
Y7526020D01*
X8737199Y6519398D02*
Y6816959D01*
X8796020Y6875780D01*
Y8040878D01*
X8659998Y8176900D02*
X8796020Y8040878D01*
X10619699Y8039100D02*
X10922000D01*
X10585201Y8073598D02*
X10619699Y8039100D01*
X9714352Y6617299D02*
X9715500D01*
X9100820Y7369114D02*
X9715500Y6754434D01*
X9100820Y7369114D02*
Y8897620D01*
X9921900Y6541059D02*
Y6744848D01*
Y6541059D02*
X9959340Y6503619D01*
X9232900Y8712200D02*
X9337909D01*
X9363309Y8686800D01*
Y8532729D02*
Y8686800D01*
X9359900Y8529320D02*
X9363309Y8532729D01*
X9359900Y7271421D02*
Y8529320D01*
Y7271421D02*
X9841901Y6789420D01*
Y6744848D02*
Y6789420D01*
X9714352Y6537300D02*
X9833000D01*
X9837420Y6532880D01*
Y6393180D02*
Y6532880D01*
Y6393180D02*
X9906000Y6324600D01*
X10019340D01*
X10044740Y6350000D01*
Y6486200D01*
X10083800Y6525260D01*
X10223500D01*
X10451460Y6297300D01*
X10529448D01*
X10482580Y6993098D02*
X10541000D01*
X10185400Y7882103D02*
X10344937D01*
X10396220Y7830820D01*
X10655300Y6095401D02*
Y6192520D01*
X10617200Y6057301D02*
X10655300Y6095401D01*
X10529448Y6057301D02*
X10617200D01*
X10742280Y6369700D02*
X10820400D01*
X10660380Y6451600D02*
X10742280Y6369700D01*
X10660380Y6451600D02*
Y6494120D01*
X10617200Y6537300D02*
X10660380Y6494120D01*
X10529448Y6537300D02*
X10617200D01*
X10241280Y7180097D02*
X10541000D01*
X10099924Y7173006D02*
X10132060D01*
Y7096211D02*
X10154920Y7073351D01*
X10120142Y6438900D02*
X10154920D01*
X10120142Y6246978D02*
X10161900Y6205220D01*
Y5929752D02*
Y6205220D01*
X9232900Y9220200D02*
X9362511D01*
X9438711Y9144000D01*
Y8456376D02*
Y9144000D01*
X9436100Y8453765D02*
X9438711Y8456376D01*
X9436100Y7493000D02*
Y8453765D01*
Y7493000D02*
X9512300Y7416800D01*
X9568820D01*
X10081900Y6903720D01*
Y6744848D02*
Y6903720D01*
X9921499Y7170755D02*
Y7404100D01*
Y7170755D02*
X10161900Y6930354D01*
Y6744848D02*
Y6930354D01*
X8967099Y6972300D02*
Y9347200D01*
X9091559Y9471660D01*
X9232900D01*
X9870440Y6908800D02*
X9925700D01*
X10001900Y6832600D01*
Y6744848D02*
Y6832600D01*
X9763501Y7404100D02*
Y7467600D01*
X9710161Y7520940D02*
X9763501Y7467600D01*
X9550400Y7520940D02*
X9710161D01*
X9512300Y7559040D02*
X9550400Y7520940D01*
X9512300Y7559040D02*
Y8376549D01*
X9514114Y8378363D01*
Y9319986D01*
X9362440Y9471660D02*
X9514114Y9319986D01*
X9232900Y9471660D02*
X9362440D01*
X8970101Y6638381D02*
Y6756400D01*
X8966200Y6634480D02*
X8970101Y6638381D01*
X8966200Y6519398D02*
Y6634480D01*
X8967099Y6863542D02*
Y6972300D01*
Y6863542D02*
X8970101Y6860540D01*
Y6756400D02*
Y6860540D01*
X10541000Y7180097D02*
Y7455799D01*
X8724900Y8566282D02*
Y8893998D01*
X8659998Y8501380D02*
X8724900Y8566282D01*
X8659998Y8176900D02*
Y8501380D01*
X9593042Y6377300D02*
X9714352D01*
X9591040Y6379301D02*
X9593042Y6377300D01*
X9474200Y6379301D02*
X9591040D01*
X10291496Y8073598D02*
X10395199D01*
X10287000Y8069102D02*
X10291496Y8073598D01*
X10185400Y8069102D02*
X10287000D01*
X9944100Y7551161D02*
Y7676002D01*
X9921499Y7528560D02*
X9944100Y7551161D01*
X9921499Y7404100D02*
Y7528560D01*
X9605137Y6137300D02*
X9714352D01*
X9603740Y6138697D02*
X9605137Y6137300D01*
X9499600Y6138697D02*
X9603740D01*
X10678140Y6609700D02*
X10820400D01*
X10670540Y6617299D02*
X10678140Y6609700D01*
X10529448Y6617299D02*
X10670540D01*
D27*
X8724900Y9394002D02*
D03*
D28*
Y8893998D02*
D03*
D29*
X10922000Y7289800D02*
D03*
Y8039100D02*
D03*
D30*
X8659998Y7175500D02*
D03*
Y8176900D02*
D03*
D31*
X9232900Y9220200D02*
D03*
Y9093200D02*
D03*
Y8966200D02*
D03*
Y8839200D02*
D03*
Y8712200D02*
D03*
Y8585200D02*
D03*
Y9347220D02*
D03*
Y9471660D02*
D03*
D32*
X10833100Y5880100D02*
D03*
X9766300Y8166100D02*
D03*
D33*
X9702800Y9055100D02*
D03*
X10325100D02*
D03*
X9959340Y6503619D02*
D03*
X10047757Y6138697D02*
D03*
X10482580Y6891020D02*
D03*
X10396220Y7830820D02*
D03*
X10655300Y6192520D02*
D03*
X10241280Y7180097D02*
D03*
X10154920Y7073351D02*
D03*
Y6438900D02*
D03*
X9870440Y6908800D02*
D03*
%TF.MD5,c57de1776e12282f616cb65f115054ea*%
M02*
