%TF.GenerationSoftware,Altium Limited,Altium Designer,22.2.1 (43)*%
G04 Layer_Color=8388736*
%FSLAX45Y45*%
%MOMM*%
%TF.SameCoordinates,D68F7B63-5BB6-472D-936E-BE577255EEBD*%
%TF.FilePolarity,Negative*%
%TF.FileFunction,Soldermask,Top*%
%TF.Part,Single*%
G01*
G75*
%TA.AperFunction,SMDPad,CuDef*%
%ADD14R,1.35523X0.48583*%
G04:AMPARAMS|DCode=15|XSize=1.35523mm|YSize=0.48583mm|CornerRadius=0.24292mm|HoleSize=0mm|Usage=FLASHONLY|Rotation=180.000|XOffset=0mm|YOffset=0mm|HoleType=Round|Shape=RoundedRectangle|*
%AMROUNDEDRECTD15*
21,1,1.35523,0.00000,0,0,180.0*
21,1,0.86940,0.48583,0,0,180.0*
1,1,0.48583,-0.43470,0.00000*
1,1,0.48583,0.43470,0.00000*
1,1,0.48583,0.43470,0.00000*
1,1,0.48583,-0.43470,0.00000*
%
%ADD15ROUNDEDRECTD15*%
G04:AMPARAMS|DCode=16|XSize=0.48583mm|YSize=1.35523mm|CornerRadius=0.24292mm|HoleSize=0mm|Usage=FLASHONLY|Rotation=180.000|XOffset=0mm|YOffset=0mm|HoleType=Round|Shape=RoundedRectangle|*
%AMROUNDEDRECTD16*
21,1,0.48583,0.86940,0,0,180.0*
21,1,0.00000,1.35523,0,0,180.0*
1,1,0.48583,0.00000,0.43470*
1,1,0.48583,0.00000,0.43470*
1,1,0.48583,0.00000,-0.43470*
1,1,0.48583,0.00000,-0.43470*
%
%ADD16ROUNDEDRECTD16*%
G04:AMPARAMS|DCode=32|XSize=1.2032mm|YSize=1.6232mm|CornerRadius=0.2266mm|HoleSize=0mm|Usage=FLASHONLY|Rotation=270.000|XOffset=0mm|YOffset=0mm|HoleType=Round|Shape=RoundedRectangle|*
%AMROUNDEDRECTD32*
21,1,1.20320,1.17000,0,0,270.0*
21,1,0.75000,1.62320,0,0,270.0*
1,1,0.45320,-0.58500,-0.37500*
1,1,0.45320,-0.58500,0.37500*
1,1,0.45320,0.58500,0.37500*
1,1,0.45320,0.58500,-0.37500*
%
%ADD32ROUNDEDRECTD32*%
%ADD33R,1.67320X1.36320*%
%TA.AperFunction,ComponentPad*%
%ADD34R,1.70320X1.70320*%
%ADD35R,2.30320X2.30320*%
%ADD36C,2.30320*%
%ADD37R,1.70320X1.70320*%
%ADD38C,1.48320*%
%ADD39R,0.80320X1.80320*%
%TA.AperFunction,ViaPad*%
%ADD40C,1.47320*%
%TA.AperFunction,SMDPad,CuDef*%
%ADD44R,1.36320X1.67320*%
%ADD45R,1.47320X2.23520*%
%ADD46R,2.10320X0.60320*%
%ADD47R,1.35320X0.80320*%
D14*
X8878448Y6070001D02*
D03*
D15*
Y6150000D02*
D03*
Y6230000D02*
D03*
Y6310000D02*
D03*
Y6390000D02*
D03*
Y6470000D02*
D03*
Y6550000D02*
D03*
Y6629999D02*
D03*
X8063352D02*
D03*
Y6550000D02*
D03*
Y6470000D02*
D03*
Y6390000D02*
D03*
Y6310000D02*
D03*
Y6230000D02*
D03*
Y6150000D02*
D03*
Y6070001D02*
D03*
D16*
X8750899Y6757548D02*
D03*
X8670900D02*
D03*
X8590900D02*
D03*
X8510900D02*
D03*
X8430900D02*
D03*
X8350900D02*
D03*
X8270900D02*
D03*
X8190901D02*
D03*
Y5942452D02*
D03*
X8270900D02*
D03*
X8350900D02*
D03*
X8430900D02*
D03*
X8510900D02*
D03*
X8590900D02*
D03*
X8670900D02*
D03*
X8750899D02*
D03*
D32*
X9004300Y8339303D02*
D03*
Y8526302D02*
D03*
X9080500Y6075202D02*
D03*
Y5888203D02*
D03*
D33*
X7874000Y6401699D02*
D03*
Y6577701D02*
D03*
D34*
X7823200Y6146800D02*
D03*
X7874000Y8534400D02*
D03*
X7823200Y5816600D02*
D03*
X9385300Y7797800D02*
D03*
Y7467600D02*
D03*
X9372600Y8534400D02*
D03*
D35*
X7861300Y7674798D02*
D03*
D36*
Y8174797D02*
D03*
D37*
X9372600Y8204200D02*
D03*
D38*
X9423400Y6705600D02*
D03*
Y5956300D02*
D03*
D39*
X8826500Y7366000D02*
D03*
X8699500D02*
D03*
X8572500D02*
D03*
X8445500D02*
D03*
X8318500D02*
D03*
X8191500D02*
D03*
X8953520D02*
D03*
X9077960D02*
D03*
D40*
X8351037Y6164580D02*
D03*
X8219440Y6583680D02*
D03*
X9431020Y6987540D02*
D03*
X8510900Y6083300D02*
D03*
X9339580Y6438900D02*
D03*
X8864600Y6797040D02*
D03*
D44*
X8635101Y8369300D02*
D03*
X8459099D02*
D03*
X9117701Y7759700D02*
D03*
X8941699D02*
D03*
D45*
X8788400Y8001000D02*
D03*
X9118600D02*
D03*
X8458200D02*
D03*
X8128000D02*
D03*
D46*
X9118600Y6794500D02*
D03*
Y6554500D02*
D03*
Y6674500D02*
D03*
D47*
X9209298Y6406901D02*
D03*
Y6216899D02*
D03*
X9434302Y6311900D02*
D03*
%TF.MD5,0d62441e62e603bb22cb45f6c1cc2be8*%
M02*
