%TF.GenerationSoftware,Altium Limited,Altium Designer,22.2.1 (43)*%
G04 Layer_Color=8421504*
%FSLAX45Y45*%
%MOMM*%
%TF.SameCoordinates,D68F7B63-5BB6-472D-936E-BE577255EEBD*%
%TF.FilePolarity,Positive*%
%TF.FileFunction,Paste,Top*%
%TF.Part,Single*%
G01*
G75*
%TA.AperFunction,SMDPad,CuDef*%
%ADD10R,1.47000X1.16000*%
%ADD11R,1.16000X1.47000*%
%ADD12R,1.27000X2.03200*%
G04:AMPARAMS|DCode=13|XSize=1mm|YSize=1.42mm|CornerRadius=0.125mm|HoleSize=0mm|Usage=FLASHONLY|Rotation=90.000|XOffset=0mm|YOffset=0mm|HoleType=Round|Shape=RoundedRectangle|*
%AMROUNDEDRECTD13*
21,1,1.00000,1.17000,0,0,90.0*
21,1,0.75000,1.42000,0,0,90.0*
1,1,0.25000,0.58500,0.37500*
1,1,0.25000,0.58500,-0.37500*
1,1,0.25000,-0.58500,-0.37500*
1,1,0.25000,-0.58500,0.37500*
%
%ADD13ROUNDEDRECTD13*%
%ADD14R,1.35523X0.48583*%
G04:AMPARAMS|DCode=15|XSize=1.35523mm|YSize=0.48583mm|CornerRadius=0.24292mm|HoleSize=0mm|Usage=FLASHONLY|Rotation=180.000|XOffset=0mm|YOffset=0mm|HoleType=Round|Shape=RoundedRectangle|*
%AMROUNDEDRECTD15*
21,1,1.35523,0.00000,0,0,180.0*
21,1,0.86940,0.48583,0,0,180.0*
1,1,0.48583,-0.43470,0.00000*
1,1,0.48583,0.43470,0.00000*
1,1,0.48583,0.43470,0.00000*
1,1,0.48583,-0.43470,0.00000*
%
%ADD15ROUNDEDRECTD15*%
G04:AMPARAMS|DCode=16|XSize=0.48583mm|YSize=1.35523mm|CornerRadius=0.24292mm|HoleSize=0mm|Usage=FLASHONLY|Rotation=180.000|XOffset=0mm|YOffset=0mm|HoleType=Round|Shape=RoundedRectangle|*
%AMROUNDEDRECTD16*
21,1,0.48583,0.86940,0,0,180.0*
21,1,0.00000,1.35523,0,0,180.0*
1,1,0.48583,0.00000,0.43470*
1,1,0.48583,0.00000,0.43470*
1,1,0.48583,0.00000,-0.43470*
1,1,0.48583,0.00000,-0.43470*
%
%ADD16ROUNDEDRECTD16*%
%ADD17R,1.90000X0.40000*%
%ADD18R,1.15000X0.60000*%
D10*
X7874000Y6401699D02*
D03*
Y6577701D02*
D03*
D11*
X8635101Y8369300D02*
D03*
X8459099D02*
D03*
X9117701Y7759700D02*
D03*
X8941699D02*
D03*
D12*
X8788400Y8001000D02*
D03*
X9118600D02*
D03*
X8458200D02*
D03*
X8128000D02*
D03*
D13*
X9004300Y8339303D02*
D03*
Y8526302D02*
D03*
X9080500Y6075202D02*
D03*
Y5888203D02*
D03*
D14*
X8878448Y6070001D02*
D03*
D15*
Y6150000D02*
D03*
Y6230000D02*
D03*
Y6310000D02*
D03*
Y6390000D02*
D03*
Y6470000D02*
D03*
Y6550000D02*
D03*
Y6629999D02*
D03*
X8063352D02*
D03*
Y6550000D02*
D03*
Y6470000D02*
D03*
Y6390000D02*
D03*
Y6310000D02*
D03*
Y6230000D02*
D03*
Y6150000D02*
D03*
Y6070001D02*
D03*
D16*
X8750899Y6757548D02*
D03*
X8670900D02*
D03*
X8590900D02*
D03*
X8510900D02*
D03*
X8430900D02*
D03*
X8350900D02*
D03*
X8270900D02*
D03*
X8190901D02*
D03*
Y5942452D02*
D03*
X8270900D02*
D03*
X8350900D02*
D03*
X8430900D02*
D03*
X8510900D02*
D03*
X8590900D02*
D03*
X8670900D02*
D03*
X8750899D02*
D03*
D17*
X9118600Y6794500D02*
D03*
Y6554500D02*
D03*
Y6674500D02*
D03*
D18*
X9209298Y6406901D02*
D03*
Y6216899D02*
D03*
X9434302Y6311900D02*
D03*
%TF.MD5,7c0562f6a7a8005bd428c04c4688280a*%
M02*
