%TF.GenerationSoftware,Altium Limited,Altium Designer,22.2.1 (43)*%
G04 Layer_Color=32768*
%FSLAX45Y45*%
%MOMM*%
%TF.SameCoordinates,D68F7B63-5BB6-472D-936E-BE577255EEBD*%
%TF.FilePolarity,Positive*%
%TF.FileFunction,Other,Mechanical_15*%
%TF.Part,Single*%
G01*
G75*
%TA.AperFunction,NonConductor*%
%ADD30C,0.10000*%
%ADD42C,0.20000*%
%ADD49C,0.05000*%
G36*
X9093213Y6921500D02*
Y7200925D01*
X8940800D01*
Y6921500D01*
X9093213D01*
D02*
G37*
D30*
X8420903Y6350000D02*
X8520902D01*
X8470900Y6300003D02*
Y6400002D01*
X9126799Y6136899D02*
Y6486901D01*
X9516801Y6136899D02*
Y6486901D01*
X9126799D02*
X9516801D01*
X9126799Y6136899D02*
X9516801D01*
X9271803Y6311900D02*
X9371802D01*
X9321800Y6261903D02*
Y6361902D01*
D42*
X7985592Y5864692D02*
X8956208D01*
X7985592D02*
Y6835313D01*
X8956208D01*
Y5864692D02*
Y6835313D01*
D49*
X8260598Y6557101D02*
X8452602D01*
Y6219099D02*
Y6557101D01*
X8260598Y6219099D02*
X8452602D01*
X8260598D02*
Y6557101D01*
X7775702Y6318402D02*
X7972298D01*
X7775702Y6660998D02*
X7972298D01*
Y6318402D02*
Y6660998D01*
X7775702Y6318402D02*
Y6660998D01*
X8718398Y8271002D02*
Y8467598D01*
X8375802Y8271002D02*
Y8467598D01*
X8718398D01*
X8375802Y8271002D02*
X8718398D01*
X8693902Y6219099D02*
Y6557101D01*
X8501898D02*
X8693902D01*
X8501898Y6219099D02*
Y6557101D01*
Y6219099D02*
X8693902D01*
X9200998Y7661402D02*
Y7857998D01*
X8858402Y7661402D02*
Y7857998D01*
X9200998D01*
X8858402Y7661402D02*
X9200998D01*
X8537702Y7168998D02*
X8734298D01*
X8537702Y6826402D02*
X8734298D01*
Y7168998D01*
X8537702Y6826402D02*
Y7168998D01*
X8908298Y8263799D02*
Y8601801D01*
X9100302D01*
Y8263799D02*
Y8601801D01*
X8908298Y8263799D02*
X9100302D01*
X8998600Y6489502D02*
X9238600D01*
Y6859499D01*
X8998600D02*
X9238600D01*
X8998600Y6489502D02*
Y6859499D01*
X8984498Y5812699D02*
X9176502D01*
Y6150701D01*
X8984498D02*
X9176502D01*
X8984498Y5812699D02*
Y6150701D01*
%TF.MD5,88a3f604c307f6e64f6e7a6d40965f65*%
M02*
