%TF.GenerationSoftware,Altium Limited,Altium Designer,22.2.1 (43)*%
G04 Layer_Color=16711935*
%FSLAX45Y45*%
%MOMM*%
%TF.SameCoordinates,D68F7B63-5BB6-472D-936E-BE577255EEBD*%
%TF.FilePolarity,Negative*%
%TF.FileFunction,Soldermask,Bot*%
%TF.Part,Single*%
G01*
G75*
%TA.AperFunction,SMDPad,CuDef*%
%ADD31R,1.40320X0.89320*%
G04:AMPARAMS|DCode=32|XSize=1.2032mm|YSize=1.6232mm|CornerRadius=0.2266mm|HoleSize=0mm|Usage=FLASHONLY|Rotation=270.000|XOffset=0mm|YOffset=0mm|HoleType=Round|Shape=RoundedRectangle|*
%AMROUNDEDRECTD32*
21,1,1.20320,1.17000,0,0,270.0*
21,1,0.75000,1.62320,0,0,270.0*
1,1,0.45320,-0.58500,-0.37500*
1,1,0.45320,-0.58500,0.37500*
1,1,0.45320,0.58500,0.37500*
1,1,0.45320,0.58500,-0.37500*
%
%ADD32ROUNDEDRECTD32*%
%ADD33R,1.67320X1.36320*%
%TA.AperFunction,ComponentPad*%
%ADD34R,1.70320X1.70320*%
%ADD35R,2.30320X2.30320*%
%ADD36C,2.30320*%
%ADD37R,1.70320X1.70320*%
%ADD38C,1.48320*%
%ADD39R,0.80320X1.80320*%
%TA.AperFunction,ViaPad*%
%ADD40C,1.47320*%
D31*
X9147012Y7156201D02*
D03*
Y7061200D02*
D03*
Y6966199D02*
D03*
X8886993D02*
D03*
Y7156201D02*
D03*
D32*
X8356600Y6294603D02*
D03*
Y6481602D02*
D03*
X8597900Y6294603D02*
D03*
Y6481602D02*
D03*
D33*
X8636000Y7085701D02*
D03*
Y6909699D02*
D03*
D34*
X7823200Y6146800D02*
D03*
X7874000Y8534400D02*
D03*
X7823200Y5816600D02*
D03*
X9385300Y7797800D02*
D03*
Y7467600D02*
D03*
X9372600Y8534400D02*
D03*
D35*
X7861300Y7674798D02*
D03*
D36*
Y8174797D02*
D03*
D37*
X9372600Y8204200D02*
D03*
D38*
X9423400Y6705600D02*
D03*
Y5956300D02*
D03*
D39*
X8826500Y7366000D02*
D03*
X8699500D02*
D03*
X8572500D02*
D03*
X8445500D02*
D03*
X8318500D02*
D03*
X8191500D02*
D03*
X8953520D02*
D03*
X9077960D02*
D03*
D40*
X8351037Y6164580D02*
D03*
X8219440Y6583680D02*
D03*
X9431020Y6987540D02*
D03*
X8510900Y6083300D02*
D03*
X9339580Y6438900D02*
D03*
X8864600Y6797040D02*
D03*
%TF.MD5,d9f25fb5665944962b1b193dfab9478a*%
M02*
