%TF.GenerationSoftware,Altium Limited,Altium Designer,20.0.13 (296)*%
G04 Layer_Color=32768*
%FSLAX45Y45*%
%MOMM*%
%TF.FileFunction,Other,Mechanical_15*%
%TF.Part,Single*%
G01*
G75*
%TA.AperFunction,NonConductor*%
%ADD34C,0.10000*%
%ADD35C,0.05000*%
D34*
X14109700Y5893600D02*
Y5993600D01*
X14059700Y5943600D02*
X14159700D01*
X13693401Y6824400D02*
X14043401D01*
X13693401Y6434400D02*
X14043401D01*
Y6824400D01*
X13693401Y6434400D02*
Y6824400D01*
X13868401Y6579400D02*
Y6679400D01*
X13818401Y6629400D02*
X13918401D01*
D35*
X12674922Y5013914D02*
G03*
X13684500Y6175300I-163222J1161387D01*
G01*
X11334500D02*
G03*
X12344078Y5013914I1172800J0D01*
G01*
X12509500Y7350300D02*
G03*
X11334500Y6175300I0J-1175000D01*
G01*
X13684500D02*
G03*
X12509500Y7350300I-1175000J0D01*
G01*
X11569700Y4948600D02*
G03*
X12744700Y6123600I0J1175000D01*
G01*
X10394700D02*
G03*
X11569700Y4948600I1175000J0D01*
G01*
X11404278Y7284986D02*
G03*
X10394700Y6123600I163222J-1161387D01*
G01*
X12744700D02*
G03*
X11735122Y7284986I-1172800J0D01*
G01*
X11238600Y5641200D02*
Y6641200D01*
X10238600D02*
X11238600D01*
X10238600Y5641200D02*
X11238600D01*
X10238600D02*
Y6641200D01*
X12334500Y4765300D02*
Y5013300D01*
Y4765300D02*
X12684500D01*
Y5013300D01*
X12756000Y6528600D02*
X13406000D01*
Y5358600D02*
Y6528600D01*
X12756000Y5358600D02*
X13406000D01*
X12756000D02*
Y6528600D01*
X14061700Y6871900D02*
X14284700D01*
X14061700Y6428900D02*
X14284700D01*
X14061700D02*
Y6871900D01*
X14284700Y6428900D02*
Y6871900D01*
X14544299Y5709400D02*
X14767300D01*
X14544299Y6152400D02*
X14767300D01*
Y5709400D02*
Y6152400D01*
X14544299Y5709400D02*
Y6152400D01*
X11744700Y7285600D02*
Y7533600D01*
X11394700D02*
X11744700D01*
X11394700Y7285600D02*
Y7533600D01*
X13829700Y6383600D02*
X14389700D01*
X13829700Y5503600D02*
X14389700D01*
Y6383600D01*
X13829700Y5503600D02*
Y6383600D01*
%TF.MD5,2762c76260ebbc66fd207d376c0b8f2c*%
M02*
