%TF.GenerationSoftware,Altium Limited,Altium Designer,20.0.13 (296)*%
G04 Layer_Color=65535*
%FSLAX45Y45*%
%MOMM*%
%TF.FileFunction,Legend,Top*%
%TF.Part,Single*%
G01*
G75*
%TA.AperFunction,NonConductor*%
%ADD31C,0.20000*%
%ADD32C,0.25000*%
%ADD33C,0.25400*%
%ADD34C,0.07620*%
%ADD35C,0.12700*%
%ADD36C,0.07500*%
D31*
X14706900Y12165900D02*
G03*
X14706900Y12165900I-10000J0D01*
G01*
X14246700Y11963400D02*
G03*
X14246700Y11963400I-10000J0D01*
G01*
X14231606Y9194953D02*
G03*
X14231606Y9194953I-10000J0D01*
G01*
X14234000Y10655300D02*
G03*
X14234000Y10655300I-10000J0D01*
G01*
X14176898Y12820898D02*
X14196898Y12766899D01*
X14176898Y12820898D02*
X14956902D01*
X14196898Y12265899D02*
X14231898D01*
X14196898D02*
Y12400900D01*
X14936902Y12766899D02*
X14956902Y12820898D01*
X14936902Y12690902D02*
Y12766899D01*
X14901901Y12265899D02*
X14936902D01*
Y12400900D01*
X14196898Y12690902D02*
Y12766899D01*
X15799100Y10985200D02*
Y11265200D01*
X15519099D02*
X15799100D01*
X15519099Y10985200D02*
Y11265200D01*
Y10985200D02*
X15799100D01*
Y10566100D02*
Y10846100D01*
X15519099D02*
X15799100D01*
X15519099Y10566100D02*
Y10846100D01*
Y10566100D02*
X15799100D01*
X14934900Y10820100D02*
Y11100100D01*
Y10820100D02*
X15214900D01*
Y11100100D01*
X14934900D02*
X15214900D01*
X14931598Y8165800D02*
Y8445800D01*
Y8165800D02*
X15211598D01*
Y8445800D01*
X14931598D02*
X15211598D01*
X13931599Y10820100D02*
Y11100100D01*
Y10820100D02*
X14211600D01*
Y11100100D01*
X13931599D02*
X14211600D01*
X13931599Y8165800D02*
Y8445800D01*
Y8165800D02*
X14211600D01*
Y8445800D01*
X13931599D02*
X14211600D01*
D32*
X15671600Y10920200D02*
G03*
X15671600Y10920200I-12500J0D01*
G01*
Y10501100D02*
G03*
X15671600Y10501100I-12500J0D01*
G01*
X15087399Y11165100D02*
G03*
X15087399Y11165100I-12500J0D01*
G01*
X15084100Y8510800D02*
G03*
X15084100Y8510800I-12500J0D01*
G01*
X14084100Y11165100D02*
G03*
X14084100Y11165100I-12500J0D01*
G01*
Y8510800D02*
G03*
X14084100Y8510800I-12500J0D01*
G01*
D33*
X13335001Y7975600D02*
X15836900D01*
X13335001Y9321800D02*
X15836900D01*
Y7975600D02*
Y9321800D01*
X13335001Y7975600D02*
Y9321800D01*
Y7975600D02*
X15836900D01*
X13335001Y12700000D02*
X15836900D01*
Y7975600D02*
Y12700000D01*
X13335001Y7975600D02*
Y12700000D01*
Y10058400D02*
X15836900D01*
X13335001Y11858400D02*
X15836900D01*
Y10058400D02*
Y11858400D01*
X13335001Y10058400D02*
Y11858400D01*
X14071600Y10960100D02*
X15071597D01*
X14071600Y8305800D02*
X15071597D01*
D34*
X15260320Y12059920D02*
X15290800D01*
X15082520D02*
X15113000D01*
X15100301Y12047220D02*
Y12072620D01*
X15260320Y12225020D02*
X15290800D01*
X15082520D02*
X15113000D01*
X15100301Y12212320D02*
Y12237720D01*
X15031720Y9888220D02*
X15062199D01*
X14853920D02*
X14884399D01*
X14871700Y9875520D02*
Y9900920D01*
X15031720Y9672320D02*
X15062199D01*
X14853920D02*
X14884399D01*
X14871700Y9659620D02*
Y9685020D01*
X14447520Y9875520D02*
X14478000D01*
X14269720D02*
X14300200D01*
X14287500Y9862820D02*
Y9888220D01*
X14447520Y9659620D02*
X14478000D01*
X14269720D02*
X14300200D01*
X14287500Y9646920D02*
Y9672320D01*
D35*
X14379601Y11454399D02*
X14779601D01*
X14379601Y11964401D02*
X14779601D01*
X15121899Y11841902D02*
X15281900D01*
X15121899Y11703898D02*
X15281900D01*
X15121899Y11638702D02*
X15281900D01*
X15121899Y11500698D02*
X15281900D01*
X14002599Y11616700D02*
Y11776700D01*
X14140602Y11616700D02*
Y11776700D01*
X13977197Y8848100D02*
Y9008100D01*
X14115202Y8848100D02*
Y9008100D01*
X14364505Y8685953D02*
X14764503D01*
X14364505Y9195954D02*
X14764503D01*
X15172701Y9073302D02*
X15332700D01*
X15172701Y8935298D02*
X15332700D01*
X15172701Y8870102D02*
X15332700D01*
X15172701Y8732098D02*
X15332700D01*
X13939098Y10308600D02*
Y10468600D01*
X14077103Y10308600D02*
Y10468600D01*
X15109200Y10419502D02*
X15269200D01*
X15109200Y10281498D02*
X15269200D01*
X15109200Y10610002D02*
X15269200D01*
X15109200Y10471998D02*
X15269200D01*
X14366901Y10146299D02*
X14766901D01*
X14366901Y10656301D02*
X14766901D01*
X14526364Y12126796D02*
X14517900D01*
X14522131D01*
Y12105636D01*
X14517900Y12101404D01*
X14513667D01*
X14509436Y12105636D01*
X14531747Y12077292D02*
Y12035639D01*
X14540079Y12027308D01*
X14556738D01*
X14565070Y12035639D01*
Y12077292D01*
X14581731Y12068961D02*
X14590060Y12077292D01*
X14606723D01*
X14615053Y12068961D01*
Y12060631D01*
X14598392Y12043969D01*
Y12035639D02*
Y12027308D01*
X13982292Y11667747D02*
X13932307D01*
Y11692739D01*
X13940639Y11701070D01*
X13957300D01*
X13965631Y11692739D01*
Y11667747D01*
Y11684408D02*
X13982292Y11701070D01*
X13973961Y11717731D02*
X13982292Y11726061D01*
Y11742723D01*
X13973961Y11751053D01*
X13940639D01*
X13932307Y11742723D01*
Y11726061D01*
X13940639Y11717731D01*
X13948969D01*
X13957300Y11726061D01*
Y11751053D01*
X15243553Y11912191D02*
Y11862208D01*
X15218561D01*
X15210229Y11870538D01*
Y11887199D01*
X15218561Y11895530D01*
X15243553D01*
X15226892D02*
X15210229Y11912191D01*
X15193568Y11870538D02*
X15185239Y11862208D01*
X15168578D01*
X15160246Y11870538D01*
Y11878869D01*
X15168578Y11887199D01*
X15160246Y11895530D01*
Y11903861D01*
X15168578Y11912191D01*
X15185239D01*
X15193568Y11903861D01*
Y11895530D01*
X15185239Y11887199D01*
X15193568Y11878869D01*
Y11870538D01*
X15185239Y11887199D02*
X15168578D01*
X15172948Y11417708D02*
Y11467692D01*
X15197939D01*
X15206270Y11459361D01*
Y11442700D01*
X15197939Y11434369D01*
X15172948D01*
X15189607D02*
X15206270Y11417708D01*
X15222931Y11467692D02*
X15256253D01*
Y11459361D01*
X15222931Y11426039D01*
Y11417708D01*
X15447774Y10893539D02*
X15497757D01*
Y10868547D01*
X15489427Y10860216D01*
X15472765D01*
X15464435Y10868547D01*
Y10893539D01*
X15497757Y10843555D02*
Y10826894D01*
Y10835224D01*
X15447774D01*
Y10843555D01*
Y10826894D01*
Y10801902D02*
X15497757D01*
X15447774Y10768579D01*
X15497757D01*
X15439442Y10751918D02*
Y10718596D01*
X15489427Y10668612D02*
X15497757Y10676943D01*
Y10693604D01*
X15489427Y10701935D01*
X15456104D01*
X15447774Y10693604D01*
Y10676943D01*
X15456104Y10668612D01*
X15472765D01*
Y10685274D01*
X15447774Y10651951D02*
X15497757D01*
X15447774Y10618628D01*
X15497757D01*
Y10601967D02*
X15447774D01*
Y10576976D01*
X15456104Y10568645D01*
X15489427D01*
X15497757Y10576976D01*
Y10601967D01*
X15489427Y10551984D02*
X15497757Y10543653D01*
Y10526992D01*
X15489427Y10518661D01*
X15481096D01*
X15472765Y10526992D01*
Y10535323D01*
Y10526992D01*
X15464435Y10518661D01*
X15456104D01*
X15447774Y10526992D01*
Y10543653D01*
X15456104Y10551984D01*
X15447774Y11312639D02*
X15497757D01*
Y11287647D01*
X15489427Y11279316D01*
X15472765D01*
X15464435Y11287647D01*
Y11312639D01*
X15497757Y11262655D02*
Y11245994D01*
Y11254324D01*
X15447774D01*
Y11262655D01*
Y11245994D01*
Y11221002D02*
X15497757D01*
X15447774Y11187679D01*
X15497757D01*
X15439442Y11171018D02*
Y11137696D01*
X15497757Y11121035D02*
X15447774D01*
Y11096043D01*
X15456104Y11087712D01*
X15464435D01*
X15472765Y11096043D01*
Y11121035D01*
Y11096043D01*
X15481096Y11087712D01*
X15489427D01*
X15497757Y11096043D01*
Y11121035D01*
X15447774Y11071051D02*
X15481096D01*
X15497757Y11054390D01*
X15481096Y11037728D01*
X15447774D01*
X15472765D01*
Y11071051D01*
X15497757Y11021067D02*
Y10987745D01*
Y11004406D01*
X15447774D01*
X15489427Y10971084D02*
X15497757Y10962753D01*
Y10946092D01*
X15489427Y10937761D01*
X15481096D01*
X15472765Y10946092D01*
Y10954423D01*
Y10946092D01*
X15464435Y10937761D01*
X15456104D01*
X15447774Y10946092D01*
Y10962753D01*
X15456104Y10971084D01*
X15376962Y12005257D02*
Y11955274D01*
X15401955D01*
X15410286Y11963604D01*
Y11996927D01*
X15401955Y12005257D01*
X15376962D01*
X15460271D02*
X15443608Y11996927D01*
X15426947Y11980265D01*
Y11963604D01*
X15435278Y11955274D01*
X15451939D01*
X15460271Y11963604D01*
Y11971935D01*
X15451939Y11980265D01*
X15426947D01*
X15476932Y11946943D02*
X15510252D01*
X15526913Y11955274D02*
Y12005257D01*
X15551906D01*
X15560237Y11996927D01*
Y11980265D01*
X15551906Y11971935D01*
X15526913D01*
X15543575D02*
X15560237Y11955274D01*
X15376962Y12170357D02*
Y12120374D01*
X15401955D01*
X15410286Y12128704D01*
Y12162027D01*
X15401955Y12170357D01*
X15376962D01*
X15460271D02*
X15426947D01*
Y12145365D01*
X15443608Y12153696D01*
X15451939D01*
X15460271Y12145365D01*
Y12128704D01*
X15451939Y12120374D01*
X15435278D01*
X15426947Y12128704D01*
X15476932Y12112043D02*
X15510252D01*
X15560237Y12162027D02*
X15551906Y12170357D01*
X15535245D01*
X15526913Y12162027D01*
Y12128704D01*
X15535245Y12120374D01*
X15551906D01*
X15560237Y12128704D01*
Y12145365D01*
X15543575D01*
X13934441Y8602980D02*
Y8628372D01*
X13947136D01*
X13951369Y8624140D01*
Y8615676D01*
X13947136Y8611444D01*
X13934441D01*
X13959831Y8628372D02*
X13968295D01*
X13964064D01*
Y8602980D01*
X13959831D01*
X13968295D01*
X13980992D02*
Y8628372D01*
X13997919Y8602980D01*
Y8628372D01*
X14006383Y8598748D02*
X14023311D01*
X14048703Y8624140D02*
X14044472Y8628372D01*
X14036008D01*
X14031775Y8624140D01*
Y8607212D01*
X14036008Y8602980D01*
X14044472D01*
X14048703Y8607212D01*
Y8615676D01*
X14040239D01*
X14057167Y8602980D02*
Y8628372D01*
X14074095Y8602980D01*
Y8628372D01*
X14082559D02*
Y8602980D01*
X14095255D01*
X14099487Y8607212D01*
Y8624140D01*
X14095255Y8628372D01*
X14082559D01*
X13934441Y11257280D02*
Y11282672D01*
X13947136D01*
X13951369Y11278440D01*
Y11269976D01*
X13947136Y11265744D01*
X13934441D01*
X13959831Y11282672D02*
X13968295D01*
X13964064D01*
Y11257280D01*
X13959831D01*
X13968295D01*
X13980992D02*
Y11282672D01*
X13997919Y11257280D01*
Y11282672D01*
X14006383Y11253048D02*
X14023311D01*
X14048703Y11278440D02*
X14044472Y11282672D01*
X14036008D01*
X14031775Y11278440D01*
Y11261512D01*
X14036008Y11257280D01*
X14044472D01*
X14048703Y11261512D01*
Y11269976D01*
X14040239D01*
X14057167Y11257280D02*
Y11282672D01*
X14074095Y11257280D01*
Y11282672D01*
X14082559D02*
Y11257280D01*
X14095255D01*
X14099487Y11261512D01*
Y11278440D01*
X14095255Y11282672D01*
X14082559D01*
X14124879Y11257280D02*
X14107951D01*
X14124879Y11274208D01*
Y11278440D01*
X14120647Y11282672D01*
X14112183D01*
X14107951Y11278440D01*
X14935201Y8602980D02*
Y8628372D01*
X14947896D01*
X14952129Y8624140D01*
Y8615676D01*
X14947896Y8611444D01*
X14935201D01*
X14960593Y8628372D02*
X14969057D01*
X14964824D01*
Y8602980D01*
X14960593D01*
X14969057D01*
X14981752D02*
Y8628372D01*
X14998679Y8602980D01*
Y8628372D01*
X15007143Y8598748D02*
X15024071D01*
X15032535Y8628372D02*
Y8602980D01*
X15045232D01*
X15049463Y8607212D01*
Y8611444D01*
X15045232Y8615676D01*
X15032535D01*
X15045232D01*
X15049463Y8619908D01*
Y8624140D01*
X15045232Y8628372D01*
X15032535D01*
X15057927Y8602980D02*
Y8619908D01*
X15066391Y8628372D01*
X15074855Y8619908D01*
Y8602980D01*
Y8615676D01*
X15057927D01*
X15083319Y8628372D02*
X15100247D01*
X15091783D01*
Y8602980D01*
X14937740Y11257280D02*
Y11282672D01*
X14950436D01*
X14954668Y11278440D01*
Y11269976D01*
X14950436Y11265744D01*
X14937740D01*
X14963132Y11282672D02*
X14971596D01*
X14967365D01*
Y11257280D01*
X14963132D01*
X14971596D01*
X14984293D02*
Y11282672D01*
X15001219Y11257280D01*
Y11282672D01*
X15009683Y11253048D02*
X15026611D01*
X15035075Y11282672D02*
Y11257280D01*
X15047771D01*
X15052003Y11261512D01*
Y11265744D01*
X15047771Y11269976D01*
X15035075D01*
X15047771D01*
X15052003Y11274208D01*
Y11278440D01*
X15047771Y11282672D01*
X15035075D01*
X15060468Y11257280D02*
Y11274208D01*
X15068932Y11282672D01*
X15077396Y11274208D01*
Y11257280D01*
Y11269976D01*
X15060468D01*
X15085860Y11282672D02*
X15102786D01*
X15094324D01*
Y11257280D01*
X15128178D02*
X15111250D01*
X15128178Y11274208D01*
Y11278440D01*
X15123947Y11282672D01*
X15115483D01*
X15111250Y11278440D01*
D36*
X14201140Y10740844D02*
Y10699191D01*
X14209471Y10690860D01*
X14226132D01*
X14234464Y10699191D01*
Y10740844D01*
X14284447Y10690860D02*
X14251125D01*
X14284447Y10724183D01*
Y10732513D01*
X14276115Y10740844D01*
X14259454D01*
X14251125Y10732513D01*
X13921741Y10243820D02*
X13871756D01*
Y10268812D01*
X13880087Y10277143D01*
X13896748D01*
X13905080Y10268812D01*
Y10243820D01*
Y10260481D02*
X13921741Y10277143D01*
X13871756Y10327126D02*
X13880087Y10310465D01*
X13896748Y10293804D01*
X13913409D01*
X13921741Y10302134D01*
Y10318795D01*
X13913409Y10327126D01*
X13905080D01*
X13896748Y10318795D01*
Y10293804D01*
X15044420Y10627360D02*
Y10677344D01*
X15069412D01*
X15077744Y10669013D01*
Y10652352D01*
X15069412Y10644021D01*
X15044420D01*
X15061081D02*
X15077744Y10627360D01*
X15127727Y10677344D02*
X15094405D01*
Y10652352D01*
X15111066Y10660683D01*
X15119395D01*
X15127727Y10652352D01*
Y10635691D01*
X15119395Y10627360D01*
X15102734D01*
X15094405Y10635691D01*
X15044420Y10436860D02*
Y10486844D01*
X15069412D01*
X15077744Y10478513D01*
Y10461852D01*
X15069412Y10453521D01*
X15044420D01*
X15061081D02*
X15077744Y10436860D01*
X15119395D02*
Y10486844D01*
X15094405Y10461852D01*
X15127727D01*
X14424463Y9503357D02*
Y9453374D01*
X14449455D01*
X14457787Y9461704D01*
Y9495027D01*
X14449455Y9503357D01*
X14424463D01*
X14499438Y9453374D02*
Y9503357D01*
X14474448Y9478365D01*
X14507770D01*
X14524431Y9445043D02*
X14557753D01*
X14574414Y9453374D02*
Y9503357D01*
X14599406D01*
X14607738Y9495027D01*
Y9478365D01*
X14599406Y9470035D01*
X14574414D01*
X14591075D02*
X14607738Y9453374D01*
X14424463Y9731957D02*
Y9681974D01*
X14449455D01*
X14457787Y9690304D01*
Y9723627D01*
X14449455Y9731957D01*
X14424463D01*
X14474448Y9723627D02*
X14482777Y9731957D01*
X14499438D01*
X14507770Y9723627D01*
Y9715296D01*
X14499438Y9706965D01*
X14491109D01*
X14499438D01*
X14507770Y9698635D01*
Y9690304D01*
X14499438Y9681974D01*
X14482777D01*
X14474448Y9690304D01*
X14524431Y9673643D02*
X14557753D01*
X14607738Y9723627D02*
X14599406Y9731957D01*
X14582745D01*
X14574414Y9723627D01*
Y9690304D01*
X14582745Y9681974D01*
X14599406D01*
X14607738Y9690304D01*
Y9706965D01*
X14591075D01*
X14556583Y9283445D02*
Y9241792D01*
X14564912Y9233462D01*
X14581573D01*
X14589905Y9241792D01*
Y9283445D01*
X14606566Y9233462D02*
X14623227D01*
X14614897D01*
Y9283445D01*
X14606566Y9275115D01*
X14004547Y9093608D02*
Y9143592D01*
X14029539D01*
X14037869Y9135261D01*
Y9118600D01*
X14029539Y9110269D01*
X14004547D01*
X14021208D02*
X14037869Y9093608D01*
X14054530Y9135261D02*
X14062862Y9143592D01*
X14079523D01*
X14087852Y9135261D01*
Y9126931D01*
X14079523Y9118600D01*
X14071191D01*
X14079523D01*
X14087852Y9110269D01*
Y9101939D01*
X14079523Y9093608D01*
X14062862D01*
X14054530Y9101939D01*
X15211047Y9093608D02*
Y9143592D01*
X15236040D01*
X15244370Y9135261D01*
Y9118600D01*
X15236040Y9110269D01*
X15211047D01*
X15227708D02*
X15244370Y9093608D01*
X15294353D02*
X15261031D01*
X15294353Y9126931D01*
Y9135261D01*
X15286023Y9143592D01*
X15269360D01*
X15261031Y9135261D01*
X15219379Y8661808D02*
Y8711792D01*
X15244370D01*
X15252699Y8703461D01*
Y8686800D01*
X15244370Y8678469D01*
X15219379D01*
X15236040D02*
X15252699Y8661808D01*
X15269360D02*
X15286023D01*
X15277692D01*
Y8711792D01*
X15269360Y8703461D01*
X15008662Y9516057D02*
Y9466074D01*
X15033655D01*
X15041986Y9474404D01*
Y9507727D01*
X15033655Y9516057D01*
X15008662D01*
X15091969Y9466074D02*
X15058647D01*
X15091969Y9499396D01*
Y9507727D01*
X15083640Y9516057D01*
X15066978D01*
X15058647Y9507727D01*
X15108630Y9457743D02*
X15141953D01*
X15158614Y9466074D02*
Y9516057D01*
X15183606D01*
X15191937Y9507727D01*
Y9491065D01*
X15183606Y9482735D01*
X15158614D01*
X15175275D02*
X15191937Y9466074D01*
X15012828Y9744657D02*
Y9694674D01*
X15037820D01*
X15046152Y9703004D01*
Y9736327D01*
X15037820Y9744657D01*
X15012828D01*
X15062811Y9694674D02*
X15079472D01*
X15071143D01*
Y9744657D01*
X15062811Y9736327D01*
X15104465Y9686343D02*
X15137788D01*
X15187772Y9736327D02*
X15179440Y9744657D01*
X15162781D01*
X15154449Y9736327D01*
Y9703004D01*
X15162781Y9694674D01*
X15179440D01*
X15187772Y9703004D01*
Y9719665D01*
X15171111D01*
%TF.MD5,45db04f9d29406af71063107911abdc9*%
M02*
