%TF.GenerationSoftware,Altium Limited,Altium Designer,22.2.1 (43)*%
G04 Layer_Color=65535*
%FSLAX45Y45*%
%MOMM*%
%TF.SameCoordinates,1A700276-89F6-4FF8-B3D7-4A67EA63658B*%
%TF.FilePolarity,Positive*%
%TF.FileFunction,Legend,Top*%
%TF.Part,Single*%
G01*
G75*
%TA.AperFunction,NonConductor*%
%ADD29C,0.20000*%
%ADD30C,0.12700*%
%ADD34C,0.10000*%
%ADD53C,0.25000*%
%ADD54C,0.25400*%
G36*
X14576234Y9283087D02*
Y9279463D01*
X14579858D01*
Y9275839D01*
X14587106D01*
Y9272215D01*
X14590730D01*
Y9268591D01*
X14594354D01*
Y9264967D01*
Y9261343D01*
X14597978D01*
Y9257719D01*
Y9254095D01*
X14605226D01*
Y9250471D01*
X14608850D01*
Y9246847D01*
Y9243223D01*
Y9239599D01*
X14612474D01*
Y9235975D01*
Y9232351D01*
Y9228728D01*
Y9225103D01*
X14616098D01*
Y9221480D01*
Y9217856D01*
Y9214232D01*
Y9210608D01*
X14623346D01*
Y9206984D01*
Y9203360D01*
Y9199736D01*
Y9196112D01*
Y9192488D01*
Y9188864D01*
Y9185240D01*
Y9181616D01*
X14630594D01*
Y9185240D01*
X14641466D01*
Y9188864D01*
X14648714D01*
Y9192488D01*
X14659586D01*
Y9196112D01*
Y9199736D01*
X14674081D01*
Y9203360D01*
X14699449D01*
Y9199736D01*
Y9196112D01*
Y9192488D01*
Y9188864D01*
Y9185240D01*
Y9181616D01*
Y9177992D01*
Y9174368D01*
Y9170744D01*
Y9167120D01*
Y9163496D01*
Y9159872D01*
Y9156248D01*
Y9152624D01*
X14695825D01*
Y9149000D01*
Y9145376D01*
Y9141752D01*
Y9138129D01*
Y9134504D01*
Y9130880D01*
Y9127257D01*
X14692201D01*
Y9123633D01*
Y9120009D01*
Y9116385D01*
X14684953D01*
Y9112761D01*
Y9109137D01*
Y9105513D01*
X14681329D01*
Y9101889D01*
X14677705D01*
Y9098265D01*
X14674081D01*
Y9094641D01*
Y9091017D01*
Y9087393D01*
X14666833D01*
Y9083769D01*
X14663210D01*
Y9080145D01*
X14652338D01*
Y9076521D01*
X14648714D01*
Y9072897D01*
Y9069273D01*
X14645090D01*
Y9065649D01*
X14634218D01*
Y9062025D01*
X14626970D01*
Y9058401D01*
X14612474D01*
Y9054777D01*
Y9051153D01*
X14597978D01*
Y9047529D01*
X14605226D01*
Y9043905D01*
X14612474D01*
Y9040281D01*
X14623346D01*
Y9036658D01*
Y9033033D01*
X14663210D01*
Y9036658D01*
Y9040281D01*
Y9043905D01*
X14666833D01*
Y9047529D01*
Y9051153D01*
Y9054777D01*
Y9058401D01*
X14674081D01*
Y9062025D01*
Y9065649D01*
X14677705D01*
Y9069273D01*
Y9072897D01*
Y9076521D01*
X14681329D01*
Y9080145D01*
X14684953D01*
Y9083769D01*
X14692201D01*
Y9087393D01*
Y9091017D01*
Y9094641D01*
X14695825D01*
Y9098265D01*
Y9101889D01*
X14706697D01*
Y9105513D01*
X14710321D01*
Y9109137D01*
Y9112761D01*
X14713945D01*
Y9116385D01*
X14724817D01*
Y9120009D01*
X14732065D01*
Y9123633D01*
Y9127257D01*
X14746561D01*
Y9130880D01*
X14775552D01*
Y9127257D01*
X14779176D01*
Y9123633D01*
Y9120009D01*
Y9116385D01*
X14775552D01*
Y9112761D01*
Y9109137D01*
Y9105513D01*
Y9101889D01*
Y9098265D01*
X14768304D01*
Y9094641D01*
Y9091017D01*
Y9087393D01*
X14764680D01*
Y9083769D01*
Y9080145D01*
X14761057D01*
Y9076521D01*
Y9072897D01*
Y9069273D01*
X14757433D01*
Y9065649D01*
Y9062025D01*
X14750185D01*
Y9058401D01*
X14746561D01*
Y9054777D01*
Y9051153D01*
X14742937D01*
Y9047529D01*
X14735689D01*
Y9043905D01*
X14732065D01*
Y9040281D01*
X14728441D01*
Y9036658D01*
Y9033033D01*
X14717569D01*
Y9029410D01*
X14710321D01*
Y9025786D01*
X14699449D01*
Y9022162D01*
X14692201D01*
Y9018538D01*
Y9014914D01*
X14681329D01*
Y9011290D01*
Y9007666D01*
Y9004042D01*
Y9000418D01*
Y8996794D01*
Y8993170D01*
Y8989546D01*
Y8985922D01*
Y8982298D01*
Y8978674D01*
X14684953D01*
Y8975050D01*
Y8971426D01*
Y8967802D01*
Y8964178D01*
X14692201D01*
Y8960554D01*
Y8956930D01*
X14699449D01*
Y8960554D01*
Y8964178D01*
Y8967802D01*
Y8971426D01*
X14706697D01*
Y8975050D01*
Y8978674D01*
Y8982298D01*
X14710321D01*
Y8985922D01*
Y8989546D01*
X14713945D01*
Y8993170D01*
Y8996794D01*
X14717569D01*
Y9000418D01*
X14724817D01*
Y9004042D01*
Y9007666D01*
Y9011290D01*
X14728441D01*
Y9014914D01*
X14732065D01*
Y9018538D01*
Y9022162D01*
X14735689D01*
Y9025786D01*
X14742937D01*
Y9029410D01*
X14750185D01*
Y9033033D01*
X14757433D01*
Y9036658D01*
Y9040281D01*
X14764680D01*
Y9043905D01*
X14775552D01*
Y9047529D01*
X14786424D01*
Y9051153D01*
X14811792D01*
Y9054777D01*
Y9058401D01*
X14840784D01*
Y9054777D01*
Y9051153D01*
X14851656D01*
Y9047529D01*
Y9043905D01*
Y9040281D01*
X14848032D01*
Y9036658D01*
Y9033033D01*
Y9029410D01*
Y9025786D01*
Y9022162D01*
Y9018538D01*
Y9014914D01*
X14840784D01*
Y9011290D01*
Y9007666D01*
X14837160D01*
Y9004042D01*
Y9000418D01*
Y8996794D01*
Y8993170D01*
X14833534D01*
Y8989546D01*
X14829912D01*
Y8985922D01*
Y8982298D01*
Y8978674D01*
X14822664D01*
Y8975050D01*
X14848032D01*
Y8971426D01*
X14866151D01*
Y8967802D01*
Y8964178D01*
X14880647D01*
Y8960554D01*
X14887895D01*
Y8956930D01*
X14898767D01*
Y8953306D01*
X14906015D01*
Y8949682D01*
Y8946059D01*
X14909639D01*
Y8942434D01*
X14916887D01*
Y8938810D01*
X14920511D01*
Y8935187D01*
X14924133D01*
Y8931563D01*
Y8927939D01*
X14927759D01*
Y8924315D01*
Y8920691D01*
Y8917067D01*
X14924133D01*
Y8913443D01*
Y8909819D01*
X14920511D01*
Y8906195D01*
X14909639D01*
Y8902571D01*
X14906015D01*
Y8898947D01*
Y8895323D01*
X14902391D01*
Y8891699D01*
X14891519D01*
Y8888075D01*
X14884271D01*
Y8884451D01*
X14869775D01*
Y8880827D01*
Y8877203D01*
X14855280D01*
Y8873579D01*
X14822664D01*
Y8869955D01*
X14829912D01*
Y8866331D01*
Y8862707D01*
Y8859083D01*
X14833534D01*
Y8855459D01*
Y8851835D01*
X14837160D01*
Y8848211D01*
Y8844588D01*
Y8840964D01*
X14840784D01*
Y8837340D01*
Y8833716D01*
Y8830092D01*
X14848032D01*
Y8826468D01*
Y8822844D01*
Y8819220D01*
Y8815596D01*
Y8811972D01*
Y8808348D01*
X14851656D01*
Y8804724D01*
Y8801100D01*
Y8797476D01*
Y8793852D01*
Y8790228D01*
X14797296D01*
Y8793852D01*
Y8797476D01*
X14782800D01*
Y8801100D01*
X14768304D01*
Y8804724D01*
X14761057D01*
Y8808348D01*
X14757433D01*
Y8811972D01*
Y8815596D01*
X14746561D01*
Y8819220D01*
X14742937D01*
Y8822844D01*
X14735689D01*
Y8826468D01*
Y8830092D01*
X14732065D01*
Y8833716D01*
X14728441D01*
Y8837340D01*
X14724817D01*
Y8840964D01*
X14717569D01*
Y8844588D01*
Y8848211D01*
Y8851835D01*
X14713945D01*
Y8855459D01*
X14710321D01*
Y8859083D01*
Y8862707D01*
Y8866331D01*
X14706697D01*
Y8869955D01*
Y8873579D01*
X14699449D01*
Y8877203D01*
Y8880827D01*
Y8884451D01*
Y8888075D01*
Y8891699D01*
X14692201D01*
Y8888075D01*
Y8884451D01*
Y8880827D01*
Y8877203D01*
X14684953D01*
Y8873579D01*
Y8869955D01*
Y8866331D01*
X14681329D01*
Y8862707D01*
Y8859083D01*
Y8855459D01*
Y8851835D01*
Y8848211D01*
Y8844588D01*
Y8840964D01*
Y8837340D01*
Y8833716D01*
X14695825D01*
Y8830092D01*
X14699449D01*
Y8826468D01*
Y8822844D01*
X14713945D01*
Y8819220D01*
X14717569D01*
Y8815596D01*
X14728441D01*
Y8811972D01*
Y8808348D01*
X14732065D01*
Y8804724D01*
X14735689D01*
Y8801100D01*
X14742937D01*
Y8797476D01*
X14746561D01*
Y8793852D01*
Y8790228D01*
X14750185D01*
Y8786604D01*
X14757433D01*
Y8782980D01*
X14761057D01*
Y8779356D01*
Y8775732D01*
Y8772108D01*
X14764680D01*
Y8768484D01*
Y8764860D01*
X14768304D01*
Y8761236D01*
Y8757612D01*
Y8753989D01*
X14775552D01*
Y8750365D01*
Y8746741D01*
Y8743117D01*
Y8739493D01*
Y8735869D01*
X14779176D01*
Y8732245D01*
Y8728621D01*
Y8724997D01*
Y8721373D01*
Y8717749D01*
X14768304D01*
Y8714125D01*
X14764680D01*
Y8717749D01*
X14746561D01*
Y8721373D01*
Y8724997D01*
X14732065D01*
Y8728621D01*
X14724817D01*
Y8732245D01*
X14717569D01*
Y8735869D01*
X14710321D01*
Y8739493D01*
Y8743117D01*
X14706697D01*
Y8746741D01*
X14699449D01*
Y8750365D01*
X14695825D01*
Y8753989D01*
Y8757612D01*
Y8761236D01*
X14692201D01*
Y8764860D01*
X14684953D01*
Y8768484D01*
X14681329D01*
Y8772108D01*
Y8775732D01*
Y8779356D01*
X14677705D01*
Y8782980D01*
Y8786604D01*
X14674081D01*
Y8790228D01*
Y8793852D01*
Y8797476D01*
X14666833D01*
Y8801100D01*
Y8804724D01*
Y8808348D01*
X14663210D01*
Y8811972D01*
Y8815596D01*
X14626970D01*
Y8811972D01*
Y8808348D01*
X14612474D01*
Y8804724D01*
X14605226D01*
Y8801100D01*
X14597978D01*
Y8797476D01*
X14608850D01*
Y8793852D01*
Y8790228D01*
X14623346D01*
Y8786604D01*
X14630594D01*
Y8782980D01*
X14641466D01*
Y8779356D01*
X14648714D01*
Y8775732D01*
Y8772108D01*
X14652338D01*
Y8768484D01*
X14659586D01*
Y8764860D01*
X14663210D01*
Y8761236D01*
X14666833D01*
Y8757612D01*
Y8753989D01*
X14674081D01*
Y8750365D01*
X14677705D01*
Y8746741D01*
X14681329D01*
Y8743117D01*
X14684953D01*
Y8739493D01*
Y8735869D01*
Y8732245D01*
X14692201D01*
Y8728621D01*
Y8724997D01*
X14695825D01*
Y8721373D01*
Y8717749D01*
Y8714125D01*
Y8710501D01*
Y8706877D01*
Y8703253D01*
Y8699629D01*
Y8696005D01*
X14699449D01*
Y8692381D01*
Y8688757D01*
Y8685133D01*
Y8681509D01*
Y8677885D01*
Y8674261D01*
Y8670637D01*
Y8667013D01*
Y8663390D01*
Y8659766D01*
Y8656141D01*
Y8652518D01*
Y8648894D01*
Y8645270D01*
Y8641646D01*
X14695825D01*
Y8645270D01*
X14674081D01*
Y8648894D01*
X14659586D01*
Y8652518D01*
Y8656141D01*
X14645090D01*
Y8659766D01*
X14634218D01*
Y8663390D01*
X14630594D01*
Y8667013D01*
X14623346D01*
Y8663390D01*
Y8659766D01*
Y8656141D01*
Y8652518D01*
Y8648894D01*
Y8645270D01*
Y8641646D01*
Y8638022D01*
X14616098D01*
Y8634398D01*
Y8630774D01*
Y8627150D01*
Y8623526D01*
Y8619902D01*
X14612474D01*
Y8616278D01*
Y8612654D01*
Y8609030D01*
X14608850D01*
Y8605406D01*
Y8601782D01*
Y8598158D01*
X14605226D01*
Y8594534D01*
Y8590910D01*
X14597978D01*
Y8587286D01*
X14594354D01*
Y8583662D01*
Y8580038D01*
X14590730D01*
Y8576414D01*
Y8572790D01*
X14587106D01*
Y8569167D01*
X14576234D01*
Y8565542D01*
Y8561919D01*
X14568987D01*
Y8565542D01*
Y8569167D01*
X14561739D01*
Y8572790D01*
X14558115D01*
Y8576414D01*
X14554491D01*
Y8580038D01*
X14547243D01*
Y8583662D01*
Y8587286D01*
Y8590910D01*
X14543619D01*
Y8594534D01*
X14539995D01*
Y8598158D01*
Y8601782D01*
Y8605406D01*
X14536371D01*
Y8609030D01*
Y8612654D01*
X14529123D01*
Y8616278D01*
Y8619902D01*
Y8623526D01*
Y8627150D01*
Y8630774D01*
X14525499D01*
Y8634398D01*
Y8638022D01*
Y8641646D01*
Y8645270D01*
Y8648894D01*
Y8652518D01*
Y8656141D01*
X14521875D01*
Y8659766D01*
Y8663390D01*
Y8667013D01*
X14518251D01*
Y8663390D01*
X14507379D01*
Y8659766D01*
X14503755D01*
Y8656141D01*
X14489259D01*
Y8652518D01*
Y8648894D01*
X14474763D01*
Y8645270D01*
X14453020D01*
Y8641646D01*
X14442148D01*
Y8645270D01*
Y8648894D01*
Y8652518D01*
Y8656141D01*
X14438524D01*
Y8659766D01*
Y8663390D01*
Y8667013D01*
Y8670637D01*
Y8674261D01*
Y8677885D01*
Y8681509D01*
X14442148D01*
Y8685133D01*
Y8688757D01*
Y8692381D01*
Y8696005D01*
Y8699629D01*
Y8703253D01*
X14449396D01*
Y8706877D01*
Y8710501D01*
Y8714125D01*
Y8717749D01*
X14453020D01*
Y8721373D01*
Y8724997D01*
Y8728621D01*
X14456644D01*
Y8732245D01*
Y8735869D01*
X14463892D01*
Y8739493D01*
Y8743117D01*
X14467516D01*
Y8746741D01*
Y8750365D01*
X14471140D01*
Y8753989D01*
X14474763D01*
Y8757612D01*
Y8761236D01*
X14482011D01*
Y8764860D01*
X14485635D01*
Y8768484D01*
X14489259D01*
Y8772108D01*
X14500131D01*
Y8775732D01*
Y8779356D01*
X14503755D01*
Y8782980D01*
X14511003D01*
Y8786604D01*
X14521875D01*
Y8790228D01*
X14536371D01*
Y8793852D01*
Y8797476D01*
X14547243D01*
Y8801100D01*
X14539995D01*
Y8804724D01*
X14529123D01*
Y8808348D01*
X14521875D01*
Y8811972D01*
Y8815596D01*
X14482011D01*
Y8811972D01*
Y8808348D01*
Y8804724D01*
Y8801100D01*
X14474763D01*
Y8797476D01*
Y8793852D01*
Y8790228D01*
Y8786604D01*
X14471140D01*
Y8782980D01*
Y8779356D01*
X14467516D01*
Y8775732D01*
Y8772108D01*
X14463892D01*
Y8768484D01*
Y8764860D01*
X14456644D01*
Y8761236D01*
X14453020D01*
Y8757612D01*
Y8753989D01*
X14449396D01*
Y8750365D01*
X14442148D01*
Y8746741D01*
X14438524D01*
Y8743117D01*
X14434900D01*
Y8739493D01*
Y8735869D01*
X14424028D01*
Y8732245D01*
X14416780D01*
Y8728621D01*
X14405908D01*
Y8724997D01*
X14395036D01*
Y8721373D01*
Y8717749D01*
X14366045D01*
Y8721373D01*
Y8724997D01*
Y8728621D01*
Y8732245D01*
Y8735869D01*
Y8739493D01*
Y8743117D01*
X14369669D01*
Y8746741D01*
Y8750365D01*
Y8753989D01*
X14376917D01*
Y8757612D01*
Y8761236D01*
Y8764860D01*
Y8768484D01*
X14380540D01*
Y8772108D01*
X14384164D01*
Y8775732D01*
Y8779356D01*
Y8782980D01*
X14387788D01*
Y8786604D01*
X14395036D01*
Y8790228D01*
X14398660D01*
Y8793852D01*
Y8797476D01*
Y8801100D01*
X14402284D01*
Y8804724D01*
X14413156D01*
Y8808348D01*
X14416780D01*
Y8811972D01*
Y8815596D01*
X14420404D01*
Y8819220D01*
X14431276D01*
Y8822844D01*
X14438524D01*
Y8826468D01*
Y8830092D01*
X14453020D01*
Y8833716D01*
X14467516D01*
Y8837340D01*
Y8840964D01*
Y8844588D01*
Y8848211D01*
Y8851835D01*
Y8855459D01*
X14463892D01*
Y8859083D01*
Y8862707D01*
Y8866331D01*
Y8869955D01*
Y8873579D01*
Y8877203D01*
X14456644D01*
Y8880827D01*
Y8884451D01*
Y8888075D01*
X14453020D01*
Y8891699D01*
Y8895323D01*
X14442148D01*
Y8891699D01*
Y8888075D01*
Y8884451D01*
X14438524D01*
Y8880827D01*
Y8877203D01*
Y8873579D01*
Y8869955D01*
X14434900D01*
Y8866331D01*
Y8862707D01*
Y8859083D01*
X14431276D01*
Y8855459D01*
Y8851835D01*
X14424028D01*
Y8848211D01*
X14420404D01*
Y8844588D01*
Y8840964D01*
X14416780D01*
Y8837340D01*
Y8833716D01*
X14413156D01*
Y8830092D01*
X14405908D01*
Y8826468D01*
Y8822844D01*
X14398660D01*
Y8819220D01*
X14395036D01*
Y8815596D01*
X14387788D01*
Y8811972D01*
Y8808348D01*
X14380540D01*
Y8804724D01*
X14369669D01*
Y8801100D01*
X14355173D01*
Y8797476D01*
X14337053D01*
Y8793852D01*
Y8790228D01*
X14293565D01*
Y8793852D01*
Y8797476D01*
Y8801100D01*
Y8804724D01*
Y8808348D01*
Y8811972D01*
Y8815596D01*
Y8819220D01*
X14297189D01*
Y8822844D01*
Y8826468D01*
Y8830092D01*
Y8833716D01*
Y8837340D01*
X14300813D01*
Y8840964D01*
Y8844588D01*
Y8848211D01*
X14308061D01*
Y8851835D01*
Y8855459D01*
X14311685D01*
Y8859083D01*
Y8862707D01*
Y8866331D01*
X14315309D01*
Y8869955D01*
X14318933D01*
Y8873579D01*
X14293565D01*
Y8877203D01*
X14275446D01*
Y8880827D01*
Y8884451D01*
X14260950D01*
Y8888075D01*
X14250078D01*
Y8891699D01*
X14242830D01*
Y8895323D01*
X14239206D01*
Y8898947D01*
Y8902571D01*
X14228334D01*
Y8906195D01*
X14224710D01*
Y8909819D01*
X14221086D01*
Y8913443D01*
Y8917067D01*
X14213838D01*
Y8920691D01*
X14210214D01*
Y8924315D01*
Y8927939D01*
X14213838D01*
Y8931563D01*
Y8935187D01*
X14221086D01*
Y8938810D01*
X14224710D01*
Y8942434D01*
X14228334D01*
Y8946059D01*
X14239206D01*
Y8949682D01*
Y8953306D01*
X14242830D01*
Y8956930D01*
X14250078D01*
Y8960554D01*
X14260950D01*
Y8964178D01*
X14275446D01*
Y8967802D01*
Y8971426D01*
X14293565D01*
Y8975050D01*
X14318933D01*
Y8978674D01*
X14315309D01*
Y8982298D01*
X14311685D01*
Y8985922D01*
Y8989546D01*
Y8993170D01*
X14308061D01*
Y8996794D01*
Y9000418D01*
X14300813D01*
Y9004042D01*
Y9007666D01*
Y9011290D01*
X14297189D01*
Y9014914D01*
Y9018538D01*
Y9022162D01*
Y9025786D01*
Y9029410D01*
X14293565D01*
Y9033033D01*
Y9036658D01*
Y9040281D01*
Y9043905D01*
Y9047529D01*
Y9051153D01*
X14297189D01*
Y9054777D01*
Y9058401D01*
X14337053D01*
Y9054777D01*
Y9051153D01*
X14355173D01*
Y9047529D01*
X14369669D01*
Y9043905D01*
X14380540D01*
Y9040281D01*
X14387788D01*
Y9036658D01*
Y9033033D01*
X14395036D01*
Y9029410D01*
X14398660D01*
Y9025786D01*
X14402284D01*
Y9022162D01*
X14413156D01*
Y9018538D01*
Y9014914D01*
Y9011290D01*
X14416780D01*
Y9007666D01*
X14420404D01*
Y9004042D01*
Y9000418D01*
X14424028D01*
Y8996794D01*
X14431276D01*
Y8993170D01*
Y8989546D01*
X14434900D01*
Y8985922D01*
Y8982298D01*
Y8978674D01*
X14438524D01*
Y8975050D01*
Y8971426D01*
Y8967802D01*
Y8964178D01*
X14442148D01*
Y8960554D01*
Y8956930D01*
Y8953306D01*
X14453020D01*
Y8956930D01*
Y8960554D01*
X14456644D01*
Y8964178D01*
Y8967802D01*
Y8971426D01*
Y8975050D01*
X14463892D01*
Y8978674D01*
Y8982298D01*
Y8985922D01*
Y8989546D01*
Y8993170D01*
Y8996794D01*
X14467516D01*
Y9000418D01*
Y9004042D01*
Y9007666D01*
Y9011290D01*
X14463892D01*
Y9014914D01*
X14453020D01*
Y9018538D01*
Y9022162D01*
X14438524D01*
Y9025786D01*
X14431276D01*
Y9029410D01*
X14420404D01*
Y9033033D01*
X14416780D01*
Y9036658D01*
Y9040281D01*
X14405908D01*
Y9043905D01*
X14402284D01*
Y9047529D01*
X14398660D01*
Y9051153D01*
X14395036D01*
Y9054777D01*
Y9058401D01*
X14387788D01*
Y9062025D01*
Y9065649D01*
X14384164D01*
Y9069273D01*
X14380540D01*
Y9072897D01*
Y9076521D01*
Y9080145D01*
X14376917D01*
Y9083769D01*
Y9087393D01*
X14369669D01*
Y9091017D01*
Y9094641D01*
Y9098265D01*
Y9101889D01*
X14366045D01*
Y9105513D01*
Y9109137D01*
Y9112761D01*
Y9116385D01*
Y9120009D01*
Y9123633D01*
Y9127257D01*
Y9130880D01*
X14395036D01*
Y9127257D01*
X14405908D01*
Y9123633D01*
Y9120009D01*
X14416780D01*
Y9116385D01*
X14424028D01*
Y9112761D01*
X14431276D01*
Y9109137D01*
Y9105513D01*
X14438524D01*
Y9101889D01*
X14442148D01*
Y9098265D01*
X14449396D01*
Y9094641D01*
X14453020D01*
Y9091017D01*
Y9087393D01*
X14456644D01*
Y9083769D01*
Y9080145D01*
X14463892D01*
Y9076521D01*
X14467516D01*
Y9072897D01*
Y9069273D01*
Y9065649D01*
X14471140D01*
Y9062025D01*
Y9058401D01*
X14474763D01*
Y9054777D01*
Y9051153D01*
Y9047529D01*
Y9043905D01*
X14482011D01*
Y9040281D01*
Y9036658D01*
Y9033033D01*
X14521875D01*
Y9036658D01*
Y9040281D01*
X14529123D01*
Y9043905D01*
X14539995D01*
Y9047529D01*
X14543619D01*
Y9051153D01*
X14536371D01*
Y9054777D01*
Y9058401D01*
X14521875D01*
Y9062025D01*
X14511003D01*
Y9065649D01*
X14503755D01*
Y9069273D01*
X14492883D01*
Y9072897D01*
Y9076521D01*
X14489259D01*
Y9080145D01*
X14485635D01*
Y9083769D01*
X14482011D01*
Y9087393D01*
X14474763D01*
Y9091017D01*
Y9094641D01*
X14471140D01*
Y9098265D01*
X14467516D01*
Y9101889D01*
X14463892D01*
Y9105513D01*
Y9109137D01*
Y9112761D01*
X14456644D01*
Y9116385D01*
Y9120009D01*
X14453020D01*
Y9123633D01*
Y9127257D01*
Y9130880D01*
X14449396D01*
Y9134504D01*
Y9138129D01*
Y9141752D01*
Y9145376D01*
X14442148D01*
Y9149000D01*
Y9152624D01*
Y9156248D01*
Y9159872D01*
Y9163496D01*
X14438524D01*
Y9167120D01*
Y9170744D01*
Y9174368D01*
Y9177992D01*
Y9181616D01*
Y9185240D01*
Y9188864D01*
Y9192488D01*
Y9196112D01*
Y9199736D01*
X14442148D01*
Y9203360D01*
X14471140D01*
Y9199736D01*
X14489259D01*
Y9196112D01*
Y9192488D01*
X14500131D01*
Y9188864D01*
X14507379D01*
Y9185240D01*
X14518251D01*
Y9181616D01*
X14521875D01*
Y9185240D01*
Y9188864D01*
Y9192488D01*
Y9196112D01*
Y9199736D01*
X14525499D01*
Y9203360D01*
Y9206984D01*
Y9210608D01*
Y9214232D01*
Y9217856D01*
Y9221480D01*
X14529123D01*
Y9225103D01*
Y9228728D01*
Y9232351D01*
Y9235975D01*
X14536371D01*
Y9239599D01*
Y9243223D01*
X14539995D01*
Y9246847D01*
Y9250471D01*
Y9254095D01*
X14543619D01*
Y9257719D01*
X14547243D01*
Y9261343D01*
X14554491D01*
Y9264967D01*
Y9268591D01*
Y9272215D01*
X14558115D01*
Y9275839D01*
X14561739D01*
Y9279463D01*
X14568987D01*
Y9283087D01*
Y9286711D01*
X14576234D01*
Y9283087D01*
D02*
G37*
G36*
X14449396Y8503935D02*
Y8500311D01*
Y8496687D01*
Y8493063D01*
Y8489439D01*
Y8485815D01*
Y8482191D01*
Y8478567D01*
Y8474943D01*
Y8471320D01*
Y8467696D01*
Y8464072D01*
X14442148D01*
Y8460448D01*
Y8456824D01*
X14438524D01*
Y8460448D01*
Y8464072D01*
Y8467696D01*
X14434900D01*
Y8471320D01*
Y8474943D01*
Y8478567D01*
Y8482191D01*
X14431276D01*
Y8485815D01*
X14424028D01*
Y8489439D01*
X14416780D01*
Y8493063D01*
X14376917D01*
Y8489439D01*
Y8485815D01*
Y8482191D01*
Y8478567D01*
Y8474943D01*
Y8471320D01*
Y8467696D01*
Y8464072D01*
Y8460448D01*
Y8456824D01*
Y8453200D01*
Y8449576D01*
Y8445952D01*
Y8442328D01*
Y8438704D01*
Y8435080D01*
Y8431456D01*
Y8427832D01*
X14384164D01*
Y8431456D01*
X14398660D01*
Y8435080D01*
X14402284D01*
Y8438704D01*
X14405908D01*
Y8442328D01*
Y8445952D01*
Y8449576D01*
Y8453200D01*
X14416780D01*
Y8449576D01*
Y8445952D01*
Y8442328D01*
Y8438704D01*
Y8435080D01*
Y8431456D01*
Y8427832D01*
Y8424208D01*
Y8420584D01*
Y8416960D01*
Y8413336D01*
Y8409712D01*
Y8406088D01*
Y8402464D01*
Y8398840D01*
Y8395216D01*
Y8391592D01*
Y8387968D01*
Y8384344D01*
X14405908D01*
Y8387968D01*
Y8391592D01*
Y8395216D01*
X14402284D01*
Y8398840D01*
Y8402464D01*
X14398660D01*
Y8406088D01*
X14380540D01*
Y8409712D01*
Y8413336D01*
X14376917D01*
Y8409712D01*
Y8406088D01*
Y8402464D01*
Y8398840D01*
Y8395216D01*
Y8391592D01*
Y8387968D01*
Y8384344D01*
Y8380721D01*
Y8377097D01*
Y8373472D01*
Y8369849D01*
Y8366225D01*
Y8362601D01*
Y8358977D01*
Y8355353D01*
Y8351729D01*
Y8348105D01*
Y8344481D01*
X14380540D01*
Y8340857D01*
X14387788D01*
Y8337233D01*
Y8333609D01*
X14449396D01*
Y8337233D01*
Y8340857D01*
X14456644D01*
Y8344481D01*
X14467516D01*
Y8348105D01*
X14471140D01*
Y8351729D01*
X14474763D01*
Y8355353D01*
Y8358977D01*
Y8362601D01*
X14482011D01*
Y8366225D01*
Y8369849D01*
X14485635D01*
Y8373472D01*
Y8377097D01*
Y8380721D01*
Y8384344D01*
X14492883D01*
Y8380721D01*
Y8377097D01*
Y8373472D01*
Y8369849D01*
Y8366225D01*
Y8362601D01*
Y8358977D01*
Y8355353D01*
Y8351729D01*
Y8348105D01*
X14489259D01*
Y8344481D01*
Y8340857D01*
Y8337233D01*
Y8333609D01*
Y8329985D01*
Y8326361D01*
X14485635D01*
Y8322737D01*
X14398660D01*
Y8326361D01*
X14318933D01*
Y8322737D01*
X14308061D01*
Y8326361D01*
Y8329985D01*
X14315309D01*
Y8333609D01*
X14326181D01*
Y8337233D01*
Y8340857D01*
X14329805D01*
Y8344481D01*
X14333429D01*
Y8348105D01*
Y8351729D01*
Y8355353D01*
Y8358977D01*
X14337053D01*
Y8362601D01*
Y8366225D01*
Y8369849D01*
Y8373472D01*
Y8377097D01*
Y8380721D01*
Y8384344D01*
Y8387968D01*
Y8391592D01*
Y8395216D01*
Y8398840D01*
Y8402464D01*
Y8406088D01*
Y8409712D01*
Y8413336D01*
Y8416960D01*
Y8420584D01*
Y8424208D01*
Y8427832D01*
Y8431456D01*
Y8435080D01*
Y8438704D01*
Y8442328D01*
Y8445952D01*
Y8449576D01*
Y8453200D01*
Y8456824D01*
Y8460448D01*
Y8464072D01*
Y8467696D01*
Y8471320D01*
Y8474943D01*
X14333429D01*
Y8478567D01*
Y8482191D01*
Y8485815D01*
Y8489439D01*
X14329805D01*
Y8493063D01*
X14315309D01*
Y8496687D01*
Y8500311D01*
X14308061D01*
Y8503935D01*
Y8507559D01*
X14449396D01*
Y8503935D01*
D02*
G37*
G36*
X14837160Y8507559D02*
X14851656D01*
Y8503935D01*
X14862527D01*
Y8500311D01*
X14866151D01*
Y8496687D01*
Y8493063D01*
Y8489439D01*
Y8485815D01*
Y8482191D01*
X14862527D01*
Y8478567D01*
Y8474943D01*
Y8471320D01*
Y8467696D01*
Y8464072D01*
Y8460448D01*
Y8456824D01*
Y8453200D01*
X14851656D01*
Y8456824D01*
Y8460448D01*
Y8464072D01*
X14848032D01*
Y8467696D01*
Y8471320D01*
Y8474943D01*
X14840784D01*
Y8478567D01*
Y8482191D01*
Y8485815D01*
X14837160D01*
Y8489439D01*
X14833534D01*
Y8493063D01*
X14829912D01*
Y8496687D01*
Y8500311D01*
X14800920D01*
Y8496687D01*
Y8493063D01*
X14797296D01*
Y8489439D01*
X14793672D01*
Y8485815D01*
Y8482191D01*
X14786424D01*
Y8478567D01*
Y8474943D01*
Y8471320D01*
Y8467696D01*
Y8464072D01*
X14793672D01*
Y8460448D01*
Y8456824D01*
X14797296D01*
Y8453200D01*
X14800920D01*
Y8449576D01*
X14804544D01*
Y8445952D01*
X14811792D01*
Y8442328D01*
Y8438704D01*
X14815416D01*
Y8435080D01*
X14822664D01*
Y8431456D01*
X14829912D01*
Y8427832D01*
X14837160D01*
Y8424208D01*
Y8420584D01*
X14840784D01*
Y8416960D01*
X14851656D01*
Y8413336D01*
X14855280D01*
Y8409712D01*
Y8406088D01*
X14862527D01*
Y8402464D01*
X14866151D01*
Y8398840D01*
Y8395216D01*
X14869775D01*
Y8391592D01*
Y8387968D01*
Y8384344D01*
Y8380721D01*
Y8377097D01*
Y8373472D01*
Y8369849D01*
Y8366225D01*
Y8362601D01*
Y8358977D01*
Y8355353D01*
Y8351729D01*
X14866151D01*
Y8348105D01*
Y8344481D01*
X14862527D01*
Y8340857D01*
X14855280D01*
Y8337233D01*
Y8333609D01*
X14851656D01*
Y8329985D01*
X14840784D01*
Y8326361D01*
X14833534D01*
Y8322737D01*
X14775552D01*
Y8326361D01*
X14761057D01*
Y8329985D01*
X14750185D01*
Y8333609D01*
X14746561D01*
Y8337233D01*
Y8340857D01*
Y8344481D01*
Y8348105D01*
Y8351729D01*
Y8355353D01*
Y8358977D01*
Y8362601D01*
Y8366225D01*
X14742937D01*
Y8369849D01*
Y8373472D01*
Y8377097D01*
Y8380721D01*
Y8384344D01*
Y8387968D01*
X14750185D01*
Y8384344D01*
Y8380721D01*
X14757433D01*
Y8377097D01*
Y8373472D01*
Y8369849D01*
X14761057D01*
Y8366225D01*
Y8362601D01*
X14764680D01*
Y8358977D01*
Y8355353D01*
Y8351729D01*
X14768304D01*
Y8348105D01*
X14775552D01*
Y8344481D01*
X14779176D01*
Y8340857D01*
X14786424D01*
Y8337233D01*
Y8333609D01*
X14800920D01*
Y8329985D01*
X14815416D01*
Y8333609D01*
X14822664D01*
Y8337233D01*
Y8340857D01*
X14829912D01*
Y8344481D01*
X14833534D01*
Y8348105D01*
Y8351729D01*
Y8355353D01*
Y8358977D01*
X14837160D01*
Y8362601D01*
X14833534D01*
Y8366225D01*
Y8369849D01*
Y8373472D01*
Y8377097D01*
X14829912D01*
Y8380721D01*
X14822664D01*
Y8384344D01*
X14819040D01*
Y8387968D01*
X14815416D01*
Y8391592D01*
Y8395216D01*
X14811792D01*
Y8398840D01*
X14800920D01*
Y8402464D01*
X14797296D01*
Y8406088D01*
X14786424D01*
Y8409712D01*
Y8413336D01*
X14779176D01*
Y8416960D01*
X14775552D01*
Y8420584D01*
X14768304D01*
Y8424208D01*
Y8427832D01*
X14764680D01*
Y8431456D01*
X14761057D01*
Y8435080D01*
X14757433D01*
Y8438704D01*
Y8442328D01*
Y8445952D01*
Y8449576D01*
Y8453200D01*
Y8456824D01*
Y8460448D01*
Y8464072D01*
Y8467696D01*
Y8471320D01*
Y8474943D01*
Y8478567D01*
Y8482191D01*
X14761057D01*
Y8485815D01*
Y8489439D01*
X14764680D01*
Y8493063D01*
X14768304D01*
Y8496687D01*
Y8500311D01*
X14779176D01*
Y8503935D01*
X14786424D01*
Y8507559D01*
X14800920D01*
Y8511183D01*
X14837160D01*
Y8507559D01*
D02*
G37*
G36*
X13942041Y8503935D02*
Y8500311D01*
X13931169D01*
Y8496687D01*
Y8493063D01*
X13923921D01*
Y8489439D01*
X13916673D01*
Y8485815D01*
Y8482191D01*
Y8478567D01*
Y8474943D01*
Y8471320D01*
Y8467696D01*
X13913049D01*
Y8464072D01*
Y8460448D01*
Y8456824D01*
Y8453200D01*
Y8449576D01*
Y8445952D01*
Y8442328D01*
Y8438704D01*
Y8435080D01*
Y8431456D01*
Y8427832D01*
Y8424208D01*
Y8420584D01*
Y8416960D01*
Y8413336D01*
Y8409712D01*
Y8406088D01*
Y8402464D01*
Y8398840D01*
Y8395216D01*
Y8391592D01*
Y8387968D01*
Y8384344D01*
Y8380721D01*
Y8377097D01*
Y8373472D01*
Y8369849D01*
Y8366225D01*
Y8362601D01*
Y8358977D01*
Y8355353D01*
Y8351729D01*
Y8348105D01*
Y8344481D01*
Y8340857D01*
Y8337233D01*
Y8333609D01*
Y8329985D01*
Y8326361D01*
Y8322737D01*
X13909425D01*
Y8319113D01*
Y8315489D01*
X13898553D01*
Y8319113D01*
Y8322737D01*
X13894930D01*
Y8326361D01*
Y8329985D01*
X13891306D01*
Y8333609D01*
X13887682D01*
Y8337233D01*
Y8340857D01*
X13880434D01*
Y8344481D01*
X13876810D01*
Y8348105D01*
X13873186D01*
Y8351729D01*
X13869562D01*
Y8355353D01*
Y8358977D01*
X13862314D01*
Y8362601D01*
X13858690D01*
Y8366225D01*
Y8369849D01*
X13855066D01*
Y8373472D01*
Y8377097D01*
X13847818D01*
Y8380721D01*
X13844194D01*
Y8384344D01*
X13840570D01*
Y8387968D01*
X13836946D01*
Y8391592D01*
Y8395216D01*
X13829698D01*
Y8398840D01*
X13826074D01*
Y8402464D01*
X13822450D01*
Y8406088D01*
X13818826D01*
Y8409712D01*
Y8413336D01*
X13811578D01*
Y8416960D01*
Y8420584D01*
X13807954D01*
Y8424208D01*
Y8427832D01*
X13804330D01*
Y8431456D01*
X13800706D01*
Y8435080D01*
X13793459D01*
Y8438704D01*
X13789835D01*
Y8442328D01*
Y8445952D01*
X13786211D01*
Y8449576D01*
X13782587D01*
Y8453200D01*
X13775339D01*
Y8456824D01*
X13771715D01*
Y8453200D01*
Y8449576D01*
Y8445952D01*
Y8442328D01*
Y8438704D01*
Y8435080D01*
Y8431456D01*
Y8427832D01*
Y8424208D01*
Y8420584D01*
Y8416960D01*
Y8413336D01*
Y8409712D01*
Y8406088D01*
Y8402464D01*
Y8398840D01*
Y8395216D01*
Y8391592D01*
Y8387968D01*
Y8384344D01*
Y8380721D01*
X13775339D01*
Y8377097D01*
Y8373472D01*
Y8369849D01*
Y8366225D01*
Y8362601D01*
Y8358977D01*
Y8355353D01*
Y8351729D01*
Y8348105D01*
X13782587D01*
Y8344481D01*
X13786211D01*
Y8340857D01*
X13793459D01*
Y8337233D01*
Y8333609D01*
X13807954D01*
Y8329985D01*
X13811578D01*
Y8326361D01*
Y8322737D01*
X13807954D01*
Y8326361D01*
X13724603D01*
Y8329985D01*
X13735475D01*
Y8333609D01*
X13742723D01*
Y8337233D01*
Y8340857D01*
X13749971D01*
Y8344481D01*
X13753595D01*
Y8348105D01*
Y8351729D01*
X13757219D01*
Y8355353D01*
Y8358977D01*
Y8362601D01*
Y8366225D01*
Y8369849D01*
Y8373472D01*
Y8377097D01*
Y8380721D01*
Y8384344D01*
Y8387968D01*
Y8391592D01*
Y8395216D01*
Y8398840D01*
Y8402464D01*
Y8406088D01*
X13764467D01*
Y8409712D01*
Y8413336D01*
Y8416960D01*
Y8420584D01*
Y8424208D01*
Y8427832D01*
Y8431456D01*
Y8435080D01*
Y8438704D01*
Y8442328D01*
Y8445952D01*
Y8449576D01*
Y8453200D01*
Y8456824D01*
Y8460448D01*
Y8464072D01*
Y8467696D01*
Y8471320D01*
X13757219D01*
Y8474943D01*
Y8478567D01*
Y8482191D01*
Y8485815D01*
X13753595D01*
Y8482191D01*
Y8478567D01*
Y8474943D01*
Y8471320D01*
Y8467696D01*
Y8464072D01*
Y8460448D01*
Y8456824D01*
X13749971D01*
Y8453200D01*
Y8449576D01*
Y8445952D01*
Y8442328D01*
Y8438704D01*
Y8435080D01*
Y8431456D01*
Y8427832D01*
Y8424208D01*
Y8420584D01*
Y8416960D01*
Y8413336D01*
Y8409712D01*
Y8406088D01*
Y8402464D01*
Y8398840D01*
Y8395216D01*
Y8391592D01*
Y8387968D01*
Y8384344D01*
Y8380721D01*
Y8377097D01*
X13742723D01*
Y8373472D01*
Y8369849D01*
Y8366225D01*
Y8362601D01*
Y8358977D01*
X13739099D01*
Y8355353D01*
Y8351729D01*
Y8348105D01*
X13735475D01*
Y8344481D01*
Y8340857D01*
X13728227D01*
Y8337233D01*
Y8333609D01*
X13720979D01*
Y8329985D01*
X13717355D01*
Y8326361D01*
X13702859D01*
Y8322737D01*
X13634004D01*
Y8326361D01*
X13623132D01*
Y8329985D01*
X13615884D01*
Y8333609D01*
X13612260D01*
Y8337233D01*
Y8340857D01*
X13605013D01*
Y8344481D01*
X13601389D01*
Y8348105D01*
Y8351729D01*
X13597765D01*
Y8355353D01*
Y8358977D01*
Y8362601D01*
Y8366225D01*
Y8369849D01*
X13594141D01*
Y8373472D01*
Y8377097D01*
Y8380721D01*
Y8384344D01*
Y8387968D01*
Y8391592D01*
Y8395216D01*
Y8398840D01*
Y8402464D01*
Y8406088D01*
Y8409712D01*
Y8413336D01*
Y8416960D01*
Y8420584D01*
Y8424208D01*
Y8427832D01*
Y8431456D01*
Y8435080D01*
Y8438704D01*
Y8442328D01*
Y8445952D01*
Y8449576D01*
Y8453200D01*
Y8456824D01*
Y8460448D01*
Y8464072D01*
Y8467696D01*
Y8471320D01*
Y8474943D01*
Y8478567D01*
Y8482191D01*
Y8485815D01*
X13586893D01*
Y8489439D01*
X13583269D01*
Y8493063D01*
X13576021D01*
Y8496687D01*
Y8500311D01*
X13561525D01*
Y8503935D01*
Y8507559D01*
X13666620D01*
Y8503935D01*
Y8500311D01*
X13652124D01*
Y8496687D01*
Y8493063D01*
X13637628D01*
Y8489439D01*
X13634004D01*
Y8485815D01*
Y8482191D01*
Y8478567D01*
Y8474943D01*
X13630380D01*
Y8471320D01*
Y8467696D01*
Y8464072D01*
Y8460448D01*
Y8456824D01*
Y8453200D01*
Y8449576D01*
Y8445952D01*
Y8442328D01*
Y8438704D01*
Y8435080D01*
Y8431456D01*
Y8427832D01*
Y8424208D01*
Y8420584D01*
Y8416960D01*
Y8413336D01*
Y8409712D01*
Y8406088D01*
Y8402464D01*
Y8398840D01*
Y8395216D01*
Y8391592D01*
Y8387968D01*
Y8384344D01*
Y8380721D01*
Y8377097D01*
X13634004D01*
Y8373472D01*
Y8369849D01*
Y8366225D01*
Y8362601D01*
X13637628D01*
Y8358977D01*
X13644876D01*
Y8355353D01*
Y8351729D01*
X13648500D01*
Y8348105D01*
X13652124D01*
Y8344481D01*
X13662996D01*
Y8340857D01*
X13673868D01*
Y8337233D01*
Y8333609D01*
X13699236D01*
Y8337233D01*
Y8340857D01*
X13710107D01*
Y8344481D01*
X13717355D01*
Y8348105D01*
X13720979D01*
Y8351729D01*
X13724603D01*
Y8355353D01*
Y8358977D01*
X13728227D01*
Y8362601D01*
Y8366225D01*
Y8369849D01*
X13735475D01*
Y8373472D01*
Y8377097D01*
Y8380721D01*
Y8384344D01*
Y8387968D01*
Y8391592D01*
Y8395216D01*
Y8398840D01*
Y8402464D01*
Y8406088D01*
Y8409712D01*
Y8413336D01*
Y8416960D01*
Y8420584D01*
Y8424208D01*
Y8427832D01*
Y8431456D01*
Y8435080D01*
Y8438704D01*
Y8442328D01*
Y8445952D01*
Y8449576D01*
Y8453200D01*
Y8456824D01*
Y8460448D01*
Y8464072D01*
Y8467696D01*
Y8471320D01*
X13728227D01*
Y8474943D01*
Y8478567D01*
Y8482191D01*
Y8485815D01*
X13724603D01*
Y8489439D01*
X13720979D01*
Y8493063D01*
X13710107D01*
Y8496687D01*
Y8500311D01*
X13699236D01*
Y8503935D01*
Y8507559D01*
X13786211D01*
Y8503935D01*
X13789835D01*
Y8500311D01*
X13793459D01*
Y8496687D01*
Y8493063D01*
X13800706D01*
Y8489439D01*
X13804330D01*
Y8485815D01*
Y8482191D01*
X13807954D01*
Y8478567D01*
Y8474943D01*
X13811578D01*
Y8471320D01*
X13818826D01*
Y8467696D01*
X13822450D01*
Y8464072D01*
X13826074D01*
Y8460448D01*
Y8456824D01*
X13829698D01*
Y8453200D01*
Y8449576D01*
X13836946D01*
Y8445952D01*
X13840570D01*
Y8442328D01*
Y8438704D01*
X13844194D01*
Y8435080D01*
X13847818D01*
Y8431456D01*
X13855066D01*
Y8427832D01*
X13858690D01*
Y8424208D01*
Y8420584D01*
X13862314D01*
Y8416960D01*
X13869562D01*
Y8413336D01*
Y8409712D01*
Y8406088D01*
X13873186D01*
Y8402464D01*
X13876810D01*
Y8398840D01*
X13880434D01*
Y8395216D01*
X13887682D01*
Y8391592D01*
Y8387968D01*
X13891306D01*
Y8384344D01*
X13894930D01*
Y8380721D01*
X13898553D01*
Y8384344D01*
Y8387968D01*
Y8391592D01*
Y8395216D01*
Y8398840D01*
Y8402464D01*
Y8406088D01*
Y8409712D01*
Y8413336D01*
Y8416960D01*
Y8420584D01*
Y8424208D01*
Y8427832D01*
Y8431456D01*
Y8435080D01*
Y8438704D01*
Y8442328D01*
Y8445952D01*
Y8449576D01*
Y8453200D01*
Y8456824D01*
Y8460448D01*
Y8464072D01*
Y8467696D01*
Y8471320D01*
Y8474943D01*
X13894930D01*
Y8478567D01*
Y8482191D01*
Y8485815D01*
X13891306D01*
Y8489439D01*
X13887682D01*
Y8493063D01*
X13876810D01*
Y8496687D01*
Y8500311D01*
X13862314D01*
Y8503935D01*
Y8507559D01*
X13942041D01*
Y8503935D01*
D02*
G37*
G36*
X14289941D02*
Y8500311D01*
X14279070D01*
Y8496687D01*
Y8493063D01*
X14271822D01*
Y8489439D01*
X14264574D01*
Y8485815D01*
X14260950D01*
Y8482191D01*
X14257326D01*
Y8478567D01*
Y8474943D01*
Y8471320D01*
X14250078D01*
Y8467696D01*
Y8464072D01*
Y8460448D01*
Y8456824D01*
X14246454D01*
Y8453200D01*
Y8449576D01*
X14242830D01*
Y8445952D01*
Y8442328D01*
Y8438704D01*
X14239206D01*
Y8435080D01*
Y8431456D01*
Y8427832D01*
X14231958D01*
Y8424208D01*
Y8420584D01*
Y8416960D01*
X14228334D01*
Y8413336D01*
Y8409712D01*
Y8406088D01*
X14224710D01*
Y8402464D01*
Y8398840D01*
Y8395216D01*
X14221086D01*
Y8391592D01*
Y8387968D01*
Y8384344D01*
X14213838D01*
Y8380721D01*
Y8377097D01*
Y8373472D01*
Y8369849D01*
X14210214D01*
Y8366225D01*
Y8362601D01*
X14206590D01*
Y8358977D01*
Y8355353D01*
Y8351729D01*
X14202966D01*
Y8348105D01*
Y8344481D01*
Y8340857D01*
X14195718D01*
Y8337233D01*
Y8333609D01*
Y8329985D01*
X14192094D01*
Y8326361D01*
Y8322737D01*
X14188470D01*
Y8319113D01*
Y8315489D01*
X14177599D01*
Y8319113D01*
Y8322737D01*
X14173975D01*
Y8326361D01*
Y8329985D01*
X14170351D01*
Y8333609D01*
Y8337233D01*
Y8340857D01*
X14166727D01*
Y8344481D01*
Y8348105D01*
Y8351729D01*
X14159479D01*
Y8355353D01*
Y8358977D01*
Y8362601D01*
X14155855D01*
Y8366225D01*
Y8369849D01*
Y8373472D01*
Y8377097D01*
X14152231D01*
Y8380721D01*
Y8384344D01*
X14144983D01*
Y8387968D01*
Y8391592D01*
Y8395216D01*
X14141359D01*
Y8398840D01*
Y8402464D01*
Y8406088D01*
X14137735D01*
Y8409712D01*
Y8413336D01*
Y8416960D01*
X14134111D01*
Y8420584D01*
Y8424208D01*
Y8427832D01*
Y8431456D01*
X14126863D01*
Y8435080D01*
Y8438704D01*
X14123239D01*
Y8442328D01*
Y8445952D01*
Y8449576D01*
X14119615D01*
Y8453200D01*
Y8456824D01*
Y8460448D01*
Y8464072D01*
X14115991D01*
Y8467696D01*
Y8471320D01*
X14108743D01*
Y8474943D01*
Y8478567D01*
Y8482191D01*
X14105119D01*
Y8485815D01*
X14101495D01*
Y8489439D01*
X14097871D01*
Y8493063D01*
X14090623D01*
Y8496687D01*
Y8500311D01*
X14083376D01*
Y8503935D01*
Y8507559D01*
X14173975D01*
Y8503935D01*
Y8500311D01*
X14166727D01*
Y8496687D01*
Y8493063D01*
X14155855D01*
Y8489439D01*
X14152231D01*
Y8485815D01*
Y8482191D01*
Y8478567D01*
Y8474943D01*
Y8471320D01*
X14155855D01*
Y8467696D01*
Y8464072D01*
Y8460448D01*
Y8456824D01*
X14159479D01*
Y8453200D01*
Y8449576D01*
X14166727D01*
Y8445952D01*
Y8442328D01*
Y8438704D01*
Y8435080D01*
X14170351D01*
Y8431456D01*
Y8427832D01*
X14173975D01*
Y8424208D01*
Y8420584D01*
Y8416960D01*
Y8413336D01*
X14177599D01*
Y8409712D01*
Y8406088D01*
Y8402464D01*
X14184846D01*
Y8398840D01*
Y8395216D01*
Y8391592D01*
Y8387968D01*
X14188470D01*
Y8384344D01*
Y8380721D01*
Y8377097D01*
X14192094D01*
Y8373472D01*
Y8369849D01*
Y8366225D01*
X14195718D01*
Y8369849D01*
Y8373472D01*
Y8377097D01*
X14202966D01*
Y8380721D01*
Y8384344D01*
X14206590D01*
Y8387968D01*
Y8391592D01*
Y8395216D01*
Y8398840D01*
X14210214D01*
Y8402464D01*
Y8406088D01*
Y8409712D01*
Y8413336D01*
X14213838D01*
Y8416960D01*
Y8420584D01*
Y8424208D01*
Y8427832D01*
X14221086D01*
Y8431456D01*
Y8435080D01*
Y8438704D01*
X14224710D01*
Y8442328D01*
Y8445952D01*
Y8449576D01*
Y8453200D01*
X14228334D01*
Y8456824D01*
Y8460448D01*
Y8464072D01*
Y8467696D01*
X14231958D01*
Y8471320D01*
Y8474943D01*
Y8478567D01*
Y8482191D01*
Y8485815D01*
Y8489439D01*
X14228334D01*
Y8493063D01*
X14221086D01*
Y8496687D01*
Y8500311D01*
X14206590D01*
Y8503935D01*
Y8507559D01*
X14289941D01*
Y8503935D01*
D02*
G37*
G36*
X15536584Y8507559D02*
X15580072D01*
Y8503935D01*
X15590942D01*
Y8500311D01*
X15605440D01*
Y8496687D01*
Y8493063D01*
X15609064D01*
Y8489439D01*
X15619936D01*
Y8485815D01*
X15623560D01*
Y8482191D01*
X15627184D01*
Y8478567D01*
Y8474943D01*
X15634431D01*
Y8471320D01*
X15638055D01*
Y8467696D01*
X15641679D01*
Y8464072D01*
Y8460448D01*
Y8456824D01*
X15645303D01*
Y8453200D01*
Y8449576D01*
X15652551D01*
Y8445952D01*
Y8442328D01*
Y8438704D01*
Y8435080D01*
Y8431456D01*
X15656175D01*
Y8427832D01*
Y8424208D01*
Y8420584D01*
Y8416960D01*
Y8413336D01*
Y8409712D01*
Y8406088D01*
Y8402464D01*
Y8398840D01*
X15652551D01*
Y8395216D01*
Y8391592D01*
Y8387968D01*
Y8384344D01*
Y8380721D01*
X15645303D01*
Y8377097D01*
Y8373472D01*
Y8369849D01*
X15641679D01*
Y8366225D01*
X15638055D01*
Y8362601D01*
Y8358977D01*
X15634431D01*
Y8355353D01*
Y8351729D01*
X15627184D01*
Y8348105D01*
X15619936D01*
Y8344481D01*
X15616312D01*
Y8340857D01*
X15605440D01*
Y8337233D01*
Y8333609D01*
X15598190D01*
Y8329985D01*
X15580072D01*
Y8326361D01*
X15449609D01*
Y8329985D01*
X15456857D01*
Y8333609D01*
X15467729D01*
Y8337233D01*
Y8340857D01*
X15478601D01*
Y8344481D01*
X15482225D01*
Y8348105D01*
Y8351729D01*
Y8355353D01*
Y8358977D01*
Y8362601D01*
Y8366225D01*
X15485849D01*
Y8369849D01*
Y8373472D01*
Y8377097D01*
Y8380721D01*
Y8384344D01*
Y8387968D01*
Y8391592D01*
Y8395216D01*
Y8398840D01*
Y8402464D01*
Y8406088D01*
Y8409712D01*
Y8413336D01*
Y8416960D01*
Y8420584D01*
Y8424208D01*
Y8427832D01*
Y8431456D01*
Y8435080D01*
Y8438704D01*
Y8442328D01*
Y8445952D01*
Y8449576D01*
Y8453200D01*
Y8456824D01*
Y8460448D01*
Y8464072D01*
Y8467696D01*
X15482225D01*
Y8471320D01*
Y8474943D01*
Y8478567D01*
Y8482191D01*
Y8485815D01*
Y8489439D01*
X15474977D01*
Y8493063D01*
X15467729D01*
Y8496687D01*
Y8500311D01*
X15456857D01*
Y8503935D01*
X15449609D01*
Y8507559D01*
X15485849D01*
Y8511183D01*
X15536584D01*
Y8507559D01*
D02*
G37*
G36*
X15337267Y8529303D02*
Y8525679D01*
X15340891D01*
Y8522055D01*
Y8518431D01*
Y8514807D01*
Y8511183D01*
X15344514D01*
Y8507559D01*
Y8503935D01*
X15351762D01*
Y8500311D01*
Y8496687D01*
Y8493063D01*
Y8489439D01*
X15355386D01*
Y8485815D01*
Y8482191D01*
Y8478567D01*
Y8474943D01*
X15359010D01*
Y8471320D01*
Y8467696D01*
X15362634D01*
Y8464072D01*
Y8460448D01*
Y8456824D01*
Y8453200D01*
X15369882D01*
Y8449576D01*
Y8445952D01*
Y8442328D01*
Y8438704D01*
X15373506D01*
Y8435080D01*
Y8431456D01*
X15377130D01*
Y8427832D01*
Y8424208D01*
Y8420584D01*
Y8416960D01*
X15380754D01*
Y8413336D01*
Y8409712D01*
Y8406088D01*
Y8402464D01*
X15388002D01*
Y8398840D01*
Y8395216D01*
X15391626D01*
Y8391592D01*
Y8387968D01*
Y8384344D01*
Y8380721D01*
X15395250D01*
Y8377097D01*
Y8373472D01*
Y8369849D01*
Y8366225D01*
X15398872D01*
Y8362601D01*
Y8358977D01*
X15406120D01*
Y8355353D01*
Y8351729D01*
Y8348105D01*
X15409744D01*
Y8344481D01*
X15413370D01*
Y8340857D01*
X15416994D01*
Y8337233D01*
Y8333609D01*
X15431490D01*
Y8329985D01*
Y8326361D01*
X15344514D01*
Y8329985D01*
Y8333609D01*
X15359010D01*
Y8337233D01*
Y8340857D01*
X15362634D01*
Y8344481D01*
Y8348105D01*
Y8351729D01*
Y8355353D01*
Y8358977D01*
Y8362601D01*
X15359010D01*
Y8366225D01*
Y8369849D01*
Y8373472D01*
Y8377097D01*
X15355386D01*
Y8380721D01*
Y8384344D01*
X15351762D01*
Y8387968D01*
Y8391592D01*
Y8395216D01*
X15344514D01*
Y8398840D01*
X15293779D01*
Y8395216D01*
X15290155D01*
Y8391592D01*
Y8387968D01*
Y8384344D01*
X15286531D01*
Y8380721D01*
Y8377097D01*
Y8373472D01*
Y8369849D01*
Y8366225D01*
X15282907D01*
Y8362601D01*
Y8358977D01*
Y8355353D01*
Y8351729D01*
Y8348105D01*
Y8344481D01*
X15286531D01*
Y8340857D01*
X15290155D01*
Y8337233D01*
Y8333609D01*
X15304651D01*
Y8329985D01*
X15311899D01*
Y8326361D01*
X15232172D01*
Y8329985D01*
Y8333609D01*
X15239420D01*
Y8337233D01*
Y8340857D01*
X15250291D01*
Y8344481D01*
X15253915D01*
Y8348105D01*
Y8351729D01*
X15257539D01*
Y8355353D01*
Y8358977D01*
Y8362601D01*
X15264787D01*
Y8366225D01*
Y8369849D01*
X15268411D01*
Y8373472D01*
Y8377097D01*
Y8380721D01*
X15272035D01*
Y8384344D01*
Y8387968D01*
Y8391592D01*
Y8395216D01*
X15275659D01*
Y8398840D01*
Y8402464D01*
X15282907D01*
Y8406088D01*
Y8409712D01*
Y8413336D01*
Y8416960D01*
X15286531D01*
Y8420584D01*
Y8424208D01*
Y8427832D01*
Y8431456D01*
X15290155D01*
Y8435080D01*
Y8438704D01*
X15293779D01*
Y8442328D01*
Y8445952D01*
Y8449576D01*
Y8453200D01*
X15301027D01*
Y8456824D01*
Y8460448D01*
Y8464072D01*
X15304651D01*
Y8467696D01*
Y8471320D01*
Y8474943D01*
X15308273D01*
Y8478567D01*
Y8482191D01*
Y8485815D01*
X15311899D01*
Y8489439D01*
Y8493063D01*
Y8496687D01*
Y8500311D01*
X15319147D01*
Y8503935D01*
X15322771D01*
Y8507559D01*
X15326395D01*
Y8511183D01*
X15330019D01*
Y8514807D01*
Y8518431D01*
Y8522055D01*
Y8525679D01*
Y8529303D01*
Y8532927D01*
X15337267D01*
Y8529303D01*
D02*
G37*
G36*
X15127077Y8503935D02*
X15145197D01*
Y8500311D01*
X15159692D01*
Y8496687D01*
Y8493063D01*
X15166940D01*
Y8489439D01*
X15177812D01*
Y8485815D01*
X15181436D01*
Y8482191D01*
X15185060D01*
Y8478567D01*
Y8474943D01*
X15188684D01*
Y8471320D01*
X15195932D01*
Y8467696D01*
Y8464072D01*
X15199556D01*
Y8460448D01*
Y8456824D01*
X15203180D01*
Y8453200D01*
Y8449576D01*
X15206802D01*
Y8445952D01*
Y8442328D01*
Y8438704D01*
Y8435080D01*
Y8431456D01*
Y8427832D01*
X15214052D01*
Y8424208D01*
Y8420584D01*
Y8416960D01*
Y8413336D01*
Y8409712D01*
Y8406088D01*
Y8402464D01*
Y8398840D01*
X15206802D01*
Y8395216D01*
Y8391592D01*
Y8387968D01*
Y8384344D01*
Y8380721D01*
X15203180D01*
Y8377097D01*
Y8373472D01*
Y8369849D01*
X15199556D01*
Y8366225D01*
Y8362601D01*
X15195932D01*
Y8358977D01*
X15188684D01*
Y8355353D01*
Y8351729D01*
X15185060D01*
Y8348105D01*
X15181436D01*
Y8344481D01*
X15170564D01*
Y8340857D01*
X15166940D01*
Y8337233D01*
Y8333609D01*
X15159692D01*
Y8329985D01*
X15145197D01*
Y8326361D01*
X15007486D01*
Y8329985D01*
X15014732D01*
Y8333609D01*
X15029230D01*
Y8337233D01*
Y8340857D01*
X15032854D01*
Y8344481D01*
X15040102D01*
Y8348105D01*
Y8351729D01*
Y8355353D01*
Y8358977D01*
Y8362601D01*
Y8366225D01*
Y8369849D01*
X15043726D01*
Y8373472D01*
Y8377097D01*
Y8380721D01*
Y8384344D01*
Y8387968D01*
Y8391592D01*
Y8395216D01*
Y8398840D01*
Y8402464D01*
Y8406088D01*
Y8409712D01*
Y8413336D01*
Y8416960D01*
Y8420584D01*
Y8424208D01*
Y8427832D01*
Y8431456D01*
Y8435080D01*
Y8438704D01*
Y8442328D01*
Y8445952D01*
Y8449576D01*
Y8453200D01*
Y8456824D01*
Y8460448D01*
Y8464072D01*
X15040102D01*
Y8467696D01*
Y8471320D01*
Y8474943D01*
Y8478567D01*
Y8482191D01*
Y8485815D01*
X15032854D01*
Y8489439D01*
X15029230D01*
Y8493063D01*
X15021982D01*
Y8496687D01*
Y8500311D01*
X15007486D01*
Y8503935D01*
Y8507559D01*
X15127077D01*
Y8503935D01*
D02*
G37*
G36*
X14989366D02*
Y8500311D01*
X14974870D01*
Y8496687D01*
Y8493063D01*
X14967622D01*
Y8489439D01*
X14960374D01*
Y8485815D01*
X14956750D01*
Y8482191D01*
Y8478567D01*
Y8474943D01*
Y8471320D01*
Y8467696D01*
Y8464072D01*
Y8460448D01*
Y8456824D01*
X14953127D01*
Y8453200D01*
Y8449576D01*
Y8445952D01*
Y8442328D01*
Y8438704D01*
Y8435080D01*
Y8431456D01*
Y8427832D01*
Y8424208D01*
Y8420584D01*
Y8416960D01*
Y8413336D01*
Y8409712D01*
Y8406088D01*
Y8402464D01*
Y8398840D01*
Y8395216D01*
Y8391592D01*
Y8387968D01*
Y8384344D01*
Y8380721D01*
Y8377097D01*
X14956750D01*
Y8373472D01*
Y8369849D01*
Y8366225D01*
Y8362601D01*
Y8358977D01*
Y8355353D01*
Y8351729D01*
Y8348105D01*
Y8344481D01*
X14960374D01*
Y8340857D01*
X14967622D01*
Y8337233D01*
Y8333609D01*
X14978494D01*
Y8329985D01*
X14989366D01*
Y8326361D01*
X14884271D01*
Y8329985D01*
X14891519D01*
Y8333609D01*
X14906015D01*
Y8337233D01*
Y8340857D01*
X14909639D01*
Y8344481D01*
X14916887D01*
Y8348105D01*
Y8351729D01*
Y8355353D01*
Y8358977D01*
Y8362601D01*
X14920511D01*
Y8366225D01*
Y8369849D01*
Y8373472D01*
Y8377097D01*
Y8380721D01*
Y8384344D01*
Y8387968D01*
Y8391592D01*
Y8395216D01*
Y8398840D01*
Y8402464D01*
Y8406088D01*
Y8409712D01*
Y8413336D01*
Y8416960D01*
Y8420584D01*
Y8424208D01*
Y8427832D01*
Y8431456D01*
Y8435080D01*
Y8438704D01*
Y8442328D01*
Y8445952D01*
Y8449576D01*
Y8453200D01*
Y8456824D01*
Y8460448D01*
Y8464072D01*
Y8467696D01*
X14916887D01*
Y8471320D01*
Y8474943D01*
Y8478567D01*
Y8482191D01*
Y8485815D01*
X14909639D01*
Y8489439D01*
Y8493063D01*
X14902391D01*
Y8496687D01*
Y8500311D01*
X14884271D01*
Y8503935D01*
Y8507559D01*
X14989366D01*
Y8503935D01*
D02*
G37*
G36*
X14630594D02*
X14645090D01*
Y8500311D01*
X14652338D01*
Y8496687D01*
Y8493063D01*
X14659586D01*
Y8489439D01*
X14663210D01*
Y8485815D01*
Y8482191D01*
X14666833D01*
Y8478567D01*
Y8474943D01*
Y8471320D01*
Y8467696D01*
Y8464072D01*
Y8460448D01*
Y8456824D01*
Y8453200D01*
Y8449576D01*
Y8445952D01*
X14663210D01*
Y8442328D01*
Y8438704D01*
Y8435080D01*
X14659586D01*
Y8431456D01*
X14652338D01*
Y8427832D01*
X14645090D01*
Y8424208D01*
Y8420584D01*
X14641466D01*
Y8416960D01*
Y8413336D01*
Y8409712D01*
Y8406088D01*
X14645090D01*
Y8402464D01*
X14648714D01*
Y8398840D01*
Y8395216D01*
X14652338D01*
Y8391592D01*
Y8387968D01*
Y8384344D01*
X14659586D01*
Y8380721D01*
X14663210D01*
Y8377097D01*
X14666833D01*
Y8373472D01*
Y8369849D01*
Y8366225D01*
X14674081D01*
Y8362601D01*
X14677705D01*
Y8358977D01*
X14681329D01*
Y8355353D01*
Y8351729D01*
X14684953D01*
Y8348105D01*
X14692201D01*
Y8344481D01*
X14695825D01*
Y8340857D01*
X14699449D01*
Y8337233D01*
Y8333609D01*
X14710321D01*
Y8329985D01*
X14724817D01*
Y8326361D01*
Y8322737D01*
X14684953D01*
Y8326361D01*
X14663210D01*
Y8329985D01*
X14652338D01*
Y8333609D01*
X14648714D01*
Y8337233D01*
Y8340857D01*
X14645090D01*
Y8344481D01*
X14641466D01*
Y8348105D01*
X14634218D01*
Y8351729D01*
Y8355353D01*
Y8358977D01*
X14630594D01*
Y8362601D01*
X14626970D01*
Y8366225D01*
Y8369849D01*
X14623346D01*
Y8373472D01*
Y8377097D01*
Y8380721D01*
X14616098D01*
Y8384344D01*
X14612474D01*
Y8387968D01*
Y8391592D01*
Y8395216D01*
X14608850D01*
Y8398840D01*
X14605226D01*
Y8402464D01*
X14597978D01*
Y8406088D01*
X14579858D01*
Y8402464D01*
Y8398840D01*
Y8395216D01*
Y8391592D01*
Y8387968D01*
Y8384344D01*
Y8380721D01*
Y8377097D01*
X14587106D01*
Y8373472D01*
Y8369849D01*
Y8366225D01*
Y8362601D01*
Y8358977D01*
Y8355353D01*
Y8351729D01*
Y8348105D01*
X14590730D01*
Y8344481D01*
X14594354D01*
Y8340857D01*
X14605226D01*
Y8337233D01*
Y8333609D01*
X14623346D01*
Y8329985D01*
Y8326361D01*
X14518251D01*
Y8329985D01*
Y8333609D01*
X14536371D01*
Y8337233D01*
Y8340857D01*
X14539995D01*
Y8344481D01*
X14543619D01*
Y8348105D01*
Y8351729D01*
Y8355353D01*
Y8358977D01*
Y8362601D01*
X14547243D01*
Y8366225D01*
Y8369849D01*
Y8373472D01*
Y8377097D01*
Y8380721D01*
Y8384344D01*
Y8387968D01*
Y8391592D01*
Y8395216D01*
Y8398840D01*
Y8402464D01*
Y8406088D01*
Y8409712D01*
Y8413336D01*
Y8416960D01*
Y8420584D01*
Y8424208D01*
Y8427832D01*
Y8431456D01*
Y8435080D01*
Y8438704D01*
Y8442328D01*
Y8445952D01*
Y8449576D01*
Y8453200D01*
Y8456824D01*
Y8460448D01*
Y8464072D01*
Y8467696D01*
Y8471320D01*
X14543619D01*
Y8474943D01*
Y8478567D01*
Y8482191D01*
Y8485815D01*
Y8489439D01*
X14539995D01*
Y8493063D01*
X14529123D01*
Y8496687D01*
Y8500311D01*
X14518251D01*
Y8503935D01*
Y8507559D01*
X14630594D01*
Y8503935D01*
D02*
G37*
G36*
X14065256D02*
Y8500311D01*
X14050760D01*
Y8496687D01*
Y8493063D01*
X14036264D01*
Y8489439D01*
Y8485815D01*
X14032640D01*
Y8482191D01*
Y8478567D01*
Y8474943D01*
Y8471320D01*
X14029016D01*
Y8467696D01*
Y8464072D01*
Y8460448D01*
Y8456824D01*
Y8453200D01*
Y8449576D01*
Y8445952D01*
Y8442328D01*
Y8438704D01*
Y8435080D01*
Y8431456D01*
Y8427832D01*
Y8424208D01*
Y8420584D01*
Y8416960D01*
Y8413336D01*
Y8409712D01*
Y8406088D01*
Y8402464D01*
Y8398840D01*
Y8395216D01*
Y8391592D01*
Y8387968D01*
Y8384344D01*
Y8380721D01*
Y8377097D01*
Y8373472D01*
Y8369849D01*
Y8366225D01*
Y8362601D01*
X14032640D01*
Y8358977D01*
Y8355353D01*
Y8351729D01*
Y8348105D01*
Y8344481D01*
X14036264D01*
Y8340857D01*
X14039888D01*
Y8337233D01*
Y8333609D01*
X14050760D01*
Y8329985D01*
X14065256D01*
Y8326361D01*
Y8322737D01*
X14061632D01*
Y8326361D01*
X13963785D01*
Y8322737D01*
X13960161D01*
Y8326361D01*
Y8329985D01*
X13967409D01*
Y8333609D01*
X13981905D01*
Y8337233D01*
Y8340857D01*
X13985529D01*
Y8344481D01*
Y8348105D01*
X13992776D01*
Y8351729D01*
Y8355353D01*
Y8358977D01*
Y8362601D01*
Y8366225D01*
Y8369849D01*
Y8373472D01*
Y8377097D01*
Y8380721D01*
X13996400D01*
Y8384344D01*
Y8387968D01*
Y8391592D01*
Y8395216D01*
Y8398840D01*
Y8402464D01*
Y8406088D01*
Y8409712D01*
Y8413336D01*
Y8416960D01*
Y8420584D01*
Y8424208D01*
Y8427832D01*
Y8431456D01*
Y8435080D01*
Y8438704D01*
Y8442328D01*
Y8445952D01*
Y8449576D01*
X13992776D01*
Y8453200D01*
Y8456824D01*
Y8460448D01*
Y8464072D01*
Y8467696D01*
Y8471320D01*
Y8474943D01*
Y8478567D01*
Y8482191D01*
Y8485815D01*
X13985529D01*
Y8489439D01*
X13981905D01*
Y8493063D01*
X13974657D01*
Y8496687D01*
Y8500311D01*
X13960161D01*
Y8503935D01*
Y8507559D01*
X14065256D01*
Y8503935D01*
D02*
G37*
G36*
X14659586Y8272002D02*
Y8268378D01*
Y8264754D01*
Y8261130D01*
Y8257506D01*
Y8253882D01*
Y8250258D01*
Y8246634D01*
Y8243010D01*
Y8239386D01*
Y8235762D01*
Y8232138D01*
Y8228514D01*
X14663210D01*
Y8224890D01*
Y8221266D01*
Y8217642D01*
Y8214018D01*
Y8210394D01*
X14652338D01*
Y8214018D01*
Y8217642D01*
Y8221266D01*
X14648714D01*
Y8224890D01*
Y8228514D01*
X14645090D01*
Y8232138D01*
Y8235762D01*
Y8239386D01*
X14641466D01*
Y8243010D01*
X14634218D01*
Y8246634D01*
X14623346D01*
Y8250258D01*
Y8253882D01*
X14590730D01*
Y8250258D01*
Y8246634D01*
Y8243010D01*
Y8239386D01*
Y8235762D01*
Y8232138D01*
Y8228514D01*
Y8224890D01*
Y8221266D01*
Y8217642D01*
Y8214018D01*
Y8210394D01*
Y8206770D01*
Y8203146D01*
Y8199522D01*
Y8195899D01*
Y8192274D01*
Y8188651D01*
Y8185027D01*
Y8181402D01*
Y8177779D01*
Y8174155D01*
Y8170531D01*
Y8166907D01*
Y8163283D01*
Y8159659D01*
Y8156035D01*
Y8152411D01*
Y8148787D01*
Y8145163D01*
Y8141539D01*
Y8137915D01*
Y8134291D01*
Y8130667D01*
Y8127043D01*
Y8123419D01*
Y8119795D01*
Y8116171D01*
Y8112547D01*
Y8108923D01*
X14594354D01*
Y8105300D01*
Y8101675D01*
X14597978D01*
Y8098051D01*
X14605226D01*
Y8094428D01*
Y8090803D01*
X14616098D01*
Y8087180D01*
X14623346D01*
Y8083556D01*
X14521875D01*
Y8087180D01*
Y8090803D01*
X14539995D01*
Y8094428D01*
Y8098051D01*
X14543619D01*
Y8101675D01*
X14547243D01*
Y8105300D01*
Y8108923D01*
X14554491D01*
Y8112547D01*
Y8116171D01*
Y8119795D01*
Y8123419D01*
Y8127043D01*
Y8130667D01*
Y8134291D01*
Y8137915D01*
Y8141539D01*
Y8145163D01*
Y8148787D01*
Y8152411D01*
Y8156035D01*
Y8159659D01*
Y8163283D01*
Y8166907D01*
Y8170531D01*
Y8174155D01*
Y8177779D01*
Y8181402D01*
Y8185027D01*
Y8188651D01*
Y8192274D01*
Y8195899D01*
Y8199522D01*
Y8203146D01*
Y8206770D01*
Y8210394D01*
Y8214018D01*
Y8217642D01*
Y8221266D01*
Y8224890D01*
Y8228514D01*
Y8232138D01*
Y8235762D01*
Y8239386D01*
Y8243010D01*
Y8246634D01*
Y8250258D01*
Y8253882D01*
X14521875D01*
Y8250258D01*
Y8246634D01*
X14507379D01*
Y8243010D01*
X14503755D01*
Y8239386D01*
X14500131D01*
Y8235762D01*
X14492883D01*
Y8232138D01*
Y8228514D01*
Y8224890D01*
Y8221266D01*
X14489259D01*
Y8217642D01*
Y8214018D01*
Y8210394D01*
X14482011D01*
Y8214018D01*
Y8217642D01*
Y8221266D01*
Y8224890D01*
Y8228514D01*
Y8232138D01*
Y8235762D01*
X14485635D01*
Y8239386D01*
Y8243010D01*
Y8246634D01*
Y8250258D01*
Y8253882D01*
Y8257506D01*
Y8261130D01*
Y8264754D01*
Y8268378D01*
Y8272002D01*
Y8275626D01*
X14492883D01*
Y8272002D01*
X14500131D01*
Y8268378D01*
Y8264754D01*
X14641466D01*
Y8268378D01*
Y8272002D01*
X14648714D01*
Y8275626D01*
X14659586D01*
Y8272002D01*
D02*
G37*
G36*
X14177599Y8261130D02*
Y8257506D01*
Y8253882D01*
Y8250258D01*
Y8246634D01*
Y8243010D01*
Y8239386D01*
Y8235762D01*
Y8232138D01*
Y8228514D01*
Y8224890D01*
X14173975D01*
Y8221266D01*
X14170351D01*
Y8224890D01*
X14166727D01*
Y8228514D01*
Y8232138D01*
Y8235762D01*
Y8239386D01*
X14159479D01*
Y8243010D01*
X14155855D01*
Y8246634D01*
X14152231D01*
Y8250258D01*
Y8253882D01*
X14137735D01*
Y8257506D01*
X14105119D01*
Y8253882D01*
Y8250258D01*
Y8246634D01*
Y8243010D01*
Y8239386D01*
Y8235762D01*
Y8232138D01*
Y8228514D01*
Y8224890D01*
Y8221266D01*
Y8217642D01*
Y8214018D01*
Y8210394D01*
Y8206770D01*
Y8203146D01*
Y8199522D01*
Y8195899D01*
Y8192274D01*
Y8188651D01*
X14123239D01*
Y8192274D01*
X14126863D01*
Y8195899D01*
X14134111D01*
Y8199522D01*
Y8203146D01*
X14137735D01*
Y8206770D01*
Y8210394D01*
X14144983D01*
Y8206770D01*
Y8203146D01*
Y8199522D01*
Y8195899D01*
Y8192274D01*
Y8188651D01*
Y8185027D01*
Y8181402D01*
Y8177779D01*
Y8174155D01*
Y8170531D01*
Y8166907D01*
Y8163283D01*
Y8159659D01*
Y8156035D01*
Y8152411D01*
Y8148787D01*
Y8145163D01*
Y8141539D01*
X14137735D01*
Y8145163D01*
Y8148787D01*
Y8152411D01*
Y8156035D01*
X14134111D01*
Y8159659D01*
X14126863D01*
Y8163283D01*
Y8166907D01*
X14119615D01*
Y8170531D01*
X14105119D01*
Y8166907D01*
Y8163283D01*
Y8159659D01*
Y8156035D01*
Y8152411D01*
Y8148787D01*
Y8145163D01*
Y8141539D01*
Y8137915D01*
Y8134291D01*
Y8130667D01*
Y8127043D01*
Y8123419D01*
Y8119795D01*
Y8116171D01*
Y8112547D01*
Y8108923D01*
Y8105300D01*
X14108743D01*
Y8101675D01*
X14115991D01*
Y8098051D01*
X14126863D01*
Y8094428D01*
Y8090803D01*
X14170351D01*
Y8094428D01*
Y8098051D01*
X14184846D01*
Y8101675D01*
X14192094D01*
Y8105300D01*
X14195718D01*
Y8108923D01*
X14202966D01*
Y8112547D01*
Y8116171D01*
X14206590D01*
Y8119795D01*
X14210214D01*
Y8123419D01*
Y8127043D01*
Y8130667D01*
Y8134291D01*
X14213838D01*
Y8137915D01*
Y8141539D01*
X14224710D01*
Y8137915D01*
Y8134291D01*
Y8130667D01*
Y8127043D01*
Y8123419D01*
Y8119795D01*
Y8116171D01*
Y8112547D01*
Y8108923D01*
X14221086D01*
Y8105300D01*
Y8101675D01*
Y8098051D01*
Y8094428D01*
Y8090803D01*
Y8087180D01*
X14213838D01*
Y8083556D01*
X14036264D01*
Y8087180D01*
Y8090803D01*
X14050760D01*
Y8094428D01*
Y8098051D01*
X14061632D01*
Y8101675D01*
X14065256D01*
Y8105300D01*
Y8108923D01*
Y8112547D01*
Y8116171D01*
Y8119795D01*
X14068880D01*
Y8123419D01*
Y8127043D01*
Y8130667D01*
Y8134291D01*
Y8137915D01*
Y8141539D01*
Y8145163D01*
Y8148787D01*
Y8152411D01*
Y8156035D01*
Y8159659D01*
Y8163283D01*
Y8166907D01*
Y8170531D01*
Y8174155D01*
Y8177779D01*
Y8181402D01*
Y8185027D01*
Y8188651D01*
Y8192274D01*
Y8195899D01*
Y8199522D01*
Y8203146D01*
Y8206770D01*
Y8210394D01*
Y8214018D01*
Y8217642D01*
Y8221266D01*
Y8224890D01*
Y8228514D01*
Y8232138D01*
Y8235762D01*
X14065256D01*
Y8239386D01*
Y8243010D01*
Y8246634D01*
X14061632D01*
Y8250258D01*
Y8253882D01*
X14054384D01*
Y8257506D01*
X14039888D01*
Y8261130D01*
X14036264D01*
Y8264754D01*
X14177599D01*
Y8261130D01*
D02*
G37*
G36*
X13967409Y8268378D02*
Y8264754D01*
X13985529D01*
Y8261130D01*
X14000024D01*
Y8257506D01*
X14003648D01*
Y8253882D01*
Y8250258D01*
Y8246634D01*
Y8243010D01*
Y8239386D01*
Y8235762D01*
Y8232138D01*
Y8228514D01*
Y8224890D01*
Y8221266D01*
Y8217642D01*
Y8214018D01*
Y8210394D01*
Y8206770D01*
Y8203146D01*
X13996400D01*
Y8206770D01*
Y8210394D01*
X13992776D01*
Y8214018D01*
Y8217642D01*
Y8221266D01*
Y8224890D01*
X13985529D01*
Y8228514D01*
Y8232138D01*
Y8235762D01*
X13981905D01*
Y8239386D01*
X13978281D01*
Y8243010D01*
X13974657D01*
Y8246634D01*
X13967409D01*
Y8250258D01*
Y8253882D01*
X13960161D01*
Y8257506D01*
X13923921D01*
Y8253882D01*
X13909425D01*
Y8250258D01*
Y8246634D01*
X13905801D01*
Y8243010D01*
X13898553D01*
Y8239386D01*
X13894930D01*
Y8235762D01*
X13891306D01*
Y8232138D01*
Y8228514D01*
X13887682D01*
Y8224890D01*
Y8221266D01*
X13880434D01*
Y8217642D01*
Y8214018D01*
Y8210394D01*
Y8206770D01*
X13876810D01*
Y8203146D01*
Y8199522D01*
Y8195899D01*
Y8192274D01*
Y8188651D01*
Y8185027D01*
Y8181402D01*
Y8177779D01*
Y8174155D01*
Y8170531D01*
Y8166907D01*
Y8163283D01*
Y8159659D01*
Y8156035D01*
Y8152411D01*
Y8148787D01*
X13880434D01*
Y8145163D01*
Y8141539D01*
Y8137915D01*
Y8134291D01*
X13887682D01*
Y8130667D01*
Y8127043D01*
Y8123419D01*
X13891306D01*
Y8119795D01*
X13894930D01*
Y8116171D01*
Y8112547D01*
Y8108923D01*
X13898553D01*
Y8105300D01*
X13909425D01*
Y8101675D01*
X13913049D01*
Y8098051D01*
X13923921D01*
Y8094428D01*
Y8090803D01*
X13934793D01*
Y8087180D01*
X13949289D01*
Y8090803D01*
X13963785D01*
Y8094428D01*
Y8098051D01*
X13974657D01*
Y8101675D01*
X13978281D01*
Y8105300D01*
X13981905D01*
Y8108923D01*
X13985529D01*
Y8112547D01*
Y8116171D01*
X13992776D01*
Y8119795D01*
X13996400D01*
Y8123419D01*
Y8127043D01*
Y8130667D01*
X14000024D01*
Y8134291D01*
Y8137915D01*
X14003648D01*
Y8141539D01*
Y8145163D01*
Y8148787D01*
X14014520D01*
Y8145163D01*
Y8141539D01*
Y8137915D01*
Y8134291D01*
Y8130667D01*
X14010896D01*
Y8127043D01*
Y8123419D01*
Y8119795D01*
Y8116171D01*
Y8112547D01*
Y8108923D01*
X14003648D01*
Y8105300D01*
Y8101675D01*
Y8098051D01*
X14000024D01*
Y8094428D01*
Y8090803D01*
Y8087180D01*
X13992776D01*
Y8083556D01*
X13978281D01*
Y8079932D01*
X13905801D01*
Y8083556D01*
X13891306D01*
Y8087180D01*
X13880434D01*
Y8090803D01*
X13873186D01*
Y8094428D01*
Y8098051D01*
X13869562D01*
Y8101675D01*
X13858690D01*
Y8105300D01*
X13855066D01*
Y8108923D01*
Y8112547D01*
Y8116171D01*
X13847818D01*
Y8119795D01*
X13844194D01*
Y8123419D01*
Y8127043D01*
Y8130667D01*
X13840570D01*
Y8134291D01*
Y8137915D01*
X13836946D01*
Y8141539D01*
Y8145163D01*
Y8148787D01*
Y8152411D01*
Y8156035D01*
Y8159659D01*
Y8163283D01*
Y8166907D01*
X13829698D01*
Y8170531D01*
Y8174155D01*
Y8177779D01*
X13836946D01*
Y8181402D01*
Y8185027D01*
Y8188651D01*
Y8192274D01*
Y8195899D01*
Y8199522D01*
Y8203146D01*
Y8206770D01*
X13840570D01*
Y8210394D01*
Y8214018D01*
X13844194D01*
Y8217642D01*
Y8221266D01*
Y8224890D01*
X13847818D01*
Y8228514D01*
X13855066D01*
Y8232138D01*
Y8235762D01*
Y8239386D01*
X13858690D01*
Y8243010D01*
X13862314D01*
Y8246634D01*
X13873186D01*
Y8250258D01*
Y8253882D01*
X13876810D01*
Y8257506D01*
X13887682D01*
Y8261130D01*
X13894930D01*
Y8264754D01*
X13913049D01*
Y8268378D01*
Y8272002D01*
X13967409D01*
Y8268378D01*
D02*
G37*
G36*
X14463892Y8261130D02*
X14456644D01*
Y8257506D01*
X14449396D01*
Y8253882D01*
X14442148D01*
Y8250258D01*
Y8246634D01*
X14438524D01*
Y8243010D01*
Y8239386D01*
Y8235762D01*
X14434900D01*
Y8232138D01*
Y8228514D01*
Y8224890D01*
Y8221266D01*
Y8217642D01*
Y8214018D01*
Y8210394D01*
Y8206770D01*
Y8203146D01*
Y8199522D01*
Y8195899D01*
Y8192274D01*
Y8188651D01*
Y8185027D01*
Y8181402D01*
Y8177779D01*
Y8174155D01*
Y8170531D01*
Y8166907D01*
Y8163283D01*
Y8159659D01*
Y8156035D01*
Y8152411D01*
Y8148787D01*
Y8145163D01*
Y8141539D01*
Y8137915D01*
Y8134291D01*
Y8130667D01*
Y8127043D01*
Y8123419D01*
Y8119795D01*
Y8116171D01*
Y8112547D01*
Y8108923D01*
Y8105300D01*
Y8101675D01*
Y8098051D01*
Y8094428D01*
Y8090803D01*
Y8087180D01*
Y8083556D01*
Y8079932D01*
X14420404D01*
Y8083556D01*
X14416780D01*
Y8087180D01*
X14413156D01*
Y8090803D01*
X14405908D01*
Y8094428D01*
Y8098051D01*
X14402284D01*
Y8101675D01*
X14398660D01*
Y8105300D01*
X14395036D01*
Y8108923D01*
Y8112547D01*
Y8116171D01*
X14387788D01*
Y8119795D01*
X14384164D01*
Y8123419D01*
X14380540D01*
Y8127043D01*
Y8130667D01*
X14376917D01*
Y8134291D01*
X14369669D01*
Y8137915D01*
X14366045D01*
Y8141539D01*
X14362421D01*
Y8145163D01*
Y8148787D01*
X14355173D01*
Y8152411D01*
X14351549D01*
Y8156035D01*
X14347925D01*
Y8159659D01*
Y8163283D01*
Y8166907D01*
X14344301D01*
Y8170531D01*
X14337053D01*
Y8174155D01*
X14333429D01*
Y8177779D01*
X14329805D01*
Y8181402D01*
Y8185027D01*
X14326181D01*
Y8188651D01*
X14318933D01*
Y8192274D01*
X14315309D01*
Y8195899D01*
X14311685D01*
Y8199522D01*
Y8203146D01*
X14308061D01*
Y8206770D01*
X14300813D01*
Y8210394D01*
Y8214018D01*
X14293565D01*
Y8210394D01*
Y8206770D01*
Y8203146D01*
Y8199522D01*
Y8195899D01*
Y8192274D01*
Y8188651D01*
Y8185027D01*
Y8181402D01*
Y8177779D01*
Y8174155D01*
Y8170531D01*
Y8166907D01*
Y8163283D01*
Y8159659D01*
Y8156035D01*
Y8152411D01*
Y8148787D01*
Y8145163D01*
Y8141539D01*
Y8137915D01*
Y8134291D01*
Y8130667D01*
X14297189D01*
Y8127043D01*
Y8123419D01*
Y8119795D01*
Y8116171D01*
Y8112547D01*
Y8108923D01*
Y8105300D01*
X14300813D01*
Y8101675D01*
X14308061D01*
Y8098051D01*
X14318933D01*
Y8094428D01*
Y8090803D01*
X14333429D01*
Y8087180D01*
Y8083556D01*
X14246454D01*
Y8087180D01*
Y8090803D01*
X14260950D01*
Y8094428D01*
Y8098051D01*
X14264574D01*
Y8101675D01*
X14271822D01*
Y8105300D01*
X14275446D01*
Y8108923D01*
Y8112547D01*
Y8116171D01*
X14279070D01*
Y8119795D01*
Y8123419D01*
Y8127043D01*
Y8130667D01*
Y8134291D01*
Y8137915D01*
Y8141539D01*
Y8145163D01*
Y8148787D01*
Y8152411D01*
Y8156035D01*
Y8159659D01*
Y8163283D01*
Y8166907D01*
Y8170531D01*
Y8174155D01*
Y8177779D01*
Y8181402D01*
Y8185027D01*
Y8188651D01*
Y8192274D01*
Y8195899D01*
X14282693D01*
Y8199522D01*
Y8203146D01*
Y8206770D01*
Y8210394D01*
Y8214018D01*
Y8217642D01*
Y8221266D01*
Y8224890D01*
X14279070D01*
Y8228514D01*
Y8232138D01*
Y8235762D01*
Y8239386D01*
Y8243010D01*
X14275446D01*
Y8246634D01*
X14271822D01*
Y8250258D01*
Y8253882D01*
X14264574D01*
Y8257506D01*
X14246454D01*
Y8261130D01*
Y8264754D01*
X14311685D01*
Y8261130D01*
Y8257506D01*
X14315309D01*
Y8253882D01*
X14318933D01*
Y8250258D01*
Y8246634D01*
X14326181D01*
Y8243010D01*
X14329805D01*
Y8239386D01*
X14333429D01*
Y8235762D01*
Y8232138D01*
Y8228514D01*
X14337053D01*
Y8224890D01*
X14344301D01*
Y8221266D01*
X14347925D01*
Y8217642D01*
Y8214018D01*
X14351549D01*
Y8210394D01*
X14355173D01*
Y8206770D01*
X14362421D01*
Y8203146D01*
Y8199522D01*
Y8195899D01*
X14366045D01*
Y8192274D01*
X14369669D01*
Y8188651D01*
X14376917D01*
Y8185027D01*
X14380540D01*
Y8181402D01*
Y8177779D01*
X14384164D01*
Y8174155D01*
X14387788D01*
Y8170531D01*
X14395036D01*
Y8166907D01*
X14398660D01*
Y8163283D01*
Y8159659D01*
Y8156035D01*
X14402284D01*
Y8152411D01*
X14405908D01*
Y8148787D01*
X14413156D01*
Y8145163D01*
Y8141539D01*
X14416780D01*
Y8137915D01*
X14420404D01*
Y8141539D01*
Y8145163D01*
Y8148787D01*
Y8152411D01*
Y8156035D01*
Y8159659D01*
Y8163283D01*
Y8166907D01*
Y8170531D01*
Y8174155D01*
Y8177779D01*
Y8181402D01*
Y8185027D01*
Y8188651D01*
Y8192274D01*
Y8195899D01*
Y8199522D01*
Y8203146D01*
Y8206770D01*
Y8210394D01*
Y8214018D01*
Y8217642D01*
Y8221266D01*
Y8224890D01*
Y8228514D01*
X14416780D01*
Y8232138D01*
Y8235762D01*
Y8239386D01*
Y8243010D01*
Y8246634D01*
X14413156D01*
Y8250258D01*
Y8253882D01*
X14402284D01*
Y8257506D01*
X14387788D01*
Y8261130D01*
X14380540D01*
Y8264754D01*
X14463892D01*
Y8261130D01*
D02*
G37*
G36*
X15235796D02*
X15232172D01*
Y8257506D01*
X15214052D01*
Y8253882D01*
X15206802D01*
Y8250258D01*
Y8246634D01*
X15203180D01*
Y8243010D01*
Y8239386D01*
Y8235762D01*
X15199556D01*
Y8232138D01*
Y8228514D01*
Y8224890D01*
Y8221266D01*
Y8217642D01*
Y8214018D01*
Y8210394D01*
Y8206770D01*
Y8203146D01*
Y8199522D01*
Y8195899D01*
Y8192274D01*
Y8188651D01*
Y8185027D01*
Y8181402D01*
Y8177779D01*
Y8174155D01*
Y8170531D01*
Y8166907D01*
Y8163283D01*
Y8159659D01*
Y8156035D01*
Y8152411D01*
Y8148787D01*
Y8145163D01*
Y8141539D01*
Y8137915D01*
Y8134291D01*
Y8130667D01*
Y8127043D01*
Y8123419D01*
Y8119795D01*
Y8116171D01*
Y8112547D01*
Y8108923D01*
Y8105300D01*
Y8101675D01*
Y8098051D01*
X15250291D01*
Y8101675D01*
X15264787D01*
Y8105300D01*
X15268411D01*
Y8108923D01*
X15275659D01*
Y8112547D01*
Y8116171D01*
Y8119795D01*
X15282907D01*
Y8123419D01*
X15286531D01*
Y8127043D01*
Y8130667D01*
X15290155D01*
Y8134291D01*
Y8137915D01*
X15293779D01*
Y8141539D01*
Y8145163D01*
Y8148787D01*
X15308273D01*
Y8145163D01*
Y8141539D01*
X15304651D01*
Y8137915D01*
Y8134291D01*
Y8130667D01*
X15301027D01*
Y8127043D01*
Y8123419D01*
Y8119795D01*
Y8116171D01*
Y8112547D01*
Y8108923D01*
X15293779D01*
Y8105300D01*
Y8101675D01*
Y8098051D01*
X15290155D01*
Y8094428D01*
Y8090803D01*
Y8087180D01*
Y8083556D01*
X15130701D01*
Y8087180D01*
Y8090803D01*
X15148820D01*
Y8094428D01*
Y8098051D01*
X15159692D01*
Y8101675D01*
Y8105300D01*
X15163316D01*
Y8108923D01*
Y8112547D01*
Y8116171D01*
Y8119795D01*
Y8123419D01*
Y8127043D01*
Y8130667D01*
Y8134291D01*
Y8137915D01*
Y8141539D01*
Y8145163D01*
Y8148787D01*
Y8152411D01*
Y8156035D01*
Y8159659D01*
Y8163283D01*
Y8166907D01*
Y8170531D01*
Y8174155D01*
Y8177779D01*
Y8181402D01*
Y8185027D01*
Y8188651D01*
Y8192274D01*
Y8195899D01*
Y8199522D01*
Y8203146D01*
Y8206770D01*
Y8210394D01*
Y8214018D01*
Y8217642D01*
Y8221266D01*
Y8224890D01*
Y8228514D01*
Y8232138D01*
Y8235762D01*
Y8239386D01*
Y8243010D01*
X15159692D01*
Y8246634D01*
Y8250258D01*
Y8253882D01*
X15148820D01*
Y8257506D01*
X15134325D01*
Y8261130D01*
X15130701D01*
Y8264754D01*
X15235796D01*
Y8261130D01*
D02*
G37*
G36*
X15014732Y8286498D02*
Y8282873D01*
X15021982D01*
Y8279250D01*
Y8275626D01*
X15025604D01*
Y8272002D01*
Y8268378D01*
Y8264754D01*
Y8261130D01*
X15029230D01*
Y8257506D01*
Y8253882D01*
Y8250258D01*
Y8246634D01*
X15032854D01*
Y8243010D01*
Y8239386D01*
X15040102D01*
Y8235762D01*
Y8232138D01*
Y8228514D01*
Y8224890D01*
X15043726D01*
Y8221266D01*
Y8217642D01*
Y8214018D01*
Y8210394D01*
X15047350D01*
Y8206770D01*
Y8203146D01*
X15054597D01*
Y8199522D01*
Y8195899D01*
Y8192274D01*
Y8188651D01*
X15058221D01*
Y8185027D01*
Y8181402D01*
Y8177779D01*
Y8174155D01*
X15061845D01*
Y8170531D01*
Y8166907D01*
X15065469D01*
Y8163283D01*
Y8159659D01*
Y8156035D01*
Y8152411D01*
X15072717D01*
Y8148787D01*
Y8145163D01*
Y8141539D01*
Y8137915D01*
X15076341D01*
Y8134291D01*
Y8130667D01*
Y8127043D01*
Y8123419D01*
X15079965D01*
Y8119795D01*
Y8116171D01*
X15083589D01*
Y8112547D01*
Y8108923D01*
X15090837D01*
Y8105300D01*
Y8101675D01*
X15094461D01*
Y8098051D01*
X15101709D01*
Y8094428D01*
Y8090803D01*
X15112581D01*
Y8087180D01*
Y8083556D01*
X15025604D01*
Y8087180D01*
Y8090803D01*
X15040102D01*
Y8094428D01*
Y8098051D01*
X15043726D01*
Y8101675D01*
Y8105300D01*
Y8108923D01*
Y8112547D01*
Y8116171D01*
Y8119795D01*
X15040102D01*
Y8123419D01*
Y8127043D01*
Y8130667D01*
Y8134291D01*
X15032854D01*
Y8137915D01*
Y8141539D01*
Y8145163D01*
Y8148787D01*
X15029230D01*
Y8152411D01*
X15025604D01*
Y8156035D01*
X14974870D01*
Y8152411D01*
X14971246D01*
Y8148787D01*
Y8145163D01*
Y8141539D01*
Y8137915D01*
X14967622D01*
Y8134291D01*
Y8130667D01*
Y8127043D01*
Y8123419D01*
X14960374D01*
Y8119795D01*
Y8116171D01*
Y8112547D01*
Y8108923D01*
Y8105300D01*
Y8101675D01*
X14967622D01*
Y8098051D01*
X14971246D01*
Y8094428D01*
Y8090803D01*
X14989366D01*
Y8087180D01*
X14992990D01*
Y8083556D01*
X14909639D01*
Y8087180D01*
Y8090803D01*
X14920511D01*
Y8094428D01*
Y8098051D01*
X14927759D01*
Y8101675D01*
X14935007D01*
Y8105300D01*
Y8108923D01*
X14938631D01*
Y8112547D01*
Y8116171D01*
Y8119795D01*
X14942255D01*
Y8123419D01*
Y8127043D01*
Y8130667D01*
X14945879D01*
Y8134291D01*
Y8137915D01*
X14953127D01*
Y8141539D01*
Y8145163D01*
Y8148787D01*
Y8152411D01*
X14956750D01*
Y8156035D01*
Y8159659D01*
X14960374D01*
Y8163283D01*
Y8166907D01*
Y8170531D01*
Y8174155D01*
X14967622D01*
Y8177779D01*
Y8181402D01*
Y8185027D01*
X14971246D01*
Y8188651D01*
Y8192274D01*
Y8195899D01*
X14974870D01*
Y8199522D01*
Y8203146D01*
Y8206770D01*
Y8210394D01*
X14978494D01*
Y8214018D01*
Y8217642D01*
Y8221266D01*
X14985742D01*
Y8224890D01*
Y8228514D01*
Y8232138D01*
Y8235762D01*
X14989366D01*
Y8239386D01*
Y8243010D01*
X14992990D01*
Y8246634D01*
Y8250258D01*
Y8253882D01*
Y8257506D01*
Y8261130D01*
X15003862D01*
Y8264754D01*
X15007486D01*
Y8268378D01*
Y8272002D01*
X15011110D01*
Y8275626D01*
Y8279250D01*
Y8282873D01*
Y8286498D01*
Y8290121D01*
X15014732D01*
Y8286498D01*
D02*
G37*
G36*
X14797296Y8261130D02*
X14811792D01*
Y8257506D01*
X14819040D01*
Y8253882D01*
X14822664D01*
Y8250258D01*
Y8246634D01*
X14829912D01*
Y8243010D01*
Y8239386D01*
X14833534D01*
Y8235762D01*
Y8232138D01*
Y8228514D01*
Y8224890D01*
Y8221266D01*
Y8217642D01*
Y8214018D01*
Y8210394D01*
Y8206770D01*
Y8203146D01*
X14829912D01*
Y8199522D01*
Y8195899D01*
X14822664D01*
Y8192274D01*
X14819040D01*
Y8188651D01*
X14815416D01*
Y8185027D01*
X14811792D01*
Y8181402D01*
Y8177779D01*
X14800920D01*
Y8174155D01*
X14804544D01*
Y8170531D01*
Y8166907D01*
X14811792D01*
Y8163283D01*
Y8159659D01*
Y8156035D01*
X14815416D01*
Y8152411D01*
X14819040D01*
Y8148787D01*
Y8145163D01*
Y8141539D01*
X14822664D01*
Y8137915D01*
X14829912D01*
Y8134291D01*
Y8130667D01*
X14833534D01*
Y8127043D01*
Y8123419D01*
X14837160D01*
Y8119795D01*
X14840784D01*
Y8116171D01*
X14848032D01*
Y8112547D01*
Y8108923D01*
X14851656D01*
Y8105300D01*
X14855280D01*
Y8101675D01*
X14866151D01*
Y8098051D01*
X14869775D01*
Y8094428D01*
Y8090803D01*
X14880647D01*
Y8087180D01*
X14887895D01*
Y8083556D01*
Y8079932D01*
X14855280D01*
Y8083556D01*
X14829912D01*
Y8087180D01*
X14819040D01*
Y8090803D01*
X14815416D01*
Y8094428D01*
Y8098051D01*
X14811792D01*
Y8101675D01*
X14804544D01*
Y8105300D01*
X14800920D01*
Y8108923D01*
Y8112547D01*
Y8116171D01*
X14797296D01*
Y8119795D01*
X14793672D01*
Y8123419D01*
Y8127043D01*
Y8130667D01*
X14786424D01*
Y8134291D01*
X14782800D01*
Y8137915D01*
Y8141539D01*
X14779176D01*
Y8145163D01*
Y8148787D01*
Y8152411D01*
X14775552D01*
Y8156035D01*
X14768304D01*
Y8159659D01*
X14764680D01*
Y8163283D01*
Y8166907D01*
X14746561D01*
Y8163283D01*
Y8159659D01*
Y8156035D01*
Y8152411D01*
Y8148787D01*
Y8145163D01*
Y8141539D01*
Y8137915D01*
Y8134291D01*
Y8130667D01*
Y8127043D01*
Y8123419D01*
Y8119795D01*
Y8116171D01*
X14750185D01*
Y8112547D01*
Y8108923D01*
Y8105300D01*
Y8101675D01*
X14757433D01*
Y8098051D01*
X14768304D01*
Y8094428D01*
Y8090803D01*
X14786424D01*
Y8087180D01*
Y8083556D01*
X14681329D01*
Y8087180D01*
X14684953D01*
Y8090803D01*
X14695825D01*
Y8094428D01*
Y8098051D01*
X14706697D01*
Y8101675D01*
Y8105300D01*
X14710321D01*
Y8108923D01*
Y8112547D01*
Y8116171D01*
Y8119795D01*
Y8123419D01*
Y8127043D01*
Y8130667D01*
X14713945D01*
Y8134291D01*
Y8137915D01*
Y8141539D01*
Y8145163D01*
Y8148787D01*
Y8152411D01*
Y8156035D01*
Y8159659D01*
Y8163283D01*
Y8166907D01*
Y8170531D01*
Y8174155D01*
Y8177779D01*
Y8181402D01*
Y8185027D01*
Y8188651D01*
Y8192274D01*
Y8195899D01*
Y8199522D01*
Y8203146D01*
Y8206770D01*
Y8210394D01*
Y8214018D01*
Y8217642D01*
Y8221266D01*
X14710321D01*
Y8224890D01*
Y8228514D01*
Y8232138D01*
Y8235762D01*
Y8239386D01*
Y8243010D01*
Y8246634D01*
X14699449D01*
Y8250258D01*
Y8253882D01*
X14695825D01*
Y8257506D01*
X14684953D01*
Y8261130D01*
X14681329D01*
Y8264754D01*
X14797296D01*
Y8261130D01*
D02*
G37*
G36*
X15406120Y7452986D02*
X15409744D01*
Y7449362D01*
X15413370D01*
Y7445738D01*
Y7442114D01*
Y7438491D01*
Y7434867D01*
Y7431243D01*
Y7427619D01*
Y7423995D01*
Y7420371D01*
Y7416747D01*
Y7413123D01*
Y7409499D01*
X15409744D01*
Y7405875D01*
X15406120D01*
Y7402251D01*
X15369882D01*
Y7405875D01*
Y7409499D01*
Y7413123D01*
X15395250D01*
Y7416747D01*
Y7420371D01*
X15398872D01*
Y7423995D01*
Y7427619D01*
Y7431243D01*
Y7434867D01*
Y7438491D01*
Y7442114D01*
X15395250D01*
Y7445738D01*
X15366258D01*
Y7442114D01*
X15359010D01*
Y7438491D01*
Y7434867D01*
Y7431243D01*
Y7427619D01*
Y7423995D01*
Y7420371D01*
Y7416747D01*
Y7413123D01*
Y7409499D01*
Y7405875D01*
Y7402251D01*
Y7398627D01*
Y7395003D01*
Y7391379D01*
Y7387755D01*
Y7384131D01*
Y7380507D01*
Y7376883D01*
Y7373259D01*
X15366258D01*
Y7369635D01*
X15409744D01*
Y7366011D01*
Y7362387D01*
Y7358763D01*
X15348138D01*
Y7362387D01*
X15344514D01*
Y7366011D01*
X15340891D01*
Y7369635D01*
Y7373259D01*
Y7376883D01*
Y7380507D01*
Y7384131D01*
Y7387755D01*
Y7391379D01*
Y7395003D01*
Y7398627D01*
Y7402251D01*
Y7405875D01*
Y7409499D01*
Y7413123D01*
Y7416747D01*
Y7420371D01*
Y7423995D01*
Y7427619D01*
Y7431243D01*
Y7434867D01*
Y7438491D01*
Y7442114D01*
Y7445738D01*
Y7449362D01*
X15344514D01*
Y7452986D01*
X15348138D01*
Y7456610D01*
X15406120D01*
Y7452986D01*
D02*
G37*
G36*
X14097871D02*
Y7449362D01*
X14101495D01*
Y7445738D01*
Y7442114D01*
X14105119D01*
Y7438491D01*
Y7434867D01*
Y7431243D01*
Y7427619D01*
Y7423995D01*
Y7420371D01*
Y7416747D01*
X14101495D01*
Y7413123D01*
Y7409499D01*
X14097871D01*
Y7405875D01*
Y7402251D01*
X14061632D01*
Y7405875D01*
Y7409499D01*
Y7413123D01*
X14083376D01*
Y7416747D01*
Y7420371D01*
X14087000D01*
Y7423995D01*
Y7427619D01*
Y7431243D01*
Y7434867D01*
Y7438491D01*
Y7442114D01*
X14083376D01*
Y7445738D01*
X14054384D01*
Y7442114D01*
X14050760D01*
Y7438491D01*
Y7434867D01*
Y7431243D01*
Y7427619D01*
Y7423995D01*
Y7420371D01*
Y7416747D01*
Y7413123D01*
Y7409499D01*
Y7405875D01*
Y7402251D01*
Y7398627D01*
Y7395003D01*
Y7391379D01*
Y7387755D01*
Y7384131D01*
Y7380507D01*
Y7376883D01*
Y7373259D01*
X14054384D01*
Y7369635D01*
X14097871D01*
Y7366011D01*
Y7362387D01*
Y7358763D01*
X14039888D01*
Y7362387D01*
X14036264D01*
Y7366011D01*
X14032640D01*
Y7369635D01*
Y7373259D01*
X14029016D01*
Y7376883D01*
Y7380507D01*
Y7384131D01*
Y7387755D01*
Y7391379D01*
Y7395003D01*
Y7398627D01*
Y7402251D01*
Y7405875D01*
Y7409499D01*
Y7413123D01*
Y7416747D01*
Y7420371D01*
Y7423995D01*
Y7427619D01*
Y7431243D01*
Y7434867D01*
Y7438491D01*
Y7442114D01*
X14032640D01*
Y7445738D01*
Y7449362D01*
X14036264D01*
Y7452986D01*
X14039888D01*
Y7456610D01*
X14097871D01*
Y7452986D01*
D02*
G37*
G36*
X13702859D02*
X13706483D01*
Y7449362D01*
X13710107D01*
Y7445738D01*
Y7442114D01*
X13713731D01*
Y7438491D01*
Y7434867D01*
Y7431243D01*
Y7427619D01*
Y7423995D01*
Y7420371D01*
Y7416747D01*
X13710107D01*
Y7413123D01*
Y7409499D01*
X13706483D01*
Y7405875D01*
X13702859D01*
Y7402251D01*
X13670244D01*
Y7405875D01*
Y7409499D01*
Y7413123D01*
X13691988D01*
Y7416747D01*
Y7420371D01*
X13695612D01*
Y7423995D01*
Y7427619D01*
Y7431243D01*
Y7434867D01*
Y7438491D01*
Y7442114D01*
X13691988D01*
Y7445738D01*
X13662996D01*
Y7442114D01*
X13659372D01*
Y7438491D01*
Y7434867D01*
Y7431243D01*
Y7427619D01*
Y7423995D01*
Y7420371D01*
Y7416747D01*
Y7413123D01*
Y7409499D01*
Y7405875D01*
Y7402251D01*
Y7398627D01*
Y7395003D01*
Y7391379D01*
Y7387755D01*
Y7384131D01*
Y7380507D01*
Y7376883D01*
Y7373259D01*
X13662996D01*
Y7369635D01*
X13706483D01*
Y7366011D01*
Y7362387D01*
Y7358763D01*
X13644876D01*
Y7362387D01*
Y7366011D01*
X13641252D01*
Y7369635D01*
Y7373259D01*
X13637628D01*
Y7376883D01*
Y7380507D01*
Y7384131D01*
Y7387755D01*
Y7391379D01*
Y7395003D01*
Y7398627D01*
Y7402251D01*
Y7405875D01*
Y7409499D01*
Y7413123D01*
Y7416747D01*
Y7420371D01*
Y7423995D01*
Y7427619D01*
Y7431243D01*
Y7434867D01*
Y7438491D01*
Y7442114D01*
X13641252D01*
Y7445738D01*
Y7449362D01*
X13644876D01*
Y7452986D01*
Y7456610D01*
X13702859D01*
Y7452986D01*
D02*
G37*
G36*
X15050974Y7481978D02*
Y7478354D01*
Y7474730D01*
Y7471106D01*
Y7467482D01*
Y7463858D01*
Y7460234D01*
Y7456610D01*
Y7452986D01*
Y7449362D01*
Y7445738D01*
Y7442114D01*
Y7438491D01*
Y7434867D01*
Y7431243D01*
Y7427619D01*
Y7423995D01*
Y7420371D01*
Y7416747D01*
Y7413123D01*
Y7409499D01*
Y7405875D01*
Y7402251D01*
Y7398627D01*
Y7395003D01*
Y7391379D01*
Y7387755D01*
Y7384131D01*
Y7380507D01*
Y7376883D01*
Y7373259D01*
Y7369635D01*
Y7366011D01*
Y7362387D01*
Y7358763D01*
X15036478D01*
Y7362387D01*
Y7366011D01*
Y7369635D01*
Y7373259D01*
Y7376883D01*
Y7380507D01*
Y7384131D01*
Y7387755D01*
Y7391379D01*
Y7395003D01*
Y7398627D01*
Y7402251D01*
Y7405875D01*
Y7409499D01*
Y7413123D01*
Y7416747D01*
Y7420371D01*
Y7423995D01*
Y7427619D01*
Y7431243D01*
Y7434867D01*
Y7438491D01*
Y7442114D01*
X15032854D01*
Y7438491D01*
Y7434867D01*
Y7431243D01*
Y7427619D01*
X15029230D01*
Y7423995D01*
Y7420371D01*
Y7416747D01*
Y7413123D01*
Y7409499D01*
Y7405875D01*
X15025604D01*
Y7402251D01*
Y7398627D01*
Y7395003D01*
X15021982D01*
Y7391379D01*
Y7387755D01*
Y7384131D01*
X15018358D01*
Y7380507D01*
Y7376883D01*
Y7373259D01*
X15014732D01*
Y7369635D01*
Y7366011D01*
Y7362387D01*
Y7358763D01*
X14996614D01*
Y7362387D01*
Y7366011D01*
Y7369635D01*
X14992990D01*
Y7373259D01*
Y7376883D01*
Y7380507D01*
X14989366D01*
Y7384131D01*
Y7387755D01*
Y7391379D01*
Y7395003D01*
Y7398627D01*
Y7402251D01*
X14985742D01*
Y7405875D01*
Y7409499D01*
Y7413123D01*
X14982118D01*
Y7416747D01*
Y7420371D01*
Y7423995D01*
X14978494D01*
Y7427619D01*
Y7431243D01*
Y7434867D01*
X14974870D01*
Y7431243D01*
Y7427619D01*
Y7423995D01*
Y7420371D01*
Y7416747D01*
Y7413123D01*
Y7409499D01*
Y7405875D01*
Y7402251D01*
Y7398627D01*
Y7395003D01*
Y7391379D01*
Y7387755D01*
Y7384131D01*
Y7380507D01*
Y7376883D01*
Y7373259D01*
Y7369635D01*
Y7366011D01*
Y7362387D01*
Y7358763D01*
X14960374D01*
Y7362387D01*
Y7366011D01*
Y7369635D01*
Y7373259D01*
Y7376883D01*
Y7380507D01*
Y7384131D01*
Y7387755D01*
Y7391379D01*
Y7395003D01*
Y7398627D01*
Y7402251D01*
Y7405875D01*
Y7409499D01*
Y7413123D01*
Y7416747D01*
Y7420371D01*
Y7423995D01*
Y7427619D01*
Y7431243D01*
Y7434867D01*
Y7438491D01*
Y7442114D01*
Y7445738D01*
Y7449362D01*
Y7452986D01*
Y7456610D01*
Y7460234D01*
Y7463858D01*
Y7467482D01*
Y7471106D01*
Y7474730D01*
Y7478354D01*
Y7481978D01*
Y7485602D01*
X14982118D01*
Y7481978D01*
Y7478354D01*
Y7474730D01*
Y7471106D01*
X14985742D01*
Y7467482D01*
Y7463858D01*
Y7460234D01*
X14989366D01*
Y7456610D01*
Y7452986D01*
Y7449362D01*
Y7445738D01*
Y7442114D01*
X14992990D01*
Y7438491D01*
Y7434867D01*
Y7431243D01*
Y7427619D01*
X14996614D01*
Y7423995D01*
Y7420371D01*
Y7416747D01*
X15000238D01*
Y7413123D01*
Y7409499D01*
Y7405875D01*
Y7402251D01*
Y7398627D01*
Y7395003D01*
X15003862D01*
Y7391379D01*
Y7387755D01*
X15007486D01*
Y7391379D01*
Y7395003D01*
Y7398627D01*
X15011110D01*
Y7402251D01*
Y7405875D01*
Y7409499D01*
X15014732D01*
Y7413123D01*
Y7416747D01*
Y7420371D01*
Y7423995D01*
Y7427619D01*
Y7431243D01*
X15018358D01*
Y7434867D01*
Y7438491D01*
Y7442114D01*
X15021982D01*
Y7445738D01*
Y7449362D01*
Y7452986D01*
Y7456610D01*
X15025604D01*
Y7460234D01*
Y7463858D01*
Y7467482D01*
X15029230D01*
Y7471106D01*
Y7474730D01*
Y7478354D01*
Y7481978D01*
Y7485602D01*
X15050974D01*
Y7481978D01*
D02*
G37*
G36*
X14431276Y7452986D02*
Y7449362D01*
X14427652D01*
Y7445738D01*
Y7442114D01*
X14424028D01*
Y7438491D01*
Y7434867D01*
Y7431243D01*
Y7427619D01*
X14420404D01*
Y7423995D01*
Y7420371D01*
Y7416747D01*
X14416780D01*
Y7413123D01*
Y7409499D01*
X14413156D01*
Y7405875D01*
Y7402251D01*
X14409532D01*
Y7398627D01*
Y7395003D01*
Y7391379D01*
Y7387755D01*
X14405908D01*
Y7384131D01*
Y7380507D01*
Y7376883D01*
X14402284D01*
Y7373259D01*
Y7369635D01*
X14398660D01*
Y7366011D01*
Y7362387D01*
Y7358763D01*
X14395036D01*
Y7355139D01*
Y7351515D01*
Y7347892D01*
Y7344268D01*
X14391412D01*
Y7340643D01*
Y7337020D01*
X14387788D01*
Y7333396D01*
Y7329772D01*
X14384164D01*
Y7326148D01*
Y7322524D01*
Y7318900D01*
X14380540D01*
Y7315276D01*
X14366045D01*
Y7318900D01*
Y7322524D01*
Y7326148D01*
X14369669D01*
Y7329772D01*
Y7333396D01*
X14373293D01*
Y7337020D01*
Y7340643D01*
Y7344268D01*
X14376917D01*
Y7347892D01*
Y7351515D01*
X14380540D01*
Y7355139D01*
Y7358763D01*
Y7362387D01*
Y7366011D01*
X14376917D01*
Y7369635D01*
Y7373259D01*
X14373293D01*
Y7376883D01*
Y7380507D01*
X14369669D01*
Y7384131D01*
Y7387755D01*
X14366045D01*
Y7391379D01*
Y7395003D01*
Y7398627D01*
Y7402251D01*
X14362421D01*
Y7405875D01*
Y7409499D01*
X14358797D01*
Y7413123D01*
Y7416747D01*
X14355173D01*
Y7420371D01*
Y7423995D01*
Y7427619D01*
Y7431243D01*
X14351549D01*
Y7434867D01*
Y7438491D01*
Y7442114D01*
X14347925D01*
Y7445738D01*
X14344301D01*
Y7449362D01*
Y7452986D01*
Y7456610D01*
X14366045D01*
Y7452986D01*
Y7449362D01*
Y7445738D01*
Y7442114D01*
X14369669D01*
Y7438491D01*
Y7434867D01*
X14373293D01*
Y7431243D01*
Y7427619D01*
X14376917D01*
Y7423995D01*
Y7420371D01*
X14380540D01*
Y7416747D01*
Y7413123D01*
Y7409499D01*
Y7405875D01*
Y7402251D01*
X14384164D01*
Y7398627D01*
Y7395003D01*
X14387788D01*
Y7391379D01*
Y7387755D01*
X14391412D01*
Y7384131D01*
X14395036D01*
Y7387755D01*
Y7391379D01*
Y7395003D01*
Y7398627D01*
Y7402251D01*
X14398660D01*
Y7405875D01*
Y7409499D01*
X14402284D01*
Y7413123D01*
Y7416747D01*
X14405908D01*
Y7420371D01*
Y7423995D01*
Y7427619D01*
X14409532D01*
Y7431243D01*
Y7434867D01*
Y7438491D01*
Y7442114D01*
X14413156D01*
Y7445738D01*
Y7449362D01*
X14416780D01*
Y7452986D01*
Y7456610D01*
X14431276D01*
Y7452986D01*
D02*
G37*
G36*
X15721407Y7481978D02*
Y7478354D01*
Y7474730D01*
Y7471106D01*
Y7467482D01*
Y7463858D01*
Y7460234D01*
Y7456610D01*
Y7452986D01*
Y7449362D01*
Y7445738D01*
Y7442114D01*
Y7438491D01*
Y7434867D01*
Y7431243D01*
Y7427619D01*
Y7423995D01*
Y7420371D01*
Y7416747D01*
Y7413123D01*
Y7409499D01*
Y7405875D01*
Y7402251D01*
Y7398627D01*
Y7395003D01*
Y7391379D01*
Y7387755D01*
Y7384131D01*
Y7380507D01*
Y7376883D01*
Y7373259D01*
Y7369635D01*
Y7366011D01*
Y7362387D01*
Y7358763D01*
X15652551D01*
Y7362387D01*
Y7366011D01*
Y7369635D01*
X15648927D01*
Y7373259D01*
Y7376883D01*
X15645303D01*
Y7380507D01*
Y7384131D01*
Y7387755D01*
Y7391379D01*
Y7395003D01*
Y7398627D01*
Y7402251D01*
Y7405875D01*
Y7409499D01*
Y7413123D01*
Y7416747D01*
Y7420371D01*
Y7423995D01*
Y7427619D01*
Y7431243D01*
Y7434867D01*
Y7438491D01*
X15648927D01*
Y7442114D01*
Y7445738D01*
X15652551D01*
Y7449362D01*
Y7452986D01*
Y7456610D01*
X15692413D01*
Y7452986D01*
Y7449362D01*
Y7445738D01*
X15670671D01*
Y7442114D01*
X15667047D01*
Y7438491D01*
Y7434867D01*
Y7431243D01*
Y7427619D01*
Y7423995D01*
Y7420371D01*
Y7416747D01*
Y7413123D01*
Y7409499D01*
Y7405875D01*
Y7402251D01*
Y7398627D01*
Y7395003D01*
Y7391379D01*
Y7387755D01*
Y7384131D01*
Y7380507D01*
Y7376883D01*
Y7373259D01*
X15674295D01*
Y7369635D01*
X15703287D01*
Y7373259D01*
Y7376883D01*
Y7380507D01*
Y7384131D01*
Y7387755D01*
Y7391379D01*
Y7395003D01*
Y7398627D01*
Y7402251D01*
Y7405875D01*
Y7409499D01*
Y7413123D01*
Y7416747D01*
Y7420371D01*
Y7423995D01*
Y7427619D01*
Y7431243D01*
Y7434867D01*
Y7438491D01*
Y7442114D01*
Y7445738D01*
Y7449362D01*
Y7452986D01*
Y7456610D01*
Y7460234D01*
Y7463858D01*
Y7467482D01*
Y7471106D01*
Y7474730D01*
Y7478354D01*
Y7481978D01*
Y7485602D01*
X15721407D01*
Y7481978D01*
D02*
G37*
G36*
X15536584Y7452986D02*
X15540208D01*
Y7449362D01*
Y7445738D01*
Y7442114D01*
Y7438491D01*
Y7434867D01*
X15543832D01*
Y7431243D01*
Y7427619D01*
Y7423995D01*
Y7420371D01*
Y7416747D01*
Y7413123D01*
Y7409499D01*
Y7405875D01*
Y7402251D01*
Y7398627D01*
Y7395003D01*
Y7391379D01*
Y7387755D01*
Y7384131D01*
Y7380507D01*
Y7376883D01*
Y7373259D01*
Y7369635D01*
Y7366011D01*
Y7362387D01*
Y7358763D01*
X15478601D01*
Y7362387D01*
X15474977D01*
Y7366011D01*
Y7369635D01*
X15471353D01*
Y7373259D01*
Y7376883D01*
X15467729D01*
Y7380507D01*
Y7384131D01*
Y7387755D01*
Y7391379D01*
Y7395003D01*
Y7398627D01*
X15471353D01*
Y7402251D01*
Y7405875D01*
X15474977D01*
Y7409499D01*
Y7413123D01*
X15482225D01*
Y7416747D01*
X15514841D01*
Y7413123D01*
Y7409499D01*
Y7405875D01*
X15493097D01*
Y7402251D01*
X15489471D01*
Y7398627D01*
Y7395003D01*
X15485849D01*
Y7391379D01*
Y7387755D01*
Y7384131D01*
X15489471D01*
Y7380507D01*
Y7376883D01*
Y7373259D01*
X15493097D01*
Y7369635D01*
X15525713D01*
Y7373259D01*
Y7376883D01*
Y7380507D01*
Y7384131D01*
Y7387755D01*
Y7391379D01*
Y7395003D01*
Y7398627D01*
Y7402251D01*
Y7405875D01*
Y7409499D01*
Y7413123D01*
Y7416747D01*
Y7420371D01*
Y7423995D01*
Y7427619D01*
Y7431243D01*
Y7434867D01*
Y7438491D01*
Y7442114D01*
X15518465D01*
Y7445738D01*
X15485849D01*
Y7449362D01*
Y7452986D01*
Y7456610D01*
X15536584D01*
Y7452986D01*
D02*
G37*
G36*
X15326395D02*
Y7449362D01*
Y7445738D01*
Y7442114D01*
Y7438491D01*
Y7434867D01*
Y7431243D01*
Y7427619D01*
Y7423995D01*
Y7420371D01*
Y7416747D01*
Y7413123D01*
Y7409499D01*
Y7405875D01*
Y7402251D01*
Y7398627D01*
Y7395003D01*
Y7391379D01*
Y7387755D01*
Y7384131D01*
Y7380507D01*
Y7376883D01*
Y7373259D01*
Y7369635D01*
Y7366011D01*
Y7362387D01*
Y7358763D01*
X15257539D01*
Y7362387D01*
X15253915D01*
Y7366011D01*
X15250291D01*
Y7369635D01*
Y7373259D01*
X15246667D01*
Y7376883D01*
Y7380507D01*
Y7384131D01*
Y7387755D01*
Y7391379D01*
Y7395003D01*
Y7398627D01*
Y7402251D01*
Y7405875D01*
Y7409499D01*
Y7413123D01*
Y7416747D01*
Y7420371D01*
Y7423995D01*
Y7427619D01*
Y7431243D01*
Y7434867D01*
Y7438491D01*
Y7442114D01*
Y7445738D01*
Y7449362D01*
Y7452986D01*
Y7456610D01*
X15264787D01*
Y7452986D01*
Y7449362D01*
Y7445738D01*
Y7442114D01*
Y7438491D01*
Y7434867D01*
Y7431243D01*
Y7427619D01*
Y7423995D01*
Y7420371D01*
Y7416747D01*
Y7413123D01*
Y7409499D01*
Y7405875D01*
Y7402251D01*
Y7398627D01*
Y7395003D01*
Y7391379D01*
Y7387755D01*
X15268411D01*
Y7384131D01*
Y7380507D01*
Y7376883D01*
Y7373259D01*
X15272035D01*
Y7369635D01*
X15304651D01*
Y7373259D01*
Y7376883D01*
Y7380507D01*
Y7384131D01*
Y7387755D01*
Y7391379D01*
Y7395003D01*
Y7398627D01*
Y7402251D01*
Y7405875D01*
Y7409499D01*
Y7413123D01*
Y7416747D01*
Y7420371D01*
Y7423995D01*
Y7427619D01*
Y7431243D01*
Y7434867D01*
Y7438491D01*
Y7442114D01*
Y7445738D01*
Y7449362D01*
Y7452986D01*
Y7456610D01*
X15326395D01*
Y7452986D01*
D02*
G37*
G36*
X14800920D02*
X14804544D01*
Y7449362D01*
Y7445738D01*
Y7442114D01*
Y7438491D01*
Y7434867D01*
X14808168D01*
Y7431243D01*
Y7427619D01*
Y7423995D01*
Y7420371D01*
Y7416747D01*
Y7413123D01*
Y7409499D01*
Y7405875D01*
Y7402251D01*
Y7398627D01*
Y7395003D01*
Y7391379D01*
Y7387755D01*
Y7384131D01*
Y7380507D01*
Y7376883D01*
Y7373259D01*
Y7369635D01*
Y7366011D01*
Y7362387D01*
Y7358763D01*
X14742937D01*
Y7362387D01*
X14739313D01*
Y7366011D01*
Y7369635D01*
X14735689D01*
Y7373259D01*
Y7376883D01*
X14732065D01*
Y7380507D01*
Y7384131D01*
Y7387755D01*
Y7391379D01*
Y7395003D01*
Y7398627D01*
X14735689D01*
Y7402251D01*
Y7405875D01*
X14739313D01*
Y7409499D01*
Y7413123D01*
X14746561D01*
Y7416747D01*
X14779176D01*
Y7413123D01*
Y7409499D01*
Y7405875D01*
X14757433D01*
Y7402251D01*
X14753809D01*
Y7398627D01*
Y7395003D01*
X14750185D01*
Y7391379D01*
Y7387755D01*
Y7384131D01*
X14753809D01*
Y7380507D01*
Y7376883D01*
Y7373259D01*
X14757433D01*
Y7369635D01*
X14790048D01*
Y7373259D01*
Y7376883D01*
Y7380507D01*
Y7384131D01*
Y7387755D01*
Y7391379D01*
Y7395003D01*
Y7398627D01*
Y7402251D01*
Y7405875D01*
Y7409499D01*
Y7413123D01*
Y7416747D01*
Y7420371D01*
Y7423995D01*
Y7427619D01*
Y7431243D01*
Y7434867D01*
Y7438491D01*
Y7442114D01*
X14782800D01*
Y7445738D01*
X14750185D01*
Y7449362D01*
Y7452986D01*
Y7456610D01*
X14800920D01*
Y7452986D01*
D02*
G37*
G36*
X14721193D02*
Y7449362D01*
Y7445738D01*
Y7442114D01*
Y7438491D01*
Y7434867D01*
Y7431243D01*
Y7427619D01*
Y7423995D01*
Y7420371D01*
Y7416747D01*
Y7413123D01*
Y7409499D01*
Y7405875D01*
Y7402251D01*
Y7398627D01*
Y7395003D01*
Y7391379D01*
Y7387755D01*
Y7384131D01*
Y7380507D01*
Y7376883D01*
Y7373259D01*
Y7369635D01*
Y7366011D01*
Y7362387D01*
Y7358763D01*
X14652338D01*
Y7362387D01*
X14648714D01*
Y7366011D01*
Y7369635D01*
Y7373259D01*
X14645090D01*
Y7376883D01*
Y7380507D01*
Y7384131D01*
Y7387755D01*
Y7391379D01*
Y7395003D01*
Y7398627D01*
Y7402251D01*
Y7405875D01*
Y7409499D01*
Y7413123D01*
Y7416747D01*
Y7420371D01*
Y7423995D01*
Y7427619D01*
Y7431243D01*
Y7434867D01*
Y7438491D01*
Y7442114D01*
Y7445738D01*
Y7449362D01*
Y7452986D01*
Y7456610D01*
X14663210D01*
Y7452986D01*
Y7449362D01*
Y7445738D01*
Y7442114D01*
Y7438491D01*
Y7434867D01*
Y7431243D01*
Y7427619D01*
Y7423995D01*
Y7420371D01*
Y7416747D01*
Y7413123D01*
Y7409499D01*
Y7405875D01*
Y7402251D01*
Y7398627D01*
Y7395003D01*
Y7391379D01*
Y7387755D01*
Y7384131D01*
Y7380507D01*
Y7376883D01*
Y7373259D01*
X14670457D01*
Y7369635D01*
X14703073D01*
Y7373259D01*
Y7376883D01*
Y7380507D01*
Y7384131D01*
Y7387755D01*
Y7391379D01*
Y7395003D01*
Y7398627D01*
Y7402251D01*
Y7405875D01*
Y7409499D01*
Y7413123D01*
Y7416747D01*
Y7420371D01*
Y7423995D01*
Y7427619D01*
Y7431243D01*
Y7434867D01*
Y7438491D01*
Y7442114D01*
Y7445738D01*
Y7449362D01*
Y7452986D01*
Y7456610D01*
X14721193D01*
Y7452986D01*
D02*
G37*
G36*
X14195718Y7481978D02*
Y7478354D01*
Y7474730D01*
Y7471106D01*
Y7467482D01*
Y7463858D01*
Y7460234D01*
Y7456610D01*
Y7452986D01*
Y7449362D01*
Y7445738D01*
Y7442114D01*
Y7438491D01*
Y7434867D01*
Y7431243D01*
Y7427619D01*
Y7423995D01*
Y7420371D01*
Y7416747D01*
Y7413123D01*
Y7409499D01*
Y7405875D01*
Y7402251D01*
Y7398627D01*
Y7395003D01*
Y7391379D01*
Y7387755D01*
Y7384131D01*
Y7380507D01*
Y7376883D01*
Y7373259D01*
Y7369635D01*
Y7366011D01*
Y7362387D01*
Y7358763D01*
X14126863D01*
Y7362387D01*
Y7366011D01*
Y7369635D01*
X14123239D01*
Y7373259D01*
Y7376883D01*
X14119615D01*
Y7380507D01*
Y7384131D01*
Y7387755D01*
Y7391379D01*
Y7395003D01*
Y7398627D01*
Y7402251D01*
Y7405875D01*
Y7409499D01*
Y7413123D01*
Y7416747D01*
Y7420371D01*
Y7423995D01*
Y7427619D01*
Y7431243D01*
Y7434867D01*
Y7438491D01*
X14123239D01*
Y7442114D01*
Y7445738D01*
X14126863D01*
Y7449362D01*
Y7452986D01*
Y7456610D01*
X14166727D01*
Y7452986D01*
Y7449362D01*
Y7445738D01*
X14144983D01*
Y7442114D01*
X14141359D01*
Y7438491D01*
Y7434867D01*
Y7431243D01*
Y7427619D01*
Y7423995D01*
Y7420371D01*
Y7416747D01*
Y7413123D01*
Y7409499D01*
Y7405875D01*
Y7402251D01*
Y7398627D01*
Y7395003D01*
Y7391379D01*
Y7387755D01*
Y7384131D01*
Y7380507D01*
Y7376883D01*
Y7373259D01*
X14148607D01*
Y7369635D01*
X14177599D01*
Y7373259D01*
Y7376883D01*
Y7380507D01*
Y7384131D01*
Y7387755D01*
Y7391379D01*
Y7395003D01*
Y7398627D01*
Y7402251D01*
Y7405875D01*
Y7409499D01*
Y7413123D01*
Y7416747D01*
Y7420371D01*
Y7423995D01*
Y7427619D01*
Y7431243D01*
Y7434867D01*
Y7438491D01*
Y7442114D01*
Y7445738D01*
Y7449362D01*
Y7452986D01*
Y7456610D01*
Y7460234D01*
Y7463858D01*
Y7467482D01*
Y7471106D01*
Y7474730D01*
Y7478354D01*
Y7481978D01*
Y7485602D01*
X14195718D01*
Y7481978D01*
D02*
G37*
G36*
X15627184Y7452986D02*
X15630807D01*
Y7449362D01*
Y7445738D01*
X15634431D01*
Y7442114D01*
Y7438491D01*
Y7434867D01*
Y7431243D01*
Y7427619D01*
Y7423995D01*
Y7420371D01*
Y7416747D01*
Y7413123D01*
Y7409499D01*
Y7405875D01*
Y7402251D01*
Y7398627D01*
Y7395003D01*
Y7391379D01*
Y7387755D01*
Y7384131D01*
Y7380507D01*
Y7376883D01*
Y7373259D01*
Y7369635D01*
Y7366011D01*
Y7362387D01*
Y7358763D01*
X15616312D01*
Y7362387D01*
Y7366011D01*
Y7369635D01*
Y7373259D01*
Y7376883D01*
Y7380507D01*
Y7384131D01*
Y7387755D01*
Y7391379D01*
Y7395003D01*
Y7398627D01*
Y7402251D01*
Y7405875D01*
Y7409499D01*
Y7413123D01*
Y7416747D01*
Y7420371D01*
Y7423995D01*
Y7427619D01*
Y7431243D01*
Y7434867D01*
X15612688D01*
Y7438491D01*
Y7442114D01*
Y7445738D01*
X15576448D01*
Y7442114D01*
Y7438491D01*
Y7434867D01*
Y7431243D01*
Y7427619D01*
Y7423995D01*
Y7420371D01*
Y7416747D01*
Y7413123D01*
Y7409499D01*
Y7405875D01*
Y7402251D01*
Y7398627D01*
Y7395003D01*
Y7391379D01*
Y7387755D01*
Y7384131D01*
Y7380507D01*
Y7376883D01*
Y7373259D01*
Y7369635D01*
Y7366011D01*
Y7362387D01*
Y7358763D01*
X15554704D01*
Y7362387D01*
Y7366011D01*
Y7369635D01*
Y7373259D01*
Y7376883D01*
Y7380507D01*
Y7384131D01*
Y7387755D01*
Y7391379D01*
Y7395003D01*
Y7398627D01*
Y7402251D01*
Y7405875D01*
Y7409499D01*
Y7413123D01*
Y7416747D01*
Y7420371D01*
Y7423995D01*
Y7427619D01*
Y7431243D01*
Y7434867D01*
Y7438491D01*
Y7442114D01*
Y7445738D01*
Y7449362D01*
Y7452986D01*
Y7456610D01*
X15627184D01*
Y7452986D01*
D02*
G37*
G36*
X15152444D02*
Y7449362D01*
Y7445738D01*
X15130701D01*
Y7442114D01*
X15127077D01*
Y7438491D01*
Y7434867D01*
Y7431243D01*
Y7427619D01*
X15123453D01*
Y7423995D01*
Y7420371D01*
Y7416747D01*
Y7413123D01*
Y7409499D01*
Y7405875D01*
Y7402251D01*
Y7398627D01*
Y7395003D01*
Y7391379D01*
Y7387755D01*
Y7384131D01*
Y7380507D01*
Y7376883D01*
Y7373259D01*
Y7369635D01*
Y7366011D01*
Y7362387D01*
Y7358763D01*
X15105333D01*
Y7362387D01*
Y7366011D01*
Y7369635D01*
Y7373259D01*
Y7376883D01*
Y7380507D01*
Y7384131D01*
Y7387755D01*
Y7391379D01*
Y7395003D01*
Y7398627D01*
Y7402251D01*
Y7405875D01*
Y7409499D01*
Y7413123D01*
Y7416747D01*
Y7420371D01*
Y7423995D01*
Y7427619D01*
Y7431243D01*
Y7434867D01*
Y7438491D01*
Y7442114D01*
X15108957D01*
Y7445738D01*
X15112581D01*
Y7449362D01*
X15116203D01*
Y7452986D01*
Y7456610D01*
X15152444D01*
Y7452986D01*
D02*
G37*
G36*
X15090837D02*
Y7449362D01*
Y7445738D01*
Y7442114D01*
Y7438491D01*
Y7434867D01*
Y7431243D01*
Y7427619D01*
Y7423995D01*
Y7420371D01*
Y7416747D01*
Y7413123D01*
Y7409499D01*
Y7405875D01*
Y7402251D01*
Y7398627D01*
Y7395003D01*
Y7391379D01*
Y7387755D01*
Y7384131D01*
Y7380507D01*
Y7376883D01*
Y7373259D01*
Y7369635D01*
Y7366011D01*
Y7362387D01*
Y7358763D01*
X15072717D01*
Y7362387D01*
Y7366011D01*
Y7369635D01*
Y7373259D01*
Y7376883D01*
Y7380507D01*
Y7384131D01*
Y7387755D01*
Y7391379D01*
Y7395003D01*
Y7398627D01*
Y7402251D01*
Y7405875D01*
Y7409499D01*
Y7413123D01*
Y7416747D01*
Y7420371D01*
Y7423995D01*
Y7427619D01*
Y7431243D01*
Y7434867D01*
Y7438491D01*
Y7442114D01*
Y7445738D01*
Y7449362D01*
Y7452986D01*
Y7456610D01*
X15090837D01*
Y7452986D01*
D02*
G37*
G36*
X14891519D02*
X14895143D01*
Y7449362D01*
Y7445738D01*
X14898767D01*
Y7442114D01*
Y7438491D01*
Y7434867D01*
Y7431243D01*
Y7427619D01*
Y7423995D01*
Y7420371D01*
Y7416747D01*
Y7413123D01*
Y7409499D01*
Y7405875D01*
Y7402251D01*
Y7398627D01*
Y7395003D01*
Y7391379D01*
Y7387755D01*
Y7384131D01*
Y7380507D01*
Y7376883D01*
Y7373259D01*
Y7369635D01*
Y7366011D01*
Y7362387D01*
Y7358763D01*
X14880647D01*
Y7362387D01*
Y7366011D01*
Y7369635D01*
Y7373259D01*
Y7376883D01*
Y7380507D01*
Y7384131D01*
Y7387755D01*
Y7391379D01*
Y7395003D01*
Y7398627D01*
Y7402251D01*
Y7405875D01*
Y7409499D01*
Y7413123D01*
Y7416747D01*
Y7420371D01*
Y7423995D01*
Y7427619D01*
Y7431243D01*
Y7434867D01*
X14877023D01*
Y7438491D01*
Y7442114D01*
X14873399D01*
Y7445738D01*
X14840784D01*
Y7442114D01*
Y7438491D01*
Y7434867D01*
Y7431243D01*
Y7427619D01*
Y7423995D01*
Y7420371D01*
Y7416747D01*
Y7413123D01*
Y7409499D01*
Y7405875D01*
Y7402251D01*
Y7398627D01*
Y7395003D01*
Y7391379D01*
Y7387755D01*
Y7384131D01*
Y7380507D01*
Y7376883D01*
Y7373259D01*
Y7369635D01*
Y7366011D01*
Y7362387D01*
Y7358763D01*
X14819040D01*
Y7362387D01*
Y7366011D01*
Y7369635D01*
Y7373259D01*
Y7376883D01*
Y7380507D01*
Y7384131D01*
Y7387755D01*
Y7391379D01*
Y7395003D01*
Y7398627D01*
Y7402251D01*
Y7405875D01*
Y7409499D01*
Y7413123D01*
Y7416747D01*
Y7420371D01*
Y7423995D01*
Y7427619D01*
Y7431243D01*
Y7434867D01*
Y7438491D01*
Y7442114D01*
Y7445738D01*
Y7449362D01*
Y7452986D01*
Y7456610D01*
X14891519D01*
Y7452986D01*
D02*
G37*
G36*
X14630594Y7481978D02*
Y7478354D01*
Y7474730D01*
Y7471106D01*
Y7467482D01*
Y7463858D01*
Y7460234D01*
Y7456610D01*
Y7452986D01*
Y7449362D01*
Y7445738D01*
Y7442114D01*
Y7438491D01*
Y7434867D01*
Y7431243D01*
Y7427619D01*
Y7423995D01*
Y7420371D01*
Y7416747D01*
Y7413123D01*
Y7409499D01*
Y7405875D01*
Y7402251D01*
Y7398627D01*
Y7395003D01*
Y7391379D01*
Y7387755D01*
Y7384131D01*
Y7380507D01*
Y7376883D01*
X14626970D01*
Y7373259D01*
Y7369635D01*
X14623346D01*
Y7366011D01*
X14619722D01*
Y7362387D01*
Y7358763D01*
X14561739D01*
Y7362387D01*
Y7366011D01*
Y7369635D01*
X14605226D01*
Y7373259D01*
X14608850D01*
Y7376883D01*
Y7380507D01*
Y7384131D01*
X14612474D01*
Y7387755D01*
Y7391379D01*
Y7395003D01*
Y7398627D01*
Y7402251D01*
Y7405875D01*
Y7409499D01*
Y7413123D01*
Y7416747D01*
Y7420371D01*
Y7423995D01*
Y7427619D01*
Y7431243D01*
Y7434867D01*
Y7438491D01*
Y7442114D01*
Y7445738D01*
Y7449362D01*
Y7452986D01*
Y7456610D01*
Y7460234D01*
Y7463858D01*
Y7467482D01*
Y7471106D01*
X14597978D01*
Y7474730D01*
Y7478354D01*
Y7481978D01*
Y7485602D01*
X14630594D01*
Y7481978D01*
D02*
G37*
G36*
X14279070D02*
Y7478354D01*
Y7474730D01*
Y7471106D01*
Y7467482D01*
Y7463858D01*
Y7460234D01*
Y7456610D01*
Y7452986D01*
Y7449362D01*
Y7445738D01*
Y7442114D01*
Y7438491D01*
Y7434867D01*
Y7431243D01*
Y7427619D01*
Y7423995D01*
Y7420371D01*
Y7416747D01*
Y7413123D01*
Y7409499D01*
Y7405875D01*
Y7402251D01*
Y7398627D01*
Y7395003D01*
Y7391379D01*
Y7387755D01*
Y7384131D01*
Y7380507D01*
Y7376883D01*
Y7373259D01*
Y7369635D01*
X14311685D01*
Y7373259D01*
X14315309D01*
Y7376883D01*
Y7380507D01*
Y7384131D01*
Y7387755D01*
Y7391379D01*
Y7395003D01*
Y7398627D01*
Y7402251D01*
Y7405875D01*
Y7409499D01*
Y7413123D01*
Y7416747D01*
Y7420371D01*
Y7423995D01*
Y7427619D01*
Y7431243D01*
Y7434867D01*
Y7438491D01*
Y7442114D01*
X14311685D01*
Y7445738D01*
X14286317D01*
Y7449362D01*
Y7452986D01*
Y7456610D01*
X14326181D01*
Y7452986D01*
X14329805D01*
Y7449362D01*
X14333429D01*
Y7445738D01*
Y7442114D01*
X14337053D01*
Y7438491D01*
Y7434867D01*
Y7431243D01*
Y7427619D01*
Y7423995D01*
Y7420371D01*
Y7416747D01*
Y7413123D01*
Y7409499D01*
Y7405875D01*
Y7402251D01*
Y7398627D01*
Y7395003D01*
Y7391379D01*
Y7387755D01*
Y7384131D01*
Y7380507D01*
Y7376883D01*
Y7373259D01*
X14333429D01*
Y7369635D01*
Y7366011D01*
X14329805D01*
Y7362387D01*
X14326181D01*
Y7358763D01*
X14257326D01*
Y7362387D01*
Y7366011D01*
Y7369635D01*
Y7373259D01*
Y7376883D01*
Y7380507D01*
Y7384131D01*
Y7387755D01*
Y7391379D01*
Y7395003D01*
Y7398627D01*
Y7402251D01*
Y7405875D01*
Y7409499D01*
Y7413123D01*
Y7416747D01*
Y7420371D01*
Y7423995D01*
Y7427619D01*
Y7431243D01*
Y7434867D01*
Y7438491D01*
Y7442114D01*
Y7445738D01*
Y7449362D01*
Y7452986D01*
Y7456610D01*
Y7460234D01*
Y7463858D01*
Y7467482D01*
Y7471106D01*
Y7474730D01*
Y7478354D01*
Y7481978D01*
Y7485602D01*
X14279070D01*
Y7481978D01*
D02*
G37*
G36*
X14014520Y7452986D02*
Y7449362D01*
Y7445738D01*
X14018144D01*
Y7442114D01*
Y7438491D01*
Y7434867D01*
Y7431243D01*
Y7427619D01*
Y7423995D01*
Y7420371D01*
Y7416747D01*
Y7413123D01*
Y7409499D01*
Y7405875D01*
Y7402251D01*
Y7398627D01*
Y7395003D01*
Y7391379D01*
Y7387755D01*
Y7384131D01*
Y7380507D01*
Y7376883D01*
Y7373259D01*
Y7369635D01*
Y7366011D01*
Y7362387D01*
Y7358763D01*
X14000024D01*
Y7362387D01*
Y7366011D01*
Y7369635D01*
Y7373259D01*
Y7376883D01*
Y7380507D01*
Y7384131D01*
Y7387755D01*
Y7391379D01*
Y7395003D01*
Y7398627D01*
Y7402251D01*
Y7405875D01*
Y7409499D01*
Y7413123D01*
Y7416747D01*
Y7420371D01*
Y7423995D01*
Y7427619D01*
Y7431243D01*
Y7434867D01*
Y7438491D01*
Y7442114D01*
X13996400D01*
Y7445738D01*
X13960161D01*
Y7442114D01*
Y7438491D01*
Y7434867D01*
Y7431243D01*
Y7427619D01*
Y7423995D01*
Y7420371D01*
Y7416747D01*
Y7413123D01*
Y7409499D01*
Y7405875D01*
Y7402251D01*
Y7398627D01*
Y7395003D01*
Y7391379D01*
Y7387755D01*
Y7384131D01*
Y7380507D01*
Y7376883D01*
Y7373259D01*
Y7369635D01*
Y7366011D01*
Y7362387D01*
Y7358763D01*
X13942041D01*
Y7362387D01*
Y7366011D01*
Y7369635D01*
Y7373259D01*
Y7376883D01*
Y7380507D01*
Y7384131D01*
Y7387755D01*
Y7391379D01*
Y7395003D01*
Y7398627D01*
Y7402251D01*
Y7405875D01*
Y7409499D01*
Y7413123D01*
Y7416747D01*
Y7420371D01*
Y7423995D01*
Y7427619D01*
Y7431243D01*
Y7434867D01*
Y7438491D01*
Y7442114D01*
Y7445738D01*
Y7449362D01*
Y7452986D01*
Y7456610D01*
X14014520D01*
Y7452986D01*
D02*
G37*
G36*
X13829698D02*
Y7449362D01*
Y7445738D01*
Y7442114D01*
Y7438491D01*
Y7434867D01*
Y7431243D01*
Y7427619D01*
Y7423995D01*
Y7420371D01*
Y7416747D01*
Y7413123D01*
Y7409499D01*
Y7405875D01*
Y7402251D01*
Y7398627D01*
Y7395003D01*
Y7391379D01*
Y7387755D01*
Y7384131D01*
Y7380507D01*
Y7376883D01*
Y7373259D01*
Y7369635D01*
Y7366011D01*
Y7362387D01*
Y7358763D01*
X13811578D01*
Y7362387D01*
Y7366011D01*
Y7369635D01*
Y7373259D01*
Y7376883D01*
Y7380507D01*
Y7384131D01*
Y7387755D01*
Y7391379D01*
Y7395003D01*
Y7398627D01*
Y7402251D01*
Y7405875D01*
Y7409499D01*
Y7413123D01*
Y7416747D01*
Y7420371D01*
Y7423995D01*
Y7427619D01*
Y7431243D01*
Y7434867D01*
Y7438491D01*
Y7442114D01*
Y7445738D01*
Y7449362D01*
Y7452986D01*
Y7456610D01*
X13829698D01*
Y7452986D01*
D02*
G37*
G36*
X13786211D02*
Y7449362D01*
Y7445738D01*
X13746347D01*
Y7442114D01*
X13742723D01*
Y7438491D01*
Y7434867D01*
Y7431243D01*
Y7427619D01*
Y7423995D01*
Y7420371D01*
X13746347D01*
Y7416747D01*
X13749971D01*
Y7413123D01*
X13793459D01*
Y7409499D01*
X13797083D01*
Y7405875D01*
Y7402251D01*
X13800706D01*
Y7398627D01*
Y7395003D01*
Y7391379D01*
Y7387755D01*
Y7384131D01*
Y7380507D01*
Y7376883D01*
Y7373259D01*
Y7369635D01*
X13797083D01*
Y7366011D01*
Y7362387D01*
X13793459D01*
Y7358763D01*
X13735475D01*
Y7362387D01*
Y7366011D01*
Y7369635D01*
X13778963D01*
Y7373259D01*
X13782587D01*
Y7376883D01*
X13786211D01*
Y7380507D01*
Y7384131D01*
Y7387755D01*
Y7391379D01*
X13782587D01*
Y7395003D01*
Y7398627D01*
X13778963D01*
Y7402251D01*
X13735475D01*
Y7405875D01*
X13731851D01*
Y7409499D01*
Y7413123D01*
Y7416747D01*
Y7420371D01*
X13728227D01*
Y7423995D01*
Y7427619D01*
Y7431243D01*
Y7434867D01*
Y7438491D01*
Y7442114D01*
X13731851D01*
Y7445738D01*
Y7449362D01*
Y7452986D01*
X13735475D01*
Y7456610D01*
X13786211D01*
Y7452986D01*
D02*
G37*
G36*
X13590517Y7481978D02*
X13597765D01*
Y7478354D01*
Y7474730D01*
Y7471106D01*
X13601389D01*
Y7467482D01*
X13605013D01*
Y7463858D01*
Y7460234D01*
Y7456610D01*
Y7452986D01*
Y7449362D01*
Y7445738D01*
Y7442114D01*
Y7438491D01*
Y7434867D01*
Y7431243D01*
Y7427619D01*
Y7423995D01*
Y7420371D01*
Y7416747D01*
Y7413123D01*
Y7409499D01*
Y7405875D01*
Y7402251D01*
Y7398627D01*
Y7395003D01*
Y7391379D01*
Y7387755D01*
Y7384131D01*
Y7380507D01*
Y7376883D01*
Y7373259D01*
X13601389D01*
Y7369635D01*
X13597765D01*
Y7366011D01*
Y7362387D01*
Y7358763D01*
X13528909D01*
Y7362387D01*
Y7366011D01*
Y7369635D01*
Y7373259D01*
Y7376883D01*
Y7380507D01*
Y7384131D01*
Y7387755D01*
Y7391379D01*
Y7395003D01*
Y7398627D01*
Y7402251D01*
Y7405875D01*
Y7409499D01*
Y7413123D01*
Y7416747D01*
Y7420371D01*
Y7423995D01*
Y7427619D01*
Y7431243D01*
Y7434867D01*
Y7438491D01*
Y7442114D01*
Y7445738D01*
Y7449362D01*
Y7452986D01*
Y7456610D01*
Y7460234D01*
Y7463858D01*
Y7467482D01*
Y7471106D01*
Y7474730D01*
Y7478354D01*
Y7481978D01*
Y7485602D01*
X13590517D01*
Y7481978D01*
D02*
G37*
G36*
X14460268Y7369635D02*
X14463892D01*
Y7366011D01*
Y7362387D01*
Y7358763D01*
X14460268D01*
Y7355139D01*
X14456644D01*
Y7351515D01*
X14453020D01*
Y7355139D01*
Y7358763D01*
X14449396D01*
Y7362387D01*
Y7366011D01*
Y7369635D01*
X14453020D01*
Y7373259D01*
X14460268D01*
Y7369635D01*
D02*
G37*
G36*
X15239420Y7452986D02*
Y7449362D01*
Y7445738D01*
Y7442114D01*
Y7438491D01*
Y7434867D01*
Y7431243D01*
Y7427619D01*
Y7423995D01*
Y7420371D01*
Y7416747D01*
Y7413123D01*
Y7409499D01*
Y7405875D01*
Y7402251D01*
Y7398627D01*
Y7395003D01*
Y7391379D01*
Y7387755D01*
Y7384131D01*
Y7380507D01*
Y7376883D01*
Y7373259D01*
Y7369635D01*
Y7366011D01*
Y7362387D01*
Y7358763D01*
Y7355139D01*
Y7351515D01*
Y7347892D01*
Y7344268D01*
Y7340643D01*
Y7337020D01*
Y7333396D01*
Y7329772D01*
Y7326148D01*
Y7322524D01*
Y7318900D01*
Y7315276D01*
X15217674D01*
Y7318900D01*
Y7322524D01*
Y7326148D01*
Y7329772D01*
Y7333396D01*
Y7337020D01*
Y7340643D01*
Y7344268D01*
Y7347892D01*
Y7351515D01*
Y7355139D01*
Y7358763D01*
Y7362387D01*
Y7366011D01*
Y7369635D01*
Y7373259D01*
Y7376883D01*
Y7380507D01*
Y7384131D01*
Y7387755D01*
Y7391379D01*
Y7395003D01*
Y7398627D01*
Y7402251D01*
Y7405875D01*
Y7409499D01*
Y7413123D01*
Y7416747D01*
Y7420371D01*
Y7423995D01*
Y7427619D01*
Y7431243D01*
Y7434867D01*
Y7438491D01*
Y7442114D01*
Y7445738D01*
X15188684D01*
Y7442114D01*
X15181436D01*
Y7438491D01*
Y7434867D01*
Y7431243D01*
Y7427619D01*
Y7423995D01*
Y7420371D01*
Y7416747D01*
Y7413123D01*
Y7409499D01*
Y7405875D01*
Y7402251D01*
Y7398627D01*
Y7395003D01*
Y7391379D01*
Y7387755D01*
Y7384131D01*
Y7380507D01*
Y7376883D01*
Y7373259D01*
X15185060D01*
Y7369635D01*
X15210428D01*
Y7366011D01*
Y7362387D01*
Y7358763D01*
X15170564D01*
Y7362387D01*
X15166940D01*
Y7366011D01*
X15163316D01*
Y7369635D01*
Y7373259D01*
X15159692D01*
Y7376883D01*
Y7380507D01*
Y7384131D01*
Y7387755D01*
Y7391379D01*
Y7395003D01*
Y7398627D01*
Y7402251D01*
Y7405875D01*
Y7409499D01*
Y7413123D01*
Y7416747D01*
Y7420371D01*
Y7423995D01*
Y7427619D01*
Y7431243D01*
Y7434867D01*
Y7438491D01*
Y7442114D01*
X15163316D01*
Y7445738D01*
Y7449362D01*
X15166940D01*
Y7452986D01*
X15170564D01*
Y7456610D01*
X15239420D01*
Y7452986D01*
D02*
G37*
G36*
X13927545D02*
Y7449362D01*
Y7445738D01*
Y7442114D01*
Y7438491D01*
Y7434867D01*
Y7431243D01*
Y7427619D01*
Y7423995D01*
Y7420371D01*
Y7416747D01*
Y7413123D01*
Y7409499D01*
Y7405875D01*
Y7402251D01*
Y7398627D01*
Y7395003D01*
Y7391379D01*
Y7387755D01*
Y7384131D01*
Y7380507D01*
Y7376883D01*
Y7373259D01*
Y7369635D01*
Y7366011D01*
Y7362387D01*
Y7358763D01*
Y7355139D01*
Y7351515D01*
Y7347892D01*
Y7344268D01*
Y7340643D01*
Y7337020D01*
Y7333396D01*
Y7329772D01*
X13923921D01*
Y7326148D01*
Y7322524D01*
X13920297D01*
Y7318900D01*
X13916673D01*
Y7315276D01*
X13873186D01*
Y7318900D01*
Y7322524D01*
Y7326148D01*
X13898553D01*
Y7329772D01*
X13905801D01*
Y7333396D01*
Y7337020D01*
Y7340643D01*
X13909425D01*
Y7344268D01*
Y7347892D01*
Y7351515D01*
Y7355139D01*
Y7358763D01*
Y7362387D01*
Y7366011D01*
Y7369635D01*
Y7373259D01*
Y7376883D01*
Y7380507D01*
Y7384131D01*
Y7387755D01*
Y7391379D01*
Y7395003D01*
Y7398627D01*
Y7402251D01*
Y7405875D01*
Y7409499D01*
Y7413123D01*
Y7416747D01*
Y7420371D01*
Y7423995D01*
Y7427619D01*
Y7431243D01*
Y7434867D01*
Y7438491D01*
Y7442114D01*
Y7445738D01*
X13876810D01*
Y7442114D01*
X13869562D01*
Y7438491D01*
Y7434867D01*
Y7431243D01*
Y7427619D01*
Y7423995D01*
Y7420371D01*
Y7416747D01*
Y7413123D01*
Y7409499D01*
Y7405875D01*
Y7402251D01*
Y7398627D01*
Y7395003D01*
Y7391379D01*
Y7387755D01*
Y7384131D01*
Y7380507D01*
Y7376883D01*
Y7373259D01*
X13873186D01*
Y7369635D01*
X13898553D01*
Y7366011D01*
Y7362387D01*
Y7358763D01*
X13858690D01*
Y7362387D01*
X13855066D01*
Y7366011D01*
X13851442D01*
Y7369635D01*
Y7373259D01*
X13847818D01*
Y7376883D01*
Y7380507D01*
Y7384131D01*
Y7387755D01*
Y7391379D01*
Y7395003D01*
Y7398627D01*
Y7402251D01*
Y7405875D01*
Y7409499D01*
Y7413123D01*
Y7416747D01*
Y7420371D01*
Y7423995D01*
Y7427619D01*
Y7431243D01*
Y7434867D01*
Y7438491D01*
X13851442D01*
Y7442114D01*
Y7445738D01*
Y7449362D01*
X13855066D01*
Y7452986D01*
X13858690D01*
Y7456610D01*
X13927545D01*
Y7452986D01*
D02*
G37*
G36*
X14906015Y7268164D02*
Y7264540D01*
Y7260916D01*
Y7257293D01*
Y7253668D01*
X14887895D01*
Y7257293D01*
Y7260916D01*
Y7264540D01*
Y7268164D01*
Y7271788D01*
X14906015D01*
Y7268164D01*
D02*
G37*
G36*
X14732065D02*
Y7264540D01*
Y7260916D01*
Y7257293D01*
Y7253668D01*
X14710321D01*
Y7257293D01*
Y7260916D01*
Y7264540D01*
Y7268164D01*
Y7271788D01*
X14732065D01*
Y7268164D01*
D02*
G37*
G36*
X15540208Y7242797D02*
X15543832D01*
Y7239173D01*
X15547456D01*
Y7235549D01*
X15551080D01*
Y7231925D01*
Y7228301D01*
X15554704D01*
Y7224677D01*
Y7221053D01*
Y7217429D01*
Y7213805D01*
Y7210181D01*
Y7206557D01*
Y7202933D01*
X15551080D01*
Y7199309D01*
Y7195685D01*
X15547456D01*
Y7192061D01*
X15543832D01*
Y7188437D01*
X15511217D01*
Y7192061D01*
Y7195685D01*
Y7199309D01*
X15529337D01*
Y7202933D01*
X15532961D01*
Y7206557D01*
X15536584D01*
Y7210181D01*
Y7213805D01*
Y7217429D01*
Y7221053D01*
Y7224677D01*
Y7228301D01*
X15532961D01*
Y7231925D01*
X15500343D01*
Y7228301D01*
X15496721D01*
Y7224677D01*
Y7221053D01*
Y7217429D01*
Y7213805D01*
Y7210181D01*
Y7206557D01*
Y7202933D01*
Y7199309D01*
Y7195685D01*
Y7192061D01*
Y7188437D01*
Y7184813D01*
Y7181189D01*
Y7177565D01*
Y7173941D01*
Y7170317D01*
Y7166693D01*
Y7163069D01*
Y7159445D01*
X15503967D01*
Y7155822D01*
X15547456D01*
Y7152198D01*
Y7148574D01*
Y7144950D01*
X15485849D01*
Y7148574D01*
X15482225D01*
Y7152198D01*
Y7155822D01*
Y7159445D01*
X15478601D01*
Y7163069D01*
Y7166693D01*
Y7170317D01*
Y7173941D01*
Y7177565D01*
Y7181189D01*
Y7184813D01*
Y7188437D01*
Y7192061D01*
Y7195685D01*
Y7199309D01*
Y7202933D01*
Y7206557D01*
Y7210181D01*
Y7213805D01*
Y7217429D01*
Y7221053D01*
Y7224677D01*
Y7228301D01*
X15482225D01*
Y7231925D01*
Y7235549D01*
Y7239173D01*
X15485849D01*
Y7242797D01*
X15493097D01*
Y7246421D01*
X15540208D01*
Y7242797D01*
D02*
G37*
G36*
X15366258D02*
X15369882D01*
Y7239173D01*
Y7235549D01*
X15373506D01*
Y7231925D01*
Y7228301D01*
X15377130D01*
Y7224677D01*
Y7221053D01*
Y7217429D01*
Y7213805D01*
Y7210181D01*
Y7206557D01*
Y7202933D01*
X15373506D01*
Y7199309D01*
Y7195685D01*
X15369882D01*
Y7192061D01*
Y7188437D01*
X15333643D01*
Y7192061D01*
Y7195685D01*
Y7199309D01*
X15355386D01*
Y7202933D01*
Y7206557D01*
X15359010D01*
Y7210181D01*
Y7213805D01*
Y7217429D01*
Y7221053D01*
Y7224677D01*
Y7228301D01*
X15355386D01*
Y7231925D01*
X15326395D01*
Y7228301D01*
X15322771D01*
Y7224677D01*
Y7221053D01*
Y7217429D01*
Y7213805D01*
Y7210181D01*
Y7206557D01*
Y7202933D01*
Y7199309D01*
Y7195685D01*
Y7192061D01*
Y7188437D01*
Y7184813D01*
Y7181189D01*
Y7177565D01*
Y7173941D01*
Y7170317D01*
Y7166693D01*
Y7163069D01*
Y7159445D01*
X15326395D01*
Y7155822D01*
X15369882D01*
Y7152198D01*
Y7148574D01*
Y7144950D01*
X15311899D01*
Y7148574D01*
X15308273D01*
Y7152198D01*
X15304651D01*
Y7155822D01*
Y7159445D01*
X15301027D01*
Y7163069D01*
Y7166693D01*
Y7170317D01*
Y7173941D01*
Y7177565D01*
Y7181189D01*
Y7184813D01*
Y7188437D01*
Y7192061D01*
Y7195685D01*
Y7199309D01*
Y7202933D01*
Y7206557D01*
Y7210181D01*
Y7213805D01*
Y7217429D01*
Y7221053D01*
Y7224677D01*
Y7228301D01*
X15304651D01*
Y7231925D01*
Y7235549D01*
X15308273D01*
Y7239173D01*
X15311899D01*
Y7242797D01*
X15315521D01*
Y7246421D01*
X15366258D01*
Y7242797D01*
D02*
G37*
G36*
X15467729D02*
Y7239173D01*
Y7235549D01*
X15464105D01*
Y7231925D01*
Y7228301D01*
Y7224677D01*
X15460481D01*
Y7221053D01*
Y7217429D01*
Y7213805D01*
X15456857D01*
Y7210181D01*
Y7206557D01*
Y7202933D01*
Y7199309D01*
Y7195685D01*
Y7192061D01*
X15453233D01*
Y7188437D01*
Y7184813D01*
Y7181189D01*
X15449609D01*
Y7177565D01*
Y7173941D01*
X15445985D01*
Y7170317D01*
Y7166693D01*
Y7163069D01*
Y7159445D01*
X15442361D01*
Y7155822D01*
Y7152198D01*
Y7148574D01*
Y7144950D01*
X15413370D01*
Y7148574D01*
Y7152198D01*
Y7155822D01*
X15409744D01*
Y7159445D01*
Y7163069D01*
Y7166693D01*
X15406120D01*
Y7170317D01*
Y7173941D01*
X15402498D01*
Y7177565D01*
Y7181189D01*
Y7184813D01*
Y7188437D01*
X15398872D01*
Y7192061D01*
Y7195685D01*
Y7199309D01*
Y7202933D01*
Y7206557D01*
X15395250D01*
Y7210181D01*
Y7213805D01*
Y7217429D01*
X15391626D01*
Y7221053D01*
Y7224677D01*
Y7228301D01*
Y7231925D01*
X15388002D01*
Y7235549D01*
Y7239173D01*
X15384378D01*
Y7242797D01*
Y7246421D01*
X15406120D01*
Y7242797D01*
Y7239173D01*
Y7235549D01*
X15409744D01*
Y7231925D01*
Y7228301D01*
Y7224677D01*
X15413370D01*
Y7221053D01*
Y7217429D01*
Y7213805D01*
Y7210181D01*
Y7206557D01*
Y7202933D01*
Y7199309D01*
X15416994D01*
Y7195685D01*
Y7192061D01*
Y7188437D01*
X15420618D01*
Y7184813D01*
Y7181189D01*
Y7177565D01*
Y7173941D01*
X15424242D01*
Y7170317D01*
Y7166693D01*
Y7163069D01*
X15427866D01*
Y7166693D01*
Y7170317D01*
X15431490D01*
Y7173941D01*
Y7177565D01*
Y7181189D01*
X15435114D01*
Y7184813D01*
Y7188437D01*
Y7192061D01*
X15438737D01*
Y7195685D01*
Y7199309D01*
Y7202933D01*
Y7206557D01*
X15442361D01*
Y7210181D01*
Y7213805D01*
Y7217429D01*
Y7221053D01*
Y7224677D01*
Y7228301D01*
Y7231925D01*
X15445985D01*
Y7235549D01*
Y7239173D01*
Y7242797D01*
X15449609D01*
Y7246421D01*
X15467729D01*
Y7242797D01*
D02*
G37*
G36*
X15645303Y7268164D02*
Y7264540D01*
Y7260916D01*
Y7257293D01*
Y7253668D01*
Y7250044D01*
Y7246421D01*
Y7242797D01*
Y7239173D01*
Y7235549D01*
Y7231925D01*
Y7228301D01*
Y7224677D01*
Y7221053D01*
Y7217429D01*
Y7213805D01*
Y7210181D01*
Y7206557D01*
Y7202933D01*
Y7199309D01*
Y7195685D01*
Y7192061D01*
Y7188437D01*
Y7184813D01*
Y7181189D01*
Y7177565D01*
Y7173941D01*
Y7170317D01*
Y7166693D01*
Y7163069D01*
Y7159445D01*
Y7155822D01*
Y7152198D01*
Y7148574D01*
Y7144950D01*
X15580072D01*
Y7148574D01*
X15576448D01*
Y7152198D01*
Y7155822D01*
X15572824D01*
Y7159445D01*
Y7163069D01*
X15569200D01*
Y7166693D01*
Y7170317D01*
Y7173941D01*
Y7177565D01*
Y7181189D01*
Y7184813D01*
Y7188437D01*
Y7192061D01*
Y7195685D01*
Y7199309D01*
Y7202933D01*
Y7206557D01*
Y7210181D01*
Y7213805D01*
Y7217429D01*
Y7221053D01*
Y7224677D01*
X15572824D01*
Y7228301D01*
Y7231925D01*
X15576448D01*
Y7235549D01*
Y7239173D01*
X15580072D01*
Y7242797D01*
X15583696D01*
Y7246421D01*
X15616312D01*
Y7242797D01*
Y7239173D01*
Y7235549D01*
Y7231925D01*
X15594566D01*
Y7228301D01*
X15590942D01*
Y7224677D01*
Y7221053D01*
Y7217429D01*
Y7213805D01*
Y7210181D01*
Y7206557D01*
Y7202933D01*
Y7199309D01*
Y7195685D01*
Y7192061D01*
Y7188437D01*
Y7184813D01*
Y7181189D01*
Y7177565D01*
Y7173941D01*
Y7170317D01*
Y7166693D01*
Y7163069D01*
X15594566D01*
Y7159445D01*
X15598190D01*
Y7155822D01*
X15627184D01*
Y7159445D01*
Y7163069D01*
Y7166693D01*
Y7170317D01*
Y7173941D01*
Y7177565D01*
Y7181189D01*
Y7184813D01*
Y7188437D01*
Y7192061D01*
Y7195685D01*
Y7199309D01*
Y7202933D01*
Y7206557D01*
Y7210181D01*
Y7213805D01*
Y7217429D01*
Y7221053D01*
Y7224677D01*
Y7228301D01*
Y7231925D01*
Y7235549D01*
Y7239173D01*
Y7242797D01*
Y7246421D01*
Y7250044D01*
Y7253668D01*
Y7257293D01*
Y7260916D01*
Y7264540D01*
Y7268164D01*
Y7271788D01*
X15645303D01*
Y7268164D01*
D02*
G37*
G36*
X14982118Y7242797D02*
X14989366D01*
Y7239173D01*
Y7235549D01*
X14992990D01*
Y7231925D01*
Y7228301D01*
Y7224677D01*
Y7221053D01*
X14996614D01*
Y7217429D01*
Y7213805D01*
Y7210181D01*
Y7206557D01*
Y7202933D01*
Y7199309D01*
Y7195685D01*
Y7192061D01*
Y7188437D01*
Y7184813D01*
Y7181189D01*
Y7177565D01*
Y7173941D01*
Y7170317D01*
Y7166693D01*
Y7163069D01*
Y7159445D01*
Y7155822D01*
Y7152198D01*
Y7148574D01*
Y7144950D01*
X14931383D01*
Y7148574D01*
X14927759D01*
Y7152198D01*
Y7155822D01*
X14924133D01*
Y7159445D01*
Y7163069D01*
X14920511D01*
Y7166693D01*
Y7170317D01*
Y7173941D01*
Y7177565D01*
Y7181189D01*
Y7184813D01*
X14924133D01*
Y7188437D01*
Y7192061D01*
X14927759D01*
Y7195685D01*
Y7199309D01*
X14931383D01*
Y7202933D01*
X14967622D01*
Y7199309D01*
Y7195685D01*
Y7192061D01*
X14945879D01*
Y7188437D01*
X14942255D01*
Y7184813D01*
Y7181189D01*
X14938631D01*
Y7177565D01*
Y7173941D01*
Y7170317D01*
X14942255D01*
Y7166693D01*
Y7163069D01*
Y7159445D01*
X14945879D01*
Y7155822D01*
X14974870D01*
Y7159445D01*
Y7163069D01*
Y7166693D01*
Y7170317D01*
Y7173941D01*
Y7177565D01*
Y7181189D01*
Y7184813D01*
Y7188437D01*
Y7192061D01*
Y7195685D01*
Y7199309D01*
Y7202933D01*
Y7206557D01*
Y7210181D01*
Y7213805D01*
Y7217429D01*
Y7221053D01*
Y7224677D01*
Y7228301D01*
Y7231925D01*
X14938631D01*
Y7235549D01*
Y7239173D01*
Y7242797D01*
Y7246421D01*
X14982118D01*
Y7242797D01*
D02*
G37*
G36*
X15725031D02*
X15732278D01*
Y7239173D01*
X15735902D01*
Y7235549D01*
X15739526D01*
Y7231925D01*
Y7228301D01*
Y7224677D01*
Y7221053D01*
Y7217429D01*
Y7213805D01*
Y7210181D01*
Y7206557D01*
Y7202933D01*
Y7199309D01*
Y7195685D01*
Y7192061D01*
Y7188437D01*
Y7184813D01*
Y7181189D01*
Y7177565D01*
Y7173941D01*
Y7170317D01*
Y7166693D01*
Y7163069D01*
Y7159445D01*
Y7155822D01*
Y7152198D01*
X15735902D01*
Y7148574D01*
X15732278D01*
Y7144950D01*
X15667047D01*
Y7148574D01*
Y7152198D01*
X15663423D01*
Y7155822D01*
Y7159445D01*
X15659799D01*
Y7163069D01*
Y7166693D01*
Y7170317D01*
Y7173941D01*
Y7177565D01*
Y7181189D01*
Y7184813D01*
Y7188437D01*
Y7192061D01*
Y7195685D01*
Y7199309D01*
Y7202933D01*
Y7206557D01*
Y7210181D01*
Y7213805D01*
Y7217429D01*
Y7221053D01*
Y7224677D01*
Y7228301D01*
X15663423D01*
Y7231925D01*
Y7235549D01*
X15667047D01*
Y7239173D01*
Y7242797D01*
X15674295D01*
Y7246421D01*
X15725031D01*
Y7242797D01*
D02*
G37*
G36*
X15286531D02*
Y7239173D01*
Y7235549D01*
Y7231925D01*
X15250291D01*
Y7228301D01*
X15246667D01*
Y7224677D01*
Y7221053D01*
Y7217429D01*
Y7213805D01*
Y7210181D01*
Y7206557D01*
Y7202933D01*
Y7199309D01*
Y7195685D01*
Y7192061D01*
Y7188437D01*
Y7184813D01*
Y7181189D01*
Y7177565D01*
Y7173941D01*
Y7170317D01*
Y7166693D01*
Y7163069D01*
Y7159445D01*
X15253915D01*
Y7155822D01*
X15286531D01*
Y7152198D01*
Y7148574D01*
Y7144950D01*
X15235796D01*
Y7148574D01*
X15232172D01*
Y7152198D01*
X15228548D01*
Y7155822D01*
Y7159445D01*
Y7163069D01*
Y7166693D01*
Y7170317D01*
Y7173941D01*
Y7177565D01*
Y7181189D01*
Y7184813D01*
Y7188437D01*
Y7192061D01*
Y7195685D01*
Y7199309D01*
Y7202933D01*
Y7206557D01*
Y7210181D01*
Y7213805D01*
Y7217429D01*
Y7221053D01*
Y7224677D01*
Y7228301D01*
Y7231925D01*
Y7235549D01*
X15232172D01*
Y7239173D01*
X15235796D01*
Y7242797D01*
X15243044D01*
Y7246421D01*
X15286531D01*
Y7242797D01*
D02*
G37*
G36*
X15185060Y7268164D02*
Y7264540D01*
X15188684D01*
Y7260916D01*
Y7257293D01*
Y7253668D01*
Y7250044D01*
X15192308D01*
Y7246421D01*
Y7242797D01*
Y7239173D01*
Y7235549D01*
X15195932D01*
Y7231925D01*
Y7228301D01*
Y7224677D01*
X15199556D01*
Y7221053D01*
Y7217429D01*
Y7213805D01*
Y7210181D01*
Y7206557D01*
Y7202933D01*
Y7199309D01*
Y7195685D01*
X15203180D01*
Y7192061D01*
Y7188437D01*
Y7184813D01*
Y7181189D01*
X15206802D01*
Y7177565D01*
Y7173941D01*
Y7170317D01*
Y7166693D01*
X15210428D01*
Y7163069D01*
Y7159445D01*
Y7155822D01*
Y7152198D01*
X15214052D01*
Y7148574D01*
Y7144950D01*
X15192308D01*
Y7148574D01*
Y7152198D01*
Y7155822D01*
Y7159445D01*
Y7163069D01*
X15188684D01*
Y7166693D01*
Y7170317D01*
Y7173941D01*
X15156068D01*
Y7170317D01*
Y7166693D01*
Y7163069D01*
Y7159445D01*
Y7155822D01*
Y7152198D01*
Y7148574D01*
Y7144950D01*
X15134325D01*
Y7148574D01*
X15137949D01*
Y7152198D01*
Y7155822D01*
Y7159445D01*
Y7163069D01*
X15141573D01*
Y7166693D01*
Y7170317D01*
Y7173941D01*
Y7177565D01*
X15145197D01*
Y7181189D01*
Y7184813D01*
Y7188437D01*
Y7192061D01*
Y7195685D01*
Y7199309D01*
Y7202933D01*
X15148820D01*
Y7206557D01*
Y7210181D01*
Y7213805D01*
Y7217429D01*
X15152444D01*
Y7221053D01*
Y7224677D01*
Y7228301D01*
Y7231925D01*
X15156068D01*
Y7235549D01*
Y7239173D01*
Y7242797D01*
Y7246421D01*
Y7250044D01*
Y7253668D01*
Y7257293D01*
Y7260916D01*
X15159692D01*
Y7264540D01*
Y7268164D01*
Y7271788D01*
X15185060D01*
Y7268164D01*
D02*
G37*
G36*
X15072717Y7242797D02*
X15079965D01*
Y7239173D01*
X15083589D01*
Y7235549D01*
Y7231925D01*
X15087213D01*
Y7228301D01*
Y7224677D01*
Y7221053D01*
Y7217429D01*
Y7213805D01*
Y7210181D01*
Y7206557D01*
Y7202933D01*
Y7199309D01*
Y7195685D01*
Y7192061D01*
Y7188437D01*
Y7184813D01*
Y7181189D01*
Y7177565D01*
Y7173941D01*
Y7170317D01*
Y7166693D01*
Y7163069D01*
Y7159445D01*
Y7155822D01*
Y7152198D01*
Y7148574D01*
Y7144950D01*
X15069093D01*
Y7148574D01*
Y7152198D01*
Y7155822D01*
Y7159445D01*
Y7163069D01*
Y7166693D01*
Y7170317D01*
Y7173941D01*
Y7177565D01*
Y7181189D01*
Y7184813D01*
Y7188437D01*
Y7192061D01*
Y7195685D01*
Y7199309D01*
Y7202933D01*
Y7206557D01*
Y7210181D01*
Y7213805D01*
Y7217429D01*
Y7221053D01*
X15065469D01*
Y7224677D01*
Y7228301D01*
Y7231925D01*
X15029230D01*
Y7228301D01*
Y7224677D01*
Y7221053D01*
Y7217429D01*
Y7213805D01*
Y7210181D01*
Y7206557D01*
Y7202933D01*
Y7199309D01*
Y7195685D01*
Y7192061D01*
Y7188437D01*
Y7184813D01*
Y7181189D01*
Y7177565D01*
Y7173941D01*
Y7170317D01*
Y7166693D01*
Y7163069D01*
Y7159445D01*
Y7155822D01*
Y7152198D01*
Y7148574D01*
Y7144950D01*
X15007486D01*
Y7148574D01*
Y7152198D01*
Y7155822D01*
Y7159445D01*
Y7163069D01*
Y7166693D01*
Y7170317D01*
Y7173941D01*
Y7177565D01*
Y7181189D01*
Y7184813D01*
Y7188437D01*
Y7192061D01*
Y7195685D01*
Y7199309D01*
Y7202933D01*
Y7206557D01*
Y7210181D01*
Y7213805D01*
Y7217429D01*
Y7221053D01*
Y7224677D01*
Y7228301D01*
Y7231925D01*
Y7235549D01*
Y7239173D01*
Y7242797D01*
Y7246421D01*
X15072717D01*
Y7242797D01*
D02*
G37*
G36*
X14906015D02*
Y7239173D01*
Y7235549D01*
Y7231925D01*
Y7228301D01*
Y7224677D01*
Y7221053D01*
Y7217429D01*
Y7213805D01*
Y7210181D01*
Y7206557D01*
Y7202933D01*
Y7199309D01*
Y7195685D01*
Y7192061D01*
Y7188437D01*
Y7184813D01*
Y7181189D01*
Y7177565D01*
Y7173941D01*
Y7170317D01*
Y7166693D01*
Y7163069D01*
Y7159445D01*
Y7155822D01*
Y7152198D01*
Y7148574D01*
Y7144950D01*
X14887895D01*
Y7148574D01*
Y7152198D01*
Y7155822D01*
Y7159445D01*
Y7163069D01*
Y7166693D01*
Y7170317D01*
Y7173941D01*
Y7177565D01*
Y7181189D01*
Y7184813D01*
Y7188437D01*
Y7192061D01*
Y7195685D01*
Y7199309D01*
Y7202933D01*
Y7206557D01*
Y7210181D01*
Y7213805D01*
Y7217429D01*
Y7221053D01*
Y7224677D01*
Y7228301D01*
Y7231925D01*
Y7235549D01*
Y7239173D01*
Y7242797D01*
Y7246421D01*
X14906015D01*
Y7242797D01*
D02*
G37*
G36*
X14851656Y7268164D02*
Y7264540D01*
Y7260916D01*
Y7257293D01*
Y7253668D01*
Y7250044D01*
Y7246421D01*
X14873399D01*
Y7242797D01*
Y7239173D01*
Y7235549D01*
Y7231925D01*
X14851656D01*
Y7228301D01*
Y7224677D01*
Y7221053D01*
Y7217429D01*
Y7213805D01*
Y7210181D01*
Y7206557D01*
Y7202933D01*
Y7199309D01*
Y7195685D01*
Y7192061D01*
Y7188437D01*
Y7184813D01*
Y7181189D01*
Y7177565D01*
Y7173941D01*
Y7170317D01*
Y7166693D01*
Y7163069D01*
Y7159445D01*
X14855280D01*
Y7155822D01*
X14869775D01*
Y7152198D01*
Y7148574D01*
Y7144950D01*
X14837160D01*
Y7148574D01*
X14833534D01*
Y7152198D01*
Y7155822D01*
Y7159445D01*
Y7163069D01*
Y7166693D01*
Y7170317D01*
Y7173941D01*
Y7177565D01*
Y7181189D01*
Y7184813D01*
Y7188437D01*
Y7192061D01*
Y7195685D01*
Y7199309D01*
Y7202933D01*
Y7206557D01*
Y7210181D01*
Y7213805D01*
Y7217429D01*
Y7221053D01*
Y7224677D01*
Y7228301D01*
Y7231925D01*
Y7235549D01*
Y7239173D01*
Y7242797D01*
Y7246421D01*
Y7250044D01*
Y7253668D01*
Y7257293D01*
Y7260916D01*
Y7264540D01*
Y7268164D01*
Y7271788D01*
X14851656D01*
Y7268164D01*
D02*
G37*
G36*
X14804544Y7242797D02*
Y7239173D01*
Y7235549D01*
Y7231925D01*
X14764680D01*
Y7228301D01*
X14761057D01*
Y7224677D01*
Y7221053D01*
Y7217429D01*
Y7213805D01*
Y7210181D01*
Y7206557D01*
X14764680D01*
Y7202933D01*
X14808168D01*
Y7199309D01*
X14811792D01*
Y7195685D01*
X14815416D01*
Y7192061D01*
Y7188437D01*
X14819040D01*
Y7184813D01*
Y7181189D01*
Y7177565D01*
Y7173941D01*
Y7170317D01*
Y7166693D01*
Y7163069D01*
Y7159445D01*
Y7155822D01*
X14815416D01*
Y7152198D01*
Y7148574D01*
X14811792D01*
Y7144950D01*
X14753809D01*
Y7148574D01*
Y7152198D01*
Y7155822D01*
X14797296D01*
Y7159445D01*
X14800920D01*
Y7163069D01*
X14804544D01*
Y7166693D01*
Y7170317D01*
Y7173941D01*
Y7177565D01*
X14800920D01*
Y7181189D01*
Y7184813D01*
X14797296D01*
Y7188437D01*
X14753809D01*
Y7192061D01*
X14750185D01*
Y7195685D01*
Y7199309D01*
X14746561D01*
Y7202933D01*
Y7206557D01*
Y7210181D01*
Y7213805D01*
Y7217429D01*
Y7221053D01*
Y7224677D01*
Y7228301D01*
Y7231925D01*
Y7235549D01*
X14750185D01*
Y7239173D01*
X14753809D01*
Y7242797D01*
X14757433D01*
Y7246421D01*
X14804544D01*
Y7242797D01*
D02*
G37*
G36*
X14732065D02*
Y7239173D01*
Y7235549D01*
Y7231925D01*
Y7228301D01*
Y7224677D01*
Y7221053D01*
Y7217429D01*
Y7213805D01*
Y7210181D01*
Y7206557D01*
Y7202933D01*
Y7199309D01*
Y7195685D01*
Y7192061D01*
Y7188437D01*
Y7184813D01*
Y7181189D01*
Y7177565D01*
Y7173941D01*
Y7170317D01*
Y7166693D01*
Y7163069D01*
Y7159445D01*
Y7155822D01*
Y7152198D01*
Y7148574D01*
Y7144950D01*
X14710321D01*
Y7148574D01*
Y7152198D01*
Y7155822D01*
Y7159445D01*
Y7163069D01*
Y7166693D01*
Y7170317D01*
Y7173941D01*
Y7177565D01*
Y7181189D01*
Y7184813D01*
Y7188437D01*
Y7192061D01*
Y7195685D01*
Y7199309D01*
Y7202933D01*
Y7206557D01*
Y7210181D01*
Y7213805D01*
Y7217429D01*
Y7221053D01*
Y7224677D01*
Y7228301D01*
Y7231925D01*
Y7235549D01*
Y7239173D01*
Y7242797D01*
Y7246421D01*
X14732065D01*
Y7242797D01*
D02*
G37*
G36*
X14699449D02*
Y7239173D01*
Y7235549D01*
Y7231925D01*
X14674081D01*
Y7228301D01*
Y7224677D01*
Y7221053D01*
Y7217429D01*
X14670457D01*
Y7213805D01*
Y7210181D01*
Y7206557D01*
Y7202933D01*
Y7199309D01*
Y7195685D01*
Y7192061D01*
Y7188437D01*
Y7184813D01*
Y7181189D01*
Y7177565D01*
Y7173941D01*
Y7170317D01*
Y7166693D01*
Y7163069D01*
Y7159445D01*
Y7155822D01*
Y7152198D01*
Y7148574D01*
Y7144950D01*
X14652338D01*
Y7148574D01*
Y7152198D01*
Y7155822D01*
Y7159445D01*
Y7163069D01*
Y7166693D01*
Y7170317D01*
Y7173941D01*
Y7177565D01*
Y7181189D01*
Y7184813D01*
Y7188437D01*
Y7192061D01*
Y7195685D01*
Y7199309D01*
Y7202933D01*
Y7206557D01*
Y7210181D01*
Y7213805D01*
Y7217429D01*
Y7221053D01*
Y7224677D01*
Y7228301D01*
X14655962D01*
Y7231925D01*
X14659586D01*
Y7235549D01*
X14663210D01*
Y7239173D01*
Y7242797D01*
X14674081D01*
Y7246421D01*
X14699449D01*
Y7242797D01*
D02*
G37*
G36*
X14641466Y7268164D02*
Y7264540D01*
Y7260916D01*
Y7257293D01*
X14597978D01*
Y7253668D01*
X14594354D01*
Y7250044D01*
Y7246421D01*
X14590730D01*
Y7242797D01*
Y7239173D01*
Y7235549D01*
Y7231925D01*
Y7228301D01*
Y7224677D01*
Y7221053D01*
Y7217429D01*
Y7213805D01*
Y7210181D01*
Y7206557D01*
Y7202933D01*
Y7199309D01*
Y7195685D01*
Y7192061D01*
Y7188437D01*
Y7184813D01*
Y7181189D01*
Y7177565D01*
Y7173941D01*
Y7170317D01*
X14594354D01*
Y7166693D01*
Y7163069D01*
Y7159445D01*
X14601602D01*
Y7155822D01*
X14641466D01*
Y7152198D01*
Y7148574D01*
Y7144950D01*
X14587106D01*
Y7148574D01*
X14583482D01*
Y7152198D01*
X14579858D01*
Y7155822D01*
Y7159445D01*
X14576234D01*
Y7163069D01*
Y7166693D01*
Y7170317D01*
Y7173941D01*
Y7177565D01*
Y7181189D01*
Y7184813D01*
Y7188437D01*
Y7192061D01*
Y7195685D01*
Y7199309D01*
Y7202933D01*
Y7206557D01*
Y7210181D01*
Y7213805D01*
Y7217429D01*
Y7221053D01*
Y7224677D01*
Y7228301D01*
Y7231925D01*
Y7235549D01*
Y7239173D01*
Y7242797D01*
Y7246421D01*
Y7250044D01*
Y7253668D01*
Y7257293D01*
X14579858D01*
Y7260916D01*
X14583482D01*
Y7264540D01*
X14587106D01*
Y7268164D01*
X14590730D01*
Y7271788D01*
X14641466D01*
Y7268164D01*
D02*
G37*
%LPC*%
G36*
X14750185Y9105513D02*
X14742937D01*
Y9101889D01*
X14732065D01*
Y9098265D01*
X14724817D01*
Y9094641D01*
X14717569D01*
Y9091017D01*
Y9087393D01*
X14713945D01*
Y9083769D01*
X14710321D01*
Y9080145D01*
X14706697D01*
Y9076521D01*
X14699449D01*
Y9072897D01*
Y9069273D01*
X14695825D01*
Y9065649D01*
Y9062025D01*
Y9058401D01*
X14692201D01*
Y9054777D01*
Y9051153D01*
Y9047529D01*
X14684953D01*
Y9043905D01*
Y9040281D01*
X14695825D01*
Y9043905D01*
X14699449D01*
Y9047529D01*
X14710321D01*
Y9051153D01*
X14713945D01*
Y9054777D01*
Y9058401D01*
X14724817D01*
Y9062025D01*
X14728441D01*
Y9065649D01*
X14732065D01*
Y9069273D01*
X14735689D01*
Y9072897D01*
Y9076521D01*
Y9080145D01*
X14742937D01*
Y9083769D01*
X14746561D01*
Y9087393D01*
Y9091017D01*
Y9094641D01*
X14750185D01*
Y9098265D01*
Y9101889D01*
Y9105513D01*
D02*
G37*
G36*
X14398660D02*
X14387788D01*
Y9101889D01*
Y9098265D01*
X14395036D01*
Y9094641D01*
Y9091017D01*
Y9087393D01*
X14398660D01*
Y9083769D01*
Y9080145D01*
X14402284D01*
Y9076521D01*
X14405908D01*
Y9072897D01*
Y9069273D01*
X14413156D01*
Y9065649D01*
Y9062025D01*
X14420404D01*
Y9058401D01*
X14424028D01*
Y9054777D01*
Y9051153D01*
X14431276D01*
Y9047529D01*
X14438524D01*
Y9043905D01*
X14449396D01*
Y9040281D01*
X14456644D01*
Y9043905D01*
Y9047529D01*
Y9051153D01*
X14453020D01*
Y9054777D01*
Y9058401D01*
X14449396D01*
Y9062025D01*
Y9065649D01*
X14442148D01*
Y9069273D01*
X14438524D01*
Y9072897D01*
Y9076521D01*
Y9080145D01*
X14434900D01*
Y9083769D01*
X14431276D01*
Y9087393D01*
X14420404D01*
Y9091017D01*
Y9094641D01*
X14416780D01*
Y9098265D01*
X14405908D01*
Y9101889D01*
X14398660D01*
Y9105513D01*
D02*
G37*
G36*
X14579858Y9040281D02*
X14568987D01*
Y9036658D01*
Y9033033D01*
X14558115D01*
Y9029410D01*
X14547243D01*
Y9025786D01*
X14539995D01*
Y9022162D01*
X14525499D01*
Y9018538D01*
Y9014914D01*
X14507379D01*
Y9011290D01*
X14485635D01*
Y9007666D01*
Y9004042D01*
Y9000418D01*
Y8996794D01*
Y8993170D01*
Y8989546D01*
Y8985922D01*
Y8982298D01*
X14482011D01*
Y8978674D01*
Y8975050D01*
Y8971426D01*
Y8967802D01*
Y8964178D01*
X14474763D01*
Y8960554D01*
Y8956930D01*
X14471140D01*
Y8953306D01*
Y8949682D01*
Y8946059D01*
X14467516D01*
Y8942434D01*
Y8938810D01*
X14463892D01*
Y8935187D01*
Y8931563D01*
Y8927939D01*
X14456644D01*
Y8924315D01*
Y8920691D01*
X14463892D01*
Y8917067D01*
Y8913443D01*
Y8909819D01*
X14467516D01*
Y8906195D01*
X14471140D01*
Y8902571D01*
Y8898947D01*
Y8895323D01*
X14474763D01*
Y8891699D01*
Y8888075D01*
Y8884451D01*
X14482011D01*
Y8880827D01*
Y8877203D01*
Y8873579D01*
Y8869955D01*
Y8866331D01*
X14485635D01*
Y8862707D01*
Y8859083D01*
Y8855459D01*
Y8851835D01*
Y8848211D01*
Y8844588D01*
Y8840964D01*
Y8837340D01*
X14507379D01*
Y8833716D01*
X14525499D01*
Y8830092D01*
X14539995D01*
Y8826468D01*
Y8822844D01*
X14547243D01*
Y8819220D01*
X14558115D01*
Y8815596D01*
X14568987D01*
Y8811972D01*
Y8808348D01*
X14572610D01*
Y8804724D01*
X14576234D01*
Y8808348D01*
X14579858D01*
Y8811972D01*
Y8815596D01*
X14590730D01*
Y8819220D01*
X14594354D01*
Y8822844D01*
X14605226D01*
Y8826468D01*
Y8830092D01*
X14616098D01*
Y8833716D01*
X14641466D01*
Y8837340D01*
X14663210D01*
Y8840964D01*
Y8844588D01*
Y8848211D01*
Y8851835D01*
Y8855459D01*
Y8859083D01*
Y8862707D01*
Y8866331D01*
Y8869955D01*
Y8873579D01*
X14666833D01*
Y8877203D01*
Y8880827D01*
Y8884451D01*
Y8888075D01*
X14674081D01*
Y8891699D01*
Y8895323D01*
X14677705D01*
Y8898947D01*
Y8902571D01*
Y8906195D01*
X14681329D01*
Y8909819D01*
Y8913443D01*
Y8917067D01*
X14684953D01*
Y8920691D01*
X14692201D01*
Y8924315D01*
X14684953D01*
Y8927939D01*
Y8931563D01*
Y8935187D01*
X14681329D01*
Y8938810D01*
X14677705D01*
Y8942434D01*
Y8946059D01*
X14674081D01*
Y8949682D01*
Y8953306D01*
Y8956930D01*
X14666833D01*
Y8960554D01*
Y8964178D01*
Y8967802D01*
Y8971426D01*
X14663210D01*
Y8975050D01*
Y8978674D01*
Y8982298D01*
Y8985922D01*
Y8989546D01*
Y8993170D01*
X14659586D01*
Y8996794D01*
Y9000418D01*
Y9004042D01*
Y9007666D01*
Y9011290D01*
X14634218D01*
Y9014914D01*
X14616098D01*
Y9018538D01*
Y9022162D01*
X14605226D01*
Y9025786D01*
X14594354D01*
Y9029410D01*
X14587106D01*
Y9033033D01*
X14579858D01*
Y9036658D01*
Y9040281D01*
D02*
G37*
G36*
X14695825Y8808348D02*
X14684953D01*
Y8804724D01*
X14692201D01*
Y8801100D01*
Y8797476D01*
Y8793852D01*
Y8790228D01*
X14695825D01*
Y8786604D01*
Y8782980D01*
Y8779356D01*
X14699449D01*
Y8775732D01*
Y8772108D01*
X14706697D01*
Y8768484D01*
X14710321D01*
Y8764860D01*
X14713945D01*
Y8761236D01*
X14717569D01*
Y8757612D01*
Y8753989D01*
X14724817D01*
Y8750365D01*
X14732065D01*
Y8746741D01*
X14742937D01*
Y8743117D01*
X14757433D01*
Y8746741D01*
X14750185D01*
Y8750365D01*
Y8753989D01*
X14746561D01*
Y8757612D01*
Y8761236D01*
Y8764860D01*
X14742937D01*
Y8768484D01*
Y8772108D01*
X14735689D01*
Y8775732D01*
Y8779356D01*
X14732065D01*
Y8782980D01*
X14728441D01*
Y8786604D01*
X14724817D01*
Y8790228D01*
X14717569D01*
Y8793852D01*
Y8797476D01*
X14710321D01*
Y8801100D01*
X14706697D01*
Y8804724D01*
X14695825D01*
Y8808348D01*
D02*
G37*
G36*
X14463892D02*
X14449396D01*
Y8804724D01*
X14438524D01*
Y8801100D01*
X14431276D01*
Y8797476D01*
X14424028D01*
Y8793852D01*
Y8790228D01*
X14420404D01*
Y8786604D01*
X14416780D01*
Y8782980D01*
X14413156D01*
Y8779356D01*
X14405908D01*
Y8775732D01*
Y8772108D01*
X14402284D01*
Y8768484D01*
X14398660D01*
Y8764860D01*
Y8761236D01*
X14395036D01*
Y8757612D01*
Y8753989D01*
Y8750365D01*
X14387788D01*
Y8746741D01*
Y8743117D01*
X14402284D01*
Y8746741D01*
X14413156D01*
Y8750365D01*
X14416780D01*
Y8753989D01*
X14424028D01*
Y8757612D01*
Y8761236D01*
X14431276D01*
Y8764860D01*
X14434900D01*
Y8768484D01*
X14438524D01*
Y8772108D01*
X14442148D01*
Y8775732D01*
Y8779356D01*
Y8782980D01*
X14449396D01*
Y8786604D01*
X14453020D01*
Y8790228D01*
Y8793852D01*
Y8797476D01*
X14456644D01*
Y8801100D01*
Y8804724D01*
X14463892D01*
Y8808348D01*
D02*
G37*
%LPD*%
G36*
X14594354Y8989546D02*
X14605226D01*
Y8985922D01*
Y8982298D01*
X14612474D01*
Y8978674D01*
X14616098D01*
Y8975050D01*
X14623346D01*
Y8971426D01*
X14626970D01*
Y8967802D01*
Y8964178D01*
X14630594D01*
Y8960554D01*
Y8956930D01*
X14634218D01*
Y8953306D01*
Y8949682D01*
Y8946059D01*
X14641466D01*
Y8942434D01*
Y8938810D01*
Y8935187D01*
Y8931563D01*
Y8927939D01*
Y8924315D01*
Y8920691D01*
Y8917067D01*
Y8913443D01*
Y8909819D01*
Y8906195D01*
Y8902571D01*
X14634218D01*
Y8898947D01*
Y8895323D01*
Y8891699D01*
Y8888075D01*
X14630594D01*
Y8884451D01*
X14626970D01*
Y8880827D01*
Y8877203D01*
X14623346D01*
Y8873579D01*
X14616098D01*
Y8869955D01*
X14612474D01*
Y8866331D01*
X14608850D01*
Y8862707D01*
Y8859083D01*
X14594354D01*
Y8855459D01*
X14547243D01*
Y8859083D01*
X14539995D01*
Y8862707D01*
Y8866331D01*
X14529123D01*
Y8869955D01*
X14525499D01*
Y8873579D01*
X14521875D01*
Y8877203D01*
X14518251D01*
Y8880827D01*
Y8884451D01*
X14511003D01*
Y8888075D01*
Y8891699D01*
X14507379D01*
Y8895323D01*
Y8898947D01*
Y8902571D01*
Y8906195D01*
X14503755D01*
Y8909819D01*
Y8913443D01*
Y8917067D01*
Y8920691D01*
Y8924315D01*
Y8927939D01*
Y8931563D01*
Y8935187D01*
Y8938810D01*
Y8942434D01*
X14507379D01*
Y8946059D01*
Y8949682D01*
Y8953306D01*
Y8956930D01*
X14511003D01*
Y8960554D01*
Y8964178D01*
X14518251D01*
Y8967802D01*
Y8971426D01*
X14521875D01*
Y8975050D01*
X14525499D01*
Y8978674D01*
X14529123D01*
Y8982298D01*
X14539995D01*
Y8985922D01*
Y8989546D01*
X14554491D01*
Y8993170D01*
X14594354D01*
Y8989546D01*
D02*
G37*
%LPC*%
G36*
X15536584Y8500311D02*
X15518465D01*
Y8496687D01*
Y8493063D01*
Y8489439D01*
Y8485815D01*
Y8482191D01*
Y8478567D01*
Y8474943D01*
Y8471320D01*
Y8467696D01*
Y8464072D01*
Y8460448D01*
Y8456824D01*
Y8453200D01*
Y8449576D01*
Y8445952D01*
Y8442328D01*
Y8438704D01*
Y8435080D01*
Y8431456D01*
Y8427832D01*
Y8424208D01*
Y8420584D01*
Y8416960D01*
Y8413336D01*
Y8409712D01*
Y8406088D01*
Y8402464D01*
Y8398840D01*
Y8395216D01*
Y8391592D01*
Y8387968D01*
Y8384344D01*
Y8380721D01*
Y8377097D01*
Y8373472D01*
Y8369849D01*
Y8366225D01*
Y8362601D01*
X15522089D01*
Y8358977D01*
Y8355353D01*
Y8351729D01*
Y8348105D01*
X15529337D01*
Y8344481D01*
X15532961D01*
Y8340857D01*
X15540208D01*
Y8337233D01*
Y8333609D01*
X15561952D01*
Y8337233D01*
Y8340857D01*
X15572824D01*
Y8344481D01*
X15583696D01*
Y8348105D01*
X15587320D01*
Y8351729D01*
X15590942D01*
Y8355353D01*
Y8358977D01*
X15598190D01*
Y8362601D01*
X15601814D01*
Y8366225D01*
Y8369849D01*
X15605440D01*
Y8373472D01*
Y8377097D01*
Y8380721D01*
X15609064D01*
Y8384344D01*
Y8387968D01*
Y8391592D01*
Y8395216D01*
Y8398840D01*
Y8402464D01*
Y8406088D01*
Y8409712D01*
Y8413336D01*
Y8416960D01*
Y8420584D01*
Y8424208D01*
Y8427832D01*
Y8431456D01*
Y8435080D01*
Y8438704D01*
X15605440D01*
Y8442328D01*
Y8445952D01*
Y8449576D01*
Y8453200D01*
X15601814D01*
Y8456824D01*
Y8460448D01*
Y8464072D01*
X15598190D01*
Y8467696D01*
X15590942D01*
Y8471320D01*
X15587320D01*
Y8474943D01*
X15583696D01*
Y8478567D01*
Y8482191D01*
X15572824D01*
Y8485815D01*
X15569200D01*
Y8489439D01*
X15554704D01*
Y8493063D01*
X15536584D01*
Y8496687D01*
Y8500311D01*
D02*
G37*
G36*
X15322771Y8471320D02*
X15319147D01*
Y8467696D01*
Y8464072D01*
X15311899D01*
Y8460448D01*
Y8456824D01*
Y8453200D01*
Y8449576D01*
X15308273D01*
Y8445952D01*
Y8442328D01*
Y8438704D01*
Y8435080D01*
X15304651D01*
Y8431456D01*
Y8427832D01*
Y8424208D01*
Y8420584D01*
X15301027D01*
Y8416960D01*
Y8413336D01*
X15340891D01*
Y8416960D01*
Y8420584D01*
Y8424208D01*
Y8427832D01*
X15337267D01*
Y8431456D01*
Y8435080D01*
X15330019D01*
Y8438704D01*
Y8442328D01*
Y8445952D01*
Y8449576D01*
X15326395D01*
Y8453200D01*
Y8456824D01*
Y8460448D01*
Y8464072D01*
X15322771D01*
Y8467696D01*
Y8471320D01*
D02*
G37*
G36*
X15090837Y8500311D02*
X15079965D01*
Y8496687D01*
Y8493063D01*
X15076341D01*
Y8489439D01*
Y8485815D01*
Y8482191D01*
Y8478567D01*
Y8474943D01*
Y8471320D01*
Y8467696D01*
Y8464072D01*
Y8460448D01*
Y8456824D01*
Y8453200D01*
Y8449576D01*
Y8445952D01*
Y8442328D01*
Y8438704D01*
Y8435080D01*
Y8431456D01*
Y8427832D01*
Y8424208D01*
Y8420584D01*
Y8416960D01*
Y8413336D01*
Y8409712D01*
Y8406088D01*
Y8402464D01*
Y8398840D01*
Y8395216D01*
Y8391592D01*
Y8387968D01*
Y8384344D01*
Y8380721D01*
Y8377097D01*
Y8373472D01*
Y8369849D01*
Y8366225D01*
Y8362601D01*
Y8358977D01*
X15079965D01*
Y8355353D01*
Y8351729D01*
Y8348105D01*
Y8344481D01*
X15083589D01*
Y8340857D01*
X15094461D01*
Y8337233D01*
Y8333609D01*
X15119829D01*
Y8337233D01*
Y8340857D01*
X15134325D01*
Y8344481D01*
X15137949D01*
Y8348105D01*
X15148820D01*
Y8351729D01*
Y8355353D01*
Y8358977D01*
X15152444D01*
Y8362601D01*
X15159692D01*
Y8366225D01*
Y8369849D01*
X15163316D01*
Y8373472D01*
Y8377097D01*
Y8380721D01*
X15166940D01*
Y8384344D01*
Y8387968D01*
Y8391592D01*
Y8395216D01*
Y8398840D01*
Y8402464D01*
Y8406088D01*
Y8409712D01*
Y8413336D01*
Y8416960D01*
Y8420584D01*
Y8424208D01*
Y8427832D01*
Y8431456D01*
Y8435080D01*
X15163316D01*
Y8438704D01*
Y8442328D01*
Y8445952D01*
Y8449576D01*
X15159692D01*
Y8453200D01*
Y8456824D01*
X15152444D01*
Y8460448D01*
Y8464072D01*
Y8467696D01*
X15148820D01*
Y8471320D01*
X15145197D01*
Y8474943D01*
X15134325D01*
Y8478567D01*
Y8482191D01*
X15130701D01*
Y8485815D01*
X15119829D01*
Y8489439D01*
X15108957D01*
Y8493063D01*
X15090837D01*
Y8496687D01*
Y8500311D01*
D02*
G37*
G36*
X14597978D02*
X14579858D01*
Y8496687D01*
Y8493063D01*
Y8489439D01*
Y8485815D01*
Y8482191D01*
Y8478567D01*
Y8474943D01*
Y8471320D01*
Y8467696D01*
Y8464072D01*
Y8460448D01*
Y8456824D01*
Y8453200D01*
Y8449576D01*
Y8445952D01*
Y8442328D01*
Y8438704D01*
Y8435080D01*
Y8431456D01*
Y8427832D01*
Y8424208D01*
Y8420584D01*
X14605226D01*
Y8424208D01*
Y8427832D01*
X14612474D01*
Y8431456D01*
X14616098D01*
Y8435080D01*
X14623346D01*
Y8438704D01*
X14626970D01*
Y8442328D01*
Y8445952D01*
Y8449576D01*
Y8453200D01*
X14630594D01*
Y8456824D01*
Y8460448D01*
Y8464072D01*
Y8467696D01*
X14626970D01*
Y8471320D01*
Y8474943D01*
Y8478567D01*
Y8482191D01*
X14623346D01*
Y8485815D01*
X14616098D01*
Y8489439D01*
X14608850D01*
Y8493063D01*
X14597978D01*
Y8496687D01*
Y8500311D01*
D02*
G37*
G36*
X15003862Y8228514D02*
X14996614D01*
Y8224890D01*
Y8221266D01*
X14992990D01*
Y8217642D01*
Y8214018D01*
Y8210394D01*
Y8206770D01*
X14989366D01*
Y8203146D01*
Y8199522D01*
Y8195899D01*
Y8192274D01*
X14985742D01*
Y8188651D01*
Y8185027D01*
Y8181402D01*
Y8177779D01*
X14978494D01*
Y8174155D01*
X15021982D01*
Y8177779D01*
Y8181402D01*
Y8185027D01*
X15014732D01*
Y8188651D01*
Y8192274D01*
Y8195899D01*
X15011110D01*
Y8199522D01*
Y8203146D01*
Y8206770D01*
X15007486D01*
Y8210394D01*
Y8214018D01*
Y8217642D01*
Y8221266D01*
X15003862D01*
Y8224890D01*
Y8228514D01*
D02*
G37*
G36*
X14764680Y8257506D02*
X14746561D01*
Y8253882D01*
Y8250258D01*
Y8246634D01*
Y8243010D01*
Y8239386D01*
Y8235762D01*
Y8232138D01*
Y8228514D01*
Y8224890D01*
Y8221266D01*
Y8217642D01*
Y8214018D01*
Y8210394D01*
Y8206770D01*
Y8203146D01*
Y8199522D01*
Y8195899D01*
Y8192274D01*
Y8188651D01*
Y8185027D01*
Y8181402D01*
Y8177779D01*
X14764680D01*
Y8181402D01*
Y8185027D01*
X14779176D01*
Y8188651D01*
X14782800D01*
Y8192274D01*
X14786424D01*
Y8195899D01*
X14793672D01*
Y8199522D01*
Y8203146D01*
Y8206770D01*
Y8210394D01*
Y8214018D01*
X14797296D01*
Y8217642D01*
Y8221266D01*
X14793672D01*
Y8224890D01*
Y8228514D01*
Y8232138D01*
Y8235762D01*
X14786424D01*
Y8239386D01*
Y8243010D01*
X14782800D01*
Y8246634D01*
X14775552D01*
Y8250258D01*
Y8253882D01*
X14764680D01*
Y8257506D01*
D02*
G37*
G36*
X13583269Y7471106D02*
X13550653D01*
Y7467482D01*
Y7463858D01*
Y7460234D01*
Y7456610D01*
Y7452986D01*
Y7449362D01*
Y7445738D01*
Y7442114D01*
Y7438491D01*
Y7434867D01*
Y7431243D01*
Y7427619D01*
Y7423995D01*
Y7420371D01*
Y7416747D01*
Y7413123D01*
Y7409499D01*
Y7405875D01*
Y7402251D01*
Y7398627D01*
Y7395003D01*
Y7391379D01*
Y7387755D01*
Y7384131D01*
Y7380507D01*
Y7376883D01*
Y7373259D01*
Y7369635D01*
X13579645D01*
Y7373259D01*
X13583269D01*
Y7376883D01*
X13586893D01*
Y7380507D01*
Y7384131D01*
Y7387755D01*
Y7391379D01*
Y7395003D01*
Y7398627D01*
Y7402251D01*
Y7405875D01*
Y7409499D01*
Y7413123D01*
Y7416747D01*
Y7420371D01*
Y7423995D01*
Y7427619D01*
Y7431243D01*
Y7434867D01*
Y7438491D01*
Y7442114D01*
Y7445738D01*
Y7449362D01*
Y7452986D01*
Y7456610D01*
Y7460234D01*
Y7463858D01*
X13583269D01*
Y7467482D01*
Y7471106D01*
D02*
G37*
G36*
X15717783Y7231925D02*
X15681541D01*
Y7228301D01*
Y7224677D01*
Y7221053D01*
Y7217429D01*
Y7213805D01*
Y7210181D01*
Y7206557D01*
Y7202933D01*
Y7199309D01*
Y7195685D01*
Y7192061D01*
Y7188437D01*
Y7184813D01*
Y7181189D01*
Y7177565D01*
Y7173941D01*
Y7170317D01*
Y7166693D01*
Y7163069D01*
Y7159445D01*
X15688789D01*
Y7155822D01*
X15714159D01*
Y7159445D01*
X15721407D01*
Y7163069D01*
Y7166693D01*
Y7170317D01*
Y7173941D01*
Y7177565D01*
Y7181189D01*
Y7184813D01*
Y7188437D01*
Y7192061D01*
Y7195685D01*
Y7199309D01*
Y7202933D01*
Y7206557D01*
Y7210181D01*
Y7213805D01*
Y7217429D01*
Y7221053D01*
Y7224677D01*
Y7228301D01*
X15717783D01*
Y7231925D01*
D02*
G37*
G36*
X15174188Y7253668D02*
X15170564D01*
Y7250044D01*
Y7246421D01*
Y7242797D01*
Y7239173D01*
Y7235549D01*
Y7231925D01*
Y7228301D01*
Y7224677D01*
X15166940D01*
Y7221053D01*
Y7217429D01*
Y7213805D01*
Y7210181D01*
Y7206557D01*
X15163316D01*
Y7202933D01*
Y7199309D01*
Y7195685D01*
Y7192061D01*
X15159692D01*
Y7188437D01*
Y7184813D01*
X15185060D01*
Y7188437D01*
Y7192061D01*
Y7195685D01*
Y7199309D01*
Y7202933D01*
Y7206557D01*
Y7210181D01*
Y7213805D01*
X15181436D01*
Y7217429D01*
Y7221053D01*
Y7224677D01*
Y7228301D01*
Y7231925D01*
X15177812D01*
Y7235549D01*
Y7239173D01*
Y7242797D01*
Y7246421D01*
X15174188D01*
Y7250044D01*
Y7253668D01*
D02*
G37*
%LPD*%
D29*
X15455600Y9626300D02*
X15735600D01*
X15455600D02*
Y9906300D01*
X15735600D01*
Y9626300D02*
Y9906300D01*
X13792500Y6260876D02*
Y6540876D01*
X13512500Y6260876D02*
X13792500D01*
X13512500D02*
Y6540876D01*
X13792500D01*
X14693600Y12318700D02*
Y12598700D01*
Y12318700D02*
X14973599D01*
Y12598700D01*
X14693600D02*
X14973599D01*
X14134801Y12306000D02*
Y12586000D01*
Y12306000D02*
X14414799D01*
Y12586000D01*
X14134801D02*
X14414799D01*
X15748300Y9016700D02*
Y9296700D01*
X15468300D02*
X15748300D01*
X15468300Y9016700D02*
Y9296700D01*
Y9016700D02*
X15748300D01*
X13512500Y11062000D02*
X13792500D01*
X13512500Y10782000D02*
Y11062000D01*
Y10782000D02*
X13792500D01*
Y11062000D01*
X13512500Y5540878D02*
X13792500D01*
X13512500Y5260878D02*
Y5540878D01*
Y5260878D02*
X13792500D01*
Y5540878D01*
X13512500Y12065300D02*
X13792500D01*
X13512500Y11785300D02*
Y12065300D01*
Y11785300D02*
X13792500D01*
Y12065300D01*
D30*
X15396974Y9344139D02*
X15446957D01*
Y9319147D01*
X15438628Y9310816D01*
X15421965D01*
X15413635Y9319147D01*
Y9344139D01*
X15446957Y9294155D02*
Y9277494D01*
Y9285824D01*
X15396974D01*
Y9294155D01*
Y9277494D01*
Y9252502D02*
X15446957D01*
X15396974Y9219179D01*
X15446957D01*
X15388643Y9202518D02*
Y9169196D01*
X15438628Y9119212D02*
X15446957Y9127543D01*
Y9144204D01*
X15438628Y9152535D01*
X15405304D01*
X15396974Y9144204D01*
Y9127543D01*
X15405304Y9119212D01*
X15421965D01*
Y9135874D01*
X15396974Y9102551D02*
X15446957D01*
X15396974Y9069228D01*
X15446957D01*
Y9052567D02*
X15396974D01*
Y9027576D01*
X15405304Y9019245D01*
X15438628D01*
X15446957Y9027576D01*
Y9052567D01*
X15438628Y9002584D02*
X15446957Y8994253D01*
Y8977592D01*
X15438628Y8969261D01*
X15430296D01*
X15421965Y8977592D01*
Y8985923D01*
Y8977592D01*
X15413635Y8969261D01*
X15405304D01*
X15396974Y8977592D01*
Y8994253D01*
X15405304Y9002584D01*
X15384274Y9953739D02*
X15434258D01*
Y9928747D01*
X15425928Y9920416D01*
X15409265D01*
X15400935Y9928747D01*
Y9953739D01*
X15434258Y9903755D02*
Y9887094D01*
Y9895424D01*
X15384274D01*
Y9903755D01*
Y9887094D01*
Y9862102D02*
X15434258D01*
X15384274Y9828779D01*
X15434258D01*
X15375943Y9812118D02*
Y9778796D01*
X15434258Y9762135D02*
X15384274D01*
Y9737143D01*
X15392604Y9728812D01*
X15400935D01*
X15409265Y9737143D01*
Y9762135D01*
Y9737143D01*
X15417596Y9728812D01*
X15425928D01*
X15434258Y9737143D01*
Y9762135D01*
X15384274Y9712151D02*
X15417596D01*
X15434258Y9695490D01*
X15417596Y9678828D01*
X15384274D01*
X15409265D01*
Y9712151D01*
X15434258Y9662167D02*
Y9628845D01*
Y9645506D01*
X15384274D01*
X15425928Y9612184D02*
X15434258Y9603853D01*
Y9587192D01*
X15425928Y9578861D01*
X15417596D01*
X15409265Y9587192D01*
Y9595523D01*
Y9587192D01*
X15400935Y9578861D01*
X15392604D01*
X15384274Y9587192D01*
Y9603853D01*
X15392604Y9612184D01*
X13509842Y6180939D02*
Y6220926D01*
X13529836D01*
X13536501Y6214261D01*
Y6200932D01*
X13529836Y6194268D01*
X13509842D01*
X13549829Y6220926D02*
X13563158D01*
X13556494D01*
Y6180939D01*
X13549829D01*
X13563158D01*
X13583151D02*
Y6220926D01*
X13609810Y6180939D01*
Y6220926D01*
X13623138Y6174274D02*
X13649797D01*
X13689784Y6214261D02*
X13683119Y6220926D01*
X13669791D01*
X13663126Y6214261D01*
Y6187603D01*
X13669791Y6180939D01*
X13683119D01*
X13689784Y6187603D01*
Y6200932D01*
X13676456D01*
X13703113Y6180939D02*
Y6220926D01*
X13729771Y6180939D01*
Y6220926D01*
X13743100D02*
Y6180939D01*
X13763094D01*
X13769759Y6187603D01*
Y6214261D01*
X13763094Y6220926D01*
X13743100D01*
X13515340Y12146280D02*
Y12186267D01*
X13535333D01*
X13541998Y12179603D01*
Y12166274D01*
X13535333Y12159609D01*
X13515340D01*
X13555327Y12186267D02*
X13568655D01*
X13561990D01*
Y12146280D01*
X13555327D01*
X13568655D01*
X13588649D02*
Y12186267D01*
X13615308Y12146280D01*
Y12186267D01*
X13628636Y12139616D02*
X13655295D01*
X13695280Y12179603D02*
X13688617Y12186267D01*
X13675288D01*
X13668623Y12179603D01*
Y12152944D01*
X13675288Y12146280D01*
X13688617D01*
X13695280Y12152944D01*
Y12166274D01*
X13681952D01*
X13708611Y12146280D02*
Y12186267D01*
X13735268Y12146280D01*
Y12186267D01*
X13748598D02*
Y12146280D01*
X13768591D01*
X13775255Y12152944D01*
Y12179603D01*
X13768591Y12186267D01*
X13748598D01*
X13815242Y12146280D02*
X13788583D01*
X13815242Y12172938D01*
Y12179603D01*
X13808578Y12186267D01*
X13795248D01*
X13788583Y12179603D01*
X13515340Y5621020D02*
Y5661007D01*
X13535333D01*
X13541998Y5654343D01*
Y5641014D01*
X13535333Y5634349D01*
X13515340D01*
X13555327Y5661007D02*
X13568655D01*
X13561990D01*
Y5621020D01*
X13555327D01*
X13568655D01*
X13588649D02*
Y5661007D01*
X13615308Y5621020D01*
Y5661007D01*
X13628636Y5614356D02*
X13655295D01*
X13668623Y5661007D02*
Y5621020D01*
X13688617D01*
X13695280Y5627684D01*
Y5634349D01*
X13688617Y5641014D01*
X13668623D01*
X13688617D01*
X13695280Y5647678D01*
Y5654343D01*
X13688617Y5661007D01*
X13668623D01*
X13708611Y5621020D02*
Y5647678D01*
X13721939Y5661007D01*
X13735268Y5647678D01*
Y5621020D01*
Y5641014D01*
X13708611D01*
X13748598Y5661007D02*
X13775255D01*
X13761926D01*
Y5621020D01*
X13515340Y11142980D02*
Y11182967D01*
X13535333D01*
X13541998Y11176303D01*
Y11162974D01*
X13535333Y11156309D01*
X13515340D01*
X13555327Y11182967D02*
X13568655D01*
X13561990D01*
Y11142980D01*
X13555327D01*
X13568655D01*
X13588649D02*
Y11182967D01*
X13615308Y11142980D01*
Y11182967D01*
X13628636Y11136316D02*
X13655295D01*
X13668623Y11182967D02*
Y11142980D01*
X13688617D01*
X13695280Y11149644D01*
Y11156309D01*
X13688617Y11162974D01*
X13668623D01*
X13688617D01*
X13695280Y11169638D01*
Y11176303D01*
X13688617Y11182967D01*
X13668623D01*
X13708611Y11142980D02*
Y11169638D01*
X13721939Y11182967D01*
X13735268Y11169638D01*
Y11142980D01*
Y11162974D01*
X13708611D01*
X13748598Y11182967D02*
X13775255D01*
X13761926D01*
Y11142980D01*
X13815242D02*
X13788583D01*
X13815242Y11169638D01*
Y11176303D01*
X13808578Y11182967D01*
X13795248D01*
X13788583Y11176303D01*
D34*
X14352225Y12679190D02*
X14372218D01*
X14362221D01*
Y12619210D01*
X14352225D01*
X14372218D01*
X14402208D02*
Y12679190D01*
X14442195Y12619210D01*
Y12679190D01*
X14462189Y12649200D02*
X14502176D01*
X14898325Y12679190D02*
X14918318D01*
X14908321D01*
Y12619210D01*
X14898325D01*
X14918318D01*
X14948308D02*
Y12679190D01*
X14988295Y12619210D01*
Y12679190D01*
X15008289Y12649200D02*
X15048276D01*
X15028282Y12669193D02*
Y12629206D01*
D53*
X15608099Y9561300D02*
G03*
X15608099Y9561300I-12500J0D01*
G01*
X13870000Y6400876D02*
G03*
X13870000Y6400876I-12500J0D01*
G01*
X14846100Y12663700D02*
G03*
X14846100Y12663700I-12500J0D01*
G01*
X14287300Y12651000D02*
G03*
X14287300Y12651000I-12500J0D01*
G01*
X15620799Y8951700D02*
G03*
X15620799Y8951700I-12500J0D01*
G01*
X13870000Y10922000D02*
G03*
X13870000Y10922000I-12500J0D01*
G01*
Y5400876D02*
G03*
X13870000Y5400876I-12500J0D01*
G01*
Y11925300D02*
G03*
X13870000Y11925300I-12500J0D01*
G01*
D54*
X13347701Y9423400D02*
X13652499D01*
X15836900D01*
X13347701Y4305300D02*
X15836900D01*
X13347701Y7924800D02*
X15836900D01*
Y4305300D02*
Y7924800D01*
X13347701Y4305300D02*
Y7924800D01*
Y4309186D02*
X13360400Y4305300D01*
X13347701Y12712700D02*
X15849600D01*
X13360400Y4305300D02*
X15836900D01*
Y7975600D01*
X13347701Y4309186D02*
Y7988300D01*
X15836900D02*
X15849600Y12712700D01*
X13347701Y7988300D02*
Y12712700D01*
%TF.MD5,ccf0f1f4f89425504ee80c60bd147e0f*%
M02*
