%TF.GenerationSoftware,Altium Limited,Altium Designer,20.0.13 (296)*%
G04 Layer_Physical_Order=2*
G04 Layer_Color=16711680*
%FSLAX45Y45*%
%MOMM*%
%TF.FileFunction,Copper,L2,Bot,Signal*%
%TF.Part,Single*%
G01*
G75*
%TA.AperFunction,Conductor*%
%ADD15C,0.50000*%
%TA.AperFunction,ComponentPad*%
%ADD16R,1.50000X1.50000*%
%ADD17R,1.50000X1.50000*%
%TA.AperFunction,ViaPad*%
%ADD18C,2.50000*%
%ADD19C,1.27000*%
D15*
X14611349Y10547350D02*
X15474950D01*
X14605000Y10553700D02*
X14611349Y10547350D01*
X15474950D02*
X15481300Y10541000D01*
X13970000Y11163300D02*
Y11480800D01*
D16*
X14833600Y12458700D02*
D03*
X14274800Y12446000D02*
D03*
X15608299Y11264900D02*
D03*
X15595599Y10769600D02*
D03*
D17*
X13652499Y10922000D02*
D03*
Y5400878D02*
D03*
Y11925300D02*
D03*
Y6400876D02*
D03*
D18*
X15557500Y12433300D02*
D03*
X15544800Y4610100D02*
D03*
X13677901D02*
D03*
X13589000Y12433300D02*
D03*
X13614400Y8705200D02*
D03*
X15608299Y8674100D02*
D03*
D19*
X15481300Y10541000D02*
D03*
X14605000Y10553700D02*
D03*
X13970000Y11480800D02*
D03*
Y11163300D02*
D03*
%TF.MD5,80a0e45462a4857eff9b6e67bfc66bad*%
M02*
