%TF.GenerationSoftware,Altium Limited,Altium Designer,22.2.1 (43)*%
G04 Layer_Color=128*
%FSLAX45Y45*%
%MOMM*%
%TF.SameCoordinates,1A700276-89F6-4FF8-B3D7-4A67EA63658B*%
%TF.FilePolarity,Positive*%
%TF.FileFunction,Paste,Bot*%
%TF.Part,Single*%
G01*
G75*
%TA.AperFunction,SMDPad,CuDef*%
G04:AMPARAMS|DCode=15|XSize=0.94mm|YSize=1.02mm|CornerRadius=0.094mm|HoleSize=0mm|Usage=FLASHONLY|Rotation=270.000|XOffset=0mm|YOffset=0mm|HoleType=Round|Shape=RoundedRectangle|*
%AMROUNDEDRECTD15*
21,1,0.94000,0.83200,0,0,270.0*
21,1,0.75200,1.02000,0,0,270.0*
1,1,0.18800,-0.41600,-0.37600*
1,1,0.18800,-0.41600,0.37600*
1,1,0.18800,0.41600,0.37600*
1,1,0.18800,0.41600,-0.37600*
%
%ADD15ROUNDEDRECTD15*%
%ADD16R,1.00000X1.10000*%
%ADD17R,1.10000X1.00000*%
%TA.AperFunction,ConnectorPad*%
%ADD18R,1.20000X0.80000*%
%ADD19R,1.20000X0.76000*%
%ADD20R,1.20000X0.70000*%
%TA.AperFunction,SMDPad,CuDef*%
%ADD21R,3.12000X2.29000*%
%ADD22R,1.37160X3.40360*%
G04:AMPARAMS|DCode=23|XSize=0.94mm|YSize=1.02mm|CornerRadius=0.094mm|HoleSize=0mm|Usage=FLASHONLY|Rotation=180.000|XOffset=0mm|YOffset=0mm|HoleType=Round|Shape=RoundedRectangle|*
%AMROUNDEDRECTD23*
21,1,0.94000,0.83200,0,0,180.0*
21,1,0.75200,1.02000,0,0,180.0*
1,1,0.18800,-0.37600,0.41600*
1,1,0.18800,0.37600,0.41600*
1,1,0.18800,0.37600,-0.41600*
1,1,0.18800,-0.37600,-0.41600*
%
%ADD23ROUNDEDRECTD23*%
G04:AMPARAMS|DCode=24|XSize=1.97mm|YSize=0.6mm|CornerRadius=0.075mm|HoleSize=0mm|Usage=FLASHONLY|Rotation=180.000|XOffset=0mm|YOffset=0mm|HoleType=Round|Shape=RoundedRectangle|*
%AMROUNDEDRECTD24*
21,1,1.97000,0.45000,0,0,180.0*
21,1,1.82000,0.60000,0,0,180.0*
1,1,0.15000,-0.91000,0.22500*
1,1,0.15000,0.91000,0.22500*
1,1,0.15000,0.91000,-0.22500*
1,1,0.15000,-0.91000,-0.22500*
%
%ADD24ROUNDEDRECTD24*%
G04:AMPARAMS|DCode=26|XSize=1.37mm|YSize=0.59mm|CornerRadius=0.1475mm|HoleSize=0mm|Usage=FLASHONLY|Rotation=90.000|XOffset=0mm|YOffset=0mm|HoleType=Round|Shape=RoundedRectangle|*
%AMROUNDEDRECTD26*
21,1,1.37000,0.29500,0,0,90.0*
21,1,1.07500,0.59000,0,0,90.0*
1,1,0.29500,0.14750,0.53750*
1,1,0.29500,0.14750,-0.53750*
1,1,0.29500,-0.14750,-0.53750*
1,1,0.29500,-0.14750,0.53750*
%
%ADD26ROUNDEDRECTD26*%
%ADD27R,3.50520X2.26060*%
G36*
X14642101Y4883700D02*
X14771100D01*
Y5047700D01*
X14642101D01*
Y4883700D01*
D02*
G37*
G36*
X14705600Y6153700D02*
X14834599D01*
Y6317700D01*
X14705600D01*
Y6153700D01*
D02*
G37*
G36*
X14591299Y11627400D02*
X14720300D01*
Y11791400D01*
X14591299D01*
Y11627400D01*
D02*
G37*
D15*
X15176500Y7508499D02*
D03*
Y7350501D02*
D03*
X15252699Y11775699D02*
D03*
Y11617701D02*
D03*
X14122400Y11940799D02*
D03*
Y11782801D02*
D03*
X14097000Y6340099D02*
D03*
Y6182101D02*
D03*
X14300200Y6454399D02*
D03*
Y6296401D02*
D03*
X15379700Y6314699D02*
D03*
Y6156701D02*
D03*
X15290800Y5026401D02*
D03*
Y5184399D02*
D03*
X14122400Y5070099D02*
D03*
Y4912101D02*
D03*
X15176500Y6880601D02*
D03*
Y7038599D02*
D03*
D16*
X15341600Y9279799D02*
D03*
Y9109801D02*
D03*
X15201900Y4745899D02*
D03*
Y4575901D02*
D03*
X13589000Y10417901D02*
D03*
Y10587899D02*
D03*
Y9986101D02*
D03*
Y10156099D02*
D03*
Y6747601D02*
D03*
Y6917599D02*
D03*
Y7183303D02*
D03*
Y7353300D02*
D03*
D17*
X14689999Y5842000D02*
D03*
X14520001D02*
D03*
X15655199Y5562600D02*
D03*
X15485201D02*
D03*
X15655199Y5384800D02*
D03*
X15485201D02*
D03*
Y5740400D02*
D03*
X15655199D02*
D03*
X14956699Y11163300D02*
D03*
X14786700D02*
D03*
X14296300Y12115800D02*
D03*
X14126302D02*
D03*
D18*
X15194901Y10993999D02*
D03*
Y10444002D02*
D03*
D19*
Y10871002D02*
D03*
Y10566999D02*
D03*
D20*
Y10769001D02*
D03*
Y10669001D02*
D03*
D21*
X14630400Y7505598D02*
D03*
Y8191602D02*
D03*
D22*
X13967461Y8915400D02*
D03*
X14378940D02*
D03*
X15077440D02*
D03*
X14665961D02*
D03*
D23*
X14678401Y9410700D02*
D03*
X14836398D02*
D03*
X14493500Y11163300D02*
D03*
X14335501D02*
D03*
X14506200Y4533900D02*
D03*
X14348201D02*
D03*
D24*
X14903297Y11899900D02*
D03*
Y11772900D02*
D03*
Y11645900D02*
D03*
Y11518900D02*
D03*
X14408302Y11645900D02*
D03*
Y11772900D02*
D03*
Y11899900D02*
D03*
Y11518900D02*
D03*
X15017598Y6426200D02*
D03*
Y6299200D02*
D03*
Y6172200D02*
D03*
Y6045200D02*
D03*
X14522601D02*
D03*
Y6172200D02*
D03*
Y6299200D02*
D03*
Y6426200D02*
D03*
X14459097Y5156200D02*
D03*
Y5029200D02*
D03*
Y4902200D02*
D03*
Y4775200D02*
D03*
X14954092D02*
D03*
Y4902200D02*
D03*
Y5029200D02*
D03*
Y5156200D02*
D03*
D26*
X14890999Y9712803D02*
D03*
X14986000D02*
D03*
X15081001D02*
D03*
Y9946803D02*
D03*
X14986000D02*
D03*
X14890999D02*
D03*
D27*
X14224001Y10175240D02*
D03*
Y9611360D02*
D03*
%TF.MD5,594967f0819ad6e8417b4820ea9d60fc*%
M02*
