%TF.GenerationSoftware,Altium Limited,Altium Designer,22.2.1 (43)*%
G04 Layer_Color=8388736*
%FSLAX45Y45*%
%MOMM*%
%TF.SameCoordinates,1A700276-89F6-4FF8-B3D7-4A67EA63658B*%
%TF.FilePolarity,Negative*%
%TF.FileFunction,Soldermask,Top*%
%TF.Part,Single*%
G01*
G75*
%TA.AperFunction,ComponentPad*%
%ADD49O,2.40320X1.30320*%
%ADD50R,1.70320X1.70320*%
%ADD51R,1.70320X1.70320*%
%TA.AperFunction,ViaPad*%
%ADD52C,1.47320*%
D49*
X15202901Y11151001D02*
D03*
Y10287000D02*
D03*
X15582899Y11151001D02*
D03*
Y10287000D02*
D03*
D50*
X15595599Y9766300D02*
D03*
X14833600Y12458700D02*
D03*
X14274800Y12446000D02*
D03*
X15608299Y9156700D02*
D03*
D51*
X13652499Y6400876D02*
D03*
Y10922000D02*
D03*
Y5400878D02*
D03*
Y11925300D02*
D03*
D52*
X14587219Y11460480D02*
D03*
X15786099Y6936740D02*
D03*
X13954761Y6742506D02*
D03*
X13726160Y5196840D02*
D03*
X13881100Y7353300D02*
D03*
X13436600Y10525760D02*
D03*
X13919200Y6340099D02*
D03*
X13583920Y9304020D02*
D03*
X14173199Y6484620D02*
D03*
X15430499Y7668260D02*
D03*
X15588478Y10027422D02*
D03*
X14615160Y9613900D02*
D03*
Y8435340D02*
D03*
X14236700Y5842000D02*
D03*
X14658340Y4610100D02*
D03*
X14376401Y5928360D02*
D03*
X15138400Y4394200D02*
D03*
%TF.MD5,815d2e482c5971de0af8019af4a2cee9*%
M02*
