%TF.GenerationSoftware,Altium Limited,Altium Designer,22.2.1 (43)*%
G04 Layer_Color=16711935*
%FSLAX45Y45*%
%MOMM*%
%TF.SameCoordinates,1A700276-89F6-4FF8-B3D7-4A67EA63658B*%
%TF.FilePolarity,Negative*%
%TF.FileFunction,Soldermask,Bot*%
%TF.Part,Single*%
G01*
G75*
%TA.AperFunction,SMDPad,CuDef*%
G04:AMPARAMS|DCode=36|XSize=1.1432mm|YSize=1.2232mm|CornerRadius=0.1956mm|HoleSize=0mm|Usage=FLASHONLY|Rotation=270.000|XOffset=0mm|YOffset=0mm|HoleType=Round|Shape=RoundedRectangle|*
%AMROUNDEDRECTD36*
21,1,1.14320,0.83200,0,0,270.0*
21,1,0.75200,1.22320,0,0,270.0*
1,1,0.39120,-0.41600,-0.37600*
1,1,0.39120,-0.41600,0.37600*
1,1,0.39120,0.41600,0.37600*
1,1,0.39120,0.41600,-0.37600*
%
%ADD36ROUNDEDRECTD36*%
%ADD37R,1.20320X1.30320*%
%ADD38R,1.30320X1.20320*%
%TA.AperFunction,ConnectorPad*%
%ADD39R,1.40320X1.00320*%
%ADD40R,1.40320X0.96320*%
%ADD41R,1.40320X0.90320*%
%TA.AperFunction,SMDPad,CuDef*%
%ADD42R,3.32320X2.49320*%
%ADD43R,1.57480X3.60680*%
G04:AMPARAMS|DCode=44|XSize=1.1432mm|YSize=1.2232mm|CornerRadius=0.1956mm|HoleSize=0mm|Usage=FLASHONLY|Rotation=180.000|XOffset=0mm|YOffset=0mm|HoleType=Round|Shape=RoundedRectangle|*
%AMROUNDEDRECTD44*
21,1,1.14320,0.83200,0,0,180.0*
21,1,0.75200,1.22320,0,0,180.0*
1,1,0.39120,-0.37600,0.41600*
1,1,0.39120,0.37600,0.41600*
1,1,0.39120,0.37600,-0.41600*
1,1,0.39120,-0.37600,-0.41600*
%
%ADD44ROUNDEDRECTD44*%
G04:AMPARAMS|DCode=45|XSize=2.1732mm|YSize=0.8032mm|CornerRadius=0.1766mm|HoleSize=0mm|Usage=FLASHONLY|Rotation=180.000|XOffset=0mm|YOffset=0mm|HoleType=Round|Shape=RoundedRectangle|*
%AMROUNDEDRECTD45*
21,1,2.17320,0.45000,0,0,180.0*
21,1,1.82000,0.80320,0,0,180.0*
1,1,0.35320,-0.91000,0.22500*
1,1,0.35320,0.91000,0.22500*
1,1,0.35320,0.91000,-0.22500*
1,1,0.35320,-0.91000,-0.22500*
%
%ADD45ROUNDEDRECTD45*%
%ADD46R,1.70320X2.70320*%
G04:AMPARAMS|DCode=47|XSize=1.5732mm|YSize=0.7932mm|CornerRadius=0.2491mm|HoleSize=0mm|Usage=FLASHONLY|Rotation=90.000|XOffset=0mm|YOffset=0mm|HoleType=Round|Shape=RoundedRectangle|*
%AMROUNDEDRECTD47*
21,1,1.57320,0.29500,0,0,90.0*
21,1,1.07500,0.79320,0,0,90.0*
1,1,0.49820,0.14750,0.53750*
1,1,0.49820,0.14750,-0.53750*
1,1,0.49820,-0.14750,-0.53750*
1,1,0.49820,-0.14750,0.53750*
%
%ADD47ROUNDEDRECTD47*%
%ADD48R,3.70840X2.46380*%
%TA.AperFunction,ComponentPad*%
%ADD49O,2.40320X1.30320*%
%ADD50R,1.70320X1.70320*%
%ADD51R,1.70320X1.70320*%
%TA.AperFunction,ViaPad*%
%ADD52C,1.47320*%
D36*
X15176500Y7508499D02*
D03*
Y7350501D02*
D03*
X15252699Y11775699D02*
D03*
Y11617701D02*
D03*
X14122400Y11940799D02*
D03*
Y11782801D02*
D03*
X14097000Y6340099D02*
D03*
Y6182101D02*
D03*
X14300200Y6454399D02*
D03*
Y6296401D02*
D03*
X15379700Y6314699D02*
D03*
Y6156701D02*
D03*
X15290800Y5026401D02*
D03*
Y5184399D02*
D03*
X14122400Y5070099D02*
D03*
Y4912101D02*
D03*
X15176500Y6880601D02*
D03*
Y7038599D02*
D03*
D37*
X15341600Y9279799D02*
D03*
Y9109801D02*
D03*
X15201900Y4745899D02*
D03*
Y4575901D02*
D03*
X13589000Y10417901D02*
D03*
Y10587899D02*
D03*
Y9986101D02*
D03*
Y10156099D02*
D03*
Y6747601D02*
D03*
Y6917599D02*
D03*
Y7183303D02*
D03*
Y7353300D02*
D03*
D38*
X14689999Y5842000D02*
D03*
X14520001D02*
D03*
X15655199Y5562600D02*
D03*
X15485201D02*
D03*
X15655199Y5384800D02*
D03*
X15485201D02*
D03*
Y5740400D02*
D03*
X15655199D02*
D03*
X14956699Y11163300D02*
D03*
X14786700D02*
D03*
X14296300Y12115800D02*
D03*
X14126302D02*
D03*
D39*
X15194901Y10993999D02*
D03*
Y10444002D02*
D03*
D40*
Y10871002D02*
D03*
Y10566999D02*
D03*
D41*
Y10769001D02*
D03*
Y10669001D02*
D03*
D42*
X14630400Y7505598D02*
D03*
Y8191602D02*
D03*
D43*
X13967461Y8915400D02*
D03*
X14378940D02*
D03*
X15077440D02*
D03*
X14665961D02*
D03*
D44*
X14678401Y9410700D02*
D03*
X14836398D02*
D03*
X14493500Y11163300D02*
D03*
X14335501D02*
D03*
X14506200Y4533900D02*
D03*
X14348201D02*
D03*
D45*
X14903297Y11899900D02*
D03*
Y11772900D02*
D03*
Y11645900D02*
D03*
Y11518900D02*
D03*
X14408302Y11645900D02*
D03*
Y11772900D02*
D03*
Y11899900D02*
D03*
Y11518900D02*
D03*
X15017598Y6426200D02*
D03*
Y6299200D02*
D03*
Y6172200D02*
D03*
Y6045200D02*
D03*
X14522601D02*
D03*
Y6172200D02*
D03*
Y6299200D02*
D03*
Y6426200D02*
D03*
X14459097Y5156200D02*
D03*
Y5029200D02*
D03*
Y4902200D02*
D03*
Y4775200D02*
D03*
X14954092D02*
D03*
Y4902200D02*
D03*
Y5029200D02*
D03*
Y5156200D02*
D03*
D46*
X14655800Y11709400D02*
D03*
X14770100Y6235700D02*
D03*
X14706595Y4965700D02*
D03*
D47*
X14890999Y9712803D02*
D03*
X14986000D02*
D03*
X15081001D02*
D03*
Y9946803D02*
D03*
X14986000D02*
D03*
X14890999D02*
D03*
D48*
X14224001Y10175240D02*
D03*
Y9611360D02*
D03*
D49*
X15202901Y11151001D02*
D03*
Y10287000D02*
D03*
X15582899Y11151001D02*
D03*
Y10287000D02*
D03*
D50*
X15595599Y9766300D02*
D03*
X14833600Y12458700D02*
D03*
X14274800Y12446000D02*
D03*
X15608299Y9156700D02*
D03*
D51*
X13652499Y6400876D02*
D03*
Y10922000D02*
D03*
Y5400878D02*
D03*
Y11925300D02*
D03*
D52*
X14587219Y11460480D02*
D03*
X15786099Y6936740D02*
D03*
X13954761Y6742506D02*
D03*
X13726160Y5196840D02*
D03*
X13881100Y7353300D02*
D03*
X13436600Y10525760D02*
D03*
X13919200Y6340099D02*
D03*
X13583920Y9304020D02*
D03*
X14173199Y6484620D02*
D03*
X15430499Y7668260D02*
D03*
X15588478Y10027422D02*
D03*
X14615160Y9613900D02*
D03*
Y8435340D02*
D03*
X14236700Y5842000D02*
D03*
X14658340Y4610100D02*
D03*
X14376401Y5928360D02*
D03*
X15138400Y4394200D02*
D03*
%TF.MD5,89e5d3213870e042bcf20bb5ea994256*%
M02*
