%TF.GenerationSoftware,Altium Limited,Altium Designer,22.2.1 (43)*%
G04 Layer_Color=32768*
%FSLAX45Y45*%
%MOMM*%
%TF.SameCoordinates,1A700276-89F6-4FF8-B3D7-4A67EA63658B*%
%TF.FilePolarity,Positive*%
%TF.FileFunction,Other,Mechanical_15*%
%TF.Part,Single*%
G01*
G75*
%TA.AperFunction,NonConductor*%
%ADD56C,0.05000*%
%ADD57C,0.05080*%
D56*
X15100497Y7278502D02*
Y7580498D01*
Y7278502D02*
X15252502D01*
Y7580498D01*
X15100497D02*
X15252502D01*
X15067900Y10203998D02*
Y11233998D01*
Y10203998D02*
X15867899D01*
Y11233998D01*
X15067900D02*
X15867899D01*
X14310152Y7366102D02*
X14950648D01*
X14310152D02*
Y8331098D01*
X14950648D01*
Y7366102D02*
Y8331098D01*
X14908398Y9334698D02*
Y9486702D01*
X14606403Y9334698D02*
X14908398D01*
X14606403D02*
Y9486702D01*
X14908398D01*
X14284798Y11989399D02*
X15026797D01*
X14284798Y11429401D02*
X15026797D01*
Y11989399D01*
X14284798Y11429401D02*
Y11989399D01*
X15176698Y11545702D02*
X15328702D01*
X15176698D02*
Y11847698D01*
X15328702D01*
Y11545702D02*
Y11847698D01*
X14263503Y11087298D02*
Y11239302D01*
X14565498D01*
Y11087298D02*
Y11239302D01*
X14263503Y11087298D02*
X14565498D01*
X14046397Y11710802D02*
X14198402D01*
X14046397D02*
Y12012798D01*
X14198402D01*
Y11710802D02*
Y12012798D01*
X14020998Y6110102D02*
X14173003D01*
X14020998D02*
Y6412098D01*
X14173003D01*
Y6110102D02*
Y6412098D01*
X14224197Y6224402D02*
X14376202D01*
X14224197D02*
Y6526398D01*
X14376202D01*
Y6224402D02*
Y6526398D01*
X15303699Y6084702D02*
X15455702D01*
X15303699D02*
Y6386698D01*
X15455702D01*
Y6084702D02*
Y6386698D01*
X14399097Y6515699D02*
X15141096D01*
X14399097Y5955701D02*
X15141096D01*
Y6515699D01*
X14399097Y5955701D02*
Y6515699D01*
X15214798Y5256398D02*
X15366801D01*
Y4954402D02*
Y5256398D01*
X15214798Y4954402D02*
X15366801D01*
X15214798D02*
Y5256398D01*
X14276202Y4457898D02*
Y4609902D01*
X14578198D01*
Y4457898D02*
Y4609902D01*
X14276202Y4457898D02*
X14578198D01*
X14046397Y4840102D02*
X14198402D01*
X14046397D02*
Y5142098D01*
X14198402D01*
Y4840102D02*
Y5142098D01*
X14335593Y4685701D02*
Y5245699D01*
X15077592Y4685701D02*
Y5245699D01*
X14335593Y4685701D02*
X15077592D01*
X14335593Y5245699D02*
X15077592D01*
X15161002Y9619300D02*
Y10040300D01*
X14810999Y9619300D02*
X15161002D01*
X14810999D02*
Y10040300D01*
X15161002D01*
X15100497Y7110598D02*
X15252502D01*
Y6808602D02*
Y7110598D01*
X15100497Y6808602D02*
X15252502D01*
X15100497D02*
Y7110598D01*
D57*
X15263303Y9027500D02*
Y9362100D01*
Y9027500D02*
X15419897D01*
Y9362100D01*
X15263303D02*
X15419897D01*
X15123602Y4493600D02*
Y4828200D01*
Y4493600D02*
X15280199D01*
Y4828200D01*
X15123602D02*
X15280199D01*
X14437700Y5920298D02*
X14772301D01*
X14437700Y5763702D02*
Y5920298D01*
Y5763702D02*
X14772301D01*
Y5920298D01*
X15402901Y5640898D02*
X15737500D01*
X15402901Y5484302D02*
Y5640898D01*
Y5484302D02*
X15737500D01*
Y5640898D01*
X15402901Y5463098D02*
X15737500D01*
X15402901Y5306502D02*
Y5463098D01*
Y5306502D02*
X15737500D01*
Y5463098D01*
X15402901Y5662102D02*
X15737500D01*
Y5818698D01*
X15402901D02*
X15737500D01*
X15402901Y5662102D02*
Y5818698D01*
%TF.MD5,408a7e91ec592f14fbf6e96a68f37498*%
M02*
