%TF.GenerationSoftware,Altium Limited,Altium Designer,20.0.13 (296)*%
G04 Layer_Physical_Order=1*
G04 Layer_Color=255*
%FSLAX45Y45*%
%MOMM*%
%TF.FileFunction,Copper,L1,Top,Signal*%
%TF.Part,Single*%
G01*
G75*
%TA.AperFunction,SMDPad,CuDef*%
%ADD10R,1.10000X1.00000*%
%ADD11R,2.41300X3.30200*%
G04:AMPARAMS|DCode=12|XSize=1.97mm|YSize=0.6mm|CornerRadius=0.075mm|HoleSize=0mm|Usage=FLASHONLY|Rotation=0.000|XOffset=0mm|YOffset=0mm|HoleType=Round|Shape=RoundedRectangle|*
%AMROUNDEDRECTD12*
21,1,1.97000,0.45000,0,0,0.0*
21,1,1.82000,0.60000,0,0,0.0*
1,1,0.15000,0.91000,-0.22500*
1,1,0.15000,-0.91000,-0.22500*
1,1,0.15000,-0.91000,0.22500*
1,1,0.15000,0.91000,0.22500*
%
%ADD12ROUNDEDRECTD12*%
G04:AMPARAMS|DCode=13|XSize=0.94mm|YSize=1.02mm|CornerRadius=0.094mm|HoleSize=0mm|Usage=FLASHONLY|Rotation=0.000|XOffset=0mm|YOffset=0mm|HoleType=Round|Shape=RoundedRectangle|*
%AMROUNDEDRECTD13*
21,1,0.94000,0.83200,0,0,0.0*
21,1,0.75200,1.02000,0,0,0.0*
1,1,0.18800,0.37600,-0.41600*
1,1,0.18800,-0.37600,-0.41600*
1,1,0.18800,-0.37600,0.41600*
1,1,0.18800,0.37600,0.41600*
%
%ADD13ROUNDEDRECTD13*%
G04:AMPARAMS|DCode=14|XSize=0.94mm|YSize=1.02mm|CornerRadius=0.094mm|HoleSize=0mm|Usage=FLASHONLY|Rotation=90.000|XOffset=0mm|YOffset=0mm|HoleType=Round|Shape=RoundedRectangle|*
%AMROUNDEDRECTD14*
21,1,0.94000,0.83200,0,0,90.0*
21,1,0.75200,1.02000,0,0,90.0*
1,1,0.18800,0.41600,0.37600*
1,1,0.18800,0.41600,-0.37600*
1,1,0.18800,-0.41600,-0.37600*
1,1,0.18800,-0.41600,0.37600*
%
%ADD14ROUNDEDRECTD14*%
%TA.AperFunction,Conductor*%
%ADD15C,0.50000*%
%TA.AperFunction,ComponentPad*%
%ADD16R,1.50000X1.50000*%
%ADD17R,1.50000X1.50000*%
%TA.AperFunction,ViaPad*%
%ADD18C,2.50000*%
%ADD19C,1.27000*%
G36*
X15849600Y11017969D02*
X15836900Y11014117D01*
X15835136Y11016756D01*
X15766556Y11085336D01*
X15749886Y11096476D01*
X15730220Y11100387D01*
X15364734D01*
X15363980Y11104178D01*
X15356288Y11115689D01*
X15344777Y11123381D01*
X15331200Y11126082D01*
X15256000D01*
X15242421Y11123381D01*
X15230910Y11115689D01*
X15223218Y11104178D01*
X15221074Y11093400D01*
X15208125D01*
X15205981Y11104178D01*
X15198289Y11115689D01*
X15186778Y11123381D01*
X15173201Y11126082D01*
X15098001D01*
X15084422Y11123381D01*
X15072913Y11115689D01*
X15065221Y11104178D01*
X15064465Y11100387D01*
X15001241D01*
X14981575Y11096476D01*
X14968422Y11087687D01*
X14965681D01*
X14962532Y11089791D01*
X14949695Y11092345D01*
X14769792D01*
X14767789Y11098427D01*
X14776662Y11107255D01*
X14949695D01*
X14962532Y11109809D01*
X14973415Y11117080D01*
X14980685Y11127963D01*
X14983240Y11140800D01*
Y11185800D01*
X14980685Y11198637D01*
X14973415Y11209520D01*
X14962532Y11216791D01*
X14949695Y11219345D01*
X14814668D01*
X14679436Y11354576D01*
X14662766Y11365716D01*
X14643100Y11369627D01*
X13711873D01*
X13707013Y11381361D01*
X13825996Y11500344D01*
X13837135Y11517015D01*
X13841048Y11536680D01*
Y11738915D01*
X14100505Y11998373D01*
X14706752D01*
X14761507Y11943618D01*
X14755907Y11935237D01*
X14753352Y11922400D01*
Y11899900D01*
X14507446D01*
Y11922400D01*
X14504893Y11935237D01*
X14497623Y11946120D01*
X14486739Y11953391D01*
X14473901Y11955945D01*
X14395602D01*
Y11899900D01*
Y11843855D01*
X14471805D01*
X14473808Y11837773D01*
X14464935Y11828945D01*
X14291904D01*
X14279066Y11826391D01*
X14275917Y11824287D01*
X14263472D01*
X14249400Y11827086D01*
X14196642D01*
X14189088Y11838388D01*
X14177579Y11846080D01*
X14164000Y11848781D01*
X14080800D01*
X14067223Y11846080D01*
X14055711Y11838388D01*
X14048019Y11826877D01*
X14045319Y11813299D01*
Y11738099D01*
X14048019Y11724521D01*
X14055711Y11713010D01*
X14067223Y11705318D01*
X14078000Y11703174D01*
Y11690226D01*
X14067223Y11688082D01*
X14055711Y11680390D01*
X14048019Y11668879D01*
X14045319Y11655301D01*
Y11630401D01*
X14122400D01*
X14199483D01*
Y11655301D01*
X14196780Y11668879D01*
X14189088Y11680390D01*
X14177579Y11688082D01*
X14166800Y11690226D01*
Y11703174D01*
X14177579Y11705318D01*
X14189088Y11713010D01*
X14196642Y11724312D01*
X14238127D01*
X14252199Y11721513D01*
X14275917D01*
X14279066Y11719409D01*
X14291904Y11716855D01*
X14471805D01*
X14473808Y11710773D01*
X14464935Y11701945D01*
X14395602D01*
Y11645900D01*
Y11589855D01*
X14471805D01*
X14473808Y11583773D01*
X14464935Y11574945D01*
X14291904D01*
X14279066Y11572391D01*
X14268182Y11565120D01*
X14260912Y11554237D01*
X14258357Y11541400D01*
Y11496400D01*
X14260912Y11483563D01*
X14268182Y11472680D01*
X14279066Y11465409D01*
X14291904Y11462855D01*
X14473901D01*
X14486739Y11465409D01*
X14497623Y11472680D01*
X14504893Y11483563D01*
X14507446Y11496400D01*
Y11518900D01*
X14753352D01*
Y11496400D01*
X14755907Y11483563D01*
X14763177Y11472680D01*
X14774062Y11465409D01*
X14786897Y11462855D01*
X14825394D01*
Y11447780D01*
X14829305Y11428115D01*
X14840443Y11411444D01*
X14898865Y11353024D01*
X14915535Y11341884D01*
X14935201Y11337973D01*
X15507899D01*
Y11164500D01*
X15708701D01*
Y11255914D01*
X15710487Y11264900D01*
Y11353800D01*
X15708701Y11362786D01*
Y11365300D01*
X15708200D01*
X15706577Y11373465D01*
X15695436Y11390136D01*
X15659875Y11425696D01*
X15643205Y11436836D01*
X15623540Y11440747D01*
X14956485D01*
X14946111Y11451122D01*
X14950970Y11462855D01*
X14968896D01*
X14981734Y11465409D01*
X14992616Y11472680D01*
X14999889Y11483563D01*
X15002441Y11496400D01*
Y11538825D01*
X15008626Y11542923D01*
X15014786Y11544441D01*
X15025864Y11533364D01*
X15042535Y11522224D01*
X15062199Y11518313D01*
X15102567D01*
X15103320Y11514522D01*
X15111012Y11503011D01*
X15122523Y11495319D01*
X15136101Y11492618D01*
X15211301D01*
X15224879Y11495319D01*
X15236391Y11503011D01*
X15244083Y11514522D01*
X15246227Y11525300D01*
X15259174D01*
X15261317Y11514522D01*
X15269009Y11503011D01*
X15280521Y11495319D01*
X15294099Y11492618D01*
X15369299D01*
X15382877Y11495319D01*
X15394388Y11503011D01*
X15402080Y11514522D01*
X15403264Y11520474D01*
X15412065Y11522224D01*
X15428735Y11533364D01*
X15479536Y11584164D01*
X15490675Y11600835D01*
X15494588Y11620500D01*
Y12103100D01*
X15490675Y12122765D01*
X15479536Y12139436D01*
X15441435Y12177536D01*
X15424765Y12188676D01*
X15418098Y12190002D01*
Y12216600D01*
X15260802D01*
X15257298Y12216600D01*
X15248100D01*
X15244598Y12216600D01*
X15087302D01*
Y12065800D01*
X15116315D01*
Y12051500D01*
X15087302D01*
Y12027487D01*
X15059660D01*
X15039995Y12023576D01*
X15023325Y12012436D01*
X14966832Y11955945D01*
X14894525D01*
X14884987Y11965483D01*
Y12358300D01*
X14934000D01*
Y12559100D01*
X14733200D01*
Y12358300D01*
X14782213D01*
Y12084851D01*
X14770479Y12079991D01*
X14764374Y12086096D01*
X14747704Y12097236D01*
X14728038Y12101147D01*
X14079221D01*
X14059555Y12097236D01*
X14042883Y12086096D01*
X13753323Y11796536D01*
X13742184Y11779865D01*
X13738274Y11760200D01*
Y11557965D01*
X13489165Y11308856D01*
X13478024Y11292185D01*
X13474113Y11272520D01*
Y11176000D01*
Y10081260D01*
X13478024Y10061595D01*
X13489165Y10044924D01*
X14113014Y9421073D01*
Y9282900D01*
X14084003D01*
Y9132100D01*
X14113014D01*
Y8203400D01*
X14084003D01*
Y8052600D01*
X14113014D01*
Y8009799D01*
X14116927Y7990133D01*
X14128065Y7973462D01*
X14145662Y7955865D01*
X14162334Y7944726D01*
X14181999Y7940814D01*
X14790604D01*
X14810268Y7944726D01*
X14813014Y7946560D01*
X14824214Y7940574D01*
Y7143684D01*
X14810475Y7129945D01*
X14736102D01*
X14723267Y7127391D01*
X14712383Y7120120D01*
X14705112Y7109237D01*
X14702557Y7096400D01*
Y7073900D01*
X14456651D01*
Y7096400D01*
X14454099Y7109237D01*
X14446828Y7120120D01*
X14435944Y7127391D01*
X14423106Y7129945D01*
X14344807D01*
Y7073900D01*
Y7017855D01*
X14421010D01*
X14423013Y7011773D01*
X14414140Y7002945D01*
X14241109D01*
X14228271Y7000391D01*
X14225122Y6998287D01*
X14188699D01*
X14174628Y6995488D01*
X14120441D01*
X14112889Y7006790D01*
X14101378Y7014482D01*
X14090601Y7016626D01*
Y7029574D01*
X14101378Y7031718D01*
X14112889Y7039410D01*
X14120581Y7050921D01*
X14123282Y7064499D01*
Y7089399D01*
X14046201D01*
X13969118D01*
Y7064499D01*
X13971819Y7050921D01*
X13979510Y7039410D01*
X13991022Y7031718D01*
X14001801Y7029574D01*
Y7016626D01*
X13991022Y7014482D01*
X13979510Y7006790D01*
X13971819Y6995279D01*
X13969118Y6981701D01*
Y6906501D01*
X13971819Y6892923D01*
X13979510Y6881412D01*
X13991022Y6873720D01*
X14004601Y6871019D01*
X14087801D01*
X14101378Y6873720D01*
X14112889Y6881412D01*
X14120441Y6892714D01*
X14185899D01*
X14199973Y6895513D01*
X14225122D01*
X14228271Y6893409D01*
X14241109Y6890855D01*
X14421010D01*
X14423013Y6884773D01*
X14414140Y6875945D01*
X14344807D01*
Y6819900D01*
Y6763855D01*
X14421010D01*
X14423013Y6757773D01*
X14414140Y6748945D01*
X14241109D01*
X14228271Y6746391D01*
X14217387Y6739120D01*
X14210117Y6728237D01*
X14207562Y6715400D01*
Y6670400D01*
X14210117Y6657563D01*
X14217387Y6646680D01*
X14228271Y6639409D01*
X14241109Y6636855D01*
X14423106D01*
X14435944Y6639409D01*
X14446828Y6646680D01*
X14454099Y6657563D01*
X14456651Y6670400D01*
Y6692900D01*
X14702557D01*
Y6670400D01*
X14705112Y6657563D01*
X14706013Y6656215D01*
Y6527063D01*
X13680228Y5501278D01*
X13552100D01*
Y5300478D01*
X13752901D01*
Y5428606D01*
X14793736Y6469442D01*
X14804877Y6486113D01*
X14808788Y6505778D01*
Y6636855D01*
X14918102D01*
X14930939Y6639409D01*
X14941821Y6646680D01*
X14949094Y6657563D01*
X14951646Y6670400D01*
Y6715400D01*
X14949094Y6728237D01*
X14941821Y6739120D01*
X14930939Y6746391D01*
X14918102Y6748945D01*
X14738200D01*
X14736195Y6755027D01*
X14745070Y6763855D01*
X14918102D01*
X14930939Y6766409D01*
X14934088Y6768513D01*
X15064465D01*
X15065221Y6764722D01*
X15072913Y6753211D01*
X15084422Y6745519D01*
X15098001Y6742818D01*
X15173201D01*
X15186778Y6745519D01*
X15198289Y6753211D01*
X15205981Y6764722D01*
X15208125Y6775500D01*
X15221074D01*
X15223218Y6764722D01*
X15230910Y6753211D01*
X15242421Y6745519D01*
X15256000Y6742818D01*
X15331200D01*
X15344777Y6745519D01*
X15356288Y6753211D01*
X15363980Y6764722D01*
X15366164Y6775697D01*
X15377936Y6783564D01*
X15428735Y6834364D01*
X15439876Y6851035D01*
X15443787Y6870700D01*
Y8357779D01*
X15439876Y8377444D01*
X15428735Y8394115D01*
X15096986Y8725865D01*
Y9132100D01*
X15125998D01*
Y9282900D01*
X14968703D01*
X14965199Y9282900D01*
X14956001D01*
X14952498Y9282900D01*
X14795203D01*
Y9132100D01*
X14824214D01*
Y9084219D01*
X14825394Y9078294D01*
Y8203400D01*
X14795203D01*
Y8069473D01*
X14769318Y8043589D01*
X14423705D01*
X14414799Y8052600D01*
X14414798Y8056289D01*
Y8203400D01*
X14385786D01*
Y8575253D01*
X14674356Y8863824D01*
X14685497Y8880495D01*
X14689407Y8900160D01*
Y9427515D01*
X15835136Y10573244D01*
X15836900Y10575883D01*
X15849600Y10572031D01*
Y5118100D01*
X15836900Y5105400D01*
X15824200Y5118100D01*
X13347701D01*
Y12712700D01*
X15849600D01*
Y11017969D01*
D02*
G37*
G36*
X15087302Y11913109D02*
Y11900700D01*
X15244598D01*
X15248100Y11900700D01*
X15257298D01*
X15260802Y11900700D01*
X15277898D01*
X15283777Y11889904D01*
X15284007Y11888000D01*
X15280312Y11869420D01*
Y11847141D01*
X15269009Y11839589D01*
X15261317Y11828078D01*
X15259174Y11817300D01*
X15246227D01*
X15244083Y11828078D01*
X15236391Y11839589D01*
X15224879Y11847281D01*
X15211301Y11849982D01*
X15136101D01*
X15122523Y11847281D01*
X15111012Y11839589D01*
X15103320Y11828078D01*
X15102567Y11824287D01*
X14984883D01*
X14981734Y11826391D01*
X14968896Y11828945D01*
X14788995D01*
X14786990Y11835027D01*
X14795863Y11843855D01*
X14968896D01*
X14981734Y11846409D01*
X14985486Y11848916D01*
X15003125Y11852424D01*
X15019797Y11863564D01*
X15074602Y11918369D01*
X15087302Y11913109D01*
D02*
G37*
G36*
X15261317Y11717722D02*
X15269009Y11706211D01*
X15280521Y11698519D01*
X15294099Y11695818D01*
X15369299D01*
X15379112Y11697770D01*
X15391814Y11690378D01*
Y11653385D01*
X15389281Y11650748D01*
X15379112Y11644830D01*
X15369299Y11646782D01*
X15294099D01*
X15280521Y11644081D01*
X15269009Y11636389D01*
X15261317Y11624878D01*
X15259174Y11614100D01*
X15246227D01*
X15244083Y11624878D01*
X15236391Y11636389D01*
X15224879Y11644081D01*
X15211301Y11646782D01*
X15136101D01*
X15122523Y11644081D01*
X15111012Y11636389D01*
X15103320Y11624878D01*
X15102567Y11621087D01*
X15083485D01*
X15022336Y11682236D01*
X15005666Y11693376D01*
X14986000Y11697287D01*
X14984883D01*
X14981734Y11699391D01*
X14968896Y11701945D01*
X14788995D01*
X14786990Y11708027D01*
X14795863Y11716855D01*
X14968896D01*
X14981734Y11719409D01*
X14984883Y11721513D01*
X15102567D01*
X15103320Y11717722D01*
X15111012Y11706211D01*
X15122523Y11698519D01*
X15136101Y11695818D01*
X15211301D01*
X15224879Y11698519D01*
X15236391Y11706211D01*
X15244083Y11717722D01*
X15246227Y11728500D01*
X15259174D01*
X15261317Y11717722D01*
D02*
G37*
G36*
X14713634Y11175033D02*
X14708774Y11163300D01*
X14488245D01*
Y11185800D01*
X14485690Y11198637D01*
X14478419Y11209520D01*
X14467537Y11216791D01*
X14454700Y11219345D01*
X14376401D01*
Y11163300D01*
Y11107255D01*
X14452603D01*
X14454607Y11101173D01*
X14445734Y11092345D01*
X14272701D01*
X14259863Y11089791D01*
X14256714Y11087687D01*
X14109700D01*
X14090034Y11083776D01*
X14073364Y11072636D01*
X14009863Y11009136D01*
X13998724Y10992465D01*
X13994814Y10972800D01*
Y10942335D01*
X13991022Y10941581D01*
X13979510Y10933889D01*
X13971819Y10922378D01*
X13969118Y10908800D01*
Y10833600D01*
X13971819Y10820022D01*
X13979510Y10808511D01*
X13991022Y10800819D01*
X14001801Y10798675D01*
Y10785726D01*
X13991022Y10783583D01*
X13979510Y10775891D01*
X13971819Y10764380D01*
X13969118Y10750802D01*
Y10725902D01*
X14046201D01*
X14123282D01*
Y10750802D01*
X14120581Y10764380D01*
X14112889Y10775891D01*
X14101378Y10783583D01*
X14090601Y10785726D01*
Y10798675D01*
X14101378Y10800819D01*
X14112889Y10808511D01*
X14120581Y10820022D01*
X14123282Y10833600D01*
Y10908800D01*
X14120581Y10922378D01*
X14112889Y10933889D01*
X14102483Y10940842D01*
X14101059Y10948031D01*
X14100731Y10954659D01*
X14130984Y10984913D01*
X14256714D01*
X14259863Y10982809D01*
X14272701Y10980255D01*
X14452603D01*
X14454607Y10974173D01*
X14445734Y10965345D01*
X14376401D01*
Y10909300D01*
Y10853255D01*
X14452603D01*
X14454607Y10847173D01*
X14445734Y10838345D01*
X14272701D01*
X14259863Y10835791D01*
X14248981Y10828520D01*
X14241708Y10817637D01*
X14239156Y10804800D01*
Y10759800D01*
X14241708Y10746963D01*
X14248981Y10736080D01*
X14259863Y10728809D01*
X14272701Y10726255D01*
X14454700D01*
X14467537Y10728809D01*
X14478419Y10736080D01*
X14485690Y10746963D01*
X14488245Y10759800D01*
Y10782300D01*
X14731413D01*
Y10486085D01*
X14647215Y10401887D01*
X14245285D01*
X14018787Y10628387D01*
X14023647Y10640120D01*
X14033501D01*
Y10700502D01*
X13969118D01*
Y10694648D01*
X13957385Y10689788D01*
X13752901Y10894273D01*
Y11022400D01*
X13576888D01*
Y11154715D01*
X13689024Y11266853D01*
X14621815D01*
X14713634Y11175033D01*
D02*
G37*
G36*
X15223218Y10993822D02*
X15230910Y10982311D01*
X15242421Y10974619D01*
X15256000Y10971918D01*
X15331200D01*
X15344777Y10974619D01*
X15356288Y10982311D01*
X15363980Y10993822D01*
X15364734Y10997613D01*
X15708936D01*
X15747414Y10959135D01*
Y10630865D01*
X14601685Y9485136D01*
X14590544Y9468465D01*
X14586633Y9448800D01*
Y8921445D01*
X14298062Y8632875D01*
X14286923Y8616204D01*
X14283011Y8596539D01*
Y8203400D01*
X14257503D01*
X14253999Y8203400D01*
X14244801D01*
X14241298Y8203400D01*
X14215788D01*
Y9132100D01*
X14241298D01*
X14244801Y9132100D01*
X14253999D01*
X14257503Y9132100D01*
X14414798D01*
Y9282900D01*
X14385786D01*
Y9309054D01*
X15342635Y10265904D01*
X15353775Y10282575D01*
X15357686Y10302240D01*
Y10708059D01*
X15368988Y10715611D01*
X15376680Y10727122D01*
X15379381Y10740700D01*
Y10823900D01*
X15376680Y10837478D01*
X15368988Y10848989D01*
X15357477Y10856681D01*
X15343900Y10859382D01*
X15268700D01*
X15255121Y10856681D01*
X15243610Y10848989D01*
X15235918Y10837478D01*
X15233774Y10826700D01*
X15220827D01*
X15218681Y10837478D01*
X15210989Y10848989D01*
X15199480Y10856681D01*
X15185901Y10859382D01*
X15110701D01*
X15097124Y10856681D01*
X15085612Y10848989D01*
X15085210Y10848387D01*
X15072569Y10847142D01*
X14982080Y10937633D01*
X14980685Y10944637D01*
X14973415Y10955520D01*
X14962532Y10962791D01*
X14949695Y10965345D01*
X14769792D01*
X14767789Y10971427D01*
X14776662Y10980255D01*
X14949695D01*
X14962532Y10982809D01*
X14965681Y10984913D01*
X14988541D01*
X15008205Y10988824D01*
X15021358Y10997613D01*
X15064465D01*
X15065221Y10993822D01*
X15072913Y10982311D01*
X15084422Y10974619D01*
X15098001Y10971918D01*
X15173201D01*
X15186778Y10974619D01*
X15198289Y10982311D01*
X15205981Y10993822D01*
X15208125Y11004600D01*
X15221074D01*
X15223218Y10993822D01*
D02*
G37*
G36*
X14187663Y10314164D02*
X14204335Y10303024D01*
X14224001Y10299113D01*
X14668500D01*
X14688165Y10303024D01*
X14704836Y10314164D01*
X14819136Y10428464D01*
X14830276Y10445135D01*
X14834187Y10464800D01*
Y10726255D01*
X14949695D01*
X14962532Y10728809D01*
X14973415Y10736080D01*
X14980685Y10746963D01*
X14983240Y10759800D01*
Y10774534D01*
X14994974Y10779394D01*
X15028404Y10745964D01*
X15045074Y10734824D01*
X15064740Y10730913D01*
X15077167D01*
X15077921Y10727122D01*
X15085612Y10715611D01*
X15097124Y10707919D01*
X15110701Y10705218D01*
X15185901D01*
X15199480Y10707919D01*
X15210989Y10715611D01*
X15218681Y10727122D01*
X15220827Y10737900D01*
X15233774D01*
X15235918Y10727122D01*
X15243610Y10715611D01*
X15254912Y10708059D01*
Y10323525D01*
X14298062Y9366676D01*
X14286923Y9350005D01*
X14283011Y9330339D01*
Y9282900D01*
X14257503D01*
X14253999Y9282900D01*
X14244801D01*
X14241298Y9282900D01*
X14215788D01*
Y9442359D01*
X14211877Y9462023D01*
X14200739Y9478695D01*
X13576888Y10102545D01*
Y10821600D01*
X13680228D01*
X14187663Y10314164D01*
D02*
G37*
G36*
X14994211Y8704580D02*
X14998123Y8684915D01*
X15009262Y8668244D01*
X15341013Y8336493D01*
Y7393295D01*
X15328313Y7391000D01*
X15096986Y7622327D01*
Y8052600D01*
X15125998D01*
Y8203400D01*
X14968703D01*
X14965199Y8203400D01*
X14956001D01*
X14952498Y8203400D01*
X14928168D01*
Y9083040D01*
X14926990Y9088965D01*
Y9132100D01*
X14952498D01*
X14956001Y9132100D01*
X14965199D01*
X14968703Y9132100D01*
X14994211D01*
Y8704580D01*
D02*
G37*
G36*
Y7601041D02*
X14998123Y7581376D01*
X15009262Y7564705D01*
X15242212Y7331756D01*
Y7135441D01*
X15230910Y7127889D01*
X15223218Y7116378D01*
X15221074Y7105600D01*
X15208125D01*
X15205981Y7116378D01*
X15198289Y7127889D01*
X15186778Y7135581D01*
X15173201Y7138282D01*
X15098001D01*
X15084422Y7135581D01*
X15072913Y7127889D01*
X15065221Y7116378D01*
X15064465Y7112587D01*
X15036800D01*
X15017136Y7108676D01*
X15000464Y7097536D01*
X14964346Y7061420D01*
X14951646Y7066680D01*
Y7096400D01*
X14949094Y7109237D01*
X14941821Y7120120D01*
X14930939Y7127391D01*
X14926990Y7128177D01*
Y8052600D01*
X14952498D01*
X14956001Y8052600D01*
X14965199D01*
X14968703Y8052600D01*
X14994211D01*
Y7601041D01*
D02*
G37*
G36*
X15223218Y7006022D02*
X15230910Y6994511D01*
X15242421Y6986819D01*
X15256000Y6984118D01*
X15331200D01*
X15341013Y6976064D01*
Y6905036D01*
X15331200Y6896982D01*
X15256000D01*
X15242421Y6894281D01*
X15230910Y6886589D01*
X15223218Y6875078D01*
X15221074Y6864300D01*
X15208125D01*
X15205981Y6875078D01*
X15198289Y6886589D01*
X15186778Y6894281D01*
X15173201Y6896982D01*
X15098001D01*
X15084422Y6894281D01*
X15072913Y6886589D01*
X15065221Y6875078D01*
X15064465Y6871287D01*
X14934088D01*
X14930939Y6873391D01*
X14918102Y6875945D01*
X14738200D01*
X14736195Y6882027D01*
X14745070Y6890855D01*
X14918102D01*
X14930939Y6893409D01*
X14939000Y6898795D01*
X14942165Y6899424D01*
X14958836Y6910564D01*
X15052608Y7004334D01*
X15055574Y7004731D01*
X15067686Y7002331D01*
X15072913Y6994511D01*
X15084422Y6986819D01*
X15098001Y6984118D01*
X15173201D01*
X15186778Y6986819D01*
X15198289Y6994511D01*
X15205981Y7006022D01*
X15208125Y7016800D01*
X15221074D01*
X15223218Y7006022D01*
D02*
G37*
%LPC*%
G36*
X14375200Y12546400D02*
X14287500D01*
Y12458700D01*
X14375200D01*
Y12546400D01*
D02*
G37*
G36*
X14262100D02*
X14174400D01*
Y12458700D01*
X14262100D01*
Y12546400D01*
D02*
G37*
G36*
X14375200Y12433300D02*
X14287500D01*
Y12345600D01*
X14375200D01*
Y12433300D01*
D02*
G37*
G36*
X14262100D02*
X14174400D01*
Y12345600D01*
X14262100D01*
Y12433300D01*
D02*
G37*
G36*
X15557500Y12584428D02*
X15528017Y12581524D01*
X15499666Y12572924D01*
X15473538Y12558958D01*
X15450636Y12540163D01*
X15431842Y12517262D01*
X15417876Y12491134D01*
X15409276Y12462784D01*
X15406372Y12433300D01*
X15409276Y12403816D01*
X15417876Y12375466D01*
X15431842Y12349338D01*
X15450636Y12326437D01*
X15473538Y12307642D01*
X15499666Y12293676D01*
X15528017Y12285076D01*
X15557500Y12282172D01*
X15586984Y12285076D01*
X15615334Y12293676D01*
X15641463Y12307642D01*
X15664363Y12326437D01*
X15683157Y12349338D01*
X15697124Y12375466D01*
X15705724Y12403816D01*
X15708627Y12433300D01*
X15705724Y12462784D01*
X15697124Y12491134D01*
X15683157Y12517262D01*
X15664363Y12540163D01*
X15641463Y12558958D01*
X15615334Y12572924D01*
X15586984Y12581524D01*
X15557500Y12584428D01*
D02*
G37*
G36*
X13589000D02*
X13559515Y12581524D01*
X13531166Y12572924D01*
X13505038Y12558958D01*
X13482137Y12540163D01*
X13463342Y12517262D01*
X13449376Y12491134D01*
X13440776Y12462784D01*
X13437872Y12433300D01*
X13440776Y12403816D01*
X13449376Y12375466D01*
X13463342Y12349338D01*
X13482137Y12326437D01*
X13505038Y12307642D01*
X13531166Y12293676D01*
X13559515Y12285076D01*
X13589000Y12282172D01*
X13618484Y12285076D01*
X13646834Y12293676D01*
X13672961Y12307642D01*
X13695863Y12326437D01*
X13714658Y12349338D01*
X13728624Y12375466D01*
X13737224Y12403816D01*
X13740128Y12433300D01*
X13737224Y12462784D01*
X13728624Y12491134D01*
X13714658Y12517262D01*
X13695863Y12540163D01*
X13672961Y12558958D01*
X13646834Y12572924D01*
X13618484Y12581524D01*
X13589000Y12584428D01*
D02*
G37*
G36*
X13752901Y12025700D02*
X13665199D01*
Y11938000D01*
X13752901D01*
Y12025700D01*
D02*
G37*
G36*
X13639799D02*
X13552100D01*
Y11938000D01*
X13639799D01*
Y12025700D01*
D02*
G37*
G36*
X14370203Y11955945D02*
X14291904D01*
X14279066Y11953391D01*
X14268182Y11946120D01*
X14260912Y11935237D01*
X14258357Y11922400D01*
Y11912600D01*
X14370203D01*
Y11955945D01*
D02*
G37*
G36*
Y11887200D02*
X14258357D01*
Y11877400D01*
X14260912Y11864563D01*
X14268182Y11853680D01*
X14279066Y11846409D01*
X14291904Y11843855D01*
X14370203D01*
Y11887200D01*
D02*
G37*
G36*
X13752901Y11912600D02*
X13665199D01*
Y11824900D01*
X13752901D01*
Y11912600D01*
D02*
G37*
G36*
X13639799D02*
X13552100D01*
Y11824900D01*
X13639799D01*
Y11912600D01*
D02*
G37*
G36*
X14370203Y11701945D02*
X14291904D01*
X14279066Y11699391D01*
X14268182Y11692120D01*
X14260912Y11681237D01*
X14258357Y11668400D01*
Y11658600D01*
X14370203D01*
Y11701945D01*
D02*
G37*
G36*
Y11633200D02*
X14258357D01*
Y11623400D01*
X14260912Y11610563D01*
X14268182Y11599680D01*
X14279066Y11592409D01*
X14291904Y11589855D01*
X14370203D01*
Y11633200D01*
D02*
G37*
G36*
X14199483Y11605001D02*
X14135100D01*
Y11544619D01*
X14164000D01*
X14177579Y11547320D01*
X14189088Y11555012D01*
X14196780Y11566523D01*
X14199483Y11580101D01*
Y11605001D01*
D02*
G37*
G36*
X14109700D02*
X14045319D01*
Y11580101D01*
X14048019Y11566523D01*
X14055711Y11555012D01*
X14067223Y11547320D01*
X14080800Y11544619D01*
X14109700D01*
Y11605001D01*
D02*
G37*
G36*
X13982700Y11568795D02*
Y11493500D01*
X14057996D01*
X14056612Y11504007D01*
X14047655Y11525634D01*
X14033405Y11544204D01*
X14014835Y11558454D01*
X13993207Y11567412D01*
X13982700Y11568795D01*
D02*
G37*
G36*
X13957300D02*
X13946793Y11567412D01*
X13925166Y11558454D01*
X13906596Y11544204D01*
X13892346Y11525634D01*
X13883388Y11504007D01*
X13882005Y11493500D01*
X13957300D01*
Y11568795D01*
D02*
G37*
G36*
X14057996Y11468100D02*
X13982700D01*
Y11392805D01*
X13993207Y11394188D01*
X14014835Y11403146D01*
X14033405Y11417396D01*
X14047655Y11435966D01*
X14056612Y11457593D01*
X14057996Y11468100D01*
D02*
G37*
G36*
X13957300D02*
X13882005D01*
X13883388Y11457593D01*
X13892346Y11435966D01*
X13906596Y11417396D01*
X13925166Y11403146D01*
X13946793Y11394188D01*
X13957300Y11392805D01*
Y11468100D01*
D02*
G37*
G36*
X13614400Y8856327D02*
X13584917Y8853423D01*
X13556566Y8844824D01*
X13530438Y8830858D01*
X13507536Y8812063D01*
X13488742Y8789162D01*
X13474776Y8763034D01*
X13466176Y8734683D01*
X13463272Y8705200D01*
X13466176Y8675716D01*
X13474776Y8647366D01*
X13488742Y8621238D01*
X13507536Y8598336D01*
X13530438Y8579542D01*
X13556566Y8565576D01*
X13584917Y8556976D01*
X13614400Y8554072D01*
X13643884Y8556976D01*
X13672234Y8565576D01*
X13698363Y8579542D01*
X13721263Y8598336D01*
X13740057Y8621238D01*
X13754024Y8647366D01*
X13762624Y8675716D01*
X13765527Y8705200D01*
X13762624Y8734683D01*
X13754024Y8763034D01*
X13740057Y8789162D01*
X13721263Y8812063D01*
X13698363Y8830858D01*
X13672234Y8844824D01*
X13643884Y8853423D01*
X13614400Y8856327D01*
D02*
G37*
G36*
X15608299Y8825228D02*
X15578816Y8822324D01*
X15550465Y8813724D01*
X15524338Y8799758D01*
X15501437Y8780963D01*
X15482642Y8758062D01*
X15468677Y8731934D01*
X15460075Y8703584D01*
X15457172Y8674100D01*
X15460075Y8644616D01*
X15468677Y8616266D01*
X15482642Y8590138D01*
X15501437Y8567237D01*
X15524338Y8548442D01*
X15550465Y8534476D01*
X15578816Y8525876D01*
X15608299Y8522972D01*
X15637784Y8525876D01*
X15666135Y8534476D01*
X15692262Y8548442D01*
X15715163Y8567237D01*
X15733958Y8590138D01*
X15747923Y8616266D01*
X15756525Y8644616D01*
X15759428Y8674100D01*
X15756525Y8703584D01*
X15747923Y8731934D01*
X15733958Y8758062D01*
X15715163Y8780963D01*
X15692262Y8799758D01*
X15666135Y8813724D01*
X15637784Y8822324D01*
X15608299Y8825228D01*
D02*
G37*
G36*
X14087801Y7175181D02*
X14058900D01*
Y7114799D01*
X14123282D01*
Y7139699D01*
X14120581Y7153277D01*
X14112889Y7164788D01*
X14101378Y7172480D01*
X14087801Y7175181D01*
D02*
G37*
G36*
X14033501D02*
X14004601D01*
X13991022Y7172480D01*
X13979510Y7164788D01*
X13971819Y7153277D01*
X13969118Y7139699D01*
Y7114799D01*
X14033501D01*
Y7175181D01*
D02*
G37*
G36*
X14319408Y7129945D02*
X14241109D01*
X14228271Y7127391D01*
X14217387Y7120120D01*
X14210117Y7109237D01*
X14207562Y7096400D01*
Y7086600D01*
X14319408D01*
Y7129945D01*
D02*
G37*
G36*
Y7061200D02*
X14207562D01*
Y7051400D01*
X14210117Y7038563D01*
X14217387Y7027680D01*
X14228271Y7020409D01*
X14241109Y7017855D01*
X14319408D01*
Y7061200D01*
D02*
G37*
G36*
Y6875945D02*
X14241109D01*
X14228271Y6873391D01*
X14217387Y6866120D01*
X14210117Y6855237D01*
X14207562Y6842400D01*
Y6832600D01*
X14319408D01*
Y6875945D01*
D02*
G37*
G36*
Y6807200D02*
X14207562D01*
Y6797400D01*
X14210117Y6784563D01*
X14217387Y6773680D01*
X14228271Y6766409D01*
X14241109Y6763855D01*
X14319408D01*
Y6807200D01*
D02*
G37*
G36*
X13752901Y6501276D02*
X13665199D01*
Y6413576D01*
X13752901D01*
Y6501276D01*
D02*
G37*
G36*
X13639799D02*
X13552100D01*
Y6413576D01*
X13639799D01*
Y6501276D01*
D02*
G37*
G36*
X13752901Y6388176D02*
X13665199D01*
Y6300476D01*
X13752901D01*
Y6388176D01*
D02*
G37*
G36*
X13639799D02*
X13552100D01*
Y6300476D01*
X13639799D01*
Y6388176D01*
D02*
G37*
G36*
X14350999Y11219345D02*
X14272701D01*
X14259863Y11216791D01*
X14248981Y11209520D01*
X14241708Y11198637D01*
X14239156Y11185800D01*
Y11176000D01*
X14350999D01*
Y11219345D01*
D02*
G37*
G36*
X13982700Y11251295D02*
Y11176000D01*
X14057996D01*
X14056612Y11186507D01*
X14047655Y11208134D01*
X14033405Y11226704D01*
X14014835Y11240954D01*
X13993207Y11249912D01*
X13982700Y11251295D01*
D02*
G37*
G36*
X13957300D02*
X13946793Y11249912D01*
X13925166Y11240954D01*
X13906596Y11226704D01*
X13892346Y11208134D01*
X13883388Y11186507D01*
X13882005Y11176000D01*
X13957300D01*
Y11251295D01*
D02*
G37*
G36*
X14350999Y11150600D02*
X14239156D01*
Y11140800D01*
X14241708Y11127963D01*
X14248981Y11117080D01*
X14259863Y11109809D01*
X14272701Y11107255D01*
X14350999D01*
Y11150600D01*
D02*
G37*
G36*
X14057996D02*
X13982700D01*
Y11075305D01*
X13993207Y11076688D01*
X14014835Y11085646D01*
X14033405Y11099896D01*
X14047655Y11118466D01*
X14056612Y11140093D01*
X14057996Y11150600D01*
D02*
G37*
G36*
X13957300D02*
X13882005D01*
X13883388Y11140093D01*
X13892346Y11118466D01*
X13906596Y11099896D01*
X13925166Y11085646D01*
X13946793Y11076688D01*
X13957300Y11075305D01*
Y11150600D01*
D02*
G37*
G36*
X14350999Y10965345D02*
X14272701D01*
X14259863Y10962791D01*
X14248981Y10955520D01*
X14241708Y10944637D01*
X14239156Y10931800D01*
Y10922000D01*
X14350999D01*
Y10965345D01*
D02*
G37*
G36*
Y10896600D02*
X14239156D01*
Y10886800D01*
X14241708Y10873963D01*
X14248981Y10863080D01*
X14259863Y10855809D01*
X14272701Y10853255D01*
X14350999D01*
Y10896600D01*
D02*
G37*
G36*
X14123282Y10700502D02*
X14058900D01*
Y10640120D01*
X14087801D01*
X14101378Y10642821D01*
X14112889Y10650513D01*
X14120581Y10662024D01*
X14123282Y10675602D01*
Y10700502D01*
D02*
G37*
G36*
X14617700Y10641695D02*
Y10566400D01*
X14692995D01*
X14691612Y10576907D01*
X14682654Y10598534D01*
X14668404Y10617104D01*
X14649834Y10631354D01*
X14628207Y10640312D01*
X14617700Y10641695D01*
D02*
G37*
G36*
X14592300D02*
X14581793Y10640312D01*
X14560165Y10631354D01*
X14541595Y10617104D01*
X14527345Y10598534D01*
X14518388Y10576907D01*
X14517004Y10566400D01*
X14592300D01*
Y10641695D01*
D02*
G37*
G36*
X14692995Y10541000D02*
X14617700D01*
Y10465705D01*
X14628207Y10467088D01*
X14649834Y10476046D01*
X14668404Y10490296D01*
X14682654Y10508866D01*
X14691612Y10530493D01*
X14692995Y10541000D01*
D02*
G37*
G36*
X14592300D02*
X14517004D01*
X14518388Y10530493D01*
X14527345Y10508866D01*
X14541595Y10490296D01*
X14560165Y10476046D01*
X14581793Y10467088D01*
X14592300Y10465705D01*
Y10541000D01*
D02*
G37*
G36*
X15696001Y10870000D02*
X15608299D01*
Y10782300D01*
X15696001D01*
Y10870000D01*
D02*
G37*
G36*
X15582899D02*
X15495200D01*
Y10782300D01*
X15582899D01*
Y10870000D01*
D02*
G37*
G36*
X15696001Y10756900D02*
X15608299D01*
Y10669200D01*
X15696001D01*
Y10756900D01*
D02*
G37*
G36*
X15582899D02*
X15495200D01*
Y10669200D01*
X15582899D01*
Y10756900D01*
D02*
G37*
G36*
X15494000Y10628995D02*
Y10553700D01*
X15569295D01*
X15567912Y10564207D01*
X15558954Y10585834D01*
X15544704Y10604404D01*
X15526134Y10618654D01*
X15504507Y10627612D01*
X15494000Y10628995D01*
D02*
G37*
G36*
X15468600D02*
X15458093Y10627612D01*
X15436465Y10618654D01*
X15417896Y10604404D01*
X15403645Y10585834D01*
X15394688Y10564207D01*
X15393304Y10553700D01*
X15468600D01*
Y10628995D01*
D02*
G37*
G36*
X15569295Y10528300D02*
X15494000D01*
Y10453005D01*
X15504507Y10454388D01*
X15526134Y10463346D01*
X15544704Y10477596D01*
X15558954Y10496166D01*
X15567912Y10517793D01*
X15569295Y10528300D01*
D02*
G37*
G36*
X15468600D02*
X15393304D01*
X15394688Y10517793D01*
X15403645Y10496166D01*
X15417896Y10477596D01*
X15436465Y10463346D01*
X15458093Y10454388D01*
X15468600Y10453005D01*
Y10528300D01*
D02*
G37*
%LPD*%
D10*
X15337698Y11976100D02*
D03*
X15167702D02*
D03*
X15337698Y12141200D02*
D03*
X15167702D02*
D03*
X15045599Y9207500D02*
D03*
X14875601D02*
D03*
X15045599Y8128000D02*
D03*
X14875601D02*
D03*
X14334399Y9207500D02*
D03*
X14164401D02*
D03*
X14334399Y8128000D02*
D03*
X14164401D02*
D03*
D11*
X14630400Y11709400D02*
D03*
X14579605Y6883400D02*
D03*
X14611198Y10972800D02*
D03*
D12*
X14877898Y11899900D02*
D03*
Y11772900D02*
D03*
Y11645900D02*
D03*
Y11518900D02*
D03*
X14382903D02*
D03*
Y11645900D02*
D03*
Y11772900D02*
D03*
Y11899900D02*
D03*
X14827103Y7073900D02*
D03*
Y6946900D02*
D03*
Y6819900D02*
D03*
Y6692900D02*
D03*
X14332108D02*
D03*
Y6819900D02*
D03*
Y6946900D02*
D03*
Y7073900D02*
D03*
X14858694Y11163300D02*
D03*
Y11036300D02*
D03*
Y10909300D02*
D03*
Y10782300D02*
D03*
X14363699D02*
D03*
Y10909300D02*
D03*
Y11036300D02*
D03*
Y11163300D02*
D03*
D13*
X15173701Y11772900D02*
D03*
X15331699D02*
D03*
X15173701Y11569700D02*
D03*
X15331699D02*
D03*
X15135600Y7061200D02*
D03*
X15293599D02*
D03*
X15135600Y6819900D02*
D03*
X15293599D02*
D03*
X15148302Y10782300D02*
D03*
X15306299D02*
D03*
X15135600Y11049000D02*
D03*
X15293599D02*
D03*
D14*
X14122400Y11617701D02*
D03*
Y11775699D02*
D03*
X14046201Y7102099D02*
D03*
Y6944101D02*
D03*
Y10713202D02*
D03*
Y10871200D02*
D03*
D15*
X14638020Y9448800D02*
X15798801Y10609580D01*
Y10980420D01*
X15730220Y11049000D02*
X15798801Y10980420D01*
X13667740Y11318240D02*
X14643100D01*
X14798039Y11163300D01*
X13525500Y11176000D02*
X13667740Y11318240D01*
X13970000Y11163300D02*
X13982700Y11176000D01*
X14008099D01*
X14876781Y8128000D02*
Y9083040D01*
X14875601Y7122399D02*
Y8077200D01*
X14728038Y12049760D02*
X14833600Y11944198D01*
X13525500Y11176000D02*
Y11272520D01*
Y10081260D02*
Y11176000D01*
X14782800Y10464800D02*
Y10782300D01*
X14757401Y6505778D02*
Y6692900D01*
X14876781Y11447780D02*
Y11518900D01*
X14079221Y12049760D02*
X14728038D01*
X13789661Y11760200D02*
X14079221Y12049760D01*
X13789661Y11536680D02*
Y11760200D01*
X13525500Y11272520D02*
X13789661Y11536680D01*
X14833600Y11944198D02*
Y12458700D01*
Y11944198D02*
X14877898Y11899900D01*
X14827103Y7073900D02*
X14875601Y7122399D01*
X15306299Y10302240D02*
Y10782300D01*
X14334399Y9330339D02*
X15306299Y10302240D01*
X14334399Y9207500D02*
Y9330339D01*
Y8128000D02*
Y8596539D01*
X14638020Y8900160D01*
Y9448800D01*
X15293599Y11049000D02*
X15730220D01*
X14757401Y6692900D02*
X14827103D01*
X13652499Y5400878D02*
X14757401Y6505778D01*
X14875601Y9084219D02*
Y9207500D01*
Y9084219D02*
X14876781Y9083040D01*
X14875601Y8128000D02*
X14876781D01*
X15337698Y12141200D02*
X15405099D01*
X15443201Y12103100D01*
Y11620500D02*
Y12103100D01*
X15392400Y11569700D02*
X15443201Y11620500D01*
X15331699Y11569700D02*
X15392400D01*
X14782800Y10782300D02*
X14858694D01*
X14668500Y10350500D02*
X14782800Y10464800D01*
X14224001Y10350500D02*
X14668500D01*
X13652499Y10922000D02*
X14224001Y10350500D01*
X14164401Y9207500D02*
Y9442359D01*
X13525500Y10081260D02*
X14164401Y9442359D01*
X14798039Y11163300D02*
X14858694D01*
X14109700Y11036300D02*
X14363699D01*
X14046201Y10972800D02*
X14109700Y11036300D01*
X14046201Y10871200D02*
Y10972800D01*
X15659100Y11264900D02*
Y11353800D01*
X15623540Y11389360D02*
X15659100Y11353800D01*
X14935201Y11389360D02*
X15623540D01*
X14876781Y11447780D02*
X14935201Y11389360D01*
X14876781Y11518900D02*
X14877898D01*
X15293599Y6819900D02*
X15341600D01*
X15392400Y6870700D01*
Y8357779D01*
X15045599Y8704580D02*
X15392400Y8357779D01*
X15045599Y8704580D02*
Y9207500D01*
Y7601041D02*
Y8128000D01*
Y7601041D02*
X15293599Y7353041D01*
Y7061200D02*
Y7353041D01*
X14164401Y8009799D02*
Y8128000D01*
Y8009799D02*
X14181999Y7992201D01*
X14790604D01*
X14875601Y8077200D01*
Y8128000D01*
X15059660Y11976100D02*
X15167702D01*
X14983459Y11899900D02*
X15059660Y11976100D01*
X14877898Y11899900D02*
X14983459D01*
X15167702Y11976100D02*
Y12141200D01*
X14164401Y8128000D02*
Y9207500D01*
X14827103Y6819900D02*
X15135600D01*
X15036800Y7061200D02*
X15135600D01*
X14922501Y6946900D02*
X15036800Y7061200D01*
X14827103Y6946900D02*
X14922501D01*
X14188699D02*
X14332108D01*
X14185899Y6944101D02*
X14188699Y6946900D01*
X14046201Y6944101D02*
X14185899D01*
X15064740Y10782300D02*
X15148302D01*
X14937740Y10909300D02*
X15064740Y10782300D01*
X14858694Y10909300D02*
X14937740D01*
X15001241Y11049000D02*
X15135600D01*
X14988541Y11036300D02*
X15001241Y11049000D01*
X14858694Y11036300D02*
X14988541D01*
X15337698Y11875419D02*
Y11976100D01*
X15331699Y11869420D02*
X15337698Y11875419D01*
X15331699Y11772900D02*
Y11869420D01*
X15062199Y11569700D02*
X15173701D01*
X14986000Y11645900D02*
X15062199Y11569700D01*
X14877898Y11645900D02*
X14986000D01*
X14877898Y11772900D02*
X15173701D01*
X14252199D02*
X14382903D01*
X14249400Y11775699D02*
X14252199Y11772900D01*
X14122400Y11775699D02*
X14249400D01*
D16*
X14833600Y12458700D02*
D03*
X14274800Y12446000D02*
D03*
X15608299Y11264900D02*
D03*
X15595599Y10769600D02*
D03*
D17*
X13652499Y10922000D02*
D03*
Y5400878D02*
D03*
Y11925300D02*
D03*
Y6400876D02*
D03*
D18*
X15557500Y12433300D02*
D03*
X15544800Y4610100D02*
D03*
X13677901D02*
D03*
X13589000Y12433300D02*
D03*
X13614400Y8705200D02*
D03*
X15608299Y8674100D02*
D03*
D19*
X15481300Y10541000D02*
D03*
X14605000Y10553700D02*
D03*
X13970000Y11480800D02*
D03*
Y11163300D02*
D03*
%TF.MD5,951eb4125ee85c22320f564b1718b407*%
M02*
