%TF.GenerationSoftware,Altium Limited,Altium Designer,20.0.13 (296)*%
G04 Layer_Color=65535*
%FSLAX45Y45*%
%MOMM*%
%TF.FileFunction,Legend,Top*%
%TF.Part,Single*%
G01*
G75*
%TA.AperFunction,NonConductor*%
%ADD24C,0.25000*%
%ADD25C,0.20000*%
%ADD26C,0.25400*%
%ADD27C,0.07620*%
%ADD28C,0.12700*%
%ADD29C,0.10000*%
%ADD30C,0.07500*%
D24*
X14846100Y12663700D02*
G03*
X14846100Y12663700I-12500J0D01*
G01*
X14287300Y12651000D02*
G03*
X14287300Y12651000I-12500J0D01*
G01*
X15620799Y11059900D02*
G03*
X15620799Y11059900I-12500J0D01*
G01*
X15608099Y10564600D02*
G03*
X15608099Y10564600I-12500J0D01*
G01*
X13870000Y10922000D02*
G03*
X13870000Y10922000I-12500J0D01*
G01*
Y5400876D02*
G03*
X13870000Y5400876I-12500J0D01*
G01*
Y11925300D02*
G03*
X13870000Y11925300I-12500J0D01*
G01*
Y6400876D02*
G03*
X13870000Y6400876I-12500J0D01*
G01*
D25*
X14297501Y11963400D02*
G03*
X14297501Y11963400I-10000J0D01*
G01*
X14246700Y7137400D02*
G03*
X14246700Y7137400I-10000J0D01*
G01*
X14278297Y11226800D02*
G03*
X14278297Y11226800I-10000J0D01*
G01*
X14693600Y12318700D02*
Y12598700D01*
Y12318700D02*
X14973599D01*
Y12598700D01*
X14693600D02*
X14973599D01*
X14134801Y12306000D02*
Y12586000D01*
Y12306000D02*
X14414799D01*
Y12586000D01*
X14134801D02*
X14414799D01*
X15748300Y11124900D02*
Y11404900D01*
X15468300D02*
X15748300D01*
X15468300Y11124900D02*
Y11404900D01*
Y11124900D02*
X15748300D01*
X15735600Y10629600D02*
Y10909600D01*
X15455600D02*
X15735600D01*
X15455600Y10629600D02*
Y10909600D01*
Y10629600D02*
X15735600D01*
X13512500Y11062000D02*
X13792500D01*
X13512500Y10782000D02*
Y11062000D01*
Y10782000D02*
X13792500D01*
Y11062000D01*
X13512500Y5540878D02*
X13792500D01*
X13512500Y5260878D02*
Y5540878D01*
Y5260878D02*
X13792500D01*
Y5540878D01*
X13512500Y12065300D02*
X13792500D01*
X13512500Y11785300D02*
Y12065300D01*
Y11785300D02*
X13792500D01*
Y12065300D01*
X13512500Y6540876D02*
X13792500D01*
X13512500Y6260876D02*
Y6540876D01*
Y6260876D02*
X13792500D01*
Y6540876D01*
D26*
X13347701Y4305300D02*
X15836900D01*
X13347701Y7924800D02*
X15836900D01*
Y4305300D02*
Y7924800D01*
X13347701Y4305300D02*
Y7924800D01*
Y4309186D02*
X13360400Y4305300D01*
X13347701Y9423400D02*
X13652499D01*
X15836900D01*
X13652499Y10922000D02*
Y11925300D01*
X13347701Y12712700D02*
X15849600D01*
X13360400Y4305300D02*
X15836900D01*
Y7975600D01*
X13347701Y4309186D02*
Y7988300D01*
X15836900D02*
X15849600Y12712700D01*
X13347701Y7988300D02*
Y12712700D01*
X13652499Y5400878D02*
Y6400876D01*
D27*
X15311121Y12059920D02*
X15341600D01*
X15133321D02*
X15163800D01*
X15151100Y12047220D02*
Y12072620D01*
X15311121Y12225020D02*
X15341600D01*
X15133321D02*
X15163800D01*
X15151100Y12212320D02*
Y12237720D01*
X15019020Y9291320D02*
X15049500D01*
X14841220D02*
X14871700D01*
X14859000Y9278620D02*
Y9304020D01*
X15019020Y8211820D02*
X15049500D01*
X14841220D02*
X14871700D01*
X14859000Y8199120D02*
Y8224520D01*
X14307820Y9291320D02*
X14338300D01*
X14130020D02*
X14160500D01*
X14147800Y9278620D02*
Y9304020D01*
X14307820Y8211820D02*
X14338300D01*
X14130020D02*
X14160500D01*
X14147800Y8199120D02*
Y8224520D01*
D28*
X14430400Y11454399D02*
X14830400D01*
X14430400Y11964401D02*
X14830400D01*
X15172701Y11841902D02*
X15332700D01*
X15172701Y11703898D02*
X15332700D01*
X15172701Y11638702D02*
X15332700D01*
X15172701Y11500698D02*
X15332700D01*
X14053398Y11616700D02*
Y11776700D01*
X14191402Y11616700D02*
Y11776700D01*
X14115202Y6943100D02*
Y7103100D01*
X13977197Y6943100D02*
Y7103100D01*
X14379605Y6628399D02*
X14779605D01*
X14379605Y7138401D02*
X14779605D01*
X15134599Y7130202D02*
X15294600D01*
X15134599Y6992198D02*
X15294600D01*
X15134599Y6888902D02*
X15294600D01*
X15134599Y6750898D02*
X15294600D01*
X13977197Y10712201D02*
Y10872201D01*
X14115202Y10712201D02*
Y10872201D01*
X15147301Y10851302D02*
X15307300D01*
X15147301Y10713298D02*
X15307300D01*
X15134599Y11118002D02*
X15294600D01*
X15134599Y10979998D02*
X15294600D01*
X14411198Y10717799D02*
X14811197D01*
X14411198Y11227801D02*
X14811197D01*
X14582547Y12077292D02*
Y12035639D01*
X14590878Y12027308D01*
X14607539D01*
X14615871Y12035639D01*
Y12077292D01*
X14632532Y12068961D02*
X14640862Y12077292D01*
X14657523D01*
X14665852Y12068961D01*
Y12060631D01*
X14657523Y12052300D01*
X14649191D01*
X14657523D01*
X14665852Y12043969D01*
Y12035639D01*
X14657523Y12027308D01*
X14640862D01*
X14632532Y12035639D01*
X14033092Y11667747D02*
X13983109D01*
Y11692739D01*
X13991438Y11701070D01*
X14008099D01*
X14016431Y11692739D01*
Y11667747D01*
Y11684408D02*
X14033092Y11701070D01*
X14024760Y11717731D02*
X14033092Y11726061D01*
Y11742723D01*
X14024760Y11751053D01*
X13991438D01*
X13983109Y11742723D01*
Y11726061D01*
X13991438Y11717731D01*
X13999770D01*
X14008099Y11726061D01*
Y11751053D01*
X15294353Y11912191D02*
Y11862208D01*
X15269360D01*
X15261031Y11870538D01*
Y11887199D01*
X15269360Y11895530D01*
X15294353D01*
X15277692D02*
X15261031Y11912191D01*
X15244370Y11870538D02*
X15236040Y11862208D01*
X15219377D01*
X15211047Y11870538D01*
Y11878869D01*
X15219377Y11887199D01*
X15211047Y11895530D01*
Y11903861D01*
X15219377Y11912191D01*
X15236040D01*
X15244370Y11903861D01*
Y11895530D01*
X15236040Y11887199D01*
X15244370Y11878869D01*
Y11870538D01*
X15236040Y11887199D02*
X15219377D01*
X15223747Y11417708D02*
Y11467692D01*
X15248740D01*
X15257069Y11459361D01*
Y11442700D01*
X15248740Y11434369D01*
X15223747D01*
X15240408D02*
X15257069Y11417708D01*
X15273730Y11467692D02*
X15307053D01*
Y11459361D01*
X15273730Y11426039D01*
Y11417708D01*
X15384274Y10957039D02*
X15434258D01*
Y10932047D01*
X15425928Y10923716D01*
X15409265D01*
X15400935Y10932047D01*
Y10957039D01*
X15434258Y10907055D02*
Y10890394D01*
Y10898724D01*
X15384274D01*
Y10907055D01*
Y10890394D01*
Y10865402D02*
X15434258D01*
X15384274Y10832079D01*
X15434258D01*
X15375943Y10815418D02*
Y10782096D01*
X15425928Y10732112D02*
X15434258Y10740443D01*
Y10757104D01*
X15425928Y10765435D01*
X15392604D01*
X15384274Y10757104D01*
Y10740443D01*
X15392604Y10732112D01*
X15409265D01*
Y10748774D01*
X15384274Y10715451D02*
X15434258D01*
X15384274Y10682128D01*
X15434258D01*
Y10665467D02*
X15384274D01*
Y10640476D01*
X15392604Y10632145D01*
X15425928D01*
X15434258Y10640476D01*
Y10665467D01*
X15425928Y10615484D02*
X15434258Y10607153D01*
Y10590492D01*
X15425928Y10582161D01*
X15417596D01*
X15409265Y10590492D01*
Y10598823D01*
Y10590492D01*
X15400935Y10582161D01*
X15392604D01*
X15384274Y10590492D01*
Y10607153D01*
X15392604Y10615484D01*
X15396974Y11452339D02*
X15446957D01*
Y11427347D01*
X15438628Y11419016D01*
X15421965D01*
X15413635Y11427347D01*
Y11452339D01*
X15446957Y11402355D02*
Y11385694D01*
Y11394024D01*
X15396974D01*
Y11402355D01*
Y11385694D01*
Y11360702D02*
X15446957D01*
X15396974Y11327379D01*
X15446957D01*
X15388643Y11310718D02*
Y11277396D01*
X15446957Y11260735D02*
X15396974D01*
Y11235743D01*
X15405304Y11227412D01*
X15413635D01*
X15421965Y11235743D01*
Y11260735D01*
Y11235743D01*
X15430296Y11227412D01*
X15438628D01*
X15446957Y11235743D01*
Y11260735D01*
X15396974Y11210751D02*
X15430296D01*
X15446957Y11194090D01*
X15430296Y11177428D01*
X15396974D01*
X15421965D01*
Y11210751D01*
X15446957Y11160767D02*
Y11127445D01*
Y11144106D01*
X15396974D01*
X15438628Y11110784D02*
X15446957Y11102453D01*
Y11085792D01*
X15438628Y11077461D01*
X15430296D01*
X15421965Y11085792D01*
Y11094123D01*
Y11085792D01*
X15413635Y11077461D01*
X15405304D01*
X15396974Y11085792D01*
Y11102453D01*
X15405304Y11110784D01*
X15427763Y12005257D02*
Y11955274D01*
X15452756D01*
X15461086Y11963604D01*
Y11996927D01*
X15452756Y12005257D01*
X15427763D01*
X15511070D02*
X15494408Y11996927D01*
X15477747Y11980265D01*
Y11963604D01*
X15486078Y11955274D01*
X15502739D01*
X15511070Y11963604D01*
Y11971935D01*
X15502739Y11980265D01*
X15477747D01*
X15527731Y11946943D02*
X15561053D01*
X15577715Y11955274D02*
Y12005257D01*
X15602705D01*
X15611037Y11996927D01*
Y11980265D01*
X15602705Y11971935D01*
X15577715D01*
X15594376D02*
X15611037Y11955274D01*
X15427763Y12170357D02*
Y12120374D01*
X15452756D01*
X15461086Y12128704D01*
Y12162027D01*
X15452756Y12170357D01*
X15427763D01*
X15511070D02*
X15477747D01*
Y12145365D01*
X15494408Y12153696D01*
X15502739D01*
X15511070Y12145365D01*
Y12128704D01*
X15502739Y12120374D01*
X15486078D01*
X15477747Y12128704D01*
X15527731Y12112043D02*
X15561053D01*
X15611037Y12162027D02*
X15602705Y12170357D01*
X15586044D01*
X15577715Y12162027D01*
Y12128704D01*
X15586044Y12120374D01*
X15602705D01*
X15611037Y12128704D01*
Y12145365D01*
X15594376D01*
X13515340Y6619240D02*
Y6644632D01*
X13528036D01*
X13532268Y6640400D01*
Y6631936D01*
X13528036Y6627704D01*
X13515340D01*
X13540732Y6644632D02*
X13549196D01*
X13544965D01*
Y6619240D01*
X13540732D01*
X13549196D01*
X13561893D02*
Y6644632D01*
X13578819Y6619240D01*
Y6644632D01*
X13587283Y6615008D02*
X13604211D01*
X13629604Y6640400D02*
X13625371Y6644632D01*
X13616907D01*
X13612675Y6640400D01*
Y6623472D01*
X13616907Y6619240D01*
X13625371D01*
X13629604Y6623472D01*
Y6631936D01*
X13621140D01*
X13638068Y6619240D02*
Y6644632D01*
X13654996Y6619240D01*
Y6644632D01*
X13663458D02*
Y6619240D01*
X13676155D01*
X13680386Y6623472D01*
Y6640400D01*
X13676155Y6644632D01*
X13663458D01*
X13515340Y12143740D02*
Y12169132D01*
X13528036D01*
X13532268Y12164900D01*
Y12156436D01*
X13528036Y12152204D01*
X13515340D01*
X13540732Y12169132D02*
X13549196D01*
X13544965D01*
Y12143740D01*
X13540732D01*
X13549196D01*
X13561893D02*
Y12169132D01*
X13578819Y12143740D01*
Y12169132D01*
X13587283Y12139508D02*
X13604211D01*
X13629604Y12164900D02*
X13625371Y12169132D01*
X13616907D01*
X13612675Y12164900D01*
Y12147972D01*
X13616907Y12143740D01*
X13625371D01*
X13629604Y12147972D01*
Y12156436D01*
X13621140D01*
X13638068Y12143740D02*
Y12169132D01*
X13654996Y12143740D01*
Y12169132D01*
X13663458D02*
Y12143740D01*
X13676155D01*
X13680386Y12147972D01*
Y12164900D01*
X13676155Y12169132D01*
X13663458D01*
X13705779Y12143740D02*
X13688850D01*
X13705779Y12160668D01*
Y12164900D01*
X13701547Y12169132D01*
X13693083D01*
X13688850Y12164900D01*
X13515340Y5618480D02*
Y5643872D01*
X13528036D01*
X13532268Y5639640D01*
Y5631176D01*
X13528036Y5626944D01*
X13515340D01*
X13540732Y5643872D02*
X13549196D01*
X13544965D01*
Y5618480D01*
X13540732D01*
X13549196D01*
X13561893D02*
Y5643872D01*
X13578819Y5618480D01*
Y5643872D01*
X13587283Y5614248D02*
X13604211D01*
X13612675Y5643872D02*
Y5618480D01*
X13625371D01*
X13629604Y5622712D01*
Y5626944D01*
X13625371Y5631176D01*
X13612675D01*
X13625371D01*
X13629604Y5635408D01*
Y5639640D01*
X13625371Y5643872D01*
X13612675D01*
X13638068Y5618480D02*
Y5635408D01*
X13646532Y5643872D01*
X13654996Y5635408D01*
Y5618480D01*
Y5631176D01*
X13638068D01*
X13663458Y5643872D02*
X13680386D01*
X13671922D01*
Y5618480D01*
X13515340Y11140440D02*
Y11165832D01*
X13528036D01*
X13532268Y11161600D01*
Y11153136D01*
X13528036Y11148904D01*
X13515340D01*
X13540732Y11165832D02*
X13549196D01*
X13544965D01*
Y11140440D01*
X13540732D01*
X13549196D01*
X13561893D02*
Y11165832D01*
X13578819Y11140440D01*
Y11165832D01*
X13587283Y11136208D02*
X13604211D01*
X13612675Y11165832D02*
Y11140440D01*
X13625371D01*
X13629604Y11144672D01*
Y11148904D01*
X13625371Y11153136D01*
X13612675D01*
X13625371D01*
X13629604Y11157368D01*
Y11161600D01*
X13625371Y11165832D01*
X13612675D01*
X13638068Y11140440D02*
Y11157368D01*
X13646532Y11165832D01*
X13654996Y11157368D01*
Y11140440D01*
Y11153136D01*
X13638068D01*
X13663458Y11165832D02*
X13680386D01*
X13671922D01*
Y11140440D01*
X13705779D02*
X13688850D01*
X13705779Y11157368D01*
Y11161600D01*
X13701547Y11165832D01*
X13693083D01*
X13688850Y11161600D01*
D29*
X14352225Y12679190D02*
X14372218D01*
X14362221D01*
Y12619210D01*
X14352225D01*
X14372218D01*
X14402208D02*
Y12679190D01*
X14442195Y12619210D01*
Y12679190D01*
X14462189Y12649200D02*
X14502176D01*
X14898325Y12679190D02*
X14918318D01*
X14908321D01*
Y12619210D01*
X14898325D01*
X14918318D01*
X14948308D02*
Y12679190D01*
X14988295Y12619210D01*
Y12679190D01*
X15008289Y12649200D02*
X15048276D01*
X15028282Y12669193D02*
Y12629206D01*
D30*
X14245438Y11312344D02*
Y11270691D01*
X14253767Y11262360D01*
X14270428D01*
X14278760Y11270691D01*
Y11312344D01*
X14328745Y11262360D02*
X14295421D01*
X14328745Y11295683D01*
Y11304013D01*
X14320413Y11312344D01*
X14303752D01*
X14295421Y11304013D01*
X13959840Y10647421D02*
X13909856D01*
Y10672413D01*
X13918187Y10680743D01*
X13934848D01*
X13943179Y10672413D01*
Y10647421D01*
Y10664082D02*
X13959840Y10680743D01*
X13909856Y10730727D02*
X13918187Y10714066D01*
X13934848Y10697405D01*
X13951509D01*
X13959840Y10705735D01*
Y10722396D01*
X13951509Y10730727D01*
X13943179D01*
X13934848Y10722396D01*
Y10697405D01*
X15069820Y11135360D02*
Y11185344D01*
X15094812D01*
X15103143Y11177013D01*
Y11160352D01*
X15094812Y11152021D01*
X15069820D01*
X15086481D02*
X15103143Y11135360D01*
X15153127Y11185344D02*
X15119804D01*
Y11160352D01*
X15136465Y11168683D01*
X15144795D01*
X15153127Y11160352D01*
Y11143691D01*
X15144795Y11135360D01*
X15128134D01*
X15119804Y11143691D01*
X15082520Y10868660D02*
Y10918644D01*
X15107512D01*
X15115843Y10910313D01*
Y10893652D01*
X15107512Y10885321D01*
X15082520D01*
X15099181D02*
X15115843Y10868660D01*
X15157495D02*
Y10918644D01*
X15132504Y10893652D01*
X15165826D01*
X14170464Y8022156D02*
Y7972173D01*
X14195454D01*
X14203786Y7980503D01*
Y8013826D01*
X14195454Y8022156D01*
X14170464D01*
X14245439Y7972173D02*
Y8022156D01*
X14220447Y7997164D01*
X14253770D01*
X14270432Y7963842D02*
X14303754D01*
X14320415Y7972173D02*
Y8022156D01*
X14345406D01*
X14353737Y8013826D01*
Y7997164D01*
X14345406Y7988834D01*
X14320415D01*
X14337074D02*
X14353737Y7972173D01*
X14170464Y9101656D02*
Y9051673D01*
X14195454D01*
X14203786Y9060003D01*
Y9093326D01*
X14195454Y9101656D01*
X14170464D01*
X14220447Y9093326D02*
X14228778Y9101656D01*
X14245439D01*
X14253770Y9093326D01*
Y9084995D01*
X14245439Y9076664D01*
X14237108D01*
X14245439D01*
X14253770Y9068334D01*
Y9060003D01*
X14245439Y9051673D01*
X14228778D01*
X14220447Y9060003D01*
X14270432Y9043342D02*
X14303754D01*
X14353737Y9093326D02*
X14345406Y9101656D01*
X14328745D01*
X14320415Y9093326D01*
Y9060003D01*
X14328745Y9051673D01*
X14345406D01*
X14353737Y9060003D01*
Y9076664D01*
X14337074D01*
X14571678Y7225892D02*
Y7184239D01*
X14580008Y7175908D01*
X14596671D01*
X14605000Y7184239D01*
Y7225892D01*
X14621661Y7175908D02*
X14638322D01*
X14629993D01*
Y7225892D01*
X14621661Y7217561D01*
X14004547Y6807608D02*
Y6857592D01*
X14029539D01*
X14037869Y6849261D01*
Y6832600D01*
X14029539Y6824269D01*
X14004547D01*
X14021208D02*
X14037869Y6807608D01*
X14054530Y6849261D02*
X14062862Y6857592D01*
X14079523D01*
X14087852Y6849261D01*
Y6840931D01*
X14079523Y6832600D01*
X14071191D01*
X14079523D01*
X14087852Y6824269D01*
Y6815939D01*
X14079523Y6807608D01*
X14062862D01*
X14054530Y6815939D01*
X15172948Y7150508D02*
Y7200492D01*
X15197939D01*
X15206270Y7192161D01*
Y7175500D01*
X15197939Y7167169D01*
X15172948D01*
X15189607D02*
X15206270Y7150508D01*
X15256253D02*
X15222931D01*
X15256253Y7183831D01*
Y7192161D01*
X15247923Y7200492D01*
X15231261D01*
X15222931Y7192161D01*
X15181277Y6680608D02*
Y6730592D01*
X15206270D01*
X15214600Y6722261D01*
Y6705600D01*
X15206270Y6697269D01*
X15181277D01*
X15197939D02*
X15214600Y6680608D01*
X15231261D02*
X15247923D01*
X15239592D01*
Y6730592D01*
X15231261Y6722261D01*
X14868964Y8022156D02*
Y7972173D01*
X14893954D01*
X14902286Y7980503D01*
Y8013826D01*
X14893954Y8022156D01*
X14868964D01*
X14952271Y7972173D02*
X14918947D01*
X14952271Y8005495D01*
Y8013826D01*
X14943939Y8022156D01*
X14927278D01*
X14918947Y8013826D01*
X14968932Y7963842D02*
X15002254D01*
X15018913Y7972173D02*
Y8022156D01*
X15043906D01*
X15052237Y8013826D01*
Y7997164D01*
X15043906Y7988834D01*
X15018913D01*
X15035574D02*
X15052237Y7972173D01*
X14873128Y9076256D02*
Y9026273D01*
X14898120D01*
X14906451Y9034603D01*
Y9067926D01*
X14898120Y9076256D01*
X14873128D01*
X14923112Y9026273D02*
X14939774D01*
X14931442D01*
Y9076256D01*
X14923112Y9067926D01*
X14964764Y9017942D02*
X14998088D01*
X15048071Y9067926D02*
X15039742Y9076256D01*
X15023080D01*
X15014749Y9067926D01*
Y9034603D01*
X15023080Y9026273D01*
X15039742D01*
X15048071Y9034603D01*
Y9051264D01*
X15031410D01*
%TF.MD5,91201c41c2e68485bf9d040010a40454*%
M02*
