%TF.GenerationSoftware,Altium Limited,Altium Designer,20.0.13 (296)*%
G04 Layer_Color=8421504*
%FSLAX45Y45*%
%MOMM*%
%TF.FileFunction,Paste,Top*%
%TF.Part,Single*%
G01*
G75*
%TA.AperFunction,SMDPad,CuDef*%
%ADD10R,1.10000X1.00000*%
G04:AMPARAMS|DCode=12|XSize=1.97mm|YSize=0.6mm|CornerRadius=0.075mm|HoleSize=0mm|Usage=FLASHONLY|Rotation=0.000|XOffset=0mm|YOffset=0mm|HoleType=Round|Shape=RoundedRectangle|*
%AMROUNDEDRECTD12*
21,1,1.97000,0.45000,0,0,0.0*
21,1,1.82000,0.60000,0,0,0.0*
1,1,0.15000,0.91000,-0.22500*
1,1,0.15000,-0.91000,-0.22500*
1,1,0.15000,-0.91000,0.22500*
1,1,0.15000,0.91000,0.22500*
%
%ADD12ROUNDEDRECTD12*%
G04:AMPARAMS|DCode=13|XSize=0.94mm|YSize=1.02mm|CornerRadius=0.094mm|HoleSize=0mm|Usage=FLASHONLY|Rotation=0.000|XOffset=0mm|YOffset=0mm|HoleType=Round|Shape=RoundedRectangle|*
%AMROUNDEDRECTD13*
21,1,0.94000,0.83200,0,0,0.0*
21,1,0.75200,1.02000,0,0,0.0*
1,1,0.18800,0.37600,-0.41600*
1,1,0.18800,-0.37600,-0.41600*
1,1,0.18800,-0.37600,0.41600*
1,1,0.18800,0.37600,0.41600*
%
%ADD13ROUNDEDRECTD13*%
G04:AMPARAMS|DCode=14|XSize=0.94mm|YSize=1.02mm|CornerRadius=0.094mm|HoleSize=0mm|Usage=FLASHONLY|Rotation=90.000|XOffset=0mm|YOffset=0mm|HoleType=Round|Shape=RoundedRectangle|*
%AMROUNDEDRECTD14*
21,1,0.94000,0.83200,0,0,90.0*
21,1,0.75200,1.02000,0,0,90.0*
1,1,0.18800,0.41600,0.37600*
1,1,0.18800,0.41600,-0.37600*
1,1,0.18800,-0.41600,-0.37600*
1,1,0.18800,-0.41600,0.37600*
%
%ADD14ROUNDEDRECTD14*%
G36*
X14644099Y6801400D02*
X14515100D01*
Y6965400D01*
X14644099D01*
Y6801400D01*
D02*
G37*
G36*
X14675697Y10890800D02*
X14546698D01*
Y11054800D01*
X14675697D01*
Y10890800D01*
D02*
G37*
G36*
X14694901Y11627400D02*
X14565900D01*
Y11791400D01*
X14694901D01*
Y11627400D01*
D02*
G37*
D10*
X15337698Y11976100D02*
D03*
X15167702D02*
D03*
X15337698Y12141200D02*
D03*
X15167702D02*
D03*
X15045599Y9207500D02*
D03*
X14875601D02*
D03*
X15045599Y8128000D02*
D03*
X14875601D02*
D03*
X14334399Y9207500D02*
D03*
X14164401D02*
D03*
X14334399Y8128000D02*
D03*
X14164401D02*
D03*
D12*
X14877898Y11899900D02*
D03*
Y11772900D02*
D03*
Y11645900D02*
D03*
Y11518900D02*
D03*
X14382903D02*
D03*
Y11645900D02*
D03*
Y11772900D02*
D03*
Y11899900D02*
D03*
X14827103Y7073900D02*
D03*
Y6946900D02*
D03*
Y6819900D02*
D03*
Y6692900D02*
D03*
X14332108D02*
D03*
Y6819900D02*
D03*
Y6946900D02*
D03*
Y7073900D02*
D03*
X14858694Y11163300D02*
D03*
Y11036300D02*
D03*
Y10909300D02*
D03*
Y10782300D02*
D03*
X14363699D02*
D03*
Y10909300D02*
D03*
Y11036300D02*
D03*
Y11163300D02*
D03*
D13*
X15173701Y11772900D02*
D03*
X15331699D02*
D03*
X15173701Y11569700D02*
D03*
X15331699D02*
D03*
X15135600Y7061200D02*
D03*
X15293599D02*
D03*
X15135600Y6819900D02*
D03*
X15293599D02*
D03*
X15148302Y10782300D02*
D03*
X15306299D02*
D03*
X15135600Y11049000D02*
D03*
X15293599D02*
D03*
D14*
X14122400Y11617701D02*
D03*
Y11775699D02*
D03*
X14046201Y7102099D02*
D03*
Y6944101D02*
D03*
Y10713202D02*
D03*
Y10871200D02*
D03*
%TF.MD5,47ed227fbb60b23513fde5ee8e66bce0*%
M02*
