%TF.GenerationSoftware,Altium Limited,Altium Designer,20.0.13 (296)*%
G04 Layer_Color=32896*
%FSLAX45Y45*%
%MOMM*%
%TF.FileFunction,Legend,Bot*%
%TF.Part,Single*%
G01*
G75*
G36*
X14611525Y9146682D02*
X14614729D01*
Y9143479D01*
X14617934D01*
Y9140274D01*
X14621136D01*
Y9137070D01*
Y9133866D01*
X14624342D01*
Y9130662D01*
X14627547D01*
Y9127458D01*
X14630750D01*
Y9124254D01*
Y9121049D01*
X14633954D01*
Y9117845D01*
Y9114641D01*
X14637158D01*
Y9111437D01*
Y9108233D01*
Y9105029D01*
X14640363D01*
Y9101824D01*
Y9098620D01*
Y9095416D01*
Y9092212D01*
Y9089008D01*
X14643565D01*
Y9085804D01*
Y9082600D01*
Y9079395D01*
Y9076191D01*
X14646771D01*
Y9079395D01*
X14653178D01*
Y9082600D01*
X14659587D01*
Y9085804D01*
X14665996D01*
Y9089008D01*
X14678812D01*
Y9092212D01*
X14698038D01*
Y9089008D01*
X14701241D01*
Y9085804D01*
Y9082600D01*
Y9079395D01*
Y9076191D01*
Y9072987D01*
Y9069783D01*
Y9066579D01*
Y9063375D01*
X14698038D01*
Y9060170D01*
Y9056966D01*
Y9053762D01*
Y9050558D01*
X14694833D01*
Y9047354D01*
Y9044150D01*
Y9040945D01*
X14691629D01*
Y9037741D01*
Y9034537D01*
X14688425D01*
Y9031333D01*
Y9028129D01*
X14685220D01*
Y9024925D01*
Y9021720D01*
X14682016D01*
Y9018516D01*
X14678812D01*
Y9015312D01*
X14675607D01*
Y9012108D01*
X14672404D01*
Y9008904D01*
X14669200D01*
Y9005700D01*
X14665996D01*
Y9002496D01*
X14662791D01*
Y8999291D01*
X14656383D01*
Y8996087D01*
X14649976D01*
Y8992883D01*
X14643565D01*
Y8989679D01*
X14633954D01*
Y8986475D01*
X14627547D01*
Y8983271D01*
X14630750D01*
Y8980066D01*
X14637158D01*
Y8976862D01*
X14643565D01*
Y8973658D01*
X14672404D01*
Y8976862D01*
Y8980066D01*
X14675607D01*
Y8983271D01*
Y8986475D01*
Y8989679D01*
X14678812D01*
Y8992883D01*
Y8996087D01*
X14682016D01*
Y8999291D01*
Y9002496D01*
X14685220D01*
Y9005700D01*
X14688425D01*
Y9008904D01*
Y9012108D01*
X14691629D01*
Y9015312D01*
X14694833D01*
Y9018516D01*
X14698038D01*
Y9021720D01*
X14701241D01*
Y9024925D01*
X14707651D01*
Y9028129D01*
X14710854D01*
Y9031333D01*
X14717262D01*
Y9034537D01*
X14723669D01*
Y9037741D01*
X14733282D01*
Y9040945D01*
X14752509D01*
Y9037741D01*
Y9034537D01*
Y9031333D01*
Y9028129D01*
Y9024925D01*
Y9021720D01*
X14749303D01*
Y9018516D01*
Y9015312D01*
Y9012108D01*
X14746100D01*
Y9008904D01*
Y9005700D01*
X14742896D01*
Y9002496D01*
Y8999291D01*
X14739691D01*
Y8996087D01*
X14736487D01*
Y8992883D01*
Y8989679D01*
X14733282D01*
Y8986475D01*
X14730080D01*
Y8983271D01*
X14726875D01*
Y8980066D01*
X14723669D01*
Y8976862D01*
X14717262D01*
Y8973658D01*
X14714058D01*
Y8970454D01*
X14707651D01*
Y8967250D01*
X14701241D01*
Y8964046D01*
X14691629D01*
Y8960841D01*
X14685220D01*
Y8957637D01*
X14682016D01*
Y8954433D01*
Y8951229D01*
Y8948025D01*
X14685220D01*
Y8944821D01*
Y8941617D01*
Y8938412D01*
Y8935208D01*
Y8932004D01*
X14688425D01*
Y8928800D01*
Y8925596D01*
Y8922392D01*
X14691629D01*
Y8919187D01*
Y8915983D01*
X14698038D01*
Y8919187D01*
Y8922392D01*
Y8925596D01*
X14701241D01*
Y8928800D01*
Y8932004D01*
Y8935208D01*
X14704445D01*
Y8938412D01*
Y8941617D01*
X14707651D01*
Y8944821D01*
Y8948025D01*
X14710854D01*
Y8951229D01*
X14714058D01*
Y8954433D01*
X14717262D01*
Y8957637D01*
X14720467D01*
Y8960841D01*
Y8964046D01*
X14726875D01*
Y8967250D01*
X14730080D01*
Y8970454D01*
X14733282D01*
Y8973658D01*
X14736487D01*
Y8976862D01*
X14742896D01*
Y8980066D01*
X14749303D01*
Y8983271D01*
X14758916D01*
Y8986475D01*
X14771733D01*
Y8989679D01*
X14800571D01*
Y8986475D01*
X14803773D01*
Y8983271D01*
Y8980066D01*
Y8976862D01*
Y8973658D01*
Y8970454D01*
X14800571D01*
Y8967250D01*
Y8964046D01*
Y8960841D01*
Y8957637D01*
X14797366D01*
Y8954433D01*
Y8951229D01*
X14794162D01*
Y8948025D01*
Y8944821D01*
X14790958D01*
Y8941617D01*
Y8938412D01*
X14787753D01*
Y8935208D01*
X14784549D01*
Y8932004D01*
X14803773D01*
Y8928800D01*
X14816591D01*
Y8925596D01*
X14826202D01*
Y8922392D01*
X14832613D01*
Y8919187D01*
X14839020D01*
Y8915983D01*
X14842224D01*
Y8912779D01*
X14848631D01*
Y8909575D01*
X14851837D01*
Y8906371D01*
X14855042D01*
Y8903167D01*
X14858244D01*
Y8899962D01*
X14861449D01*
Y8896758D01*
Y8893554D01*
X14858244D01*
Y8890350D01*
X14855042D01*
Y8887146D01*
X14851837D01*
Y8883942D01*
X14848631D01*
Y8880738D01*
X14842224D01*
Y8877533D01*
X14839020D01*
Y8874329D01*
X14832613D01*
Y8871125D01*
X14826202D01*
Y8867921D01*
X14816591D01*
Y8864717D01*
X14803773D01*
Y8861513D01*
X14784549D01*
Y8858308D01*
X14787753D01*
Y8855104D01*
X14790958D01*
Y8851900D01*
Y8848696D01*
X14794162D01*
Y8845492D01*
Y8842288D01*
X14797366D01*
Y8839083D01*
Y8835879D01*
X14800571D01*
Y8832675D01*
Y8829471D01*
Y8826267D01*
Y8823063D01*
X14803773D01*
Y8819859D01*
Y8816654D01*
Y8813450D01*
Y8810246D01*
Y8807042D01*
Y8803838D01*
X14771733D01*
Y8807042D01*
X14758916D01*
Y8810246D01*
X14749303D01*
Y8813450D01*
X14742896D01*
Y8816654D01*
X14736487D01*
Y8819859D01*
X14733282D01*
Y8823063D01*
X14730080D01*
Y8826267D01*
X14723669D01*
Y8829471D01*
X14720467D01*
Y8832675D01*
X14717262D01*
Y8835879D01*
Y8839083D01*
X14714058D01*
Y8842288D01*
X14710854D01*
Y8845492D01*
X14707651D01*
Y8848696D01*
Y8851900D01*
X14704445D01*
Y8855104D01*
Y8858308D01*
X14701241D01*
Y8861513D01*
Y8864717D01*
Y8867921D01*
X14698038D01*
Y8871125D01*
Y8874329D01*
Y8877533D01*
X14691629D01*
Y8874329D01*
Y8871125D01*
X14688425D01*
Y8867921D01*
Y8864717D01*
X14685220D01*
Y8861513D01*
Y8858308D01*
Y8855104D01*
Y8851900D01*
Y8848696D01*
X14682016D01*
Y8845492D01*
Y8842288D01*
Y8839083D01*
Y8835879D01*
Y8832675D01*
X14691629D01*
Y8829471D01*
X14701241D01*
Y8826267D01*
X14707651D01*
Y8823063D01*
X14714058D01*
Y8819859D01*
X14717262D01*
Y8816654D01*
X14720467D01*
Y8813450D01*
X14726875D01*
Y8810246D01*
X14730080D01*
Y8807042D01*
Y8803838D01*
X14733282D01*
Y8800634D01*
X14736487D01*
Y8797429D01*
X14739691D01*
Y8794225D01*
Y8791021D01*
X14742896D01*
Y8787817D01*
X14746100D01*
Y8784613D01*
Y8781409D01*
Y8778204D01*
X14749303D01*
Y8775000D01*
Y8771796D01*
Y8768592D01*
X14752509D01*
Y8765388D01*
Y8762184D01*
Y8758980D01*
Y8755775D01*
Y8752571D01*
X14733282D01*
Y8755775D01*
X14723669D01*
Y8758980D01*
X14717262D01*
Y8762184D01*
X14710854D01*
Y8765388D01*
X14704445D01*
Y8768592D01*
X14701241D01*
Y8771796D01*
X14698038D01*
Y8775000D01*
X14694833D01*
Y8778204D01*
X14691629D01*
Y8781409D01*
X14688425D01*
Y8784613D01*
X14685220D01*
Y8787817D01*
Y8791021D01*
X14682016D01*
Y8794225D01*
X14678812D01*
Y8797429D01*
Y8800634D01*
X14675607D01*
Y8803838D01*
Y8807042D01*
Y8810246D01*
X14672404D01*
Y8813450D01*
Y8816654D01*
Y8819859D01*
X14643565D01*
Y8816654D01*
X14637158D01*
Y8813450D01*
X14630750D01*
Y8810246D01*
X14624342D01*
Y8807042D01*
X14633954D01*
Y8803838D01*
X14643565D01*
Y8800634D01*
X14649976D01*
Y8797429D01*
X14656383D01*
Y8794225D01*
X14659587D01*
Y8791021D01*
X14665996D01*
Y8787817D01*
X14669200D01*
Y8784613D01*
X14672404D01*
Y8781409D01*
X14675607D01*
Y8778204D01*
X14678812D01*
Y8775000D01*
X14682016D01*
Y8771796D01*
Y8768592D01*
X14685220D01*
Y8765388D01*
X14688425D01*
Y8762184D01*
Y8758980D01*
X14691629D01*
Y8755775D01*
Y8752571D01*
X14694833D01*
Y8749367D01*
Y8746163D01*
Y8742959D01*
X14698038D01*
Y8739755D01*
Y8736550D01*
Y8733346D01*
Y8730142D01*
Y8726938D01*
X14701241D01*
Y8723734D01*
Y8720530D01*
Y8717325D01*
Y8714121D01*
Y8710917D01*
Y8707713D01*
X14698038D01*
Y8704509D01*
Y8701305D01*
Y8698100D01*
X14691629D01*
Y8701305D01*
X14675607D01*
Y8704509D01*
X14665996D01*
Y8707713D01*
X14656383D01*
Y8710917D01*
X14653178D01*
Y8714121D01*
X14646771D01*
Y8717325D01*
X14643565D01*
Y8714121D01*
Y8710917D01*
Y8707713D01*
X14640363D01*
Y8704509D01*
Y8701305D01*
Y8698100D01*
Y8694897D01*
Y8691692D01*
X14637158D01*
Y8688488D01*
Y8685284D01*
Y8682080D01*
Y8678876D01*
X14633954D01*
Y8675671D01*
Y8672467D01*
X14630750D01*
Y8669263D01*
Y8666059D01*
X14627547D01*
Y8662855D01*
X14624342D01*
Y8659651D01*
Y8656446D01*
X14621136D01*
Y8653242D01*
X14617934D01*
Y8650038D01*
X14614729D01*
Y8646834D01*
X14611525D01*
Y8643630D01*
X14605116D01*
Y8646834D01*
X14598708D01*
Y8650038D01*
X14595505D01*
Y8653242D01*
Y8656446D01*
X14592300D01*
Y8659651D01*
X14589096D01*
Y8662855D01*
X14585892D01*
Y8666059D01*
Y8669263D01*
X14582687D01*
Y8672467D01*
Y8675671D01*
X14579483D01*
Y8678876D01*
Y8682080D01*
X14576279D01*
Y8685284D01*
Y8688488D01*
Y8691692D01*
Y8694897D01*
X14573074D01*
Y8698100D01*
Y8701305D01*
Y8704509D01*
Y8707713D01*
Y8710917D01*
Y8714121D01*
Y8717325D01*
X14566667D01*
Y8714121D01*
X14563461D01*
Y8710917D01*
X14557054D01*
Y8707713D01*
X14547443D01*
Y8704509D01*
X14537830D01*
Y8701305D01*
X14521808D01*
Y8698100D01*
X14515401D01*
Y8701305D01*
Y8704509D01*
Y8707713D01*
Y8710917D01*
Y8714121D01*
Y8717325D01*
Y8720530D01*
Y8723734D01*
Y8726938D01*
Y8730142D01*
Y8733346D01*
Y8736550D01*
X14518604D01*
Y8739755D01*
Y8742959D01*
Y8746163D01*
Y8749367D01*
X14521808D01*
Y8752571D01*
Y8755775D01*
X14525014D01*
Y8758980D01*
Y8762184D01*
X14528217D01*
Y8765388D01*
Y8768592D01*
X14531421D01*
Y8771796D01*
X14534625D01*
Y8775000D01*
X14537830D01*
Y8778204D01*
X14541032D01*
Y8781409D01*
X14544238D01*
Y8784613D01*
X14547443D01*
Y8787817D01*
X14550645D01*
Y8791021D01*
X14553850D01*
Y8794225D01*
X14560258D01*
Y8797429D01*
X14566667D01*
Y8800634D01*
X14573074D01*
Y8803838D01*
X14582687D01*
Y8807042D01*
X14589096D01*
Y8810246D01*
X14585892D01*
Y8813450D01*
X14579483D01*
Y8816654D01*
X14569872D01*
Y8819859D01*
X14544238D01*
Y8816654D01*
X14541032D01*
Y8813450D01*
Y8810246D01*
Y8807042D01*
X14537830D01*
Y8803838D01*
Y8800634D01*
X14534625D01*
Y8797429D01*
Y8794225D01*
X14531421D01*
Y8791021D01*
Y8787817D01*
X14528217D01*
Y8784613D01*
X14525014D01*
Y8781409D01*
X14521808D01*
Y8778204D01*
X14518604D01*
Y8775000D01*
X14515401D01*
Y8771796D01*
X14512196D01*
Y8768592D01*
X14508992D01*
Y8765388D01*
X14502583D01*
Y8762184D01*
X14499379D01*
Y8758980D01*
X14492970D01*
Y8755775D01*
X14483359D01*
Y8752571D01*
X14470541D01*
Y8749367D01*
X14467339D01*
Y8752571D01*
X14460928D01*
Y8755775D01*
Y8758980D01*
Y8762184D01*
Y8765388D01*
X14464134D01*
Y8768592D01*
Y8771796D01*
Y8775000D01*
Y8778204D01*
X14467339D01*
Y8781409D01*
Y8784613D01*
X14470541D01*
Y8787817D01*
Y8791021D01*
X14473746D01*
Y8794225D01*
Y8797429D01*
X14476950D01*
Y8800634D01*
X14480154D01*
Y8803838D01*
X14483359D01*
Y8807042D01*
X14486563D01*
Y8810246D01*
X14489767D01*
Y8813450D01*
X14492970D01*
Y8816654D01*
X14496175D01*
Y8819859D01*
X14502583D01*
Y8823063D01*
X14505788D01*
Y8826267D01*
X14515401D01*
Y8829471D01*
X14521808D01*
Y8832675D01*
X14531421D01*
Y8835879D01*
Y8839083D01*
Y8842288D01*
Y8845492D01*
Y8848696D01*
Y8851900D01*
Y8855104D01*
X14528217D01*
Y8858308D01*
Y8861513D01*
Y8864717D01*
X14525014D01*
Y8867921D01*
Y8871125D01*
Y8874329D01*
X14521808D01*
Y8877533D01*
X14518604D01*
Y8874329D01*
X14515401D01*
Y8871125D01*
Y8867921D01*
Y8864717D01*
Y8861513D01*
X14512196D01*
Y8858308D01*
Y8855104D01*
X14508992D01*
Y8851900D01*
Y8848696D01*
X14505788D01*
Y8845492D01*
X14502583D01*
Y8842288D01*
Y8839083D01*
X14499379D01*
Y8835879D01*
X14496175D01*
Y8832675D01*
X14492970D01*
Y8829471D01*
X14489767D01*
Y8826267D01*
X14486563D01*
Y8823063D01*
X14483359D01*
Y8819859D01*
X14476950D01*
Y8816654D01*
X14473746D01*
Y8813450D01*
X14467339D01*
Y8810246D01*
X14457726D01*
Y8807042D01*
X14448112D01*
Y8803838D01*
X14409663D01*
Y8807042D01*
Y8810246D01*
Y8813450D01*
Y8816654D01*
X14412868D01*
Y8819859D01*
Y8823063D01*
Y8826267D01*
Y8829471D01*
X14416071D01*
Y8832675D01*
Y8835879D01*
Y8839083D01*
X14419275D01*
Y8842288D01*
Y8845492D01*
X14422479D01*
Y8848696D01*
Y8851900D01*
X14425684D01*
Y8855104D01*
Y8858308D01*
X14428888D01*
Y8861513D01*
X14406459D01*
Y8864717D01*
X14396846D01*
Y8867921D01*
X14387234D01*
Y8871125D01*
X14380824D01*
Y8874329D01*
X14374417D01*
Y8877533D01*
X14371213D01*
Y8880738D01*
X14368008D01*
Y8883942D01*
X14361601D01*
Y8887146D01*
X14358395D01*
Y8890350D01*
X14355193D01*
Y8893554D01*
Y8896758D01*
Y8899962D01*
X14358395D01*
Y8903167D01*
X14361601D01*
Y8906371D01*
X14364806D01*
Y8909575D01*
X14368008D01*
Y8912779D01*
X14371213D01*
Y8915983D01*
X14377621D01*
Y8919187D01*
X14384030D01*
Y8922392D01*
X14390437D01*
Y8925596D01*
X14400050D01*
Y8928800D01*
X14412868D01*
Y8932004D01*
X14428888D01*
Y8935208D01*
X14425684D01*
Y8938412D01*
Y8941617D01*
X14422479D01*
Y8944821D01*
X14419275D01*
Y8948025D01*
Y8951229D01*
Y8954433D01*
X14416071D01*
Y8957637D01*
Y8960841D01*
X14412868D01*
Y8964046D01*
Y8967250D01*
Y8970454D01*
Y8973658D01*
Y8976862D01*
X14409663D01*
Y8980066D01*
Y8983271D01*
Y8986475D01*
X14416071D01*
Y8989679D01*
X14438499D01*
Y8986475D01*
X14454521D01*
Y8983271D01*
X14464134D01*
Y8980066D01*
X14470541D01*
Y8976862D01*
X14476950D01*
Y8973658D01*
X14480154D01*
Y8970454D01*
X14486563D01*
Y8967250D01*
X14489767D01*
Y8964046D01*
X14492970D01*
Y8960841D01*
X14496175D01*
Y8957637D01*
X14499379D01*
Y8954433D01*
Y8951229D01*
X14502583D01*
Y8948025D01*
X14505788D01*
Y8944821D01*
Y8941617D01*
X14508992D01*
Y8938412D01*
X14512196D01*
Y8935208D01*
Y8932004D01*
Y8928800D01*
X14515401D01*
Y8925596D01*
Y8922392D01*
Y8919187D01*
X14518604D01*
Y8915983D01*
Y8912779D01*
X14521808D01*
Y8915983D01*
Y8919187D01*
X14525014D01*
Y8922392D01*
Y8925596D01*
X14528217D01*
Y8928800D01*
Y8932004D01*
Y8935208D01*
X14531421D01*
Y8938412D01*
Y8941617D01*
Y8944821D01*
Y8948025D01*
Y8951229D01*
Y8954433D01*
Y8957637D01*
Y8960841D01*
X14525014D01*
Y8964046D01*
X14515401D01*
Y8967250D01*
X14508992D01*
Y8970454D01*
X14502583D01*
Y8973658D01*
X14496175D01*
Y8976862D01*
X14492970D01*
Y8980066D01*
X14489767D01*
Y8983271D01*
X14486563D01*
Y8986475D01*
X14483359D01*
Y8989679D01*
X14480154D01*
Y8992883D01*
X14476950D01*
Y8996087D01*
Y8999291D01*
X14473746D01*
Y9002496D01*
Y9005700D01*
X14470541D01*
Y9008904D01*
Y9012108D01*
X14467339D01*
Y9015312D01*
Y9018516D01*
X14464134D01*
Y9021720D01*
Y9024925D01*
Y9028129D01*
Y9031333D01*
X14460928D01*
Y9034537D01*
Y9037741D01*
X14464134D01*
Y9040945D01*
X14483359D01*
Y9037741D01*
X14492970D01*
Y9034537D01*
X14499379D01*
Y9031333D01*
X14505788D01*
Y9028129D01*
X14508992D01*
Y9024925D01*
X14512196D01*
Y9021720D01*
X14518604D01*
Y9018516D01*
X14521808D01*
Y9015312D01*
X14525014D01*
Y9012108D01*
Y9008904D01*
X14528217D01*
Y9005700D01*
X14531421D01*
Y9002496D01*
X14534625D01*
Y8999291D01*
Y8996087D01*
X14537830D01*
Y8992883D01*
Y8989679D01*
X14541032D01*
Y8986475D01*
Y8983271D01*
Y8980066D01*
X14544238D01*
Y8976862D01*
Y8973658D01*
X14573074D01*
Y8976862D01*
X14579483D01*
Y8980066D01*
X14585892D01*
Y8983271D01*
X14589096D01*
Y8986475D01*
X14579483D01*
Y8989679D01*
X14569872D01*
Y8992883D01*
X14563461D01*
Y8996087D01*
X14557054D01*
Y8999291D01*
X14553850D01*
Y9002496D01*
X14550645D01*
Y9005700D01*
X14544238D01*
Y9008904D01*
X14541032D01*
Y9012108D01*
X14537830D01*
Y9015312D01*
Y9018516D01*
X14534625D01*
Y9021720D01*
X14531421D01*
Y9024925D01*
X14528217D01*
Y9028129D01*
Y9031333D01*
X14525014D01*
Y9034537D01*
Y9037741D01*
X14521808D01*
Y9040945D01*
Y9044150D01*
Y9047354D01*
X14518604D01*
Y9050558D01*
Y9053762D01*
Y9056966D01*
X14515401D01*
Y9060170D01*
Y9063375D01*
Y9066579D01*
Y9069783D01*
Y9072987D01*
Y9076191D01*
Y9079395D01*
Y9082600D01*
Y9085804D01*
Y9089008D01*
Y9092212D01*
X14537830D01*
Y9089008D01*
X14547443D01*
Y9085804D01*
X14553850D01*
Y9082600D01*
X14560258D01*
Y9079395D01*
X14566667D01*
Y9076191D01*
X14573074D01*
Y9079395D01*
Y9082600D01*
Y9085804D01*
Y9089008D01*
Y9092212D01*
Y9095416D01*
Y9098620D01*
X14576279D01*
Y9101824D01*
Y9105029D01*
Y9108233D01*
X14579483D01*
Y9111437D01*
Y9114641D01*
Y9117845D01*
X14582687D01*
Y9121049D01*
Y9124254D01*
X14585892D01*
Y9127458D01*
X14589096D01*
Y9130662D01*
Y9133866D01*
X14592300D01*
Y9137070D01*
X14595505D01*
Y9140274D01*
X14598708D01*
Y9143479D01*
X14601912D01*
Y9146682D01*
X14605116D01*
Y9149887D01*
X14611525D01*
Y9146682D01*
D02*
G37*
G36*
X14794162Y8601976D02*
Y8598772D01*
X14787753D01*
Y8595568D01*
X14778140D01*
Y8592363D01*
X14774937D01*
Y8589159D01*
Y8585955D01*
Y8582751D01*
X14771733D01*
Y8579547D01*
Y8576343D01*
Y8573139D01*
Y8569934D01*
Y8566730D01*
Y8563526D01*
Y8560322D01*
Y8557118D01*
Y8553914D01*
Y8550709D01*
Y8547505D01*
Y8544301D01*
Y8541097D01*
Y8537893D01*
Y8534689D01*
Y8531484D01*
Y8528280D01*
Y8525076D01*
Y8521872D01*
Y8518668D01*
Y8515464D01*
Y8512260D01*
Y8509055D01*
Y8505851D01*
Y8502647D01*
Y8499443D01*
X14774937D01*
Y8496239D01*
Y8493035D01*
Y8489830D01*
X14778140D01*
Y8486626D01*
X14781345D01*
Y8483422D01*
X14787753D01*
Y8480218D01*
X14794162D01*
Y8477014D01*
Y8473810D01*
X14784549D01*
Y8477014D01*
X14730080D01*
Y8473810D01*
X14669200D01*
Y8477014D01*
X14665996D01*
Y8480218D01*
Y8483422D01*
Y8486626D01*
Y8489830D01*
Y8493035D01*
X14662791D01*
Y8496239D01*
Y8499443D01*
Y8502647D01*
Y8505851D01*
Y8509055D01*
Y8512260D01*
Y8515464D01*
Y8518668D01*
X14669200D01*
Y8515464D01*
Y8512260D01*
Y8509055D01*
X14672404D01*
Y8505851D01*
Y8502647D01*
X14675607D01*
Y8499443D01*
Y8496239D01*
X14678812D01*
Y8493035D01*
X14682016D01*
Y8489830D01*
X14688425D01*
Y8486626D01*
X14694833D01*
Y8483422D01*
X14736487D01*
Y8486626D01*
X14742896D01*
Y8489830D01*
X14746100D01*
Y8493035D01*
Y8496239D01*
Y8499443D01*
Y8502647D01*
Y8505851D01*
Y8509055D01*
Y8512260D01*
Y8515464D01*
Y8518668D01*
Y8521872D01*
Y8525076D01*
Y8528280D01*
Y8531484D01*
Y8534689D01*
Y8537893D01*
X14742896D01*
Y8534689D01*
X14730080D01*
Y8531484D01*
X14726875D01*
Y8528280D01*
Y8525076D01*
X14723669D01*
Y8521872D01*
Y8518668D01*
X14717262D01*
Y8521872D01*
Y8525076D01*
Y8528280D01*
Y8531484D01*
Y8534689D01*
Y8537893D01*
Y8541097D01*
Y8544301D01*
Y8547505D01*
Y8550709D01*
Y8553914D01*
Y8557118D01*
Y8560322D01*
Y8563526D01*
Y8566730D01*
X14723669D01*
Y8563526D01*
Y8560322D01*
Y8557118D01*
X14726875D01*
Y8553914D01*
X14730080D01*
Y8550709D01*
X14739691D01*
Y8547505D01*
X14746100D01*
Y8550709D01*
Y8553914D01*
Y8557118D01*
Y8560322D01*
Y8563526D01*
Y8566730D01*
Y8569934D01*
Y8573139D01*
Y8576343D01*
Y8579547D01*
Y8582751D01*
Y8585955D01*
Y8589159D01*
Y8592363D01*
Y8595568D01*
X14717262D01*
Y8592363D01*
X14710854D01*
Y8589159D01*
X14707651D01*
Y8585955D01*
X14704445D01*
Y8582751D01*
Y8579547D01*
Y8576343D01*
X14701241D01*
Y8573139D01*
Y8569934D01*
X14698038D01*
Y8573139D01*
X14694833D01*
Y8576343D01*
Y8579547D01*
Y8582751D01*
Y8585955D01*
Y8589159D01*
Y8592363D01*
Y8595568D01*
Y8598772D01*
Y8601976D01*
Y8605180D01*
X14794162D01*
Y8601976D01*
D02*
G37*
G36*
X14951164D02*
Y8598772D01*
X14944757D01*
Y8595568D01*
X14941553D01*
Y8592363D01*
X14938348D01*
Y8589159D01*
X14935146D01*
Y8585955D01*
X14931941D01*
Y8582751D01*
Y8579547D01*
X14928735D01*
Y8576343D01*
Y8573139D01*
X14925533D01*
Y8569934D01*
Y8566730D01*
Y8563526D01*
X14922328D01*
Y8560322D01*
Y8557118D01*
X14919124D01*
Y8553914D01*
Y8550709D01*
X14915919D01*
Y8547505D01*
Y8544301D01*
Y8541097D01*
X14912717D01*
Y8537893D01*
Y8534689D01*
X14909511D01*
Y8531484D01*
Y8528280D01*
Y8525076D01*
X14906306D01*
Y8521872D01*
Y8518668D01*
X14903104D01*
Y8515464D01*
Y8512260D01*
X14899899D01*
Y8509055D01*
Y8505851D01*
Y8502647D01*
X14896695D01*
Y8499443D01*
Y8496239D01*
X14893491D01*
Y8493035D01*
Y8489830D01*
Y8486626D01*
X14890286D01*
Y8483422D01*
Y8480218D01*
X14887082D01*
Y8477014D01*
Y8473810D01*
X14883878D01*
Y8470605D01*
X14877470D01*
Y8473810D01*
X14874266D01*
Y8477014D01*
Y8480218D01*
X14871062D01*
Y8483422D01*
Y8486626D01*
X14867857D01*
Y8489830D01*
Y8493035D01*
Y8496239D01*
X14864653D01*
Y8499443D01*
Y8502647D01*
X14861449D01*
Y8505851D01*
Y8509055D01*
X14858244D01*
Y8512260D01*
Y8515464D01*
Y8518668D01*
X14855042D01*
Y8521872D01*
Y8525076D01*
X14851837D01*
Y8528280D01*
Y8531484D01*
Y8534689D01*
X14848631D01*
Y8537893D01*
Y8541097D01*
X14845428D01*
Y8544301D01*
Y8547505D01*
X14842224D01*
Y8550709D01*
Y8553914D01*
Y8557118D01*
X14839020D01*
Y8560322D01*
Y8563526D01*
X14835815D01*
Y8566730D01*
Y8569934D01*
X14832613D01*
Y8573139D01*
Y8576343D01*
Y8579547D01*
X14829407D01*
Y8582751D01*
Y8585955D01*
X14826202D01*
Y8589159D01*
X14823000D01*
Y8592363D01*
X14819795D01*
Y8595568D01*
X14813387D01*
Y8598772D01*
X14806979D01*
Y8601976D01*
Y8605180D01*
X14864653D01*
Y8601976D01*
Y8598772D01*
X14855042D01*
Y8595568D01*
X14848631D01*
Y8592363D01*
X14845428D01*
Y8589159D01*
Y8585955D01*
Y8582751D01*
Y8579547D01*
Y8576343D01*
X14848631D01*
Y8573139D01*
Y8569934D01*
Y8566730D01*
X14851837D01*
Y8563526D01*
Y8560322D01*
Y8557118D01*
X14855042D01*
Y8553914D01*
Y8550709D01*
Y8547505D01*
X14858244D01*
Y8544301D01*
Y8541097D01*
Y8537893D01*
X14861449D01*
Y8534689D01*
Y8531484D01*
Y8528280D01*
X14864653D01*
Y8525076D01*
Y8521872D01*
Y8518668D01*
X14867857D01*
Y8515464D01*
Y8512260D01*
X14871062D01*
Y8509055D01*
Y8505851D01*
X14874266D01*
Y8509055D01*
Y8512260D01*
X14877470D01*
Y8515464D01*
Y8518668D01*
Y8521872D01*
X14880675D01*
Y8525076D01*
Y8528280D01*
Y8531484D01*
X14883878D01*
Y8534689D01*
Y8537893D01*
X14887082D01*
Y8541097D01*
Y8544301D01*
Y8547505D01*
X14890286D01*
Y8550709D01*
Y8553914D01*
X14893491D01*
Y8557118D01*
Y8560322D01*
Y8563526D01*
X14896695D01*
Y8566730D01*
Y8569934D01*
X14899899D01*
Y8573139D01*
Y8576343D01*
Y8579547D01*
X14903104D01*
Y8582751D01*
Y8585955D01*
Y8589159D01*
Y8592363D01*
X14899899D01*
Y8595568D01*
X14893491D01*
Y8598772D01*
X14887082D01*
Y8601976D01*
Y8605180D01*
X14951164D01*
Y8601976D01*
D02*
G37*
G36*
X15316907D02*
Y8598772D01*
X15307294D01*
Y8595568D01*
X15300885D01*
Y8592363D01*
X15297681D01*
Y8589159D01*
X15294476D01*
Y8585955D01*
Y8582751D01*
Y8579547D01*
Y8576343D01*
Y8573139D01*
Y8569934D01*
Y8566730D01*
Y8563526D01*
Y8560322D01*
Y8557118D01*
Y8553914D01*
Y8550709D01*
Y8547505D01*
Y8544301D01*
Y8541097D01*
Y8537893D01*
Y8534689D01*
Y8531484D01*
Y8528280D01*
Y8525076D01*
Y8521872D01*
Y8518668D01*
Y8515464D01*
Y8512260D01*
Y8509055D01*
X15291273D01*
Y8505851D01*
Y8502647D01*
Y8499443D01*
Y8496239D01*
X15288068D01*
Y8493035D01*
Y8489830D01*
X15284863D01*
Y8486626D01*
X15281660D01*
Y8483422D01*
X15278456D01*
Y8480218D01*
X15272047D01*
Y8477014D01*
X15265640D01*
Y8473810D01*
X15217577D01*
Y8477014D01*
X15207965D01*
Y8480218D01*
X15204761D01*
Y8483422D01*
X15198352D01*
Y8486626D01*
X15195148D01*
Y8489830D01*
Y8493035D01*
X15191943D01*
Y8496239D01*
Y8499443D01*
X15188741D01*
Y8502647D01*
Y8505851D01*
Y8509055D01*
Y8512260D01*
X15185536D01*
Y8515464D01*
Y8518668D01*
Y8521872D01*
Y8525076D01*
Y8528280D01*
Y8531484D01*
Y8534689D01*
Y8537893D01*
Y8541097D01*
Y8544301D01*
Y8547505D01*
Y8550709D01*
Y8553914D01*
Y8557118D01*
Y8560322D01*
Y8563526D01*
Y8566730D01*
Y8569934D01*
X15182330D01*
Y8573139D01*
Y8576343D01*
Y8579547D01*
Y8582751D01*
Y8585955D01*
Y8589159D01*
X15178661D01*
Y8585955D01*
Y8582751D01*
Y8579547D01*
X15175456D01*
Y8576343D01*
Y8573139D01*
Y8569934D01*
Y8566730D01*
Y8563526D01*
Y8560322D01*
Y8557118D01*
Y8553914D01*
Y8550709D01*
Y8547505D01*
Y8544301D01*
Y8541097D01*
Y8537893D01*
Y8534689D01*
X15178661D01*
Y8531484D01*
Y8528280D01*
Y8525076D01*
Y8521872D01*
Y8518668D01*
Y8515464D01*
Y8512260D01*
Y8509055D01*
Y8505851D01*
Y8502647D01*
Y8499443D01*
Y8496239D01*
X15181865D01*
Y8493035D01*
Y8489830D01*
X15185069D01*
Y8486626D01*
X15188274D01*
Y8483422D01*
X15194682D01*
Y8480218D01*
X15201089D01*
Y8477014D01*
X15143414D01*
Y8473810D01*
X15140211D01*
Y8477014D01*
Y8480218D01*
X15143414D01*
Y8483422D01*
X15153027D01*
Y8486626D01*
X15159436D01*
Y8489830D01*
X15162640D01*
Y8493035D01*
X15165845D01*
Y8496239D01*
Y8499443D01*
Y8502647D01*
Y8505851D01*
Y8509055D01*
Y8512260D01*
Y8515464D01*
X15169048D01*
Y8518668D01*
Y8521872D01*
Y8525076D01*
Y8528280D01*
Y8531484D01*
Y8534689D01*
Y8537893D01*
Y8541097D01*
Y8544301D01*
Y8547505D01*
Y8550709D01*
Y8553914D01*
Y8557118D01*
Y8560322D01*
Y8563526D01*
Y8566730D01*
Y8569934D01*
X15165845D01*
Y8566730D01*
X15162640D01*
Y8563526D01*
X15159436D01*
Y8560322D01*
X15156232D01*
Y8557118D01*
X15153027D01*
Y8553914D01*
X15149823D01*
Y8550709D01*
X15146619D01*
Y8547505D01*
X15143414D01*
Y8544301D01*
X15140211D01*
Y8541097D01*
Y8537893D01*
X15137007D01*
Y8534689D01*
X15133803D01*
Y8531484D01*
X15130598D01*
Y8528280D01*
X15127394D01*
Y8525076D01*
X15124190D01*
Y8521872D01*
X15120985D01*
Y8518668D01*
X15117783D01*
Y8515464D01*
X15114578D01*
Y8512260D01*
X15111372D01*
Y8509055D01*
X15108170D01*
Y8505851D01*
Y8502647D01*
X15104965D01*
Y8499443D01*
X15101761D01*
Y8496239D01*
X15098557D01*
Y8493035D01*
X15095354D01*
Y8489830D01*
X15092148D01*
Y8486626D01*
X15088943D01*
Y8483422D01*
X15085741D01*
Y8480218D01*
X15082536D01*
Y8477014D01*
Y8473810D01*
X15079332D01*
Y8470605D01*
X15072923D01*
Y8473810D01*
X15069719D01*
Y8477014D01*
Y8480218D01*
Y8483422D01*
Y8486626D01*
Y8489830D01*
Y8493035D01*
Y8496239D01*
Y8499443D01*
Y8502647D01*
Y8505851D01*
Y8509055D01*
Y8512260D01*
Y8515464D01*
Y8518668D01*
Y8521872D01*
Y8525076D01*
Y8528280D01*
Y8531484D01*
Y8534689D01*
Y8537893D01*
Y8541097D01*
Y8544301D01*
Y8547505D01*
Y8550709D01*
Y8553914D01*
Y8557118D01*
Y8560322D01*
Y8563526D01*
Y8566730D01*
Y8569934D01*
Y8573139D01*
Y8576343D01*
X15066515D01*
Y8579547D01*
Y8582751D01*
Y8585955D01*
Y8589159D01*
Y8592363D01*
X15063310D01*
Y8595568D01*
X15056903D01*
Y8598772D01*
X15050494D01*
Y8601976D01*
Y8605180D01*
X15104965D01*
Y8601976D01*
Y8598772D01*
X15095354D01*
Y8595568D01*
X15088943D01*
Y8592363D01*
X15085741D01*
Y8589159D01*
X15082536D01*
Y8585955D01*
Y8582751D01*
X15079332D01*
Y8579547D01*
Y8576343D01*
Y8573139D01*
Y8569934D01*
Y8566730D01*
Y8563526D01*
Y8560322D01*
Y8557118D01*
Y8553914D01*
Y8550709D01*
Y8547505D01*
Y8544301D01*
Y8541097D01*
Y8537893D01*
Y8534689D01*
Y8531484D01*
Y8528280D01*
Y8525076D01*
Y8521872D01*
Y8518668D01*
Y8515464D01*
X15082536D01*
Y8518668D01*
X15085741D01*
Y8521872D01*
X15088943D01*
Y8525076D01*
X15092148D01*
Y8528280D01*
X15095354D01*
Y8531484D01*
X15098557D01*
Y8534689D01*
X15101761D01*
Y8537893D01*
Y8541097D01*
X15104965D01*
Y8544301D01*
X15108170D01*
Y8547505D01*
X15111372D01*
Y8550709D01*
X15114578D01*
Y8553914D01*
X15117783D01*
Y8557118D01*
X15120985D01*
Y8560322D01*
X15124190D01*
Y8563526D01*
X15127394D01*
Y8566730D01*
Y8569934D01*
X15130598D01*
Y8573139D01*
X15133803D01*
Y8576343D01*
X15137007D01*
Y8579547D01*
X15140211D01*
Y8582751D01*
X15143414D01*
Y8585955D01*
X15146619D01*
Y8589159D01*
Y8592363D01*
X15149823D01*
Y8595568D01*
X15153027D01*
Y8598772D01*
X15156232D01*
Y8601976D01*
X15159436D01*
Y8605180D01*
X15220781D01*
Y8601976D01*
Y8598772D01*
X15211169D01*
Y8595568D01*
X15204761D01*
Y8592363D01*
X15201556D01*
Y8589159D01*
X15198352D01*
Y8585955D01*
Y8582751D01*
Y8579547D01*
X15195148D01*
Y8576343D01*
Y8573139D01*
Y8569934D01*
Y8566730D01*
Y8563526D01*
Y8560322D01*
Y8557118D01*
Y8553914D01*
Y8550709D01*
Y8547505D01*
Y8544301D01*
Y8541097D01*
Y8537893D01*
Y8534689D01*
Y8531484D01*
Y8528280D01*
Y8525076D01*
Y8521872D01*
Y8518668D01*
Y8515464D01*
Y8512260D01*
Y8509055D01*
X15198352D01*
Y8505851D01*
Y8502647D01*
Y8499443D01*
X15201556D01*
Y8496239D01*
X15204761D01*
Y8493035D01*
X15207965D01*
Y8489830D01*
X15211169D01*
Y8486626D01*
X15220781D01*
Y8483422D01*
X15236803D01*
Y8486626D01*
X15246416D01*
Y8489830D01*
X15252823D01*
Y8493035D01*
X15256027D01*
Y8496239D01*
X15259232D01*
Y8499443D01*
X15262434D01*
Y8502647D01*
X15265640D01*
Y8505851D01*
Y8509055D01*
Y8512260D01*
X15268843D01*
Y8515464D01*
Y8518668D01*
Y8521872D01*
Y8525076D01*
Y8528280D01*
Y8531484D01*
Y8534689D01*
Y8537893D01*
Y8541097D01*
Y8544301D01*
Y8547505D01*
Y8550709D01*
Y8553914D01*
Y8557118D01*
Y8560322D01*
Y8563526D01*
Y8566730D01*
Y8569934D01*
Y8573139D01*
Y8576343D01*
Y8579547D01*
Y8582751D01*
X15265640D01*
Y8585955D01*
Y8589159D01*
Y8592363D01*
X15262434D01*
Y8595568D01*
X15252823D01*
Y8598772D01*
X15243210D01*
Y8601976D01*
Y8605180D01*
X15316907D01*
Y8601976D01*
D02*
G37*
G36*
X14646771D02*
Y8598772D01*
X14637158D01*
Y8595568D01*
X14630750D01*
Y8592363D01*
X14627547D01*
Y8589159D01*
Y8585955D01*
Y8582751D01*
Y8579547D01*
X14624342D01*
Y8576343D01*
Y8573139D01*
Y8569934D01*
Y8566730D01*
Y8563526D01*
Y8560322D01*
Y8557118D01*
Y8553914D01*
Y8550709D01*
Y8547505D01*
Y8544301D01*
Y8541097D01*
Y8537893D01*
Y8534689D01*
Y8531484D01*
Y8528280D01*
Y8525076D01*
Y8521872D01*
Y8518668D01*
Y8515464D01*
Y8512260D01*
Y8509055D01*
Y8505851D01*
Y8502647D01*
X14627547D01*
Y8499443D01*
Y8496239D01*
Y8493035D01*
Y8489830D01*
X14630750D01*
Y8486626D01*
X14633954D01*
Y8483422D01*
X14646771D01*
Y8480218D01*
Y8477014D01*
X14573074D01*
Y8480218D01*
Y8483422D01*
X14585892D01*
Y8486626D01*
X14592300D01*
Y8489830D01*
X14595505D01*
Y8493035D01*
X14598708D01*
Y8496239D01*
Y8499443D01*
Y8502647D01*
Y8505851D01*
Y8509055D01*
Y8512260D01*
X14601912D01*
Y8515464D01*
Y8518668D01*
Y8521872D01*
Y8525076D01*
Y8528280D01*
Y8531484D01*
Y8534689D01*
X14589096D01*
Y8531484D01*
X14585892D01*
Y8528280D01*
X14582687D01*
Y8525076D01*
X14579483D01*
Y8521872D01*
Y8518668D01*
X14576279D01*
Y8515464D01*
X14573074D01*
Y8512260D01*
Y8509055D01*
X14569872D01*
Y8505851D01*
Y8502647D01*
X14566667D01*
Y8499443D01*
X14563461D01*
Y8496239D01*
Y8493035D01*
X14560258D01*
Y8489830D01*
X14557054D01*
Y8486626D01*
X14553850D01*
Y8483422D01*
X14550645D01*
Y8480218D01*
X14544238D01*
Y8477014D01*
X14528217D01*
Y8473810D01*
X14499379D01*
Y8477014D01*
Y8480218D01*
X14508992D01*
Y8483422D01*
X14515401D01*
Y8486626D01*
X14518604D01*
Y8489830D01*
X14525014D01*
Y8493035D01*
X14528217D01*
Y8496239D01*
X14531421D01*
Y8499443D01*
X14534625D01*
Y8502647D01*
X14537830D01*
Y8505851D01*
X14541032D01*
Y8509055D01*
Y8512260D01*
X14544238D01*
Y8515464D01*
X14547443D01*
Y8518668D01*
X14550645D01*
Y8521872D01*
Y8525076D01*
X14553850D01*
Y8528280D01*
Y8531484D01*
X14557054D01*
Y8534689D01*
X14560258D01*
Y8537893D01*
Y8541097D01*
Y8544301D01*
X14557054D01*
Y8547505D01*
X14550645D01*
Y8550709D01*
X14547443D01*
Y8553914D01*
X14544238D01*
Y8557118D01*
Y8560322D01*
X14541032D01*
Y8563526D01*
Y8566730D01*
Y8569934D01*
Y8573139D01*
Y8576343D01*
Y8579547D01*
Y8582751D01*
Y8585955D01*
X14544238D01*
Y8589159D01*
Y8592363D01*
X14547443D01*
Y8595568D01*
X14550645D01*
Y8598772D01*
X14557054D01*
Y8601976D01*
X14566667D01*
Y8605180D01*
X14646771D01*
Y8601976D01*
D02*
G37*
G36*
X14387234D02*
Y8598772D01*
X14374417D01*
Y8595568D01*
X14368008D01*
Y8592363D01*
Y8589159D01*
X14364806D01*
Y8585955D01*
Y8582751D01*
Y8579547D01*
Y8576343D01*
X14361601D01*
Y8573139D01*
Y8569934D01*
Y8566730D01*
Y8563526D01*
Y8560322D01*
Y8557118D01*
Y8553914D01*
Y8550709D01*
Y8547505D01*
Y8544301D01*
Y8541097D01*
Y8537893D01*
Y8534689D01*
Y8531484D01*
Y8528280D01*
Y8525076D01*
Y8521872D01*
Y8518668D01*
Y8515464D01*
Y8512260D01*
Y8509055D01*
Y8505851D01*
Y8502647D01*
X14364806D01*
Y8499443D01*
Y8496239D01*
Y8493035D01*
Y8489830D01*
X14368008D01*
Y8486626D01*
X14371213D01*
Y8483422D01*
X14380824D01*
Y8480218D01*
X14387234D01*
Y8477014D01*
X14313538D01*
Y8480218D01*
X14319946D01*
Y8483422D01*
X14329559D01*
Y8486626D01*
X14332764D01*
Y8489830D01*
X14335966D01*
Y8493035D01*
Y8496239D01*
Y8499443D01*
Y8502647D01*
Y8505851D01*
Y8509055D01*
Y8512260D01*
X14339171D01*
Y8515464D01*
Y8518668D01*
Y8521872D01*
Y8525076D01*
Y8528280D01*
Y8531484D01*
Y8534689D01*
Y8537893D01*
Y8541097D01*
Y8544301D01*
Y8547505D01*
Y8550709D01*
Y8553914D01*
Y8557118D01*
Y8560322D01*
Y8563526D01*
Y8566730D01*
Y8569934D01*
X14335966D01*
Y8573139D01*
Y8576343D01*
Y8579547D01*
Y8582751D01*
Y8585955D01*
Y8589159D01*
X14332764D01*
Y8592363D01*
X14329559D01*
Y8595568D01*
X14323151D01*
Y8598772D01*
X14313538D01*
Y8601976D01*
Y8605180D01*
X14387234D01*
Y8601976D01*
D02*
G37*
G36*
X14300722D02*
Y8598772D01*
X14291109D01*
Y8595568D01*
X14284702D01*
Y8592363D01*
X14281497D01*
Y8589159D01*
X14278293D01*
Y8585955D01*
Y8582751D01*
Y8579547D01*
Y8576343D01*
Y8573139D01*
X14275089D01*
Y8569934D01*
Y8566730D01*
Y8563526D01*
Y8560322D01*
Y8557118D01*
Y8553914D01*
Y8550709D01*
Y8547505D01*
Y8544301D01*
Y8541097D01*
Y8537893D01*
Y8534689D01*
Y8531484D01*
Y8528280D01*
Y8525076D01*
Y8521872D01*
Y8518668D01*
Y8515464D01*
Y8512260D01*
Y8509055D01*
X14278293D01*
Y8505851D01*
Y8502647D01*
Y8499443D01*
Y8496239D01*
Y8493035D01*
Y8489830D01*
X14281497D01*
Y8486626D01*
X14284702D01*
Y8483422D01*
X14294313D01*
Y8480218D01*
X14300722D01*
Y8477014D01*
X14204597D01*
Y8480218D01*
X14194984D01*
Y8483422D01*
X14188576D01*
Y8486626D01*
X14185371D01*
Y8489830D01*
X14178964D01*
Y8493035D01*
X14175760D01*
Y8496239D01*
X14172556D01*
Y8499443D01*
X14169351D01*
Y8502647D01*
X14166147D01*
Y8505851D01*
Y8509055D01*
X14162943D01*
Y8512260D01*
Y8515464D01*
X14159740D01*
Y8518668D01*
Y8521872D01*
Y8525076D01*
Y8528280D01*
X14156535D01*
Y8531484D01*
Y8534689D01*
Y8537893D01*
Y8541097D01*
Y8544301D01*
Y8547505D01*
X14159740D01*
Y8550709D01*
Y8553914D01*
Y8557118D01*
Y8560322D01*
Y8563526D01*
X14162943D01*
Y8566730D01*
Y8569934D01*
X14166147D01*
Y8573139D01*
X14169351D01*
Y8576343D01*
Y8579547D01*
X14172556D01*
Y8582751D01*
X14175760D01*
Y8585955D01*
X14178964D01*
Y8589159D01*
X14182169D01*
Y8592363D01*
X14188576D01*
Y8595568D01*
X14194984D01*
Y8598772D01*
X14204597D01*
Y8601976D01*
X14217413D01*
Y8605180D01*
X14300722D01*
Y8601976D01*
D02*
G37*
G36*
X14073225Y8617997D02*
Y8614793D01*
Y8611588D01*
Y8608384D01*
X14076431D01*
Y8605180D01*
X14079636D01*
Y8601976D01*
X14082838D01*
Y8598772D01*
X14086043D01*
Y8595568D01*
Y8592363D01*
Y8589159D01*
X14089247D01*
Y8585955D01*
Y8582751D01*
X14092451D01*
Y8579547D01*
Y8576343D01*
Y8573139D01*
X14095656D01*
Y8569934D01*
Y8566730D01*
X14098860D01*
Y8563526D01*
Y8560322D01*
Y8557118D01*
X14102065D01*
Y8553914D01*
Y8550709D01*
X14105267D01*
Y8547505D01*
Y8544301D01*
Y8541097D01*
X14108472D01*
Y8537893D01*
Y8534689D01*
Y8531484D01*
X14111676D01*
Y8528280D01*
Y8525076D01*
X14114880D01*
Y8521872D01*
Y8518668D01*
Y8515464D01*
X14118085D01*
Y8512260D01*
Y8509055D01*
X14121289D01*
Y8505851D01*
Y8502647D01*
X14124493D01*
Y8499443D01*
Y8496239D01*
X14127698D01*
Y8493035D01*
Y8489830D01*
X14130901D01*
Y8486626D01*
X14137309D01*
Y8483422D01*
X14143718D01*
Y8480218D01*
Y8477014D01*
X14086043D01*
Y8480218D01*
X14092451D01*
Y8483422D01*
X14102065D01*
Y8486626D01*
X14105267D01*
Y8489830D01*
X14108472D01*
Y8493035D01*
Y8496239D01*
Y8499443D01*
Y8502647D01*
Y8505851D01*
X14105267D01*
Y8509055D01*
Y8512260D01*
Y8515464D01*
Y8518668D01*
X14102065D01*
Y8521872D01*
Y8525076D01*
X14098860D01*
Y8528280D01*
X14063614D01*
Y8525076D01*
X14060410D01*
Y8521872D01*
Y8518668D01*
X14057207D01*
Y8515464D01*
Y8512260D01*
X14054002D01*
Y8509055D01*
Y8505851D01*
Y8502647D01*
X14050797D01*
Y8499443D01*
Y8496239D01*
Y8493035D01*
Y8489830D01*
Y8486626D01*
X14054002D01*
Y8483422D01*
X14063614D01*
Y8480218D01*
Y8477014D01*
X14002734D01*
Y8480218D01*
Y8483422D01*
X14012347D01*
Y8486626D01*
X14015552D01*
Y8489830D01*
X14018756D01*
Y8493035D01*
X14021960D01*
Y8496239D01*
Y8499443D01*
X14025163D01*
Y8502647D01*
Y8505851D01*
X14028368D01*
Y8509055D01*
Y8512260D01*
Y8515464D01*
X14031572D01*
Y8518668D01*
Y8521872D01*
Y8525076D01*
X14034776D01*
Y8528280D01*
Y8531484D01*
X14037981D01*
Y8534689D01*
Y8537893D01*
Y8541097D01*
X14041185D01*
Y8544301D01*
Y8547505D01*
Y8550709D01*
X14044389D01*
Y8553914D01*
Y8557118D01*
X14047594D01*
Y8560322D01*
Y8563526D01*
Y8566730D01*
X14050797D01*
Y8569934D01*
Y8573139D01*
Y8576343D01*
X14054002D01*
Y8579547D01*
Y8582751D01*
X14057207D01*
Y8585955D01*
Y8589159D01*
Y8592363D01*
X14060410D01*
Y8595568D01*
Y8598772D01*
Y8601976D01*
X14063614D01*
Y8605180D01*
Y8608384D01*
X14066818D01*
Y8611588D01*
Y8614793D01*
Y8617997D01*
X14070023D01*
Y8621201D01*
X14073225D01*
Y8617997D01*
D02*
G37*
G36*
X13964285Y8605180D02*
X13989919D01*
Y8601976D01*
X13986714D01*
Y8598772D01*
X13977103D01*
Y8595568D01*
X13973898D01*
Y8592363D01*
X13967490D01*
Y8589159D01*
Y8585955D01*
Y8582751D01*
Y8579547D01*
Y8576343D01*
X13964285D01*
Y8573139D01*
Y8569934D01*
Y8566730D01*
Y8563526D01*
Y8560322D01*
Y8557118D01*
Y8553914D01*
Y8550709D01*
Y8547505D01*
Y8544301D01*
Y8541097D01*
Y8537893D01*
Y8534689D01*
Y8531484D01*
Y8528280D01*
Y8525076D01*
Y8521872D01*
Y8518668D01*
Y8515464D01*
Y8512260D01*
Y8509055D01*
Y8505851D01*
X13967490D01*
Y8502647D01*
Y8499443D01*
Y8496239D01*
Y8493035D01*
Y8489830D01*
X13970692D01*
Y8486626D01*
X13977103D01*
Y8483422D01*
X13986714D01*
Y8480218D01*
X13989919D01*
Y8477014D01*
X13900201D01*
Y8480218D01*
X13887386D01*
Y8483422D01*
X13880977D01*
Y8486626D01*
X13874570D01*
Y8489830D01*
X13871364D01*
Y8493035D01*
X13864957D01*
Y8496239D01*
X13861752D01*
Y8499443D01*
X13858548D01*
Y8502647D01*
Y8505851D01*
X13855344D01*
Y8509055D01*
X13852139D01*
Y8512260D01*
Y8515464D01*
X13848935D01*
Y8518668D01*
Y8521872D01*
Y8525076D01*
Y8528280D01*
X13845731D01*
Y8531484D01*
Y8534689D01*
Y8537893D01*
Y8541097D01*
Y8544301D01*
Y8547505D01*
Y8550709D01*
X13848935D01*
Y8553914D01*
Y8557118D01*
Y8560322D01*
Y8563526D01*
X13852139D01*
Y8566730D01*
Y8569934D01*
X13855344D01*
Y8573139D01*
Y8576343D01*
X13858548D01*
Y8579547D01*
X13861752D01*
Y8582751D01*
X13864957D01*
Y8585955D01*
X13868159D01*
Y8589159D01*
X13871364D01*
Y8592363D01*
X13877773D01*
Y8595568D01*
X13880977D01*
Y8598772D01*
X13890588D01*
Y8601976D01*
X13900201D01*
Y8605180D01*
X13929039D01*
Y8608384D01*
X13964285D01*
Y8605180D01*
D02*
G37*
G36*
X15037679Y8601976D02*
Y8598772D01*
X15028065D01*
Y8595568D01*
X15021657D01*
Y8592363D01*
X15018452D01*
Y8589159D01*
X15015250D01*
Y8585955D01*
Y8582751D01*
Y8579547D01*
Y8576343D01*
Y8573139D01*
Y8569934D01*
Y8566730D01*
Y8563526D01*
X15012044D01*
Y8560322D01*
Y8557118D01*
Y8553914D01*
Y8550709D01*
Y8547505D01*
Y8544301D01*
Y8541097D01*
Y8537893D01*
Y8534689D01*
Y8531484D01*
Y8528280D01*
Y8525076D01*
Y8521872D01*
Y8518668D01*
Y8515464D01*
X15015250D01*
Y8512260D01*
Y8509055D01*
Y8505851D01*
Y8502647D01*
Y8499443D01*
Y8496239D01*
Y8493035D01*
X15018452D01*
Y8489830D01*
Y8486626D01*
X15021657D01*
Y8483422D01*
X15031268D01*
Y8480218D01*
X15037679D01*
Y8477014D01*
Y8473810D01*
X15034474D01*
Y8477014D01*
X14967186D01*
Y8473810D01*
X14963982D01*
Y8477014D01*
Y8480218D01*
X14973595D01*
Y8483422D01*
X14980003D01*
Y8486626D01*
X14983208D01*
Y8489830D01*
X14986411D01*
Y8493035D01*
Y8496239D01*
Y8499443D01*
Y8502647D01*
X14989615D01*
Y8505851D01*
Y8509055D01*
Y8512260D01*
Y8515464D01*
Y8518668D01*
Y8521872D01*
Y8525076D01*
Y8528280D01*
Y8531484D01*
Y8534689D01*
Y8537893D01*
Y8541097D01*
Y8544301D01*
Y8547505D01*
Y8550709D01*
Y8553914D01*
Y8557118D01*
Y8560322D01*
Y8563526D01*
Y8566730D01*
Y8569934D01*
Y8573139D01*
Y8576343D01*
Y8579547D01*
X14986411D01*
Y8582751D01*
Y8585955D01*
Y8589159D01*
X14983208D01*
Y8592363D01*
Y8595568D01*
X14973595D01*
Y8598772D01*
X14963982D01*
Y8601976D01*
Y8605180D01*
X15037679D01*
Y8601976D01*
D02*
G37*
G36*
X14444910Y8605180D02*
X14454521D01*
Y8601976D01*
X14460928D01*
Y8598772D01*
X14467339D01*
Y8595568D01*
X14470541D01*
Y8592363D01*
X14473746D01*
Y8589159D01*
Y8585955D01*
X14476950D01*
Y8582751D01*
Y8579547D01*
Y8576343D01*
Y8573139D01*
Y8569934D01*
Y8566730D01*
Y8563526D01*
Y8560322D01*
Y8557118D01*
Y8553914D01*
X14473746D01*
Y8550709D01*
X14470541D01*
Y8547505D01*
X14467339D01*
Y8544301D01*
X14464134D01*
Y8541097D01*
X14460928D01*
Y8537893D01*
X14454521D01*
Y8534689D01*
X14448112D01*
Y8531484D01*
X14444910D01*
Y8528280D01*
X14438499D01*
Y8525076D01*
X14435297D01*
Y8521872D01*
X14432092D01*
Y8518668D01*
X14428888D01*
Y8515464D01*
X14425684D01*
Y8512260D01*
X14422479D01*
Y8509055D01*
Y8505851D01*
Y8502647D01*
X14419275D01*
Y8499443D01*
X14422479D01*
Y8496239D01*
Y8493035D01*
Y8489830D01*
X14425684D01*
Y8486626D01*
X14428888D01*
Y8483422D01*
X14435297D01*
Y8480218D01*
X14444910D01*
Y8483422D01*
X14454521D01*
Y8486626D01*
X14460928D01*
Y8489830D01*
X14464134D01*
Y8493035D01*
X14467339D01*
Y8496239D01*
X14470541D01*
Y8499443D01*
Y8502647D01*
X14473746D01*
Y8505851D01*
Y8509055D01*
X14476950D01*
Y8512260D01*
Y8515464D01*
X14480154D01*
Y8518668D01*
Y8521872D01*
X14486563D01*
Y8518668D01*
Y8515464D01*
Y8512260D01*
Y8509055D01*
Y8505851D01*
X14483359D01*
Y8502647D01*
Y8499443D01*
Y8496239D01*
Y8493035D01*
Y8489830D01*
Y8486626D01*
Y8483422D01*
X14480154D01*
Y8480218D01*
X14473746D01*
Y8477014D01*
X14464134D01*
Y8473810D01*
X14422479D01*
Y8477014D01*
X14416071D01*
Y8480218D01*
X14409663D01*
Y8483422D01*
X14406459D01*
Y8486626D01*
X14403255D01*
Y8489830D01*
X14400050D01*
Y8493035D01*
Y8496239D01*
X14396846D01*
Y8499443D01*
Y8502647D01*
Y8505851D01*
Y8509055D01*
Y8512260D01*
Y8515464D01*
Y8518668D01*
Y8521872D01*
Y8525076D01*
X14400050D01*
Y8528280D01*
Y8531484D01*
X14403255D01*
Y8534689D01*
X14406459D01*
Y8537893D01*
X14409663D01*
Y8541097D01*
X14416071D01*
Y8544301D01*
X14419275D01*
Y8547505D01*
X14425684D01*
Y8550709D01*
X14428888D01*
Y8553914D01*
X14435297D01*
Y8557118D01*
X14438499D01*
Y8560322D01*
X14441704D01*
Y8563526D01*
X14444910D01*
Y8566730D01*
X14448112D01*
Y8569934D01*
X14451317D01*
Y8573139D01*
X14454521D01*
Y8576343D01*
Y8579547D01*
Y8582751D01*
Y8585955D01*
X14451317D01*
Y8589159D01*
Y8592363D01*
X14448112D01*
Y8595568D01*
X14444910D01*
Y8598772D01*
X14425684D01*
Y8595568D01*
X14422479D01*
Y8592363D01*
X14419275D01*
Y8589159D01*
X14416071D01*
Y8585955D01*
Y8582751D01*
X14412868D01*
Y8579547D01*
Y8576343D01*
Y8573139D01*
X14409663D01*
Y8569934D01*
Y8566730D01*
X14403255D01*
Y8569934D01*
Y8573139D01*
Y8576343D01*
Y8579547D01*
Y8582751D01*
Y8585955D01*
X14400050D01*
Y8589159D01*
Y8592363D01*
Y8595568D01*
Y8598772D01*
X14403255D01*
Y8601976D01*
X14409663D01*
Y8605180D01*
X14419275D01*
Y8608384D01*
X14444910D01*
Y8605180D01*
D02*
G37*
G36*
X14669200Y8438564D02*
Y8435360D01*
Y8432156D01*
Y8428951D01*
Y8425747D01*
Y8422543D01*
Y8419339D01*
Y8416135D01*
Y8412931D01*
X14672404D01*
Y8409726D01*
Y8406522D01*
Y8403318D01*
Y8400114D01*
Y8396910D01*
X14665996D01*
Y8400114D01*
Y8403318D01*
X14662791D01*
Y8406522D01*
Y8409726D01*
Y8412931D01*
X14659587D01*
Y8416135D01*
X14656383D01*
Y8419339D01*
X14653178D01*
Y8422543D01*
X14643565D01*
Y8425747D01*
X14621136D01*
Y8422543D01*
Y8419339D01*
Y8416135D01*
Y8412931D01*
Y8409726D01*
Y8406522D01*
Y8403318D01*
Y8400114D01*
Y8396910D01*
Y8393706D01*
Y8390501D01*
Y8387297D01*
Y8384093D01*
Y8380889D01*
Y8377685D01*
Y8374481D01*
Y8371277D01*
Y8368072D01*
Y8364868D01*
Y8361664D01*
Y8358460D01*
Y8355256D01*
Y8352052D01*
Y8348847D01*
Y8345643D01*
Y8342439D01*
Y8339235D01*
Y8336031D01*
Y8332827D01*
Y8329622D01*
Y8326418D01*
X14624342D01*
Y8323214D01*
Y8320010D01*
X14627547D01*
Y8316806D01*
X14630750D01*
Y8313602D01*
X14643565D01*
Y8310398D01*
Y8307193D01*
X14573074D01*
Y8310398D01*
X14576279D01*
Y8313602D01*
X14585892D01*
Y8316806D01*
X14589096D01*
Y8320010D01*
X14592300D01*
Y8323214D01*
Y8326418D01*
X14595505D01*
Y8329622D01*
Y8332827D01*
Y8336031D01*
Y8339235D01*
Y8342439D01*
Y8345643D01*
Y8348847D01*
Y8352052D01*
Y8355256D01*
Y8358460D01*
Y8361664D01*
Y8364868D01*
Y8368072D01*
Y8371277D01*
Y8374481D01*
Y8377685D01*
Y8380889D01*
Y8384093D01*
Y8387297D01*
Y8390501D01*
Y8393706D01*
Y8396910D01*
Y8400114D01*
Y8403318D01*
Y8406522D01*
Y8409726D01*
Y8412931D01*
Y8416135D01*
Y8419339D01*
Y8422543D01*
Y8425747D01*
X14573074D01*
Y8422543D01*
X14563461D01*
Y8419339D01*
X14560258D01*
Y8416135D01*
X14557054D01*
Y8412931D01*
Y8409726D01*
X14553850D01*
Y8406522D01*
Y8403318D01*
X14550645D01*
Y8400114D01*
Y8396910D01*
X14544238D01*
Y8400114D01*
Y8403318D01*
Y8406522D01*
Y8409726D01*
X14547443D01*
Y8412931D01*
Y8416135D01*
Y8419339D01*
Y8422543D01*
Y8425747D01*
Y8428951D01*
Y8432156D01*
Y8435360D01*
Y8438564D01*
Y8441768D01*
X14553850D01*
Y8438564D01*
X14560258D01*
Y8435360D01*
X14659587D01*
Y8438564D01*
X14662791D01*
Y8441768D01*
X14669200D01*
Y8438564D01*
D02*
G37*
G36*
X14983208Y8432156D02*
X14980003D01*
Y8428951D01*
X14970390D01*
Y8425747D01*
X14967186D01*
Y8422543D01*
X14963982D01*
Y8419339D01*
Y8416135D01*
Y8412931D01*
X14960777D01*
Y8409726D01*
Y8406522D01*
Y8403318D01*
Y8400114D01*
Y8396910D01*
Y8393706D01*
Y8390501D01*
Y8387297D01*
Y8384093D01*
Y8380889D01*
Y8377685D01*
Y8374481D01*
Y8371277D01*
Y8368072D01*
Y8364868D01*
Y8361664D01*
Y8358460D01*
Y8355256D01*
Y8352052D01*
Y8348847D01*
Y8345643D01*
Y8342439D01*
Y8339235D01*
Y8336031D01*
Y8332827D01*
X14963982D01*
Y8329622D01*
Y8326418D01*
Y8323214D01*
Y8320010D01*
X14967186D01*
Y8316806D01*
X14973595D01*
Y8313602D01*
X14983208D01*
Y8310398D01*
Y8307193D01*
X14858244D01*
Y8310398D01*
X14855042D01*
Y8313602D01*
Y8316806D01*
Y8320010D01*
Y8323214D01*
Y8326418D01*
X14851837D01*
Y8329622D01*
Y8332827D01*
Y8336031D01*
Y8339235D01*
Y8342439D01*
Y8345643D01*
Y8348847D01*
X14858244D01*
Y8345643D01*
Y8342439D01*
X14861449D01*
Y8339235D01*
Y8336031D01*
Y8332827D01*
X14864653D01*
Y8329622D01*
X14867857D01*
Y8326418D01*
X14871062D01*
Y8323214D01*
X14874266D01*
Y8320010D01*
X14880675D01*
Y8316806D01*
X14890286D01*
Y8313602D01*
X14919124D01*
Y8316806D01*
X14928735D01*
Y8320010D01*
X14931941D01*
Y8323214D01*
X14935146D01*
Y8326418D01*
Y8329622D01*
Y8332827D01*
Y8336031D01*
Y8339235D01*
Y8342439D01*
Y8345643D01*
Y8348847D01*
Y8352052D01*
Y8355256D01*
Y8358460D01*
Y8361664D01*
Y8364868D01*
Y8368072D01*
X14925533D01*
Y8364868D01*
X14919124D01*
Y8361664D01*
X14915919D01*
Y8358460D01*
X14912717D01*
Y8355256D01*
Y8352052D01*
Y8348847D01*
X14906306D01*
Y8352052D01*
Y8355256D01*
Y8358460D01*
Y8361664D01*
Y8364868D01*
Y8368072D01*
Y8371277D01*
Y8374481D01*
Y8377685D01*
Y8380889D01*
Y8384093D01*
Y8387297D01*
Y8390501D01*
Y8393706D01*
Y8396910D01*
X14912717D01*
Y8393706D01*
Y8390501D01*
X14915919D01*
Y8387297D01*
X14919124D01*
Y8384093D01*
X14922328D01*
Y8380889D01*
X14935146D01*
Y8384093D01*
Y8387297D01*
Y8390501D01*
Y8393706D01*
Y8396910D01*
Y8400114D01*
Y8403318D01*
Y8406522D01*
Y8409726D01*
Y8412931D01*
Y8416135D01*
Y8419339D01*
Y8422543D01*
Y8425747D01*
Y8428951D01*
X14912717D01*
Y8425747D01*
X14903104D01*
Y8422543D01*
X14899899D01*
Y8419339D01*
X14896695D01*
Y8416135D01*
X14893491D01*
Y8412931D01*
Y8409726D01*
Y8406522D01*
X14890286D01*
Y8403318D01*
X14887082D01*
Y8406522D01*
X14883878D01*
Y8409726D01*
Y8412931D01*
Y8416135D01*
Y8419339D01*
Y8422543D01*
Y8425747D01*
Y8428951D01*
Y8432156D01*
Y8435360D01*
X14983208D01*
Y8432156D01*
D02*
G37*
G36*
X14835815D02*
Y8428951D01*
X14823000D01*
Y8425747D01*
X14819795D01*
Y8422543D01*
X14816591D01*
Y8419339D01*
X14813387D01*
Y8416135D01*
Y8412931D01*
Y8409726D01*
Y8406522D01*
X14810182D01*
Y8403318D01*
Y8400114D01*
Y8396910D01*
Y8393706D01*
Y8390501D01*
Y8387297D01*
X14813387D01*
Y8384093D01*
Y8380889D01*
Y8377685D01*
Y8374481D01*
Y8371277D01*
Y8368072D01*
Y8364868D01*
Y8361664D01*
Y8358460D01*
Y8355256D01*
Y8352052D01*
Y8348847D01*
Y8345643D01*
Y8342439D01*
Y8339235D01*
Y8336031D01*
Y8332827D01*
Y8329622D01*
X14816591D01*
Y8326418D01*
Y8323214D01*
X14819795D01*
Y8320010D01*
X14823000D01*
Y8316806D01*
X14826202D01*
Y8313602D01*
X14835815D01*
Y8310398D01*
Y8307193D01*
X14774937D01*
Y8310398D01*
Y8313602D01*
X14784549D01*
Y8316806D01*
X14794162D01*
Y8320010D01*
X14797366D01*
Y8323214D01*
X14800571D01*
Y8326418D01*
Y8329622D01*
Y8332827D01*
Y8336031D01*
Y8339235D01*
X14803773D01*
Y8342439D01*
Y8345643D01*
Y8348847D01*
Y8352052D01*
Y8355256D01*
Y8358460D01*
Y8361664D01*
Y8364868D01*
Y8368072D01*
Y8371277D01*
Y8374481D01*
Y8377685D01*
Y8380889D01*
Y8384093D01*
Y8387297D01*
Y8390501D01*
Y8393706D01*
Y8396910D01*
Y8400114D01*
X14797366D01*
Y8396910D01*
Y8393706D01*
X14794162D01*
Y8390501D01*
X14790958D01*
Y8387297D01*
X14787753D01*
Y8384093D01*
X14784549D01*
Y8380889D01*
X14781345D01*
Y8377685D01*
X14778140D01*
Y8374481D01*
X14774937D01*
Y8371277D01*
X14771733D01*
Y8368072D01*
X14768529D01*
Y8364868D01*
X14765324D01*
Y8361664D01*
Y8358460D01*
X14762120D01*
Y8355256D01*
X14758916D01*
Y8352052D01*
X14755711D01*
Y8348847D01*
X14752509D01*
Y8345643D01*
X14749303D01*
Y8342439D01*
X14746100D01*
Y8339235D01*
X14742896D01*
Y8336031D01*
X14739691D01*
Y8332827D01*
X14736487D01*
Y8329622D01*
X14733282D01*
Y8326418D01*
Y8323214D01*
X14730080D01*
Y8320010D01*
X14726875D01*
Y8316806D01*
X14723669D01*
Y8313602D01*
X14720467D01*
Y8310398D01*
X14717262D01*
Y8307193D01*
X14714058D01*
Y8303989D01*
X14704445D01*
Y8307193D01*
Y8310398D01*
Y8313602D01*
Y8316806D01*
Y8320010D01*
Y8323214D01*
Y8326418D01*
Y8329622D01*
Y8332827D01*
Y8336031D01*
Y8339235D01*
Y8342439D01*
Y8345643D01*
Y8348847D01*
Y8352052D01*
Y8355256D01*
Y8358460D01*
Y8361664D01*
Y8364868D01*
Y8368072D01*
Y8371277D01*
Y8374481D01*
Y8377685D01*
Y8380889D01*
Y8384093D01*
Y8387297D01*
Y8390501D01*
Y8393706D01*
Y8396910D01*
Y8400114D01*
Y8403318D01*
Y8406522D01*
Y8409726D01*
Y8412931D01*
X14701241D01*
Y8416135D01*
Y8419339D01*
Y8422543D01*
X14698038D01*
Y8425747D01*
X14694833D01*
Y8428951D01*
X14688425D01*
Y8432156D01*
X14685220D01*
Y8435360D01*
X14742896D01*
Y8432156D01*
X14736487D01*
Y8428951D01*
X14726875D01*
Y8425747D01*
X14720467D01*
Y8422543D01*
X14717262D01*
Y8419339D01*
Y8416135D01*
Y8412931D01*
Y8409726D01*
X14714058D01*
Y8406522D01*
Y8403318D01*
Y8400114D01*
Y8396910D01*
Y8393706D01*
Y8390501D01*
Y8387297D01*
Y8384093D01*
Y8380889D01*
Y8377685D01*
Y8374481D01*
Y8371277D01*
Y8368072D01*
Y8364868D01*
Y8361664D01*
Y8358460D01*
Y8355256D01*
Y8352052D01*
Y8348847D01*
Y8345643D01*
X14717262D01*
Y8348847D01*
X14720467D01*
Y8352052D01*
X14723669D01*
Y8355256D01*
X14726875D01*
Y8358460D01*
X14730080D01*
Y8361664D01*
Y8364868D01*
X14733282D01*
Y8368072D01*
X14736487D01*
Y8371277D01*
X14739691D01*
Y8374481D01*
X14742896D01*
Y8377685D01*
X14746100D01*
Y8380889D01*
X14749303D01*
Y8384093D01*
X14752509D01*
Y8387297D01*
X14755711D01*
Y8390501D01*
Y8393706D01*
X14758916D01*
Y8396910D01*
X14762120D01*
Y8400114D01*
X14765324D01*
Y8403318D01*
X14768529D01*
Y8406522D01*
X14771733D01*
Y8409726D01*
X14774937D01*
Y8412931D01*
Y8416135D01*
X14778140D01*
Y8419339D01*
X14781345D01*
Y8422543D01*
X14784549D01*
Y8425747D01*
X14787753D01*
Y8428951D01*
X14790958D01*
Y8432156D01*
Y8435360D01*
X14835815D01*
Y8432156D01*
D02*
G37*
G36*
X14214209D02*
X14211005D01*
Y8428951D01*
X14201393D01*
Y8425747D01*
X14194984D01*
Y8422543D01*
Y8419339D01*
X14191780D01*
Y8416135D01*
Y8412931D01*
Y8409726D01*
Y8406522D01*
Y8403318D01*
Y8400114D01*
Y8396910D01*
Y8393706D01*
Y8390501D01*
Y8387297D01*
Y8384093D01*
Y8380889D01*
Y8377685D01*
Y8374481D01*
Y8371277D01*
Y8368072D01*
Y8364868D01*
Y8361664D01*
Y8358460D01*
Y8355256D01*
Y8352052D01*
Y8348847D01*
Y8345643D01*
Y8342439D01*
Y8339235D01*
Y8336031D01*
Y8332827D01*
Y8329622D01*
Y8326418D01*
Y8323214D01*
X14194984D01*
Y8320010D01*
Y8316806D01*
X14201393D01*
Y8313602D01*
X14214209D01*
Y8310398D01*
Y8307193D01*
X14102065D01*
Y8310398D01*
Y8313602D01*
Y8316806D01*
X14098860D01*
Y8320010D01*
Y8323214D01*
Y8326418D01*
X14095656D01*
Y8329622D01*
Y8332827D01*
Y8336031D01*
Y8339235D01*
X14092451D01*
Y8342439D01*
Y8345643D01*
Y8348847D01*
X14089247D01*
Y8352052D01*
X14098860D01*
Y8348847D01*
Y8345643D01*
X14102065D01*
Y8342439D01*
Y8339235D01*
X14105267D01*
Y8336031D01*
X14108472D01*
Y8332827D01*
X14111676D01*
Y8329622D01*
Y8326418D01*
X14118085D01*
Y8323214D01*
X14121289D01*
Y8320010D01*
X14130901D01*
Y8316806D01*
X14166147D01*
Y8320010D01*
Y8323214D01*
Y8326418D01*
Y8329622D01*
Y8332827D01*
Y8336031D01*
Y8339235D01*
Y8342439D01*
Y8345643D01*
Y8348847D01*
Y8352052D01*
Y8355256D01*
Y8358460D01*
Y8361664D01*
Y8364868D01*
Y8368072D01*
Y8371277D01*
Y8374481D01*
Y8377685D01*
Y8380889D01*
Y8384093D01*
Y8387297D01*
Y8390501D01*
Y8393706D01*
Y8396910D01*
Y8400114D01*
Y8403318D01*
Y8406522D01*
Y8409726D01*
Y8412931D01*
X14162943D01*
Y8416135D01*
Y8419339D01*
Y8422543D01*
X14159740D01*
Y8425747D01*
X14156535D01*
Y8428951D01*
X14143718D01*
Y8432156D01*
X14140514D01*
Y8435360D01*
X14214209D01*
Y8432156D01*
D02*
G37*
G36*
X15069719Y8435360D02*
X15082536D01*
Y8432156D01*
X15088943D01*
Y8428951D01*
X15095354D01*
Y8425747D01*
X15098557D01*
Y8422543D01*
X15104965D01*
Y8419339D01*
X15108170D01*
Y8416135D01*
X15111372D01*
Y8412931D01*
Y8409726D01*
X15114578D01*
Y8406522D01*
X15117783D01*
Y8403318D01*
Y8400114D01*
X15120985D01*
Y8396910D01*
Y8393706D01*
X15124190D01*
Y8390501D01*
Y8387297D01*
Y8384093D01*
Y8380889D01*
Y8377685D01*
Y8374481D01*
X15127394D01*
Y8371277D01*
Y8368072D01*
Y8364868D01*
X15124190D01*
Y8361664D01*
Y8358460D01*
Y8355256D01*
Y8352052D01*
Y8348847D01*
Y8345643D01*
X15120985D01*
Y8342439D01*
Y8339235D01*
X15117783D01*
Y8336031D01*
Y8332827D01*
X15114578D01*
Y8329622D01*
X15111372D01*
Y8326418D01*
Y8323214D01*
X15108170D01*
Y8320010D01*
X15101761D01*
Y8316806D01*
X15098557D01*
Y8313602D01*
X15092148D01*
Y8310398D01*
X15085741D01*
Y8307193D01*
X15076128D01*
Y8303989D01*
X15024861D01*
Y8307193D01*
X15015250D01*
Y8310398D01*
X15008839D01*
Y8313602D01*
Y8316806D01*
X15005637D01*
Y8320010D01*
Y8323214D01*
Y8326418D01*
X15002432D01*
Y8329622D01*
Y8332827D01*
Y8336031D01*
Y8339235D01*
X14999228D01*
Y8342439D01*
Y8345643D01*
Y8348847D01*
Y8352052D01*
X15005637D01*
Y8348847D01*
Y8345643D01*
X15008839D01*
Y8342439D01*
Y8339235D01*
X15012044D01*
Y8336031D01*
Y8332827D01*
X15015250D01*
Y8329622D01*
X15018452D01*
Y8326418D01*
X15021657D01*
Y8323214D01*
X15024861D01*
Y8320010D01*
X15028065D01*
Y8316806D01*
X15034474D01*
Y8313602D01*
X15044086D01*
Y8310398D01*
X15053699D01*
Y8313602D01*
X15063310D01*
Y8316806D01*
X15069719D01*
Y8320010D01*
X15072923D01*
Y8323214D01*
X15079332D01*
Y8326418D01*
X15082536D01*
Y8329622D01*
Y8332827D01*
X15085741D01*
Y8336031D01*
X15088943D01*
Y8339235D01*
Y8342439D01*
X15092148D01*
Y8345643D01*
Y8348847D01*
Y8352052D01*
X15095354D01*
Y8355256D01*
Y8358460D01*
Y8361664D01*
Y8364868D01*
Y8368072D01*
Y8371277D01*
Y8374481D01*
Y8377685D01*
Y8380889D01*
Y8384093D01*
Y8387297D01*
Y8390501D01*
Y8393706D01*
X15092148D01*
Y8396910D01*
Y8400114D01*
Y8403318D01*
X15088943D01*
Y8406522D01*
Y8409726D01*
X15085741D01*
Y8412931D01*
X15082536D01*
Y8416135D01*
X15079332D01*
Y8419339D01*
X15076128D01*
Y8422543D01*
X15072923D01*
Y8425747D01*
X15063310D01*
Y8428951D01*
X15037679D01*
Y8425747D01*
X15031268D01*
Y8422543D01*
X15028065D01*
Y8419339D01*
X15024861D01*
Y8416135D01*
X15021657D01*
Y8412931D01*
X15018452D01*
Y8409726D01*
Y8406522D01*
X15015250D01*
Y8403318D01*
Y8400114D01*
Y8396910D01*
X15012044D01*
Y8393706D01*
Y8390501D01*
X15005637D01*
Y8393706D01*
Y8396910D01*
Y8400114D01*
Y8403318D01*
Y8406522D01*
Y8409726D01*
Y8412931D01*
Y8416135D01*
Y8419339D01*
Y8422543D01*
Y8425747D01*
Y8428951D01*
X15008839D01*
Y8432156D01*
X15018452D01*
Y8435360D01*
X15031268D01*
Y8438564D01*
X15069719D01*
Y8435360D01*
D02*
G37*
G36*
X14531421Y8432156D02*
X14528217D01*
Y8428951D01*
X14518604D01*
Y8425747D01*
X14515401D01*
Y8422543D01*
X14508992D01*
Y8419339D01*
Y8416135D01*
Y8412931D01*
Y8409726D01*
Y8406522D01*
Y8403318D01*
X14505788D01*
Y8400114D01*
Y8396910D01*
Y8393706D01*
Y8390501D01*
Y8387297D01*
Y8384093D01*
Y8380889D01*
Y8377685D01*
Y8374481D01*
Y8371277D01*
Y8368072D01*
Y8364868D01*
Y8361664D01*
Y8358460D01*
Y8355256D01*
Y8352052D01*
Y8348847D01*
Y8345643D01*
Y8342439D01*
Y8339235D01*
X14508992D01*
Y8336031D01*
Y8332827D01*
Y8329622D01*
Y8326418D01*
Y8323214D01*
X14512196D01*
Y8320010D01*
Y8316806D01*
X14518604D01*
Y8313602D01*
X14528217D01*
Y8310398D01*
X14531421D01*
Y8307193D01*
X14454521D01*
Y8310398D01*
Y8313602D01*
X14467339D01*
Y8316806D01*
X14476950D01*
Y8320010D01*
X14480154D01*
Y8323214D01*
Y8326418D01*
Y8329622D01*
X14483359D01*
Y8332827D01*
Y8336031D01*
Y8339235D01*
Y8342439D01*
Y8345643D01*
Y8348847D01*
Y8352052D01*
Y8355256D01*
Y8358460D01*
Y8361664D01*
Y8364868D01*
X14470541D01*
Y8361664D01*
X14467339D01*
Y8358460D01*
X14464134D01*
Y8355256D01*
X14460928D01*
Y8352052D01*
Y8348847D01*
X14457726D01*
Y8345643D01*
Y8342439D01*
X14454521D01*
Y8339235D01*
X14451317D01*
Y8336031D01*
Y8332827D01*
X14448112D01*
Y8329622D01*
X14444910D01*
Y8326418D01*
Y8323214D01*
X14441704D01*
Y8320010D01*
X14438499D01*
Y8316806D01*
X14435297D01*
Y8313602D01*
X14432092D01*
Y8310398D01*
X14425684D01*
Y8307193D01*
X14406459D01*
Y8303989D01*
X14384030D01*
Y8307193D01*
Y8310398D01*
X14390437D01*
Y8313602D01*
X14396846D01*
Y8316806D01*
X14400050D01*
Y8320010D01*
X14406459D01*
Y8323214D01*
X14409663D01*
Y8326418D01*
X14412868D01*
Y8329622D01*
X14416071D01*
Y8332827D01*
X14419275D01*
Y8336031D01*
X14422479D01*
Y8339235D01*
X14425684D01*
Y8342439D01*
Y8345643D01*
X14428888D01*
Y8348847D01*
X14432092D01*
Y8352052D01*
Y8355256D01*
X14435297D01*
Y8358460D01*
X14438499D01*
Y8361664D01*
Y8364868D01*
X14441704D01*
Y8368072D01*
Y8371277D01*
X14444910D01*
Y8374481D01*
X14438499D01*
Y8377685D01*
X14435297D01*
Y8380889D01*
X14432092D01*
Y8384093D01*
X14428888D01*
Y8387297D01*
X14425684D01*
Y8390501D01*
X14422479D01*
Y8393706D01*
Y8396910D01*
Y8400114D01*
Y8403318D01*
Y8406522D01*
Y8409726D01*
Y8412931D01*
Y8416135D01*
X14425684D01*
Y8419339D01*
Y8422543D01*
X14428888D01*
Y8425747D01*
X14432092D01*
Y8428951D01*
X14438499D01*
Y8432156D01*
X14448112D01*
Y8435360D01*
X14531421D01*
Y8432156D01*
D02*
G37*
G36*
X14297517Y8448176D02*
Y8444972D01*
Y8441768D01*
Y8438564D01*
X14300722D01*
Y8435360D01*
X14303926D01*
Y8432156D01*
X14310333D01*
Y8428951D01*
Y8425747D01*
Y8422543D01*
Y8419339D01*
X14313538D01*
Y8416135D01*
Y8412931D01*
X14316742D01*
Y8409726D01*
Y8406522D01*
Y8403318D01*
X14319946D01*
Y8400114D01*
Y8396910D01*
X14323151D01*
Y8393706D01*
Y8390501D01*
Y8387297D01*
X14326355D01*
Y8384093D01*
Y8380889D01*
Y8377685D01*
X14329559D01*
Y8374481D01*
Y8371277D01*
X14332764D01*
Y8368072D01*
Y8364868D01*
Y8361664D01*
X14335966D01*
Y8358460D01*
Y8355256D01*
X14339171D01*
Y8352052D01*
Y8348847D01*
Y8345643D01*
X14342377D01*
Y8342439D01*
Y8339235D01*
X14345580D01*
Y8336031D01*
Y8332827D01*
X14348784D01*
Y8329622D01*
Y8326418D01*
X14351988D01*
Y8323214D01*
Y8320010D01*
X14355193D01*
Y8316806D01*
X14361601D01*
Y8313602D01*
X14368008D01*
Y8310398D01*
Y8307193D01*
X14310333D01*
Y8310398D01*
X14313538D01*
Y8313602D01*
X14326355D01*
Y8316806D01*
X14329559D01*
Y8320010D01*
X14332764D01*
Y8323214D01*
Y8326418D01*
Y8329622D01*
Y8332827D01*
Y8336031D01*
X14329559D01*
Y8339235D01*
Y8342439D01*
Y8345643D01*
X14326355D01*
Y8348847D01*
Y8352052D01*
Y8355256D01*
X14323151D01*
Y8358460D01*
X14287904D01*
Y8355256D01*
X14284702D01*
Y8352052D01*
X14281497D01*
Y8348847D01*
Y8345643D01*
Y8342439D01*
X14278293D01*
Y8339235D01*
Y8336031D01*
Y8332827D01*
X14275089D01*
Y8329622D01*
Y8326418D01*
Y8323214D01*
Y8320010D01*
Y8316806D01*
X14278293D01*
Y8313602D01*
X14287904D01*
Y8310398D01*
Y8307193D01*
X14227026D01*
Y8310398D01*
Y8313602D01*
X14233434D01*
Y8316806D01*
X14239842D01*
Y8320010D01*
X14243047D01*
Y8323214D01*
Y8326418D01*
X14246251D01*
Y8329622D01*
X14249455D01*
Y8332827D01*
Y8336031D01*
X14252660D01*
Y8339235D01*
Y8342439D01*
Y8345643D01*
X14255862D01*
Y8348847D01*
Y8352052D01*
Y8355256D01*
X14259067D01*
Y8358460D01*
Y8361664D01*
Y8364868D01*
X14262273D01*
Y8368072D01*
Y8371277D01*
X14265475D01*
Y8374481D01*
Y8377685D01*
Y8380889D01*
X14268680D01*
Y8384093D01*
Y8387297D01*
Y8390501D01*
X14271884D01*
Y8393706D01*
Y8396910D01*
X14275089D01*
Y8400114D01*
Y8403318D01*
Y8406522D01*
X14278293D01*
Y8409726D01*
Y8412931D01*
Y8416135D01*
X14281497D01*
Y8419339D01*
Y8422543D01*
X14284702D01*
Y8425747D01*
Y8428951D01*
Y8432156D01*
X14287904D01*
Y8435360D01*
Y8438564D01*
Y8441768D01*
X14291109D01*
Y8444972D01*
Y8448176D01*
X14294313D01*
Y8451380D01*
X14297517D01*
Y8448176D01*
D02*
G37*
G36*
X14561047Y7481062D02*
Y7479039D01*
Y7477017D01*
Y7474994D01*
Y7472971D01*
Y7470948D01*
Y7468926D01*
Y7466903D01*
Y7464880D01*
Y7462858D01*
Y7460835D01*
Y7458812D01*
Y7456790D01*
Y7454767D01*
Y7452744D01*
Y7450721D01*
Y7448699D01*
Y7446676D01*
Y7444653D01*
Y7442631D01*
Y7440608D01*
Y7438585D01*
Y7436562D01*
Y7434540D01*
Y7432517D01*
Y7430494D01*
Y7428472D01*
Y7426449D01*
Y7424426D01*
Y7422403D01*
Y7420381D01*
Y7418358D01*
Y7416335D01*
Y7414313D01*
Y7412290D01*
Y7410267D01*
Y7408245D01*
Y7406222D01*
Y7404199D01*
Y7402176D01*
Y7400154D01*
Y7398131D01*
Y7396108D01*
Y7394086D01*
X14550934D01*
Y7396108D01*
Y7398131D01*
Y7400154D01*
Y7402176D01*
Y7404199D01*
Y7406222D01*
Y7408245D01*
Y7410267D01*
Y7412290D01*
Y7414313D01*
Y7416335D01*
Y7418358D01*
Y7420381D01*
Y7422403D01*
Y7424426D01*
Y7426449D01*
Y7428472D01*
Y7430494D01*
Y7432517D01*
Y7434540D01*
Y7436562D01*
Y7438585D01*
Y7440608D01*
Y7442631D01*
Y7444653D01*
Y7446676D01*
Y7448699D01*
Y7450721D01*
Y7452744D01*
Y7454767D01*
X14548911D01*
Y7452744D01*
Y7450721D01*
Y7448699D01*
X14546889D01*
Y7446676D01*
Y7444653D01*
Y7442631D01*
Y7440608D01*
X14544865D01*
Y7438585D01*
Y7436562D01*
Y7434540D01*
Y7432517D01*
X14542844D01*
Y7430494D01*
Y7428472D01*
Y7426449D01*
X14540820D01*
Y7424426D01*
Y7422403D01*
Y7420381D01*
Y7418358D01*
X14538797D01*
Y7416335D01*
Y7414313D01*
Y7412290D01*
Y7410267D01*
X14536775D01*
Y7408245D01*
Y7406222D01*
Y7404199D01*
Y7402176D01*
X14534752D01*
Y7400154D01*
Y7398131D01*
Y7396108D01*
Y7394086D01*
X14522617D01*
Y7396108D01*
X14520593D01*
Y7398131D01*
Y7400154D01*
Y7402176D01*
Y7404199D01*
X14518570D01*
Y7406222D01*
Y7408245D01*
Y7410267D01*
Y7412290D01*
X14516548D01*
Y7414313D01*
Y7416335D01*
Y7418358D01*
Y7420381D01*
X14514525D01*
Y7422403D01*
Y7424426D01*
Y7426449D01*
Y7428472D01*
X14512502D01*
Y7430494D01*
Y7432517D01*
Y7434540D01*
Y7436562D01*
X14510480D01*
Y7438585D01*
Y7440608D01*
Y7442631D01*
Y7444653D01*
X14508456D01*
Y7446676D01*
Y7448699D01*
Y7450721D01*
Y7452744D01*
X14506435D01*
Y7450721D01*
Y7448699D01*
Y7446676D01*
Y7444653D01*
Y7442631D01*
Y7440608D01*
Y7438585D01*
Y7436562D01*
Y7434540D01*
Y7432517D01*
Y7430494D01*
Y7428472D01*
Y7426449D01*
Y7424426D01*
Y7422403D01*
Y7420381D01*
Y7418358D01*
Y7416335D01*
Y7414313D01*
Y7412290D01*
Y7410267D01*
Y7408245D01*
Y7406222D01*
Y7404199D01*
Y7402176D01*
Y7400154D01*
Y7398131D01*
Y7396108D01*
Y7394086D01*
X14496321D01*
Y7396108D01*
Y7398131D01*
Y7400154D01*
Y7402176D01*
Y7404199D01*
Y7406222D01*
Y7408245D01*
Y7410267D01*
Y7412290D01*
Y7414313D01*
Y7416335D01*
Y7418358D01*
Y7420381D01*
Y7422403D01*
Y7424426D01*
Y7426449D01*
Y7428472D01*
Y7430494D01*
Y7432517D01*
Y7434540D01*
Y7436562D01*
Y7438585D01*
Y7440608D01*
Y7442631D01*
Y7444653D01*
Y7446676D01*
Y7448699D01*
Y7450721D01*
Y7452744D01*
Y7454767D01*
Y7456790D01*
Y7458812D01*
Y7460835D01*
Y7462858D01*
Y7464880D01*
Y7466903D01*
Y7468926D01*
Y7470948D01*
Y7472971D01*
Y7474994D01*
Y7477017D01*
Y7479039D01*
Y7481062D01*
Y7483085D01*
X14510480D01*
Y7481062D01*
Y7479039D01*
X14512502D01*
Y7477017D01*
Y7474994D01*
Y7472971D01*
Y7470948D01*
X14514525D01*
Y7468926D01*
Y7466903D01*
Y7464880D01*
Y7462858D01*
X14516548D01*
Y7460835D01*
Y7458812D01*
Y7456790D01*
Y7454767D01*
X14518570D01*
Y7452744D01*
Y7450721D01*
Y7448699D01*
Y7446676D01*
X14520593D01*
Y7444653D01*
Y7442631D01*
Y7440608D01*
Y7438585D01*
X14522617D01*
Y7436562D01*
Y7434540D01*
Y7432517D01*
Y7430494D01*
X14524638D01*
Y7428472D01*
Y7426449D01*
Y7424426D01*
Y7422403D01*
X14526662D01*
Y7420381D01*
Y7418358D01*
Y7416335D01*
X14528683D01*
Y7418358D01*
Y7420381D01*
X14530707D01*
Y7422403D01*
Y7424426D01*
Y7426449D01*
Y7428472D01*
X14532729D01*
Y7430494D01*
Y7432517D01*
Y7434540D01*
Y7436562D01*
X14534752D01*
Y7438585D01*
Y7440608D01*
Y7442631D01*
Y7444653D01*
X14536775D01*
Y7446676D01*
Y7448699D01*
Y7450721D01*
Y7452744D01*
X14538797D01*
Y7454767D01*
Y7456790D01*
Y7458812D01*
X14540820D01*
Y7460835D01*
Y7462858D01*
Y7464880D01*
Y7466903D01*
X14542844D01*
Y7468926D01*
Y7470948D01*
Y7472971D01*
Y7474994D01*
X14544865D01*
Y7477017D01*
Y7479039D01*
Y7481062D01*
Y7483085D01*
X14561047D01*
Y7481062D01*
D02*
G37*
G36*
X14995929Y7462858D02*
X14993907D01*
Y7460835D01*
Y7458812D01*
Y7456790D01*
X14991884D01*
Y7454767D01*
Y7452744D01*
X14989861D01*
Y7450721D01*
Y7448699D01*
Y7446676D01*
X14987839D01*
Y7444653D01*
Y7442631D01*
X14985815D01*
Y7440608D01*
Y7438585D01*
Y7436562D01*
X14983794D01*
Y7434540D01*
Y7432517D01*
Y7430494D01*
X14981770D01*
Y7428472D01*
Y7426449D01*
X14979749D01*
Y7424426D01*
Y7422403D01*
Y7420381D01*
X14977725D01*
Y7418358D01*
Y7416335D01*
Y7414313D01*
X14975702D01*
Y7412290D01*
Y7410267D01*
X14973679D01*
Y7408245D01*
Y7406222D01*
Y7404199D01*
X14971657D01*
Y7402176D01*
Y7400154D01*
X14969633D01*
Y7398131D01*
Y7396108D01*
Y7394086D01*
Y7392063D01*
Y7390040D01*
X14971657D01*
Y7388017D01*
Y7385995D01*
Y7383972D01*
X14973679D01*
Y7381949D01*
Y7379927D01*
Y7377904D01*
X14975702D01*
Y7375881D01*
Y7373859D01*
Y7371836D01*
X14977725D01*
Y7369813D01*
Y7367790D01*
X14979749D01*
Y7365768D01*
Y7363745D01*
X14967612D01*
Y7365768D01*
Y7367790D01*
X14965588D01*
Y7369813D01*
Y7371836D01*
Y7373859D01*
X14963567D01*
Y7375881D01*
Y7377904D01*
Y7379927D01*
X14961543D01*
Y7381949D01*
Y7383972D01*
X14959521D01*
Y7385995D01*
Y7388017D01*
Y7390040D01*
X14957498D01*
Y7392063D01*
Y7394086D01*
Y7396108D01*
X14955475D01*
Y7398131D01*
Y7400154D01*
Y7402176D01*
X14953452D01*
Y7404199D01*
Y7406222D01*
Y7408245D01*
X14951430D01*
Y7410267D01*
Y7412290D01*
Y7414313D01*
X14949406D01*
Y7416335D01*
Y7418358D01*
X14947385D01*
Y7420381D01*
Y7422403D01*
Y7424426D01*
X14945361D01*
Y7426449D01*
Y7428472D01*
Y7430494D01*
X14943340D01*
Y7432517D01*
Y7434540D01*
Y7436562D01*
X14941316D01*
Y7438585D01*
Y7440608D01*
Y7442631D01*
X14939293D01*
Y7444653D01*
Y7446676D01*
Y7448699D01*
X14937271D01*
Y7450721D01*
Y7452744D01*
X14935248D01*
Y7454767D01*
Y7456790D01*
Y7458812D01*
X14933224D01*
Y7460835D01*
Y7462858D01*
Y7464880D01*
X14943340D01*
Y7462858D01*
Y7460835D01*
Y7458812D01*
X14945361D01*
Y7456790D01*
Y7454767D01*
Y7452744D01*
X14947385D01*
Y7450721D01*
Y7448699D01*
X14949406D01*
Y7446676D01*
Y7444653D01*
Y7442631D01*
X14951430D01*
Y7440608D01*
Y7438585D01*
Y7436562D01*
X14953452D01*
Y7434540D01*
Y7432517D01*
Y7430494D01*
X14955475D01*
Y7428472D01*
Y7426449D01*
Y7424426D01*
X14957498D01*
Y7422403D01*
Y7420381D01*
Y7418358D01*
X14959521D01*
Y7416335D01*
Y7414313D01*
Y7412290D01*
X14961543D01*
Y7414313D01*
Y7416335D01*
X14963567D01*
Y7418358D01*
Y7420381D01*
X14965588D01*
Y7422403D01*
Y7424426D01*
Y7426449D01*
X14967612D01*
Y7428472D01*
Y7430494D01*
Y7432517D01*
X14969633D01*
Y7434540D01*
Y7436562D01*
Y7438585D01*
X14971657D01*
Y7440608D01*
Y7442631D01*
X14973679D01*
Y7444653D01*
Y7446676D01*
Y7448699D01*
X14975702D01*
Y7450721D01*
Y7452744D01*
Y7454767D01*
X14977725D01*
Y7456790D01*
Y7458812D01*
Y7460835D01*
X14979749D01*
Y7462858D01*
Y7464880D01*
X14995929D01*
Y7462858D01*
D02*
G37*
G36*
X15054588Y7481062D02*
Y7479039D01*
Y7477017D01*
Y7474994D01*
Y7472971D01*
Y7470948D01*
Y7468926D01*
Y7466903D01*
Y7464880D01*
Y7462858D01*
Y7460835D01*
Y7458812D01*
Y7456790D01*
Y7454767D01*
Y7452744D01*
Y7450721D01*
Y7448699D01*
Y7446676D01*
Y7444653D01*
Y7442631D01*
Y7440608D01*
Y7438585D01*
Y7436562D01*
Y7434540D01*
Y7432517D01*
Y7430494D01*
Y7428472D01*
Y7426449D01*
Y7424426D01*
Y7422403D01*
Y7420381D01*
Y7418358D01*
Y7416335D01*
Y7414313D01*
Y7412290D01*
Y7410267D01*
Y7408245D01*
Y7406222D01*
Y7404199D01*
Y7402176D01*
Y7400154D01*
Y7398131D01*
Y7396108D01*
Y7394086D01*
X15010088D01*
Y7396108D01*
X15006042D01*
Y7398131D01*
X15004021D01*
Y7400154D01*
X15001997D01*
Y7402176D01*
Y7404199D01*
Y7406222D01*
X14999976D01*
Y7408245D01*
Y7410267D01*
Y7412290D01*
Y7414313D01*
Y7416335D01*
Y7418358D01*
Y7420381D01*
Y7422403D01*
Y7424426D01*
Y7426449D01*
Y7428472D01*
Y7430494D01*
Y7432517D01*
Y7434540D01*
Y7436562D01*
Y7438585D01*
Y7440608D01*
Y7442631D01*
Y7444653D01*
Y7446676D01*
Y7448699D01*
Y7450721D01*
Y7452744D01*
X15001997D01*
Y7454767D01*
Y7456790D01*
Y7458812D01*
X15004021D01*
Y7460835D01*
X15006042D01*
Y7462858D01*
X15010088D01*
Y7464880D01*
X15034361D01*
Y7462858D01*
Y7460835D01*
Y7458812D01*
Y7456790D01*
X15018179D01*
Y7454767D01*
X15016156D01*
Y7452744D01*
X15014134D01*
Y7450721D01*
Y7448699D01*
Y7446676D01*
Y7444653D01*
Y7442631D01*
Y7440608D01*
Y7438585D01*
Y7436562D01*
Y7434540D01*
Y7432517D01*
Y7430494D01*
Y7428472D01*
Y7426449D01*
Y7424426D01*
Y7422403D01*
Y7420381D01*
Y7418358D01*
Y7416335D01*
Y7414313D01*
Y7412290D01*
Y7410267D01*
Y7408245D01*
Y7406222D01*
X15016156D01*
Y7404199D01*
X15018179D01*
Y7402176D01*
X15040430D01*
Y7404199D01*
Y7406222D01*
Y7408245D01*
Y7410267D01*
Y7412290D01*
Y7414313D01*
Y7416335D01*
Y7418358D01*
Y7420381D01*
Y7422403D01*
Y7424426D01*
Y7426449D01*
Y7428472D01*
Y7430494D01*
Y7432517D01*
Y7434540D01*
Y7436562D01*
Y7438585D01*
Y7440608D01*
Y7442631D01*
Y7444653D01*
Y7446676D01*
Y7448699D01*
Y7450721D01*
Y7452744D01*
Y7454767D01*
Y7456790D01*
Y7458812D01*
Y7460835D01*
Y7462858D01*
Y7464880D01*
Y7466903D01*
Y7468926D01*
Y7470948D01*
Y7472971D01*
Y7474994D01*
Y7477017D01*
Y7479039D01*
Y7481062D01*
Y7483085D01*
X15054588D01*
Y7481062D01*
D02*
G37*
G36*
X14781522Y7462858D02*
Y7460835D01*
Y7458812D01*
Y7456790D01*
Y7454767D01*
Y7452744D01*
Y7450721D01*
Y7448699D01*
Y7446676D01*
Y7444653D01*
Y7442631D01*
Y7440608D01*
Y7438585D01*
Y7436562D01*
Y7434540D01*
Y7432517D01*
Y7430494D01*
Y7428472D01*
Y7426449D01*
Y7424426D01*
Y7422403D01*
Y7420381D01*
Y7418358D01*
Y7416335D01*
Y7414313D01*
Y7412290D01*
Y7410267D01*
Y7408245D01*
Y7406222D01*
Y7404199D01*
X14779500D01*
Y7402176D01*
Y7400154D01*
X14777477D01*
Y7398131D01*
X14775455D01*
Y7396108D01*
X14771410D01*
Y7394086D01*
X14726909D01*
Y7396108D01*
Y7398131D01*
Y7400154D01*
Y7402176D01*
Y7404199D01*
Y7406222D01*
Y7408245D01*
Y7410267D01*
Y7412290D01*
Y7414313D01*
Y7416335D01*
Y7418358D01*
Y7420381D01*
Y7422403D01*
Y7424426D01*
Y7426449D01*
Y7428472D01*
Y7430494D01*
Y7432517D01*
Y7434540D01*
Y7436562D01*
Y7438585D01*
Y7440608D01*
Y7442631D01*
Y7444653D01*
Y7446676D01*
Y7448699D01*
Y7450721D01*
Y7452744D01*
Y7454767D01*
Y7456790D01*
Y7458812D01*
Y7460835D01*
Y7462858D01*
Y7464880D01*
X14741068D01*
Y7462858D01*
Y7460835D01*
Y7458812D01*
Y7456790D01*
Y7454767D01*
Y7452744D01*
Y7450721D01*
Y7448699D01*
Y7446676D01*
Y7444653D01*
Y7442631D01*
Y7440608D01*
Y7438585D01*
Y7436562D01*
Y7434540D01*
Y7432517D01*
Y7430494D01*
Y7428472D01*
Y7426449D01*
Y7424426D01*
Y7422403D01*
Y7420381D01*
Y7418358D01*
Y7416335D01*
Y7414313D01*
Y7412290D01*
Y7410267D01*
Y7408245D01*
Y7406222D01*
Y7404199D01*
Y7402176D01*
X14763318D01*
Y7404199D01*
X14765341D01*
Y7406222D01*
X14767363D01*
Y7408245D01*
Y7410267D01*
Y7412290D01*
Y7414313D01*
X14769386D01*
Y7416335D01*
Y7418358D01*
Y7420381D01*
Y7422403D01*
Y7424426D01*
Y7426449D01*
Y7428472D01*
Y7430494D01*
Y7432517D01*
Y7434540D01*
Y7436562D01*
Y7438585D01*
Y7440608D01*
Y7442631D01*
Y7444653D01*
Y7446676D01*
Y7448699D01*
Y7450721D01*
Y7452744D01*
Y7454767D01*
Y7456790D01*
Y7458812D01*
Y7460835D01*
Y7462858D01*
Y7464880D01*
X14781522D01*
Y7462858D01*
D02*
G37*
G36*
X14358775D02*
Y7460835D01*
Y7458812D01*
Y7456790D01*
Y7454767D01*
Y7452744D01*
Y7450721D01*
Y7448699D01*
Y7446676D01*
Y7444653D01*
Y7442631D01*
Y7440608D01*
Y7438585D01*
Y7436562D01*
Y7434540D01*
Y7432517D01*
Y7430494D01*
Y7428472D01*
Y7426449D01*
Y7424426D01*
Y7422403D01*
Y7420381D01*
Y7418358D01*
Y7416335D01*
Y7414313D01*
Y7412290D01*
Y7410267D01*
Y7408245D01*
Y7406222D01*
Y7404199D01*
X14356754D01*
Y7402176D01*
Y7400154D01*
X14354732D01*
Y7398131D01*
X14352708D01*
Y7396108D01*
X14348663D01*
Y7394086D01*
X14304163D01*
Y7396108D01*
Y7398131D01*
Y7400154D01*
Y7402176D01*
Y7404199D01*
Y7406222D01*
Y7408245D01*
Y7410267D01*
Y7412290D01*
Y7414313D01*
Y7416335D01*
Y7418358D01*
Y7420381D01*
Y7422403D01*
Y7424426D01*
Y7426449D01*
Y7428472D01*
Y7430494D01*
Y7432517D01*
Y7434540D01*
Y7436562D01*
Y7438585D01*
Y7440608D01*
Y7442631D01*
Y7444653D01*
Y7446676D01*
Y7448699D01*
Y7450721D01*
Y7452744D01*
Y7454767D01*
Y7456790D01*
Y7458812D01*
Y7460835D01*
Y7462858D01*
Y7464880D01*
X14318323D01*
Y7462858D01*
Y7460835D01*
Y7458812D01*
Y7456790D01*
Y7454767D01*
Y7452744D01*
Y7450721D01*
Y7448699D01*
Y7446676D01*
Y7444653D01*
Y7442631D01*
Y7440608D01*
Y7438585D01*
Y7436562D01*
Y7434540D01*
Y7432517D01*
Y7430494D01*
Y7428472D01*
Y7426449D01*
Y7424426D01*
Y7422403D01*
Y7420381D01*
Y7418358D01*
Y7416335D01*
Y7414313D01*
Y7412290D01*
Y7410267D01*
Y7408245D01*
Y7406222D01*
Y7404199D01*
Y7402176D01*
X14340572D01*
Y7404199D01*
X14342595D01*
Y7406222D01*
X14344617D01*
Y7408245D01*
Y7410267D01*
Y7412290D01*
Y7414313D01*
X14346640D01*
Y7416335D01*
Y7418358D01*
Y7420381D01*
Y7422403D01*
Y7424426D01*
Y7426449D01*
Y7428472D01*
Y7430494D01*
Y7432517D01*
Y7434540D01*
Y7436562D01*
Y7438585D01*
Y7440608D01*
Y7442631D01*
Y7444653D01*
Y7446676D01*
Y7448699D01*
Y7450721D01*
Y7452744D01*
Y7454767D01*
Y7456790D01*
Y7458812D01*
Y7460835D01*
Y7462858D01*
Y7464880D01*
X14358775D01*
Y7462858D01*
D02*
G37*
G36*
X15501373Y7481062D02*
Y7479039D01*
Y7477017D01*
Y7474994D01*
Y7472971D01*
Y7470948D01*
Y7468926D01*
Y7466903D01*
Y7464880D01*
Y7462858D01*
Y7460835D01*
Y7458812D01*
Y7456790D01*
Y7454767D01*
Y7452744D01*
Y7450721D01*
Y7448699D01*
Y7446676D01*
Y7444653D01*
Y7442631D01*
Y7440608D01*
Y7438585D01*
Y7436562D01*
Y7434540D01*
Y7432517D01*
Y7430494D01*
Y7428472D01*
Y7426449D01*
Y7424426D01*
Y7422403D01*
Y7420381D01*
Y7418358D01*
Y7416335D01*
Y7414313D01*
Y7412290D01*
Y7410267D01*
Y7408245D01*
Y7406222D01*
Y7404199D01*
Y7402176D01*
Y7400154D01*
Y7398131D01*
Y7396108D01*
Y7394086D01*
X15440926D01*
Y7396108D01*
Y7398131D01*
Y7400154D01*
Y7402176D01*
X15450806D01*
Y7404199D01*
Y7406222D01*
X15448784D01*
Y7408245D01*
Y7410267D01*
Y7412290D01*
Y7414313D01*
Y7416335D01*
Y7418358D01*
Y7420381D01*
Y7422403D01*
Y7424426D01*
X15444971D01*
Y7426449D01*
X15442947D01*
Y7428472D01*
X15440926D01*
Y7430494D01*
X15438902D01*
Y7432517D01*
Y7434540D01*
Y7436562D01*
X15436880D01*
Y7438585D01*
Y7440608D01*
Y7442631D01*
Y7444653D01*
Y7446676D01*
Y7448699D01*
Y7450721D01*
Y7452744D01*
X15438902D01*
Y7454767D01*
Y7456790D01*
Y7458812D01*
X15440926D01*
Y7460835D01*
X15442947D01*
Y7462858D01*
X15444971D01*
Y7464880D01*
X15448784D01*
Y7466903D01*
Y7468926D01*
Y7470948D01*
X15450806D01*
Y7472971D01*
Y7474994D01*
X15452829D01*
Y7477017D01*
Y7479039D01*
X15454852D01*
Y7481062D01*
X15458897D01*
Y7483085D01*
X15501373D01*
Y7481062D01*
D02*
G37*
G36*
X15418675Y7462858D02*
X15420699D01*
Y7460835D01*
X15422720D01*
Y7458812D01*
X15424744D01*
Y7456790D01*
Y7454767D01*
Y7452744D01*
X15426765D01*
Y7450721D01*
Y7448699D01*
Y7446676D01*
Y7444653D01*
Y7442631D01*
Y7440608D01*
Y7438585D01*
X15424744D01*
Y7436562D01*
Y7434540D01*
Y7432517D01*
X15422720D01*
Y7430494D01*
Y7428472D01*
X15420699D01*
Y7426449D01*
X15418675D01*
Y7424426D01*
X15390356D01*
Y7422403D01*
X15388335D01*
Y7420381D01*
Y7418358D01*
X15386311D01*
Y7416335D01*
Y7414313D01*
Y7412290D01*
Y7410267D01*
Y7408245D01*
X15388335D01*
Y7406222D01*
Y7404199D01*
X15390356D01*
Y7402176D01*
X15420699D01*
Y7400154D01*
Y7398131D01*
Y7396108D01*
Y7394086D01*
X15382268D01*
Y7396108D01*
X15380244D01*
Y7398131D01*
X15378221D01*
Y7400154D01*
Y7402176D01*
X15376199D01*
Y7404199D01*
Y7406222D01*
Y7408245D01*
Y7410267D01*
Y7412290D01*
X15374176D01*
Y7414313D01*
X15376199D01*
Y7416335D01*
Y7418358D01*
Y7420381D01*
Y7422403D01*
Y7424426D01*
Y7426449D01*
X15378221D01*
Y7428472D01*
Y7430494D01*
X15380244D01*
Y7432517D01*
X15382268D01*
Y7434540D01*
X15410585D01*
Y7436562D01*
X15412607D01*
Y7438585D01*
X15414630D01*
Y7440608D01*
Y7442631D01*
Y7444653D01*
Y7446676D01*
Y7448699D01*
Y7450721D01*
Y7452744D01*
X15412607D01*
Y7454767D01*
Y7456790D01*
X15384290D01*
Y7458812D01*
Y7460835D01*
Y7462858D01*
Y7464880D01*
X15418675D01*
Y7462858D01*
D02*
G37*
G36*
X15368108D02*
Y7460835D01*
Y7458812D01*
Y7456790D01*
Y7454767D01*
Y7452744D01*
Y7450721D01*
Y7448699D01*
Y7446676D01*
Y7444653D01*
Y7442631D01*
Y7440608D01*
Y7438585D01*
Y7436562D01*
Y7434540D01*
Y7432517D01*
Y7430494D01*
Y7428472D01*
Y7426449D01*
Y7424426D01*
Y7422403D01*
Y7420381D01*
Y7418358D01*
Y7416335D01*
Y7414313D01*
Y7412290D01*
Y7410267D01*
Y7408245D01*
Y7406222D01*
Y7404199D01*
Y7402176D01*
Y7400154D01*
Y7398131D01*
Y7396108D01*
Y7394086D01*
X15353949D01*
Y7396108D01*
Y7398131D01*
Y7400154D01*
Y7402176D01*
Y7404199D01*
Y7406222D01*
Y7408245D01*
Y7410267D01*
Y7412290D01*
Y7414313D01*
Y7416335D01*
Y7418358D01*
Y7420381D01*
Y7422403D01*
Y7424426D01*
Y7426449D01*
Y7428472D01*
Y7430494D01*
Y7432517D01*
Y7434540D01*
Y7436562D01*
Y7438585D01*
Y7440608D01*
Y7442631D01*
Y7444653D01*
Y7446676D01*
Y7448699D01*
Y7450721D01*
Y7452744D01*
Y7454767D01*
Y7456790D01*
Y7458812D01*
Y7460835D01*
Y7462858D01*
Y7464880D01*
X15368108D01*
Y7462858D01*
D02*
G37*
G36*
X15331699D02*
X15335744D01*
Y7460835D01*
X15337767D01*
Y7458812D01*
X15339790D01*
Y7456790D01*
Y7454767D01*
Y7452744D01*
Y7450721D01*
X15341812D01*
Y7448699D01*
Y7446676D01*
Y7444653D01*
Y7442631D01*
Y7440608D01*
Y7438585D01*
Y7436562D01*
Y7434540D01*
Y7432517D01*
Y7430494D01*
Y7428472D01*
Y7426449D01*
Y7424426D01*
Y7422403D01*
Y7420381D01*
Y7418358D01*
Y7416335D01*
Y7414313D01*
Y7412290D01*
Y7410267D01*
Y7408245D01*
Y7406222D01*
X15339790D01*
Y7404199D01*
Y7402176D01*
Y7400154D01*
X15337767D01*
Y7398131D01*
X15335744D01*
Y7396108D01*
X15331699D01*
Y7394086D01*
X15307426D01*
Y7396108D01*
Y7398131D01*
Y7400154D01*
Y7402176D01*
X15323608D01*
Y7404199D01*
X15325632D01*
Y7406222D01*
X15327654D01*
Y7408245D01*
Y7410267D01*
Y7412290D01*
Y7414313D01*
Y7416335D01*
Y7418358D01*
Y7420381D01*
Y7422403D01*
Y7424426D01*
Y7426449D01*
Y7428472D01*
Y7430494D01*
Y7432517D01*
Y7434540D01*
Y7436562D01*
Y7438585D01*
Y7440608D01*
Y7442631D01*
Y7444653D01*
Y7446676D01*
Y7448699D01*
Y7450721D01*
Y7452744D01*
X15325632D01*
Y7454767D01*
X15321585D01*
Y7456790D01*
X15299336D01*
Y7454767D01*
Y7452744D01*
Y7450721D01*
Y7448699D01*
Y7446676D01*
Y7444653D01*
Y7442631D01*
Y7440608D01*
Y7438585D01*
Y7436562D01*
Y7434540D01*
Y7432517D01*
Y7430494D01*
Y7428472D01*
Y7426449D01*
Y7424426D01*
Y7422403D01*
Y7420381D01*
Y7418358D01*
Y7416335D01*
Y7414313D01*
Y7412290D01*
Y7410267D01*
Y7408245D01*
Y7406222D01*
Y7404199D01*
Y7402176D01*
Y7400154D01*
Y7398131D01*
Y7396108D01*
Y7394086D01*
Y7392063D01*
Y7390040D01*
Y7388017D01*
Y7385995D01*
Y7383972D01*
Y7381949D01*
X15301358D01*
Y7379927D01*
Y7377904D01*
Y7375881D01*
X15303381D01*
Y7373859D01*
X15305405D01*
Y7371836D01*
X15323608D01*
Y7369813D01*
Y7367790D01*
Y7365768D01*
Y7363745D01*
X15297313D01*
Y7365768D01*
X15293266D01*
Y7367790D01*
X15291245D01*
Y7369813D01*
X15289223D01*
Y7371836D01*
Y7373859D01*
X15287199D01*
Y7375881D01*
Y7377904D01*
Y7379927D01*
Y7381949D01*
Y7383972D01*
Y7385995D01*
Y7388017D01*
Y7390040D01*
Y7392063D01*
Y7394086D01*
Y7396108D01*
Y7398131D01*
Y7400154D01*
Y7402176D01*
Y7404199D01*
Y7406222D01*
Y7408245D01*
Y7410267D01*
Y7412290D01*
Y7414313D01*
Y7416335D01*
Y7418358D01*
Y7420381D01*
Y7422403D01*
Y7424426D01*
Y7426449D01*
Y7428472D01*
Y7430494D01*
Y7432517D01*
Y7434540D01*
Y7436562D01*
Y7438585D01*
Y7440608D01*
Y7442631D01*
Y7444653D01*
Y7446676D01*
Y7448699D01*
Y7450721D01*
Y7452744D01*
Y7454767D01*
Y7456790D01*
Y7458812D01*
Y7460835D01*
Y7462858D01*
Y7464880D01*
X15331699D01*
Y7462858D01*
D02*
G37*
G36*
X15277086D02*
Y7460835D01*
Y7458812D01*
Y7456790D01*
Y7454767D01*
Y7452744D01*
Y7450721D01*
Y7448699D01*
Y7446676D01*
Y7444653D01*
Y7442631D01*
Y7440608D01*
Y7438585D01*
Y7436562D01*
Y7434540D01*
Y7432517D01*
Y7430494D01*
Y7428472D01*
Y7426449D01*
Y7424426D01*
Y7422403D01*
Y7420381D01*
Y7418358D01*
Y7416335D01*
Y7414313D01*
Y7412290D01*
Y7410267D01*
Y7408245D01*
Y7406222D01*
Y7404199D01*
Y7402176D01*
Y7400154D01*
Y7398131D01*
Y7396108D01*
Y7394086D01*
X15262927D01*
Y7396108D01*
Y7398131D01*
Y7400154D01*
Y7402176D01*
Y7404199D01*
Y7406222D01*
Y7408245D01*
Y7410267D01*
Y7412290D01*
Y7414313D01*
Y7416335D01*
Y7418358D01*
Y7420381D01*
Y7422403D01*
Y7424426D01*
Y7426449D01*
Y7428472D01*
Y7430494D01*
Y7432517D01*
Y7434540D01*
Y7436562D01*
Y7438585D01*
Y7440608D01*
Y7442631D01*
Y7444653D01*
Y7446676D01*
Y7448699D01*
Y7450721D01*
Y7452744D01*
Y7454767D01*
Y7456790D01*
X15238654D01*
Y7454767D01*
X15236632D01*
Y7452744D01*
Y7450721D01*
Y7448699D01*
X15234608D01*
Y7446676D01*
Y7444653D01*
Y7442631D01*
Y7440608D01*
Y7438585D01*
Y7436562D01*
Y7434540D01*
Y7432517D01*
Y7430494D01*
Y7428472D01*
Y7426449D01*
Y7424426D01*
Y7422403D01*
Y7420381D01*
Y7418358D01*
Y7416335D01*
Y7414313D01*
Y7412290D01*
Y7410267D01*
Y7408245D01*
Y7406222D01*
Y7404199D01*
Y7402176D01*
Y7400154D01*
Y7398131D01*
Y7396108D01*
Y7394086D01*
X15222473D01*
Y7396108D01*
Y7398131D01*
Y7400154D01*
Y7402176D01*
Y7404199D01*
Y7406222D01*
Y7408245D01*
Y7410267D01*
Y7412290D01*
Y7414313D01*
Y7416335D01*
Y7418358D01*
Y7420381D01*
Y7422403D01*
Y7424426D01*
Y7426449D01*
Y7428472D01*
Y7430494D01*
Y7432517D01*
Y7434540D01*
Y7436562D01*
Y7438585D01*
Y7440608D01*
Y7442631D01*
Y7444653D01*
Y7446676D01*
Y7448699D01*
Y7450721D01*
Y7452744D01*
Y7454767D01*
Y7456790D01*
X15224495D01*
Y7458812D01*
Y7460835D01*
X15226518D01*
Y7462858D01*
X15230563D01*
Y7464880D01*
X15277086D01*
Y7462858D01*
D02*
G37*
G36*
X15204268D02*
X15208315D01*
Y7460835D01*
X15210336D01*
Y7458812D01*
X15212360D01*
Y7456790D01*
Y7454767D01*
Y7452744D01*
X15214381D01*
Y7450721D01*
Y7448699D01*
Y7446676D01*
Y7444653D01*
Y7442631D01*
Y7440608D01*
Y7438585D01*
Y7436562D01*
Y7434540D01*
Y7432517D01*
Y7430494D01*
Y7428472D01*
Y7426449D01*
Y7424426D01*
Y7422403D01*
Y7420381D01*
Y7418358D01*
Y7416335D01*
Y7414313D01*
Y7412290D01*
Y7410267D01*
Y7408245D01*
Y7406222D01*
X15212360D01*
Y7404199D01*
Y7402176D01*
Y7400154D01*
X15210336D01*
Y7398131D01*
X15208315D01*
Y7396108D01*
X15204268D01*
Y7394086D01*
X15165837D01*
Y7396108D01*
Y7398131D01*
Y7400154D01*
Y7402176D01*
X15196178D01*
Y7404199D01*
X15198199D01*
Y7406222D01*
X15200223D01*
Y7408245D01*
Y7410267D01*
Y7412290D01*
Y7414313D01*
Y7416335D01*
Y7418358D01*
Y7420381D01*
Y7422403D01*
Y7424426D01*
Y7426449D01*
Y7428472D01*
Y7430494D01*
Y7432517D01*
Y7434540D01*
Y7436562D01*
Y7438585D01*
Y7440608D01*
Y7442631D01*
Y7444653D01*
Y7446676D01*
Y7448699D01*
Y7450721D01*
Y7452744D01*
X15198199D01*
Y7454767D01*
X15196178D01*
Y7456790D01*
X15175951D01*
Y7454767D01*
Y7452744D01*
X15173927D01*
Y7450721D01*
Y7448699D01*
Y7446676D01*
Y7444653D01*
Y7442631D01*
Y7440608D01*
Y7438585D01*
X15175951D01*
Y7436562D01*
Y7434540D01*
X15177972D01*
Y7432517D01*
X15192133D01*
Y7430494D01*
Y7428472D01*
Y7426449D01*
Y7424426D01*
X15169882D01*
Y7426449D01*
X15167860D01*
Y7428472D01*
X15165837D01*
Y7430494D01*
X15163814D01*
Y7432517D01*
Y7434540D01*
Y7436562D01*
X15161790D01*
Y7438585D01*
Y7440608D01*
Y7442631D01*
Y7444653D01*
Y7446676D01*
Y7448699D01*
Y7450721D01*
Y7452744D01*
X15163814D01*
Y7454767D01*
Y7456790D01*
Y7458812D01*
X15165837D01*
Y7460835D01*
X15167860D01*
Y7462858D01*
X15169882D01*
Y7464880D01*
X15204268D01*
Y7462858D01*
D02*
G37*
G36*
X15111224Y7481062D02*
Y7479039D01*
Y7477017D01*
Y7474994D01*
Y7472971D01*
Y7470948D01*
Y7468926D01*
Y7466903D01*
Y7464880D01*
Y7462858D01*
Y7460835D01*
Y7458812D01*
Y7456790D01*
Y7454767D01*
Y7452744D01*
Y7450721D01*
Y7448699D01*
Y7446676D01*
Y7444653D01*
Y7442631D01*
Y7440608D01*
Y7438585D01*
Y7436562D01*
Y7434540D01*
Y7432517D01*
Y7430494D01*
Y7428472D01*
Y7426449D01*
Y7424426D01*
Y7422403D01*
Y7420381D01*
Y7418358D01*
Y7416335D01*
Y7414313D01*
Y7412290D01*
Y7410267D01*
Y7408245D01*
Y7406222D01*
Y7404199D01*
Y7402176D01*
X15131451D01*
Y7404199D01*
X15133473D01*
Y7406222D01*
X15135497D01*
Y7408245D01*
X15137518D01*
Y7410267D01*
Y7412290D01*
Y7414313D01*
Y7416335D01*
Y7418358D01*
Y7420381D01*
Y7422403D01*
Y7424426D01*
Y7426449D01*
Y7428472D01*
Y7430494D01*
Y7432517D01*
Y7434540D01*
Y7436562D01*
Y7438585D01*
Y7440608D01*
Y7442631D01*
Y7444653D01*
Y7446676D01*
Y7448699D01*
Y7450721D01*
Y7452744D01*
X15135497D01*
Y7454767D01*
X15133473D01*
Y7456790D01*
X15119315D01*
Y7458812D01*
Y7460835D01*
Y7462858D01*
Y7464880D01*
X15141563D01*
Y7462858D01*
X15145610D01*
Y7460835D01*
X15147632D01*
Y7458812D01*
Y7456790D01*
X15149655D01*
Y7454767D01*
Y7452744D01*
Y7450721D01*
X15151678D01*
Y7448699D01*
Y7446676D01*
Y7444653D01*
Y7442631D01*
Y7440608D01*
Y7438585D01*
Y7436562D01*
Y7434540D01*
Y7432517D01*
Y7430494D01*
Y7428472D01*
Y7426449D01*
Y7424426D01*
Y7422403D01*
Y7420381D01*
Y7418358D01*
Y7416335D01*
Y7414313D01*
Y7412290D01*
Y7410267D01*
Y7408245D01*
X15149655D01*
Y7406222D01*
Y7404199D01*
Y7402176D01*
X15147632D01*
Y7400154D01*
Y7398131D01*
X15145610D01*
Y7396108D01*
X15141563D01*
Y7394086D01*
X15099088D01*
Y7396108D01*
Y7398131D01*
Y7400154D01*
Y7402176D01*
Y7404199D01*
Y7406222D01*
Y7408245D01*
Y7410267D01*
Y7412290D01*
Y7414313D01*
Y7416335D01*
Y7418358D01*
Y7420381D01*
Y7422403D01*
Y7424426D01*
Y7426449D01*
Y7428472D01*
Y7430494D01*
Y7432517D01*
Y7434540D01*
Y7436562D01*
Y7438585D01*
Y7440608D01*
Y7442631D01*
Y7444653D01*
Y7446676D01*
Y7448699D01*
Y7450721D01*
Y7452744D01*
Y7454767D01*
Y7456790D01*
Y7458812D01*
Y7460835D01*
Y7462858D01*
Y7464880D01*
Y7466903D01*
Y7468926D01*
Y7470948D01*
Y7472971D01*
Y7474994D01*
Y7477017D01*
Y7479039D01*
Y7481062D01*
Y7483085D01*
X15111224D01*
Y7481062D01*
D02*
G37*
G36*
X14813885D02*
Y7479039D01*
Y7477017D01*
Y7474994D01*
X14803772D01*
Y7472971D01*
Y7470948D01*
Y7468926D01*
Y7466903D01*
Y7464880D01*
Y7462858D01*
Y7460835D01*
Y7458812D01*
Y7456790D01*
Y7454767D01*
Y7452744D01*
Y7450721D01*
Y7448699D01*
Y7446676D01*
Y7444653D01*
Y7442631D01*
Y7440608D01*
Y7438585D01*
Y7436562D01*
Y7434540D01*
Y7432517D01*
Y7430494D01*
Y7428472D01*
Y7426449D01*
Y7424426D01*
Y7422403D01*
Y7420381D01*
Y7418358D01*
Y7416335D01*
Y7414313D01*
Y7412290D01*
X14805795D01*
Y7410267D01*
Y7408245D01*
Y7406222D01*
X14807817D01*
Y7404199D01*
X14809840D01*
Y7402176D01*
X14838158D01*
Y7400154D01*
Y7398131D01*
Y7396108D01*
Y7394086D01*
X14801749D01*
Y7396108D01*
X14799727D01*
Y7398131D01*
X14797704D01*
Y7400154D01*
X14795682D01*
Y7402176D01*
X14793658D01*
Y7404199D01*
Y7406222D01*
Y7408245D01*
X14791637D01*
Y7410267D01*
Y7412290D01*
Y7414313D01*
Y7416335D01*
Y7418358D01*
Y7420381D01*
Y7422403D01*
Y7424426D01*
Y7426449D01*
Y7428472D01*
Y7430494D01*
Y7432517D01*
Y7434540D01*
Y7436562D01*
Y7438585D01*
Y7440608D01*
Y7442631D01*
Y7444653D01*
Y7446676D01*
Y7448699D01*
Y7450721D01*
Y7452744D01*
Y7454767D01*
Y7456790D01*
Y7458812D01*
Y7460835D01*
Y7462858D01*
Y7464880D01*
Y7466903D01*
Y7468926D01*
Y7470948D01*
Y7472971D01*
Y7474994D01*
Y7477017D01*
Y7479039D01*
Y7481062D01*
Y7483085D01*
X14813885D01*
Y7481062D01*
D02*
G37*
G36*
X14706682Y7462858D02*
Y7460835D01*
Y7458812D01*
Y7456790D01*
X14684431D01*
Y7454767D01*
X14682410D01*
Y7452744D01*
X14680386D01*
Y7450721D01*
Y7448699D01*
Y7446676D01*
Y7444653D01*
Y7442631D01*
Y7440608D01*
Y7438585D01*
Y7436562D01*
Y7434540D01*
Y7432517D01*
Y7430494D01*
Y7428472D01*
Y7426449D01*
Y7424426D01*
Y7422403D01*
Y7420381D01*
Y7418358D01*
Y7416335D01*
Y7414313D01*
Y7412290D01*
Y7410267D01*
Y7408245D01*
Y7406222D01*
Y7404199D01*
Y7402176D01*
X14702637D01*
Y7404199D01*
X14704659D01*
Y7406222D01*
Y7408245D01*
Y7410267D01*
Y7412290D01*
X14706682D01*
Y7414313D01*
Y7416335D01*
Y7418358D01*
Y7420381D01*
X14704659D01*
Y7422403D01*
Y7424426D01*
Y7426449D01*
X14702637D01*
Y7428472D01*
X14686455D01*
Y7430494D01*
Y7432517D01*
Y7434540D01*
Y7436562D01*
X14708705D01*
Y7434540D01*
X14712750D01*
Y7432517D01*
X14714774D01*
Y7430494D01*
Y7428472D01*
X14716795D01*
Y7426449D01*
Y7424426D01*
Y7422403D01*
X14718819D01*
Y7420381D01*
Y7418358D01*
Y7416335D01*
Y7414313D01*
Y7412290D01*
Y7410267D01*
Y7408245D01*
X14716795D01*
Y7406222D01*
Y7404199D01*
Y7402176D01*
X14714774D01*
Y7400154D01*
Y7398131D01*
X14712750D01*
Y7396108D01*
X14708705D01*
Y7394086D01*
X14666228D01*
Y7396108D01*
Y7398131D01*
Y7400154D01*
Y7402176D01*
Y7404199D01*
Y7406222D01*
Y7408245D01*
Y7410267D01*
Y7412290D01*
Y7414313D01*
Y7416335D01*
Y7418358D01*
Y7420381D01*
Y7422403D01*
Y7424426D01*
Y7426449D01*
Y7428472D01*
Y7430494D01*
Y7432517D01*
Y7434540D01*
Y7436562D01*
Y7438585D01*
Y7440608D01*
Y7442631D01*
Y7444653D01*
Y7446676D01*
Y7448699D01*
X14668251D01*
Y7450721D01*
Y7452744D01*
Y7454767D01*
Y7456790D01*
Y7458812D01*
X14670273D01*
Y7460835D01*
X14672296D01*
Y7462858D01*
X14676341D01*
Y7464880D01*
X14706682D01*
Y7462858D01*
D02*
G37*
G36*
X14658138D02*
Y7460835D01*
Y7458812D01*
Y7456790D01*
Y7454767D01*
Y7452744D01*
Y7450721D01*
Y7448699D01*
Y7446676D01*
Y7444653D01*
Y7442631D01*
Y7440608D01*
Y7438585D01*
Y7436562D01*
Y7434540D01*
Y7432517D01*
Y7430494D01*
Y7428472D01*
Y7426449D01*
Y7424426D01*
Y7422403D01*
Y7420381D01*
Y7418358D01*
Y7416335D01*
Y7414313D01*
Y7412290D01*
Y7410267D01*
Y7408245D01*
Y7406222D01*
Y7404199D01*
Y7402176D01*
Y7400154D01*
Y7398131D01*
Y7396108D01*
Y7394086D01*
X14643977D01*
Y7396108D01*
Y7398131D01*
Y7400154D01*
Y7402176D01*
Y7404199D01*
Y7406222D01*
Y7408245D01*
Y7410267D01*
Y7412290D01*
Y7414313D01*
Y7416335D01*
Y7418358D01*
Y7420381D01*
Y7422403D01*
Y7424426D01*
Y7426449D01*
Y7428472D01*
Y7430494D01*
Y7432517D01*
Y7434540D01*
Y7436562D01*
Y7438585D01*
Y7440608D01*
Y7442631D01*
Y7444653D01*
Y7446676D01*
Y7448699D01*
Y7450721D01*
Y7452744D01*
Y7454767D01*
Y7456790D01*
X14619707D01*
Y7454767D01*
X14617683D01*
Y7452744D01*
Y7450721D01*
Y7448699D01*
X14615660D01*
Y7446676D01*
Y7444653D01*
Y7442631D01*
Y7440608D01*
Y7438585D01*
Y7436562D01*
Y7434540D01*
Y7432517D01*
Y7430494D01*
Y7428472D01*
Y7426449D01*
Y7424426D01*
Y7422403D01*
Y7420381D01*
Y7418358D01*
Y7416335D01*
Y7414313D01*
Y7412290D01*
Y7410267D01*
Y7408245D01*
Y7406222D01*
Y7404199D01*
Y7402176D01*
Y7400154D01*
Y7398131D01*
Y7396108D01*
Y7394086D01*
X14603523D01*
Y7396108D01*
Y7398131D01*
Y7400154D01*
Y7402176D01*
Y7404199D01*
Y7406222D01*
Y7408245D01*
Y7410267D01*
Y7412290D01*
Y7414313D01*
Y7416335D01*
Y7418358D01*
Y7420381D01*
Y7422403D01*
Y7424426D01*
Y7426449D01*
Y7428472D01*
Y7430494D01*
Y7432517D01*
Y7434540D01*
Y7436562D01*
Y7438585D01*
Y7440608D01*
Y7442631D01*
Y7444653D01*
Y7446676D01*
Y7448699D01*
Y7450721D01*
Y7452744D01*
Y7454767D01*
Y7456790D01*
X14605547D01*
Y7458812D01*
Y7460835D01*
X14607568D01*
Y7462858D01*
X14611615D01*
Y7464880D01*
X14658138D01*
Y7462858D01*
D02*
G37*
G36*
X14482162D02*
Y7460835D01*
Y7458812D01*
Y7456790D01*
Y7454767D01*
Y7452744D01*
Y7450721D01*
Y7448699D01*
Y7446676D01*
Y7444653D01*
Y7442631D01*
Y7440608D01*
Y7438585D01*
Y7436562D01*
Y7434540D01*
Y7432517D01*
Y7430494D01*
Y7428472D01*
Y7426449D01*
Y7424426D01*
Y7422403D01*
Y7420381D01*
Y7418358D01*
Y7416335D01*
Y7414313D01*
Y7412290D01*
Y7410267D01*
Y7408245D01*
Y7406222D01*
Y7404199D01*
Y7402176D01*
Y7400154D01*
Y7398131D01*
Y7396108D01*
Y7394086D01*
X14468002D01*
Y7396108D01*
Y7398131D01*
Y7400154D01*
Y7402176D01*
Y7404199D01*
Y7406222D01*
Y7408245D01*
Y7410267D01*
Y7412290D01*
Y7414313D01*
Y7416335D01*
Y7418358D01*
Y7420381D01*
Y7422403D01*
Y7424426D01*
Y7426449D01*
Y7428472D01*
Y7430494D01*
Y7432517D01*
Y7434540D01*
Y7436562D01*
Y7438585D01*
Y7440608D01*
Y7442631D01*
Y7444653D01*
Y7446676D01*
Y7448699D01*
Y7450721D01*
Y7452744D01*
Y7454767D01*
Y7456790D01*
Y7458812D01*
Y7460835D01*
Y7462858D01*
Y7464880D01*
X14482162D01*
Y7462858D01*
D02*
G37*
G36*
X14443730D02*
X14449799D01*
Y7460835D01*
X14451820D01*
Y7458812D01*
X14453844D01*
Y7456790D01*
X14455865D01*
Y7454767D01*
Y7452744D01*
X14457889D01*
Y7450721D01*
Y7448699D01*
Y7446676D01*
Y7444653D01*
Y7442631D01*
Y7440608D01*
Y7438585D01*
Y7436562D01*
Y7434540D01*
Y7432517D01*
Y7430494D01*
Y7428472D01*
Y7426449D01*
Y7424426D01*
Y7422403D01*
Y7420381D01*
Y7418358D01*
Y7416335D01*
Y7414313D01*
Y7412290D01*
Y7410267D01*
Y7408245D01*
Y7406222D01*
Y7404199D01*
Y7402176D01*
Y7400154D01*
Y7398131D01*
Y7396108D01*
Y7394086D01*
X14445753D01*
Y7396108D01*
Y7398131D01*
Y7400154D01*
Y7402176D01*
Y7404199D01*
Y7406222D01*
Y7408245D01*
Y7410267D01*
Y7412290D01*
Y7414313D01*
Y7416335D01*
Y7418358D01*
Y7420381D01*
Y7422403D01*
Y7424426D01*
Y7426449D01*
Y7428472D01*
Y7430494D01*
Y7432517D01*
Y7434540D01*
Y7436562D01*
Y7438585D01*
Y7440608D01*
Y7442631D01*
Y7444653D01*
X14443730D01*
Y7446676D01*
Y7448699D01*
Y7450721D01*
Y7452744D01*
Y7454767D01*
X14439685D01*
Y7456790D01*
X14425526D01*
Y7458812D01*
Y7460835D01*
Y7462858D01*
Y7464880D01*
X14443730D01*
Y7462858D01*
D02*
G37*
G36*
X14409344D02*
X14413390D01*
Y7460835D01*
X14415411D01*
Y7458812D01*
X14417435D01*
Y7456790D01*
Y7454767D01*
Y7452744D01*
X14419458D01*
Y7450721D01*
Y7448699D01*
Y7446676D01*
Y7444653D01*
Y7442631D01*
Y7440608D01*
Y7438585D01*
Y7436562D01*
Y7434540D01*
Y7432517D01*
Y7430494D01*
Y7428472D01*
Y7426449D01*
Y7424426D01*
Y7422403D01*
Y7420381D01*
Y7418358D01*
Y7416335D01*
Y7414313D01*
Y7412290D01*
Y7410267D01*
Y7408245D01*
Y7406222D01*
X14417435D01*
Y7404199D01*
Y7402176D01*
Y7400154D01*
X14415411D01*
Y7398131D01*
X14413390D01*
Y7396108D01*
X14409344D01*
Y7394086D01*
X14385072D01*
Y7396108D01*
Y7398131D01*
Y7400154D01*
Y7402176D01*
X14401253D01*
Y7404199D01*
X14403276D01*
Y7406222D01*
X14405299D01*
Y7408245D01*
Y7410267D01*
Y7412290D01*
Y7414313D01*
Y7416335D01*
Y7418358D01*
Y7420381D01*
Y7422403D01*
Y7424426D01*
Y7426449D01*
Y7428472D01*
Y7430494D01*
Y7432517D01*
Y7434540D01*
Y7436562D01*
Y7438585D01*
Y7440608D01*
Y7442631D01*
Y7444653D01*
Y7446676D01*
Y7448699D01*
Y7450721D01*
Y7452744D01*
X14403276D01*
Y7454767D01*
X14399231D01*
Y7456790D01*
X14379002D01*
Y7454767D01*
Y7452744D01*
Y7450721D01*
Y7448699D01*
Y7446676D01*
Y7444653D01*
Y7442631D01*
Y7440608D01*
Y7438585D01*
Y7436562D01*
Y7434540D01*
Y7432517D01*
Y7430494D01*
Y7428472D01*
Y7426449D01*
Y7424426D01*
Y7422403D01*
Y7420381D01*
Y7418358D01*
Y7416335D01*
Y7414313D01*
Y7412290D01*
Y7410267D01*
Y7408245D01*
Y7406222D01*
Y7404199D01*
Y7402176D01*
Y7400154D01*
Y7398131D01*
Y7396108D01*
Y7394086D01*
Y7392063D01*
Y7390040D01*
Y7388017D01*
Y7385995D01*
Y7383972D01*
Y7381949D01*
Y7379927D01*
Y7377904D01*
Y7375881D01*
Y7373859D01*
Y7371836D01*
Y7369813D01*
Y7367790D01*
Y7365768D01*
Y7363745D01*
X14364844D01*
Y7365768D01*
Y7367790D01*
Y7369813D01*
Y7371836D01*
Y7373859D01*
Y7375881D01*
Y7377904D01*
Y7379927D01*
Y7381949D01*
Y7383972D01*
Y7385995D01*
Y7388017D01*
Y7390040D01*
Y7392063D01*
Y7394086D01*
Y7396108D01*
Y7398131D01*
Y7400154D01*
Y7402176D01*
Y7404199D01*
Y7406222D01*
Y7408245D01*
Y7410267D01*
Y7412290D01*
Y7414313D01*
Y7416335D01*
Y7418358D01*
Y7420381D01*
Y7422403D01*
Y7424426D01*
Y7426449D01*
Y7428472D01*
Y7430494D01*
Y7432517D01*
Y7434540D01*
Y7436562D01*
Y7438585D01*
Y7440608D01*
Y7442631D01*
Y7444653D01*
Y7446676D01*
Y7448699D01*
Y7450721D01*
Y7452744D01*
Y7454767D01*
Y7456790D01*
Y7458812D01*
Y7460835D01*
Y7462858D01*
Y7464880D01*
X14409344D01*
Y7462858D01*
D02*
G37*
G36*
X14283936D02*
X14287982D01*
Y7460835D01*
X14290004D01*
Y7458812D01*
X14292027D01*
Y7456790D01*
Y7454767D01*
Y7452744D01*
X14294051D01*
Y7450721D01*
Y7448699D01*
Y7446676D01*
Y7444653D01*
Y7442631D01*
Y7440608D01*
Y7438585D01*
Y7436562D01*
Y7434540D01*
Y7432517D01*
Y7430494D01*
Y7428472D01*
Y7426449D01*
Y7424426D01*
Y7422403D01*
Y7420381D01*
Y7418358D01*
Y7416335D01*
Y7414313D01*
Y7412290D01*
Y7410267D01*
Y7408245D01*
Y7406222D01*
X14292027D01*
Y7404199D01*
Y7402176D01*
Y7400154D01*
X14290004D01*
Y7398131D01*
X14287982D01*
Y7396108D01*
X14283936D01*
Y7394086D01*
X14245505D01*
Y7396108D01*
Y7398131D01*
Y7400154D01*
Y7402176D01*
X14275845D01*
Y7404199D01*
X14277869D01*
Y7406222D01*
X14279890D01*
Y7408245D01*
Y7410267D01*
Y7412290D01*
Y7414313D01*
Y7416335D01*
Y7418358D01*
Y7420381D01*
Y7422403D01*
Y7424426D01*
Y7426449D01*
Y7428472D01*
Y7430494D01*
Y7432517D01*
Y7434540D01*
Y7436562D01*
Y7438585D01*
Y7440608D01*
Y7442631D01*
Y7444653D01*
Y7446676D01*
Y7448699D01*
Y7450721D01*
Y7452744D01*
X14277869D01*
Y7454767D01*
X14275845D01*
Y7456790D01*
X14255618D01*
Y7454767D01*
Y7452744D01*
X14253596D01*
Y7450721D01*
Y7448699D01*
Y7446676D01*
Y7444653D01*
Y7442631D01*
Y7440608D01*
Y7438585D01*
X14255618D01*
Y7436562D01*
Y7434540D01*
X14257642D01*
Y7432517D01*
X14271800D01*
Y7430494D01*
Y7428472D01*
Y7426449D01*
Y7424426D01*
X14249550D01*
Y7426449D01*
X14247528D01*
Y7428472D01*
X14245505D01*
Y7430494D01*
X14243481D01*
Y7432517D01*
Y7434540D01*
Y7436562D01*
X14241460D01*
Y7438585D01*
Y7440608D01*
Y7442631D01*
Y7444653D01*
Y7446676D01*
Y7448699D01*
Y7450721D01*
Y7452744D01*
X14243481D01*
Y7454767D01*
Y7456790D01*
Y7458812D01*
X14245505D01*
Y7460835D01*
X14247528D01*
Y7462858D01*
X14249550D01*
Y7464880D01*
X14283936D01*
Y7462858D01*
D02*
G37*
G36*
X14190892D02*
Y7460835D01*
Y7458812D01*
Y7456790D01*
X14168642D01*
Y7454767D01*
X14166618D01*
Y7452744D01*
X14164597D01*
Y7450721D01*
Y7448699D01*
Y7446676D01*
Y7444653D01*
Y7442631D01*
Y7440608D01*
Y7438585D01*
Y7436562D01*
Y7434540D01*
Y7432517D01*
Y7430494D01*
Y7428472D01*
Y7426449D01*
Y7424426D01*
Y7422403D01*
Y7420381D01*
Y7418358D01*
Y7416335D01*
Y7414313D01*
Y7412290D01*
Y7410267D01*
Y7408245D01*
Y7406222D01*
Y7404199D01*
Y7402176D01*
X14186845D01*
Y7404199D01*
X14188869D01*
Y7406222D01*
Y7408245D01*
Y7410267D01*
Y7412290D01*
X14190892D01*
Y7414313D01*
Y7416335D01*
Y7418358D01*
Y7420381D01*
X14188869D01*
Y7422403D01*
Y7424426D01*
Y7426449D01*
X14186845D01*
Y7428472D01*
X14170665D01*
Y7430494D01*
Y7432517D01*
Y7434540D01*
Y7436562D01*
X14192914D01*
Y7434540D01*
X14196960D01*
Y7432517D01*
X14198982D01*
Y7430494D01*
Y7428472D01*
X14201006D01*
Y7426449D01*
Y7424426D01*
Y7422403D01*
X14203027D01*
Y7420381D01*
Y7418358D01*
Y7416335D01*
Y7414313D01*
Y7412290D01*
Y7410267D01*
Y7408245D01*
X14201006D01*
Y7406222D01*
Y7404199D01*
Y7402176D01*
X14198982D01*
Y7400154D01*
Y7398131D01*
X14196960D01*
Y7396108D01*
X14192914D01*
Y7394086D01*
X14150438D01*
Y7396108D01*
Y7398131D01*
Y7400154D01*
Y7402176D01*
Y7404199D01*
Y7406222D01*
Y7408245D01*
Y7410267D01*
Y7412290D01*
Y7414313D01*
Y7416335D01*
Y7418358D01*
Y7420381D01*
Y7422403D01*
Y7424426D01*
Y7426449D01*
Y7428472D01*
Y7430494D01*
Y7432517D01*
Y7434540D01*
Y7436562D01*
Y7438585D01*
Y7440608D01*
Y7442631D01*
Y7444653D01*
Y7446676D01*
Y7448699D01*
X14152460D01*
Y7450721D01*
Y7452744D01*
Y7454767D01*
Y7456790D01*
Y7458812D01*
X14154483D01*
Y7460835D01*
X14156505D01*
Y7462858D01*
X14160551D01*
Y7464880D01*
X14190892D01*
Y7462858D01*
D02*
G37*
G36*
X14142348D02*
Y7460835D01*
Y7458812D01*
Y7456790D01*
Y7454767D01*
Y7452744D01*
Y7450721D01*
Y7448699D01*
Y7446676D01*
Y7444653D01*
Y7442631D01*
Y7440608D01*
Y7438585D01*
Y7436562D01*
Y7434540D01*
Y7432517D01*
Y7430494D01*
Y7428472D01*
Y7426449D01*
Y7424426D01*
Y7422403D01*
Y7420381D01*
Y7418358D01*
Y7416335D01*
Y7414313D01*
Y7412290D01*
Y7410267D01*
Y7408245D01*
Y7406222D01*
Y7404199D01*
Y7402176D01*
Y7400154D01*
Y7398131D01*
Y7396108D01*
Y7394086D01*
X14128188D01*
Y7396108D01*
Y7398131D01*
Y7400154D01*
Y7402176D01*
Y7404199D01*
Y7406222D01*
Y7408245D01*
Y7410267D01*
Y7412290D01*
Y7414313D01*
Y7416335D01*
Y7418358D01*
Y7420381D01*
Y7422403D01*
Y7424426D01*
Y7426449D01*
Y7428472D01*
Y7430494D01*
Y7432517D01*
Y7434540D01*
Y7436562D01*
Y7438585D01*
Y7440608D01*
Y7442631D01*
Y7444653D01*
Y7446676D01*
Y7448699D01*
Y7450721D01*
Y7452744D01*
Y7454767D01*
Y7456790D01*
X14103915D01*
Y7454767D01*
X14101892D01*
Y7452744D01*
Y7450721D01*
Y7448699D01*
X14099870D01*
Y7446676D01*
Y7444653D01*
Y7442631D01*
Y7440608D01*
Y7438585D01*
Y7436562D01*
Y7434540D01*
Y7432517D01*
Y7430494D01*
Y7428472D01*
Y7426449D01*
Y7424426D01*
Y7422403D01*
Y7420381D01*
Y7418358D01*
Y7416335D01*
Y7414313D01*
Y7412290D01*
Y7410267D01*
Y7408245D01*
Y7406222D01*
Y7404199D01*
Y7402176D01*
Y7400154D01*
Y7398131D01*
Y7396108D01*
Y7394086D01*
X14087733D01*
Y7396108D01*
Y7398131D01*
Y7400154D01*
Y7402176D01*
Y7404199D01*
Y7406222D01*
Y7408245D01*
Y7410267D01*
Y7412290D01*
Y7414313D01*
Y7416335D01*
Y7418358D01*
Y7420381D01*
Y7422403D01*
Y7424426D01*
Y7426449D01*
Y7428472D01*
Y7430494D01*
Y7432517D01*
Y7434540D01*
Y7436562D01*
Y7438585D01*
Y7440608D01*
Y7442631D01*
Y7444653D01*
Y7446676D01*
Y7448699D01*
Y7450721D01*
Y7452744D01*
Y7454767D01*
Y7456790D01*
X14089755D01*
Y7458812D01*
Y7460835D01*
X14091779D01*
Y7462858D01*
X14095824D01*
Y7464880D01*
X14142348D01*
Y7462858D01*
D02*
G37*
G36*
X14039189Y7481062D02*
Y7479039D01*
Y7477017D01*
Y7474994D01*
Y7472971D01*
Y7470948D01*
Y7468926D01*
Y7466903D01*
Y7464880D01*
Y7462858D01*
Y7460835D01*
Y7458812D01*
Y7456790D01*
Y7454767D01*
Y7452744D01*
Y7450721D01*
Y7448699D01*
Y7446676D01*
Y7444653D01*
Y7442631D01*
Y7440608D01*
Y7438585D01*
Y7436562D01*
Y7434540D01*
Y7432517D01*
Y7430494D01*
Y7428472D01*
Y7426449D01*
Y7424426D01*
Y7422403D01*
Y7420381D01*
Y7418358D01*
Y7416335D01*
Y7414313D01*
Y7412290D01*
Y7410267D01*
Y7408245D01*
Y7406222D01*
Y7404199D01*
Y7402176D01*
X14059416D01*
Y7404199D01*
X14061438D01*
Y7406222D01*
X14063461D01*
Y7408245D01*
X14065485D01*
Y7410267D01*
Y7412290D01*
Y7414313D01*
Y7416335D01*
Y7418358D01*
Y7420381D01*
Y7422403D01*
Y7424426D01*
Y7426449D01*
Y7428472D01*
Y7430494D01*
Y7432517D01*
Y7434540D01*
Y7436562D01*
Y7438585D01*
Y7440608D01*
Y7442631D01*
Y7444653D01*
Y7446676D01*
Y7448699D01*
Y7450721D01*
Y7452744D01*
X14063461D01*
Y7454767D01*
X14061438D01*
Y7456790D01*
X14047279D01*
Y7458812D01*
Y7460835D01*
Y7462858D01*
Y7464880D01*
X14069530D01*
Y7462858D01*
X14073573D01*
Y7460835D01*
X14075597D01*
Y7458812D01*
Y7456790D01*
X14077620D01*
Y7454767D01*
Y7452744D01*
Y7450721D01*
X14079643D01*
Y7448699D01*
Y7446676D01*
Y7444653D01*
Y7442631D01*
Y7440608D01*
Y7438585D01*
Y7436562D01*
Y7434540D01*
Y7432517D01*
Y7430494D01*
Y7428472D01*
Y7426449D01*
Y7424426D01*
Y7422403D01*
Y7420381D01*
Y7418358D01*
Y7416335D01*
Y7414313D01*
Y7412290D01*
Y7410267D01*
Y7408245D01*
X14077620D01*
Y7406222D01*
Y7404199D01*
Y7402176D01*
X14075597D01*
Y7400154D01*
Y7398131D01*
X14073573D01*
Y7396108D01*
X14069530D01*
Y7394086D01*
X14027052D01*
Y7396108D01*
Y7398131D01*
Y7400154D01*
Y7402176D01*
Y7404199D01*
Y7406222D01*
Y7408245D01*
Y7410267D01*
Y7412290D01*
Y7414313D01*
Y7416335D01*
Y7418358D01*
Y7420381D01*
Y7422403D01*
Y7424426D01*
Y7426449D01*
Y7428472D01*
Y7430494D01*
Y7432517D01*
Y7434540D01*
Y7436562D01*
Y7438585D01*
Y7440608D01*
Y7442631D01*
Y7444653D01*
Y7446676D01*
Y7448699D01*
Y7450721D01*
Y7452744D01*
Y7454767D01*
Y7456790D01*
Y7458812D01*
Y7460835D01*
Y7462858D01*
Y7464880D01*
Y7466903D01*
Y7468926D01*
Y7470948D01*
Y7472971D01*
Y7474994D01*
Y7477017D01*
Y7479039D01*
Y7481062D01*
Y7483085D01*
X14039189D01*
Y7481062D01*
D02*
G37*
G36*
X14917044Y7404199D02*
X14919066D01*
Y7402176D01*
X14921089D01*
Y7400154D01*
Y7398131D01*
Y7396108D01*
Y7394086D01*
X14919066D01*
Y7392063D01*
X14917044D01*
Y7390040D01*
X14912997D01*
Y7392063D01*
X14910976D01*
Y7394086D01*
X14908952D01*
Y7396108D01*
Y7398131D01*
Y7400154D01*
Y7402176D01*
X14910976D01*
Y7404199D01*
X14912997D01*
Y7406222D01*
X14917044D01*
Y7404199D01*
D02*
G37*
G36*
X14735001Y7331382D02*
Y7329359D01*
Y7327336D01*
Y7325314D01*
Y7323291D01*
Y7321268D01*
X14720840D01*
Y7323291D01*
Y7325314D01*
Y7327336D01*
Y7329359D01*
Y7331382D01*
Y7333404D01*
X14735001D01*
Y7331382D01*
D02*
G37*
G36*
X14611615D02*
Y7329359D01*
Y7327336D01*
Y7325314D01*
Y7323291D01*
Y7321268D01*
X14597456D01*
Y7323291D01*
Y7325314D01*
Y7327336D01*
Y7329359D01*
Y7331382D01*
Y7333404D01*
X14611615D01*
Y7331382D01*
D02*
G37*
G36*
X14261687Y7313177D02*
Y7311155D01*
X14259663D01*
Y7309132D01*
Y7307109D01*
Y7305086D01*
X14257642D01*
Y7303064D01*
Y7301041D01*
Y7299018D01*
Y7296996D01*
X14255618D01*
Y7294973D01*
Y7292950D01*
Y7290928D01*
Y7288905D01*
X14253596D01*
Y7286882D01*
Y7284859D01*
Y7282837D01*
X14251573D01*
Y7280814D01*
Y7278791D01*
Y7276769D01*
Y7274746D01*
X14249550D01*
Y7272723D01*
Y7270700D01*
Y7268678D01*
Y7266655D01*
X14247528D01*
Y7264632D01*
Y7262610D01*
Y7260587D01*
X14245505D01*
Y7258564D01*
Y7256541D01*
Y7254519D01*
Y7252496D01*
X14243481D01*
Y7250473D01*
Y7248451D01*
Y7246428D01*
Y7244405D01*
X14223254D01*
Y7246428D01*
Y7248451D01*
X14221233D01*
Y7250473D01*
Y7252496D01*
Y7254519D01*
Y7256541D01*
X14219209D01*
Y7258564D01*
Y7260587D01*
Y7262610D01*
Y7264632D01*
X14217188D01*
Y7266655D01*
Y7268678D01*
Y7270700D01*
X14215164D01*
Y7272723D01*
Y7274746D01*
Y7276769D01*
Y7278791D01*
X14213141D01*
Y7280814D01*
Y7282837D01*
Y7284859D01*
Y7286882D01*
X14211119D01*
Y7288905D01*
Y7290928D01*
Y7292950D01*
X14209096D01*
Y7294973D01*
Y7296996D01*
Y7299018D01*
Y7301041D01*
X14207072D01*
Y7303064D01*
Y7305086D01*
Y7307109D01*
Y7309132D01*
X14205051D01*
Y7311155D01*
Y7313177D01*
Y7315200D01*
X14217188D01*
Y7313177D01*
X14219209D01*
Y7311155D01*
Y7309132D01*
Y7307109D01*
Y7305086D01*
X14221233D01*
Y7303064D01*
Y7301041D01*
Y7299018D01*
Y7296996D01*
X14223254D01*
Y7294973D01*
Y7292950D01*
Y7290928D01*
Y7288905D01*
X14225278D01*
Y7286882D01*
Y7284859D01*
Y7282837D01*
Y7280814D01*
Y7278791D01*
X14227299D01*
Y7276769D01*
Y7274746D01*
Y7272723D01*
Y7270700D01*
X14229323D01*
Y7268678D01*
Y7266655D01*
Y7264632D01*
Y7262610D01*
X14231346D01*
Y7260587D01*
Y7258564D01*
Y7256541D01*
Y7254519D01*
X14233368D01*
Y7256541D01*
Y7258564D01*
X14235391D01*
Y7260587D01*
Y7262610D01*
Y7264632D01*
Y7266655D01*
X14237415D01*
Y7268678D01*
Y7270700D01*
Y7272723D01*
Y7274746D01*
X14239436D01*
Y7276769D01*
Y7278791D01*
Y7280814D01*
Y7282837D01*
X14241460D01*
Y7284859D01*
Y7286882D01*
Y7288905D01*
Y7290928D01*
X14243481D01*
Y7292950D01*
Y7294973D01*
Y7296996D01*
Y7299018D01*
Y7301041D01*
X14245505D01*
Y7303064D01*
Y7305086D01*
Y7307109D01*
Y7309132D01*
X14247528D01*
Y7311155D01*
Y7313177D01*
Y7315200D01*
X14261687D01*
Y7313177D01*
D02*
G37*
G36*
X14819954Y7331382D02*
X14821976D01*
Y7329359D01*
X14823999D01*
Y7327336D01*
X14826022D01*
Y7325314D01*
Y7323291D01*
X14828046D01*
Y7321268D01*
Y7319245D01*
Y7317223D01*
X14830067D01*
Y7315200D01*
Y7313177D01*
Y7311155D01*
Y7309132D01*
Y7307109D01*
Y7305086D01*
Y7303064D01*
Y7301041D01*
Y7299018D01*
Y7296996D01*
Y7294973D01*
Y7292950D01*
Y7290928D01*
Y7288905D01*
Y7286882D01*
Y7284859D01*
Y7282837D01*
Y7280814D01*
Y7278791D01*
Y7276769D01*
Y7274746D01*
Y7272723D01*
Y7270700D01*
Y7268678D01*
Y7266655D01*
Y7264632D01*
Y7262610D01*
Y7260587D01*
Y7258564D01*
X14828046D01*
Y7256541D01*
Y7254519D01*
X14826022D01*
Y7252496D01*
Y7250473D01*
X14823999D01*
Y7248451D01*
X14821976D01*
Y7246428D01*
X14819954D01*
Y7244405D01*
X14783545D01*
Y7246428D01*
Y7248451D01*
Y7250473D01*
Y7252496D01*
X14811864D01*
Y7254519D01*
X14813885D01*
Y7256541D01*
X14815907D01*
Y7258564D01*
Y7260587D01*
Y7262610D01*
X14817931D01*
Y7264632D01*
Y7266655D01*
Y7268678D01*
Y7270700D01*
Y7272723D01*
Y7274746D01*
Y7276769D01*
Y7278791D01*
Y7280814D01*
Y7282837D01*
Y7284859D01*
Y7286882D01*
Y7288905D01*
Y7290928D01*
Y7292950D01*
Y7294973D01*
Y7296996D01*
Y7299018D01*
Y7301041D01*
Y7303064D01*
Y7305086D01*
Y7307109D01*
Y7309132D01*
Y7311155D01*
Y7313177D01*
Y7315200D01*
X14815907D01*
Y7317223D01*
Y7319245D01*
Y7321268D01*
X14813885D01*
Y7323291D01*
X14811864D01*
Y7325314D01*
X14783545D01*
Y7327336D01*
Y7329359D01*
Y7331382D01*
Y7333404D01*
X14819954D01*
Y7331382D01*
D02*
G37*
G36*
X14761295Y7313177D02*
X14767363D01*
Y7311155D01*
X14769386D01*
Y7309132D01*
X14771410D01*
Y7307109D01*
X14773431D01*
Y7305086D01*
Y7303064D01*
X14775455D01*
Y7301041D01*
Y7299018D01*
Y7296996D01*
Y7294973D01*
Y7292950D01*
Y7290928D01*
Y7288905D01*
Y7286882D01*
Y7284859D01*
Y7282837D01*
Y7280814D01*
Y7278791D01*
Y7276769D01*
Y7274746D01*
Y7272723D01*
Y7270700D01*
Y7268678D01*
Y7266655D01*
Y7264632D01*
Y7262610D01*
Y7260587D01*
Y7258564D01*
Y7256541D01*
Y7254519D01*
Y7252496D01*
Y7250473D01*
Y7248451D01*
Y7246428D01*
Y7244405D01*
X14763318D01*
Y7246428D01*
Y7248451D01*
Y7250473D01*
Y7252496D01*
Y7254519D01*
Y7256541D01*
Y7258564D01*
Y7260587D01*
Y7262610D01*
Y7264632D01*
Y7266655D01*
Y7268678D01*
Y7270700D01*
Y7272723D01*
Y7274746D01*
Y7276769D01*
Y7278791D01*
Y7280814D01*
Y7282837D01*
Y7284859D01*
Y7286882D01*
Y7288905D01*
Y7290928D01*
Y7292950D01*
Y7294973D01*
X14761295D01*
Y7296996D01*
Y7299018D01*
Y7301041D01*
Y7303064D01*
Y7305086D01*
X14757249D01*
Y7307109D01*
X14743091D01*
Y7309132D01*
Y7311155D01*
Y7313177D01*
Y7315200D01*
X14761295D01*
Y7313177D01*
D02*
G37*
G36*
X14735001D02*
Y7311155D01*
Y7309132D01*
Y7307109D01*
Y7305086D01*
Y7303064D01*
Y7301041D01*
Y7299018D01*
Y7296996D01*
Y7294973D01*
Y7292950D01*
Y7290928D01*
Y7288905D01*
Y7286882D01*
Y7284859D01*
Y7282837D01*
Y7280814D01*
Y7278791D01*
Y7276769D01*
Y7274746D01*
Y7272723D01*
Y7270700D01*
Y7268678D01*
Y7266655D01*
Y7264632D01*
Y7262610D01*
Y7260587D01*
Y7258564D01*
Y7256541D01*
Y7254519D01*
Y7252496D01*
Y7250473D01*
Y7248451D01*
Y7246428D01*
Y7244405D01*
X14720840D01*
Y7246428D01*
Y7248451D01*
Y7250473D01*
Y7252496D01*
Y7254519D01*
Y7256541D01*
Y7258564D01*
Y7260587D01*
Y7262610D01*
Y7264632D01*
Y7266655D01*
Y7268678D01*
Y7270700D01*
Y7272723D01*
Y7274746D01*
Y7276769D01*
Y7278791D01*
Y7280814D01*
Y7282837D01*
Y7284859D01*
Y7286882D01*
Y7288905D01*
Y7290928D01*
Y7292950D01*
Y7294973D01*
Y7296996D01*
Y7299018D01*
Y7301041D01*
Y7303064D01*
Y7305086D01*
Y7307109D01*
Y7309132D01*
Y7311155D01*
Y7313177D01*
Y7315200D01*
X14735001D01*
Y7313177D01*
D02*
G37*
G36*
X14702637D02*
X14704659D01*
Y7311155D01*
X14706682D01*
Y7309132D01*
X14708705D01*
Y7307109D01*
Y7305086D01*
Y7303064D01*
X14710727D01*
Y7301041D01*
Y7299018D01*
Y7296996D01*
Y7294973D01*
Y7292950D01*
Y7290928D01*
Y7288905D01*
X14708705D01*
Y7286882D01*
Y7284859D01*
Y7282837D01*
X14706682D01*
Y7280814D01*
Y7278791D01*
X14704659D01*
Y7276769D01*
X14702637D01*
Y7274746D01*
X14674319D01*
Y7272723D01*
X14672296D01*
Y7270700D01*
Y7268678D01*
X14670273D01*
Y7266655D01*
Y7264632D01*
Y7262610D01*
Y7260587D01*
Y7258564D01*
X14672296D01*
Y7256541D01*
Y7254519D01*
X14674319D01*
Y7252496D01*
X14704659D01*
Y7250473D01*
Y7248451D01*
Y7246428D01*
Y7244405D01*
X14666228D01*
Y7246428D01*
X14664204D01*
Y7248451D01*
X14662183D01*
Y7250473D01*
Y7252496D01*
X14660159D01*
Y7254519D01*
Y7256541D01*
Y7258564D01*
Y7260587D01*
Y7262610D01*
X14658138D01*
Y7264632D01*
X14660159D01*
Y7266655D01*
Y7268678D01*
Y7270700D01*
Y7272723D01*
Y7274746D01*
Y7276769D01*
X14662183D01*
Y7278791D01*
Y7280814D01*
X14664204D01*
Y7282837D01*
X14666228D01*
Y7284859D01*
X14694547D01*
Y7286882D01*
X14696568D01*
Y7288905D01*
X14698592D01*
Y7290928D01*
Y7292950D01*
Y7294973D01*
Y7296996D01*
Y7299018D01*
Y7301041D01*
Y7303064D01*
X14696568D01*
Y7305086D01*
Y7307109D01*
X14668251D01*
Y7309132D01*
Y7311155D01*
Y7313177D01*
Y7315200D01*
X14702637D01*
Y7313177D01*
D02*
G37*
G36*
X14650046Y7331382D02*
Y7329359D01*
Y7327336D01*
Y7325314D01*
Y7323291D01*
Y7321268D01*
Y7319245D01*
Y7317223D01*
Y7315200D01*
Y7313177D01*
Y7311155D01*
Y7309132D01*
Y7307109D01*
Y7305086D01*
Y7303064D01*
Y7301041D01*
Y7299018D01*
Y7296996D01*
Y7294973D01*
Y7292950D01*
Y7290928D01*
Y7288905D01*
Y7286882D01*
Y7284859D01*
Y7282837D01*
Y7280814D01*
Y7278791D01*
Y7276769D01*
Y7274746D01*
Y7272723D01*
Y7270700D01*
Y7268678D01*
Y7266655D01*
Y7264632D01*
Y7262610D01*
Y7260587D01*
Y7258564D01*
Y7256541D01*
Y7254519D01*
Y7252496D01*
X14648024D01*
Y7250473D01*
Y7248451D01*
X14646001D01*
Y7246428D01*
X14641956D01*
Y7244405D01*
X14623750D01*
Y7246428D01*
Y7248451D01*
Y7250473D01*
Y7252496D01*
X14633865D01*
Y7254519D01*
X14635887D01*
Y7256541D01*
Y7258564D01*
Y7260587D01*
Y7262610D01*
Y7264632D01*
Y7266655D01*
Y7268678D01*
Y7270700D01*
Y7272723D01*
Y7274746D01*
Y7276769D01*
Y7278791D01*
Y7280814D01*
Y7282837D01*
Y7284859D01*
Y7286882D01*
Y7288905D01*
Y7290928D01*
Y7292950D01*
Y7294973D01*
Y7296996D01*
Y7299018D01*
Y7301041D01*
Y7303064D01*
Y7305086D01*
Y7307109D01*
X14619707D01*
Y7309132D01*
Y7311155D01*
Y7313177D01*
Y7315200D01*
X14635887D01*
Y7317223D01*
Y7319245D01*
Y7321268D01*
Y7323291D01*
Y7325314D01*
Y7327336D01*
Y7329359D01*
Y7331382D01*
Y7333404D01*
X14650046D01*
Y7331382D01*
D02*
G37*
G36*
X14611615Y7313177D02*
Y7311155D01*
Y7309132D01*
Y7307109D01*
Y7305086D01*
Y7303064D01*
Y7301041D01*
Y7299018D01*
Y7296996D01*
Y7294973D01*
Y7292950D01*
Y7290928D01*
Y7288905D01*
Y7286882D01*
Y7284859D01*
Y7282837D01*
Y7280814D01*
Y7278791D01*
Y7276769D01*
Y7274746D01*
Y7272723D01*
Y7270700D01*
Y7268678D01*
Y7266655D01*
Y7264632D01*
Y7262610D01*
Y7260587D01*
Y7258564D01*
Y7256541D01*
Y7254519D01*
Y7252496D01*
Y7250473D01*
Y7248451D01*
Y7246428D01*
Y7244405D01*
X14597456D01*
Y7246428D01*
Y7248451D01*
Y7250473D01*
Y7252496D01*
Y7254519D01*
Y7256541D01*
Y7258564D01*
Y7260587D01*
Y7262610D01*
Y7264632D01*
Y7266655D01*
Y7268678D01*
Y7270700D01*
Y7272723D01*
Y7274746D01*
Y7276769D01*
Y7278791D01*
Y7280814D01*
Y7282837D01*
Y7284859D01*
Y7286882D01*
Y7288905D01*
Y7290928D01*
Y7292950D01*
Y7294973D01*
Y7296996D01*
Y7299018D01*
Y7301041D01*
Y7303064D01*
Y7305086D01*
Y7307109D01*
Y7309132D01*
Y7311155D01*
Y7313177D01*
Y7315200D01*
X14611615D01*
Y7313177D01*
D02*
G37*
G36*
X14575206D02*
Y7311155D01*
Y7309132D01*
Y7307109D01*
X14552956D01*
Y7305086D01*
X14550934D01*
Y7303064D01*
X14548911D01*
Y7301041D01*
Y7299018D01*
Y7296996D01*
Y7294973D01*
Y7292950D01*
Y7290928D01*
Y7288905D01*
Y7286882D01*
Y7284859D01*
Y7282837D01*
Y7280814D01*
Y7278791D01*
Y7276769D01*
Y7274746D01*
Y7272723D01*
Y7270700D01*
Y7268678D01*
Y7266655D01*
Y7264632D01*
Y7262610D01*
Y7260587D01*
Y7258564D01*
Y7256541D01*
Y7254519D01*
Y7252496D01*
X14571161D01*
Y7254519D01*
X14573183D01*
Y7256541D01*
Y7258564D01*
Y7260587D01*
Y7262610D01*
X14575206D01*
Y7264632D01*
Y7266655D01*
Y7268678D01*
Y7270700D01*
X14573183D01*
Y7272723D01*
Y7274746D01*
Y7276769D01*
X14571161D01*
Y7278791D01*
X14554979D01*
Y7280814D01*
Y7282837D01*
Y7284859D01*
Y7286882D01*
X14577229D01*
Y7284859D01*
X14581274D01*
Y7282837D01*
X14583298D01*
Y7280814D01*
Y7278791D01*
X14585320D01*
Y7276769D01*
Y7274746D01*
Y7272723D01*
X14587341D01*
Y7270700D01*
Y7268678D01*
Y7266655D01*
Y7264632D01*
Y7262610D01*
Y7260587D01*
Y7258564D01*
X14585320D01*
Y7256541D01*
Y7254519D01*
Y7252496D01*
X14583298D01*
Y7250473D01*
Y7248451D01*
X14581274D01*
Y7246428D01*
X14577229D01*
Y7244405D01*
X14534752D01*
Y7246428D01*
Y7248451D01*
Y7250473D01*
Y7252496D01*
Y7254519D01*
Y7256541D01*
Y7258564D01*
Y7260587D01*
Y7262610D01*
Y7264632D01*
Y7266655D01*
Y7268678D01*
Y7270700D01*
Y7272723D01*
Y7274746D01*
Y7276769D01*
Y7278791D01*
Y7280814D01*
Y7282837D01*
Y7284859D01*
Y7286882D01*
Y7288905D01*
Y7290928D01*
Y7292950D01*
Y7294973D01*
Y7296996D01*
Y7299018D01*
X14536775D01*
Y7301041D01*
Y7303064D01*
Y7305086D01*
Y7307109D01*
Y7309132D01*
X14538797D01*
Y7311155D01*
X14540820D01*
Y7313177D01*
X14544865D01*
Y7315200D01*
X14575206D01*
Y7313177D01*
D02*
G37*
G36*
X14526662D02*
Y7311155D01*
Y7309132D01*
Y7307109D01*
Y7305086D01*
Y7303064D01*
Y7301041D01*
Y7299018D01*
Y7296996D01*
Y7294973D01*
Y7292950D01*
Y7290928D01*
Y7288905D01*
Y7286882D01*
Y7284859D01*
Y7282837D01*
Y7280814D01*
Y7278791D01*
Y7276769D01*
Y7274746D01*
Y7272723D01*
Y7270700D01*
Y7268678D01*
Y7266655D01*
Y7264632D01*
Y7262610D01*
Y7260587D01*
Y7258564D01*
Y7256541D01*
Y7254519D01*
Y7252496D01*
Y7250473D01*
Y7248451D01*
Y7246428D01*
Y7244405D01*
X14512502D01*
Y7246428D01*
Y7248451D01*
Y7250473D01*
Y7252496D01*
Y7254519D01*
Y7256541D01*
Y7258564D01*
Y7260587D01*
Y7262610D01*
Y7264632D01*
Y7266655D01*
Y7268678D01*
Y7270700D01*
Y7272723D01*
Y7274746D01*
Y7276769D01*
Y7278791D01*
Y7280814D01*
Y7282837D01*
Y7284859D01*
Y7286882D01*
Y7288905D01*
Y7290928D01*
Y7292950D01*
Y7294973D01*
Y7296996D01*
Y7299018D01*
Y7301041D01*
Y7303064D01*
Y7305086D01*
Y7307109D01*
X14488229D01*
Y7305086D01*
X14486208D01*
Y7303064D01*
Y7301041D01*
Y7299018D01*
X14484184D01*
Y7296996D01*
Y7294973D01*
Y7292950D01*
Y7290928D01*
Y7288905D01*
Y7286882D01*
Y7284859D01*
Y7282837D01*
Y7280814D01*
Y7278791D01*
Y7276769D01*
Y7274746D01*
Y7272723D01*
Y7270700D01*
Y7268678D01*
Y7266655D01*
Y7264632D01*
Y7262610D01*
Y7260587D01*
Y7258564D01*
Y7256541D01*
Y7254519D01*
Y7252496D01*
Y7250473D01*
Y7248451D01*
Y7246428D01*
Y7244405D01*
X14472047D01*
Y7246428D01*
Y7248451D01*
Y7250473D01*
Y7252496D01*
Y7254519D01*
Y7256541D01*
Y7258564D01*
Y7260587D01*
Y7262610D01*
Y7264632D01*
Y7266655D01*
Y7268678D01*
Y7270700D01*
Y7272723D01*
Y7274746D01*
Y7276769D01*
Y7278791D01*
Y7280814D01*
Y7282837D01*
Y7284859D01*
Y7286882D01*
Y7288905D01*
Y7290928D01*
Y7292950D01*
Y7294973D01*
Y7296996D01*
Y7299018D01*
Y7301041D01*
Y7303064D01*
Y7305086D01*
Y7307109D01*
X14474071D01*
Y7309132D01*
Y7311155D01*
X14476093D01*
Y7313177D01*
X14480139D01*
Y7315200D01*
X14526662D01*
Y7313177D01*
D02*
G37*
G36*
X14419458Y7331382D02*
Y7329359D01*
Y7327336D01*
X14421480D01*
Y7325314D01*
Y7323291D01*
Y7321268D01*
Y7319245D01*
Y7317223D01*
X14423503D01*
Y7315200D01*
Y7313177D01*
Y7311155D01*
Y7309132D01*
Y7307109D01*
X14425526D01*
Y7305086D01*
Y7303064D01*
Y7301041D01*
Y7299018D01*
Y7296996D01*
X14427548D01*
Y7294973D01*
Y7292950D01*
Y7290928D01*
Y7288905D01*
Y7286882D01*
X14429572D01*
Y7284859D01*
Y7282837D01*
Y7280814D01*
Y7278791D01*
X14431593D01*
Y7276769D01*
Y7274746D01*
Y7272723D01*
Y7270700D01*
Y7268678D01*
X14433617D01*
Y7266655D01*
Y7264632D01*
Y7262610D01*
Y7260587D01*
Y7258564D01*
X14435638D01*
Y7256541D01*
Y7254519D01*
Y7252496D01*
Y7250473D01*
Y7248451D01*
X14437662D01*
Y7246428D01*
Y7244405D01*
X14423503D01*
Y7246428D01*
Y7248451D01*
Y7250473D01*
Y7252496D01*
Y7254519D01*
X14421480D01*
Y7256541D01*
Y7258564D01*
Y7260587D01*
Y7262610D01*
Y7264632D01*
X14399231D01*
Y7262610D01*
Y7260587D01*
Y7258564D01*
X14397208D01*
Y7256541D01*
Y7254519D01*
Y7252496D01*
Y7250473D01*
Y7248451D01*
Y7246428D01*
X14395184D01*
Y7244405D01*
X14383049D01*
Y7246428D01*
Y7248451D01*
Y7250473D01*
X14385072D01*
Y7252496D01*
Y7254519D01*
Y7256541D01*
Y7258564D01*
Y7260587D01*
X14387094D01*
Y7262610D01*
Y7264632D01*
Y7266655D01*
Y7268678D01*
Y7270700D01*
X14389117D01*
Y7272723D01*
Y7274746D01*
Y7276769D01*
Y7278791D01*
Y7280814D01*
X14391141D01*
Y7282837D01*
Y7284859D01*
Y7286882D01*
Y7288905D01*
Y7290928D01*
X14393163D01*
Y7292950D01*
Y7294973D01*
Y7296996D01*
Y7299018D01*
Y7301041D01*
X14395184D01*
Y7303064D01*
Y7305086D01*
Y7307109D01*
Y7309132D01*
X14397208D01*
Y7311155D01*
Y7313177D01*
Y7315200D01*
Y7317223D01*
Y7319245D01*
X14399231D01*
Y7321268D01*
Y7323291D01*
Y7325314D01*
Y7327336D01*
Y7329359D01*
X14401253D01*
Y7331382D01*
Y7333404D01*
X14419458D01*
Y7331382D01*
D02*
G37*
G36*
X14362822Y7313177D02*
X14366867D01*
Y7311155D01*
X14368890D01*
Y7309132D01*
X14370914D01*
Y7307109D01*
Y7305086D01*
Y7303064D01*
X14372935D01*
Y7301041D01*
Y7299018D01*
Y7296996D01*
Y7294973D01*
Y7292950D01*
Y7290928D01*
Y7288905D01*
Y7286882D01*
Y7284859D01*
Y7282837D01*
Y7280814D01*
Y7278791D01*
Y7276769D01*
Y7274746D01*
Y7272723D01*
Y7270700D01*
Y7268678D01*
Y7266655D01*
Y7264632D01*
Y7262610D01*
Y7260587D01*
Y7258564D01*
Y7256541D01*
X14370914D01*
Y7254519D01*
Y7252496D01*
Y7250473D01*
X14368890D01*
Y7248451D01*
X14366867D01*
Y7246428D01*
X14362822D01*
Y7244405D01*
X14330460D01*
Y7246428D01*
Y7248451D01*
Y7250473D01*
Y7252496D01*
X14354732D01*
Y7254519D01*
X14356754D01*
Y7256541D01*
X14358775D01*
Y7258564D01*
Y7260587D01*
Y7262610D01*
Y7264632D01*
Y7266655D01*
Y7268678D01*
Y7270700D01*
Y7272723D01*
Y7274746D01*
Y7276769D01*
Y7278791D01*
Y7280814D01*
Y7282837D01*
Y7284859D01*
Y7286882D01*
Y7288905D01*
Y7290928D01*
Y7292950D01*
Y7294973D01*
Y7296996D01*
Y7299018D01*
Y7301041D01*
Y7303064D01*
X14356754D01*
Y7305086D01*
X14354732D01*
Y7307109D01*
X14330460D01*
Y7309132D01*
Y7311155D01*
Y7313177D01*
Y7315200D01*
X14362822D01*
Y7313177D01*
D02*
G37*
G36*
X14310231D02*
X14314278D01*
Y7311155D01*
X14316299D01*
Y7309132D01*
X14318323D01*
Y7307109D01*
Y7305086D01*
Y7303064D01*
X14320345D01*
Y7301041D01*
Y7299018D01*
Y7296996D01*
Y7294973D01*
Y7292950D01*
Y7290928D01*
Y7288905D01*
Y7286882D01*
Y7284859D01*
Y7282837D01*
Y7280814D01*
Y7278791D01*
Y7276769D01*
Y7274746D01*
Y7272723D01*
Y7270700D01*
Y7268678D01*
Y7266655D01*
Y7264632D01*
Y7262610D01*
Y7260587D01*
Y7258564D01*
Y7256541D01*
X14318323D01*
Y7254519D01*
Y7252496D01*
Y7250473D01*
X14316299D01*
Y7248451D01*
X14314278D01*
Y7246428D01*
X14310231D01*
Y7244405D01*
X14271800D01*
Y7246428D01*
Y7248451D01*
Y7250473D01*
Y7252496D01*
X14302141D01*
Y7254519D01*
X14304163D01*
Y7256541D01*
X14306186D01*
Y7258564D01*
Y7260587D01*
Y7262610D01*
Y7264632D01*
Y7266655D01*
Y7268678D01*
Y7270700D01*
Y7272723D01*
Y7274746D01*
Y7276769D01*
Y7278791D01*
Y7280814D01*
Y7282837D01*
Y7284859D01*
Y7286882D01*
Y7288905D01*
Y7290928D01*
Y7292950D01*
Y7294973D01*
Y7296996D01*
Y7299018D01*
Y7301041D01*
Y7303064D01*
X14304163D01*
Y7305086D01*
X14302141D01*
Y7307109D01*
X14281914D01*
Y7305086D01*
Y7303064D01*
X14279890D01*
Y7301041D01*
Y7299018D01*
Y7296996D01*
Y7294973D01*
Y7292950D01*
Y7290928D01*
Y7288905D01*
X14281914D01*
Y7286882D01*
Y7284859D01*
X14283936D01*
Y7282837D01*
X14298096D01*
Y7280814D01*
Y7278791D01*
Y7276769D01*
Y7274746D01*
X14275845D01*
Y7276769D01*
X14273824D01*
Y7278791D01*
X14271800D01*
Y7280814D01*
X14269777D01*
Y7282837D01*
Y7284859D01*
Y7286882D01*
X14267755D01*
Y7288905D01*
Y7290928D01*
Y7292950D01*
Y7294973D01*
Y7296996D01*
Y7299018D01*
Y7301041D01*
Y7303064D01*
X14269777D01*
Y7305086D01*
Y7307109D01*
Y7309132D01*
X14271800D01*
Y7311155D01*
X14273824D01*
Y7313177D01*
X14275845D01*
Y7315200D01*
X14310231D01*
Y7313177D01*
D02*
G37*
G36*
X14186845D02*
X14190892D01*
Y7311155D01*
X14192914D01*
Y7309132D01*
X14194937D01*
Y7307109D01*
Y7305086D01*
Y7303064D01*
X14196960D01*
Y7301041D01*
Y7299018D01*
Y7296996D01*
Y7294973D01*
Y7292950D01*
Y7290928D01*
Y7288905D01*
Y7286882D01*
Y7284859D01*
Y7282837D01*
Y7280814D01*
Y7278791D01*
Y7276769D01*
Y7274746D01*
Y7272723D01*
Y7270700D01*
Y7268678D01*
Y7266655D01*
Y7264632D01*
Y7262610D01*
Y7260587D01*
Y7258564D01*
Y7256541D01*
X14194937D01*
Y7254519D01*
Y7252496D01*
Y7250473D01*
X14192914D01*
Y7248451D01*
X14190892D01*
Y7246428D01*
X14186845D01*
Y7244405D01*
X14148415D01*
Y7246428D01*
Y7248451D01*
Y7250473D01*
Y7252496D01*
X14178755D01*
Y7254519D01*
X14180779D01*
Y7256541D01*
X14182800D01*
Y7258564D01*
Y7260587D01*
Y7262610D01*
Y7264632D01*
Y7266655D01*
Y7268678D01*
Y7270700D01*
Y7272723D01*
Y7274746D01*
Y7276769D01*
Y7278791D01*
Y7280814D01*
Y7282837D01*
Y7284859D01*
Y7286882D01*
Y7288905D01*
Y7290928D01*
Y7292950D01*
Y7294973D01*
Y7296996D01*
Y7299018D01*
Y7301041D01*
Y7303064D01*
X14180779D01*
Y7305086D01*
X14178755D01*
Y7307109D01*
X14158528D01*
Y7305086D01*
Y7303064D01*
X14156505D01*
Y7301041D01*
Y7299018D01*
Y7296996D01*
Y7294973D01*
Y7292950D01*
Y7290928D01*
Y7288905D01*
X14158528D01*
Y7286882D01*
Y7284859D01*
X14160551D01*
Y7282837D01*
X14174710D01*
Y7280814D01*
Y7278791D01*
Y7276769D01*
Y7274746D01*
X14152460D01*
Y7276769D01*
X14150438D01*
Y7278791D01*
X14148415D01*
Y7280814D01*
X14146391D01*
Y7282837D01*
Y7284859D01*
Y7286882D01*
X14144370D01*
Y7288905D01*
Y7290928D01*
Y7292950D01*
Y7294973D01*
Y7296996D01*
Y7299018D01*
Y7301041D01*
Y7303064D01*
X14146391D01*
Y7305086D01*
Y7307109D01*
Y7309132D01*
X14148415D01*
Y7311155D01*
X14150438D01*
Y7313177D01*
X14152460D01*
Y7315200D01*
X14186845D01*
Y7313177D01*
D02*
G37*
G36*
X14091779Y7331382D02*
Y7329359D01*
Y7327336D01*
Y7325314D01*
Y7323291D01*
Y7321268D01*
Y7319245D01*
Y7317223D01*
Y7315200D01*
Y7313177D01*
Y7311155D01*
Y7309132D01*
Y7307109D01*
Y7305086D01*
Y7303064D01*
Y7301041D01*
Y7299018D01*
Y7296996D01*
Y7294973D01*
Y7292950D01*
Y7290928D01*
Y7288905D01*
Y7286882D01*
Y7284859D01*
Y7282837D01*
Y7280814D01*
Y7278791D01*
Y7276769D01*
Y7274746D01*
Y7272723D01*
Y7270700D01*
Y7268678D01*
Y7266655D01*
Y7264632D01*
Y7262610D01*
Y7260587D01*
Y7258564D01*
Y7256541D01*
Y7254519D01*
Y7252496D01*
X14112006D01*
Y7254519D01*
X14114029D01*
Y7256541D01*
X14116051D01*
Y7258564D01*
X14118074D01*
Y7260587D01*
Y7262610D01*
Y7264632D01*
Y7266655D01*
Y7268678D01*
Y7270700D01*
Y7272723D01*
Y7274746D01*
Y7276769D01*
Y7278791D01*
Y7280814D01*
Y7282837D01*
Y7284859D01*
Y7286882D01*
Y7288905D01*
Y7290928D01*
Y7292950D01*
Y7294973D01*
Y7296996D01*
Y7299018D01*
Y7301041D01*
Y7303064D01*
X14116051D01*
Y7305086D01*
X14114029D01*
Y7307109D01*
X14099870D01*
Y7309132D01*
Y7311155D01*
Y7313177D01*
Y7315200D01*
X14122121D01*
Y7313177D01*
X14126164D01*
Y7311155D01*
X14128188D01*
Y7309132D01*
Y7307109D01*
X14130209D01*
Y7305086D01*
Y7303064D01*
Y7301041D01*
X14132233D01*
Y7299018D01*
Y7296996D01*
Y7294973D01*
Y7292950D01*
Y7290928D01*
Y7288905D01*
Y7286882D01*
Y7284859D01*
Y7282837D01*
Y7280814D01*
Y7278791D01*
Y7276769D01*
Y7274746D01*
Y7272723D01*
Y7270700D01*
Y7268678D01*
Y7266655D01*
Y7264632D01*
Y7262610D01*
Y7260587D01*
Y7258564D01*
X14130209D01*
Y7256541D01*
Y7254519D01*
Y7252496D01*
X14128188D01*
Y7250473D01*
Y7248451D01*
X14126164D01*
Y7246428D01*
X14122121D01*
Y7244405D01*
X14079643D01*
Y7246428D01*
Y7248451D01*
Y7250473D01*
Y7252496D01*
Y7254519D01*
Y7256541D01*
Y7258564D01*
Y7260587D01*
Y7262610D01*
Y7264632D01*
Y7266655D01*
Y7268678D01*
Y7270700D01*
Y7272723D01*
Y7274746D01*
Y7276769D01*
Y7278791D01*
Y7280814D01*
Y7282837D01*
Y7284859D01*
Y7286882D01*
Y7288905D01*
Y7290928D01*
Y7292950D01*
Y7294973D01*
Y7296996D01*
Y7299018D01*
Y7301041D01*
Y7303064D01*
Y7305086D01*
Y7307109D01*
Y7309132D01*
Y7311155D01*
Y7313177D01*
Y7315200D01*
Y7317223D01*
Y7319245D01*
Y7321268D01*
Y7323291D01*
Y7325314D01*
Y7327336D01*
Y7329359D01*
Y7331382D01*
Y7333404D01*
X14091779D01*
Y7331382D01*
D02*
G37*
G36*
X14059416Y7313177D02*
X14063461D01*
Y7311155D01*
X14065485D01*
Y7309132D01*
X14067506D01*
Y7307109D01*
Y7305086D01*
Y7303064D01*
X14069530D01*
Y7301041D01*
Y7299018D01*
Y7296996D01*
Y7294973D01*
Y7292950D01*
Y7290928D01*
Y7288905D01*
Y7286882D01*
Y7284859D01*
Y7282837D01*
Y7280814D01*
Y7278791D01*
Y7276769D01*
Y7274746D01*
Y7272723D01*
Y7270700D01*
Y7268678D01*
Y7266655D01*
Y7264632D01*
Y7262610D01*
Y7260587D01*
Y7258564D01*
Y7256541D01*
X14067506D01*
Y7254519D01*
Y7252496D01*
Y7250473D01*
X14065485D01*
Y7248451D01*
X14063461D01*
Y7246428D01*
X14059416D01*
Y7244405D01*
X14023007D01*
Y7246428D01*
X14018962D01*
Y7248451D01*
X14016939D01*
Y7250473D01*
X14014915D01*
Y7252496D01*
Y7254519D01*
Y7256541D01*
X14012894D01*
Y7258564D01*
Y7260587D01*
Y7262610D01*
Y7264632D01*
Y7266655D01*
Y7268678D01*
Y7270700D01*
Y7272723D01*
Y7274746D01*
Y7276769D01*
Y7278791D01*
Y7280814D01*
Y7282837D01*
Y7284859D01*
Y7286882D01*
Y7288905D01*
Y7290928D01*
Y7292950D01*
Y7294973D01*
Y7296996D01*
Y7299018D01*
Y7301041D01*
Y7303064D01*
X14014915D01*
Y7305086D01*
Y7307109D01*
Y7309132D01*
X14016939D01*
Y7311155D01*
X14018962D01*
Y7313177D01*
X14023007D01*
Y7315200D01*
X14059416D01*
Y7313177D01*
D02*
G37*
%LPC*%
G36*
X14736487Y9024925D02*
X14730080D01*
Y9021720D01*
X14723669D01*
Y9018516D01*
X14717262D01*
Y9015312D01*
X14714058D01*
Y9012108D01*
X14707651D01*
Y9008904D01*
X14704445D01*
Y9005700D01*
X14701241D01*
Y9002496D01*
Y8999291D01*
X14698038D01*
Y8996087D01*
X14694833D01*
Y8992883D01*
Y8989679D01*
X14691629D01*
Y8986475D01*
X14688425D01*
Y8983271D01*
Y8980066D01*
Y8976862D01*
X14694833D01*
Y8980066D01*
X14701241D01*
Y8983271D01*
X14707651D01*
Y8986475D01*
X14710854D01*
Y8989679D01*
X14714058D01*
Y8992883D01*
X14720467D01*
Y8996087D01*
Y8999291D01*
X14723669D01*
Y9002496D01*
X14726875D01*
Y9005700D01*
X14730080D01*
Y9008904D01*
Y9012108D01*
X14733282D01*
Y9015312D01*
Y9018516D01*
X14736487D01*
Y9021720D01*
Y9024925D01*
D02*
G37*
G36*
X14486563D02*
X14480154D01*
Y9021720D01*
Y9018516D01*
Y9015312D01*
X14483359D01*
Y9012108D01*
Y9008904D01*
X14486563D01*
Y9005700D01*
X14489767D01*
Y9002496D01*
Y8999291D01*
X14492970D01*
Y8996087D01*
X14496175D01*
Y8992883D01*
X14499379D01*
Y8989679D01*
X14505788D01*
Y8986475D01*
X14508992D01*
Y8983271D01*
X14515401D01*
Y8980066D01*
X14521808D01*
Y8976862D01*
X14528217D01*
Y8980066D01*
Y8983271D01*
X14525014D01*
Y8986475D01*
Y8989679D01*
X14521808D01*
Y8992883D01*
Y8996087D01*
X14518604D01*
Y8999291D01*
X14515401D01*
Y9002496D01*
X14512196D01*
Y9005700D01*
X14508992D01*
Y9008904D01*
X14505788D01*
Y9012108D01*
X14502583D01*
Y9015312D01*
X14499379D01*
Y9018516D01*
X14492970D01*
Y9021720D01*
X14486563D01*
Y9024925D01*
D02*
G37*
G36*
X14611525Y8976862D02*
X14601912D01*
Y8973658D01*
X14598708D01*
Y8970454D01*
X14592300D01*
Y8967250D01*
X14585892D01*
Y8964046D01*
X14576279D01*
Y8960841D01*
X14563461D01*
Y8957637D01*
X14547443D01*
Y8954433D01*
Y8951229D01*
Y8948025D01*
Y8944821D01*
X14544238D01*
Y8941617D01*
Y8938412D01*
Y8935208D01*
Y8932004D01*
Y8928800D01*
X14541032D01*
Y8925596D01*
Y8922392D01*
Y8919187D01*
X14537830D01*
Y8915983D01*
Y8912779D01*
X14534625D01*
Y8909575D01*
Y8906371D01*
X14531421D01*
Y8903167D01*
X14528217D01*
Y8899962D01*
Y8896758D01*
X14525014D01*
Y8893554D01*
X14528217D01*
Y8890350D01*
X14531421D01*
Y8887146D01*
Y8883942D01*
X14534625D01*
Y8880738D01*
Y8877533D01*
X14537830D01*
Y8874329D01*
Y8871125D01*
X14541032D01*
Y8867921D01*
Y8864717D01*
Y8861513D01*
X14544238D01*
Y8858308D01*
Y8855104D01*
Y8851900D01*
Y8848696D01*
Y8845492D01*
Y8842288D01*
Y8839083D01*
Y8835879D01*
X14560258D01*
Y8832675D01*
X14576279D01*
Y8829471D01*
X14585892D01*
Y8826267D01*
X14592300D01*
Y8823063D01*
X14595505D01*
Y8819859D01*
X14601912D01*
Y8816654D01*
X14605116D01*
Y8813450D01*
X14608321D01*
Y8816654D01*
X14611525D01*
Y8819859D01*
X14617934D01*
Y8823063D01*
X14624342D01*
Y8826267D01*
X14630750D01*
Y8829471D01*
X14640363D01*
Y8832675D01*
X14653178D01*
Y8835879D01*
X14669200D01*
Y8839083D01*
Y8842288D01*
Y8845492D01*
Y8848696D01*
Y8851900D01*
Y8855104D01*
X14672404D01*
Y8858308D01*
Y8861513D01*
Y8864717D01*
Y8867921D01*
X14675607D01*
Y8871125D01*
Y8874329D01*
Y8877533D01*
X14678812D01*
Y8880738D01*
Y8883942D01*
X14682016D01*
Y8887146D01*
X14685220D01*
Y8890350D01*
Y8893554D01*
X14688425D01*
Y8896758D01*
Y8899962D01*
X14685220D01*
Y8903167D01*
Y8906371D01*
X14682016D01*
Y8909575D01*
Y8912779D01*
X14678812D01*
Y8915983D01*
Y8919187D01*
X14675607D01*
Y8922392D01*
Y8925596D01*
X14672404D01*
Y8928800D01*
Y8932004D01*
Y8935208D01*
Y8938412D01*
X14669200D01*
Y8941617D01*
Y8944821D01*
Y8948025D01*
Y8951229D01*
Y8954433D01*
Y8957637D01*
X14653178D01*
Y8960841D01*
X14640363D01*
Y8964046D01*
X14630750D01*
Y8967250D01*
X14624342D01*
Y8970454D01*
X14617934D01*
Y8973658D01*
X14611525D01*
Y8976862D01*
D02*
G37*
G36*
X14694833Y8816654D02*
X14685220D01*
Y8813450D01*
X14688425D01*
Y8810246D01*
Y8807042D01*
X14691629D01*
Y8803838D01*
Y8800634D01*
X14694833D01*
Y8797429D01*
X14698038D01*
Y8794225D01*
Y8791021D01*
X14701241D01*
Y8787817D01*
X14704445D01*
Y8784613D01*
X14707651D01*
Y8781409D01*
X14710854D01*
Y8778204D01*
X14717262D01*
Y8775000D01*
X14720467D01*
Y8771796D01*
X14726875D01*
Y8768592D01*
X14736487D01*
Y8771796D01*
Y8775000D01*
X14733282D01*
Y8778204D01*
Y8781409D01*
X14730080D01*
Y8784613D01*
Y8787817D01*
X14726875D01*
Y8791021D01*
X14723669D01*
Y8794225D01*
X14720467D01*
Y8797429D01*
X14717262D01*
Y8800634D01*
X14714058D01*
Y8803838D01*
X14710854D01*
Y8807042D01*
X14707651D01*
Y8810246D01*
X14701241D01*
Y8813450D01*
X14694833D01*
Y8816654D01*
D02*
G37*
G36*
X14528217D02*
X14518604D01*
Y8813450D01*
X14512196D01*
Y8810246D01*
X14508992D01*
Y8807042D01*
X14502583D01*
Y8803838D01*
X14499379D01*
Y8800634D01*
X14496175D01*
Y8797429D01*
X14492970D01*
Y8794225D01*
X14489767D01*
Y8791021D01*
X14486563D01*
Y8787817D01*
Y8784613D01*
X14483359D01*
Y8781409D01*
Y8778204D01*
X14480154D01*
Y8775000D01*
Y8771796D01*
X14476950D01*
Y8768592D01*
X14486563D01*
Y8771796D01*
X14492970D01*
Y8775000D01*
X14499379D01*
Y8778204D01*
X14502583D01*
Y8781409D01*
X14505788D01*
Y8784613D01*
X14508992D01*
Y8787817D01*
X14512196D01*
Y8791021D01*
X14515401D01*
Y8794225D01*
X14518604D01*
Y8797429D01*
Y8800634D01*
X14521808D01*
Y8803838D01*
X14525014D01*
Y8807042D01*
Y8810246D01*
Y8813450D01*
X14528217D01*
Y8816654D01*
D02*
G37*
%LPD*%
G36*
X14621136Y8941617D02*
X14630750D01*
Y8938412D01*
X14637158D01*
Y8935208D01*
X14640363D01*
Y8932004D01*
X14643565D01*
Y8928800D01*
X14646771D01*
Y8925596D01*
X14649976D01*
Y8922392D01*
Y8919187D01*
X14653178D01*
Y8915983D01*
Y8912779D01*
Y8909575D01*
X14656383D01*
Y8906371D01*
Y8903167D01*
Y8899962D01*
Y8896758D01*
Y8893554D01*
Y8890350D01*
Y8887146D01*
Y8883942D01*
X14653178D01*
Y8880738D01*
Y8877533D01*
Y8874329D01*
X14649976D01*
Y8871125D01*
Y8867921D01*
X14646771D01*
Y8864717D01*
X14643565D01*
Y8861513D01*
X14640363D01*
Y8858308D01*
X14637158D01*
Y8855104D01*
X14630750D01*
Y8851900D01*
X14624342D01*
Y8848696D01*
X14592300D01*
Y8851900D01*
X14582687D01*
Y8855104D01*
X14579483D01*
Y8858308D01*
X14576279D01*
Y8861513D01*
X14573074D01*
Y8864717D01*
X14569872D01*
Y8867921D01*
X14566667D01*
Y8871125D01*
X14563461D01*
Y8874329D01*
Y8877533D01*
Y8880738D01*
X14560258D01*
Y8883942D01*
Y8887146D01*
Y8890350D01*
Y8893554D01*
Y8896758D01*
Y8899962D01*
Y8903167D01*
Y8906371D01*
Y8909575D01*
Y8912779D01*
X14563461D01*
Y8915983D01*
Y8919187D01*
X14566667D01*
Y8922392D01*
Y8925596D01*
X14569872D01*
Y8928800D01*
X14573074D01*
Y8932004D01*
X14576279D01*
Y8935208D01*
X14579483D01*
Y8938412D01*
X14585892D01*
Y8941617D01*
X14592300D01*
Y8944821D01*
X14621136D01*
Y8941617D01*
D02*
G37*
%LPC*%
G36*
X14601912Y8598772D02*
X14589096D01*
Y8595568D01*
X14582687D01*
Y8592363D01*
X14576279D01*
Y8589159D01*
X14573074D01*
Y8585955D01*
X14569872D01*
Y8582751D01*
Y8579547D01*
Y8576343D01*
X14566667D01*
Y8573139D01*
Y8569934D01*
Y8566730D01*
X14569872D01*
Y8563526D01*
Y8560322D01*
Y8557118D01*
X14573074D01*
Y8553914D01*
X14576279D01*
Y8550709D01*
X14579483D01*
Y8547505D01*
X14585892D01*
Y8544301D01*
X14601912D01*
Y8547505D01*
Y8550709D01*
Y8553914D01*
Y8557118D01*
Y8560322D01*
Y8563526D01*
Y8566730D01*
Y8569934D01*
Y8573139D01*
Y8576343D01*
Y8579547D01*
Y8582751D01*
Y8585955D01*
Y8589159D01*
Y8592363D01*
Y8595568D01*
Y8598772D01*
D02*
G37*
G36*
X14249455D02*
X14243047D01*
Y8595568D01*
X14230231D01*
Y8592363D01*
X14220618D01*
Y8589159D01*
X14214209D01*
Y8585955D01*
X14211005D01*
Y8582751D01*
X14204597D01*
Y8579547D01*
X14201393D01*
Y8576343D01*
X14198189D01*
Y8573139D01*
Y8569934D01*
X14194984D01*
Y8566730D01*
Y8563526D01*
X14191780D01*
Y8560322D01*
Y8557118D01*
Y8553914D01*
X14188576D01*
Y8550709D01*
Y8547505D01*
Y8544301D01*
Y8541097D01*
Y8537893D01*
Y8534689D01*
Y8531484D01*
Y8528280D01*
Y8525076D01*
Y8521872D01*
Y8518668D01*
Y8515464D01*
X14191780D01*
Y8512260D01*
Y8509055D01*
X14194984D01*
Y8505851D01*
Y8502647D01*
X14198189D01*
Y8499443D01*
X14201393D01*
Y8496239D01*
Y8493035D01*
X14207800D01*
Y8489830D01*
X14211005D01*
Y8486626D01*
X14220618D01*
Y8483422D01*
X14239842D01*
Y8486626D01*
X14246251D01*
Y8489830D01*
X14249455D01*
Y8493035D01*
Y8496239D01*
Y8499443D01*
X14252660D01*
Y8502647D01*
Y8505851D01*
Y8509055D01*
Y8512260D01*
Y8515464D01*
Y8518668D01*
Y8521872D01*
Y8525076D01*
Y8528280D01*
Y8531484D01*
Y8534689D01*
Y8537893D01*
Y8541097D01*
Y8544301D01*
Y8547505D01*
Y8550709D01*
Y8553914D01*
Y8557118D01*
Y8560322D01*
Y8563526D01*
Y8566730D01*
Y8569934D01*
Y8573139D01*
Y8576343D01*
Y8579547D01*
Y8582751D01*
Y8585955D01*
Y8589159D01*
Y8592363D01*
Y8595568D01*
X14249455D01*
Y8598772D01*
D02*
G37*
G36*
X14082838Y8579547D02*
X14079636D01*
Y8576343D01*
Y8573139D01*
X14076431D01*
Y8569934D01*
Y8566730D01*
Y8563526D01*
X14073225D01*
Y8560322D01*
Y8557118D01*
Y8553914D01*
X14070023D01*
Y8550709D01*
Y8547505D01*
X14066818D01*
Y8544301D01*
Y8541097D01*
Y8537893D01*
X14095656D01*
Y8541097D01*
Y8544301D01*
X14092451D01*
Y8547505D01*
Y8550709D01*
Y8553914D01*
X14089247D01*
Y8557118D01*
Y8560322D01*
Y8563526D01*
X14086043D01*
Y8566730D01*
Y8569934D01*
Y8573139D01*
X14082838D01*
Y8576343D01*
Y8579547D01*
D02*
G37*
G36*
X13941856Y8598772D02*
X13929039D01*
Y8595568D01*
X13916223D01*
Y8592363D01*
X13906610D01*
Y8589159D01*
X13903406D01*
Y8585955D01*
X13896999D01*
Y8582751D01*
X13893794D01*
Y8579547D01*
X13890588D01*
Y8576343D01*
X13887386D01*
Y8573139D01*
X13884181D01*
Y8569934D01*
Y8566730D01*
X13880977D01*
Y8563526D01*
Y8560322D01*
Y8557118D01*
X13877773D01*
Y8553914D01*
Y8550709D01*
Y8547505D01*
Y8544301D01*
Y8541097D01*
Y8537893D01*
Y8534689D01*
Y8531484D01*
Y8528280D01*
Y8525076D01*
Y8521872D01*
Y8518668D01*
Y8515464D01*
X13880977D01*
Y8512260D01*
Y8509055D01*
X13884181D01*
Y8505851D01*
Y8502647D01*
X13887386D01*
Y8499443D01*
X13890588D01*
Y8496239D01*
X13893794D01*
Y8493035D01*
X13896999D01*
Y8489830D01*
X13903406D01*
Y8486626D01*
X13913019D01*
Y8483422D01*
X13925835D01*
Y8486626D01*
X13932243D01*
Y8489830D01*
X13935448D01*
Y8493035D01*
X13938652D01*
Y8496239D01*
Y8499443D01*
Y8502647D01*
X13941856D01*
Y8505851D01*
Y8509055D01*
Y8512260D01*
Y8515464D01*
Y8518668D01*
Y8521872D01*
Y8525076D01*
Y8528280D01*
Y8531484D01*
Y8534689D01*
Y8537893D01*
Y8541097D01*
Y8544301D01*
Y8547505D01*
Y8550709D01*
Y8553914D01*
Y8557118D01*
Y8560322D01*
Y8563526D01*
Y8566730D01*
Y8569934D01*
Y8573139D01*
Y8576343D01*
Y8579547D01*
Y8582751D01*
Y8585955D01*
Y8589159D01*
Y8592363D01*
Y8595568D01*
Y8598772D01*
D02*
G37*
G36*
X14483359Y8428951D02*
X14470541D01*
Y8425747D01*
X14464134D01*
Y8422543D01*
X14457726D01*
Y8419339D01*
X14454521D01*
Y8416135D01*
Y8412931D01*
X14451317D01*
Y8409726D01*
Y8406522D01*
Y8403318D01*
X14448112D01*
Y8400114D01*
X14451317D01*
Y8396910D01*
Y8393706D01*
Y8390501D01*
Y8387297D01*
X14454521D01*
Y8384093D01*
X14457726D01*
Y8380889D01*
X14460928D01*
Y8377685D01*
X14470541D01*
Y8374481D01*
X14483359D01*
Y8377685D01*
Y8380889D01*
Y8384093D01*
Y8387297D01*
Y8390501D01*
Y8393706D01*
Y8396910D01*
Y8400114D01*
Y8403318D01*
Y8406522D01*
Y8409726D01*
Y8412931D01*
Y8416135D01*
Y8419339D01*
Y8422543D01*
Y8425747D01*
Y8428951D01*
D02*
G37*
G36*
X14307130Y8409726D02*
X14303926D01*
Y8406522D01*
Y8403318D01*
X14300722D01*
Y8400114D01*
Y8396910D01*
Y8393706D01*
X14297517D01*
Y8390501D01*
Y8387297D01*
X14294313D01*
Y8384093D01*
Y8380889D01*
Y8377685D01*
X14291109D01*
Y8374481D01*
Y8371277D01*
X14319946D01*
Y8374481D01*
X14316742D01*
Y8377685D01*
Y8380889D01*
Y8384093D01*
X14313538D01*
Y8387297D01*
Y8390501D01*
Y8393706D01*
X14310333D01*
Y8396910D01*
Y8400114D01*
Y8403318D01*
X14307130D01*
Y8406522D01*
Y8409726D01*
D02*
G37*
G36*
X15487215Y7474994D02*
X15466988D01*
Y7472971D01*
X15462943D01*
Y7470948D01*
Y7468926D01*
X15460921D01*
Y7466903D01*
Y7464880D01*
X15479356D01*
Y7462858D01*
X15483401D01*
Y7460835D01*
X15485425D01*
Y7458812D01*
X15487215D01*
Y7460835D01*
Y7462858D01*
Y7464880D01*
Y7466903D01*
Y7468926D01*
Y7470948D01*
Y7472971D01*
Y7474994D01*
D02*
G37*
G36*
X15471266Y7456790D02*
X15460921D01*
Y7454767D01*
Y7452744D01*
Y7450721D01*
Y7448699D01*
Y7446676D01*
Y7444653D01*
Y7442631D01*
Y7440608D01*
Y7438585D01*
Y7436562D01*
Y7434540D01*
Y7432517D01*
X15467220D01*
Y7430494D01*
Y7428472D01*
Y7426449D01*
Y7424426D01*
X15460921D01*
Y7422403D01*
Y7420381D01*
Y7418358D01*
Y7416335D01*
Y7414313D01*
Y7412290D01*
Y7410267D01*
Y7408245D01*
X15462943D01*
Y7406222D01*
X15464966D01*
Y7404199D01*
X15466988D01*
Y7402176D01*
X15471266D01*
Y7404199D01*
X15473288D01*
Y7406222D01*
X15475311D01*
Y7408245D01*
Y7410267D01*
Y7412290D01*
Y7414313D01*
Y7416335D01*
Y7418358D01*
Y7420381D01*
Y7422403D01*
Y7424426D01*
Y7426449D01*
Y7428472D01*
Y7430494D01*
Y7432517D01*
Y7434540D01*
Y7436562D01*
Y7438585D01*
Y7440608D01*
Y7442631D01*
Y7444653D01*
Y7446676D01*
Y7448699D01*
Y7450721D01*
Y7452744D01*
X15473288D01*
Y7454767D01*
X15471266D01*
Y7456790D01*
D02*
G37*
G36*
X14411366Y7321268D02*
X14409344D01*
Y7319245D01*
Y7317223D01*
Y7315200D01*
X14407321D01*
Y7313177D01*
Y7311155D01*
Y7309132D01*
Y7307109D01*
Y7305086D01*
X14405299D01*
Y7303064D01*
Y7301041D01*
Y7299018D01*
Y7296996D01*
Y7294973D01*
Y7292950D01*
X14403276D01*
Y7290928D01*
Y7288905D01*
Y7286882D01*
Y7284859D01*
Y7282837D01*
X14401253D01*
Y7280814D01*
Y7278791D01*
Y7276769D01*
Y7274746D01*
Y7272723D01*
X14419458D01*
Y7274746D01*
Y7276769D01*
Y7278791D01*
X14417435D01*
Y7280814D01*
Y7282837D01*
Y7284859D01*
Y7286882D01*
Y7288905D01*
X14415411D01*
Y7290928D01*
Y7292950D01*
Y7294973D01*
Y7296996D01*
Y7299018D01*
Y7301041D01*
X14413390D01*
Y7303064D01*
Y7305086D01*
Y7307109D01*
Y7309132D01*
Y7311155D01*
X14411366D01*
Y7313177D01*
Y7315200D01*
Y7317223D01*
Y7319245D01*
Y7321268D01*
D02*
G37*
G36*
X14051324Y7307109D02*
X14031097D01*
Y7305086D01*
X14029076D01*
Y7303064D01*
X14027052D01*
Y7301041D01*
Y7299018D01*
Y7296996D01*
Y7294973D01*
Y7292950D01*
Y7290928D01*
Y7288905D01*
Y7286882D01*
Y7284859D01*
Y7282837D01*
Y7280814D01*
Y7278791D01*
Y7276769D01*
Y7274746D01*
Y7272723D01*
Y7270700D01*
Y7268678D01*
Y7266655D01*
Y7264632D01*
Y7262610D01*
Y7260587D01*
Y7258564D01*
Y7256541D01*
X14029076D01*
Y7254519D01*
X14031097D01*
Y7252496D01*
X14049303D01*
Y7254519D01*
X14051324D01*
Y7256541D01*
X14053346D01*
Y7258564D01*
X14055370D01*
Y7260587D01*
Y7262610D01*
Y7264632D01*
Y7266655D01*
Y7268678D01*
Y7270700D01*
Y7272723D01*
Y7274746D01*
Y7276769D01*
Y7278791D01*
Y7280814D01*
Y7282837D01*
Y7284859D01*
Y7286882D01*
Y7288905D01*
Y7290928D01*
Y7292950D01*
Y7294973D01*
Y7296996D01*
Y7299018D01*
Y7301041D01*
Y7303064D01*
X14053346D01*
Y7305086D01*
X14051324D01*
Y7307109D01*
D02*
G37*
%LPD*%
%TF.MD5,a254e9de9c61f9b4e1695384050dffaa*%
M02*
