%TF.GenerationSoftware,Altium Limited,Altium Designer,22.2.1 (43)*%
G04 Layer_Color=16711935*
%FSLAX45Y45*%
%MOMM*%
%TF.SameCoordinates,1A700276-89F6-4FF8-B3D7-4A67EA63658B*%
%TF.FilePolarity,Positive*%
%TF.FileFunction,Other,Mechanical_13*%
%TF.Part,Single*%
G01*
G75*
%TA.AperFunction,NonConductor*%
%ADD29C,0.20000*%
%ADD30C,0.12700*%
%ADD31C,0.15240*%
%ADD34C,0.10000*%
%ADD55C,0.10160*%
G36*
X15654060Y5515587D02*
X15604010D01*
Y5610610D01*
X15654060D01*
Y5515587D01*
D02*
G37*
G36*
X15537112Y5515513D02*
X15487170D01*
Y5610610D01*
X15537112D01*
Y5515513D01*
D02*
G37*
G36*
X15654060Y5337787D02*
X15604010D01*
Y5432810D01*
X15654060D01*
Y5337787D01*
D02*
G37*
G36*
X15537112Y5337713D02*
X15487170D01*
Y5432810D01*
X15537112D01*
Y5337713D01*
D02*
G37*
G36*
X15248914Y4694710D02*
X15153889D01*
Y4744761D01*
X15248914D01*
Y4694710D01*
D02*
G37*
G36*
X15248987Y4577870D02*
X15153889D01*
Y4627812D01*
X15248987D01*
Y4577870D01*
D02*
G37*
G36*
X13636073Y6749570D02*
Y6799521D01*
X13540990D01*
Y6749570D01*
X13636073D01*
D02*
G37*
G36*
X14521970Y5794913D02*
X14571912D01*
Y5890010D01*
X14521970D01*
Y5794913D01*
D02*
G37*
G36*
X13636098Y6866410D02*
Y6916613D01*
X13540990D01*
Y6866410D01*
X13636098D01*
D02*
G37*
G36*
X14638811Y5794987D02*
X14688861D01*
Y5890010D01*
X14638811D01*
Y5794987D01*
D02*
G37*
G36*
X15536391Y5787413D02*
X15486339D01*
Y5692390D01*
X15536391D01*
Y5787413D01*
D02*
G37*
G36*
X15653230Y5787487D02*
X15603288D01*
Y5692390D01*
X15653230D01*
Y5787487D01*
D02*
G37*
G36*
X13636073Y7185271D02*
Y7235222D01*
X13540990D01*
Y7185271D01*
X13636073D01*
D02*
G37*
G36*
X13636098Y7302111D02*
Y7352315D01*
X13540990D01*
Y7302111D01*
X13636098D01*
D02*
G37*
G36*
X15388687Y9111770D02*
Y9161712D01*
X15293590D01*
Y9111770D01*
X15388687D01*
D02*
G37*
G36*
X13636073Y9988070D02*
Y10038021D01*
X13540990D01*
Y9988070D01*
X13636073D01*
D02*
G37*
G36*
X13636098Y10104910D02*
Y10155113D01*
X13540990D01*
Y10104910D01*
X13636098D01*
D02*
G37*
G36*
X15388612Y9228610D02*
Y9278661D01*
X15293590D01*
Y9228610D01*
X15388612D01*
D02*
G37*
G36*
X14294330Y12067790D02*
X14244379D01*
Y12162874D01*
X14294330D01*
Y12067790D01*
D02*
G37*
G36*
X14177490D02*
X14127287D01*
Y12162898D01*
X14177490D01*
Y12067790D01*
D02*
G37*
G36*
X14954730Y11115290D02*
X14904779D01*
Y11210374D01*
X14954730D01*
Y11115290D01*
D02*
G37*
G36*
X14837891D02*
X14787688D01*
Y11210398D01*
X14837891D01*
Y11115290D01*
D02*
G37*
G36*
X13636098Y10536710D02*
X13540990D01*
Y10586913D01*
X13636098D01*
Y10536710D01*
D02*
G37*
G36*
X13636073Y10419870D02*
X13540990D01*
Y10469821D01*
X13636073D01*
Y10419870D01*
D02*
G37*
D29*
X14640401Y7323600D02*
G03*
X14640401Y7323600I-10000J0D01*
G01*
X15008701Y11963400D02*
G03*
X15008701Y11963400I-10000J0D01*
G01*
X15123000Y6489700D02*
G03*
X15123000Y6489700I-10000J0D01*
G01*
X15059500Y5219700D02*
G03*
X15059500Y5219700I-10000J0D01*
G01*
X14900999Y10060300D02*
G03*
X14900999Y10060300I-10000J0D01*
G01*
D30*
X15126503Y7339498D02*
Y7519502D01*
X15226501Y7339498D02*
Y7519502D01*
X15126503Y7339498D02*
X15226501D01*
X15126503Y7519502D02*
X15226501D01*
X14335150Y7505852D02*
X14925650D01*
X14335150D02*
Y8191348D01*
X14925650D01*
Y7505852D02*
Y8191348D01*
X14847401Y9360703D02*
Y9460702D01*
X14667398Y9360703D02*
Y9460702D01*
Y9360703D02*
X14847401D01*
X14667398Y9460702D02*
X14847401D01*
X14455800Y11964401D02*
X14855800D01*
X14455800Y11454399D02*
X14855800D01*
Y11964401D01*
X14455800Y11454399D02*
Y11964401D01*
X15202698Y11606698D02*
X15302698D01*
X15202698Y11786702D02*
X15302698D01*
X15202698Y11606698D02*
Y11786702D01*
X15302698Y11606698D02*
Y11786702D01*
X14324498Y11113298D02*
Y11213297D01*
X14504501Y11113298D02*
Y11213297D01*
X14324498D02*
X14504501D01*
X14324498Y11113298D02*
X14504501D01*
X14072403Y11771798D02*
X14172401D01*
X14072403Y11951802D02*
X14172401D01*
X14072403Y11771798D02*
Y11951802D01*
X14172401Y11771798D02*
Y11951802D01*
X14047003Y6171098D02*
X14147002D01*
X14047003Y6351102D02*
X14147002D01*
X14047003Y6171098D02*
Y6351102D01*
X14147002Y6171098D02*
Y6351102D01*
X14250203Y6285398D02*
X14350201D01*
X14250203Y6465402D02*
X14350201D01*
X14250203Y6285398D02*
Y6465402D01*
X14350201Y6285398D02*
Y6465402D01*
X15329698Y6145698D02*
X15429697D01*
X15329698Y6325702D02*
X15429697D01*
X15329698Y6145698D02*
Y6325702D01*
X15429697Y6145698D02*
Y6325702D01*
X14570100Y6490701D02*
X14970100D01*
X14570100Y5980699D02*
X14970100D01*
Y6490701D01*
X14570100Y5980699D02*
Y6490701D01*
X15240804Y5195402D02*
X15340802D01*
X15240804Y5015398D02*
X15340802D01*
Y5195402D01*
X15240804Y5015398D02*
Y5195402D01*
X14337198Y4483898D02*
Y4583897D01*
X14517203Y4483898D02*
Y4583897D01*
X14337198D02*
X14517203D01*
X14337198Y4483898D02*
X14517203D01*
X14072403Y4901098D02*
X14172401D01*
X14072403Y5081102D02*
X14172401D01*
X14072403Y4901098D02*
Y5081102D01*
X14172401Y4901098D02*
Y5081102D01*
X14506595Y4710699D02*
Y5220701D01*
X14906595Y4710699D02*
Y5220701D01*
X14506595Y4710699D02*
X14906595D01*
X14506595Y5220701D02*
X14906595D01*
X15136002Y9744801D02*
Y9914799D01*
X14835999Y9744801D02*
Y9914799D01*
Y9744801D02*
X15136002D01*
X14835999Y9914799D02*
X15136002D01*
X15126503Y7049602D02*
X15226501D01*
X15126503Y6869598D02*
X15226501D01*
Y7049602D01*
X15126503Y6869598D02*
Y7049602D01*
D31*
X14411960Y8745220D02*
Y9085580D01*
X14036040D02*
X14310361D01*
X13934441Y8745220D02*
Y9085580D01*
X14036040Y8745220D02*
X14310361D01*
X13934441Y9085580D02*
X14036040D01*
X13934441Y8745220D02*
X14036040D01*
Y9085580D01*
X14310361Y8745220D02*
X14411960D01*
X14310361Y9085580D02*
X14411960D01*
X14310361Y8745220D02*
Y9085580D01*
X14632941Y8745220D02*
Y9085580D01*
X14734540Y8745220D02*
X15008859D01*
X15110460D02*
Y9085580D01*
X14734540D02*
X15008859D01*
Y8745220D02*
X15110460D01*
X15008859Y9085580D02*
X15110460D01*
X15008859Y8745220D02*
Y9085580D01*
X14632941D02*
X14734540D01*
X14632941Y8745220D02*
X14734540D01*
Y9085580D01*
X13842999Y9512300D02*
X14605000D01*
Y10274300D01*
X13842999D02*
X14605000D01*
X13842999Y9512300D02*
Y10274300D01*
Y9702800D02*
X14033501Y9512300D01*
X14414500D02*
X14605000Y9702800D01*
D34*
X15162901Y10271999D02*
Y11166003D01*
Y10271999D02*
X15842899D01*
Y11166003D01*
X15162901D02*
X15842899D01*
D55*
X15298399Y9159199D02*
Y9230401D01*
X15383501Y9159199D02*
Y9230401D01*
X15158701Y4625299D02*
Y4696501D01*
X15243800Y4625299D02*
Y4696501D01*
X14569398Y5885200D02*
X14640601D01*
X14569398Y5800100D02*
X14640601D01*
X15534599Y5605800D02*
X15605801D01*
X15534599Y5520700D02*
X15605801D01*
X15534599Y5428000D02*
X15605801D01*
X15534599Y5342900D02*
X15605801D01*
X15534599Y5697200D02*
X15605801D01*
X15534599Y5782300D02*
X15605801D01*
X14836099Y11205200D02*
X14907301D01*
X14836099Y11120100D02*
X14907301D01*
X14175699Y12157700D02*
X14246901D01*
X14175699Y12072600D02*
X14246901D01*
X13630901Y10467299D02*
Y10538501D01*
X13545799Y10467299D02*
Y10538501D01*
X13630901Y10035499D02*
Y10106701D01*
X13545799Y10035499D02*
Y10106701D01*
X13630901Y6796999D02*
Y6868201D01*
X13545799Y6796999D02*
Y6868201D01*
X13630901Y7232701D02*
Y7303902D01*
X13545799Y7232701D02*
Y7303902D01*
%TF.MD5,5665d06fb99d1ddfe226799384139513*%
M02*
